<?xml version="1.0" encoding="utf-8"?>
<!-- Generator: Adobe Illustrator 16.0.4, SVG Export Plug-In . SVG Version: 6.00 Build 0)  -->
<!DOCTYPE svg PUBLIC "-//W3C//DTD SVG 1.1//EN" "http://www.w3.org/Graphics/SVG/1.1/DTD/svg11.dtd">
<svg version="1.1" xmlns="http://www.w3.org/2000/svg" xmlns:xlink="http://www.w3.org/1999/xlink" x="0px" y="0px"
	 width="908.693px" height="277.995px" viewBox="0 0 908.693 277.995" enable-background="new 0 0 908.693 277.995"
	 xml:space="preserve">
<g id="OI_outline">
	<rect x="-33.679" y="-25.688" display="none" fill="#231F20" stroke="#231F20" stroke-miterlimit="10" width="986" height="328"/>
	<path fill="#FFFFFF" d="M312.723,112.864c0-25.833,20.43-43.899,44.744-43.899c24.482,0,44.744,18.066,44.744,43.899
		c0,25.665-20.261,43.901-44.744,43.901C333.153,156.765,312.723,138.529,312.723,112.864z M390.054,112.864
		c0-19.078-13.507-33.431-32.587-33.431c-18.911,0-32.587,14.353-32.587,33.431c0,19.249,13.676,33.433,32.587,33.433
		C376.546,146.297,390.054,132.113,390.054,112.864z M480.882,155.414h-13.506l-15.534-22.625c-2.365,0.506-5.065,0.675-7.768,0.675
		h-11.312v21.95h-11.988V70.316h23.3c22.795,0,35.795,12.664,35.795,31.574c0,12.832-6.079,22.457-17.053,27.353L480.882,155.414z
		 M443.568,123.164c17.559,0,24.144-8.779,24.144-21.274c0-12.325-6.585-21.106-24.144-21.106h-10.806v42.38H443.568z
		 M500.63,70.316h11.819v85.098H500.63V70.316z M536.929,70.316h53.862v10.468h-41.875v34.782h36.81v9.961h-36.81v19.586h43.562
		v10.3h-55.549V70.316z M631.646,104.93c-4.392-4.729-9.119-11.821-9.119-11.821s1.183,7.768,1.183,14.353v47.952h-11.144v-86.11
		h1.689l46.431,51.16c4.727,5.064,9.287,11.987,9.287,11.987s-0.845-7.766-0.845-14.183V70.316h11.145v86.28h-1.689L631.646,104.93z
		 M725.176,80.784h-26.34V70.316h64.668v10.468h-26.34v74.63h-11.989V80.784z M799.799,69.304h1.689l36.639,86.11h-12.495
		l-5.066-12.664h-40.522l-5.065,12.664H763.33L799.799,69.304z M816.854,133.634l-12.157-30.731
		c-2.195-5.234-4.221-13.17-4.221-13.17s-2.028,7.936-4.053,13.17l-12.495,30.731H816.854z M855.341,70.316h11.987v74.63h39.68
		v10.468h-51.667V70.316z M317.619,185.743h11.819v85.098h-11.819V185.743z M369.959,220.357c-4.39-4.729-9.118-11.821-9.118-11.821
		s1.182,7.768,1.182,14.353v47.952h-11.144V184.73h1.688L399,235.891c4.728,5.064,9.286,11.987,9.286,11.987
		s-0.844-7.766-0.844-14.183v-47.952h11.144v86.281h-1.688L369.959,220.357z M433.437,253.956l9.624-5.402
		c3.715,7.428,10.299,13.506,21.611,13.506c9.625,0,16.548-5.064,16.548-12.832c0-7.936-4.56-11.819-15.366-16.546l-6.753-3.04
		c-11.989-5.064-19.586-11.649-19.586-23.976c0-13.17,10.468-21.274,23.808-21.274c11.819,0,19.247,4.896,24.482,12.832
		l-8.949,6.079c-3.546-5.234-7.936-8.949-15.197-8.949c-7.598,0-12.664,4.053-12.664,11.144c0,6.585,3.715,9.961,11.989,13.676
		l6.923,3.04c14.351,6.247,23.131,13.17,23.131,26.846c0,14.183-11.312,23.132-28.197,23.132
		C448.971,272.192,438.165,263.75,433.437,253.956z M529.166,196.211h-26.34v-10.468h64.668v10.468h-26.34v74.63h-11.989V196.211z
		 M584.201,185.743h11.819v85.098h-11.819V185.743z M639.072,196.211h-26.34v-10.468h64.668v10.468h-26.339v74.63h-11.989V196.211z
		 M692.926,240.618v-54.875h11.987v54.369c0,14.857,7.429,21.612,19.923,21.612c12.496,0,20.093-6.755,20.093-21.612v-54.369h11.819
		v54.875c0,20.767-13.338,31.574-31.742,31.574C706.265,272.192,692.926,261.385,692.926,240.618z M798.615,196.211h-26.339v-10.468
		h64.668v10.468h-26.34v74.63h-11.989V196.211z M853.144,185.743h53.862v10.468h-41.875v34.782h36.809v9.962h-36.809v19.586h43.562
		v10.3h-55.55V185.743z M311.912,7.253v6.202h12.37v35.042h6.925V13.455h12.353V7.253H311.912z M376.189,7.253v17.831h-18.606V7.253
		h-6.908v41.244h6.908V31.372h18.606v17.125h6.84V7.253H376.189z M400.067,42.363V30.666h17.279v-5.978h-17.279V13.455h19.657V7.253
		h-26.583v41.244h27.375v-6.133H400.067z"/>
</g>
<g id="Roundel_White">
	<g>
		<g>
			<defs>
				<rect id="SVGID_1_" width="277.995" height="277.995"/>
			</defs>
			<clipPath id="SVGID_2_">
				<use xlink:href="#SVGID_1_"  overflow="visible"/>
			</clipPath>
			<g clip-path="url(#SVGID_2_)">
				<defs>
					<rect id="SVGID_3_" width="277.995" height="277.995"/>
				</defs>
				<clipPath id="SVGID_4_">
					<use xlink:href="#SVGID_3_"  overflow="visible"/>
				</clipPath>
				<path clip-path="url(#SVGID_4_)" fill="#FFFFFF" d="M201.545,160.949c-5.408-14.686-16.667-25.748-27.672-36.666
					c-11.537-11.411-22.756-22.187-33.713-34.123c-5.486-6.008-10.449-12.277-14.387-19.342c-1.683-3.012-3.629-8.312-2.858-12.214
					c0.913-4.728,3.088-8.336,5.883-11.372c2.66-2.901,5.495-5.444,9.274-8.042c3.756-2.614,9.965-4.872,12.584-9.043
					c2.787-4.458-3.724-9.583-7.845-7.008c-0.445-2.393-2.064-4.18-4.256-5.245c-1.453-0.708-3.176-1.136-4.375-0.994
					c-0.985,0.12-1.858,1.2-2.366,0.326c-0.746-1.296-1.612-1.947-3.351-2.575c-1.501-0.532-4.2-0.977-6.487-0.357
					c-2.049,0.556-3.255,2.59-4.24,2.026c-2.667-1.565-6.551-1.009-8.528-0.103c-1.556,0.714-2.818,2.28-3.573,3.457
					c-0.27,0.437-0.905,0.262-3.288-0.017c-2.437-0.302-5.018,1.058-6.717,3.259c-1.588,2.066-0.81,3.393-1.771,3.067
					c-0.905-0.302-2.096-0.588-3.581-0.271c-1.548,0.333-2.811,1.422-3.541,2.312c-0.977,1.184-1.755,3.195-1.882,4.744
					c-0.047,0.675-1.063,1.16-2.954,1.804c-1.302,0.437-2.509,2.408-2.787,3.767c-0.555,2.67-0.063,4.951,0.247,5.793
					c-0.715,0-1.993,0.453-2.652,1.334c-1.223,1.622-1.485,3.274-1.509,4.244c-0.039,1.375,0.778,4.157,1.454,5.213
					c-0.294,0.755-1.009,0.405-2.009,1.668c-0.611,0.755-1.064,3.099-0.762,5.038c0.341,2.186,1.08,3.767,1.81,4.935
					c-0.143,0.604-1.747,0.524-2.096,2.05c-0.413,1.884-0.111,3.075,0.731,5.11c0.523,1.295,1.477,2.694,2.954,4.323
					c-1.16,0.104-0.993,0.748-0.961,0.85c-1.786-2.122-5.479-3.361-8.836-4.641c-2.771-1.065-6.027-1.812-8.679-3.083
					c-5.145-2.487-7.782-5.546-9.862-10.775c-1.08-2.694-1.302-7.375-2.263-8.829c-0.46-0.7-1.604-0.485-1.834,1.121
					c-0.381,1.407,0.278,4.148,0.326,4.585c0.278,2.264,1.722,5.03,2.819,7.064c1.135,2.113,4.47,4.537,2.818,5.642
					c-1.866,0.366-5.368-5.11-6.471-8.146c-0.81-2.257-1.493-5.229-1.548-6.921c-0.715-0.325-1.755,0.716-2.017,2.305
					c-0.008,0.23,0.016,1.017,0.079,1.24c0.151,1.16,0.508,2.663,1.231,4.521c1.111,2.901,2.478,4.689,3.565,5.849
					c1.469,1.589,2.43,2.241,1.779,2.678c-1.43,0.938-5.216-3.227-6.368-5.833c-0.604-1.367-2.104-4.378-1.938-6.413
					c-1.921-0.652-2.478,1.025-2.358,2.741c-0.031,0.223,0.071,0.668,0.143,0.97c0.032,0.088,0.047,0.159,0.071,0.223
					c0.008,0.008,0.008,0.024,0.016,0.04c0,0.032,0.008,0.047,0.008,0.047c1.351,5.619,5.876,10.379,11.466,11.69
					c7.488,1.772,12.72,0.254,20.183,5.094c6.281,4.076,7.194,10.259,0.73,14.59c-5.614,3.758-14.069,3.345-20.588,3.369
					c-7.797,0.016-15.928-0.35-23.065,3.234c-5.692,2.853-11.521,7.891-13.641,13.716c-0.008,0-0.008,0-0.008,0.008
					c-1.247,2.829-1.62,5.897-1.754,10.378v0.025c0.04,3.838,1.318,7.446,2.691,10.417c1.445,3.107,4.129,6.151,7.122,8.479
					c1.557,1.224,3.922,2.162,5.749,2.94c0.762,0.327,2.914,1.129,3.391,1.844c-6.225,13.254-3.279,31.755,7.615,42.014
					c2.278,2.146,6.121,3.894,6.852,7.121c0.556,2.471-0.548,5.451-3.081,6.437c-2.858,1.128-4.47,3.631-4.129,6.62
					c0.096,0.834,1.636,5.077,2.993,6.094c0.35,0.255,0.683,0.295,0.993,0.033c2.057,1.343,3.112,3.79,4.82,5.475
					c1.715,1.725,3.883,2.909,6.209,3.64c5.646,1.772,10.489,4.688,14.522,8.932c1.81,1.915,3.613,4.076,4.771,6.444
					c1.151,2.32,1.731,5.157,3.938,6.826c2.08,1.59,1.517,3.21,3.962,4.284c0.437,0.19,1.119,1.208,1.659,2.019
					c1.929,0.969,3.581,2.09,5.558,2.956h0.008c0.086-0.023,0.968-0.23,0.92-0.525c-0.158-0.437-0.055-1.033-0.738-1.517
					c1.167,0.389,0.937,0.508,1.794,1.685c0.651,0.906,2.557,0.882,3.009,1.629c0.286,0.46,1.016-0.866,0.024-2.408
					c1.262,0.5,0.865,2.662,2.882,3.179c1.524,0.381,2.461,0.953,2.834,1.208c1.063,0.778,0.754-1.851-0.19-3.107
					c1.508,0.31,1.993,3.354,3.12,4.648c0.492,0.151,2.438,0.731,3.121,0.922c0.993,0.008,1.707-0.445,1.342-1.382
					c-1.707-2.313,0.135-6.866-1.945-9.457c-1.612-2.002-1.787-3.306-2.104-5.825c-0.31-2.622-0.707-3.568-3.025-5.634
					c-2.239-1.995-3.295-3.441-4.954-5.737c-3.597-5.03-10.886-7.549-16.31-10.926c-4.518-2.805-11.02-10.251-12.584-15.425
					c-1.207-3.965,11.72-11.658,15.507-14.518c2.834-2.138,5.693-5.062,7.797-7.152c1.564-1.558,4.137-4.498,5.502-6.874
					c2.652-4.641,2.732-9.178,2.589-14.884c-0.104-3.941-0.961-7.692-2.088-10.251c-1.484-3.361-3.057-5.69-3.518-5.69
					c1.405-0.182,3.208,1.796,4.645,4.372c1.477,2.63,2.875,5.912,3.414,10.537c0.564,4.799,0.381,10.815-1.906,16.012
					c0.199-0.104,6.495,4.641,7.202,5.094c2.525,1.589,5.09,3.115,7.718,4.538c6.042,3.282,12.394,6.079,19.024,8.042
					c6.526,1.923,13.848,2.575,20.676,2.638c0.389,0.016,0.524,0.445,0.476,1.168c-1.111,3.831-2.008,7.288-2.993,10.101
					c-2.231,6.373-4.335,12.19-7.257,18.325c-0.619,1.311-1.342,2.901-1.914,4.529c-0.62,1.756-1.048,3.624-1.032,5.213
					c0.04,0.405,0.159,0.469,0.262,0.58c0.635,0.66,2.611,0.214,2.008,2.432c-1.493,5.475-1.461,11.118,1.127,15.758
					c0.611,1.088,2.168,3.003,3.113,3.822c1.017,0.866,2.382,0.476,3.144,1.756c0.707,1.185,4.177,0.334,4.772,2.956
					c0.118,0.31,1.58,0.803,2.62,0.684c0,0,2.311,0.071,2.818-1.415c0.286-0.842,0.644-1.231,1.875,0.127
					c2.628,0.444,3.906-0.183,3.573-0.938c-0.874-2.01,0.659-0.993,1.191-0.349c2.461,1.938,3.795-1.661,3.78-1.653
					c0.762-1.812-0.207-4.903-1.136-6.27c-0.476-0.699-2.064-1.025-2.358-2.019c-0.453-1.565-1.644-2.972-3.318-3.687
					c-2.35-1.018-5.304-1.152-7.464-0.969c-3.898,0.31-3.986-3.711-2.723-7.852c1.159-3.798,4.819-7.931,7.289-10.974
					c5.486-6.787,10.561-13.875,15.967-20.717c2.938-3.728,5.804-7.621,8.861-11.277c0.421-0.5,0.437-0.317,0.945-0.636
					c1.057-4.807-0.016-6.707-3.589-8.939c-3.073-1.923-5.668-2.265-8.138-2.217c-2.397,0.056-4.375,0.549-6.599,1.725
					c-2.612,1.383-6.105,4.132-6.304,4.132c-0.874-0.023,4.589-4.155,6.272-5.172c3.081-1.844,4.867-2.305,7.885-2.369
					c5.764-0.104,11.561,1.86,13.172,8.122c0.278,1.08-0.072,3.559-0.826,4.211c1.684-0.636,3.931-1.455,4.852-1.82
					c0.937-0.365,2.255-1.239,2.882-1.732c0.667-0.524,1.978-1.677,2.795-2.742c1.208-1.557,2.724-3.727,3.312-4.617
					c1.103-1.692,2.294-4.101,3.224-6.644C204.927,174.624,204.221,168.18,201.545,160.949 M110.441,154.035
					c-1.143,1.263-2.024,2.876-2.707,5.022c-0.358,1.184-0.5,2.535-0.643,4.275c-0.111,1.398,0.024,3.258,0.285,4.855
					c0.381,2.369,0.374,3.592,0.167,4.259c-0.667,0.23-1.834-2.328-2.231-5.118c-0.381-2.63-0.413-4.76-0.072-7.254
					c0.357-2.488,1.048-4.141,2.041-5.619c0.762-1.113,2.128-2.598,3.359-3.457c1.556-1.082,2.897-1.645,5.415-1.907
					c0.501,0.444-1.675,1.319-2.699,2.201C112.323,152.167,111.584,152.78,110.441,154.035 M123.495,156.585
					c-1.208,1.001-2.493,2.114-3.582,3.449c-1.366,1.653-2.247,3.703-2.509,6.016c-0.229,2.026,0.024,4.442,0.421,5.992
					c0.429,1.677,0.85,3.298,0.746,3.346c-0.786,0.294-1.882-1.979-2.533-4.108c-0.611-1.986-1.009-4.33-0.437-6.905
					c0.604-2.781,1.215-3.894,2.787-5.539c1.215-1.248,2.771-2.082,4.852-2.749C123.28,156.109,123.725,156.387,123.495,156.585
					 M127.973,168.244c-0.397,1.931-0.58,3.218-0.231,4.704c0.35,1.486,1.215,3.544,0.881,3.91c-1.563-1.232-2.31-2.392-2.596-4.593
					c-0.278-2.059-0.111-3.234,0.683-5.38c0.762-2.05,2.763-4.188,3.93-3.179C129.744,163.937,128.37,166.329,127.973,168.244
					 M138.462,157.563c-2.795,0.556-4.431,0.064-5.86-1.518c-1.262-1.391-0.286-2.113-1.524-2.304
					c-1.684-0.254-2.406-0.691-3.692-1.748c-1.127-0.914-1.493-1.717-1.421-3.362c0-0.46-1.953-0.325-3.7-1.907
					c-1.581-1.415-1.874-2.502-1.906-3.925c-0.008-0.461-0.841-0.382-2.445-1.423c-0.977-0.636-2.057-2.257-2.478-3.822
					c-0.341-0.866-1.715-0.612-3.581-1.542c-1.509-0.755-2.247-1.677-2.43-2.67c-0.563-0.779-2.484-1.089-2.484-1.089
					c-10.101-2.543-18.445-4.299-28.529-5.403c-8.885-0.954-17.802,0.08-26.02,3.552c-7.296,3.083-14.117,9.527-22.629,8.439
					c-9.179-1.168-12.814-11.984-11.291-19.382c1.763-8.439,9.441-13.867,17.008-15.376c9.448-1.908,19.278-0.087,28.727-2.042
					c3.835-0.794,7.376-2.375,10.441-4.776c1.699-1.335,3.239-2.797,4.113-4.783c0.381-0.859,0.842-1.487,0.889-3.95
					c0.104,0.453,0.929,0.62,0.667,1.319c-0.31,0.866-0.079,2.52,0.763,3.727c2.048,2.917,3.064,2.503,4.263,3.687
					c0.953,0.945-0.833,1.565,0.969,4.291c1.397,2.09,3.032,1.963,4.2,2.781c1.247,0.867-1.247,1.884,1.7,5.006
					c1.103,1.168,1.992,1.208,3.287,2.233c1.104,0.866-0.151,1.979,1.279,3.774c1.278,1.582,3.311,2.766,3.565,3.203
					c0.651,1.121-0.421,1.2,0.5,2.893c1.438,2.67,3.652,3.171,4.017,4.084c0.374,0.961-0.349,0.922,0.215,2.606
					c0.801,2.352,1.651,3.012,3.224,3.688c0.857,0.374,2.208,0.389,2.453,1.502c0.271,1.168,2.509,2.232,3.621,2.463
					c0.794,0.151,2.041,0.572,2.128,1.017c0.238,1.399,0.938,2.598,1.691,3.441c0.849,0.961,2.66,1.231,3.255,2.193
					c0.127,1.128,0.326,2.375,1.199,3.218c1.357,1.343,2.358,1.613,4.113,2.13c0.667,0.198-0.389,1.391,0.953,3.266
					c0.889,1.216,2.564,1.709,4.756,2.177c0.421,1.526,0.667,2.464,2.08,3.346C136,157.467,138.699,156.967,138.462,157.563
					 M264.628,160.535c-0.159-1.478-1.945-0.563-2.946-0.508c0.826-1.558,2.239-2.217,2.914-4.06
					c0.445-1.224-2.096-1.756-3.009-1.741c-3.319,0.016-4.518,2.471-6.828,3.918c-2.93,1.859-3.955,2.305-4.892,5.825
					c-0.825,3.099-1.746,7.772-4.723,9.639c-5.686,3.568-11.966,2.321-18.493,1.574c-3.414-0.381-7.963-1.129-11.346,0.095
					c-3.295,1.208-4.891,6.008-7.376,7.008c1.85-5.515,4.812-8.033,7.369-12.42c3.565-6.119,6.645-13.326,9.059-20.16
					c3.955-11.133,6.646-22.377,7.011-34.242c0.215-6.747,0.358-13.795-1.08-20.439c-0.929-4.267-2.517-8.574-4.438-12.5
					c-1.08-2.201-2.311-4.601-3.629-6.723c-1.135-1.835-2.786-3.767-3.644-4.999c1.961-0.23,4.104,2.169,5.859,4.204
					c2.391,2.781,4.415,6.437,5.122,7.962c2.319,5.014,3.597,10.053,4.312,15.472c0.762,5.833,0.921,10.196,0.746,16.243
					c-0.174,5.889-0.73,11.943-1.651,16.338c-1.191,5.611-2.239,10.093-4.097,15.607c-1.961,5.824-3.509,9.528-6.423,15.702
					c-2.35,4.958-4.256,7.406-5.122,8.765c-0.746,1.16-2.286,3.099-2.286,3.099c0.627,0.215,5.153-5.118,6.249-6.771
					c1.414-2.105,2.724-4.14,4.225-7.358c3.033-6.556,5.589-13.255,7.51-20.582c1.779-6.715,2.946-14.359,3.28-21.623
					c0.357-7.867-0.223-15.305-1.048-21.297c-0.564-4.132-1.493-7.597-2.295-10.068c-0.826-2.543-2.454-5.555-3.716-7.804
					c-1.199-2.161-2.676-4.061-4.502-5.976c-1.31-1.367-4.033-3.402-3.636-4.57c0.175-0.5,2.351-3.297,4.129-6.095
					c2.159-3.361,2.962-6.563,1.938-6.866c-1.16-0.334-2.12,1.144-2.946,1.931c-0.77,0.739-1.985,1.804-2.85,2.4
					c-1.588,1.057-3.542,1.264-5.813,0.818c0-1.358-0.46-2.583-0.992-3.838c3.08-0.786,6.392-0.381,9.361-1.74
					c4.597-2.106,5.899-4.649,5.986-8.399c0.135-5.666-4.096-6.636-6.431-6.382c-1.112,0.247-2.494,0.667-3.32,1.248
					c-1.15,0.826-1.937,2.201-1.722,3.576c0.229,1.462,1.802,2.384,3.422,1.987c0.333-0.087,0.643-0.223,0.937-0.398
					c0.556,1.804-4.438,2.655-5.375,2.686c-2.819,0.088-6.63-0.85-8.393-1.374c3.144-3.068,6.098-5.992,6.098-10.728
					c0-0.994-0.126-2.066-0.412-3.235c-1.088-3.346-2.668-3.87-5.146-3.456c-3.756,0.651-4.986,3.925-4.677,6.476
					c0.437,3.64,4.288-0.429,4.55,0.874c-0.119,5.452-8.035,6.342-11.981,6.691c-4.558,0.422-8.13,0.946-11.243,4.418
					c-6.328-2.392-12.514-1.24-17.945,2.519c-3.231,2.242-5.565,3.441-9.457,4.133c-2.707,0.477-6.392,0.564-8.241,2.813
					c-0.779,0.945-1.072,2.375-0.961,3.623c0.072,0.787,0.23,1.344,0.754,1.629c0.374,0.215,0.572,0.453,0.199,0.89
					c-0.977,1.128,0.889,9.226,2.151,10.005c0.247,0.143,0.366,1.923,1.231,1.804c0.357-0.047,0.389,0.842,0.754,1.51
					c1.636,2.988,1.199-0.532,2.175-1.438c0.246,0.667,1.905,3.6,2.525,3.273c0.794-0.405-0.508-2.853,0.826-2.987
					c3.049-0.303,10.171-0.843,13.061,3.179c-1.008-0.247-1.873-0.469-3.223-0.39c-3.057,0.198-5.772,0.811-8.75,1.343
					c-1.183,0.223-8.599,1.279-6.589,3.56c1.794,2.026,5.764,0.247,7.884-0.493c2.842-0.986,6.653-0.032,8.925,1.359
					c-1.326,3.528-7.369,2.456-10.164,2.694c-0.572,0.047-0.754,0.096-1.271,0.071c-0.842-0.302-1.779-2.01-2.286-2.113
					c-0.429-0.088-0.517,1.907-0.294,2.383c-0.699,0.127-1.263,0.318-1.819,0.612c-1.564,0.802-0.357,1.144,0.151,2.042
					c1.684,2.988,0.929,6.437,5.479,7.24c3.549,0.62,4.891-3.337,8.329-2.932c1.643,0.198,9.25-1.677,10.013-0.366
					c1.429,2.495,6.153,1.398,6.375,4.927c0.484,7.62-9.607,19.104-10.307,20.113c-6.725-6.167-8.781-7.557-15.372-13.438
					c-4.652-4.148-8.75-7.923-12.291-11.674c-4.558-4.807-10.267-11.467-14.506-17.251c-3.335-4.546-5.987-8.932-7.075-11.333
					c-0.691-1.534-1.627-4.124-1.35-7.08c0.27-2.734,0.754-4.133,1.898-6.882c-0.707,0.54-1.175,1.367-1.747,3.155
					c-0.762,2.336-1.063,3.941-0.85,6.492c0.317,3.854,2.295,7.438,5.653,12.453c4.781,7.136,8.091,11.658,15.658,19.644
					c7.742,8.162,16.293,15.528,24.4,23.331c11.814,11.38,24.781,21.989,32.499,38.613c4.343,9.354,5.272,13.478,3.438,22.775
					c-0.77,3.87-3.089,8.781-6.447,12.619c-1.104,1.256-2.247,2.495-3.549,3.592c0.373-0.072,1.572-0.509,1.977-0.397
					c1.779,0.508,3.2,0.651,5.343,0.492c4.295-0.341,8.297-0.914,12.577-1.39c8.273-0.93,16.023-1.375,24.193-3.028
					c1.914-0.397,3.185-0.581,4.947-1.51c0.46-0.246-0.286-2.074,3.993-2.392c3.145-0.548,5.733-2.606,7.805-4.95
					c1.485-1.668,4.907-6.978,5.153-7.303c0.008,0,0.492-0.7,0.659-1.303c0.89-1.915,1.922-4.673,1.596-5.031
					c-0.77-0.826-3.001,1.463-4.01,2.003c0.874-2.114,2.088-3.648,3.168-5.92C263.993,163.03,264.7,161.131,264.628,160.535
					 M210.66,62.14c1.994-2.098,5.955,0.103,8.544-0.382c3.375-0.611,6.574-4.839,7.146-5.149c-0.937,4.84-5.565,10.101-9.933,12.23
					c-1.969,0.953-5.876,1.994-6.829-0.747C208.938,66.208,209.231,63.634,210.66,62.14 M171.214,58.771
					c-0.739-0.755-0.532-1.43-0.167-1.74c1.35-1.224,4.225-2.496,6.027-2.09c2.446,0.532,3.057,3.449,5.526,4.625
					C177.875,61.441,175.033,62.673,171.214,58.771 M203.371,66.693c-0.254,3.902-0.786,6.215-1.739,9.973
					c-0.866,3.473-1.969,6.254-3.828,9.56c-1.683,3.02-3.112,4.76-5.692,6.595c-1.247,0.89-3.073,1.836-4.51,2.091
					c-1.945,0.325-3.771,0.087-5.129-0.819c0.563-0.071,5.05-2.185,7.066-4.077c3.018-2.805,4.748-6.897,6.249-10.664
					c1.374-3.465,2.398-6.794,2.882-10.489c0.286-2.114,0.175-4.402-0.032-6.485c-0.182-1.843,0.556-2.264,1.938-3.195
					C202.435,57.929,203.53,64.326,203.371,66.693 M238.283,40.358C212.899,14.588,177.63,0.395,138.985,0.395
					c-35.039,0-70.276,15.202-96.685,41.696C15.924,68.569,0.79,103.884,0.79,138.984c0,36.658,14.253,71.162,40.129,97.171
					c26.09,26.224,60.955,40.655,98.17,40.655c34.793,0,69.992-15.313,96.558-42.029c26.409-26.534,41.558-61.459,41.558-95.797
					C277.205,100.864,263.382,65.843,238.283,40.358 M139.089,270.294c-35.119,0-68.078-13.581-92.827-38.231
					c-24.82-24.738-38.5-57.795-38.5-93.086c0-32.875,14.013-66.179,38.453-91.394c25.305-26.104,58.216-40.48,92.691-40.48
					c37.286,0,71.087,13.716,95.169,38.652c23.438,24.261,36.349,57.375,36.349,93.222
					C270.424,208.938,209.056,270.294,139.089,270.294"/>
			</g>
		</g>
	</g>
</g>
<g id="Border" display="none">
	
		<rect x="-41.151" y="-41.347" display="inline" fill="none" stroke="#231F20" stroke-width="0.5" stroke-miterlimit="10" width="1000" height="360.493"/>
</g>
</svg>
