<?xml version="1.0" encoding="utf-8"?>
<!-- Generator: Adobe Illustrator 16.0.4, SVG Export Plug-In . SVG Version: 6.00 Build 0)  -->
<!DOCTYPE svg PUBLIC "-//W3C//DTD SVG 1.1//EN" "http://www.w3.org/Graphics/SVG/1.1/DTD/svg11.dtd" [
	<!ENTITY st0 "fill:#817B75;">
	<!ENTITY st1 "fill:#8B0021;">
	<!ENTITY st2 "fill:#FAA61A;">
]>
<svg version="1.1" id="Layer_1" xmlns="http://www.w3.org/2000/svg" xmlns:xlink="http://www.w3.org/1999/xlink" x="0px" y="0px"
	 width="200px" height="126.51px" viewBox="0 0 200 126.51" style="enable-background:new 0 0 200 126.51;" xml:space="preserve">
<g>
	<path style="&st2;" d="M200,126.51H0V0h200V126.51L200,126.51z M5.31,121.2h189.38V5.31H5.31V121.2L5.31,121.2z"/>
	<path style="&st0;" d="M178.51,111.51h1.99v-9.4h3.56v-1.83h-9.11v1.83h3.56V111.51L178.51,111.51z M167.6,111.7
		c2.1,0,3.38-0.77,4.55-1.99l-1.27-1.28c-0.96,0.9-1.84,1.46-3.22,1.46c-2.15,0-3.7-1.8-3.7-3.99v-0.03c0-2.2,1.55-3.96,3.7-3.96
		c1.28,0,2.24,0.56,3.14,1.4l1.27-1.46c-1.07-1.03-2.33-1.75-4.39-1.75c-3.4,0-5.79,2.61-5.79,5.8v0.03
		C161.9,109.15,164.33,111.7,167.6,111.7 M152.07,107.05l1.92-4.49l1.94,4.49H152.07L152.07,107.05z M148.17,111.51h2.02l1.15-2.71
		h5.31l1.14,2.71h2.08l-4.94-11.3h-1.83L148.17,111.51L148.17,111.51z M140.1,106.12v-4.04h2.29c1.48,0,2.42,0.69,2.42,2v0.03
		c0,1.17-0.93,2-2.42,2H140.1L140.1,106.12z M138.13,111.51h1.97v-3.61h2.23c2.47,0,4.49-1.31,4.49-3.83v-0.03
		c0-2.26-1.65-3.75-4.26-3.75h-4.43V111.51L138.13,111.51z M122.78,111.51h1.94v-8.02l3.51,5.26h0.06l3.54-5.29v8.05h1.97v-11.22
		h-2.1l-3.42,5.31l-3.42-5.31h-2.1V111.51L122.78,111.51z M116.47,111.51h1.97v-11.22h-1.97V111.51L116.47,111.51z"/>
	<path style="&st0;" d="M102.71,110.03c-1.09,0-1.88-0.69-1.88-1.64v-0.03c0-0.72,0.45-1.41,1.49-1.86l2.5,2.55
		C104.19,109.66,103.48,110.03,102.71,110.03 M103,104.69c-0.62-0.69-0.85-1.11-0.85-1.67V103c0-0.79,0.53-1.35,1.33-1.35
		c0.75,0,1.28,0.51,1.28,1.27v0.03C104.76,103.75,104.15,104.28,103,104.69 M107.44,111.73l1.46-1.04l-1.76-1.8
		c0.58-0.79,1.07-1.67,1.52-2.57l-1.49-0.79c-0.37,0.79-0.77,1.52-1.2,2.16l-1.93-1.96c1.49-0.56,2.47-1.44,2.47-2.92v-0.03
		c0-1.51-1.2-2.71-2.98-2.71c-2,0-3.22,1.31-3.22,2.82v0.03c0,0.82,0.29,1.52,0.93,2.34c-1.54,0.66-2.39,1.7-2.39,3.14v0.03
		c0,1.94,1.57,3.21,3.66,3.21c1.36,0,2.48-0.56,3.45-1.46L107.44,111.73L107.44,111.73z"/>
	<path style="&st0;" d="M86.76,111.51h1.99v-4.47l4.46-6.75h-2.26l-3.17,4.97l-3.14-4.97H82.3l4.46,6.8V111.51L86.76,111.51z
		 M72.98,105.85v-3.77h2.87c1.46,0,2.32,0.66,2.32,1.86v0.03c0,1.14-0.9,1.88-2.31,1.88H72.98L72.98,105.85z M71.01,111.51h1.97
		v-3.91h2.47l2.76,3.91h2.32l-3.03-4.25c1.57-0.45,2.68-1.56,2.68-3.4v-0.03c0-0.98-0.34-1.81-0.93-2.42
		c-0.72-0.71-1.83-1.12-3.24-1.12h-5V111.51L71.01,111.51z M64.7,111.51h1.97v-11.22H64.7V111.51L64.7,111.51z M55.62,111.69
		c2.93,0,4.83-1.68,4.83-5.04v-6.37h-1.97v6.46c0,2.07-1.07,3.13-2.82,3.13c-1.76,0-2.84-1.12-2.84-3.21v-6.38h-1.97v6.46
		C50.85,110,52.71,111.69,55.62,111.69 M41.36,109.89c-2.23,0-3.82-1.81-3.82-3.99v-0.03c0-2.18,1.56-3.96,3.78-3.96
		c2.23,0,3.82,1.81,3.82,3.99v0.03c0,0.79-0.19,1.51-0.58,2.1l-1.94-1.76l-1.27,1.44l1.92,1.63
		C42.76,109.68,42.1,109.89,41.36,109.89 M46.09,111.85l1.27-1.41l-1.28-1.09c0.74-0.98,1.14-2.18,1.14-3.45v-0.03
		c0-3.16-2.4-5.77-5.85-5.77c-3.45,0-5.88,2.64-5.88,5.8v0.03c0,3.16,2.41,5.77,5.85,5.77c1.31,0,2.47-0.39,3.42-1.06L46.09,111.85
		L46.09,111.85z M21.96,111.51h1.94v-7.99l6.19,7.99h1.65v-11.22H29.8v7.76l-6.01-7.76h-1.83V111.51L21.96,111.51z M15.65,111.51
		h1.97v-11.22h-1.97V111.51L15.65,111.51z"/>
	<path style="&st1;" d="M166.57,90.16h3.52V75.68l11.22,14.48h3V69.81h-3.52v14.07l-10.9-14.07h-3.31V90.16L166.57,90.16z
		 M151.79,90.51c3.61,0,6.48-1.45,8.49-3.17v-8.55h-8.66v3.11h5.21v3.81c-1.25,0.93-3,1.54-4.91,1.54c-4.16,0-6.92-3.08-6.92-7.27
		v-0.06c0-3.9,2.85-7.18,6.6-7.18c2.59,0,4.13,0.84,5.7,2.18l2.27-2.7c-2.09-1.78-4.27-2.76-7.82-2.76c-6.13,0-10.5,4.83-10.5,10.52
		v0.06C141.24,85.98,145.43,90.51,151.79,90.51 M131.81,90.16h3.58V69.81h-3.58V90.16L131.81,90.16z M112.86,82.08l3.49-8.14
		l3.52,8.14H112.86L112.86,82.08z M105.79,90.16h3.66l2.09-4.91h9.62l2.06,4.91h3.78l-8.95-20.5h-3.31L105.79,90.16L105.79,90.16z
		 M92.25,80.39v-7.33h4.16c2.67,0,4.39,1.25,4.39,3.63v0.06c0,2.12-1.69,3.63-4.39,3.63H92.25L92.25,80.39z M88.68,90.16h3.58v-6.54
		h4.04c4.48,0,8.14-2.38,8.14-6.95v-0.06c0-4.1-2.99-6.8-7.73-6.8h-8.02V90.16L88.68,90.16z M61.85,90.16h3.52V75.63l6.37,9.54h0.12
		l6.43-9.59v14.6h3.58V69.81h-3.81l-6.19,9.62l-6.19-9.62h-3.81V90.16L61.85,90.16z M43,82.08l3.49-8.14L50,82.08H43L43,82.08z
		 M35.93,90.16h3.66l2.09-4.91h9.62l2.06,4.91h3.78l-8.95-20.5h-3.31L35.93,90.16L35.93,90.16z M24.32,90.51
		c3.81,0,6.13-1.4,8.26-3.61l-2.3-2.33c-1.74,1.63-3.34,2.65-5.84,2.65c-3.9,0-6.72-3.26-6.72-7.24v-0.06
		c0-3.98,2.82-7.18,6.72-7.18c2.33,0,4.07,1.02,5.7,2.53l2.3-2.65c-1.95-1.86-4.22-3.17-7.97-3.17c-6.16,0-10.5,4.74-10.5,10.52
		v0.06C13.97,85.89,18.39,90.51,24.32,90.51"/>
	<path style="&st1;" d="M176.68,25.56h1.79v-4.14h5.12V19.8h-5.12v-2.77h5.77V15.4h-7.56V25.56L176.68,25.56z M167.99,24.09
		c-2.02,0-3.45-1.64-3.45-3.61v-0.03c0-1.97,1.41-3.58,3.42-3.58c2.02,0,3.45,1.64,3.45,3.61v0.03
		C171.41,22.48,170.01,24.09,167.99,24.09 M167.96,25.73c3.12,0,5.33-2.39,5.33-5.25v-0.03c0-2.86-2.18-5.22-5.3-5.22
		c-3.12,0-5.33,2.39-5.33,5.25v0.03C162.66,23.36,164.84,25.73,167.96,25.73 M150.71,25.56h1.8v-4.05l4.03-6.11h-2.04l-2.87,4.5
		l-2.84-4.5h-2.1l4.04,6.15V25.56L150.71,25.56z M139.24,25.56h1.8v-8.5h3.22V15.4h-8.24v1.65h3.22V25.56L139.24,25.56z
		 M131.29,25.56h1.78V15.4h-1.78V25.56L131.29,25.56z M124.26,25.7c2.13,0,3.63-1.13,3.63-3.03v-0.03c0-1.68-1.12-2.45-3.26-2.98
		c-1.94-0.46-2.41-0.81-2.41-1.6v-0.03c0-0.67,0.61-1.21,1.65-1.21c0.93,0,1.84,0.36,2.76,1.04l0.96-1.35
		c-1.03-0.83-2.21-1.28-3.69-1.28c-2.02,0-3.47,1.2-3.47,2.95v0.03c0,1.87,1.22,2.51,3.38,3.03c1.89,0.44,2.29,0.83,2.29,1.55v0.03
		c0,0.77-0.7,1.28-1.8,1.28c-1.26,0-2.23-0.48-3.21-1.32l-1.07,1.28C121.24,25.16,122.71,25.7,124.26,25.7 M110.9,20.43v-3.41h2.6
		c1.32,0,2.1,0.59,2.1,1.68v0.03c0,1.03-0.81,1.7-2.09,1.7H110.9L110.9,20.43z M109.11,25.56h1.79v-3.54h2.24l2.5,3.54h2.1
		l-2.74-3.85c1.42-0.41,2.42-1.41,2.42-3.08V18.6c0-0.88-0.3-1.64-0.84-2.19c-0.65-0.64-1.65-1.02-2.93-1.02h-4.53V25.56
		L109.11,25.56z M98.12,25.56h7.6v-1.6H99.9v-2.73h5.09v-1.6H99.9v-2.64h5.75v-1.6h-7.53V25.56L98.12,25.56z M89.47,25.63h1.57
		l4.22-10.23h-1.93l-3.05,7.81l-3.06-7.81h-1.97L89.47,25.63L89.47,25.63z M80.58,25.56h1.78V15.4h-1.78V25.56L80.58,25.56z
		 M67.79,25.56h1.76v-7.23l5.6,7.23h1.5V15.4h-1.76v7.02l-5.44-7.02h-1.65V25.56L67.79,25.56z M59.63,25.72
		c2.66,0,4.37-1.52,4.37-4.56V15.4h-1.78v5.85c0,1.87-0.97,2.83-2.55,2.83c-1.6,0-2.57-1.02-2.57-2.9V15.4h-1.79v5.85
		C55.31,24.19,56.99,25.72,59.63,25.72 M38.92,25.56h7.6v-1.6h-5.82v-2.73h5.09v-1.6h-5.09v-2.64h5.75v-1.6h-7.53V25.56L38.92,25.56
		z M26.61,25.56h1.79v-4.28h4.85v4.28h1.78V15.4h-1.78v4.22h-4.85V15.4h-1.79V25.56L26.61,25.56z M18.67,25.56h1.8v-8.5h3.22V15.4
		h-8.24v1.65h3.22V25.56L18.67,25.56z"/>
	<path style="&st1;" d="M173.44,55.86c-4.91,0-8.41-3.99-8.41-8.8v-0.07c0-4.81,3.43-8.73,8.34-8.73c4.91,0,8.41,3.99,8.41,8.8v0.07
		C181.78,51.93,178.35,55.86,173.44,55.86 M173.37,59.85c7.6,0,12.97-5.83,12.97-12.79v-0.07c0-6.96-5.3-12.72-12.9-12.72
		c-7.6,0-12.97,5.83-12.97,12.79v0.07C160.47,54.09,165.77,59.85,173.37,59.85 M145.06,59.85c4.38,0,7.88-1.77,10.32-3.85V45.61
		h-10.53v3.78h6.33v4.63c-1.52,1.13-3.64,1.87-5.97,1.87c-5.05,0-8.41-3.75-8.41-8.83v-0.07c0-4.73,3.46-8.73,8.02-8.73
		c3.15,0,5.02,1.02,6.93,2.65l2.76-3.29c-2.54-2.16-5.19-3.36-9.51-3.36c-7.46,0-12.76,5.87-12.76,12.79v0.07
		C132.23,54.34,137.32,59.85,145.06,59.85 M113.04,49.6l4.24-9.9l4.28,9.9H113.04L113.04,49.6z M104.45,59.43h4.45l2.54-5.97h11.7
		l2.51,5.97h4.59l-10.88-24.91h-4.03L104.45,59.43L104.45,59.43z M91.63,59.85c4.63,0,7.46-1.7,10.04-4.38l-2.79-2.83
		c-2.12,1.98-4.06,3.22-7.1,3.22c-4.73,0-8.16-3.96-8.16-8.8v-0.07c0-4.84,3.43-8.73,8.16-8.73c2.83,0,4.95,1.24,6.93,3.07
		l2.79-3.22c-2.37-2.26-5.12-3.85-9.68-3.85c-7.49,0-12.76,5.76-12.76,12.79v0.07C79.05,54.23,84.42,59.85,91.63,59.85 M69.19,59.43
		h4.35V34.69h-4.35V59.43L69.19,59.43z M41.73,59.43h4.35V49h11.8v10.43h4.35V34.69h-4.35v10.28h-11.8V34.69h-4.35V59.43
		L41.73,59.43z M26.25,59.85c4.63,0,7.46-1.7,10.04-4.38l-2.79-2.83c-2.12,1.98-4.06,3.22-7.1,3.22c-4.74,0-8.16-3.96-8.16-8.8
		v-0.07c0-4.84,3.43-8.73,8.16-8.73c2.83,0,4.95,1.24,6.93,3.07l2.79-3.22c-2.37-2.26-5.12-3.85-9.68-3.85
		c-7.49,0-12.76,5.76-12.76,12.79v0.07C13.67,54.23,19.04,59.85,26.25,59.85"/>
</g>
</svg>
