<?xml version="1.0" encoding="utf-8"?>
<!-- Generator: Adobe Illustrator 16.0.4, SVG Export Plug-In . SVG Version: 6.00 Build 0)  -->
<!DOCTYPE svg PUBLIC "-//W3C//DTD SVG 1.1//EN" "http://www.w3.org/Graphics/SVG/1.1/DTD/svg11.dtd">
<svg version="1.1" id="Layer_1" xmlns="http://www.w3.org/2000/svg" xmlns:xlink="http://www.w3.org/1999/xlink" x="0px" y="0px"
	 width="394.455px" height="250.812px" viewBox="0 0 394.455 250.812" enable-background="new 0 0 394.455 250.812"
	 xml:space="preserve">
<g>
	<path fill="#E4E3E3" d="M99.486,48.155L56.083,79.904V38.366c0-19.041,3.444-33.601,24.078-33.601h5.819V0H84.4
		C49.735,0,20.378,9.007,16.665,35.191h-0.527c-2.646-9.521-8.467-19.04-13.234-23.808L0,14.287
		c7.144,5.564,16.408,26.725,16.408,43.93c0,0,0,91.722,0,91.814c0,3.983,0.665,9.93-2.859,12.798
		c-1.544,1.228-3.47,1.738-5.412,1.958c-0.948,0.08-1.915,0.138-2.88,0.181c-0.661,0.056-1.873-0.126-2.322,0.54
		c-0.361,0.55-0.068,1.764-0.045,2.423c0.044,0.886,0.627,0.813,1.314,0.721c0.988-0.12,1.974-0.256,2.981-0.36
		c2.378-0.24,4.758-0.457,7.155-0.62c4.885-0.397,9.763-0.64,14.658-0.766c2.646-0.081,5.294-0.106,7.942-0.106
		c10.496,0,20.735,0.554,30.594,1.585c0.922,0,1.817,0.217,2.117-0.833c0.182-0.657,0.138-1.773-0.316-2.281
		c-0.65-0.775-2.251-0.351-3.117-0.426c-1.006-0.055-2.024-0.168-3.017-0.375c-1.477-0.304-2.972-0.769-4.161-1.693
		c-3.682-2.814-2.957-8.939-2.957-13.019c0-0.051,0-64.83,0-64.83l8.738-6.346c1.322-1.055,3.172-2.112,5.819-2.112
		c6.616,0,7.669,8.458,7.669,16.926v76.342v1.727c0,47.616-12.167,63.753-38.892,75.647l1.85,3.702
		c13.234-7.144,26.996-13.747,39.162-22.484c20.17-14.426,30.06-30.568,34.461-50.469c2.298-10.372,3.109-21.767,3.109-34.457V92.07
		C118,74.084,114.826,66.685,99.486,48.155z"/>
	<g>
		<g>
			<defs>
				<rect id="SVGID_1_" x="84.455" y="79.645" width="310" height="86.858"/>
			</defs>
			<clipPath id="SVGID_2_">
				<use xlink:href="#SVGID_1_"  overflow="visible"/>
			</clipPath>
			<path clip-path="url(#SVGID_2_)" fill="#8B0021" d="M382.923,143.525c6.777,0,11.531-3.491,11.531-9.72v-0.096
				c0-5.474-3.588-7.763-9.959-9.423c-5.428-1.393-6.781-2.061-6.781-4.129v-0.088c0-1.524,1.398-2.736,4.045-2.736
				c2.641,0,5.379,1.163,8.164,3.094l3.588-5.202c-3.18-2.556-7.084-3.995-11.66-3.995c-6.416,0-10.994,3.766-10.994,9.47v0.087
				c0,6.236,4.074,7.983,10.412,9.604c5.24,1.335,6.324,2.232,6.324,3.996v0.077c0,1.841-1.713,2.975-4.531,2.975
				c-3.59,0-6.559-1.495-9.375-3.824l-4.088,4.894C373.373,141.875,378.171,143.525,382.923,143.525 M339.457,143.086h23.91v-6.15
				h-17.051v-6.592h14.803v-6.143h-14.803v-6.371h16.816v-6.151h-23.676V143.086z M322.453,143.086h6.906v-31.407h-6.906V143.086z
				 M298.132,143.086h6.904V118.05h9.566v-6.371h-26.02v6.371h9.549V143.086z M273.814,143.086h6.92v-31.407h-6.92V143.086z
				 M235.82,143.086h6.816v-19.963l15.207,19.963h5.885v-31.407H256.9v19.342l-14.707-19.342h-6.373V143.086z M207.826,129.935
				l4.17-10.179l4.177,10.179H207.826z M195.446,143.086h7.04l2.871-7.047h13.285l2.869,7.047h7.223l-13.458-31.627h-6.372
				L195.446,143.086z M156.952,143.086h6.773v-20.372l8.75,13.277h0.178l8.84-13.411v20.506h6.867v-31.407h-7.448l-8.259,13.285
				l-8.252-13.285h-7.449V143.086z M133.891,143.573c8.439,0,13.773-4.655,13.773-14.174v-17.721h-6.907v17.989
				c0,4.986-2.556,7.533-6.772,7.533s-6.772-2.642-6.772-7.754v-17.769h-6.914v17.941
				C120.299,138.871,125.458,143.573,133.891,143.573 M84.455,143.086h6.907v-12.6h12.742v12.6h6.911v-31.407h-6.911v12.428H91.362
				v-12.428h-6.907V143.086z"/>
			<path clip-path="url(#SVGID_2_)" fill="#8B0021" d="M377.042,99.857h14.508v-2.039h-12.273v-6.957h10.844v-2.049h-10.844v-6.785
				h12.125v-2.04h-14.359V99.857z M351.201,99.857h2.236v-8.943h11.48v8.943h2.234v-19.87h-2.234v8.825h-11.48v-8.825h-2.236V99.857
				z M333.785,99.857h2.281V82.059h6.674v-2.071h-15.627v2.071h6.672V99.857z M292.88,99.857h2.236v-8.654h10.77v-2.048h-10.77
				v-7.097h12.035v-2.071H292.88V99.857z M273.773,98.131c-4.543,0-7.836-3.695-7.836-8.207v-0.062c0-4.512,3.232-8.146,7.775-8.146
				s7.836,3.695,7.836,8.209v0.059C281.548,94.496,278.316,98.131,273.773,98.131 M273.712,100.2
				c6.049,0,10.158-4.796,10.158-10.276v-0.062c0-5.473-4.049-10.217-10.098-10.217c-6.047,0-10.176,4.797-10.176,10.279v0.059
				C263.597,95.457,267.666,100.2,273.712,100.2 M225.01,99.857h2.19V83.562l12.834,16.295h1.787v-19.87h-2.191v15.924
				l-12.512-15.924h-2.108V99.857z M205.909,98.131c-4.544,0-7.843-3.695-7.843-8.207v-0.062c0-4.512,3.239-8.146,7.781-8.146
				c4.544,0,7.836,3.695,7.836,8.209v0.059C213.683,94.496,210.451,98.131,205.909,98.131 M205.847,100.2
				c6.049,0,10.168-4.796,10.168-10.276v-0.062c0-5.473-4.059-10.217-10.106-10.217s-10.167,4.797-10.167,10.279v0.059
				C195.742,95.457,199.8,100.2,205.847,100.2 M184.295,99.857h2.249v-19.87h-2.249V99.857z M168.482,100.143
				c3.948,0,6.785-2.214,6.785-5.617v-0.061c0-3.038-2.04-4.654-6.471-5.622c-4.372-0.939-5.399-1.989-5.399-3.857v-0.062
				c0-1.786,1.653-3.209,4.233-3.209c2.045,0,3.893,0.655,5.739,2.16l1.303-1.734c-2.017-1.618-4.089-2.437-6.986-2.437
				c-3.776,0-6.531,2.294-6.531,5.423v0.051c0,3.27,2.1,4.746,6.672,5.736c4.179,0.887,5.169,1.936,5.169,3.779v0.055
				c0,1.959-1.756,3.383-4.43,3.383c-2.753,0-4.739-0.939-6.815-2.816l-1.389,1.648C162.748,99.09,165.333,100.143,168.482,100.143
				 M149.343,99.857h2.244v-19.87h-2.244V99.857z M130.433,100h1.987l8.55-20.013h-2.412l-7.103,17.122l-7.071-17.122h-2.496
				L130.433,100z M111.269,99.857h2.241v-19.87h-2.241V99.857z M86.848,97.787V82.059h4.654c5.028,0,8.236,3.463,8.236,7.865v0.059
				c0,4.402-3.208,7.805-8.236,7.805H86.848z M84.605,99.857h6.897c6.25,0,10.569-4.342,10.569-9.934v-0.062
				c0-5.592-4.319-9.874-10.569-9.874h-6.897V99.857z"/>
			<path clip-path="url(#SVGID_2_)" fill="#8B0021" d="M386.837,165.318c-2.564,0-4.428-2.088-4.428-4.632v-0.034
				c0-2.562,1.832-4.616,4.395-4.616c2.578,0,4.443,2.088,4.443,4.65v0.033C391.248,163.265,389.414,165.318,386.837,165.318
				 M386.804,166.503c3.428,0,5.752-2.714,5.752-5.816v-0.034c0-3.105-2.291-5.785-5.719-5.785s-5.752,2.714-5.752,5.819v0.033
				C381.085,163.808,383.39,166.503,386.804,166.503 M371.804,166.503c1.898,0,3.461-0.794,4.514-1.728v-4.479h-4.65v1.137h3.43v2.8
				c-0.775,0.628-1.971,1.12-3.244,1.12c-2.732,0-4.461-1.985-4.461-4.666v-0.034c0-2.512,1.787-4.616,4.275-4.616
				c1.596,0,2.564,0.526,3.43,1.29l0.812-0.967c-1.119-0.95-2.291-1.492-4.191-1.492c-3.375,0-5.633,2.73-5.633,5.819v0.033
				C366.085,163.927,368.267,166.503,371.804,166.503 M354.308,162.196l2.566-5.735l2.559,5.735H354.308z M351.171,166.303h1.305
				l1.326-2.97h6.125l1.322,2.97h1.357l-5.123-11.318h-1.189L351.171,166.303z M343.011,166.503c2.033,0,3.324-0.794,4.496-1.983
				l-0.832-0.814c-1.086,1.02-2.086,1.613-3.631,1.613c-2.479,0-4.361-2.036-4.361-4.632v-0.034c0-2.597,1.867-4.616,4.361-4.616
				c1.527,0,2.58,0.646,3.529,1.545l0.865-0.934c-1.119-1.052-2.342-1.78-4.377-1.78c-3.311,0-5.688,2.629-5.688,5.819v0.033
				C337.375,163.944,339.767,166.503,343.011,166.503 M330.896,166.303h1.273v-11.25h-1.273V166.303z M316.166,166.303h1.258v-5.057
				h6.5v5.057h1.271v-11.25h-1.271v5.006h-6.5v-5.006h-1.258V166.303z M307.041,166.503c2.035,0,3.324-0.794,4.496-1.983
				l-0.832-0.814c-1.086,1.02-2.09,1.613-3.631,1.613c-2.477,0-4.359-2.036-4.359-4.632v-0.034c0-2.597,1.865-4.616,4.359-4.616
				c1.525,0,2.578,0.646,3.529,1.545l0.865-0.934c-1.121-1.052-2.342-1.78-4.379-1.78c-3.311,0-5.699,2.629-5.699,5.819v0.033
				C301.39,163.944,303.789,166.503,307.041,166.503 M281.707,166.303h1.273v-4.904h6.092v-1.153h-6.092v-4.022h6.82v-1.17h-8.094
				V166.303z M270.898,165.318c-2.561,0-4.428-2.088-4.428-4.632v-0.034c0-2.562,1.832-4.616,4.395-4.616
				c2.58,0,4.445,2.088,4.445,4.65v0.033C275.31,163.265,273.48,165.318,270.898,165.318 M270.865,166.503
				c3.428,0,5.752-2.714,5.752-5.816v-0.034c0-3.105-2.289-5.785-5.719-5.785c-3.426,0-5.75,2.714-5.75,5.819v0.033
				C265.148,163.808,267.453,166.503,270.865,166.503 M248.027,166.303h1.273v-4.464l4.684-6.786h-1.479l-3.818,5.634l-3.799-5.634
				h-1.545l4.684,6.804V166.303z M234.656,166.303h1.291v-10.08h3.766v-1.17h-8.832v1.17h3.775V166.303z M224.705,166.303h1.273
				v-11.25h-1.273V166.303z M215.761,166.472c2.233,0,3.838-1.255,3.838-3.189v-0.035c0-1.713-1.154-2.629-3.666-3.172
				c-2.469-0.528-3.047-1.126-3.047-2.189v-0.033c0-1.019,0.926-1.816,2.394-1.816c1.154,0,2.197,0.374,3.24,1.223l0.739-0.984
				c-1.138-0.917-2.309-1.374-3.947-1.374c-2.136,0-3.697,1.306-3.697,3.071v0.033c0,1.847,1.188,2.682,3.775,3.241
				c2.359,0.492,2.928,1.086,2.928,2.138v0.034c0,1.102-1.002,1.9-2.513,1.9c-1.555,0-2.68-0.526-3.851-1.578l-0.789,0.934
				C212.513,165.879,213.974,166.472,215.761,166.472 M199.144,160.787v-4.564h3.47c1.815,0,2.876,0.85,2.876,2.224v0.034
				c0,1.441-1.205,2.307-2.891,2.307H199.144z M197.88,166.303h1.264v-4.36h3.215l3.266,4.36h1.553l-3.452-4.599
				c1.765-0.322,3.054-1.408,3.054-3.275v-0.033c0-0.883-0.322-1.663-0.865-2.206c-0.713-0.713-1.814-1.137-3.197-1.137h-4.836
				V166.303z M184.704,166.303h8.208v-1.154h-6.942v-3.937h6.141v-1.153h-6.141v-3.838h6.863v-1.168h-8.128V166.303z
				 M174.117,166.387h1.12l4.836-11.334h-1.366l-4.012,9.688l-4.005-9.688h-1.408L174.117,166.387z M163.268,166.303h1.271v-11.25
				h-1.271V166.303z M148.054,166.303h1.239v-9.214l7.262,9.214h1.01v-11.25h-1.239v9.024l-7.083-9.024h-1.188V166.303z
				 M137.951,166.488c2.808,0,4.692-1.713,4.692-4.988v-6.447h-1.273v6.55c0,2.46-1.315,3.702-3.392,3.702
				c-2.147,0-3.437-1.36-3.437-3.787v-6.465h-1.268v6.55C133.272,164.775,135.168,166.488,137.951,166.488 M113.043,166.303h8.211
				v-1.154h-6.939v-3.937h6.135v-1.153h-6.135v-3.838h6.855v-1.168h-8.127V166.303z M98.425,166.303h1.266v-5.057h6.49v5.057h1.271
				v-11.25h-1.271v5.006h-6.49v-5.006h-1.266V166.303z M88.575,166.303h1.283v-10.08h3.775v-1.17H84.8v1.17h3.775V166.303z"/>
		</g>
	</g>
</g>
</svg>
