<?xml version="1.0" encoding="UTF-8"?>
<svg width="756pt" version="1.1" xmlns="http://www.w3.org/2000/svg" height="152pt" viewBox="0 0 756 152" xmlns:xlink="http://www.w3.org/1999/xlink">
 <defs>
  <clipPath id="Clip0">
   <path d="M0 0 L0 151.999 L756 151.999 L756 0 L0 0 Z" transform="translate(0, 0.000976562)"/>
  </clipPath>
 </defs>
 <g id="Background">
  <g id="Group1" clip-path="url(#Clip0)">
   <path style="fill:#787874; fill-rule:nonzero;stroke:none;" d="M40.9443 37.9414 C40.4609 38.3028 41.5137 38.8086 41.4189 38.7813 C41.457 40.2705 41.2412 41.8028 41.748 42.5586 C42.0693 43.0293 43.0693 43.3731 43.2422 42.9239 C43.4102 42.4698 44.1689 41.545 44.3389 41.3877 C44.6533 41.1094 44.376 40.8555 44.1104 41.1289 C43.5615 41.709 43.2559 41.4414 42.8525 41.0567 C42.6572 40.836 42.584 38.752 42.7236 38.6895 C42.7236 38.6895 43.7305 38.543 43.9717 38.543 C44.1592 38.543 44.1436 37.9649 43.9473 37.9649 C43.6445 37.9649 42.7471 37.9727 42.6953 37.8321 C42.584 37.544 42.874 36.1387 42.9258 35.5078 C42.9668 35.0645 42.7275 34.9229 42.6074 35.3379 C42.4785 35.7442 41.5137 37.5274 40.9443 37.9414 Z M43.6045 32.6221 C44.1895 32.5743 45.1318 32.9248 46.1777 32.8389 C47.4229 32.75 48.3984 30.8223 47.8613 29.3223 C47.3604 27.8975 45.7734 28.1485 44.7031 27.8076 C43.7217 27.5391 43.3145 26.9219 44.3867 26.2168 C45.6475 25.4043 47.2109 26.709 47.3604 26.9834 C47.5918 27.3985 47.7852 27.3916 47.7852 26.8516 C47.8174 25.6719 47.71 26.3399 47.5918 25.2295 C47.5527 24.833 47.2637 24.7989 47.2363 25.1797 C47.2109 25.5674 46.7393 25.4493 46.3838 25.4493 C46.0225 25.4414 44.9707 25.2813 44.0635 25.7852 C43.4854 26.1211 42.1641 27.1563 42.9033 28.3985 C43.3359 29.1231 45.873 29.711 46.5049 30.1289 C47.1396 30.543 47.2822 31.6084 46.6758 32.0977 C45.9199 32.6973 43.8682 32.1924 43.5518 31.8291 C43.1357 31.3692 42.9775 30.9903 42.8896 30.4571 C42.8027 29.9112 42.3438 29.958 42.3438 30.4571 C42.3438 30.9532 42.4609 32.6602 42.5518 33.0606 C42.6338 33.4766 43.0498 33.3389 43.0889 33.0235 C43.1357 32.7305 43.3311 32.6446 43.6045 32.6221 Z M46.5049 34.2618 C46.2773 34.711 45.9092 35.1211 45.2393 35.4268 C45.6475 35.7813 46.1777 36.2403 46.5283 36.4707 C46.9316 36.0215 47.3018 35.6065 47.7646 35.168 C47.3057 35.0782 46.7734 34.8477 46.5049 34.2618 Z M40.1768 33.6026 C40.6025 33.2618 40.917 32.6875 41.0908 32.5528 C41.4189 32.2813 41.1494 32.0039 40.8721 32.2637 C40.6514 32.4815 40.0713 31.9766 40.0459 31.9434 C39.8574 31.7227 39.5811 28.8262 39.71 28.7608 C39.71 28.7608 41.5527 28.5332 41.7949 28.5371 C41.9775 28.5508 42.002 27.9639 41.8047 27.9541 C41.5049 27.9541 40.0996 28.1485 40.0498 28.0098 C39.9727 27.7032 39.7822 26.6719 40.2441 25.7852 C40.4609 25.3985 40.2383 25.0244 40.0938 25.42 C39.9307 25.8223 38.7764 27.6133 38.0312 27.9082 C37.4219 28.1582 37.4902 28.2989 37.8828 28.3985 C38.1934 28.459 38.5166 28.8301 38.457 28.8262 C38.3965 30.3116 38.25 32.1455 38.7119 32.9239 C39.0059 33.4151 39.8115 33.9239 40.1768 33.6026 Z M35.085 36.6641 C34.6191 37.1026 34.2539 37.503 33.5742 38.0391 C33.8896 38.4024 34.4258 38.8594 34.4727 39.4834 C34.5146 40.1143 34.4902 43.0381 34.5293 43.7696 C35.0273 43.7696 34.9385 43.8223 35.793 43.7891 C35.709 43.293 35.7803 39.4981 35.7803 38.9541 C36.1006 38.6485 36.1465 38.6016 36.5137 38.3282 C36.7773 38.5586 37.3965 38.6953 37.3965 39.1016 C37.3965 39.5108 37.5186 41.3125 37.374 41.9776 C37.1943 42.7891 37.2744 43.3731 37.7129 44.1934 C38.0449 43.8223 39.2881 42.9532 39.5576 42.7364 C39.8232 42.5059 39.6855 42.3321 39.3408 42.4258 C38.9727 42.5059 38.9082 42.5772 38.9082 42.3438 C38.9082 41.9063 38.7354 39.9297 38.709 38.668 C38.6631 37.4024 38.0449 37.0303 37.6904 36.8555 C37.3271 37.2578 36.5186 37.7666 36.0352 38.1778 C35.6699 37.9092 35.4893 37.3037 35.085 36.6641 Z M30.1855 37.5274 C30.4014 38.0762 31.0898 39.125 31.4014 39.3086 C30.8652 39.8457 29.5518 40.7364 29.1816 40.9961 C28.5098 40.1524 28.1475 38.7744 30.1855 37.5274 Z M27.8721 40.1016 C27.5518 42.4766 29.793 43.8907 30.8691 44.3477 C31.1406 43.8018 31.6904 42.916 32.2305 42.295 C32.6406 41.8164 32.1885 41.6895 31.8213 42.0576 C31.3242 42.5996 29.8438 42.085 29.4521 41.3692 C30.167 40.8311 32.0312 39.2715 32.8428 38.6065 C32.3066 38.1055 31.4785 36.8555 31.3506 36.1387 C30.627 36.626 28.2354 37.6309 27.8721 40.1016 Z M27.2559 28.6797 C26.3926 30.002 25.9189 32.086 27.416 33.3047 C28.1201 33.8946 28.7041 34.3535 30.1416 34.0977 C30.4268 33.5274 30.5547 33.3379 31.0596 32.6787 C30.0684 32.8389 29.3037 32.6602 28.5811 32.1123 C27.0908 30.9571 27.5518 29.0957 27.9922 28.46 C28.7949 27.2666 29.9375 28.9727 30.1416 29.2051 C30.4062 28.8868 30.8652 28.4336 31.3135 28.0821 C30.8691 27.4952 30.5068 26.9512 30.2061 26.5967 C29.2529 26.9395 27.8535 27.793 27.2559 28.6797 Z M34.1748 25.1524 C34.0605 25.0059 33.8428 24.7705 33.833 24.4746 C33.833 24.2803 33.8564 22.2383 33.8564 21.9844 C33.8564 21.7432 33.374 21.7686 33.374 21.9844 C33.3525 22.3477 33.4062 22.9649 33.082 23.4659 C32.1865 24.8516 30.4814 25.4219 29.2822 23.7227 C28.874 23.1592 28.7773 22.3047 28.7266 21.6953 C28.6455 20.8819 29.2627 19.8301 29.2979 19.7344 C30.8232 17.7344 32.9395 19.2198 33.1113 20.0323 C33.2246 20.5743 33.3467 21.2383 33.3467 21.5869 C33.333 21.8184 33.833 21.795 33.8428 21.5547 C33.8428 21.3067 33.8564 18.2344 33.8564 18.0196 C33.8652 17.8194 33.4531 17.7539 33.4443 18.0196 C33.4229 18.5039 33.1357 18.5469 32.7637 18.4268 C31.9912 18.1973 30.2812 17.8301 29.2861 18.4004 C28.4111 18.916 27.0713 20.1211 27.0947 21.6387 C27.1211 24.1348 28.0635 24.3457 29.1572 25.0176 C30.1826 25.6192 31.5986 25.2295 32.8936 24.8555 C33.4062 24.7149 33.4697 25.0401 33.7168 25.4043 C34.1348 25.9639 34.4727 25.6055 34.1748 25.1524 Z M34.9072 32.3203 C34.9023 32.5039 34.9072 32.6602 34.9102 32.8252 C34.7285 32.8711 34.5244 32.9141 34.2715 33.042 C33.9268 32.75 32.2959 32.2159 33.3643 31.3535 C34.0195 31.7403 34.2734 31.4385 34.9072 31.0469 C34.9111 31.5987 34.9072 32.1221 34.9072 32.3203 Z M34.8975 30.627 C33.959 31.2364 33.6592 31.2159 33.0127 30.4864 C32.6914 30.1143 32.7207 29.4121 32.8691 29.1465 C33.1602 28.6895 33.6719 28.2266 33.915 28.2325 C34.127 28.2461 34.8838 29.166 34.8311 29.5664 C34.8701 29.7891 34.8867 30.1983 34.8975 30.627 Z M34.8311 27.1905 C33.9893 27.2676 32.7725 28.252 32.4102 29.0996 C32.2637 29.4385 32.4717 30.6612 32.627 30.795 C32.7363 30.8926 32.8232 30.959 32.9189 31.0332 C32.3662 31.5479 31.8477 31.9854 31.8633 32.75 C31.8867 33.4854 32.4717 34.1407 33.2266 34.4834 C33.6318 33.8672 34.2637 33.4903 34.9395 33.3311 C34.9941 33.918 35.1309 34.3496 35.5166 34.6446 C35.7939 34.3379 36.9023 33.3809 37.1152 33.1641 C37.3506 32.9434 37.1748 32.6778 36.9023 32.9434 C36.7393 33.0938 36.3428 32.8711 36.2266 32.6778 C36.2266 32.3575 36.2266 28.9707 36.3682 28.8174 C35.8672 28.2754 35.3916 27.1289 34.8311 27.1905 Z M40.9531 18.9229 C41.2852 18.5977 40.9316 18.3614 40.6367 18.6446 C40.418 18.3828 39.8574 17.8047 39.5576 17.4522 C39.2393 17.7168 38.5098 18.1553 38.1025 18.3828 C37.7832 18.0176 37.3906 18.0176 36.7529 17.5176 C36.3994 17.7891 35.6172 18.3614 35.1963 18.8711 C35.9385 19.0879 36.498 19.1309 36.5449 19.7676 C36.5723 20.2871 36.4902 23.4785 36.5342 24.0625 C36.9316 24.1494 37.417 24.1104 37.9814 24.0821 C38.0254 23.625 38.0039 19.6211 38.0039 19.1778 C38.2178 19.0586 38.4365 18.9424 38.542 18.8438 C38.7764 19.0225 39.2393 19.6973 39.6133 19.92 C39.9014 19.7071 40.6367 19.2403 40.9531 18.9229 Z M43.1943 20.3243 C42.7051 18.75 42.8896 18.208 43.8682 17.4297 C44.0869 17.9727 44.6484 18.3633 44.9609 18.5508 C44.4102 19.0879 43.5518 20.0606 43.1943 20.3243 Z M46.376 22.2715 C44.4365 22.7608 43.5293 21.2071 43.3359 20.791 C44.1191 19.9903 45.4521 18.6797 46.2637 18.0137 C45.7275 17.5176 45.5059 16.6993 44.5527 16.6289 C43.7217 16.6514 41.7832 17.5938 41.4434 20.0547 C41.1172 22.418 43.3359 23.6944 45.0938 23.7657 C45.6797 23.7657 46.4102 23.0078 46.7734 22.8282 C47.5527 22.4473 47.2637 22.0684 46.376 22.2715 Z M51.8301 19.4004 C51.7139 19.4942 51.3809 19.7637 51.0225 20.0508 C50.8105 20.0879 50.5967 20.1114 50.376 20.084 C49.7119 19.9903 49.3926 19.4903 49.0869 19.0879 C48.7715 18.668 49.5869 18.3203 49.9883 18.3633 C50.3945 18.418 51.2939 18.9004 51.8301 19.4004 Z M50.4326 21.2618 C50.874 21.46 51.3223 21.6582 51.8105 21.9473 C52.5176 22.3477 52.1533 23.1075 51.3926 23.459 C50.6182 23.8145 49.2324 22.8145 49.0176 22.4034 C49.3008 22.1582 49.835 21.7344 50.4326 21.2618 Z M53.7617 18.5332 C53.2246 18.1641 52.6396 17.2696 51.3428 17.2119 C50.0381 17.1602 48.5674 18.3379 48.0898 19.0791 C47.4541 20.0586 48.2324 20.918 49.0615 21.5547 C48.5312 22.0078 47.7949 22.709 47.1133 23.3477 C47.3857 23.6436 48.8789 24.3496 49.7158 24.3282 C50.9824 24.3008 52.1533 23.6485 52.876 23.0684 C54.1934 22.0254 53.7354 20.918 52.3955 20.1358 C52.2676 20.0586 52.1436 20.0371 52.0166 20.0118 C52.8477 19.3535 53.5742 18.7647 53.7617 18.5332 Z M55.373 26.1006 L54.5811 25.2813 L53.7852 25.9971 L53.8008 26.9825 L54.2881 27.4825 L54.7812 27.4825 L55.373 26.9483 L55.373 26.1006 Z M55.0186 20.545 C54.7129 20.5274 54.2354 21.3692 56.0781 21.3008 C56.3662 21.2891 56.5801 20.6348 55.0186 20.545 Z M54.9961 21.6494 C54.6797 21.6309 54.2002 22.209 56.0488 22.4004 C56.3359 22.4336 56.7207 21.7539 54.9961 21.6494 Z M56.1973 34.0254 L56.8809 33.291 C56.1143 33.1446 56.1143 33.1963 55.7061 32.8301 L55.7363 29.293 L55.0684 28.3076 L54.7109 28.3555 L53.1738 29.7735 C52.7598 30.1446 53.1309 30.3203 53.5918 29.9112 L54.3857 30.3965 L54.4141 33.7266 C54.4951 34.125 54.8457 34.2618 55.335 34.7676 L56.1973 34.0254 Z M51.4932 40.3174 C52.0645 40.7032 52.3926 40.6524 53.1143 40.5821 C53.084 40.9727 53.0566 41.3321 53.0566 41.4922 C53.0566 41.6641 53.127 41.8018 53.1768 41.9483 C52.8027 42.0811 52.3281 42.1612 51.9619 42.3438 C51.6309 42.0528 50.4102 41.2188 51.4932 40.3174 Z M53.1436 40.2051 C52.5195 40.2178 51.9834 40.0254 51.3027 39.4268 C51.1738 39.3184 51.0518 38.543 51.1992 38.291 C51.499 37.8145 51.499 37.667 51.7598 37.6719 C51.9619 37.6719 53.2188 38.4307 53.1523 38.836 C53.2002 39.125 53.1768 39.67 53.1436 40.2051 Z M50.9707 39.9121 C50.417 40.4825 50.0059 41.1133 50.0127 41.9063 C50.04 42.6602 50.291 43.4102 51.0596 43.751 C51.7393 43.25 52.6143 42.6416 53.4561 42.4834 C53.8691 42.9805 54.5049 43.3106 54.8848 43.6104 C55.1484 43.292 55.9893 42.6094 56.2227 42.3965 C56.4434 42.1709 56.2227 41.8545 55.9893 42.1524 C55.8105 42.4248 55.2178 42.2266 55.0479 41.9483 C55.0479 41.627 54.7402 38.2344 54.877 38.0762 C54.3867 37.5313 53.5439 36.2998 52.9756 36.3614 C52.1494 36.4453 50.9141 37.627 50.6475 38.0127 C50.4463 38.3028 50.708 39.6993 50.8662 39.8321 C50.9102 39.8643 50.9307 39.875 50.9707 39.9121 Z M48.7637 31.8389 C49.2803 33.3047 50.4951 33.7676 51.4023 33.8389 C51.6699 33.3379 52.1719 32.5743 52.4473 32.2207 C52.8545 31.6797 52.4385 31.3535 52.1533 31.9766 C51.9346 32.4571 50.7588 31.9336 50.332 31.5235 C49.7598 30.9903 49.4033 29.5918 49.8594 29.0996 C50.3203 28.6035 50.9814 28.8301 51.834 28.8067 C52.3955 28.7793 52.5146 28.2608 52.6104 27.9961 C52.3398 27.8692 51.9346 27.6387 51.4023 27.3174 C50.8525 27.666 50.0059 28.3868 49.6396 28.6895 C49.1826 29.0762 48.2471 30.4102 48.7637 31.8389 Z M48.4316 42.4688 L49.0977 41.7305 C48.3477 41.5918 48.6973 41.5996 48.3008 41.2344 L48.2773 38.1797 L47.3018 36.7481 L46.9316 36.7989 L45.4023 38.2276 C44.9971 38.5821 45.3545 38.752 45.8252 38.3604 L46.8369 38.8848 L46.8613 42.1192 C46.9463 42.5186 47.3018 42.6104 47.7939 43.1172 L48.4316 42.4688 Z M61.1709 60.0957 C61.1709 60.0957 61.7881 59.4278 61.7852 58.9493 C61.7842 58.3008 61.1729 57.8282 61.1729 57.8282 C61.6982 57.9785 62.9443 58.6817 63.3906 58.9746 L61.1709 60.0957 Z M65.0869 58.9141 L65.0869 58.8282 C63.7178 58.6309 62.6436 57.6739 61.3916 57.1993 C59.6592 56.545 57.8232 57.8809 57.8232 58.0938 C57.8232 58.5606 58.3145 58.7989 59.7158 57.918 C58.6182 59.1895 59.8652 60.2227 59.8652 60.2227 C59.4092 60.1543 58.7578 60.002 58.3408 59.7627 C58.2568 60.2227 58.8896 60.3907 59.1904 60.5899 C61.5146 61.545 63.0439 59.3086 65.0869 58.9141 Z M80.8057 37.6162 C80.4482 37.9785 79.8242 38.3965 79.2393 39.0459 C79.7236 39.0801 80.126 39.1836 80.3584 39.6485 C80.5977 40.1084 80.3965 42.0489 80.4297 42.7979 C80.4678 43.5235 80.9072 43.6778 81.4834 44.2793 C82.0576 44.1338 83.6611 43.4629 84.2021 43.0928 C84.1533 43.6895 84.9072 44.3584 85.3525 44.4893 C85.6514 44.1641 85.9756 43.9864 86.4141 43.5782 C85.9863 43.292 86.043 43.252 85.8818 42.6846 C85.7559 42.1368 85.9121 40.0625 85.9268 39.1729 C85.5879 38.6582 85.0303 38.043 84.46 37.6162 C84.0576 37.9825 83.5146 38.4746 82.8779 39.1446 C83.3525 39.0801 84.2852 39.2696 84.3301 39.668 C84.3574 40.1826 84.4355 41.3067 84.3301 42.1797 C84.2236 43.0596 81.8564 42.6563 81.8242 42.0635 C81.7715 41.4532 81.9453 39.7022 81.958 38.8731 C81.623 38.3594 81.4238 38.0762 80.8057 37.6162 Z M81.9883 30.7852 C82.1611 29.9121 82.7744 29.5547 83.0566 29.292 C83.4541 29.7344 83.8545 30.2325 84.4531 30.2325 C85.0381 30.2383 85.6475 29.9668 85.8359 29.7246 C85.3525 29.336 84.2529 28.1778 84.0312 27.96 C83.4746 28.2686 81.0557 29.5254 80.8506 30.9756 C80.5557 33.1153 81.2334 33.541 82.1729 34.7168 C82.7012 35.3848 83.585 35.4141 83.9863 35.3116 C84.4199 35.0118 86.0049 33.5078 86.1807 33.3184 C86.3398 33.1348 86.1094 32.9649 85.9121 33.1534 C85.7158 33.333 85.793 33.4102 85.5312 33.4493 C85.2617 33.4932 84.1836 33.6739 83.5566 33.3467 C82.7744 32.9356 81.7529 31.9688 81.9883 30.7852 Z M75.2354 30.5528 C75.293 31.9942 74.5439 33.5078 73.7266 34.1914 C75.1367 33.8262 75.3223 32.9844 76.0938 31.9942 C76.5195 32.625 77.3125 33.3868 77.8916 33.7159 C78.2988 33.4453 79.4521 32.1504 79.7051 31.8828 C78.874 31.6602 77.2666 30.8106 76.8662 29.9141 C76.5508 29.2481 76.626 28.9336 76.9404 28.4102 C77.2207 28.7793 79.1748 29.6778 80.0537 28.1778 C79.0928 27.8282 78.2275 27.1983 77.9355 26.6895 C77.6768 26.9024 76.8184 27.8379 76.335 28.1348 C76.2227 27.6192 75.4336 27.0655 74.7939 26.9512 C74.5859 27.1739 73.0781 28.3233 72.3906 28.6582 C72.1777 28.7598 72.2588 29.2207 72.5557 29.1035 C72.8359 28.9815 73.3018 28.628 73.8398 28.3711 C74.4648 28.6143 75.1719 29.2481 75.2354 30.5528 Z M74.959 37.4746 C74.3828 37.7618 75.7275 38.295 75.6377 38.2705 C75.6191 39.795 75.3115 42.2871 75.8359 43.0782 C76.1572 43.5616 76.8955 43.8789 77.3887 43.6895 C77.8613 43.5 78.4658 42.5547 78.6465 42.3985 C78.9971 42.1368 78.6973 41.8555 78.4033 42.127 C78.1143 42.3985 77.3262 42.2051 77.2207 41.9317 C77.1387 41.6465 77.0381 38.3203 77.1758 38.253 C77.1758 38.253 78.125 38.2325 78.3779 38.2403 C78.5771 38.2403 78.5908 37.6368 78.3955 37.6368 C78.0498 37.6309 77.2842 37.5625 77.2393 37.4258 C77.126 37.1133 77.2666 36.0996 77.4639 35.6875 C77.666 35.2715 77.2793 35.0899 77.126 35.4961 C76.9697 35.9278 75.9727 36.9766 74.959 37.4746 Z M69.5068 38.4737 C69.8311 37.9785 70.0352 37.8828 70.2939 37.8828 C70.5283 37.8965 71.4316 38.5176 71.3848 38.9356 C71.4287 39.2071 71.4385 39.7735 71.4355 40.3516 C70.7598 40.4336 70.2832 40.5118 69.5254 39.8711 C69.3857 39.7598 69.3467 38.7325 69.5068 38.4737 Z M69.9141 40.7071 C70.4102 40.9844 70.6602 40.8125 71.4316 40.7285 C71.4277 41.2149 71.415 41.6514 71.4131 41.8848 C71.0732 42.127 70.6562 42.3399 70.1748 42.5782 C69.7939 42.2637 69.2354 41.9961 69.9141 40.7071 Z M69.291 40.2549 C68.873 40.6485 68.127 41.6719 68.1436 42.4268 C68.1562 43.1993 68.5273 43.9414 68.9746 44.3584 C69.7393 43.8252 70.2158 43.0918 71.4863 42.6016 C71.6436 43.1944 72.0615 43.2852 72.5566 43.6592 C72.8535 43.336 73.9326 42.0098 74.1709 41.7774 C74.4102 41.5508 74.2734 41.3164 73.9326 41.5508 C73.5928 41.7774 73.3594 41.6377 72.791 41.0274 C72.8115 40.6953 72.7529 37.9883 72.8848 37.8379 C72.3652 37.2803 71.8896 36.5196 71.2773 36.5772 C70.3867 36.6504 69.2549 38.2032 68.9746 38.6055 C68.751 38.8965 68.9854 40.0078 69.1523 40.1465 C69.2109 40.2022 69.2402 40.2071 69.291 40.2549 Z M64.0977 35.1084 C64.127 35.8399 64.3945 42.1368 64.3154 43.0098 C64.2656 43.5098 64.9355 44.0391 65.5479 44.4551 C65.8447 44.0957 66.4912 43.1553 67.0264 42.7598 C67.3408 42.5 67.123 42.3311 66.8799 42.4268 C66.3984 42.6504 65.9121 42.4766 65.8652 41.918 C65.8213 41.3604 65.8213 35.9434 65.8652 35.1621 C65.4932 35.1621 64.4473 35.1416 64.0977 35.1084 Z M63.6436 30.541 C63.6719 33.1153 64.6943 33.333 65.8652 34.0059 C66.9736 34.6328 68.8359 34.5078 70.2324 34.1387 C70.7617 33.9844 71.0479 33.9532 71.0312 34.4102 C71.0312 34.6953 71.4316 34.6328 71.4316 34.4209 C71.4316 34.211 71.4502 32.0518 71.4502 31.8135 C71.4502 31.543 71.0605 31.584 71.0605 31.8135 C71.0605 32.1739 71.0605 32.2813 70.7061 32.795 C69.7441 34.2159 67.3408 34.1582 66.0547 32.4209 C65.6133 31.8291 65.2129 31.0381 65.7227 30.8877 C66.2305 30.7325 67.7764 31.0537 68.7979 31.1407 C69.4121 31.1797 70.8262 31.3243 71.0029 31.4258 C71.1602 31.543 71.3994 31.6914 71.3994 31.3838 C71.4131 31.0821 71.4131 30.0899 71.4131 29.7832 C71.4131 29.4864 71.1826 29.6289 71.0098 29.7344 C70.835 29.8555 69.3271 30.1075 68.7227 30.2139 C68.1152 30.3262 66.2461 30.4766 65.7529 30.3106 C65.251 30.1426 65.418 29.1328 65.8652 28.5547 C67.1689 26.8301 69.8008 26.9512 70.752 28.3848 C71.0801 28.8848 71.0801 29.002 71.0801 29.377 C71.0801 29.6016 71.458 29.6289 71.458 29.377 C71.4805 29.1328 71.4893 26.5274 71.4893 26.3184 C71.4893 26.1153 71.1074 26.042 71.1074 26.3184 C71.1074 26.5098 70.6885 26.6192 70.2764 26.5098 C69.459 26.252 67.0771 26.6192 66.0146 27.2012 C65.0732 27.7403 63.624 28.9815 63.6436 30.541 Z M73.7695 15.5801 C73.2852 15.5235 71.6826 15.6582 71.1064 15.7491 C70.5273 15.8369 70.5273 16.1182 71.0098 16.1768 C71.4893 16.2266 71.5811 16.3272 71.834 16.9727 C72.0654 17.6221 70.9102 20.5674 70.6221 21.2618 C70.2842 20.7559 69.0586 18.0606 69.0586 17.6953 C69.0586 17.4336 69.5986 17.1709 69.8311 17.1094 C70.2842 16.9688 70.2754 16.6582 69.9316 16.5899 C68.9736 16.4551 65.5986 16.1582 65.002 16.084 C64.5723 16.0469 64.376 16.545 64.8975 16.545 C65.4395 16.5606 66.002 16.3994 66.5918 17.2657 C67.2734 18.2442 69.4121 22.8418 69.9229 24.7754 C70.1738 24.3692 72.3096 18.1817 72.4316 17.5254 C72.585 16.8848 73.0352 16.2598 73.6641 16.0743 C74.3096 15.9004 74.251 15.6241 73.7695 15.5801 Z M76.6621 16.7032 L77.2959 16.1524 L77.2959 15.2696 L76.4414 14.4414 L75.5938 15.1621 L75.6133 16.1817 L76.1387 16.7032 L76.6621 16.7032 Z M77.6387 24.7735 L78.7646 23.3086 C77.9473 23.167 77.6104 23.0157 77.0391 22.3653 L77.0615 18.7305 L75.9102 17.5801 L75.5166 17.6231 L73.7109 19.209 C73.5244 19.4844 74.0098 19.4844 74.251 19.1563 L75.5615 19.9073 L75.6191 23.4239 C75.7197 23.8457 76.0674 24.252 76.5879 24.7735 L77.6387 24.7735 Z M85.1318 18.5391 C84.7861 18.5391 82.4805 18.5879 82.4209 18.4571 C82.252 17.9629 82.21 17.3614 82.6064 16.5254 C82.8027 16.1094 82.4209 15.9346 82.2725 16.3535 C82.127 16.7637 80.9717 18.3594 79.7715 18.8741 C79.1543 19.1172 80.5234 19.6846 80.4297 19.6582 C80.4229 21.1953 80.6436 23.502 80.9717 24.4248 C81.1738 24.9746 81.7988 25.8692 82.2285 25.5957 C82.5068 25.4209 83.1104 24.2246 83.3008 24.0723 C83.6338 23.8018 83.3076 23.3399 83.0303 23.6182 C82.7207 23.8887 82.459 23.4668 82.374 23.1856 C82.2725 22.9131 81.9893 19.5323 82.1318 19.4668 C82.1318 19.4668 84.8604 19.1358 85.1318 19.1358 C85.3184 19.1358 85.3271 18.5391 85.1318 18.5391 Z M89.3271 25.1016 C88.9521 25.1221 88.626 25.2227 88.1475 25.4512 C87.7549 25.1309 86.7344 23.8985 87.4863 22.5215 C87.3828 22.459 87.2754 22.4053 87.1738 22.3418 C87.8672 22.7305 88.6758 23.0694 89.3125 23.2735 C89.3066 23.8223 89.29 24.3155 89.29 24.4961 C89.2881 24.7285 89.3066 24.918 89.3271 25.1016 Z M89.3164 22.9395 C88.5977 22.6817 87.1807 22.0157 86.666 21.5899 C86.5293 21.4825 86.5156 21.42 86.6826 21.1534 C87.0107 20.668 87.3828 20.2422 87.6436 20.2618 C87.8672 20.2618 89.3076 21.0332 89.2617 21.4395 C89.3125 21.7256 89.3213 22.3321 89.3164 22.9395 Z M90.1953 26.6202 L91.6543 25.0244 C91.6543 25.0244 91.0059 24.5157 90.6211 24.043 C90.6211 23.709 90.6211 20.5147 90.7617 20.3428 C89.6641 19.3643 88.8633 19.2403 88.3906 19.3028 C87.502 19.4366 86.5928 20.5762 86.3037 20.958 C86.0928 21.2598 86.1475 21.6387 86.3037 21.7803 C86.4814 21.9239 86.71 22.0703 86.9521 22.2149 C86.9111 22.1914 86.873 22.166 86.8311 22.1485 C86.415 22.541 85.8096 23.668 85.8291 24.4317 C85.8379 25.1993 86.5293 26.3145 86.9941 26.7325 C87.5088 26.334 88.2695 25.668 89.3877 25.4512 C89.5107 25.9883 89.7676 26.3145 90.1953 26.6202 Z M90.2461 35.0645 C89.8701 34.8809 88.498 33.8223 88.1846 33.0137 C87.7734 31.92 87.7734 30.7129 88.9355 30.0059 C89.8428 30.3399 90.9004 31.2325 90.9951 32.0518 C91.125 33.1153 90.8184 34.375 90.2461 35.0645 Z M91.4785 34.6328 C91.877 33.9121 92.4648 32.7461 92.4258 31.8584 C92.373 30.7666 91.7031 29.1465 90.1016 28.6143 C88.0723 29.336 86.8174 30.9375 86.7607 32.8321 C86.7227 33.9405 87.666 36.2246 89.6143 36.2383 C90.2139 35.6612 90.8477 35.0489 91.4785 34.6328 Z M93.3955 40.1543 C93.1553 39.8711 92.5049 39.333 91.9229 38.9209 C91.5879 39.1963 90.9004 39.6953 90.4609 39.9239 C90.1348 39.5567 89.7021 39.0469 89.04 38.5332 C88.6426 38.8047 87.4941 39.8535 87.0107 40.1289 C87.709 40.1465 88.751 40.377 88.7891 41.0274 C88.8135 41.5537 88.751 44.8399 88.7891 45.4414 C89.2158 45.5313 89.7217 45.4893 90.3438 45.4541 C90.374 44.9883 90.3633 41.2002 90.374 40.7403 C90.583 40.6231 90.8281 40.5059 90.9492 40.4004 C91.1904 40.5791 91.9229 41.42 92.3467 41.6465 C92.6357 41.4239 93.3955 40.7598 93.7305 40.4453 C94.082 40.0957 93.7012 39.8711 93.3955 40.1543 Z M93.3955 33.2071 C93.6562 33.2852 94.1348 33.3565 94.623 33.3926 C94.9307 33.4307 94.8301 32.916 94.5938 32.8184 C94.3545 32.7325 93.8252 32.6309 93.498 32.625 C93.1455 32.625 92.9805 33.0821 93.3955 33.2071 Z M94.6357 31.6836 C94.3818 31.5879 93.8525 31.4903 93.5156 31.4903 C93.1816 31.4903 93.002 31.9659 93.4189 32.0762 C93.6846 32.1504 94.1787 32.2373 94.6533 32.2598 C94.9766 32.2891 94.8721 31.7832 94.6357 31.6836 Z M102.939 112.28 C102.292 115.458 101.196 118.402 99.2842 121.138 C97.9453 123.077 97.4014 119.306 98.5547 115.655 C100.191 115.003 101.828 113.734 102.939 112.28 Z M101.118 112.919 C96.8477 117.138 90.4434 115.61 85.3975 117.868 C80.8232 119.536 77.5107 123.765 72.7148 124.833 C71.3057 125.288 71.0732 125.993 71.9717 125.97 C72.498 125.954 75.4219 129.005 80.0977 126.653 C81.6592 125.868 86.5107 123.165 87.3311 123.011 C84.7051 125.511 83.3867 127.745 81.04 129.066 C79.6035 129.87 73.7539 131.966 67.9189 130.833 C65.334 130.329 63.3438 132.714 64.002 132.659 C65.3857 132.29 66.9375 132.478 67.8701 133.7 C69.5645 135.027 72.0176 136.681 74.1289 134.216 C74.8301 133.4 78.1807 131.659 81.3281 134.855 C77.9805 134.679 78.3115 140.702 71.9668 139.995 C69.6172 139.98 64.4277 134.607 62.9492 136.267 C60.3271 139.214 68.585 142.011 65.0088 145.718 C61.7803 149.066 57.9199 143.052 57.9199 143.052 C59.9355 143.898 63.6553 144.441 62.0176 141.165 C61.3672 139.864 60.1309 138.694 60.1309 136.288 C59.8477 135.091 52.4561 145.808 47.5674 140.966 C45.6455 139.064 41.7549 134.892 38.2305 133.304 C47.5645 132.509 48.9863 136.245 49.4316 136.845 C52.418 140.872 55.1768 136.782 55.8115 136.066 C56.7852 134.958 58.1602 133.435 57.6729 133.204 C54.0518 131.487 49.916 131.122 46.8262 132.54 C53.4404 123.448 58.5879 131.962 58.5869 131.96 C59.3115 132.411 58.4014 126.569 51.8594 126.245 C47.7734 126.044 44.1768 129.722 41.3594 129.718 C39.0684 129.714 32.1221 125.023 30.4893 120.857 C34.5303 123.88 39.6855 125.616 42.8984 123.7 C48.9395 120.099 56.5479 125.528 56.9102 124.88 C55.2217 123.56 51.3779 118.407 41.0059 121.345 C36.9814 123.655 35.2852 119.63 32.8135 119.562 C37.0176 115.831 39.9316 117.73 41.4004 117.843 C41.749 117.843 39.6475 116.114 38.1729 115.958 C26.7109 114.767 19.4502 111.614 19.4502 111.614 C19.3906 111.614 20.4053 109.304 25.332 110.97 C25.332 110.97 20.9141 108.265 20.9512 104.788 C21.0938 102.646 22.1309 100.352 20.4922 98.5664 C27.1436 98.292 22.4189 107.569 27.0898 109.96 C27.1895 109.999 25.7148 107.743 27.7939 105.995 C28.7588 108.72 31.1338 110.128 32.8037 110.569 C33.1963 110.355 33.6807 109.519 33.6807 109.521 C31.9229 106.614 31.6924 103.228 32.1641 99.3496 L32.2344 99.3106 C32.6123 99.3282 33.2529 100.645 33.7021 101.611 C34.6719 103.696 34.6484 106.698 36.582 109.173 C37.6523 110.536 38.3154 111.898 39.2764 112.558 C39.6904 111.591 39.3838 109.931 39.3193 109.489 C39.1016 107.913 38.1133 105.153 40.8066 102.717 C42.0674 106.353 43.7803 105.298 44.0127 107.042 C44.334 109.485 44.2275 109.097 43.9775 110.972 C44.1064 113.558 46.4551 114.284 48.54 115.937 C53.2432 118.495 56.3643 119.88 58.4102 123.157 C59.4092 117.628 44.4854 116.523 46.4092 105.853 C46.21 101.592 46.9395 101.233 43.9199 98.6328 C49.9092 98.8086 53.1719 108.638 53.4971 110.431 C54.0957 113.728 56.0977 113.9 58.8467 118.198 C59.2422 118.343 53.9316 106.745 60.2617 96.8164 C60.2617 96.8164 62.3955 101.975 61.3896 105.357 C60.7822 107.394 61.3447 109.648 61.459 110.925 C61.5742 112.228 61.1982 106.22 65.7197 103.111 C66.002 105.384 68.1807 108.905 66.1152 112.679 C63.6035 117.271 63.4199 115.62 63.3828 121.267 C63.6104 121.169 64.2607 117.374 65.9844 115.22 C69.626 110.667 67.0244 108.218 70.5791 104.273 C70.8613 106.245 71.3643 105.464 71.5771 107.222 C72.0537 111.165 67.9355 115.48 68.8457 115.349 C69.8936 115.2 71.5771 114.288 72.1396 111.296 C72.1396 111.296 73.6572 114.028 72.2695 114.939 C69.7568 116.587 69.2354 118.362 69.626 120.357 C71.6416 117.95 74.3945 115.284 73.918 111.859 C74.1455 109.79 76.3867 108.952 76.833 104.148 C76.9072 103.352 77.7031 102.385 78.499 101.961 C78.1514 104.659 80.248 107.45 77.8643 110.753 C78.4072 111.044 80.4238 108.177 83.3711 109.222 C77.4561 110.288 79.1816 116.696 74.6494 119.663 C73.2832 120.558 73.5166 121.562 73.1074 121.675 C77.1553 121.446 80.2734 116.626 80.8145 116.259 C84.8828 113.509 85.7725 113.087 87.3984 108.628 C88.0352 106.933 87.5732 106.183 89.8271 103.896 C90.8154 106.152 89.3799 110.825 89.0381 111.833 C88.3096 113.985 85.752 115.849 86.2939 115.849 C97.1973 111.036 97.0605 107.806 99.6689 104.359 C100.451 103.042 104.33 100.758 105.781 100.545 C105.427 101.263 103.919 102.473 103.849 103.777 C103.717 106.187 102.938 107.657 101.72 109.591 C102.399 110.431 103.699 108.003 105.03 109.222 C103.27 109.806 102.485 111.767 101.118 112.919 Z M91.1328 109.497 C91.4482 108.366 91.4482 107.587 91.5947 106.591 C91.6592 106.163 91.6689 106.214 91.6895 105.855 C91.6963 105.735 94.7715 108.413 94.9434 108.523 C94.1719 109.489 93.5107 109.835 92.7754 110.521 C92.2549 110.071 91.1035 109.607 91.1328 109.497 Z M92.0664 111.167 C90.6436 112.415 89.7158 112.859 90.0264 112.239 C90.3721 111.548 90.6279 110.962 90.8213 110.446 C90.8867 110.275 92.0664 111.167 92.0664 111.167 Z M106.001 99.0743 C104.701 99.4121 101.272 100.781 100.445 102.127 C100.884 94.7149 98.4902 87.4356 97.7275 85.6778 C96.2422 82.252 98.3926 93.6485 98.5391 96.2735 C98.543 96.3907 86.2383 80.461 93.668 92.7285 C95.5928 95.9082 98.6006 97.9834 98.6016 98.0371 C98.6523 100.25 98.5049 101.877 98.084 103.064 C97.3271 103.667 81.3301 81.7754 90.1729 96.9375 C91.2686 98.8184 97.6826 104.507 97.6309 104.622 C97.2236 105.485 96.5039 106.743 95.5098 107.671 C95.3398 107.503 91.8184 104.905 91.7939 104.747 C91.5273 103.057 91.5186 101.457 89.4268 102.656 C89.4268 102.656 81.5459 93.4795 85.1963 99.9102 C86.791 102.723 87.8379 103.033 88.2627 103.533 C88.2627 103.533 87.04 105.191 86.6475 106.95 C86.4883 107.655 79.8135 99.5498 82.4316 104.642 C83.2715 106.273 86.3232 108.054 86.291 108.169 C85.9785 109.23 85.6611 110.257 85.3271 110.925 C84.9072 111.771 79.0469 116.443 79.0547 116.439 C79.0547 116.437 80.2012 112.737 82.6924 110.925 C84.1143 109.884 84.1191 110.112 85.0615 109.521 C85.041 108.974 84.5146 108.081 83.832 107.845 C82.9775 107.542 80.2031 108.046 80.2031 108.046 C80.4629 106.659 79.248 103.667 79.2646 100.377 C78.2197 100.479 76.3867 102.096 75.9434 103.013 C75.623 108.464 74.4385 106.831 73.3301 110.753 C72.125 109.109 73.4141 106.745 72.2324 105.206 C70.6074 103.09 70.3613 101.662 70.1221 99.0567 C70.502 98.8457 72.1602 97.0127 70.6504 93.17 C70.4033 87.1289 73.1025 84.8203 68.2764 80.5938 C68.6826 80.4629 68.9736 77.4356 68.9736 77.4317 C72.5303 79.3282 71.8242 75.2364 73.21 74.4336 C75.4092 73.1563 75.0107 71.834 74.0225 70.1856 C80.3125 71.9746 73.7393 76.2735 76.585 76.3672 C78.6504 76.4297 80.0342 75.9063 80.9307 74.5166 C81.8857 73.0498 80.7656 72.1504 83.4336 69.7715 C83.7002 69.5332 84.4072 67.9453 82.292 67.5088 C81.8281 67.4121 82.2959 65.6035 82.2959 65.6035 C80.6016 67.0371 80.0684 69.0567 77.3457 67.7793 C75.9521 67.1231 75.0479 67.7666 74.4766 68.042 C74.4766 68.042 74.1865 66.9043 75.3398 66.5196 C78.3213 65.5166 79.0566 64.3282 78.8936 63.6778 C78.4922 62.1289 78.3701 63.6778 78.457 62.0459 C78.4941 61.3985 79.248 60.5166 79.8721 59.7627 C81.8936 57.3243 83.3242 58.2403 83.8398 58.4551 C85.0146 57.5469 85.2227 57.6114 86.3154 57.1797 C88.1865 56.4434 92.2432 57.666 94.5098 58.7168 C95.6084 59.2149 96.9219 59.5127 98.2031 59.2295 C98.1914 59.8916 97.7275 60.2481 97.2676 60.3809 C96.5596 60.6016 95.7158 60.3809 95.7715 60.8985 C95.8037 61.2002 96.7725 61.2539 97.3789 61.417 C100.737 62.336 105.086 65.3457 102.231 64.711 C101.894 64.6368 104.29 66.502 106.099 68.9278 L112.504 75.1504 C112.209 75.5039 109.963 75.1836 102.85 68.5166 C101.839 69.42 111.502 76.7032 115.491 84.4336 C115.146 84.6739 110.175 82.8623 108.382 81.0157 C105.621 78.1582 102.447 70.8946 101.142 71.9571 C100.985 72.0166 106.393 80.4375 109.065 85.4317 C110.415 87.959 111.524 91.5791 111.616 94.3086 C112.044 107.759 110.019 106.726 110.02 106.728 C106.869 96.125 105.394 83.8145 100.796 78.1348 C98.96 75.8653 105.71 88.0703 106.001 99.0743 Z M110.972 26.9942 C110.943 26.7891 110.9 26.4727 110.837 26.0274 C110.74 25.3311 108.744 24.9297 107.334 25.545 C105.36 26.4063 100.417 29.2285 98.6143 28.6953 L98.6143 21.7422 C103.063 23.6719 104.801 21.9287 106.231 21.9287 C110.624 21.9287 110.845 26.0274 110.845 26.0274 C110.902 26.4727 110.944 26.7891 110.972 26.9942 Z M106.405 36.5157 C110.263 35.9532 110.845 40.5059 110.845 40.5059 L110.837 40.5059 C109.887 39.751 107.978 39.4092 106.684 40.2432 C102.374 43.0176 98.4893 43.0489 98.4893 43.0489 L98.4893 36.0957 C98.4893 36.0957 99.3086 37.5518 106.405 36.5157 Z M97.1875 50.6446 C90.1865 51.1211 75.6631 47.1368 71.9707 47.1368 C64.3525 47.1368 60.668 50.1104 60.668 50.1104 C60.668 50.1104 60.6777 15.5293 60.668 14.2842 C60.668 14.2842 70.6777 9.58985 77.9609 12.2773 C86.8809 15.5703 97.1875 14.1114 97.1875 14.1114 L97.1875 50.6446 Z M68.1826 56.041 C68.415 57.4278 67.1299 57.7754 67.1338 57.7735 C69.1309 58.2403 70.0859 57.0528 70.4766 56.3008 C71.2441 59.4922 68.0273 59.6709 67.0244 59.8623 C67.0225 59.8623 68.6543 60.3321 68.7393 61.3946 C68.9521 64.0938 70.6875 63.8623 71.0615 63.6504 C71.001 63.9766 70.4639 65.6045 68.5137 64.1338 C68.1826 64.461 69.0449 64.9649 69.2158 66.3047 C69.4355 67.9981 69.3818 69.5684 71.3379 70.6016 C70.1387 71.5547 68.7266 69.0723 68.6035 69.3692 C68.4639 69.7002 70.2686 70.6123 68.2822 75.2959 C67.376 74.7754 67.8809 74.875 66.8311 73.627 C66.0273 72.9532 65.71 72.7998 66.3809 73.9102 C67.5537 75.375 67.8301 78.7246 67.4258 79.627 C66.46 79.2071 66.709 78.4356 65.5684 77.3848 C65.4639 77.8321 65.918 80.0528 67.0957 81.1153 C69.1309 82.9502 69.8516 85.17 69.8887 85.6075 C70.0508 87.2774 69.5254 89.4766 69.3271 91.627 C68.3506 91.4864 67.5215 88.7149 67.2852 88.8711 C66.9961 89.0586 67.4072 91.584 69.248 93.3047 C70.1387 95.9082 69.7812 97.3067 69.5439 97.4004 C69.2305 97.5352 68.2383 94.7373 67.6982 95.2246 C70.3184 101.891 68.4844 104.212 67.791 106.267 C67.25 104.161 66.9756 102.586 66.2979 100.2 C64.8691 101.322 64.5273 102.983 62.7803 104.505 C62.7803 101.787 61.209 95.2227 59.9629 93.6934 C59.9053 93.6231 57.7109 99.5782 56.7109 102.227 C55.4141 105.657 55.2129 109.948 56.7109 113.292 C53.4766 108.691 53.1289 100.125 55.9209 98.9707 C56.1631 98.3575 55.752 96.3418 55.1309 96.5918 C54.9521 97.5782 55.0713 98.42 54.2549 99.3828 C52.1113 98.7559 53.0879 96.1407 53.2812 95.2735 C56.0605 91.9414 54.3232 91.17 54.1934 91.2578 C53.8926 92.0215 53.6299 92.9571 52.7812 93.3047 C50.998 90.2403 52.1406 85.4317 55.5273 81.8379 C55.6699 80.4961 54.0117 82.8379 52.9326 82.7559 C52.6514 80.17 53.5889 75.6856 58.3691 75.5215 C57.457 75.2539 56.9688 75.0879 56.7471 74.3252 C58.1934 74.1114 62.7256 73.7657 61.9775 70.1895 C61.5479 70.6192 61.4102 71.2618 60.2285 71.9795 C59.4346 72.4649 58.5693 72.5059 58.1191 71.8067 C60.2227 71.1114 59.5273 68.5528 56.7822 69.3047 C55.9414 69.5352 54.7109 68.6563 54.6514 67.6817 C55.2617 68.292 56.501 67.8399 57.2158 67.375 C60.3057 65.3672 62.1914 68.2754 62.6074 68.9004 C62.7324 68.9004 63.9941 65.9942 59.6074 65.2129 C59.2422 64.1914 58.2393 62.3868 55.2617 62.6123 C54.2812 59.1524 51.3135 60.8584 51.4102 62.4248 C48.2568 60.1035 51.4648 57.1719 52.7393 56.7207 C53.6221 56.793 53.4268 59.5899 54.9775 59.1192 C55.3525 59.0078 53.7725 57.1934 54.377 56.3711 C55.7998 55.5586 55.7676 57.4121 56.4688 56.7207 C56.8174 55.5078 58.2119 54.8282 59.3613 54.6993 C62.585 54.2412 65.0908 57.7735 68.1826 56.041 Z M58.9893 50.0821 C58.9893 50.0821 54.2441 47.5078 48.6729 47.1368 C43.2871 46.7793 32.4053 51.0821 24.0508 50.5137 L24.0508 13.7989 C24.0508 13.7989 33.5771 15.0655 37.4912 13.5566 C50.7979 8.42383 58.9893 14.1582 58.9893 14.1582 L58.9893 50.0821 Z M22.3555 42.3985 L17.8213 42.3985 L17.8213 37.9375 L22.3555 37.9375 L22.3555 42.3985 Z M22.3555 26.8594 L17.8213 26.8594 L17.8213 22.3994 L22.3555 22.3994 L22.3555 26.8594 Z M12.4854 43.6875 C7.16406 43.6875 7.16406 35.8916 12.4854 35.8916 C17.6025 35.8916 17.6348 43.6875 12.4854 43.6875 Z M12.4854 28.1104 C7.2832 28.1104 7.39258 20.3106 12.4854 20.3106 C17.6025 20.3106 17.6025 28.1104 12.4854 28.1104 Z M46.7617 64.5274 C45.8115 62.9063 47.8965 61.3584 47.8965 61.3584 C47.833 65.917 53.6602 62.7891 56.7021 64.2373 C57.4346 64.5743 57.9473 65.2168 58.248 65.8946 C54.9775 63.6328 48.9297 68.2285 46.7617 64.5274 Z M31.0107 103.133 C31.0361 104.694 30.9258 105.851 31.3799 107.439 C32.1191 109.835 31.748 109.097 30.7422 108.273 C29.9424 107.384 29.1943 106.652 28.8105 105.612 C28.7148 104.874 29.3086 104.833 31.0107 103.133 Z M19.2773 70.9102 L19.1885 70.8223 C19.0811 70.8223 11.6152 75.5332 6.76367 73.2715 C10.3779 71.2735 22.8955 63.3184 26.3193 61.0625 C27.9355 61.4102 28.5889 60.8282 29.1055 60.4688 C27.7969 60.5489 23.46 61.2266 25.6523 57.3457 C26.4941 60.8243 32.5771 57.6231 34.7598 57.1211 C40.8438 55.7207 40.7998 62.2246 40.2812 64.9121 C40.0869 65.9141 42.1445 66.625 43.1582 66.4795 C41.415 70.7774 38.4375 66.7266 38.083 68.3653 C37.9385 69.0293 35.9453 69.5498 35.9541 71.2002 C35.9658 73.4571 36.8477 72.2246 36.9287 73.9727 C37.0186 75.666 36.2061 74.3477 36.3896 76.1797 C36.6816 79.0879 41.4941 75.792 43.4814 76.5791 C44.4766 76.9727 45.1357 77.8623 46.1055 77.6875 C46.3887 77.4541 46.2607 76.3545 46.2168 75.9629 C46.1143 75.0391 44.4062 74.9317 43.6113 73.67 C42.9189 72.5703 44.3975 69.2618 45.1973 68.2891 C46.3447 73.752 51.4648 72.0391 52.2295 77.7832 C52.7119 79.4082 50.4697 81.2129 52.2881 83.8575 C50.9375 85.167 49.3145 91.3868 52.1406 94.3086 C51.6611 95.6309 51.0312 98.6836 53.5479 100.465 C52.7021 102.267 52.8945 104.47 53.6084 106.712 C52.041 106.718 52.3535 97.9248 42.9648 97.6465 C42.7549 97.5791 42.7041 98.6416 42.9736 99.1192 C44.0986 101.096 45.6104 100.979 45.2852 105.63 C45.1758 107.222 44.2422 105.353 43.7441 104.913 C42.6074 103.909 41.7285 103.775 41.2344 100.504 C37.4189 103.494 37.7939 107.114 38.0312 108.954 C38.0342 108.958 37.1895 106.659 36.2266 104.302 C36.1758 104.177 40.1016 99.4541 40.7256 98.3321 C48.6475 84.0743 35.6104 102.941 35.584 102.877 C34.8818 101.252 34.2686 99.8516 33.8564 99.4082 C33.957 99.211 36.1318 96.7852 37.1152 94.7373 C43.2422 81.9795 33.4736 98.9864 33.126 98.6739 C32.3867 98.0098 31.7773 97.1778 31.3096 97.4766 C31.1992 99.4356 30.7314 99.17 30.8672 101.17 C29.8457 102.533 27.6553 104.675 26.123 105.735 C26.123 105.735 25.7402 102.195 25.8438 102.07 C26.6133 101.133 29.626 97.9043 30.2422 96.9375 C40.2812 81.17 25.541 100.736 25.5146 100.568 C25.4102 99.9453 24.6025 98.916 23.7422 98.0371 C23.7422 98.0371 26.998 93.6016 27.7988 91.9532 C33.9072 79.3916 22.8887 97.5196 22.7666 97.4532 C22.502 97.3145 22.4756 97.3184 22.168 97.2129 C21.8613 97.1084 22.5059 93.5957 22.9307 91.4795 C23.7568 87.295 21.5391 90.667 20.9355 97.2989 C20.3691 97.3877 18.9941 97.5313 18.4736 98.0039 C18.8105 99.7735 19.2285 98.4121 19.9707 100.112 C20.8584 102.15 18.7344 105.489 20.583 107.935 C21.2979 108.878 21.3389 108.72 21.1982 109.339 C20.0605 109.257 19.3691 109.235 18.6514 110.218 C17.2529 103.866 17.2969 100.809 17.624 94.3535 C17.7705 91.417 18.7344 86.9785 18.2939 86.8946 C17.876 86.8145 11.2227 103.944 9.61816 107.302 C6.8125 106.355 11.3643 91.5293 17.1475 84.3916 C17.6934 82.1231 14.1152 86.6953 11.9785 88.5157 C10.0195 90.1856 7.54004 92.3623 4.83887 91.6172 C8.30859 87.9473 16.2637 81.0821 17.1475 79.3672 C17.8887 77.8965 11.7207 83.9434 5.20312 81.6953 C9.4209 79.4356 19.2607 74.4121 19.2773 70.9102 Z M19.21 112.624 C20.2988 113.362 21.582 113.689 22.7578 114.191 C24.2148 117.999 22.793 121.743 21.9756 120.191 C20.541 117.468 19.9766 115.208 19.21 112.624 Z M119.642 91.4414 L119.637 6.57422 C51.46 0 0 6.57422 0 6.57422 C0 6.57422 0 91.4356 0 91.4541 C5.43359 148.984 59.3145 155.741 59.8271 155.65 C69.4512 153.913 114.624 144.829 119.642 91.4414 Z M151.325 111.999 C151.325 127.714 158.879 138.802 168.626 145.505 C177.52 151.474 187.999 153.667 198.964 153.667 C206.762 153.667 215.534 151.839 218.214 150.864 C219.555 150.378 221.018 149.892 222.478 149.646 C224.306 147.331 227.474 139.29 228.327 132.954 C227.838 132.103 226.012 131.859 225.16 132.466 C222.356 139.655 215.412 149.892 199.695 149.892 C179.713 149.892 163.509 135.755 163.509 110.171 C163.509 84.9502 179.348 73.1328 197.989 73.1328 C215.655 73.1328 221.139 82.6348 222.966 90.9209 C223.818 91.6504 225.647 91.5293 226.255 90.6778 C225.281 83.2461 224.671 75.5703 224.55 72.7666 C223.453 72.8877 222.601 72.6446 221.139 72.2813 C215.412 70.6973 206.152 69.3575 199.572 69.3575 C186.902 69.3575 175.571 72.7666 166.677 79.711 C157.417 86.9004 151.325 98.4766 151.325 111.999 Z M185.906 6.47657 L185.944 6.33203 L185.877 6.19727 C185.682 5.81348 185.115 5.78321 184.946 5.78321 C184.819 5.78321 184.633 5.79688 184.469 5.86328 L184.344 5.91407 L184.276 6.03028 C183.622 7.16211 183.352 7.25391 180.654 7.25391 L159.667 7.25391 C157.394 7.25391 156.376 7.13477 156.162 5.99805 L156.139 5.87989 L156.053 5.79492 C155.912 5.65332 155.683 5.58594 155.353 5.58594 C155.232 5.58594 154.82 5.59668 154.596 5.74707 L154.458 5.83985 L154.43 6.00391 C154.074 8.02442 153.324 11.2344 152.517 13.5059 L152.461 13.6621 L152.536 13.8106 C152.84 14.4219 153.882 14.7188 154.439 14.3028 L154.521 14.2403 L154.562 14.1465 C155.077 12.9746 155.563 11.8672 156.752 10.7734 C157.87 9.7461 160.403 9.60742 162.734 9.60742 L165.525 9.60742 C166.659 9.60742 166.659 9.60742 166.659 10.8398 L166.659 33.5381 C166.659 39.0381 166.343 39.2774 163.869 39.4952 L162.042 39.6465 L161.869 39.7032 C161.567 39.8887 161.398 40.2676 161.417 40.7159 C161.432 41.0586 161.567 41.4834 161.899 41.6504 L161.987 41.6944 L162.085 41.6914 C165.194 41.5967 167.071 41.5391 169.129 41.5391 C171.111 41.5391 172.75 41.5879 175.769 41.6914 L175.868 41.6944 L175.956 41.6504 C176.288 41.4844 176.431 41.0313 176.453 40.6641 C176.479 40.2246 176.349 39.877 176.096 39.709 L174.291 39.4952 C171.752 39.2754 171.601 38.9414 171.601 33.5381 L171.601 10.7871 C171.601 10.2676 171.6 9.77735 171.684 9.69336 C171.77 9.60742 172.32 9.60742 172.685 9.60742 L176.287 9.60742 C179.008 9.60742 180.858 9.99805 181.946 10.8018 C182.427 11.1543 182.843 12.4395 183.059 14.2403 L183.073 14.3535 L183.146 14.4414 C183.332 14.668 183.676 14.8028 184.066 14.8028 C184.548 14.8028 184.95 14.5957 185.115 14.2637 L185.164 14.1641 L185.153 14.0528 C185.008 12.5898 185.36 8.5 185.906 6.47657 Z M227.647 33.5381 L227.647 15.2618 C227.647 9.85352 227.799 9.51758 230.34 9.25196 L231.402 9.15039 L231.581 9.08789 C231.835 8.91992 231.965 8.56934 231.938 8.12696 C231.927 7.94922 231.858 7.35157 231.441 7.14453 L231.351 7.09961 L231.25 7.10352 C228.796 7.21094 227.121 7.25391 225.274 7.25391 C223.074 7.25391 221.3 7.19629 219.151 7.10352 L219.052 7.09961 L218.962 7.14258 C218.544 7.34864 218.474 7.94336 218.461 8.1211 C218.432 8.56543 218.561 8.91699 218.814 9.08594 L219.956 9.25098 C222.549 9.51758 222.703 9.85547 222.703 15.2618 L222.703 21.0977 C222.703 22.333 222.703 22.333 220.555 22.333 L206.035 22.333 C203.887 22.333 203.887 22.333 203.887 21.0977 L203.887 15.2618 C203.887 9.85352 204.039 9.51758 206.584 9.25098 L207.547 9.15039 L207.724 9.08692 C207.978 8.91797 208.107 8.56641 208.078 8.12305 C208.066 7.94434 207.996 7.34961 207.578 7.14258 L207.488 7.09961 L207.388 7.10352 C205.077 7.21094 203.375 7.25391 201.516 7.25391 C200.191 7.25391 199.035 7.2168 197.772 7.17578 C196.959 7.15039 196.103 7.12305 195.13 7.10352 L195.035 7.10157 L194.95 7.14258 C194.533 7.34766 194.461 7.94043 194.449 8.11719 C194.419 8.5625 194.547 8.91602 194.801 9.08594 L194.886 9.14356 L196.309 9.25196 C198.546 9.42383 198.944 9.88477 198.944 15.2618 L198.944 33.5381 C198.944 38.8233 198.846 39.0459 196.322 39.5 L195.339 39.6719 L195.252 39.7578 C194.961 40.0469 194.918 40.5215 194.974 40.8692 C195.034 41.2442 195.209 41.5293 195.453 41.6504 L195.54 41.6934 L195.637 41.6914 C196.335 41.6739 197.001 41.6504 197.667 41.627 C198.867 41.584 200.108 41.5391 201.516 41.5391 C203.424 41.5391 205.043 41.586 207.953 41.6914 L208.052 41.6953 L208.141 41.6504 C208.473 41.4844 208.615 41.0313 208.637 40.6631 C208.663 40.2246 208.533 39.876 208.279 39.709 L206.634 39.4961 C204.199 39.2325 203.887 38.9893 203.887 33.5381 L203.887 26.377 C203.887 25.1446 203.887 25.1446 206.035 25.1446 L220.555 25.1446 C222.703 25.1446 222.703 25.1446 222.703 26.377 L222.703 33.5381 C222.703 38.9385 222.651 39.0498 219.936 39.4981 L218.845 39.669 L218.755 39.7598 C218.465 40.0489 218.423 40.5244 218.48 40.8711 C218.542 41.2461 218.717 41.5293 218.961 41.6504 L219.051 41.6953 L219.151 41.6905 C221.582 41.584 223.355 41.5391 225.274 41.5391 C227.275 41.5391 229.037 41.5957 231.402 41.6905 L231.501 41.6953 L231.59 41.6504 C232.009 41.4453 232.08 40.8496 232.091 40.6719 C232.12 40.2295 231.991 39.8789 231.737 39.711 L230.35 39.4961 C227.774 39.1846 227.647 38.9063 227.647 33.5381 Z M270.077 34.3223 L270.102 34.2012 L270.051 34.0869 C269.832 33.5977 269.293 33.3799 268.856 33.3799 C268.605 33.3799 268.378 33.4473 268.2 33.5743 L268.078 33.7168 C266.622 36.625 265.312 38.0967 264.647 38.4659 C263.555 39.0118 262.018 39.1866 258.322 39.1866 C254.094 39.1866 253.004 38.6807 252.465 38.1426 C251.747 37.377 251.606 35.7246 251.606 33.1299 L251.606 25.9727 C251.606 24.9903 251.606 24.9903 252.892 24.9903 L255.837 24.9903 C257.609 24.9903 258.934 25.0313 259.65 25.2325 C260.356 25.4092 260.718 25.8682 260.939 26.8731 L261.395 28.8496 L261.475 29.0098 C261.664 29.2403 262.02 29.377 262.426 29.377 C262.889 29.377 263.267 29.2022 263.435 28.9092 L263.487 28.8194 L263.487 28.7149 C263.487 28.2188 263.447 27.5645 263.403 26.8291 C263.347 25.9034 263.283 24.8545 263.283 23.8389 C263.283 22.7774 263.346 21.6895 263.401 20.7325 C263.447 19.9551 263.487 19.2578 263.487 18.7129 L263.487 18.6094 L263.436 18.5196 C263.267 18.2246 262.889 18.0479 262.424 18.0479 C262.019 18.0479 261.664 18.1856 261.475 18.4141 L260.986 20.668 C260.756 21.8282 260.471 22.002 260.027 22.1485 C259.485 22.3301 257.958 22.4346 255.837 22.4346 L252.892 22.4346 C251.606 22.4346 251.606 22.4346 251.606 21.4014 L251.606 11.248 C251.606 9.60742 251.606 9.60742 252.739 9.60742 L256.395 9.60742 C258.551 9.60742 260.198 9.65821 261.225 9.90235 C263.541 10.4824 264.005 11.9463 264.71 14.1621 L264.807 14.4659 L264.877 14.5948 C265.05 14.8047 265.344 14.92 265.703 14.92 C266.053 14.92 266.543 14.8008 266.769 14.4649 L266.845 14.3496 L266.778 13.5996 C266.514 10.6436 266.274 8.13477 266.001 7.36328 L265.883 7.03028 L265.54 7.11426 C264.976 7.25391 261.826 7.25391 258.78 7.25391 L249.235 7.25391 C247.28 7.25391 245.607 7.21094 243.266 7.10352 L243.166 7.09961 L243.076 7.14258 C242.658 7.34766 242.587 7.94336 242.575 8.12012 C242.545 8.56446 242.673 8.91602 242.927 9.08594 L243.912 9.25 C246.51 9.5586 246.665 9.89551 246.665 15.2618 L246.665 33.5381 C246.665 39.0381 246.348 39.2774 243.871 39.4952 L242.057 39.6592 L241.957 39.7578 C241.667 40.0469 241.623 40.5205 241.679 40.8682 C241.739 41.2442 241.914 41.5293 242.158 41.6504 L242.246 41.6944 L242.345 41.6914 C245.279 41.5948 247.045 41.5391 249.235 41.5391 L253.806 41.5391 C258.233 41.5391 262.681 41.5889 267.403 41.6914 L267.654 41.6973 L267.763 41.4707 C268.444 40.0528 269.721 36.1114 270.077 34.3223 Z M274.991 73.9864 C275.721 73.4961 275.478 71.3047 274.747 70.9414 C269.508 71.1836 265.366 71.3047 260.615 71.3047 C255.375 71.3047 251.232 71.0625 245.262 70.9414 C244.53 71.3047 244.287 73.4961 245.019 73.9864 L248.186 74.2295 C254.523 74.7168 255.375 76.7891 255.375 89.5821 L255.375 133.443 C255.375 146.234 255.131 147.454 248.308 148.671 L246.238 149.036 C245.506 149.767 245.75 151.718 246.48 152.083 C251.232 151.962 255.375 151.718 260.615 151.718 C265.366 151.718 269.508 151.839 276.087 152.083 C276.819 151.718 277.062 149.523 276.331 149.036 L272.799 148.671 C265.976 147.941 265.366 146.234 265.366 133.443 L265.366 116.261 C265.366 112.609 265.609 112.364 271.458 112.364 L306.303 112.364 C312.152 112.364 312.396 112.609 312.396 116.261 L312.396 133.443 C312.396 146.234 312.396 147.454 304.963 148.671 L302.648 149.036 C301.918 149.767 302.161 151.718 302.892 152.083 C308.253 151.839 312.64 151.718 317.634 151.718 C322.387 151.718 326.529 151.839 332.377 152.083 C333.107 151.718 333.351 149.523 332.621 149.036 L329.696 148.671 C322.629 147.818 322.387 146.234 322.387 133.443 L322.387 89.5821 C322.387 76.7891 322.629 74.959 329.696 74.2295 L332.255 73.9864 C332.987 73.4961 332.742 71.3047 332.011 70.9414 C326.529 71.1836 322.387 71.3047 317.634 71.3047 C312.64 71.3047 308.496 71.1836 302.892 70.9414 C302.161 71.3047 301.918 73.4961 302.648 73.9864 L304.963 74.2295 C312.152 74.959 312.396 76.7891 312.396 89.5821 L312.396 103.592 C312.396 107.37 312.152 107.491 306.303 107.491 L271.458 107.491 C265.609 107.491 265.366 107.37 265.366 103.592 L265.366 89.5821 C265.366 76.7891 265.609 74.959 272.676 74.2295 L274.991 73.9864 Z M333.352 8.96094 C333.577 8.68946 333.683 8.27051 333.621 7.89453 C333.57 7.57715 333.404 7.31836 333.155 7.16211 L333.051 7.09766 L332.928 7.10352 C331.163 7.20117 329.794 7.25391 327.619 7.25391 C325.672 7.25391 323.786 7.20508 321.853 7.10352 L321.723 7.09766 L321.615 7.16992 C321.381 7.32617 321.219 7.61524 321.17 7.96094 C321.118 8.34082 321.212 8.70703 321.432 8.96485 L321.537 9.08985 L322.968 9.19922 C324.133 9.29492 324.926 9.60547 325.198 10.0723 C325.789 11.1143 326.114 14.7774 326.114 20.3868 L326.114 26.2266 C326.114 32.209 324.42 39.3389 316.35 39.3389 C309.583 39.3389 306.432 35.1563 306.432 26.1739 L306.432 15.209 C306.432 9.81055 306.608 9.41797 309.12 9.19922 L310.44 9.09375 L310.524 9.03711 C310.777 8.86719 310.906 8.52539 310.877 8.09766 C310.854 7.74414 310.711 7.30664 310.379 7.14258 L310.289 7.09961 L310.19 7.10352 C307.783 7.20117 306.078 7.25391 303.962 7.25391 C301.877 7.25391 300.082 7.19922 297.684 7.10352 L297.586 7.09961 L297.497 7.14258 C297.165 7.30664 297.021 7.74024 296.996 8.09278 C296.967 8.52149 297.095 8.86524 297.348 9.03614 L297.433 9.09375 L298.803 9.19922 C301.315 9.41797 301.491 9.81055 301.491 15.209 L301.491 27.1895 C301.491 33.3282 302.755 37.1172 305.586 39.4688 C307.822 41.3819 311.102 42.3516 315.335 42.3516 C319.334 42.3516 323.16 40.8828 325.315 38.5196 C327.777 35.8828 328.973 31.8282 328.973 26.1241 L328.973 20.3868 C328.973 17.8125 328.973 11.7852 329.65 10.1914 C329.886 9.67969 330.755 9.28907 331.863 9.19922 L333.247 9.08789 L333.352 8.96094 Z M378.863 9.03711 C379.107 8.79199 379.23 8.39453 379.186 7.99903 C379.144 7.63672 378.964 7.33203 378.693 7.16211 L378.588 7.09668 L378.463 7.10352 C376.797 7.20117 375.474 7.25391 373.256 7.25391 C371.465 7.25391 369.79 7.21094 367.283 7.10352 L367.204 7.09961 L367.131 7.12696 C366.836 7.23633 366.629 7.51367 366.56 7.88867 C366.478 8.34375 366.614 8.80274 366.91 9.05762 L367 9.13672 L367.979 9.25 C369.723 9.46875 370.607 9.72852 370.845 10.0879 C371.451 11.0469 371.8 14.7998 371.8 20.3868 L371.8 31.251 C371.8 31.7422 371.8 32.3106 371.768 32.7012 C370.008 30.8809 368.166 28.8203 365.877 26.2578 L358.815 18.334 C353.793 12.7002 350.917 9.00586 350.268 7.35059 L350.154 7.06055 L349.846 7.10742 C349.236 7.2002 348.406 7.25391 347.567 7.25391 C346.68 7.25391 343.979 7.25391 341.861 7.10352 L341.754 7.09668 L341.658 7.14453 C341.389 7.28125 341.201 7.55957 341.145 7.91016 C341.074 8.33399 341.196 8.77539 341.453 9.03614 L341.55 9.13477 L342.545 9.25 C343.899 9.41797 344.908 9.80078 345.452 10.3457 C346.4 11.3828 346.469 12.3184 346.469 13.7364 L346.469 28.8692 C346.472 31.3233 346.479 37.0703 345.843 38.7071 C345.725 38.9668 345.293 39.3145 343.922 39.4961 L342.415 39.6621 L342.318 39.7588 C342.093 39.9844 341.977 40.3457 342.008 40.7266 C342.041 41.1094 342.207 41.4336 342.469 41.6192 L342.58 41.6983 L342.716 41.6905 C344.481 41.5928 345.843 41.5391 347.975 41.5391 C349.693 41.5391 351.41 41.584 353.898 41.6905 L354.032 41.6973 L354.141 41.6192 C354.379 41.4493 354.539 41.1787 354.59 40.8575 C354.647 40.4864 354.553 40.1016 354.33 39.8018 L354.227 39.6631 L352.473 39.4952 C351.255 39.3965 350.404 39.1094 350.191 38.7237 C349.645 37.7598 349.331 34 349.331 28.4082 L349.331 17.3399 C349.331 16.4317 349.347 15.4649 349.438 14.7744 C350.244 15.6768 351.588 17.2657 352.797 18.6953 C353.626 19.6758 354.394 20.584 354.891 21.1543 L366.669 34.5537 C370.582 39.0078 372.457 41.2188 373.141 42.1866 L373.258 42.3516 L373.46 42.3516 C374.127 42.3516 374.625 42.043 374.795 41.5254 L374.821 41.4434 L374.812 41.3594 C374.743 40.7676 374.662 38.7539 374.662 32.5215 L374.66 19.6993 C374.651 17.0996 374.634 11.6875 375.381 10.1035 C375.445 9.97559 376.054 9.54297 377.932 9.24903 L378.771 9.13086 L378.863 9.03711 Z M372.581 133.198 L372.581 89.8243 C372.581 76.9102 372.824 74.8379 380.013 74.2295 L383.059 73.9864 C383.789 73.4961 383.545 71.3047 382.814 70.9414 C376.723 71.1836 372.581 71.3047 367.707 71.3047 C362.59 71.3047 358.447 71.1836 352.355 70.9414 C351.625 71.3047 351.381 73.4961 352.112 73.9864 L355.158 74.2295 C362.346 74.8379 362.59 76.9102 362.59 89.8243 L362.59 133.198 C362.59 146.114 362.346 147.818 355.158 148.671 L352.112 149.036 C351.381 149.767 351.625 151.718 352.355 152.083 C358.447 151.839 362.59 151.718 367.707 151.718 C372.581 151.718 376.723 151.839 382.814 152.083 C383.545 151.718 383.789 149.523 383.059 149.036 L380.013 148.671 C372.824 147.818 372.581 146.114 372.581 133.198 Z M398.063 33.4346 L398.063 15.3614 C398.063 9.86914 398.242 9.46875 400.802 9.25196 L402.172 9.14356 L402.256 9.08692 C402.51 8.91797 402.639 8.56543 402.609 8.1211 C402.599 7.94336 402.527 7.34766 402.108 7.14258 L402.021 7.09961 L401.922 7.10352 C399.523 7.19922 397.728 7.25391 395.643 7.25391 C393.461 7.25391 391.718 7.20117 389.263 7.10352 L389.164 7.09961 L389.075 7.14258 C388.656 7.34961 388.586 7.94532 388.574 8.12305 C388.546 8.56641 388.675 8.91797 388.93 9.08789 L389.014 9.14356 L390.381 9.25196 C392.942 9.46875 393.122 9.86914 393.122 15.3614 L393.122 33.4346 C393.122 38.9004 392.992 39.1836 390.368 39.4961 L388.966 39.6641 L388.87 39.7578 C388.58 40.0479 388.536 40.5215 388.593 40.8692 C388.654 41.2442 388.829 41.5293 389.074 41.6504 L389.163 41.6953 L389.263 41.6905 C391.842 41.5909 393.536 41.5391 395.643 41.5391 C397.651 41.5391 399.398 41.5938 401.922 41.6905 L402.021 41.6953 L402.109 41.6504 C402.529 41.4434 402.6 40.8477 402.61 40.669 C402.639 40.2285 402.509 39.878 402.255 39.71 L400.817 39.4961 C398.191 39.1836 398.063 38.9004 398.063 33.4346 Z M413.641 79.711 C404.38 86.9004 398.287 98.4766 398.287 111.999 C398.287 127.714 405.843 138.802 415.589 145.505 C424.484 151.474 434.961 153.667 445.928 153.667 C453.725 153.667 462.5 151.839 465.177 150.864 C466.519 150.378 467.98 149.892 469.442 149.646 C471.27 147.331 474.438 139.29 475.291 132.954 C474.805 132.103 472.975 131.859 472.124 132.466 C469.32 139.655 462.375 149.892 446.658 149.892 C426.678 149.892 410.471 135.755 410.471 110.171 C410.471 84.9502 426.312 73.1328 444.953 73.1328 C462.621 73.1328 468.103 82.6348 469.93 90.9209 C470.78 91.6504 472.61 91.5293 473.218 90.6778 C472.245 83.2461 471.637 75.5703 471.513 72.7666 C470.415 72.8877 469.564 72.6446 468.103 72.2813 C462.375 70.6973 453.115 69.3575 446.536 69.3575 C433.865 69.3575 422.535 72.7666 413.641 79.711 Z M446.789 9.03711 C447.063 8.75977 447.109 8.27735 447.064 7.94922 C447.015 7.5791 446.851 7.29785 446.603 7.1543 L446.502 7.09766 L446.385 7.10352 C444.684 7.20508 443.126 7.25391 441.483 7.25391 C439.488 7.25391 437.573 7.19922 436.231 7.10352 L436.112 7.09571 L436.009 7.15625 C435.729 7.31641 435.538 7.65235 435.5 8.05469 C435.46 8.45899 435.59 8.83399 435.848 9.05664 L435.939 9.13672 L436.971 9.25 C438.746 9.45313 438.91 9.82617 438.911 9.82617 C438.911 10.1582 438.862 10.667 438.481 11.666 C437.607 13.877 435.188 19.6895 433.767 23.0254 C433.391 23.8897 432.916 25.0157 432.392 26.2578 C431.43 28.5391 430.258 31.3164 429.262 33.4981 C426.859 27.9805 424.646 22.4434 422.402 16.7862 C420.916 13.1406 420.063 10.4902 419.904 9.83008 C419.982 9.66895 420.422 9.44922 421.94 9.25 L422.816 9.13379 L422.904 9.0586 C423.163 8.83594 423.294 8.46094 423.255 8.05664 C423.217 7.6543 423.025 7.31641 422.745 7.15625 L422.646 7.09766 L422.531 7.10352 C420.272 7.21094 418.497 7.25391 416.406 7.25391 C414.287 7.25391 412.667 7.20703 411.152 7.10352 L411.026 7.09571 L410.92 7.16211 C410.625 7.34668 410.432 7.68848 410.4 8.07813 C410.37 8.46485 410.508 8.83203 410.767 9.05664 L410.859 9.13672 L411.895 9.25 C413.869 9.48047 414.542 10.3867 415.69 13.1748 L424.625 35.2041 C425.688 37.8418 426.468 40.0977 426.942 41.9082 L426.991 42.0977 L427.173 42.1719 C427.468 42.291 427.773 42.3516 428.081 42.3516 C428.373 42.3516 428.649 42.2744 428.858 42.1348 L428.973 42.0586 L429.014 41.9297 C429.885 39.2032 432.321 33.2188 434.278 28.7188 L437.019 22.4746 C439.372 17.1358 441.33 13.1133 442.68 10.8438 C443.326 9.79981 444.005 9.33789 445.014 9.25196 L446.685 9.14258 L446.789 9.03711 Z M481.615 34.3223 L481.64 34.2012 L481.588 34.0869 C481.369 33.5987 480.83 33.3799 480.394 33.3799 C480.143 33.3799 479.916 33.4473 479.738 33.5743 L479.616 33.7168 C478.16 36.6241 476.85 38.0957 476.185 38.4659 C475.094 39.0118 473.558 39.1866 469.86 39.1866 C465.63 39.1866 464.543 38.6817 464.005 38.1426 C463.284 37.377 463.143 35.7246 463.143 33.1299 L463.143 25.9727 C463.143 24.9903 463.143 24.9903 464.429 24.9903 L467.375 24.9903 C469.148 24.9903 470.474 25.0313 471.188 25.2325 C471.894 25.4082 472.255 25.8672 472.479 26.8711 L472.933 28.8496 L473.012 29.0108 C473.202 29.2403 473.559 29.377 473.964 29.377 C474.429 29.377 474.806 29.2022 474.973 28.9092 L475.024 28.8184 L475.024 28.7149 C475.024 28.2188 474.985 27.5645 474.941 26.8291 C474.885 25.9034 474.821 24.8545 474.821 23.8389 C474.821 22.7774 474.885 21.6895 474.939 20.7325 C474.985 19.9551 475.024 19.2578 475.024 18.7129 L475.024 18.6094 L474.974 18.5196 C474.806 18.2246 474.428 18.0479 473.962 18.0479 C473.558 18.0479 473.202 18.1856 473.012 18.4141 L472.523 20.668 C472.294 21.8291 472.009 22.002 471.566 22.1485 C471.022 22.3301 469.494 22.4346 467.375 22.4346 L464.429 22.4346 C463.143 22.4346 463.143 22.4346 463.143 21.4014 L463.143 11.248 C463.143 9.60742 463.143 9.60742 464.279 9.60742 L467.933 9.60742 C470.088 9.60742 471.734 9.65821 472.765 9.90235 C475.078 10.4824 475.543 11.9453 476.247 14.1612 L476.344 14.4659 L476.415 14.5948 C476.588 14.8047 476.881 14.92 477.241 14.92 C477.592 14.92 478.081 14.8008 478.307 14.4649 L478.384 14.3496 L478.316 13.6025 C478.054 10.6445 477.813 8.13477 477.539 7.36328 L477.42 7.03028 L477.077 7.11426 C476.513 7.25391 473.364 7.25391 470.32 7.25391 L460.775 7.25391 C458.818 7.25391 457.145 7.21094 454.804 7.10352 L454.703 7.09961 L454.614 7.14258 C454.196 7.34766 454.125 7.94336 454.113 8.12012 C454.084 8.56446 454.212 8.91602 454.465 9.08594 L455.449 9.25 C458.046 9.5586 458.201 9.89551 458.201 15.2618 L458.201 33.5381 C458.201 39.0391 457.885 39.2774 455.407 39.4952 L453.595 39.6592 L453.494 39.7578 C453.206 40.0459 453.161 40.5176 453.217 40.8653 C453.277 41.2412 453.451 41.5274 453.695 41.6504 L453.784 41.6944 L453.884 41.6914 C456.816 41.5948 458.584 41.5391 460.775 41.5391 L465.344 41.5391 C469.773 41.5391 474.222 41.5889 478.942 41.6914 L479.193 41.6973 L479.303 41.4698 C479.984 40.045 481.26 36.1045 481.615 34.3223 Z M507.852 22.8711 C506.401 23.9688 504.423 24.1104 502.861 24.1104 C500.568 24.1104 499.862 24.0235 499.652 23.961 C499.594 23.75 499.594 23.1514 499.594 22.5703 L499.594 10.6914 C499.594 9.54981 499.594 9.45606 502.504 9.45606 C508.212 9.45606 510.236 13.459 510.236 16.8848 C510.236 19.6993 509.478 21.6016 507.852 22.8711 Z M523.152 41.7618 C523.387 41.5762 523.506 41.2764 523.461 40.9785 C523.419 40.7012 523.248 40.4785 523.002 40.3819 L522.889 40.3555 C521.678 40.2676 520.454 39.7715 519.608 39.0235 C516.113 36.0928 513.332 31.8116 509.486 25.6133 C509.22 25.1856 509.182 24.9883 509.188 24.9043 C510.875 24.2012 515.639 21.7129 515.639 16.1211 C515.639 11.8691 513.231 9.72168 511.217 8.67188 C508.671 7.28907 505.409 7.10352 502.555 7.10352 C497.906 7.10352 494.299 7.23242 491.2 7.50879 L491.06 7.54883 C490.765 7.69727 490.569 8.02344 490.537 8.42383 C490.502 8.85938 490.664 9.27735 490.952 9.48633 L491.033 9.54492 L492.759 9.75782 C494.414 9.95996 494.652 10.3184 494.652 15.3086 L494.652 33.5371 C494.652 38.9063 494.526 39.1836 491.95 39.4961 L490.529 39.6651 L490.43 39.7803 C490.143 40.1133 490.114 40.5977 490.183 40.9395 C490.252 41.2832 490.42 41.5352 490.655 41.6504 L490.744 41.6953 L490.844 41.6905 C493.101 41.5977 494.947 41.5391 497.173 41.5391 C499.271 41.5391 501.034 41.5977 503.199 41.6905 L503.3 41.6953 L503.39 41.6504 C503.763 41.4649 503.855 40.9766 503.879 40.7764 C503.929 40.3282 503.812 39.9375 503.563 39.7334 L503.479 39.6641 L502.304 39.4961 C499.695 39.1338 499.594 38.9121 499.594 33.5371 L499.594 27.1387 C499.594 26.4141 499.594 26.4141 501.589 26.4141 C503.539 26.4141 504.201 26.8809 504.874 27.8672 C505.646 28.9883 506.543 30.4102 507.412 31.7852 C508.32 33.2207 509.177 34.5772 509.853 35.5362 C513.34 40.5039 515.971 42.0977 520.68 42.0977 C521.659 42.0977 522.517 41.9981 523.033 41.8262 L523.152 41.7618 Z M535.94 14.043 C535.94 12.084 536.675 8.7959 541.594 8.7959 C546.07 8.7959 547.435 11.709 548.123 14.2461 L548.198 14.3907 C548.36 14.5899 548.634 14.6993 548.966 14.6993 C549.35 14.6993 549.865 14.545 550.089 14.2041 L550.153 14.1065 L550.153 13.9903 C550.153 11.916 549.726 9.0166 549.22 7.65821 L549.125 7.4043 L548.854 7.4043 C548.496 7.4043 547.82 7.31641 547.173 7.11719 C545.961 6.79102 544.059 6.44336 542.355 6.44336 C535.928 6.44336 531.608 10.1074 531.608 15.5625 C531.608 20.2002 535.152 23.2295 537.266 24.6231 L542.09 27.7735 C545.596 30.0284 546.078 32.3653 546.078 34.5528 C546.078 37.2637 544.236 39.9981 540.12 39.9981 C534.982 39.9981 532.739 36.0371 531.762 32.7139 L531.712 32.6065 C531.56 32.3799 531.285 32.2559 530.938 32.2559 C530.601 32.2559 530.115 32.3848 529.854 32.75 L529.776 32.8594 L529.781 32.9942 C529.878 35.2891 530.53 39.0469 531.198 40.2715 L531.25 40.3672 L531.345 40.4219 C532.339 41.002 535.123 42.3516 539.46 42.3516 C546.162 42.3516 550.664 38.42 550.664 32.5703 C550.664 28.5098 548.528 25.2149 544.136 22.4942 L540.072 19.9541 C538.529 18.9961 535.94 16.9561 535.94 14.043 Z M530.968 115.53 L515.982 115.53 C512.57 115.53 512.449 115.409 513.423 112.609 L521.1 91.4082 C522.439 87.7539 523.656 84.8282 524.021 84.2188 L524.267 84.2188 C524.999 85.6797 526.094 88.9727 527.066 91.8946 L533.647 111.753 C534.745 115.044 534.502 115.53 530.968 115.53 Z M562.402 148.671 C557.162 148.062 555.58 146.234 552.045 135.755 L535.354 86.7774 C533.527 81.417 531.578 75.8125 529.991 70.4502 C529.748 69.5996 528.896 69.3545 528.166 69.3545 C526.823 70.9395 524.755 73.1328 521.829 73.9864 C522.197 75.9356 521.465 78.2481 519.758 82.6348 L507.332 115.53 C502.214 129.177 498.802 137.097 496.607 142.7 C494.904 147.087 492.224 148.429 489.3 148.671 L485.278 149.036 C484.548 149.646 484.792 151.597 485.524 152.083 C488.813 151.962 493.197 151.718 497.218 151.718 C502.944 151.839 506.725 151.839 509.892 152.083 C510.986 151.597 510.986 149.646 510.134 149.036 L506.113 148.671 C503.188 148.429 502.578 147.696 502.578 146.234 C502.578 144.894 503.433 141.605 505.26 136.12 L509.523 123.329 C510.378 120.769 511.107 120.405 514.153 120.405 L532.551 120.405 C536.205 120.405 536.694 120.769 537.549 123.45 L542.907 140.021 C543.884 142.944 544.491 145.138 544.491 146.478 C544.491 147.696 542.786 148.429 540.23 148.671 L536.694 149.036 C535.84 149.646 535.962 151.597 536.938 152.083 C540.472 151.962 545.1 151.718 550.948 151.718 C556.431 151.718 560.696 151.839 565.691 152.083 C566.299 151.597 566.542 149.646 565.691 149.036 L562.402 148.671 Z M570.767 33.4346 L570.767 15.3614 C570.767 9.81348 570.92 9.47071 573.5 9.25196 L574.875 9.14356 L574.959 9.08594 C575.212 8.91797 575.341 8.56641 575.313 8.12305 C575.301 7.94532 575.23 7.34961 574.813 7.14453 L574.726 7.09961 L574.626 7.10352 C572.225 7.19922 570.428 7.25391 568.346 7.25391 C566.167 7.25391 564.422 7.20117 561.963 7.10352 L561.863 7.09961 L561.772 7.14453 C561.358 7.35157 561.289 7.94922 561.277 8.12793 C561.249 8.56836 561.378 8.91797 561.63 9.08594 L561.715 9.14356 L563.083 9.25196 C565.671 9.47071 565.824 9.81348 565.824 15.3614 L565.824 33.4346 C565.824 38.9004 565.695 39.1836 563.07 39.4961 L561.666 39.6641 L561.571 39.7598 C561.283 40.0469 561.24 40.5196 561.295 40.8672 C561.355 41.2422 561.529 41.5274 561.771 41.6494 L561.862 41.6953 L561.963 41.6905 C564.547 41.5909 566.243 41.5391 568.346 41.5391 C570.362 41.5391 572.043 41.5909 574.626 41.6905 L574.726 41.6953 L574.814 41.6504 C575.232 41.4424 575.302 40.8448 575.313 40.666 C575.34 40.2266 575.211 39.878 574.959 39.711 L573.516 39.4961 C570.896 39.1836 570.767 38.9004 570.767 33.4346 Z M617.051 6.47657 L617.088 6.33399 L617.024 6.20313 C616.838 5.82422 616.313 5.78321 616.094 5.78321 C615.967 5.78321 615.78 5.79688 615.616 5.86231 L615.489 5.91211 L615.421 6.03125 C614.771 7.16211 614.499 7.25391 611.798 7.25391 L590.813 7.25391 C588.54 7.25391 587.521 7.13477 587.311 6 L587.288 5.87989 L587.201 5.79395 C587.06 5.65332 586.831 5.58594 586.501 5.58594 C586.38 5.58594 585.969 5.59571 585.744 5.7461 L585.604 5.83887 L585.576 6.00391 C585.22 8.03223 584.469 11.2461 583.663 13.5059 L583.607 13.6621 L583.682 13.8125 C583.989 14.4239 585.028 14.7227 585.586 14.3028 L585.668 14.2412 L585.71 14.1465 C586.227 12.9717 586.714 11.8613 587.898 10.7744 C589.019 9.7461 591.552 9.60742 593.882 9.60742 L596.675 9.60742 C597.806 9.60742 597.806 9.60742 597.806 10.8398 L597.806 33.5381 C597.806 39.0391 597.489 39.2774 595.016 39.4952 L593.188 39.6465 L593.017 39.7022 C592.713 39.8887 592.543 40.2696 592.563 40.7198 C592.579 41.0625 592.715 41.4854 593.048 41.6504 L593.136 41.6934 L593.233 41.6914 C596.34 41.5967 598.215 41.5391 600.276 41.5391 C602.261 41.5391 603.898 41.5879 606.912 41.6914 L607.01 41.6944 L607.099 41.6504 C607.517 41.4444 607.587 40.8496 607.599 40.6709 C607.627 40.2285 607.498 39.8789 607.245 39.711 L605.439 39.4952 C602.899 39.2754 602.75 38.9414 602.75 33.5381 L602.75 10.7783 C602.748 10.2637 602.748 9.77637 602.831 9.69336 C602.917 9.60742 603.468 9.60742 603.833 9.60742 L607.436 9.60742 C610.155 9.60742 612.007 9.99805 613.093 10.8008 C613.572 11.1533 613.987 12.4395 614.206 14.2403 L614.219 14.3535 L614.291 14.4414 C614.479 14.668 614.821 14.8028 615.213 14.8028 C615.695 14.8028 616.098 14.5957 616.263 14.2637 L616.313 14.1641 L616.301 14.0518 C616.153 12.5957 616.504 8.50586 617.051 6.47657 Z M637.821 71.1836 C635.748 70.6973 629.291 69.3575 622.346 69.3575 C603.947 69.3575 591.886 75.0791 583.724 83.6114 C576.17 91.6504 572.756 102.129 572.756 112.485 C572.756 123.208 576.657 132.831 583.967 140.142 C593.348 149.646 606.629 153.667 621.127 153.667 C627.707 153.667 636.479 152.204 642.938 150.499 C645.251 149.892 647.446 149.402 648.904 149.402 C649.396 149.036 649.396 148.304 649.029 147.941 C646.838 147.087 646.105 144.165 646.105 139.29 L646.105 132.466 C646.105 126.253 646.229 122.843 651.343 122.232 L653.295 121.987 C654.146 121.259 654.023 119.431 653.173 118.943 C649.151 119.185 645.007 119.306 640.257 119.306 C633.067 119.306 626.367 119.185 622.834 118.943 C621.98 119.306 621.858 121.503 622.834 121.987 L628.195 122.599 C635.748 123.45 636.113 124.183 636.113 134.415 L636.113 139.29 C636.113 143.189 635.505 145.382 634.897 146.234 C633.554 148.304 629.049 149.892 621.491 149.892 C597.002 149.892 584.939 131.489 584.939 108.099 C584.939 89.8243 595.3 73.0098 618.935 73.0098 C631.362 73.0098 640.499 77.1543 643.912 90.3106 C644.644 91.042 646.838 90.9209 647.202 89.9453 C646.105 82.6348 645.373 76.2989 645.373 72.2813 C643.912 72.5235 640.135 71.67 637.821 71.1836 Z M655.612 9.05664 C655.871 8.83203 656.009 8.46485 655.979 8.07715 C655.95 7.68946 655.757 7.34766 655.463 7.16309 L655.357 7.09668 L655.233 7.10352 C651.623 7.31446 649.496 7.3125 645.681 7.10352 L645.577 7.09766 L645.483 7.14453 C645.201 7.28711 645.006 7.57227 644.948 7.92871 C644.882 8.33789 645.009 8.76367 645.28 9.03711 L645.378 9.13477 L646.424 9.25 C647.41 9.37305 648.023 9.61328 648.202 9.74707 C648.042 10.4746 646.267 13.7676 645.189 15.7676 L644.957 16.1993 C643.734 18.5625 642.323 21.1094 640.538 24.1719 C639.201 21.7539 637.896 19.0967 636.632 16.5196 C636.135 15.5098 635.64 14.502 635.146 13.5117 C634.778 12.7773 633.631 10.1826 633.611 9.7793 C633.611 9.67676 633.846 9.47266 635.413 9.24805 L636.201 9.12891 L636.293 9.03711 C636.567 8.75977 636.686 8.25977 636.578 7.82227 C636.495 7.47461 636.276 7.21875 635.98 7.12305 L635.906 7.09766 L635.829 7.10449 C634.584 7.20313 632.768 7.25391 630.428 7.25391 C628.078 7.25391 626.216 7.20508 624.566 7.10352 L624.45 7.09668 L624.348 7.1543 C624.1 7.29688 623.93 7.56348 623.871 7.9043 C623.802 8.3125 623.907 8.73828 624.146 9.01758 L624.237 9.12207 L625.797 9.39844 C627.142 9.625 627.816 9.73926 629.525 13.0488 L635.513 24.7305 C636.947 27.4932 637.096 28.0645 637.096 30.8467 L637.096 33.4346 C637.096 38.9453 636.97 39.2276 634.402 39.4961 L632.688 39.6602 L632.59 39.7598 C632.301 40.0508 632.259 40.5254 632.316 40.8721 C632.378 41.2461 632.553 41.5293 632.796 41.6504 L632.884 41.6953 L632.983 41.6905 C635.719 41.5909 637.497 41.5391 639.619 41.5391 C641.68 41.5391 643.498 41.5967 646.511 41.6914 L646.609 41.6944 L646.696 41.6504 C646.941 41.5284 647.117 41.2422 647.177 40.8653 C647.233 40.5186 647.188 40.0459 646.897 39.7578 L646.796 39.6563 L644.726 39.4942 C642.377 39.3184 642.04 38.9307 642.04 33.4346 L642.04 30.793 C642.04 26.9893 642.148 26.6143 644.372 22.7657 L647.571 17.2325 C647.862 16.7325 648.14 16.2481 648.406 15.7813 C650.402 12.293 651.845 9.77246 654.002 9.39844 L655.531 9.12793 L655.612 9.05664 Z M682.532 108.464 C682.532 81.7832 698.979 73.1328 711.651 73.1328 C734.922 73.1328 743.816 94.8184 743.816 114.923 C743.816 138.923 729.927 149.892 715.306 149.892 C691.305 149.892 682.532 126.495 682.532 108.464 Z M670.349 112.362 C670.349 134.294 686.674 153.667 713.722 153.667 C737.238 153.667 756 135.755 756 111.144 C756 89.7032 741.865 69.3545 713.722 69.3545 C688.624 69.3545 670.349 87.9981 670.349 112.362 Z M711.874 25.8203 C711.874 36.2852 705.685 39.9981 700.386 39.9981 C689.911 39.9981 687.115 29.3946 687.115 23.1289 C687.115 12.5488 693.443 8.79492 698.862 8.79492 C708.467 8.79492 711.874 17.9668 711.874 25.8203 Z M717.731 24.2432 C717.731 15.67 712.097 6.44239 699.724 6.44239 C689.197 6.44239 681.259 14.3145 681.259 24.7539 C681.259 33.4981 687.602 42.3516 699.724 42.3516 C709.99 42.3516 717.731 34.5664 717.731 24.2432 Z M751.806 14.3702 L751.854 14.2774 L751.848 14.1719 C751.747 12.3359 751.691 9.96387 751.691 7.49317 L751.691 7.00391 L751.214 7.11328 C750.6 7.25391 747.473 7.25391 744.45 7.25391 L735.106 7.25391 C733.195 7.25391 731.496 7.21094 729.24 7.10352 L729.141 7.09961 L729.05 7.14258 C728.63 7.34864 728.561 7.94434 728.549 8.12305 C728.521 8.56641 728.649 8.91797 728.905 9.08789 L729.883 9.25 C732.46 9.56055 732.586 9.8418 732.586 15.2618 L732.586 33.5381 C732.586 38.9063 732.46 39.1846 729.884 39.4961 L728.482 39.6641 L728.387 39.7578 C728.097 40.044 728.052 40.5157 728.107 40.8614 C728.167 41.2403 728.341 41.5264 728.584 41.6494 L728.675 41.6953 L728.776 41.6905 C731.153 41.5928 732.866 41.5391 735.106 41.5391 C737.156 41.5391 738.915 41.5948 741.848 41.6914 L741.945 41.6944 L742.034 41.6504 C742.367 41.4844 742.51 41.0313 742.532 40.6641 C742.559 40.2246 742.429 39.877 742.174 39.709 L740.271 39.4952 C737.682 39.2754 737.527 38.9414 737.527 33.5381 L737.527 26.4785 C737.527 25.4981 737.527 25.4981 738.813 25.4981 L742.267 25.4981 C744.048 25.4981 745.376 25.5391 746.057 25.7344 C746.771 25.961 747.154 26.4268 747.424 27.3868 L747.958 29.4883 L748.052 29.5684 C748.555 30 749.631 29.9766 749.953 29.4883 L750.019 29.3907 L750.019 29.2735 C750.019 28.7461 749.979 28.0674 749.934 27.3145 C749.879 26.3926 749.817 25.3496 749.817 24.3477 C749.817 23.3184 749.879 22.2305 749.933 21.2715 C749.979 20.4825 750.019 19.7696 750.019 19.2198 L750.019 19.1026 L749.953 19.0039 C749.713 18.6407 749.197 18.6016 748.987 18.6016 C748.565 18.6016 748.199 18.7393 748.006 18.9688 L747.471 21.1631 C747.186 22.3946 746.844 22.5157 746.457 22.6553 C745.921 22.834 744.354 22.9414 742.267 22.9414 L738.813 22.9414 C737.527 22.9414 737.527 22.9414 737.527 21.9629 L737.527 11.248 C737.527 9.60742 737.527 9.60742 738.663 9.60742 L741.759 9.60742 C743.857 9.60742 745.514 9.60742 746.584 9.90235 C748.761 10.4688 749.412 11.9248 749.852 14.4151 L749.876 14.5528 L749.981 14.6426 C750.177 14.8106 750.449 14.9043 750.749 14.9043 C751.141 14.9043 751.619 14.7383 751.806 14.3702 Z" transform="translate(0, -3.65137)"/>
  </g>
 </g>
</svg>
