<?xml version="1.0" encoding="utf-8"?>
<!-- Generator: Adobe Illustrator 16.0.0, SVG Export Plug-In . SVG Version: 6.00 Build 0)  -->
<!DOCTYPE svg PUBLIC "-//W3C//DTD SVG 1.1//EN" "http://www.w3.org/Graphics/SVG/1.1/DTD/svg11.dtd" [
	<!ENTITY st0 "fill:#ADAFB2;">
	<!ENTITY st1 "fill:#7F1416;">
]>
<svg version="1.1" id="Layer_1" xmlns="http://www.w3.org/2000/svg" xmlns:xlink="http://www.w3.org/1999/xlink" x="0px" y="0px"
	 width="192.5px" height="28.22px" viewBox="0 0 192.5 28.22" style="enable-background:new 0 0 192.5 28.22;" xml:space="preserve"
	>
<path style="&st1;" d="M142.16,16.26h-6.11l3.06-7.46L142.16,16.26z M151.36,25.89L141.5,2.72h-4.67l-9.86,23.17h5.16l2.11-5.16
	h9.73l2.1,5.16H151.36z"/>
<path style="&st1;" d="M151.76,25.89h5v-6.51c0-4.21,2.04-6.27,5.36-6.27h0.26V8.29c-2.96-0.13-4.6,1.11-5.62,3.54V8.28h-5V25.89z"
	/>
<path style="&st1;" d="M170.79,26.19c1.68,0,2.89-0.4,3.95-1.02v-4.01c-0.72,0.39-1.54,0.62-2.47,0.62c-1.12,0-1.61-0.56-1.61-1.71
	v-6.99h4.14V8.28h-4.14V2.33h-5v5.95h-2.1v4.81h2.1v7.81C165.66,24.97,167.73,26.19,170.79,26.19"/>
<path style="&st1;" d="M183.02,26.22c3.81,0,6.74-1.78,6.74-5.69v-0.07c0-3.22-2.86-4.4-5.33-5.23c-1.91-0.66-3.58-1.12-3.58-2.1
	v-0.07c0-0.69,0.63-1.22,1.84-1.22c1.28,0,3.03,0.62,4.77,1.64l1.91-3.45c-1.91-1.28-4.34-2.04-6.57-2.04c-3.55,0-6.44,2-6.44,5.59
	v0.07c0,3.42,2.79,4.57,5.26,5.29c1.94,0.59,3.65,0.95,3.65,2.04v0.07c0,0.79-0.66,1.31-2.11,1.31c-1.64,0-3.65-0.72-5.55-2.1
	l-2.14,3.29C177.79,25.4,180.55,26.22,183.02,26.22"/>
<path style="&st0;" d="M4.21,18.6V8.87h3.75v9.64c0,2.77,1.39,4.21,3.67,4.21c2.29,0,3.68-1.39,3.68-4.09V8.87h3.75v9.61
	c0,5.16-2.9,7.69-7.47,7.69C7,26.17,4.21,23.61,4.21,18.6"/>
<path style="&st0;" d="M20.05,17.43v-0.05c0-4.84,3.65-8.81,8.88-8.81c3.21,0,5.14,1.07,6.72,2.63l-2.39,2.75
	c-1.32-1.19-2.65-1.92-4.36-1.92c-2.87,0-4.94,2.39-4.94,5.31v0.05c0,2.92,2.02,5.35,4.94,5.35c1.95,0,3.14-0.78,4.48-2l2.38,2.41
	c-1.75,1.88-3.7,3.04-6.98,3.04C23.78,26.19,20.05,22.33,20.05,17.43"/>
<polygon style="&st0;" points="37.09,8.87 40.83,8.87 40.83,15.61 47.75,15.61 47.75,8.87 51.5,8.87 51.5,25.9 47.75,25.9 
	47.75,19.06 40.83,19.06 40.83,25.9 37.09,25.9 "/>
<rect x="53.46" y="8.87" style="&st0;" width="3.75" height="17.04"/>
<path style="&st0;" d="M58.65,17.43v-0.05c0-4.84,3.65-8.81,8.88-8.81c3.21,0,5.14,1.07,6.72,2.63l-2.39,2.75
	c-1.31-1.19-2.65-1.92-4.36-1.92c-2.87,0-4.94,2.39-4.94,5.31v0.05c0,2.92,2.02,5.35,4.94,5.35c1.95,0,3.14-0.78,4.48-2l2.38,2.41
	c-1.75,1.88-3.7,3.04-6.98,3.04C62.37,26.19,58.65,22.33,58.65,17.43"/>
<path style="&st0;" d="M85.83,18.77l-2.26-5.52l-2.26,5.52H85.83z M81.89,8.74h3.46l7.3,17.16h-3.92l-1.56-3.82h-7.21l-1.56,3.82
	h-3.82L81.89,8.74z"/>
<path style="&st0;" d="M91.48,17.43v-0.05c0-4.84,3.77-8.81,8.93-8.81c3.07,0,4.92,0.83,6.69,2.34l-2.36,2.85
	c-1.32-1.09-2.48-1.73-4.45-1.73c-2.73,0-4.89,2.41-4.89,5.31v0.05c0,3.12,2.14,5.4,5.16,5.4c1.36,0,2.58-0.34,3.53-1.02v-2.43
	h-3.77v-3.24h7.4v7.4c-1.75,1.48-4.16,2.7-7.28,2.7C95.13,26.19,91.48,22.47,91.48,17.43"/>
<path style="&st0;" d="M123.04,17.43v-0.05c0-2.92-2.14-5.35-5.16-5.35c-3.02,0-5.11,2.39-5.11,5.31v0.05
	c0,2.92,2.14,5.35,5.16,5.35C120.95,22.74,123.04,20.35,123.04,17.43 M108.85,17.43v-0.05c0-4.84,3.82-8.81,9.08-8.81
	c5.25,0,9.03,3.92,9.03,8.76v0.05c0,4.84-3.82,8.81-9.08,8.81C112.63,26.19,108.85,22.28,108.85,17.43"/>
</svg>
