<?xml version="1.0" encoding="UTF-8" standalone="no"?>
<svg
   xmlns:dc="http://purl.org/dc/elements/1.1/"
   xmlns:cc="http://creativecommons.org/ns#"
   xmlns:rdf="http://www.w3.org/1999/02/22-rdf-syntax-ns#"
   xmlns:svg="http://www.w3.org/2000/svg"
   xmlns="http://www.w3.org/2000/svg"
   viewBox="0 0 960.12 109.66667"
   height="109.66667"
   width="960.12"
   xml:space="preserve"
   id="svg2"
   version="1.1"><metadata
     id="metadata8"><rdf:RDF><cc:Work
         rdf:about=""><dc:format>image/svg+xml</dc:format><dc:type
           rdf:resource="http://purl.org/dc/dcmitype/StillImage" /></cc:Work></rdf:RDF></metadata><defs
     id="defs6"><clipPath
       id="clipPath20"
       clipPathUnits="userSpaceOnUse"><path
         id="path18"
         d="M 0,822.5 V 0 h 7200.85 v 822.5 z" /></clipPath></defs><g
     transform="matrix(1.3333333,0,0,-1.3333333,0,109.66667)"
     id="g10"><g
       transform="scale(0.1)"
       id="g12"><g
         id="g14"><g
           clip-path="url(#clipPath20)"
           id="g16"><path
             id="path22"
             style="fill:#880a22;fill-opacity:1;fill-rule:nonzero;stroke:none"
             d="M 824.938,411.582 C 824.938,300.141 784.062,204.844 702.996,124.941 621.938,45.1172 524.758,5.53516 412.129,5.53516 300.145,5.53516 202.949,45.1172 121.855,124.941 40.8594,204.844 0,300.141 0,412.188 c 0,111.406 40.8594,206.66 121.855,286.566 81.739,79.816 178.875,119.402 290.915,119.402 111.988,0 209.168,-39.586 290.226,-119.402 81.066,-79.906 121.942,-175.16 121.942,-287.172 M 711.703,373.805 c 0,96.578 -30.937,185.672 -92.812,266.761 -67.465,88.485 -147.907,132.461 -242.645,132.461 -79.84,0 -144.82,-33.461 -195.566,-99.691 -46.399,-61.219 -69.313,-132.367 -69.313,-213.512 0,-97.144 30.942,-186.246 92.817,-267.383 67.461,-87.816 147.918,-131.7887 242.625,-131.7887 79.789,0 144.836,33.3633 195.586,99.6447 46.371,60.644 69.308,131.851 69.308,213.508" /><path
             id="path24"
             style="fill:#880a22;fill-opacity:1;fill-rule:nonzero;stroke:none"
             d="m 2091.75,437.617 c 0,-113.902 -39.01,-213.512 -117.64,-298.344 C 1893.72,52.0352 1796.53,8.72266 1682.1,8.72266 c -24.18,0 -58.83,1.21484 -103.43,3.67964 -44.51,2.4102 -86.01,3.6915 -123.76,3.6915 -42.64,0 -104.56,-1.2813 -184.43,-3.0743 v 19.7852 l 63.15,9.2734 c 29.11,4.3672 47.01,12.4141 52.64,24.7696 6.16,12.3945 9.85,48.2933 11.12,107.6483 0,9.328 0.62,37.168 2.47,83.613 1.14,35.258 1.85,64.34 1.85,87.243 v 158.492 c 0,45.734 -0.71,94.597 -1.23,146.011 -1.24,60.633 -4.89,96.528 -10.56,108.27 -5.45,11.738 -23.48,19.785 -53.21,24.145 l -60.01,9.324 v 19.785 c 76.11,-1.809 135.57,-3.125 178.21,-3.125 31.58,0 72.49,1.937 121.91,4.93 50.13,3.125 87.26,5.011 112.01,5.011 113.33,0 207.92,-35.925 285.28,-107.039 78.63,-73.09 117.64,-163.992 117.64,-273.539 m -113.24,-40.855 c 0,105.152 -29.73,195.527 -89.8,271.691 -63.11,79.781 -142.92,119.973 -239.46,119.973 -38.39,0 -84.17,-6.774 -136.76,-19.75 -4.36,-93.449 -5.55,-181.367 -4.36,-264.832 l 5.62,-329.348 c 0.58,-64.945 8.02,-103.3007 22.27,-113.8437 14.19,-10.5156 66.22,-16.0898 155.32,-16.0898 74.27,0 141.08,38.9922 201.15,116.3595 57.52,74.316 86.02,152.941 86.02,235.84" /><path
             id="path26"
             style="fill:#880a22;fill-opacity:1;fill-rule:nonzero;stroke:none"
             d="m 3212.74,791.543 -54.43,-9.273 c -51.42,-8.665 -104.01,-52.563 -157.89,-132.415 -30.3,-43.285 -71.15,-106.476 -121.81,-189.41 l -25.42,-48.257 c -2.55,1.851 -3.73,-29.668 -3.73,-93.45 v -59.359 c 0,-13.727 1.18,-42.129 4.34,-84.883 4.31,-58.754 8.01,-92.8163 12.41,-103.328 6.2,-14.836 22.82,-24.7227 50.7,-29.0899 l 57.57,-9.3203 V 12.9727 c -76.13,1.9375 -135.54,3.1211 -178.28,3.1211 -42.66,0 -102.07,-1.1836 -178.2,-3.1211 v 19.7851 l 57.57,9.3203 c 29.06,4.3672 46.39,13.0157 51.98,24.7696 6.2,11.7968 9.9,47.5783 11.17,107.6483 0.57,16.149 1.19,29.692 2.46,40.285 1.19,9.289 1.85,24.106 1.85,44.598 v 59.359 c 0,48.918 -1.28,79.832 -3.74,92.184 -63.72,101.5 -115.75,181.367 -154.71,238.933 -50.75,74.227 -102.68,118.165 -156.61,132.415 l -35.84,9.273 v 19.875 c 68.7,-1.887 122.53,-3.164 161.49,-3.164 47.01,0 112.05,1.277 194.94,3.164 v -19.875 l -52.54,-9.273 c -24.23,-4.274 -35.93,-11.7 -35.93,-23.54 0,-14.238 17.99,-50.121 53.16,-108.875 32.81,-53.832 71.25,-113.289 115.14,-179.523 44.59,66.848 82.99,126.969 115.17,179.523 32.11,53.25 48.24,87.766 48.24,103.911 0,13.011 -12.39,22.918 -36.54,28.504 l -39.58,9.273 v 19.875 c 65.57,-1.887 117.02,-3.164 154.06,-3.164 34.64,0 82.32,1.277 143,3.164 v -19.875" /><path
             id="path28"
             style="fill:#880a22;fill-opacity:1;fill-rule:nonzero;stroke:none"
             d="m 3985.97,240.781 c 0,-82.937 -27.22,-144.2029 -81.14,-184.449 -45.12,-34.0429 -105.1,-50.74997 -180,-50.74997 -68.78,0 -138.61,16.70707 -211.04,50.13677 l 22.25,157.1872 22.25,-4.371 c -0.61,-5.582 -1.23,-11.777 -1.23,-17.312 0,-43.336 21.64,-79.176 65.62,-108.3285 37.73,-24.7656 78.58,-37.0742 121.9,-37.0742 42.73,0 76.11,16.0508 98.98,47.5859 19.85,27.9258 29.74,63.1958 29.74,106.5118 0,52.637 -27.79,103.914 -82.89,153.484 -51.37,39 -103.35,78.633 -154.72,118.207 -55.76,45.168 -83.64,89.106 -83.64,131.797 0,63.774 23.57,116.367 71.24,157.887 46.45,40.852 103.34,61.207 171.43,61.207 48.84,0 101.49,-11.082 159.05,-33.383 l -42.08,-153.515 -18.56,5.586 3.08,25.992 c 0.62,3.738 0.62,7.39 0.62,11.125 0,30.304 -13.63,55.105 -40.19,75.461 -26.66,20.492 -56.91,30.347 -92.23,30.347 -66.28,0 -99.03,-42.656 -99.03,-128.105 0,-45.117 27.88,-91.035 82.89,-137.379 51.46,-39.629 103.35,-79.25 154.77,-119.453 55.05,-50.082 82.93,-103.332 82.93,-158.395" /><path
             id="path30"
             style="fill:#880a22;fill-opacity:1;fill-rule:nonzero;stroke:none"
             d="m 4858.43,240.781 c 0,-82.937 -27.27,-144.2029 -81.12,-184.449 -45.19,-34.0429 -105.18,-50.74997 -180.07,-50.74997 -68.7,0 -138.63,16.70707 -211.05,50.13677 l 22.29,157.1872 22.25,-4.371 c -0.56,-5.582 -1.18,-11.777 -1.18,-17.312 0,-43.336 21.64,-79.176 65.62,-108.3285 37.72,-24.7656 78.54,-37.0742 121.9,-37.0742 42.71,0 76.12,16.0508 98.99,47.5859 19.84,27.9258 29.73,63.1958 29.73,106.5118 0,52.637 -27.84,103.914 -82.94,153.484 -51.4,39 -103.39,78.633 -154.74,118.207 -55.69,45.168 -83.58,89.106 -83.58,131.797 0,63.774 23.59,116.367 71.16,157.887 46.45,40.852 103.4,61.207 171.47,61.207 48.9,0 101.5,-11.082 159.06,-33.383 l -42.04,-153.515 -18.55,5.586 3.03,25.992 c 0.58,3.738 0.58,7.39 0.58,11.125 0,30.304 -13.55,55.105 -40.16,75.461 -26.61,20.492 -56.95,30.347 -92.22,30.347 -66.23,0 -99.04,-42.656 -99.04,-128.105 0,-45.117 27.88,-91.035 82.94,-137.379 51.37,-39.629 103.35,-79.25 154.72,-119.453 55.06,-50.082 82.95,-103.332 82.95,-158.395" /><path
             id="path32"
             style="fill:#880a22;fill-opacity:1;fill-rule:nonzero;stroke:none"
             d="m 5432.21,433.219 316.32,3.164 c 47.01,0.57 74.8,1.762 82.89,4.887 8,3.125 14.96,13.628 19.83,31.566 l 9.28,33.43 h 19.79 c -1.84,-37.774 -3.07,-68.739 -3.07,-92.887 0,-24.086 1.23,-55.016 3.07,-92.793 h -19.79 l -9.28,33.43 c -4.87,17.941 -11.21,28.457 -19.3,30.961 -8,3.031 -35.81,4.925 -83.42,5.503 l -317.56,6.282 c 0,-100.918 34.04,-186.332 102.2,-255.672 64.96,-66.1877 142.31,-99.5666 230.79,-99.5666 63.11,0 118.83,13.5704 167.03,41.3711 55.18,31.5855 86.72,75.5035 96.04,131.2775 l 20.4,-1.238 L 6025.1,55.7188 C 5949.02,18.5977 5854.2,0 5739.77,0 c -120.06,0 -222.13,37.125 -306.91,112.004 -81.68,72.473 -122.47,157.23 -122.47,255.652 0,151.621 45.71,265.528 136.67,342.262 83.6,71.203 201.2,106.391 352.79,106.391 67.45,0 145.47,-17.379 234.04,-51.329 -9.98,-34.031 -24.9,-84.785 -44.03,-152.292 l -19.29,4.886 3.17,22.336 c 5.53,35.844 -17.96,68.16 -69.24,97.195 -48.89,27.875 -102.15,41.512 -161.02,41.512 -90.95,0 -165.85,-35.969 -223.31,-108.32 -51.38,-64.43 -81.1,-143.625 -87.96,-237.078" /><path
             id="path34"
             style="fill:#880a22;fill-opacity:1;fill-rule:nonzero;stroke:none"
             d="m 7200.85,791.543 -54.48,-9.273 c -51.32,-8.665 -103.92,-52.563 -157.83,-132.415 -30.35,-43.285 -71.17,-106.476 -121.87,-189.41 l -25.37,-48.257 c -2.52,1.851 -3.78,-29.668 -3.78,-93.45 v -59.359 c 0,-13.727 1.26,-42.129 4.39,-84.883 4.32,-58.754 8,-92.8163 12.32,-103.328 6.23,-14.836 22.96,-24.7227 50.73,-29.0899 l 57.6,-9.3203 V 12.9727 c -76.14,1.9375 -135.51,3.1211 -178.3,3.1211 -42.62,0 -102.08,-1.1836 -178.2,-3.1211 v 19.7851 l 57.56,9.3203 c 29.11,4.3672 46.45,13.0157 51.9,24.7696 6.26,11.7968 9.94,47.5783 11.26,107.6483 0.61,16.149 1.24,29.692 2.46,40.285 1.23,9.289 1.85,24.106 1.85,44.598 v 59.359 c 0,48.918 -1.24,79.832 -3.7,92.184 -63.77,101.5 -115.78,181.367 -154.66,238.933 -50.89,74.227 -102.78,118.165 -156.66,132.415 l -35.82,9.273 v 19.875 c 68.59,-1.887 122.5,-3.164 161.48,-3.164 47.05,0 111.97,1.277 194.98,3.164 v -19.875 l -52.68,-9.273 c -24.1,-4.274 -35.8,-11.7 -35.8,-23.54 0,-14.238 17.81,-50.121 53.14,-108.875 32.8,-53.832 71.15,-113.289 115.12,-179.523 44.51,66.848 82.93,126.969 115.14,179.523 32.09,53.25 48.18,87.766 48.18,103.911 0,13.011 -12.3,22.918 -36.44,28.504 l -39.62,9.273 v 19.875 c 65.53,-1.887 116.97,-3.164 154.09,-3.164 34.73,0 82.32,1.277 143.01,3.164 v -19.875" /></g></g></g></g></svg>