<?xml version="1.0" encoding="UTF-8" standalone="no"?>
<svg
   xmlns:dc="http://purl.org/dc/elements/1.1/"
   xmlns:cc="http://creativecommons.org/ns#"
   xmlns:rdf="http://www.w3.org/1999/02/22-rdf-syntax-ns#"
   xmlns:svg="http://www.w3.org/2000/svg"
   xmlns="http://www.w3.org/2000/svg"
   viewBox="0 0 632.5 149.7375"
   height="149.7375"
   width="632.5"
   xml:space="preserve"
   version="1.1"
   id="svg2"><metadata
     id="metadata8"><rdf:RDF><cc:Work
         rdf:about=""><dc:format>image/svg+xml</dc:format><dc:type
           rdf:resource="http://purl.org/dc/dcmitype/StillImage" /></cc:Work></rdf:RDF></metadata><defs
     id="defs6" /><g
     transform="matrix(1.25,0,0,-1.25,0,149.7375)"
     id="g10"><g
       transform="scale(0.1,0.1)"
       id="g12"><path
         id="path14"
         style="fill:#3a393c;fill-opacity:1;fill-rule:nonzero;stroke:none"
         d="m 56.5313,0.0195313 c -23.3516,0 -38.125,7.2187487 -43.375,10.2617687 -3.33599,6.1289 -6.96489,25.8593 -7.50005,38.9375 1.37891,1.9101 5.53125,2.5507 6.62895,0.832 4.1796,-14.1524 15.6015,-41.41017 47.8789,-41.41017 23.332,0 34.7422,15.28127 34.7422,31.96877 0,12.2617 -2.504,25.8398 -22.8086,38.9101 L 45.6484,96.7891 c -13.8906,9.1719 -29.9882,25.0119 -29.9882,47.8319 0,26.379 20.5195,47.848 56.707,47.848 8.6133,0 18.6172,-1.387 25.8906,-3.649 3.6132,-0.832 7.5002,-1.648 9.6802,-1.648 2.546,-6.672 5.035,-22.301 5.035,-33.973 -1.098,-1.609 -5.571,-2.469 -6.938,-0.789 -3.652,13.289 -11.1287,31.442 -37.8475,31.442 -27.2539,0 -33.1055,-18.153 -33.1055,-30.891 0,-16.121 13.3907,-27.512 23.6641,-34.211 L 80.9805,104.82 C 98.4727,93.9883 115.762,77.8789 115.762,51.4297 115.762,20.8906 92.7109,0.0195313 56.5313,0.0195313" /><path
         id="path16"
         style="fill:#3a393c;fill-opacity:1;fill-rule:nonzero;stroke:none"
         d="m 273.551,168.801 c 20.262,15.84 46.129,23.66 75.078,23.66 14.988,0 36.121,-3.129 49.199,-6.762 3.344,-0.789 5.274,-1.32 7.793,-1.058 0.27,-6.371 1.676,-23.891 3.895,-40.821 -1.391,-1.988 -5.555,-2.308 -7.5,-0.582 -4.188,18.864 -16.7,40.571 -57.016,40.571 -42.535,0 -78.695,-27.02 -78.695,-84.5199 0,-58.3789 36.992,-90.64847 82.582,-90.64847 35.863,0 51.722,23.35937 58.101,39.75777 1.965,1.3633 6.133,0.8125 7.254,-1.1367 -1.969,-14.4297 -9.16,-32.7929 -13.34,-38.04295 -3.359,-0.57812 -6.668,-1.69922 -9.734,-2.80859 -6.094,-2.21094 -26.156,-6.3906287 -43.941,-6.3906287 -25.02,0 -48.942,5.0312487 -69.235,18.6093687 -22.254,15.293 -39.531,40.5703 -39.531,76.4805 0,30.8516 13.949,57.2886 35.09,73.6916" /><path
         id="path18"
         style="fill:#3a393c;fill-opacity:1;fill-rule:nonzero;stroke:none"
         d="m 585.422,94.2695 c -13.356,0 -13.895,-0.5898 -13.895,-8.8984 l 0,-39.1992 c 0,-29.1836 1.344,-33.0313 16.946,-34.793 l 8.074,-0.8398 c 1.652,-1.05863 1.09,-6.05863 -0.563,-6.96879 -15.011,0.60157 -24.457,0.91016 -35.339,0.91016 -11.95,0 -21.375,-0.60156 -32.243,-0.91016 -1.66,0.91016 -2.234,5.3086 -0.558,6.96879 l 4.715,0.8398 c 15.578,2.8125 16.136,5.6094 16.136,34.793 l 0,100.0581 c 0,29.27 -1.925,33.961 -16.406,35.071 l -7.191,0.531 c -1.664,1.188 -1.129,6.148 0.531,6.977 13.641,-0.27 23.066,-0.829 35.016,-0.829 10.882,0 20.328,0.25 32.277,0.829 1.656,-0.829 2.25,-5.789 0.558,-6.977 l -5.289,-0.531 c -16.125,-1.66 -16.664,-5.801 -16.664,-35.071 l 0,-31.949 c 0,-8.609 0.539,-8.871 13.895,-8.871 l 79.516,0 c 13.347,0 13.914,0.262 13.914,8.871 l 0,31.949 c 0,29.27 -0.567,33.411 -17.012,35.071 l -5.223,0.531 c -1.715,1.188 -1.125,6.148 0.535,6.977 12.793,-0.579 22.235,-0.829 33.684,-0.829 10.824,0 20.269,0.25 32.812,0.829 1.633,-0.829 2.196,-5.789 0.489,-6.977 l -5.778,-0.531 C 702.207,179.641 701.66,175.5 701.66,146.23 l 0,-100.0581 c 0,-29.1836 0.547,-32.8008 16.699,-34.793 l 6.629,-0.8398 c 1.692,-1.05863 1.125,-6.05863 -0.535,-6.96879 -13.348,0.60157 -22.793,0.91016 -33.617,0.91016 -11.449,0 -21.457,-0.30859 -33.684,-0.91016 -1.66,0.91016 -2.25,5.3086 -0.535,6.96879 l 5.223,0.8398 c 17.012,2.2305 16.445,5.6094 17.012,34.793 l 0,39.1992 c 0,8.3086 -0.567,8.8984 -13.914,8.8984 l -79.516,0" /><path
         id="path20"
         style="fill:#3a393c;fill-opacity:1;fill-rule:nonzero;stroke:none"
         d="m 1008.29,88.4688 c 0,45.8202 -20.352,95.3402 -73.431,95.3402 -28.918,0 -66.468,-19.707 -66.468,-80.618 0,-41.1793 20.031,-94.58162 74.824,-94.58162 33.324,0 65.075,25.03122 65.075,79.85942 m -167.692,5.7929 c 0,55.5903 41.668,98.1683 98.988,98.1683 64.234,0 96.494,-46.45 96.494,-95.3597 C 1036.08,40.8984 993.227,0 939.586,0 877.855,0 840.598,44.2188 840.598,94.2617" /><path
         id="path22"
         style="fill:#3a393c;fill-opacity:1;fill-rule:nonzero;stroke:none"
         d="m 1180.56,146.23 c 0,29.27 -0.56,33.711 -18.06,35.071 l -6.94,0.531 c -1.71,1.188 -1.12,6.156 0.51,6.977 15.6,-0.547 25.05,-0.821 36.15,-0.821 10.88,0 20.29,0.274 34.21,0.821 1.69,-0.821 2.25,-5.789 0.56,-6.977 l -6.66,-0.531 c -16.42,-1.36 -16.98,-5.801 -16.98,-35.071 l 0,-96.7105 c 0,-17.5195 0.84,-24.7187 5.85,-30.0976 3.06,-3.043 8.35,-6.2813 30.34,-6.2813 23.61,0 29.42,1.0508 33.92,3.5782 5.55,3.3203 12.76,13.3125 18.37,27.5 1.63,1.4023 6.93,0.2695 6.93,-1.6797 0,-3.0899 -7.82,-31.4297 -11.71,-38.96879 -14.21,0.60157 -40.58,0.89844 -69.18,0.89844 l -25.65,0 c -11.66,0 -20.55,-0.29687 -36.15,-0.89844 -1.63,0.89844 -2.22,5.3086 -0.51,6.99999 l 8.3,0.8086 c 16.14,1.7617 16.7,5.6016 16.7,34.8125 l 0,100.0386" /><path
         id="path24"
         style="fill:#3a393c;fill-opacity:1;fill-rule:nonzero;stroke:none"
         d="m 1456.27,93.6797 c -2.22,-6.3594 -1.95,-6.6406 5.86,-6.6406 l 34.14,0 c 8.12,0 8.66,1.1211 6.16,8.6211 l -15.02,45.3008 c -2.24,6.687 -4.75,14.187 -6.4,17.57 l -0.56,0 c -0.83,-1.402 -3.6,-8.07 -6.68,-16.441 l -17.5,-48.4103 z m 55.08,-24.6992 c -1.96,6.1015 -3.08,6.9179 -11.45,6.9179 l -41.98,0 c -6.93,0 -8.6,-0.8164 -10.54,-6.6367 l -9.72,-29.1914 C 1433.48,27.5 1431.5,20.0313 1431.5,17 c 0,-3.3711 1.42,-5.0117 8.08,-5.6094 l 9.21,-0.832 c 1.91,-1.35938 1.91,-5.82813 -0.57,-7.00001 -7.25,0.63282 -15.84,0.63282 -28.95,0.88282 -9.19,0 -19.17,-0.58203 -26.71,-0.88282 -1.66,1.17188 -2.2,5.64063 -0.52,7.00001 l 9.19,0.832 c 6.63,0.5977 12.75,3.6211 16.64,13.668 5.04,12.7812 12.78,30.8633 24.51,61.9805 l 28.33,75.0629 c 3.89,10.046 5.57,15.289 4.73,19.757 6.7,1.95 11.41,6.981 14.48,10.571 1.69,0 3.59,-0.551 4.13,-2.489 3.65,-12.293 8.07,-25.011 12.25,-37.269 l 38.13,-111.7736 c 8.06,-23.8984 11.69,-28.1093 23.6,-29.5078 l 7.51,-0.832 c 1.97,-1.35938 1.41,-5.82813 0,-7.00001 -11.38,0.63282 -21.15,0.88282 -33.62,0.88282 -13.35,0 -23.96,-0.58203 -31.99,-0.88282 -2.22,1.17188 -2.47,5.64063 -0.54,7.00001 l 8.08,0.832 c 5.81,0.5977 9.7,2.2383 9.7,5.0078 0,3.0625 -1.38,8.0508 -3.6,14.7227 l -12.22,37.8594" /><path
         id="path26"
         style="fill:#3a393c;fill-opacity:1;fill-rule:nonzero;stroke:none"
         d="m 1725.85,106.199 c 0,-4.988 0,-8.0779 0.84,-9.1287 0.82,-0.832 5.01,-1.4414 19.18,-1.4414 9.97,0 20.58,1.1602 28.61,7.2811 7.52,5.82 13.92,15.539 13.92,34.461 0,21.981 -13.61,42.84 -44.47,42.84 -17.24,0 -18.08,-1.121 -18.08,-8.891 l 0,-65.121 z m -22.79,39.781 c 0,26.442 -0.85,31.141 -12.23,32.532 l -8.91,1.16 c -1.94,1.367 -1.94,5.797 0.24,6.918 15.6,1.39 34.78,2.25 62.04,2.25 17.21,0 33.63,-1.41 46.46,-8.34 13.34,-7.012 23.04,-19.512 23.04,-38.969 0,-26.41 -20.83,-40.851 -34.71,-46.4021 -1.41,-1.707 0,-4.4883 1.35,-6.668 22.25,-35.8711 36.99,-58.1601 55.9,-73.9804 4.69,-4.1992 11.69,-7.25003 19.2,-7.80862 1.38,-0.5625 1.66,-2.80079 0.23,-3.88282 -2.45,-0.82812 -6.93,-1.33984 -12.22,-1.33984 -23.63,0 -37.79,6.94141 -57.53,34.97268 -7.24,10.289 -18.65,29.4765 -27.27,41.957 -4.18,6.1914 -8.6,8.9297 -19.73,8.9297 -12.53,0 -13.07,-0.2266 -13.07,-6.0898 l 0,-35.0586 c 0,-29.1485 0.54,-32.4883 16.69,-34.7696 l 5.85,-0.8086 c 1.66,-1.36325 1.1,-6.14059 -0.59,-6.99997 -12.51,0.61719 -21.95,0.85938 -33.08,0.85938 -11.66,0 -21.67,-0.24219 -34.74,-0.85938 -1.69,0.85938 -2.25,5.0586 -0.56,6.99997 l 6.94,0.8086 c 16.11,2.0078 16.7,5.6211 16.7,34.7696 l 0,99.8198" /><path
         id="path28"
         style="fill:#3a393c;fill-opacity:1;fill-rule:nonzero;stroke:none"
         d="m 2005.17,0.0195313 c -23.33,0 -38.07,7.2187487 -43.38,10.2617687 -3.31,6.1289 -6.94,25.8593 -7.48,38.9375 1.34,1.9101 5.53,2.5507 6.63,0.832 4.2,-14.1524 15.6,-41.41017 47.85,-41.41017 23.36,0 34.77,15.28127 34.77,31.96877 0,12.2617 -2.5,25.8398 -22.8,38.9101 l -26.45,17.2696 c -13.88,9.1719 -29.99,25.0119 -29.99,47.8319 0,26.379 20.54,47.848 56.71,47.848 8.62,0 18.64,-1.387 25.85,-3.649 3.62,-0.832 7.5,-1.648 9.73,-1.648 2.51,-6.672 5.02,-22.301 5.02,-33.973 -1.12,-1.609 -5.58,-2.469 -6.96,-0.789 -3.63,13.289 -11.11,31.442 -37.81,31.442 -27.27,0 -33.12,-18.153 -33.12,-30.891 0,-16.121 13.38,-27.512 23.65,-34.211 l 22.26,-13.93 c 17.52,-10.8317 34.74,-26.9411 34.74,-53.3903 0,-30.5391 -23.04,-51.4101687 -59.22,-51.4101687" /><path
         id="path30"
         style="fill:#3a393c;fill-opacity:1;fill-rule:nonzero;stroke:none"
         d="m 2247.23,94.2695 c -13.35,0 -13.91,-0.5898 -13.91,-8.8984 l 0,-39.1992 c 0,-29.1836 1.37,-33.0313 16.97,-34.793 l 8.04,-0.8398 c 1.69,-1.05863 1.15,-6.05863 -0.53,-6.96879 -15.01,0.60157 -24.48,0.91016 -35.33,0.91016 -11.97,0 -21.41,-0.60156 -32.28,-0.91016 -1.65,0.91016 -2.19,5.3086 -0.53,6.96879 l 4.72,0.8398 c 15.59,2.8125 16.12,5.6094 16.12,34.793 l 0,100.0581 c 0,29.27 -1.93,33.961 -16.43,35.071 l -7.19,0.531 c -1.66,1.188 -1.1,6.148 0.56,6.977 13.62,-0.27 23.06,-0.829 35.03,-0.829 10.85,0 20.32,0.25 32.27,0.829 1.66,-0.829 2.25,-5.789 0.52,-6.977 l -5.27,-0.531 c -16.11,-1.66 -16.67,-5.801 -16.67,-35.071 l 0,-31.949 c 0,-8.609 0.56,-8.871 13.91,-8.871 l 79.53,0 c 13.35,0 13.87,0.262 13.87,8.871 l 0,31.949 c 0,29.27 -0.52,33.411 -16.96,35.071 l -5.26,0.531 c -1.68,1.188 -1.1,6.148 0.56,6.977 12.8,-0.579 22.24,-0.829 33.69,-0.829 10.82,0 20.25,0.25 32.77,0.829 1.67,-0.829 2.2,-5.789 0.53,-6.977 l -5.79,-0.531 c -16.14,-1.66 -16.69,-5.801 -16.69,-35.071 l 0,-100.0581 c 0,-29.1836 0.55,-32.8008 16.69,-34.793 l 6.64,-0.8398 c 1.64,-1.05863 1.1,-6.05863 -0.55,-6.96879 -13.35,0.60157 -22.78,0.91016 -33.6,0.91016 -11.45,0 -21.45,-0.30859 -33.69,-0.91016 -1.66,0.91016 -2.24,5.3086 -0.56,6.96879 l 5.26,0.8398 c 16.96,2.2305 16.44,5.6094 16.96,34.793 l 0,39.1992 c 0,8.3086 -0.52,8.8984 -13.87,8.8984 l -79.53,0" /><path
         id="path32"
         style="fill:#3a393c;fill-opacity:1;fill-rule:nonzero;stroke:none"
         d="m 2530.77,145.711 c 0,29.5 -0.57,34.23 -16.97,35.578 l -6.94,0.57 c -1.67,1.172 -1.12,6.161 0.52,6.981 13.94,-0.578 23.39,-0.82 35.03,-0.82 11.14,0 20.59,0.242 34.52,0.82 1.66,-0.82 2.24,-5.809 0.55,-6.981 l -6.96,-0.57 c -16.37,-1.348 -16.97,-6.078 -16.97,-35.578 l 0,-99.0313 c 0,-29.4297 0.6,-33.2813 16.97,-35.2891 l 6.96,-0.832 c 1.69,-1.07032 1.11,-6.11719 -0.55,-7.00782 -13.93,0.64844 -23.38,0.89063 -34.52,0.89063 -11.64,0 -21.09,-0.24219 -35.03,-0.89063 -1.64,0.89063 -2.19,5.35938 -0.52,7.00782 l 6.94,0.832 c 16.4,2.0078 16.97,5.8594 16.97,35.2891 l 0,99.0313" /><path
         id="path34"
         style="fill:#3a393c;fill-opacity:1;fill-rule:nonzero;stroke:none"
         d="m 2743.57,46.1719 c 0,-29.1602 0.58,-32.7813 18.4,-34.793 l 7.47,-0.7891 c 1.67,-1.35933 1.15,-6.14058 -0.52,-6.99996 -15.83,0.60157 -25.06,0.85938 -36.2,0.85938 -11.68,0 -21.7,-0.25781 -33.86,-0.85938 -1.73,0.85938 -2.28,5.28907 -0.58,6.99996 l 5.81,0.7891 c 16.15,2.2813 16.73,5.6328 16.73,34.793 l 0,102.5901 c 0,23.66 -0.58,28.629 -13.1,29.75 l -10.01,1.16 c -1.96,1.617 -1.66,5.789 0.57,6.91 14.72,1.949 31.98,2.27 55.07,2.27 23.07,0 40.3,-3.141 53.34,-11.192 12.81,-8.058 22.25,-22.48 22.25,-41.621 0,-25.66 -15.85,-38.4296 -27.76,-44.2773 -12.24,-5.8125 -26.96,-8.3203 -38.44,-8.3203 -1.9,0.8281 -1.9,5.0274 -0.21,5.5586 30.03,5.5313 40.85,22.5 40.85,46.711 0,26.93 -15.85,44.508 -44.78,44.508 -14.74,0 -15.03,-1.129 -15.03,-10.02 l 0,-124.0271" /><path
         id="path36"
         style="fill:#3a393c;fill-opacity:1;fill-rule:nonzero;stroke:none"
         d="m 3157.86,46.1719 c 0,-29.1602 0.58,-32.7813 18.37,-34.793 l 7.49,-0.7891 c 1.68,-1.35933 1.1,-6.14058 -0.58,-6.99996 -15.84,0.60157 -25.03,0.85938 -36.13,0.85938 -11.69,0 -21.74,-0.25781 -33.89,-0.85938 -1.73,0.85938 -2.26,5.28907 -0.58,6.99996 l 5.81,0.7891 c 16.15,2.2813 16.7,5.6328 16.7,34.793 l 0,102.5901 c 0,23.66 -0.55,28.629 -13.07,29.75 l -10.02,1.16 c -1.93,1.617 -1.67,5.789 0.58,6.91 14.71,1.949 31.95,2.27 55.01,2.27 23.12,0 40.39,-3.141 53.42,-11.192 12.82,-8.058 22.24,-22.48 22.24,-41.621 0,-25.66 -15.87,-38.4296 -27.79,-44.2773 -12.21,-5.8125 -26.98,-8.3203 -38.37,-8.3203 -1.95,0.8281 -1.95,5.0274 -0.3,5.5586 30.05,5.5313 40.87,22.5 40.87,46.711 0,26.93 -15.8,44.508 -44.77,44.508 -14.74,0 -14.99,-1.129 -14.99,-10.02 l 0,-124.0271" /><path
         id="path38"
         style="fill:#3a393c;fill-opacity:1;fill-rule:nonzero;stroke:none"
         d="m 3421.92,106.199 c 0,-4.988 0,-8.0779 0.83,-9.1287 0.82,-0.832 4.99,-1.4414 19.15,-1.4414 10.06,0 20.6,1.1602 28.67,7.2811 7.53,5.82 13.88,15.539 13.88,34.461 0,21.981 -13.6,42.84 -44.46,42.84 -17.24,0 -18.07,-1.121 -18.07,-8.891 l 0,-65.121 z m -22.81,39.781 c 0,26.442 -0.85,31.141 -12.22,32.532 l -8.91,1.16 c -1.91,1.367 -1.91,5.797 0.29,6.918 15.54,1.39 34.73,2.25 61.98,2.25 17.26,0 33.67,-1.41 46.47,-8.34 13.34,-7.012 23.05,-19.512 23.05,-38.969 0,-26.41 -20.85,-40.851 -34.72,-46.4021 -1.41,-1.707 0,-4.4883 1.35,-6.668 22.25,-35.8711 37,-58.1601 55.89,-73.9804 4.71,-4.1992 11.68,-7.25003 19.18,-7.80862 1.4,-0.5625 1.68,-2.80079 0.25,-3.88282 -2.44,-0.82812 -6.92,-1.33984 -12.22,-1.33984 -23.58,0 -37.79,6.94141 -57.51,34.97268 -7.24,10.289 -18.67,29.4765 -27.29,41.957 -4.14,6.1914 -8.59,8.9297 -19.71,8.9297 -12.55,0 -13.07,-0.2266 -13.07,-6.0898 l 0,-35.0586 c 0,-29.1485 0.52,-32.4883 16.69,-34.7696 l 5.82,-0.8086 c 1.68,-1.36325 1.11,-6.14059 -0.54,-6.99997 -12.52,0.61719 -21.97,0.85938 -33.11,0.85938 -11.67,0 -21.69,-0.24219 -34.71,-0.85938 -1.72,0.85938 -2.29,5.0586 -0.59,6.99997 l 6.94,0.8086 c 16.12,2.0078 16.69,5.6211 16.69,34.7696 l 0,99.8198" /><path
         id="path40"
         style="fill:#3a393c;fill-opacity:1;fill-rule:nonzero;stroke:none"
         d="m 3824.71,88.4688 c 0,45.8202 -20.3,95.3402 -73.41,95.3402 -28.91,0 -66.44,-19.707 -66.44,-80.618 0,-41.1793 20.01,-94.58162 74.81,-94.58162 33.36,0 65.04,25.03122 65.04,79.85942 m -167.69,5.7929 c 0,55.5903 41.73,98.1683 99.01,98.1683 64.22,0 96.49,-46.45 96.49,-95.3597 C 3852.52,40.8984 3809.72,0 3756.03,0 c -61.72,0 -99.01,44.2188 -99.01,94.2617" /><path
         id="path42"
         style="fill:#3a393c;fill-opacity:1;fill-rule:nonzero;stroke:none"
         d="m 4141.61,32.8203 c 0,-11.082 1.65,-17.8086 6.7,-19.6797 0.83,-0.9101 0.83,-2.582 -0.32,-3.37107 -3.31,0 -8.36,-1.14844 -13.63,-2.55859 C 4119.65,3.30859 4099.61,0 4084.59,0 c -33.08,0 -63.41,9.19922 -84.82,30.8516 -16.66,16.7187 -25.58,38.6797 -25.58,63.1601 0,23.6093 7.81,47.5003 25.06,65.9293 18.66,19.45 46.15,32.489 88.17,32.489 15.81,0 30.53,-3.078 35.3,-4.16 5.29,-1.098 13.9,-3.059 17.24,-2.54 0,-9.171 1.65,-23.628 4.12,-40.289 -0.82,-2.23 -5.84,-2.531 -7.46,-0.82 -7.8,30.027 -28.69,39.469 -57.02,39.469 -53.97,0 -77.52,-38.399 -77.52,-80.039 0,-53.469 27.45,-95.42991 83.36,-95.42991 17.19,0 27.51,3.60941 30.6,8.36721 1.41,1.9101 2.79,6.9414 2.79,15.832 l 0,11.1211 c 0,23.3672 -0.88,25.0274 -18.12,26.9375 l -12.24,1.4531 c -2.2,1.0782 -1.93,6.0782 0,6.918 8.06,-0.5781 23.39,-0.8398 39.74,-0.8398 10.92,0 20.38,0.2617 29.5,0.8398 1.97,-1.1094 2.24,-5.2695 0.29,-6.918 l -4.43,-0.582 c -11.7,-1.418 -11.96,-9.1914 -11.96,-23.3594 l 0,-15.5703" /><path
         id="path44"
         style="fill:#3a393c;fill-opacity:1;fill-rule:nonzero;stroke:none"
         d="m 4323.72,106.199 c 0,-4.988 0,-8.0779 0.8,-9.1287 0.83,-0.832 5.03,-1.4414 19.2,-1.4414 9.95,0 20.56,1.1602 28.59,7.2811 7.58,5.82 13.85,15.539 13.85,34.461 0,21.981 -13.51,42.84 -44.39,42.84 -17.25,0 -18.05,-1.121 -18.05,-8.891 l 0,-65.121 z m -22.85,39.781 c 0,26.442 -0.79,31.141 -12.22,32.532 l -8.93,1.16 c -1.95,1.367 -1.95,5.797 0.28,6.918 15.57,1.39 34.79,2.25 62.01,2.25 17.3,0 33.7,-1.41 46.45,-8.34 13.35,-7.012 23.12,-19.512 23.12,-38.969 0,-26.41 -20.97,-40.851 -34.81,-46.4021 -1.32,-1.707 0,-4.4883 1.37,-6.668 22.29,-35.8711 37.07,-58.1601 55.89,-73.9804 4.79,-4.1992 11.69,-7.25003 19.18,-7.80862 1.44,-0.5625 1.74,-2.80079 0.26,-3.88282 -2.42,-0.82812 -6.86,-1.33984 -12.16,-1.33984 -23.69,0 -37.8,6.94141 -57.57,34.97268 -7.25,10.289 -18.66,29.4765 -27.24,41.957 -4.17,6.1914 -8.61,8.9297 -19.75,8.9297 -12.47,0 -13.03,-0.2266 -13.03,-6.0898 l 0,-35.0586 c 0,-29.1485 0.56,-32.4883 16.64,-34.7696 l 5.83,-0.8086 c 1.7,-1.36325 1.04,-6.14059 -0.56,-6.99997 -12.51,0.61719 -21.91,0.85938 -33.07,0.85938 -11.69,0 -21.71,-0.24219 -34.79,-0.85938 -1.71,0.85938 -2.19,5.0586 -0.54,6.99997 l 6.97,0.8086 c 16.14,2.0078 16.67,5.6211 16.67,34.7696 l 0,99.8198" /><path
         id="path46"
         style="fill:#3a393c;fill-opacity:1;fill-rule:nonzero;stroke:none"
         d="m 4598.78,93.6797 c -2.18,-6.3594 -1.9,-6.6406 5.84,-6.6406 l 34.27,0 c 8.05,0 8.61,1.1211 6.09,8.6211 l -15.08,45.3008 c -2.17,6.687 -4.67,14.187 -6.29,17.57 l -0.57,0 c -0.93,-1.402 -3.63,-8.07 -6.69,-16.441 l -17.57,-48.4103 z m 55.07,-24.6992 c -1.91,6.1015 -3.06,6.9179 -11.4,6.9179 l -41.95,0 c -6.97,0 -8.62,-0.8164 -10.59,-6.6367 l -9.67,-29.1914 C 4576.04,27.5 4574.03,20.0313 4574.03,17 c 0,-3.3711 1.43,-5.0117 8.08,-5.6094 l 9.23,-0.832 c 1.91,-1.35938 1.91,-5.82813 -0.62,-7.00001 -7.18,0.63282 -15.87,0.63282 -28.92,0.88282 -9.14,0 -19.17,-0.58203 -26.68,-0.88282 -1.65,1.17188 -2.2,5.64063 -0.55,7.00001 l 9.21,0.832 c 6.62,0.5977 12.8,3.6211 16.7,13.668 4.97,12.7812 12.74,30.8633 24.43,61.9805 l 28.33,75.0629 c 3.92,10.046 5.66,15.289 4.73,19.757 6.7,1.95 11.42,6.981 14.49,10.571 1.64,0 3.62,-0.551 4.16,-2.489 3.63,-12.293 8.08,-25.011 12.22,-37.269 L 4686.98,40.8984 C 4695.06,17 4698.67,12.7891 4710.59,11.3906 l 7.54,-0.832 c 1.93,-1.35938 1.41,-5.82813 0,-7.00001 -11.45,0.63282 -21.16,0.88282 -33.68,0.88282 -13.29,0 -23.93,-0.58203 -31.98,-0.88282 -2.23,1.17188 -2.52,5.64063 -0.53,7.00001 l 8.01,0.832 c 5.83,0.5977 9.76,2.2383 9.76,5.0078 0,3.0625 -1.4,8.0508 -3.65,14.7227 l -12.21,37.8594" /><path
         id="path48"
         style="fill:#3a393c;fill-opacity:1;fill-rule:nonzero;stroke:none"
         d="m 4918.21,78.6992 c 6.34,-13.0781 12.54,-25.8281 19.08,-38.0586 l 0.69,0 c 7.38,13.0078 14.35,27.4883 21.36,41.6797 l 26.16,53.1287 c 12.79,25.313 20.58,40.59 21.08,53.403 9.45,-0.832 15.32,-0.832 20.84,-0.832 6.96,0 16.12,0.25 24.79,0.832 1.68,-1.114 1.68,-5.832 0.27,-6.993 l -5.88,-0.57 c -17.46,-1.867 -19.68,-6.93 -19.43,-26.391 0.54,-29.449 0.81,-80.9566 3.07,-120.9761 0.82,-13.8633 0.55,-21.1328 13.59,-22.543 l 8.94,-0.8203 c 1.6,-1.66797 1.41,-5.82032 -0.56,-7.00001 -11.37,0.63282 -22.83,0.88282 -32.83,0.88282 -9.69,0 -22.19,-0.25 -33.62,-0.88282 -1.96,1.49219 -2.29,5.33204 -0.57,7.00001 l 8.1,0.8203 c 13.62,1.4102 13.62,5.8828 13.62,23.6524 l -0.83,115.9487 -0.55,0 c -1.99,-3.011 -12.53,-25.308 -18.17,-36.16 L 4962.69,66.1992 C 4950.17,41.7188 4937.67,15.582 4932.6,2.80078 c -0.55,-0.83203 -1.65,-1.10156 -2.73,-1.10156 -0.59,0 -2,0.26953 -2.58,1.10156 -4.66,14.71092 -18,41.98832 -24.38,55.57812 l -25.09,53.7111 c -5.82,12.789 -11.7,27.219 -17.79,40.019 l -0.54,0 c -1.12,-17.218 -1.98,-33.328 -2.74,-49.527 -0.88,-16.9101 -1.96,-41.6406 -1.96,-65.3125 0,-20.5781 1.63,-25.0078 12.5,-25.8906 l 10.53,-0.8203 c 1.97,-1.66797 1.71,-6.11719 -0.3,-7.00001 -9.39,0.63282 -20.26,0.88282 -30.76,0.88282 -8.97,0 -18.92,-0.25 -28.45,-0.88282 -1.59,1.49219 -2.15,5.67188 -0.55,7.00001 l 6.2,0.8203 c 11.64,1.4102 15.55,3.3906 17.16,22.8125 1.74,18.4102 3.08,33.6602 4.7,61.1992 1.48,23.0584 2.59,46.6994 3.1,61.9804 0.57,17.52 -1.62,21.141 -18.68,23.918 l -4.42,0.57 c -1.31,1.68 -1.12,5.879 1.17,6.993 8.34,-0.582 14.94,-0.832 21.93,-0.832 6.45,0 13.97,0 23.08,0.832 -1.09,-10.852 5.82,-28.09 14.5,-45.942 l 31.71,-64.2108" /><path
         id="path50"
         style="fill:#7c161c;fill-opacity:1;fill-rule:nonzero;stroke:none"
         d="m 444.273,604.656 c 0,60.289 -19.308,115.907 -57.933,166.492 -42.121,55.266 -92.32,82.711 -151.473,82.711 -49.844,0 -90.398,-20.847 -122.078,-62.226 -28.9648,-38.242 -43.2617,-82.656 -43.2617,-133.254 0,-60.672 19.3047,-116.281 57.9297,-166.938 42.117,-54.851 92.332,-82.293 151.453,-82.293 49.813,0 90.422,20.887 122.098,62.227 28.953,37.859 43.265,82.273 43.265,133.281 m 70.684,23.574 c 0,-69.589 -25.519,-129.05 -76.117,-178.925 -50.598,-49.825 -111.266,-74.532 -181.574,-74.532 -69.907,0 -130.578,24.707 -181.1996,74.532 C 25.5039,499.18 0,558.641 0,628.633 c 0,69.496 25.5039,128.965 76.0664,178.844 51.0236,49.851 111.6636,74.562 181.5976,74.562 69.91,0 130.578,-24.711 181.176,-74.562 50.598,-49.879 76.117,-109.348 76.117,-179.247" /><path
         id="path52"
         style="fill:#7c161c;fill-opacity:1;fill-rule:nonzero;stroke:none"
         d="m 1278.44,618.957 c 0,65.664 -18.53,122.082 -56.03,169.602 -39.41,49.793 -89.22,74.941 -149.49,74.941 -23.96,0 -52.54,-4.254 -85.381,-12.344 -2.726,-58.347 -3.461,-113.25 -2.726,-165.343 l 3.515,-205.571 c 0.36,-40.547 4.996,-64.512 13.922,-71.074 8.84,-6.594 41.32,-10.078 96.95,-10.078 46.36,0 88.07,24.383 125.55,72.668 35.92,46.375 53.69,95.449 53.69,147.199 m 70.7,25.504 c 0,-71.106 -24.35,-133.281 -73.44,-186.211 -50.19,-54.492 -110.83,-81.531 -182.3,-81.531 -15.07,0 -36.71,0.789 -64.53,2.332 -27.79,1.512 -53.698,2.273 -77.249,2.273 -26.656,0 -65.308,-0.761 -115.156,-1.914 l 0,12.356 39.418,5.789 c 18.176,2.746 29.351,7.746 32.867,15.492 3.848,7.73 6.148,30.105 6.953,67.195 0,5.789 0.383,23.164 1.531,52.188 0.731,21.992 1.149,40.136 1.149,54.445 l 0,98.938 c 0,28.546 -0.418,59.042 -0.75,91.128 -0.781,37.887 -3.067,60.266 -6.61,67.622 -3.394,7.32 -14.64,12.355 -33.195,15.066 l -37.476,5.801 0,12.355 c 47.507,-1.137 84.613,-1.93 111.269,-1.93 19.703,0 45.234,1.188 76.089,3.079 31.28,1.945 54.46,3.105 69.91,3.105 70.73,0 129.8,-22.41 178.08,-66.824 49.09,-45.594 73.44,-102.367 73.44,-170.754" /><path
         id="path54"
         style="fill:#7c161c;fill-opacity:1;fill-rule:nonzero;stroke:none"
         d="m 2163.91,865.43 -34.02,-5.801 c -32.07,-5.406 -64.91,-32.828 -98.51,-82.688 -18.94,-26.996 -44.43,-66.429 -76.08,-118.23 l -15.85,-30.117 c -1.58,1.183 -2.34,-18.504 -2.34,-58.301 l 0,-37.102 c 0,-8.535 0.76,-26.269 2.71,-52.949 2.71,-36.699 5.02,-57.949 7.73,-64.543 3.89,-9.226 14.26,-15.418 31.68,-18.144 l 35.95,-5.789 0,-12.356 c -47.54,1.176 -84.62,1.914 -111.3,1.914 -26.65,0 -63.72,-0.738 -111.27,-1.914 l 0,12.356 35.96,5.789 c 18.15,2.726 28.95,8.125 32.44,15.492 3.87,7.32 6.18,29.668 6.98,67.195 0.35,10.039 0.75,18.508 1.53,25.149 0.73,5.789 1.16,15.007 1.16,27.8 l 0,37.102 c 0,30.52 -0.79,49.828 -2.34,57.508 -39.77,63.387 -72.24,113.238 -96.58,149.14 -31.65,46.372 -64.1,73.793 -97.75,82.688 l -22.38,5.801 0,12.406 c 42.87,-1.219 76.48,-1.984 100.81,-1.984 29.35,0 69.96,0.765 121.69,1.984 l 0,-12.406 -32.8,-5.801 c -15.13,-2.688 -22.42,-7.297 -22.42,-14.684 0,-8.89 11.2,-31.32 33.18,-68.004 20.5,-33.593 44.48,-70.687 71.89,-112.019 27.83,41.715 51.79,79.215 71.87,112.019 20.05,33.247 30.11,54.856 30.11,64.872 0,8.125 -7.72,14.335 -22.8,17.816 l -24.71,5.801 0,12.406 c 40.94,-1.219 73.04,-1.984 96.16,-1.984 21.65,0 51.4,0.765 89.3,1.984 l 0,-12.406" /><path
         id="path56"
         style="fill:#7c161c;fill-opacity:1;fill-rule:nonzero;stroke:none"
         d="m 2759.53,521.617 c 0,-51.773 -17,-90.019 -50.65,-115.144 -28.17,-21.27 -65.62,-31.7 -112.36,-31.7 -42.94,0 -86.53,10.43 -131.75,31.321 l 13.89,98.094 13.89,-2.676 c -0.37,-3.489 -0.77,-7.383 -0.77,-10.832 0,-27.047 13.52,-49.453 40.96,-67.617 23.56,-15.465 49.06,-23.172 76.1,-23.172 26.68,0 47.52,10.047 61.8,29.738 12.39,17.398 18.56,39.441 18.56,66.48 0,32.825 -17.35,64.875 -51.75,95.809 -32.06,24.355 -64.52,49.051 -96.58,73.793 -34.81,28.199 -52.21,55.594 -52.21,82.273 0,39.801 14.71,72.645 44.47,98.532 28.99,25.488 64.52,38.242 107.02,38.242 30.49,0 63.35,-6.922 99.27,-20.863 l -26.27,-95.809 -11.57,3.473 1.92,16.226 c 0.38,2.305 0.38,4.613 0.38,6.953 0,18.887 -8.51,34.399 -25.08,47.075 -16.64,12.804 -35.54,18.976 -57.58,18.976 -41.37,0 -61.82,-26.633 -61.82,-80.004 0,-28.16 17.41,-56.769 51.75,-85.746 32.11,-24.719 64.5,-49.43 96.6,-74.539 34.37,-31.305 51.78,-64.535 51.78,-98.883" /><path
         id="path58"
         style="fill:#7c161c;fill-opacity:1;fill-rule:nonzero;stroke:none"
         d="m 3431.91,521.617 c 0,-51.773 -17.02,-90.019 -50.62,-115.144 -28.21,-21.27 -65.66,-31.7 -112.4,-31.7 -42.88,0 -86.54,10.43 -131.76,31.321 l 13.91,98.094 13.9,-2.676 c -0.36,-3.489 -0.74,-7.383 -0.74,-10.832 0,-27.047 13.51,-49.453 40.97,-67.617 23.54,-15.465 49.02,-23.172 76.08,-23.172 26.66,0 47.52,10.047 61.8,29.738 12.38,17.398 18.56,39.441 18.56,66.48 0,32.825 -17.37,64.875 -51.78,95.809 -32.09,24.355 -64.54,49.051 -96.61,73.793 -34.75,28.199 -52.15,55.594 -52.15,82.273 0,39.801 14.71,72.645 44.41,98.532 28.99,25.488 64.56,38.242 107.05,38.242 30.52,0 63.36,-6.922 99.29,-20.863 l -26.24,-95.809 -11.59,3.473 1.9,16.226 c 0.35,2.305 0.35,4.613 0.35,6.953 0,18.887 -8.46,34.399 -25.06,47.075 -16.6,12.804 -35.55,18.976 -57.57,18.976 -41.33,0 -61.82,-26.633 -61.82,-80.004 0,-28.16 17.4,-56.769 51.77,-85.746 32.07,-24.719 64.53,-49.43 96.58,-74.539 34.37,-31.305 51.77,-64.535 51.77,-98.883" /><path
         id="path60"
         style="fill:#7c161c;fill-opacity:1;fill-rule:nonzero;stroke:none"
         d="m 3890.64,641.711 197.46,1.984 c 29.35,0.356 46.7,1.098 51.75,3.078 4.99,1.946 9.34,8.497 12.39,19.68 l 5.8,20.891 12.34,0 c -1.15,-23.586 -1.92,-42.883 -1.92,-57.985 0,-15.062 0.77,-34.359 1.92,-57.945 l -12.34,0 -5.8,20.891 c -3.05,11.164 -7,17.758 -12.05,19.32 -5,1.902 -22.36,3.051 -52.09,3.461 l -198.22,3.894 c 0,-62.996 21.24,-116.316 63.8,-159.578 40.54,-41.367 88.83,-62.179 144.06,-62.179 39.4,0 74.18,8.457 104.26,25.863 34.46,19.695 54.14,47.105 59.96,81.922 l 12.74,-0.774 -13.95,-98.171 c -47.49,-23.165 -106.68,-34.758 -178.1,-34.758 -74.94,0 -138.68,23.144 -191.6,69.906 -50.96,45.242 -76.45,98.141 -76.45,159.578 0,94.652 28.55,165.777 85.32,213.656 52.19,44.442 125.6,66.407 220.23,66.407 42.1,0 90.81,-10.809 146.1,-32.036 -6.24,-21.226 -15.54,-52.925 -27.49,-95.039 l -12.05,3.075 1.98,13.894 c 3.46,22.422 -11.2,42.547 -43.21,60.692 -30.53,17.378 -63.77,25.89 -100.52,25.89 -56.78,0 -103.52,-22.43 -139.41,-67.594 -32.05,-40.238 -50.63,-89.652 -54.91,-148.023" /><path
         id="path62"
         style="fill:#7c161c;fill-opacity:1;fill-rule:nonzero;stroke:none"
         d="m 5060,865.43 -34.01,-5.801 c -32.03,-5.406 -64.88,-32.828 -98.52,-82.688 -18.95,-26.996 -44.43,-66.429 -76.08,-118.23 l -15.84,-30.117 c -1.57,1.183 -2.36,-18.504 -2.36,-58.301 l 0,-37.102 c 0,-8.535 0.79,-26.269 2.74,-52.949 2.69,-36.699 5.01,-57.949 7.69,-64.543 3.9,-9.226 14.33,-15.418 31.67,-18.144 l 35.94,-5.789 0,-12.356 c -47.51,1.176 -84.58,1.914 -111.28,1.914 -26.61,0 -63.73,-0.738 -111.25,-1.914 l 0,12.356 35.95,5.789 c 18.16,2.726 28.97,8.125 32.39,15.492 3.9,7.32 6.19,29.668 7.02,67.195 0.39,10.039 0.77,18.508 1.54,25.149 0.77,5.789 1.15,15.007 1.15,27.8 l 0,37.102 c 0,30.52 -0.76,49.828 -2.3,57.508 -39.8,63.387 -72.28,113.238 -96.55,149.14 -31.77,46.372 -64.16,73.793 -97.78,82.688 l -22.39,5.801 0,12.406 c 42.84,-1.219 76.5,-1.984 100.81,-1.984 29.38,0 69.9,0.765 121.73,1.984 l 0,-12.406 -32.9,-5.801 c -15.04,-2.688 -22.33,-7.297 -22.33,-14.684 0,-8.89 11.11,-31.32 33.15,-68.004 20.49,-33.593 44.42,-70.687 71.88,-112.019 27.78,41.715 51.78,79.215 71.86,112.019 20.05,33.247 30.09,54.856 30.09,64.872 0,8.125 -7.67,14.335 -22.75,17.816 l -24.74,5.801 0,12.406 c 40.9,-1.219 73.03,-1.984 96.19,-1.984 21.7,0 51.39,0.765 89.28,1.984 l 0,-12.406" /><path
         id="path64"
         style="fill:#3a393c;fill-opacity:1;fill-rule:nonzero;stroke:none"
         d="m 45.3008,1190.75 c -7.8203,0 -5.6289,0 -15.6524,0.49 -7.0898,0.25 -9.7812,1.22 -13.4453,4.41 -1.4687,1.46 -2.9297,2.2 -3.6679,2.2 -0.9844,0 -5.37895,-2.2 -5.13676,-4.4 0.73828,-11.49 -1.22266,-22.25 -1.70313,-29.83 -0.25781,-5.88 0.72657,-9.3 4.63279,-9.3 1.961,0 4.1641,2.68 5.6289,6.85 5.6289,15.15 12.2266,18.1 15.8985,18.1 3.1797,0 28.8593,-0.25 34.9726,-0.25 0.7266,0 2.4453,-2.7 2.4453,-5.63 l 0,-32.02 c 0,-38.65 -0.7382,-64.08 -0.7382,-69.21 0,-16.64 -4.1563,-17.37 -21.5235,-22.02 -4.3945,-1.21 -6.8398,-2.93 -6.8398,-4.88 0,-2.69 2.4453,-4.65 7.5781,-4.65 6.5938,0 12.7109,0.74 27.1445,0.74 14.6641,0 32.5235,-1.23 34.9685,-1.23 4.895,0 7.34,2.2 7.34,4.15 0,2.94 -2.691,3.92 -7.098,5.64 -12.2222,4.88 -16.3784,5.37 -17.6011,22.98 -0.9805,13.93 -0.9805,36.43 -0.9805,51.36 0,15.39 0.4844,44.98 1.2188,51.59 0.2461,1.47 2.2109,3.18 3.1758,3.18 20.785,0 32.047,-0.49 35.715,-0.97 6.594,-0.74 11.488,-3.19 14.91,-18.6 0.488,-2.19 1.953,-5.62 4.648,-5.62 2.692,0 5.137,3.43 5.137,6.84 0,16.39 2.93,30.57 2.93,32.29 0,1.7 -3.91,4.65 -4.649,4.65 -1.464,0 -3.171,-1.72 -5.859,-3.93 -2.207,-2.19 -6.609,-2.93 -20.305,-2.93 l -83.1442,0 z m 242.3402,-61.62 c 0.246,15.65 0,31.8 0,39.37 0,9.05 3.914,11.74 11.972,14.18 2.942,0.74 6.114,2.7 6.114,4.65 0,2.69 -2.684,4.16 -6.594,4.16 -8.563,0 -11.988,-0.74 -19.567,-0.74 -6.597,0 -15.41,0.98 -29.586,0.98 -4.648,0 -7.832,-1.46 -7.832,-3.66 0,-2.69 2.7,-4.17 5.387,-4.89 13.449,-3.67 15.399,-5.63 16.379,-9.79 0.981,-3.42 1.469,-12.22 1.469,-30.56 0,-35.22 0,-65.3 -0.731,-76.05 -0.496,-10.52 -2.445,-13.94 -14.918,-17.12 -4.644,-1.23 -7.332,-3.18 -7.332,-5.87 0,-2.69 2.446,-3.67 7.825,-3.67 7.332,0 21.519,1.23 29.339,1.23 10.524,0 17.364,-0.74 24.457,-0.74 6.114,0 8.317,0.98 8.317,3.66 0,1.96 -2.692,4.41 -5.629,5.14 -14.176,4.16 -17.121,6.61 -18.344,14.43 -0.48,3.67 -0.726,12.22 -0.726,45 0,0.73 1.222,3.18 2.929,3.18 4.649,0.73 42.793,0.73 79.481,0.73 0.238,0 2.199,-0.49 2.683,-9.05 0.739,-9.29 0,-29.59 -0.98,-37.17 -0.969,-10.51 -2.688,-13.2 -15.399,-16.14 -5.628,-1.46 -7.832,-3.67 -7.832,-6.12 0,-1.95 2.7,-3.66 8.563,-3.66 7.332,0 16.629,0.74 29.34,0.74 9.058,0 20.785,-0.74 25.433,-0.74 4.649,0 7.094,1.22 7.094,3.91 0,2.2 -2.445,4.64 -7.82,5.87 -11,2.94 -13.945,3.91 -15.164,15.65 -0.985,9.54 -0.985,30.32 -0.985,51.35 0,22.75 0.5,44.51 0.985,53.56 0.242,5.87 2.445,9.29 12.469,11.49 6.367,1.46 8.316,2.94 8.316,5.13 0,2.21 -1.949,4.16 -6.844,4.16 -4.89,0 -15.164,-0.98 -24.707,-0.98 -9.285,0 -19.308,0.74 -29.344,0.74 -5.132,0 -7.336,-1.95 -7.336,-4.4 0,-1.71 1.715,-3.43 9.782,-5.63 5.386,-1.47 13.449,-4.4 13.449,-8.56 0.98,-5.13 0.98,-37.17 0.98,-43.77 0,-1.22 -2.445,-3.42 -3.171,-3.42 -14.676,0.73 -54.051,0.24 -78.008,0.24 -1.965,0 -3.914,1.96 -3.914,3.18 m 251.867,61.62 c -16.141,0 -28.606,1.23 -32.77,1.23 -3.175,0 -6.601,-0.98 -6.601,-3.91 0,-1.72 2.445,-4.17 6.601,-5.13 9.782,-2.45 14.672,-4.41 15.41,-11.99 0.727,-4.4 1.219,-43.53 1.219,-81.19 0,-12.23 -0.238,-18.35 -0.972,-24.94 -0.747,-9.3 -3.43,-11.49 -19.082,-15.16 -5.133,-1.23 -8.063,-3.66 -8.063,-6.61 0,-1.95 2.93,-2.93 9.043,-2.93 10.516,0 26.414,1.23 41.816,1.23 44.512,0 51.352,-1.23 61.387,-1.23 0.973,0 6.598,1.47 8.063,4.89 0.98,2.2 6.113,13.94 7.578,21.03 0.98,4.65 0.98,11 -2.688,11 -2.929,0 -4.648,-2.93 -8.558,-9.53 -5.375,-7.83 -9.289,-12.47 -15.895,-14.44 -5.621,-1.7 -8.558,-1.94 -18.586,-1.94 -18.824,0 -25.918,2.92 -28.117,4.89 -0.98,0.73 -2.445,5.61 -2.938,12.71 -0.246,5.38 -0.734,13.45 -0.734,36.2 0,1.95 1.707,6.11 3.184,6.11 11.004,0 17.843,0 27.871,-0.74 5.14,-0.48 7.094,-2.93 9.539,-10.02 1.715,-4.9 4.16,-6.12 5.871,-6.12 1.465,0 4.402,1.71 3.91,8.07 -0.488,3.91 -0.488,11.01 -0.488,16.39 0,4.4 0.488,9.04 0.726,11.74 0.5,6.35 -0.726,9.78 -3.906,9.78 -2.445,0 -3.91,-1.96 -5.875,-7.09 -2.683,-7.1 -5.613,-9.78 -21.75,-10.52 -3.922,-0.25 -13.707,0 -15.898,0 -2.203,0 -3.184,4.89 -3.184,6.85 0,16.87 0.242,39.12 0.981,45.96 0.246,1.23 1.949,4.41 2.691,4.41 3.422,0 22.488,0.49 36.434,0.49 1.226,0 5.378,-1.22 8.804,-8.06 5.375,-10.53 7.578,-13.7 10.52,-13.7 1.945,0 4.152,3.42 4.152,5.86 0,5.39 -2.445,22.75 -3.91,25.2 -1.227,1.95 -3.184,2.19 -5.629,2.19 -5.871,0 -13.211,-0.98 -34.961,-0.98 l -25.195,0 z m 267.762,-2.93 c 0,-2.19 1.96,-4.16 6.851,-5.38 9.297,-2.45 13.692,-3.67 14.192,-13.94 0.48,-10.27 1.46,-29.34 1.46,-52.57 0,-15.41 -0.496,-40.59 13.211,-58.69 9.782,-12.72 29.582,-20.3 47.922,-20.3 14.438,0 30.813,4.16 40.836,13.94 11.988,11.49 18.586,27.14 20.543,63.33 0.981,18.84 2.207,48.18 2.692,51.11 1.464,11.99 2.683,13.7 15.164,16.88 4.894,1.22 7.086,4.15 7.086,5.62 0,3.18 -3.668,4.16 -6.598,4.16 -5.375,0 -19.566,-1.23 -28.367,-1.23 -9.293,0 -13.449,0.74 -18.34,0.74 -5.133,0 -7.578,-2.44 -7.578,-4.4 0,-1.71 1.953,-4.15 6.84,-5.13 15.656,-3.19 17.613,-6.36 17.613,-34.48 0,-14.19 -0.492,-41.83 -1.957,-52.34 -3.914,-31.3 -20.789,-42.79 -41.82,-42.79 -11.981,0 -25.915,5.87 -32.286,12.71 -6.113,6.85 -11.488,14.43 -12.468,38.4 -0.977,23.23 -1.219,46.95 -0.239,60.16 0.981,13.69 2.684,15.89 15.157,18.34 3.668,0.72 7.336,2.93 7.336,5.13 0,2.45 -2.196,4.4 -7.582,4.4 -3.422,0 -11.247,-0.74 -22.004,-0.74 -8.063,0 -19.805,1.23 -27.383,1.23 -6.613,0 -10.281,-0.74 -10.281,-4.16 m 240.87,1.23 c 0,-2.7 3.43,-5.63 7.34,-6.11 4.65,-0.98 11.99,-2.7 15.4,-6.37 6.61,-6.11 8.31,-9.78 8.31,-12.95 0,-7.83 -1.94,-77.77 -3.16,-94.16 -0.75,-9.78 -2.21,-15.89 -18.11,-20.05 -4.4,-1.22 -6.6,-3.18 -6.6,-5.38 0,-3.18 3.92,-4.15 7.83,-4.15 3.17,0 18.1,1.47 29.59,1.47 5.86,0 10.76,-0.99 17.6,-0.99 3.18,0 7.83,1.23 7.83,4.16 0,3.18 -2.45,4.89 -8.08,6.61 -13.69,4.39 -14.91,6.84 -15.65,28.36 -0.24,6.6 -0.97,33.5 -0.97,44.5 0,10.52 0.73,21.04 0.97,26.42 0.25,2.2 1.23,3.66 2.7,2.45 10.75,-11.75 57.95,-66.04 67.25,-76.8 6.84,-7.58 19.56,-23.71 25.67,-32.51 2.94,-4.41 8.07,-7.1 9.29,-7.1 2.95,0 5.14,1.71 5.14,11.98 0,11.25 -0.49,27.63 -0.49,38.39 0,23.73 1.46,75.33 2.2,83.15 0.49,5.37 3.91,9.54 12.23,12.23 8.32,2.44 9.05,4.15 9.05,5.62 0,1.96 -2.45,4.4 -7.58,4.4 -4.89,0 -17.6,-1.47 -27.64,-1.47 -6.36,0 -7.34,0.25 -17.12,0.25 -5.13,0 -7.34,-2.2 -7.34,-3.91 0,-1.46 0.99,-4.15 6.85,-5.38 16.64,-3.66 16.88,-6.85 18.1,-27.39 1.23,-19.81 0,-64.07 -0.49,-68.96 -0.24,-1.22 -1.71,-2.44 -2.44,-1.72 -9.29,8.56 -55.27,61.14 -68.23,75.08 -11.74,12.71 -21.03,24.22 -23.48,28.37 -0.24,0.48 -3.67,3.66 -4.89,3.66 -7.34,0 -26.16,1.47 -35.94,1.47 -3.19,0 -5.14,-1.22 -5.14,-3.17 m 278.04,-67.25 c 0,-20.06 -0.98,-56 -1.72,-61.13 -0.72,-4.9 -2.68,-7.1 -15.4,-11.51 -3.18,-1.22 -6.11,-3.42 -6.11,-5.61 0,-1.96 3.42,-3.67 6.6,-3.67 4.41,0 18.82,1.47 27.38,1.47 8.32,0 25.93,-0.99 28.38,-0.99 2.93,0 8.06,1.47 8.06,4.65 0,1.95 -1.7,3.67 -6.35,4.9 -14.68,3.66 -17.86,5.86 -18.34,17.36 0,3.18 -0.25,16.87 -0.25,43.52 0,16.63 0,43.28 0.49,53.31 0.49,12.47 1.47,15.17 15.65,18.84 1.96,0.48 5.13,2.19 5.13,4.39 0,2.45 -2.93,4.4 -5.87,4.4 -7.08,0 -13.69,-0.98 -28.36,-0.98 -10.76,0 -19.81,0.74 -24.45,0.74 -3.67,0 -7.83,-2.2 -7.83,-3.67 0,-2.19 1.95,-4.64 6.12,-5.62 15.65,-3.67 16.87,-6.12 16.87,-26.9 l 0,-33.5 z m 114.44,66.02 c 0,-2.19 2.2,-4.16 6.6,-5.62 12.97,-4.15 14.43,-6.12 17.61,-12.47 4.4,-9.06 34.24,-84.37 39.13,-97.34 4.65,-12.22 9.04,-27.13 10.27,-30.8 0.98,-2.93 3.18,-5.38 4.89,-5.38 2.94,0 6.11,3.67 7.34,6.6 1.46,3.19 5.86,17.86 11.24,31.05 15.89,38.64 32.04,75.81 39.38,90 5.38,10.27 9.29,15.65 19.07,18.1 5.13,1.22 8.56,2.93 8.56,5.61 0,2.21 -2.69,4.16 -8.07,4.16 -8.07,0 -12.47,-0.98 -21.76,-0.98 -8.56,0 -14.19,0.49 -19.57,0.49 -4.4,0 -8.31,-1.22 -8.31,-4.15 0,-1.46 1.96,-3.91 6.35,-5.38 12.97,-4.16 13.7,-5.87 9.54,-17.85 -5.38,-15.9 -24.21,-61.38 -33.75,-83.89 -0.97,-1.7 -2.19,-1.22 -3.17,0 -4.89,6.37 -33.75,81.68 -35.22,90.24 -1.22,7.34 1.71,9.3 8.08,11.01 4.15,1.22 7.08,3.42 7.08,5.39 0,2.44 -2.69,4.63 -7.34,4.63 -6.59,0 -14.41,-0.49 -23.23,-0.49 -9.04,0 -18.82,1.23 -26.9,1.23 -3.91,0 -7.82,-1.71 -7.82,-4.16 m 277.3,2.93 c -16.13,0 -28.6,1.23 -32.77,1.23 -3.17,0 -6.6,-0.98 -6.6,-3.91 0,-1.72 2.45,-4.17 6.6,-5.13 9.78,-2.45 14.67,-4.41 15.41,-11.99 0.74,-4.4 1.23,-43.53 1.23,-81.19 0,-12.23 -0.25,-18.35 -0.98,-24.94 -0.73,-9.3 -3.43,-11.49 -19.07,-15.16 -5.15,-1.23 -8.08,-3.66 -8.08,-6.61 0,-1.95 2.93,-2.93 9.05,-2.93 10.52,0 26.41,1.23 41.82,1.23 44.5,0 51.35,-1.23 61.38,-1.23 0.98,0 6.6,1.47 8.06,4.89 0.98,2.2 6.12,13.94 7.59,21.03 0.97,4.65 0.97,11 -2.7,11 -2.93,0 -4.64,-2.93 -8.56,-9.53 -5.37,-7.83 -9.28,-12.47 -15.89,-14.44 -5.62,-1.7 -8.56,-1.94 -18.58,-1.94 -18.83,0 -25.92,2.92 -28.12,4.89 -0.99,0.73 -2.45,5.61 -2.93,12.71 -0.25,5.38 -0.74,13.45 -0.74,36.2 0,1.95 1.71,6.11 3.18,6.11 11,0 17.84,0 27.88,-0.74 5.13,-0.48 7.08,-2.93 9.53,-10.02 1.72,-4.9 4.16,-6.12 5.87,-6.12 1.46,0 4.41,1.71 3.91,8.07 -0.48,3.91 -0.48,11.01 -0.48,16.39 0,4.4 0.48,9.04 0.73,11.74 0.49,6.35 -0.73,9.78 -3.92,9.78 -2.44,0 -3.91,-1.96 -5.86,-7.09 -2.7,-7.1 -5.63,-9.78 -21.76,-10.52 -3.92,-0.25 -13.7,0 -15.9,0 -2.21,0 -3.18,4.89 -3.18,6.85 0,16.87 0.24,39.12 0.97,45.96 0.25,1.23 1.97,4.41 2.7,4.41 3.42,0 22.5,0.49 36.44,0.49 1.22,0 5.37,-1.22 8.79,-8.06 5.39,-10.53 7.58,-13.7 10.52,-13.7 1.96,0 4.16,3.42 4.16,5.86 0,5.39 -2.45,22.75 -3.91,25.2 -1.22,1.95 -3.19,2.19 -5.63,2.19 -5.86,0 -13.2,-0.98 -34.96,-0.98 l -25.2,0 z m 279.26,-37.66 c 0,10.77 -3.66,21.29 -15.15,30.09 -5.87,4.39 -14.92,9.28 -36.44,9.28 -11.74,0 -21.77,-1.22 -31.05,-1.22 l -21.53,0 c -5.13,0 -9.78,-0.97 -9.78,-4.63 0,-2.21 2.93,-4.17 7.09,-4.9 9.29,-1.72 12.96,-4.4 13.45,-9.3 0.49,-5.13 0.99,-15.15 0.99,-45.23 0,-44.02 0,-52.09 -0.26,-60.9 -0.48,-12.23 -3.67,-13.44 -13.2,-16.62 -4.4,-1.47 -6.85,-2.94 -6.85,-5.14 0,-2.45 2.93,-4.16 8.81,-4.16 9.05,0 13.2,0.99 20.78,0.99 8.56,0 21.28,-0.99 27.4,-0.99 3.66,0 7.82,1.47 7.82,4.41 0,2.69 -1.97,4.16 -6.6,5.37 -11.26,2.93 -14.43,6.12 -15.17,14.92 -0.73,8.56 -0.98,21.03 -0.98,40.59 0,1.48 1.47,3.67 3.43,3.67 8.31,0 14.43,-0.24 20.06,-8.06 4.63,-6.62 18.82,-27.64 27.62,-39.13 18.1,-23.47 32.53,-24.95 43.29,-24.95 2.93,0 14.18,1.22 14.18,5.87 0,1.47 -0.98,3.18 -3.42,3.67 -10.03,2.44 -16.87,5.87 -28.86,19.32 -11.5,12.97 -29.34,40.35 -32.77,47.2 -0.48,1.22 -0.24,3.42 0.74,3.67 2.19,0.97 12.96,8.06 14.91,10.02 7.1,6.6 11.49,17.12 11.49,26.16 m -23.22,-3.17 c 0,-9.78 -4.16,-18.1 -8.07,-22.01 -5.39,-4.89 -19.08,-9.29 -22.75,-9.29 -4.64,0 -9.29,0.73 -14.67,2.2 -1.22,0.49 -1.96,1.46 -1.96,2.93 -0.48,12.23 -0.97,38.64 -0.48,52.09 0,2.21 1.22,4.4 2.68,4.89 2.45,0.98 7.83,1.95 11.01,1.95 24.95,0 34.24,-15.15 34.24,-32.76 m 191.7,45.24 c -11.49,0 -22.49,-3.18 -30.07,-7.83 -9.78,-6.11 -19.56,-17.12 -19.56,-33.26 0,-23.47 18.1,-37.16 32.52,-45.97 26.17,-16.38 33.01,-23.96 33.01,-35.94 0,-17.37 -14.42,-25.2 -24.69,-25.2 -12.48,0 -28.61,6.11 -37.91,26.9 -1.46,3.43 -2.45,6.11 -5.87,6.11 -1.95,0 -4.15,-2.44 -4.15,-7.81 0,-5.88 0.98,-15.66 3.91,-21.77 1.22,-2.69 2.2,-3.91 3.42,-4.89 5.63,-4.4 24.46,-8.56 35.7,-8.56 10.28,0 24.95,3.67 33.51,9.29 7.82,4.9 18.83,16.63 18.83,32.52 0,22.99 -15.66,34.49 -39.87,48.43 -21.51,12.46 -27.62,19.8 -27.62,34.23 0,12.23 9.78,23.97 24.21,23.97 15.16,0 25.18,-7.33 29.83,-23.23 0.74,-1.96 2.2,-5.63 4.15,-5.63 3.18,0 5.14,3.18 5.14,8.32 0,3.66 -0.98,14.67 -0.98,17.6 0,2.69 -1.71,6.61 -3.18,6.85 -8.56,2.2 -19.07,5.87 -30.33,5.87 m 147.7,-73.36 c 0,-20.06 -0.97,-56 -1.71,-61.13 -0.74,-4.9 -2.69,-7.1 -15.41,-11.51 -3.17,-1.22 -6.11,-3.42 -6.11,-5.61 0,-1.96 3.42,-3.67 6.61,-3.67 4.4,0 18.82,1.47 27.38,1.47 8.32,0 25.92,-0.99 28.37,-0.99 2.93,0 8.07,1.47 8.07,4.65 0,1.95 -1.71,3.67 -6.36,4.9 -14.67,3.66 -17.85,5.86 -18.34,17.36 0,3.18 -0.24,16.87 -0.24,43.52 0,16.63 0,43.28 0.49,53.31 0.48,12.47 1.46,15.17 15.65,18.84 1.95,0.48 5.13,2.19 5.13,4.39 0,2.45 -2.93,4.4 -5.87,4.4 -7.09,0 -13.69,-0.98 -28.36,-0.98 -10.77,0 -19.81,0.74 -24.46,0.74 -3.66,0 -7.82,-2.2 -7.82,-3.67 0,-2.19 1.95,-4.64 6.11,-5.62 15.65,-3.67 16.87,-6.12 16.87,-26.9 l 0,-33.5 z m 162.13,68.95 c -7.83,0 -5.62,0 -15.65,0.49 -7.09,0.25 -9.78,1.22 -13.45,4.41 -1.46,1.46 -2.94,2.2 -3.67,2.2 -0.98,0 -5.38,-2.2 -5.13,-4.4 0.73,-11.49 -1.22,-22.25 -1.72,-29.83 -0.24,-5.88 0.74,-9.3 4.65,-9.3 1.96,0 4.15,2.68 5.63,6.85 5.62,15.15 12.23,18.1 15.9,18.1 3.17,0 28.84,-0.25 34.96,-0.25 0.73,0 2.44,-2.7 2.44,-5.63 l 0,-32.02 c 0,-38.65 -0.72,-64.08 -0.72,-69.21 0,-16.64 -4.17,-17.37 -21.53,-22.02 -4.4,-1.21 -6.85,-2.93 -6.85,-4.88 0,-2.69 2.45,-4.65 7.59,-4.65 6.6,0 12.71,0.74 27.14,0.74 14.68,0 32.52,-1.23 34.97,-1.23 4.88,0 7.33,2.2 7.33,4.15 0,2.94 -2.68,3.92 -7.08,5.64 -12.23,4.88 -16.39,5.37 -17.61,22.98 -0.99,13.93 -0.99,36.43 -0.99,51.36 0,15.39 0.5,44.98 1.23,51.59 0.25,1.47 2.2,3.18 3.18,3.18 20.78,0 32.03,-0.49 35.71,-0.97 6.6,-0.74 11.49,-3.19 14.91,-18.6 0.5,-2.19 1.96,-5.62 4.65,-5.62 2.68,0 5.12,3.43 5.12,6.84 0,16.39 2.95,30.57 2.95,32.29 0,1.7 -3.91,4.65 -4.65,4.65 -1.46,0 -3.18,-1.72 -5.87,-3.93 -2.2,-2.19 -6.6,-2.93 -20.29,-2.93 l -83.15,0 z m 190.01,-2.93 c 0,-1.47 0.96,-3.42 6.6,-5.14 12.71,-4.39 17.85,-8.8 21.27,-13.45 6.61,-8.8 25.93,-41.57 32.53,-55.26 3.43,-7.09 4.65,-10.27 4.65,-14.43 0,-4.9 0.24,-19.07 -0.25,-27.15 -0.97,-16.87 -4.89,-19.06 -14.67,-22 -4.41,-1.23 -8.56,-2.45 -8.56,-5.62 0,-2.7 2.44,-4.41 6.85,-4.41 4.64,0 19.8,0.99 29.83,0.99 9.53,0 21.04,-0.74 24.94,-0.74 5.14,0 8.08,1.96 8.08,4.4 0,1.71 -1.72,4.4 -5.39,5.13 -16.14,3.67 -17.84,6.86 -18.34,11.01 0,7.58 -0.49,27.88 0.24,36.68 0.5,5.13 1.22,10.03 2.7,13.45 3.17,7.34 24.45,41.09 34.97,55.02 7.82,10.27 14.67,13.45 23.96,15.9 4.89,1.22 6.6,3.91 6.6,5.62 0,2.2 -2.45,4.16 -6.84,4.16 -6.37,0 -14.44,-1.23 -21.28,-1.23 -2.93,0 -10.76,0.74 -18.34,0.74 -5.38,0 -8.07,-1.47 -8.07,-4.16 0,-1.7 1.96,-3.67 5.86,-4.89 9.54,-2.69 9.3,-4.89 4.65,-14.43 -3.66,-7.58 -25.92,-45.48 -28.11,-46.95 -1.24,-0.98 -1.71,-1.22 -2.94,0.25 -2.45,2.94 -20.54,34.97 -28.62,51.35 -2.68,5.39 -3.67,7.83 2.94,9.54 5.87,1.46 7.58,2.93 7.58,5.37 0,2.7 -3.43,4.16 -6.59,4.16 -4.17,0 -14.68,-0.98 -24.95,-0.98 -7.35,0 -19.57,1.23 -24.46,1.23 -3.17,0 -6.84,-1.23 -6.84,-4.16 m 419.62,7.34 c -21.77,0 -44.26,-10.52 -59.17,-25.43 -14.44,-14.67 -22.01,-35.22 -22.01,-54.3 0,-43.04 35.45,-78.49 81.18,-78.49 15.65,0 30.33,4.41 40.85,10.27 26.89,15.16 40.58,43.52 40.58,69.45 0,45.73 -36.19,78.5 -81.43,78.5 m -4.4,-10.27 c 36.19,0 58.94,-34.48 58.94,-69.2 0,-29.84 -9.05,-47.69 -18.84,-56.99 -8.07,-7.57 -19.07,-11.24 -30.07,-11.24 -37.42,0 -60.15,36.68 -60.15,70.91 0,24.46 7.57,41.33 18.08,52.34 7.34,7.08 20.3,14.18 32.04,14.18 m 214.7,5.86 c -17.85,0 -29.1,0.98 -36.44,0.98 -4.64,0 -7.57,-1.71 -7.57,-4.16 0,-2.19 3.18,-4.39 6.85,-5.37 9.29,-2.45 13.69,-4.15 14.17,-11.99 0.99,-11 0.5,-19.32 0.5,-56 0,-32.52 -0.5,-43.52 -1.22,-50.86 -0.5,-6.6 -3.93,-10.28 -13.95,-13.21 -4.89,-1.46 -8.32,-3.42 -8.32,-6.11 0,-2.93 2.71,-3.67 6.86,-3.67 7.33,0 16.13,0.99 21.27,0.99 9.78,0 27.15,-1.23 34.24,-1.23 4.65,0 6.84,1.95 6.84,4.15 0,1.96 -1.95,4.41 -8.31,6.12 -10.03,2.45 -14.68,4.89 -14.92,15.41 l 0,38.88 c 0,2.93 1.23,4.89 2.21,4.89 16.62,0 28.12,0 30.81,-0.49 5.62,-0.73 7.33,-5.87 10.02,-11.73 1.72,-3.92 3.42,-5.88 5.39,-5.88 2.68,0 4.39,3.17 4.39,7.83 0,1.96 -0.97,11.74 -0.97,16.39 0,4.15 0.73,11.49 0.73,16.38 0,3.66 -1.22,7.09 -3.91,7.09 -2.21,0 -4.65,-2.94 -6.11,-7.58 -1.47,-4.89 -2.94,-9.05 -10.76,-9.54 -7.58,-0.49 -24.21,-0.98 -29.35,-0.98 -1.46,0 -2.45,0.98 -2.45,2.21 0,12.71 0,45.72 0.74,52.07 0.25,1.72 1.71,4.41 3.67,4.41 22.49,0 33.01,0.49 39.86,0 8.06,-0.48 11.49,-4.64 14.67,-16.63 1.22,-5.13 3.42,-6.6 5.13,-6.6 1.48,0 4.89,1.47 4.89,8.32 l 0,22.49 c 0,2.21 -1.7,4.89 -3.91,4.89 -0.98,0 -7.58,-1.47 -39.12,-1.47 l -25.93,0 z m 353.12,4.41 c -26.66,0 -44.51,-8.07 -55.51,-15.65 -21.53,-14.92 -33.75,-37.18 -33.75,-65.05 0,-21.76 8.8,-40.35 19.56,-52.09 15.41,-17.11 40.11,-25.43 66.52,-25.43 14.91,0 37.9,4.65 45.48,8.32 0.73,0.48 3.92,3.67 4.39,5.13 1.49,5.13 5.64,20.79 5.64,22.99 0,4.64 -1.71,8.31 -4.41,8.31 -2.45,0 -4.39,-3.18 -8.31,-11 -4.4,-8.08 -11.26,-14.43 -13.44,-15.65 -7.34,-3.43 -19.08,-6.61 -26.17,-6.61 -16.15,0 -35.71,8.81 -48.18,24.46 -7.58,9.29 -14.42,30.81 -14.42,46.71 0,17.36 7.33,38.39 20.53,50.61 9.29,8.81 24.95,14.43 36.68,14.43 10.28,0 21.28,-2.2 28.86,-6.59 9.78,-5.39 14.67,-13.21 16.88,-23.49 0.97,-3.42 2.44,-7.08 4.88,-7.08 2.95,0 5.63,2.68 5.63,9.52 0,6.12 -1.22,20.79 -1.22,25.2 0,1.46 -2.45,3.91 -3.67,3.91 -1.96,0 -9.78,2.69 -15.9,4.41 -8.06,2.2 -18.58,4.64 -30.07,4.64 m 184.38,-66.03 c 0.24,15.65 0,31.8 0,39.37 0,9.05 3.91,11.74 11.97,14.18 2.94,0.74 6.12,2.7 6.12,4.65 0,2.69 -2.69,4.16 -6.61,4.16 -8.55,0 -11.98,-0.74 -19.56,-0.74 -6.6,0 -15.41,0.98 -29.59,0.98 -4.64,0 -7.82,-1.46 -7.82,-3.66 0,-2.69 2.7,-4.17 5.38,-4.89 13.45,-3.67 15.4,-5.63 16.38,-9.79 0.99,-3.42 1.46,-12.22 1.46,-30.56 0,-35.22 0,-65.3 -0.72,-76.05 -0.5,-10.52 -2.45,-13.94 -14.91,-17.12 -4.65,-1.23 -7.34,-3.18 -7.34,-5.87 0,-2.69 2.45,-3.67 7.82,-3.67 7.34,0 21.52,1.23 29.34,1.23 10.52,0 17.37,-0.74 24.46,-0.74 6.11,0 8.32,0.98 8.32,3.66 0,1.96 -2.69,4.41 -5.63,5.14 -14.18,4.16 -17.12,6.61 -18.35,14.43 -0.48,3.67 -0.72,12.22 -0.72,45 0,0.73 1.22,3.18 2.93,3.18 4.65,0.73 42.79,0.73 79.47,0.73 0.25,0 2.21,-0.49 2.7,-9.05 0.73,-9.29 0,-29.59 -0.99,-37.17 -0.97,-10.51 -2.68,-13.2 -15.4,-16.14 -5.62,-1.46 -7.83,-3.67 -7.83,-6.12 0,-1.95 2.7,-3.66 8.56,-3.66 7.34,0 16.63,0.74 29.35,0.74 9.05,0 20.78,-0.74 25.43,-0.74 4.65,0 7.1,1.22 7.1,3.91 0,2.2 -2.45,4.64 -7.82,5.87 -11.01,2.94 -13.95,3.91 -15.18,15.65 -0.98,9.54 -0.98,30.32 -0.98,51.35 0,22.75 0.5,44.51 0.98,53.56 0.24,5.87 2.45,9.29 12.47,11.49 6.37,1.46 8.32,2.94 8.32,5.13 0,2.21 -1.95,4.16 -6.84,4.16 -4.89,0 -15.17,-0.98 -24.71,-0.98 -9.28,0 -19.31,0.74 -29.34,0.74 -5.13,0 -7.34,-1.95 -7.34,-4.4 0,-1.71 1.72,-3.43 9.78,-5.63 5.38,-1.47 13.45,-4.4 13.45,-8.56 0.99,-5.13 0.99,-37.17 0.99,-43.77 0,-1.22 -2.45,-3.42 -3.18,-3.42 -14.67,0.73 -54.05,0.24 -78.01,0.24 -1.96,0 -3.91,1.96 -3.91,3.18 m 235.73,-7.33 c 0,-20.06 -0.98,-56 -1.72,-61.13 -0.73,-4.9 -2.69,-7.1 -15.4,-11.51 -3.18,-1.22 -6.11,-3.42 -6.11,-5.61 0,-1.96 3.43,-3.67 6.59,-3.67 4.42,0 18.84,1.47 27.4,1.47 8.31,0 25.92,-0.99 28.36,-0.99 2.93,0 8.08,1.47 8.08,4.65 0,1.95 -1.72,3.67 -6.37,4.9 -14.67,3.66 -17.84,5.86 -18.34,17.36 0,3.18 -0.24,16.87 -0.24,43.52 0,16.63 0,43.28 0.49,53.31 0.49,12.47 1.47,15.17 15.65,18.84 1.95,0.48 5.13,2.19 5.13,4.39 0,2.45 -2.93,4.4 -5.86,4.4 -7.09,0 -13.69,-0.98 -28.37,-0.98 -10.75,0 -19.81,0.74 -24.44,0.74 -3.68,0 -7.84,-2.2 -7.84,-3.67 0,-2.19 1.96,-4.64 6.12,-5.62 15.64,-3.67 16.87,-6.12 16.87,-26.9 l 0,-33.5 z m 216.42,73.36 c -26.66,0 -44.51,-8.07 -55.52,-15.65 -21.51,-14.92 -33.74,-37.18 -33.74,-65.05 0,-21.76 8.8,-40.35 19.56,-52.09 15.4,-17.11 40.1,-25.43 66.51,-25.43 14.92,0 37.91,4.65 45.48,8.32 0.75,0.48 3.92,3.67 4.42,5.13 1.46,5.13 5.61,20.79 5.61,22.99 0,4.64 -1.71,8.31 -4.39,8.31 -2.45,0 -4.41,-3.18 -8.32,-11 -4.41,-8.08 -11.25,-14.43 -13.45,-15.65 -7.33,-3.43 -19.08,-6.61 -26.16,-6.61 -16.15,0 -35.71,8.81 -48.19,24.46 -7.57,9.29 -14.42,30.81 -14.42,46.71 0,17.36 7.33,38.39 20.54,50.61 9.29,8.81 24.95,14.43 36.68,14.43 10.28,0 21.28,-2.2 28.86,-6.59 9.78,-5.39 14.67,-13.21 16.87,-23.49 0.98,-3.42 2.44,-7.08 4.88,-7.08 2.95,0 5.64,2.68 5.64,9.52 0,6.12 -1.22,20.79 -1.22,25.2 0,1.46 -2.45,3.91 -3.67,3.91 -1.96,0 -9.79,2.69 -15.9,4.41 -8.06,2.2 -18.59,4.64 -30.07,4.64 m 219.33,0 c -0.96,0 -3.66,-1.22 -5.12,-2.7 -2.45,-2.19 -6.12,-4.89 -8.81,-6.83 -0.48,-0.25 -1.71,-1.97 -1.71,-2.69 -0.24,-1.97 -0.98,-4.89 -1.71,-6.86 -11.99,-31.78 -37.66,-96.35 -45.24,-112.48 -2.44,-5.38 -6.6,-10.53 -18.83,-13.69 -5.13,-1.23 -7.34,-3.68 -7.34,-6.12 0.25,-2.69 3.91,-3.67 8.32,-3.67 9.29,0 13.7,1.23 22.01,1.23 7.09,0 17.6,-0.74 20.29,-0.74 5.62,0 8.56,2.94 8.32,5.39 0,1.94 -2.21,2.93 -5.38,3.91 -11.74,3.66 -12.23,7.09 -12.23,10.26 0,5.13 6.6,23.72 10.03,33.75 0.48,1.22 2.69,3.43 3.91,3.43 7.58,0.72 36.92,0.72 41.81,0.48 2.94,0 5.87,-1.96 6.36,-3.42 2.94,-7.34 9.3,-23.72 11.01,-30.57 2.44,-8.8 1.47,-10.51 -10.03,-13.93 -4.4,-1.23 -5.62,-3.91 -5.62,-5.88 0,-1.71 2.19,-3.18 6.84,-3.18 7.83,0 7.83,0.5 18.84,0.5 11.97,0 21.27,-1.23 34.24,-1.23 3.41,0 5.85,1.23 5.85,2.69 0,2.69 -1.95,5.38 -7.33,7.1 -13.46,4.64 -15.16,5.86 -20.29,18.57 -5.63,14.92 -26.42,67.99 -38.89,103.45 -5.61,16.38 -6.84,23.23 -9.3,23.23 m 7.84,-84.61 c -4.41,-0.73 -31.79,-0.49 -36.2,0 -1.7,0.24 -1.95,1.47 -1.7,2.44 5.37,16.14 12.47,35.46 17.85,48.66 0.49,1.23 2.45,1.72 3.17,0 1.72,-3.91 14.91,-36.43 17.86,-48.66 0.48,-0.97 -0.24,-2.44 -0.98,-2.44 m 228.15,84.61 c -21.76,0 -44.26,-7.59 -58.69,-18.59 -19.07,-14.42 -30.57,-34.72 -30.57,-59.42 0,-17.85 4.9,-34.73 15.17,-48.18 13.45,-18.09 39.13,-32.03 74.33,-32.03 11.99,0 22.01,2.2 31.79,4.41 10.76,2.2 12.73,4.65 20.06,6.84 1.47,0.49 3.43,2.94 3.43,4.16 0,1.7 -0.26,2.69 -0.5,4.4 -0.49,3.18 -1.46,9.05 -1.46,11.98 0,22.25 0,20.3 0.48,25.91 0.26,3.19 1.22,6.37 9.06,9.06 4.64,1.47 7.09,3.67 7.09,5.14 0,2.93 -2.45,4.64 -6.37,4.64 -4.88,0 -17.84,-1.22 -25.18,-1.22 -8.07,0 -14.43,0.73 -21.28,0.73 -5.13,0 -8.31,-2.44 -8.31,-3.91 0,-2.45 0.73,-4.89 10.27,-6.36 8.81,-1.71 11,-3.18 11.5,-6.85 0.25,-3.17 0.48,-16.38 0.48,-25.68 0,-9.04 -4.88,-16.38 -6.6,-17.6 -5.38,-4.16 -16.87,-4.89 -21.27,-4.89 -39.38,0 -65.55,32.03 -65.55,69.69 0,35.95 22.01,67.5 59.91,67.5 13.46,0 27.4,-5.62 36.45,-14.18 5.87,-5.63 9.3,-10.04 12.47,-16.88 2.2,-4.16 4.16,-5.62 6.6,-5.62 3.18,0 4.15,4.16 4.15,6.11 0,9.78 -4.39,22.74 -6.59,28.62 -1.22,3.67 -1.96,4.15 -5.63,4.88 -4.16,0.98 -5.38,0.25 -10.51,1.72 -10.28,2.68 -19.56,5.62 -34.73,5.62 m 238.17,0 c -21.76,0 -44.25,-10.52 -59.18,-25.43 -14.42,-14.67 -22,-35.22 -22,-54.3 0,-43.04 35.46,-78.49 81.18,-78.49 15.66,0 30.33,4.41 40.84,10.27 26.91,15.16 40.6,43.52 40.6,69.45 0,45.73 -36.19,78.5 -81.44,78.5 m -4.39,-10.27 c 36.18,0 58.93,-34.48 58.93,-69.2 0,-29.84 -9.06,-47.69 -18.82,-56.99 -8.08,-7.57 -19.08,-11.24 -30.09,-11.24 -37.41,0 -60.16,36.68 -60.16,70.91 0,24.46 7.58,41.33 18.1,52.34 7.33,7.08 20.29,14.18 32.04,14.18" /></g></g></svg>