<?xml version="1.0" encoding="utf-8"?>
<!-- Generator: Adobe Illustrator 16.0.0, SVG Export Plug-In . SVG Version: 6.00 Build 0)  -->
<!DOCTYPE svg PUBLIC "-//W3C//DTD SVG 1.1//EN" "http://www.w3.org/Graphics/SVG/1.1/DTD/svg11.dtd">
<svg version="1.1" id="Layer_1" xmlns="http://www.w3.org/2000/svg" xmlns:xlink="http://www.w3.org/1999/xlink" x="0px" y="0px"
	 width="280.5px" height="58.5px" viewBox="0 0 280.5 58.5" enable-background="new 0 0 280.5 58.5" xml:space="preserve">
<g>
	<defs>
		<rect id="SVGID_1_" x="1.25" y="1.457" width="277.5" height="55.793"/>
	</defs>
	<clipPath id="SVGID_2_">
		<use xlink:href="#SVGID_1_"  overflow="visible"/>
	</clipPath>
	<path clip-path="url(#SVGID_2_)" fill="#FDFDFC" d="M9.603,42.032c-0.431-0.184-0.902-0.304-1.302-0.575
		c0.281,0.948,0.489,1.777,1.015,2.777C9.616,44.805,10.138,43.431,9.603,42.032 M8.293,26.113l0.033,0.032
		c-0.007,1.286-3.618,3.129-5.166,3.959c2.392,0.825,4.656-1.396,4.384-0.855c-0.324,0.63-3.244,3.149-4.518,4.496
		c0.992,0.275,1.902-0.525,2.621-1.138c0.784-0.668,2.097-2.348,1.897-1.514c-2.123,2.62-3.793,8.062-2.764,8.41
		c0.59-1.232,3.031-7.521,3.185-7.492c0.161,0.031-0.192,1.66-0.246,2.738c-0.12,2.37-0.136,3.492,0.377,5.824
		c0.264-0.361,0.518-0.353,0.935-0.323c0.052-0.227,0.036-0.169-0.226-0.515c-0.679-0.899,0.101-2.124-0.225-2.871
		C8.308,36.24,8.154,36.74,8.031,36.09c0.191-0.173,0.696-0.226,0.904-0.259c0.221-2.434,1.035-3.672,0.732-2.135
		c-0.156,0.776-0.393,2.065-0.28,2.104c0.113,0.038,0.123,0.037,0.22,0.089c0.044,0.023,4.089-6.63,1.847-2.02
		c-0.294,0.605-1.489,2.233-1.489,2.233c0.315,0.321,0.612,0.699,0.65,0.93c0.01,0.061,5.421-7.122,1.736-1.333
		c-0.226,0.354-1.333,1.54-1.615,1.884c-0.038,0.046,0.103,1.347,0.103,1.347c0.562-0.391,1.366-1.177,1.741-1.678
		c-0.05-0.733,0.122-0.636,0.163-1.354c0.171-0.11,0.395,0.194,0.666,0.438c0.128,0.115,3.714-6.127,1.465-1.443
		c-0.361,0.751-1.16,1.641-1.197,1.714c0.152,0.162,0.377,0.676,0.634,1.272c0.01,0.024,4.795-6.902,1.888-1.668
		c-0.23,0.412-1.67,2.146-1.652,2.191c0.354,0.866,0.664,1.709,0.663,1.708c-0.087-0.675-0.225-2.004,1.175-3.104
		c0.182,1.202,0.505,1.251,0.922,1.619c0.183,0.162,0.525,0.848,0.566,0.265c0.119-1.707-0.436-1.666-0.849-2.392
		c-0.099-0.174-0.08-0.563-0.003-0.541c3.446,0.104,3.331,3.331,3.907,3.329c-0.262-0.823-0.333-1.632-0.023-2.293
		c-0.923-0.655-0.692-1.775-0.516-2.26c-1.038-1.073-0.442-3.355,0.054-3.836c-0.667-0.972,0.156-1.634-0.022-2.23
		c-0.28-2.108-2.159-1.479-2.581-3.485c-0.294,0.356-0.836,1.572-0.582,1.976c0.292,0.463,0.919,0.503,0.956,0.842
		c0.016,0.145,0.063,0.548-0.04,0.633c-0.357,0.064-0.599-0.263-0.964-0.406c-0.729-0.289-2.496,0.921-2.603-0.147
		c-0.067-0.672,0.231-0.188,0.198-0.81c-0.03-0.643-0.353-0.19-0.358-1.018c-0.003-0.606,0.729-0.797,0.782-1.041
		c0.13-0.602,1.223,0.886,1.863-0.691c-0.372,0.052-1.128-0.208-1.056-0.576c0.19-0.987,0.206-3.374-2.027-2.86
		c-0.801,0.186-3.034,1.36-3.343,0.083c-0.805,1.425,0.787,1.176,1.267,1.146c-0.189,0.132-0.429,0.346-1.022,0.218
		c-1.257,0.828-5.852,3.748-7.179,4.481C5.513,27.842,8.254,26.113,8.293,26.113 M12.606,37.91c-0.624,0.622-0.84,0.638-0.806,0.907
		c0.141,0.38,0.415,0.648,0.707,0.974c0.368,0.301,0.504,0.571,0.234-0.305C12.574,38.905,12.615,38.481,12.606,37.91
		 M22.631,24.303c-0.111-0.247-0.299-0.483-0.568-0.607c-1.116-0.531-3.255,0.618-3.232-1.056c0,0-0.765,0.567-0.416,1.162
		C19.21,25.161,21.43,23.475,22.631,24.303 M5.833,7.572c-1.87,0-1.909,2.863,0,2.863C7.711,10.436,7.711,7.572,5.833,7.572
		 M5.833,13.291c-1.953,0-1.953,2.861,0,2.861C7.723,16.152,7.711,13.291,5.833,13.291 M7.791,9.977h1.664V8.339H7.791V9.977z
		 M7.791,15.68h1.664v-1.638H7.791V15.68z M12.33,13.892c-0.748,0.458-0.615,0.964-0.368,1.273c0.135-0.096,0.617-0.423,0.814-0.62
		C12.662,14.479,12.409,14.093,12.33,13.892 M14.06,11.359c-0.004-0.158-0.01-0.309-0.025-0.391
		c0.019-0.146-0.259-0.484-0.336-0.489c-0.089-0.001-0.277,0.168-0.384,0.336c-0.055,0.097-0.065,0.354,0.053,0.492
		C13.605,11.574,13.715,11.582,14.06,11.359 M14.064,12.165c-0.001-0.061-0.003-0.118-0.001-0.185c0-0.073,0.002-0.266,0-0.469
		c-0.233,0.145-0.326,0.256-0.566,0.113c-0.392,0.317,0.206,0.512,0.333,0.62C13.923,12.198,13.998,12.183,14.064,12.165
		 M17.105,7.577c0.131-0.097,0.446-0.454,0.649-0.651c-0.115-0.069-0.321-0.213-0.402-0.412C16.993,6.8,16.925,6.999,17.105,7.577
		 M19.762,7.921c-0.22,0.173-0.416,0.329-0.52,0.419c0.08,0.15,0.588,0.519,0.872,0.388c0.28-0.129,0.413-0.408,0.154-0.556
		C20.088,8.067,19.924,7.993,19.762,7.921 M19.978,7.477c0.132-0.105,0.254-0.204,0.297-0.238c-0.197-0.184-0.527-0.361-0.677-0.381
		c-0.147-0.016-0.446,0.112-0.33,0.266c0.112,0.147,0.229,0.331,0.473,0.366C19.822,7.499,19.901,7.49,19.978,7.477 M20.757,14.874
		c0.012-0.196,0.021-0.396,0.003-0.503c0.024-0.147-0.437-0.427-0.511-0.427c-0.096-0.001-0.096,0.053-0.206,0.227
		c-0.054,0.094-0.009,0.377,0.038,0.418C20.331,14.809,20.528,14.879,20.757,14.874 M20.151,14.915
		c-0.397,0.331,0.051,0.637,0.172,0.744c0.135-0.067,0.309-0.096,0.446-0.145c-0.018-0.055-0.044-0.104-0.044-0.168
		c0-0.059,0.01-0.19,0.021-0.335C20.481,15.038,20.361,15.058,20.151,14.915 M19.272,15.435l-0.245,0.271l-0.234,0.238
		c-0.181-0.187-0.311-0.22-0.342-0.367l-0.009-1.187l-0.371-0.192c-0.173,0.144-0.304,0.081-0.156-0.049l0.562-0.524l0.135-0.019
		l0.359,0.525l0.008,1.121C19.125,15.386,18.997,15.383,19.272,15.435 M19.149,11.803c-0.189-0.523,0.154-1.014,0.322-1.155
		c0.134-0.111,0.445-0.375,0.647-0.504c0.195,0.118,0.344,0.203,0.444,0.25c-0.036,0.097-0.08,0.287-0.286,0.297
		c-0.312,0.009-0.555-0.074-0.725,0.107c-0.167,0.181-0.036,0.693,0.174,0.89c0.156,0.15,0.588,0.343,0.669,0.167
		c0.104-0.229,0.257-0.109,0.107,0.089c-0.101,0.13-0.285,0.41-0.383,0.594C19.785,12.511,19.339,12.341,19.149,11.803
		 M19.608,15.498c-0.003-0.291,0.148-0.521,0.351-0.73c-0.014-0.015-0.022-0.019-0.038-0.03c-0.058-0.048-0.154-0.562-0.08-0.668
		c0.097-0.142,0.551-0.575,0.854-0.606c0.209-0.021,0.518,0.43,0.698,0.63c-0.05,0.059,0.063,1.304,0.063,1.422
		c0.062,0.102,0.28,0.175,0.346,0.074c0.085-0.108,0.166,0.008,0.085,0.089c-0.085,0.078-0.394,0.329-0.491,0.446
		c-0.14-0.109-0.373-0.23-0.524-0.414c-0.309,0.06-0.631,0.282-0.88,0.466C19.71,16.051,19.618,15.775,19.608,15.498 M22.129,12.336
		l-0.251,0.271l-0.316,0.271c-0.18-0.186-0.309-0.235-0.339-0.382l-0.01-1.222l-0.292-0.178c-0.169,0.149-0.305,0.085-0.153-0.052
		l0.564-0.52l0.132-0.019l0.245,0.362l-0.011,1.298C21.847,12.302,21.847,12.283,22.129,12.336 M21.823,8.339
		c-0.678-0.069-0.502-0.282-0.386-0.275C22.07,8.103,21.929,8.352,21.823,8.339 M21.834,7.936c-0.677,0.024-0.501-0.284-0.389-0.277
		C22.018,7.69,21.94,7.932,21.834,7.936 M21.285,9.396l0.29,0.301v0.311l-0.217,0.196h-0.181l-0.179-0.183l-0.006-0.362
		L21.285,9.396z M20.984,6.919c-0.069,0.085-0.335,0.301-0.641,0.542c0.047,0.01,0.092,0.019,0.139,0.045
		c0.492,0.288,0.66,0.694,0.177,1.077c-0.265,0.213-0.695,0.452-1.16,0.462c-0.307,0.009-0.855-0.251-0.956-0.359
		c0.251-0.234,0.521-0.491,0.716-0.658c-0.305-0.233-0.59-0.548-0.357-0.908c0.175-0.273,0.715-0.705,1.194-0.686
		C20.572,6.455,20.787,6.784,20.984,6.919 M18.419,8.496c-0.133,0.066-0.402,0.344-0.617,0.344c-0.645-0.025-1.459-0.495-1.34-1.361
		c0.125-0.904,0.836-1.25,1.142-1.258c0.349,0.026,0.431,0.327,0.628,0.508c-0.298,0.245-0.788,0.726-1.075,1.02
		c0.071,0.152,0.404,0.724,1.116,0.544C18.598,8.217,18.705,8.356,18.419,8.496 M16.282,7.062c-0.116,0.117-0.386,0.289-0.491,0.366
		c-0.138-0.08-0.308-0.329-0.394-0.395c-0.038,0.036-0.119,0.079-0.197,0.123c0,0.163,0.008,1.632-0.009,1.8
		c-0.207,0.01-0.385,0.025-0.531-0.007c-0.016-0.215,0.014-1.386,0.004-1.577c-0.017-0.234-0.222-0.249-0.495-0.328
		c0.155-0.188,0.442-0.398,0.572-0.497c0.234,0.183,0.378,0.183,0.495,0.317c0.149-0.083,0.417-0.245,0.534-0.342
		c0.11,0.13,0.316,0.342,0.396,0.438C16.274,6.856,16.404,6.943,16.282,7.062 M14.035,10.098c0.206-0.023,0.38,0.397,0.564,0.597
		c-0.052,0.057-0.052,1.299-0.052,1.417c0.043,0.071,0.189,0.153,0.248,0.098c0.1-0.098,0.165,0,0.079,0.081
		c-0.079,0.079-0.486,0.43-0.587,0.543c-0.142-0.107-0.192-0.267-0.212-0.481c-0.248,0.058-0.48,0.196-0.629,0.423
		c-0.277-0.126-0.492-0.367-0.5-0.638c-0.006-0.279,0.184-0.44,0.387-0.629c-0.035-0.027-0.067-0.052-0.107-0.088
		c-0.057-0.049-0.133-0.498-0.08-0.622C13.28,10.486,13.726,10.125,14.035,10.098 M13.626,9.441
		c-0.091-0.133-0.114-0.253-0.302-0.201c-0.475,0.137-0.995,0.28-1.371,0.059c-0.402-0.246-0.748-0.323-0.758-1.239
		c-0.008-0.558,0.484-1,0.805-1.188c0.365-0.21,0.993-0.075,1.276,0.009c0.137,0.044,0.242,0.028,0.25-0.15
		c0.003-0.097,0.155-0.073,0.151,0c0,0.079-0.005,1.208-0.005,1.298c-0.003,0.088-0.187,0.097-0.182,0.012
		c0-0.128-0.045-0.372-0.086-0.571c-0.063-0.297-0.84-0.843-1.4-0.108c-0.013,0.035-0.239,0.421-0.21,0.72
		c0.019,0.225,0.055,0.537,0.204,0.744c0.441,0.624,1.067,0.414,1.395-0.094c0.119-0.185,0.099-0.411,0.107-0.544
		c0-0.079,0.177-0.088,0.177,0c0,0.093-0.008,0.843-0.008,0.914c0.003,0.108,0.083,0.194,0.125,0.249
		C13.904,9.516,13.78,9.647,13.626,9.441 M11.255,10.645c0.219-0.326,0.733-0.64,1.082-0.766c0.111,0.13,0.244,0.33,0.407,0.545
		c-0.164,0.131-0.333,0.296-0.43,0.412c-0.075-0.085-0.495-0.711-0.79-0.272c-0.161,0.232-0.33,0.917,0.217,1.341
		c0.265,0.2,0.546,0.266,0.91,0.207c-0.186,0.242-0.233,0.312-0.337,0.521c-0.528,0.095-0.742-0.073-1.001-0.291
		C10.764,11.895,10.938,11.129,11.255,10.645 M11.481,14.836c0.133-0.906,1.011-1.275,1.277-1.454
		c0.047,0.264,0.351,0.722,0.547,0.905c-0.298,0.244-0.982,0.817-1.244,1.015c0.144,0.263,0.687,0.451,0.869,0.253
		c0.135-0.136,0.301-0.089,0.15,0.087c-0.198,0.228-0.399,0.553-0.499,0.754C12.186,16.228,11.363,15.708,11.481,14.836
		 M13.574,14.079c0.249-0.197,0.384-0.344,0.554-0.505c0.149,0.235,0.215,0.457,0.349,0.556c0.178-0.15,0.475-0.338,0.608-0.484
		c0.13,0.063,0.357,0.201,0.373,0.665c0.01,0.463,0.074,1.188,0.074,1.349c0,0.086,0.023,0.06,0.159,0.03
		c0.126-0.034,0.177,0.029,0.079,0.113c-0.099,0.08-0.555,0.399-0.677,0.535c-0.161-0.301-0.19-0.515-0.124-0.812
		c0.052-0.245,0.008-0.906,0.008-1.057c0-0.148-0.227-0.198-0.324-0.283c-0.135,0.1-0.152,0.117-0.27,0.229
		c0,0.199-0.026,1.592,0.005,1.775c-0.313,0.012-0.281-0.008-0.464-0.008c-0.014-0.269-0.005-1.342-0.02-1.573
		C13.886,14.38,13.69,14.213,13.574,14.079 M15.997,12.451c-0.134,0.117-0.43-0.069-0.537-0.25c-0.17-0.285-0.116-0.958-0.094-1.504
		c0.022,0.002-0.097-0.134-0.211-0.157c-0.144-0.036-0.169-0.088,0.055-0.18c0.273-0.108,0.697-0.766,0.757-0.913
		c0.053-0.146,0.135-0.008,0.055,0.134c-0.169,0.326-0.1,0.704-0.071,0.817c0.018,0.05,0.534-0.021,0.644-0.021
		c0.072,0.004,0.063,0.22-0.004,0.215c-0.089-0.002-0.765,0.081-0.765,0.081c-0.047,0.024,0.054,1.087,0.123,1.168
		c0.01,0.014,0.223,0.198,0.304,0.118c0.101-0.095,0.2,0.007,0.08,0.106C16.269,12.115,16.154,12.326,15.997,12.451 M16.279,14.043
		c0.209-0.151,0.563-0.807,0.611-0.956c0.044-0.151,0.131-0.1,0.116,0.063c-0.018,0.231-0.125,0.747-0.084,0.853
		c0.019,0.053,0.348,0.049,0.459,0.049c0.072,0,0.078,0.213,0.009,0.213c-0.088,0-0.458,0.054-0.458,0.054
		c-0.051,0.022-0.024,0.788,0.048,0.869c0.148,0.141,0.26,0.238,0.461,0.025c0.098-0.1,0.2-0.007,0.084,0.096
		c-0.062,0.058-0.341,0.396-0.402,0.563c-0.064,0.165-0.431,0.039-0.549-0.134c-0.186-0.278-0.107-0.84-0.121-1.387
		C16.488,14.362,16.102,14.176,16.279,14.043 M18.783,13.025c-0.171,0.161-0.306,0.312-0.454,0.478
		c-0.129-0.084-0.324-0.253-0.473-0.383c0.246-0.112,0.38-0.263,0.464-0.428C18.419,12.908,18.614,12.992,18.783,13.025
		 M17.659,10.323c0.393,0.125,0.975,0.033,1.159,0.556c0.197,0.552-0.161,1.258-0.618,1.291c-0.384,0.032-0.73-0.097-0.945-0.079
		c-0.1,0.009-0.172,0.039-0.189,0.147c-0.014,0.116-0.167,0.166-0.197,0.013c-0.033-0.146-0.076-0.772-0.076-0.955
		s0.168-0.199,0.2,0c0.032,0.195,0.09,0.335,0.243,0.504c0.116,0.134,0.87,0.318,1.147,0.099c0.223-0.18,0.17-0.571-0.063-0.724
		c-0.232-0.152-1.163-0.368-1.322-0.635c-0.271-0.456,0.213-0.836,0.426-0.959c0.333-0.185,0.719-0.126,0.852-0.123
		c0.13,0,0.303,0.043,0.312-0.099c0.009-0.141,0.116-0.127,0.13,0.018c0.043,0.408,0.083,0.163,0.071,0.597
		c0,0.197-0.071,0.199-0.156,0.048c-0.055-0.102-0.629-0.58-1.091-0.281C17.149,9.998,17.298,10.226,17.659,10.323 M19.116,17.419
		c2.045,0.137,3.787,1.08,3.787,1.08V5.313c0,0-3.007-2.105-7.891-0.221c-1.437,0.554-4.934,0.09-4.934,0.09v13.476
		C13.145,18.867,17.139,17.287,19.116,17.419 M23.929,21.755c0.001,0.176-0.225,0.421-0.225,0.421l0.814-0.411
		c-0.163-0.108-0.621-0.366-0.814-0.422C23.704,21.343,23.928,21.517,23.929,21.755 M25.141,21.741
		c-0.75,0.146-1.311,0.966-2.164,0.616c-0.111-0.073-0.343-0.135-0.312-0.305c0.153,0.089,0.392,0.145,0.559,0.17
		c0,0-0.457-0.38-0.055-0.847c-0.514,0.323-0.694,0.236-0.694,0.064c0-0.078,0.674-0.568,1.31-0.328
		c0.459,0.174,0.853,0.524,1.356,0.598V21.741z M23.039,20.194c-0.422,0.048-0.934,0.297-1.062,0.743
		c-0.257,0.253-0.245-0.428-0.767-0.129c-0.222,0.302,0.357,0.968,0.22,1.009c-0.569,0.172-0.498-0.854-0.822-0.88
		c-0.467,0.165-1.645,1.24-0.487,2.094c-0.036-0.576,1.053-1.202,1.413,0.069c1.093-0.084,1.461,0.579,1.596,0.954
		c1.61,0.286,1.147,1.353,1.101,1.353c-0.153-0.229-0.845-1.297-1.979-0.559c-0.263,0.17-0.718,0.336-0.942,0.111
		c0.022,0.358,0.474,0.681,0.783,0.597c1.007-0.276,1.262,0.661,0.491,0.918c0.165,0.257,0.482,0.241,0.774,0.063
		c0.434-0.264,0.484-0.5,0.642-0.658c0.274,1.313-1.39,1.44-1.92,1.52c0.081,0.28,0.26,0.341,0.595,0.438
		c-1.755,0.06-2.099,1.706-1.995,2.655c0.396,0.03,1.004-0.829,0.952-0.337c-1.243,1.319-1.663,3.084-1.008,4.209
		c0.311-0.127,0.408-0.471,0.518-0.751c0.048-0.032,0.686,0.251-0.334,1.474c-0.071,0.318-0.43,1.278,0.357,1.509
		c0.3-0.354,0.256-0.662,0.321-1.025c0.229-0.091,0.379,0.648,0.29,0.874c-1.024,0.424-0.897,3.568,0.291,5.257
		c-0.551-1.227-0.477-2.802,0-4.062c0.366-0.973,1.172-3.158,1.193-3.133c0.457,0.562,1.034,2.972,1.034,3.97
		c0.641-0.56,0.767-1.169,1.291-1.58c0.249,0.875,0.35,1.453,0.549,2.226c0.254-0.754,0.927-1.605-0.035-4.053
		c0.199-0.179,0.563,0.848,0.678,0.799c0.087-0.035,0.218-0.548-0.109-1.504c-0.675-0.631-0.826-1.558-0.72-1.627
		c0.087-0.057,0.391,0.96,0.749,1.011c0.073-0.79,0.266-1.597,0.206-2.209c-0.013-0.161-0.278-0.975-1.025-1.649
		c-0.432-0.391-0.599-1.204-0.56-1.368c0.418,0.385,0.327,0.668,0.681,0.822c0.149-0.33,0.047-1.561-0.383-2.099
		c-0.247-0.407-0.13-0.351,0.165-0.104c0.386,0.459,0.2,0.422,0.533,0.612c0.729-1.72,0.066-2.054,0.118-2.176
		c0.045-0.109,0.563,0.803,1.003,0.453c-0.718-0.379-0.698-0.956-0.778-1.577c-0.063-0.493-0.38-0.677-0.258-0.797
		c0.716,0.54,0.913-0.058,0.935-0.178c-0.137,0.078-0.774,0.162-0.853-0.828c-0.031-0.391-0.63-0.562-0.629-0.562
		c0.368-0.069,1.549-0.136,1.267-1.308c-0.143,0.276-0.494,0.712-1.227,0.541c-0.001,0,0.471-0.127,0.385-0.636
		C25.142,21.323,24.223,20.026,23.039,20.194 M33.062,8.041c0.189,0.157,0.709,0.401,0.973,0.495c0.001-0.222-0.002-0.445-0.02-0.55
		c0.017-0.149-0.512-0.432-0.595-0.432c-0.095-0.009-0.232,0.148-0.352,0.326C33.007,7.979,33.012,8.002,33.062,8.041 M33.605,9.458
		c0.176-0.083,0.296-0.12,0.433-0.128c-0.007-0.066-0.014-0.137-0.013-0.222c0-0.066,0.006-0.248,0.008-0.449
		c-0.234-0.075-0.53-0.199-0.785-0.342c0.037,0.022,0.077,0.043,0.115,0.065C33.087,8.89,33.462,9.341,33.605,9.458 M33.619,12.234
		c0.115,0.298,0.619,0.686,0.757,0.753c0.21-0.253,0.323-0.715,0.275-1.106c-0.035-0.3-0.423-0.628-0.756-0.751
		C33.469,11.391,33.469,11.833,33.619,12.234 M26.913,15.059c-0.25,0.474-0.044,0.571,0.096,0.687
		c0.176-0.087,0.329-0.165,0.454-0.254c0.001-0.086,0.005-0.246,0.007-0.424C27.187,15.098,27.095,15.16,26.913,15.059
		 M27.471,14.928c0.001-0.212-0.002-0.42-0.018-0.52c0.017-0.153-0.315-0.381-0.401-0.386c-0.095,0-0.17,0.035-0.288,0.217
		c-0.059,0.095-0.045,0.472,0.006,0.512C27.048,14.987,27.223,14.958,27.471,14.928 M27.883,16.143
		c-0.182-0.138-0.336-0.171-0.393-0.389c-0.466,0.181-0.642,0.449-0.922,0.646c-0.164-0.153-0.301-0.426-0.305-0.709
		c-0.006-0.278,0.268-0.653,0.421-0.798c-0.019-0.018-0.029-0.02-0.051-0.039c-0.061-0.053-0.147-0.459-0.065-0.566
		c0.103-0.147,0.518-0.718,0.845-0.744c0.225-0.021,0.4,0.257,0.59,0.462c-0.048,0.057-0.027,1.05-0.034,1.171
		c0.208,0.225,0.294,0.275,0.419,0.192c0.125-0.086,0.175,0,0.087,0.083C28.388,15.536,27.992,16.023,27.883,16.143 M29.014,14.164
		c0.033,0.009-0.461-0.187-0.249-0.292c0.372-0.183,0.738-0.567,0.795-0.726c0.056-0.15,0.198-0.083,0.124,0.069
		c-0.072,0.151-0.124,0.523-0.082,0.639c0.016,0.05,0.297,0.075,0.424,0.077c0.072,0,0.067,0.222-0.006,0.222
		c-0.093-0.003-0.442,0.005-0.442,0.005c-0.05,0.024-0.013,1.245,0.017,1.35c0.039,0.101,0.328,0.172,0.434,0.072
		c0.108-0.1,0.218,0.003,0.089,0.1c-0.066,0.057-0.288,0.403-0.462,0.474c-0.181,0.07-0.451-0.047-0.569-0.226
		C28.894,15.639,29.007,14.724,29.014,14.164 M29.841,12.492c-0.213-0.121-0.504-0.4-0.66-0.632
		c-0.283,0.364-0.351,0.673-0.869,0.807c0.3-0.251,0.575-0.807,0.554-1.336c-0.023-0.479-0.283-0.712-0.512-0.8
		c-0.198,0.094-0.369,0.223-0.472,0.268c-0.109,0.043-0.138-0.126-0.06-0.164c0.252-0.121,0.806-0.544,0.882-0.626
		c0.235,0.042,0.524,0.245,0.566,0.435c0.177-0.108,0.492-0.452,0.587-0.53c0.108,0.188,0.425,0.418,0.778,0.546
		c-0.323,0.551-1.04,0.222-1.143,0.085c-0.116,0.193-0.143,0.309-0.027,0.554c0.147,0.328,0.737,0.641,1.042,0.722
		C30.414,11.917,29.991,12.394,29.841,12.492 M30.336,14.449c0.214-0.239,0.443-0.392,0.575-0.525
		c0.227,0.169,0.3,0.273,0.423,0.461c-0.005,0.305-0.069,0.947-0.049,1.172c0.011,0.218,0.88,0.365,0.919,0.043
		c0.039-0.32,0.011-0.733,0-0.923c-0.016-0.146-0.358-0.216-0.532-0.191c0.233-0.246,0.432-0.426,0.58-0.562
		c0.209,0.156,0.414,0.384,0.539,0.571c-0.006,0.327-0.063,1.088-0.017,1.289c0.059,0.208,0.038,0.223,0.195,0.328
		c-0.161,0.149-0.28,0.215-0.389,0.335c-0.164-0.048-0.44-0.294-0.423-0.513c-0.198,0.136-0.787,0.382-0.997,0.436
		c-0.212-0.221-0.373-0.278-0.387-0.544c-0.013-0.275,0.061-0.987-0.026-1.156C30.661,14.499,30.514,14.461,30.336,14.449
		 M33.097,12.168c0.02-0.695,0.481-1.284,1.226-1.549c0.588,0.196,0.834,0.791,0.853,1.191c0.014,0.325-0.201,0.754-0.348,1.019
		c-0.231,0.153-0.464,0.377-0.684,0.589C33.429,13.413,33.083,12.575,33.097,12.168 M33.188,14.847
		c0.178-0.102,0.599-0.486,0.745-0.587c0.243,0.189,0.402,0.376,0.522,0.512c0.161-0.084,0.413-0.268,0.536-0.368
		c0.214,0.151,0.453,0.348,0.541,0.452c0.112-0.104,0.252-0.021,0.123,0.106c-0.123,0.116-0.402,0.36-0.508,0.441
		c-0.156-0.083-0.424-0.392-0.513-0.457c-0.045,0.039-0.134,0.082-0.211,0.124c-0.004,0.17,0,1.56-0.011,1.73
		c-0.229,0.014-0.414,0.028-0.571-0.005c-0.014-0.221,0.009-1.427,0-1.62C33.827,14.938,33.445,14.854,33.188,14.847 M35.983,12.373
		c-0.18-0.013-0.355-0.039-0.451-0.066c-0.153-0.048-0.092-0.215,0.038-0.215c0.12,0.002,0.314,0.039,0.402,0.071
		C36.059,12.198,36.095,12.387,35.983,12.373 M35.994,11.958c-0.175-0.009-0.356-0.041-0.453-0.067
		c-0.153-0.04-0.088-0.216,0.035-0.216c0.124,0,0.318,0.036,0.411,0.071C36.074,11.783,36.112,11.969,35.994,11.958 M34.893,9.302
		l-0.536,0.587c-0.157-0.113-0.251-0.232-0.296-0.431c-0.41,0.08-0.69,0.325-0.879,0.472c-0.17-0.154-0.424-0.563-0.427-0.846
		c-0.008-0.279,0.215-0.693,0.367-0.838c0.016,0.007,0.03,0.016,0.045,0.025c-0.089-0.055-0.173-0.107-0.238-0.16
		c-0.058-0.052-0.078-0.191,0-0.302c0.106-0.141,0.44-0.559,0.766-0.607c0.173-0.023,0.467,0.022,0.87,0.381
		c-0.051,0.063-0.051,1.236-0.051,1.359C34.655,9.115,34.893,9.302,34.893,9.302 M31.345,11.417
		c-0.086,0.435,0.288,0.789,0.576,0.94c0.23,0.119,0.625,0.053,0.724,0.037c0.096-0.015,0.068-0.042,0.14-0.108
		c0.072-0.07,0.157-0.007,0.099,0.061c-0.065,0.069-0.646,0.621-0.806,0.731c-0.147,0.038-0.472,0.027-0.666-0.219
		c-0.344-0.432-0.593-0.587-0.485-1.373c0.075-0.532,0.963-0.993,1.168-1.107c0.081,0.08,0.485,0.505,0.662,0.648
		c-0.069,0.089-0.293,0.188-0.507,0.187c-0.22,0-0.367-0.183-0.513-0.346C31.633,10.965,31.408,11.097,31.345,11.417 M32.499,7.14
		c-0.1,0-1.101,0.122-1.101,0.122c-0.053,0.024,0.051,1.266,0.088,1.365c0.031,0.104,0.128,0.258,0.241,0.159
		c0.102-0.102,0.222,0.067,0.099,0.167c-0.07,0.055-0.291,0.494-0.393,0.559c-0.158,0.101-0.387-0.228-0.462-0.43
		c-0.12-0.339-0.201-1.186-0.198-1.75c0.034,0.01-0.468-0.199-0.242-0.288c0.44-0.189,0.865-0.774,0.918-0.925
		c0.055-0.154,0.195-0.09,0.123,0.063c-0.146,0.307-0.13,0.528-0.068,0.709c0.021,0.048,0.868,0.03,0.995,0.03
		C32.57,6.921,32.567,7.14,32.499,7.14 M30.162,8.672L29.748,9.21h-0.385c-0.192-0.191-0.319-0.341-0.356-0.496l-0.021-1.29
		l-0.481-0.275c-0.089,0.12-0.267,0.12-0.198,0.019l0.662-0.582l0.145-0.016l0.423,0.423l-0.009,1.334
		C29.738,8.565,29.861,8.62,30.162,8.672 M29.622,6.045L29.39,6.247h-0.192l-0.193-0.191l-0.008-0.374l0.312-0.265l0.313,0.304
		V6.045z M28.289,6.017c-0.23,0.068-0.396,0.297-0.452,0.533c-0.045,0.24-0.829,2.512-0.921,2.661
		c-0.187-0.71-0.972-2.398-1.223-2.757c-0.216-0.318-0.423-0.259-0.621-0.265c-0.192,0-0.12-0.183,0.038-0.169
		c0.219,0.027,1.458,0.136,1.809,0.186c0.126,0.025,0.13,0.139-0.037,0.19c-0.085,0.023-0.283,0.12-0.283,0.216
		c0,0.134,0.45,1.123,0.574,1.308c0.105-0.254,0.529-1.335,0.445-1.574c-0.093-0.237-0.127-0.274-0.303-0.292
		c-0.177-0.021-0.177-0.124,0.035-0.157c0.212-0.033,0.8-0.083,0.978-0.062C28.505,5.851,28.526,5.953,28.289,6.017 M25.481,10.102
		c0.39-0.213,1.265-0.35,1.565-0.254c0.151,0.041,0.305,0,0.305-0.07c0-0.103,0.14-0.075,0.14,0c0,0.076-0.003,1.032-0.012,1.122
		c0,0.093-0.138,0.083-0.138,0c0-0.138,0-0.181-0.12-0.364c-0.35-0.526-1.316-0.57-1.794,0.063
		c-0.165,0.211-0.226,0.582-0.041,0.644c0.18,0.061,0.867,0.006,1.09-0.035c0.221-0.039,0.775-0.132,0.839-0.177
		c0.063-0.038,0.148-0.09,0.148,0.018c0,0.113,0,0.478-0.005,0.588c0,0.113-0.088,0.06-0.145,0.017
		c-0.066-0.038-0.584-0.091-0.81-0.105c-0.375-0.031-0.942-0.149-1.129-0.093c-0.187,0.055-0.04,0.346,0.122,0.563
		c0.472,0.638,1.355,0.658,1.708,0.137c0.129-0.189,0.129-0.229,0.129-0.36c0-0.085,0.144-0.099,0.144,0
		c0,0.087-0.007,0.88-0.007,0.957c0,0.078-0.147,0.101-0.147-0.004c0.006-0.168-0.099-0.156-0.293-0.1
		c-0.513,0.136-1.197,0.182-1.603-0.048c-0.43-0.247-0.806-0.327-0.816-1.272C24.604,10.754,25.136,10.299,25.481,10.102
		 M24.778,13.003c0.128,0.013,0.512,0.021,0.649,0.021c-0.017,0.287-0.017,2.274,0,2.479s0.195,0.27,0.372,0.188
		c0.089-0.035,0.169,0.025,0.054,0.122c-0.197,0.145-0.434,0.489-0.543,0.622c-0.225-0.153-0.47-0.348-0.452-0.53
		C24.887,15.583,24.789,13.272,24.778,13.003 M27.668,17.419c1.355,0,6.686,1.462,9.256,1.287V5.296c0,0-3.784,0.535-7.057-0.673
		c-2.674-0.987-6.348,0.736-6.348,0.736c0.004,0.457,0,13.15,0,13.15S24.871,17.419,27.668,17.419 M37.402,13.365v2.553
		c0,0,1.425-0.011,3.008-1.029c0.475-0.307,1.176-0.182,1.524,0.096h0.003c0,0-0.213-1.671-1.63-1.464
		C37.702,13.9,37.402,13.365,37.402,13.365 M41.934,9.67c0.023,0.164,0.039,0.28,0.05,0.355c-0.01-0.075-0.026-0.191-0.047-0.355
		c0,0-0.081-1.505-1.693-1.505c-0.526,0-1.164,0.641-2.797-0.067v2.552c0.663,0.195,2.477-0.84,3.201-1.156
		C41.166,9.268,41.898,9.414,41.934,9.67 M40.159,36.482c-0.107-4.038-2.585-8.519-1.91-7.687c1.687,2.086,2.228,6.605,3.385,10.496
		c0-0.001,0.743,0.379,0.586-4.558c-0.034-1.002-0.441-2.331-0.936-3.259c-0.981-1.833-2.966-4.924-2.909-4.946
		c0.479-0.39,1.644,2.277,2.658,3.325c0.658,0.679,2.483,1.343,2.609,1.255c-1.464-2.837-5.011-5.511-4.64-5.842
		c2.611,2.446,3.436,2.563,3.544,2.435l-2.351-2.285c-0.664-0.89-1.544-1.575-1.42-1.547c1.048,0.232-0.548-0.872-1.781-1.209
		c-0.222-0.06-0.578-0.08-0.59-0.191c-0.02-0.189,0.289-0.108,0.549-0.189c0.169-0.049,0.339-0.18,0.344-0.422
		c-0.471,0.103-0.953-0.006-1.356-0.189c-0.832-0.386-2.321-0.834-3.008-0.563c-0.401,0.158-0.477,0.135-0.908,0.468
		c-0.19-0.079-0.715-0.415-1.457,0.481c-0.229,0.275-0.506,0.6-0.519,0.837c-0.032,0.599,0.012,0.03,0.16,0.599
		c0.06,0.239-0.21,0.676-1.305,1.043c-0.423,0.142-0.316,0.56-0.316,0.56c0.209-0.101,0.541-0.338,1.053-0.098
		c0.999,0.469,1.195-0.271,1.817-0.798c0,0-0.172,0.664-0.002,0.699c0.777,0.161,0.517,0.744,0.419,0.831
		c-0.979,0.873-0.568,1.204-0.919,1.741c-0.328,0.511-0.836,0.702-1.594,0.68c-1.045-0.034,1.368-1.613-0.941-2.27
		c0.363,0.605,0.509,1.091-0.298,1.56c-0.509,0.295-0.25,1.797-1.556,1.101c0,0.001-0.106,1.113-0.255,1.16
		c1.771,1.552,0.781,2.399,0.871,4.616c0.554,1.412-0.055,2.084-0.194,2.162c0.088,0.956,0.178,1.479,0.775,2.257
		c0.433,0.564-0.04,1.433,0.403,2.036c0.406-1.44,0.841-0.84,0.959-2.843c0.163-0.336,0.836-0.929,1.219-0.967
		c-0.006,1.208,0.44,2.308,0.344,2.816c0,0,1.019-0.186,1.333-0.074c0.25,0.086,0.444,0.414,0.451,0.615
		c-0.346,0.217-0.348,0.133-0.87,0.515c-0.914,0.666-1.335,2.024-1.335,2.024c-0.003,0.002,2.148-1.713,2.303-2.024
		c0.122-0.245,0.238-0.622,0.353-1.011c0.012-0.043-1.108-0.696-1.416-1.295c-0.962-1.87,1.489,1.105,1.547,0.847
		c0.144-0.645,0.593-1.254,0.593-1.254c-0.156-0.184-0.54-0.298-1.126-1.33c-1.34-2.359,1.553,1.007,1.553,1.007
		c0.768-0.438,0.771,0.147,0.869,0.77c0.009,0.058,1.302,1.011,1.364,1.072c0.365-0.341,0.629-0.802,0.778-1.119
		c0.02-0.042-2.335-2.131-2.737-2.82c-3.246-5.566,2.626,2.47,2.904,2.249c0.154-0.437,0.209-1.034,0.19-1.846
		c-0.001-0.02-1.105-0.781-1.811-1.948c-2.727-4.504,1.789,1.343,1.788,1.301c-0.054-0.964-0.843-5.146-0.298-3.889
		c0.28,0.645,1.159,3.316,0.998,6.038C38.423,37.11,39.682,36.607,40.159,36.482 M35.044,40.922c0,0-0.433-0.328-0.457-0.264
		c-0.071,0.189-0.165,0.403-0.292,0.657C34.182,41.543,34.522,41.38,35.044,40.922 M34.871,39.243
		c-0.054,0.365-0.054,0.651-0.17,1.066c-0.01,0.04,0.412,0.211,0.603,0.376c0.27-0.252,0.513-0.379,0.796-0.734
		c-0.063-0.04-1.192-1.021-1.194-0.979C34.898,39.104,34.895,39.085,34.871,39.243 M38.367,41.565
		c0.502-0.423,0.789-1.143,1.436-1.357c-0.489-0.447-0.966,0.444-1.215,0.135c0.447-0.709,0.733-1.249,0.781-2.134
		c0.026-0.478,0.579-0.922,0.709-1.186c-0.532,0.078-1.956,0.917-2.243,1.399c-0.958,1.266-0.908,2.451-4.91,4.219
		c-0.199,0,0.74-0.685,1.007-1.475c0.126-0.37,0.653-2.086,0.29-2.914c-0.828,0.84-0.658,1.114-0.891,1.737
		c-0.597,1.637-0.924,1.791-2.417,2.801c-0.198,0.134-1.343,1.904-2.829,1.988c0.15-0.041,0.065-0.41,0.566-0.738
		c1.664-1.089,1.03-3.441,3.201-3.833c-1.081-0.384-1.822,0.668-2.021,0.562c0.875-1.212,0.105-2.237,0.233-3.228
		c-0.292,0.155-0.584,0.51-0.611,0.804c-0.164,1.763-0.987,2.069-1.071,2.829c0.175,1.259-0.835,2.236-1.575,3.119
		c-0.143-0.731,0.048-1.383,0.971-1.988c0.509-0.334-0.048-1.337-0.048-1.337c-0.207,1.098-0.825,1.434-1.21,1.487
		c-0.334,0.048,1.178-1.535,1.003-2.983c-0.078-0.645-0.262-0.357-0.366-1.081c-1.305,1.447-0.35,2.347-1.687,4.017
		c-0.632,0.792-0.871,2.185-0.955,2.22c0.014-2.072,0.081-1.467,1.003-3.151c0.759-1.386-0.041-2.679-0.145-3.514
		c-1.659,1.143-1.522,3.348-1.564,2.869c-0.042-0.468-0.248-1.296-0.025-2.044c0.369-1.241-0.414-3.135-0.414-3.135
		c-2.324,3.644-0.375,7.902-0.52,7.849c-1.009-1.578-1.744-1.641-1.963-2.851c-0.12-0.659-1.317-4.268-3.516-4.331
		c1.109,0.955,0.841,1.086,0.914,2.651c-0.706,3.914,4.772,4.32,4.405,6.351c-0.751-1.203-1.897-1.711-3.623-2.65
		c-0.765-0.606-1.627-0.874-1.674-1.821c0.091-0.689,0.13-0.547,0.012-1.443c-0.085-0.64-0.714-0.253-1.176-1.588
		c-0.989,0.895-0.627,1.908-0.546,2.486c0.023,0.161,0.136,0.771-0.016,1.127c-0.353-0.243-0.596-0.743-0.989-1.243
		c-0.71-0.908-0.701-2.01-1.057-2.776c-0.165-0.354-0.4-0.838-0.539-0.844l-0.026,0.014c-0.173,1.424-0.089,2.667,0.557,3.734
		c0-0.001-0.178,0.306-0.322,0.385c-0.613-0.162-1.485-0.679-1.839-1.679c-0.763,0.642-0.222,1.469-0.258,1.455
		c-1.715-0.877,0.019-4.283-2.422-4.184c0.601,0.656,0.221,1.498,0.168,2.285c-0.014,1.276,1.608,2.27,1.608,2.27
		c-1.808-0.612-2.18,0.235-2.159,0.235c0,0,2.666,1.158,6.873,1.596c0.541,0.057,1.312,0.691,1.185,0.691
		c-0.54-0.043-1.609-0.739-3.152,0.631c0.907,0.024,1.529,1.502,3.006,0.653c3.808-1.077,5.218,0.812,5.838,1.299
		c-0.132,0.238-2.925-1.755-5.142-0.434c-1.18,0.703-3.072,0.066-4.556-1.043c0.6,1.528,3.149,3.251,3.99,3.253
		c1.035,0.001,2.355-1.35,3.855-1.275c2.401,0.118,2.735,2.263,2.469,2.099c0,0-1.889-3.125-4.317,0.213
		c1.134-0.521,2.653-0.389,3.981,0.242c0.179,0.086-0.326,0.644-0.683,1.051c-0.233,0.264-1.246,1.765-2.341,0.287
		c-0.164-0.221-0.686-1.593-4.112-1.301c1.294,0.583,2.722,2.114,3.427,2.812c1.795,1.776,4.508-2.156,4.612-1.717
		c0,0.884,0.454,1.312,0.692,1.79c0.601,1.202-0.764,1.003-1.504,0.692c0,0,1.417,2.207,2.602,0.979
		c1.313-1.361-1.718-2.389-0.756-3.471c0.543-0.608,2.448,1.363,3.31,1.369c2.329,0.261,2.208-1.951,3.437-1.888
		c-1.156-1.172-2.386-0.534-2.643-0.233c-0.775,0.904-1.676,0.298-2.297-0.189c-0.343-0.448-0.912-0.519-1.42-0.382
		c-0.242,0.02,0.488-0.855,1.437-0.671c2.142,0.417,4.29-0.353,4.817-0.648c0.861-0.484,1.345-1.305,2.309-2.223
		c-0.301,0.057-2.082,1.049-2.655,1.338c-1.717,0.862-2.79-0.257-2.983-0.252c-0.33,0.009-0.245-0.249,0.273-0.416
		c1.76-0.394,2.976-1.945,4.655-2.558C34.449,42.553,36.799,43.114,38.367,41.565 M37.693,44.581
		c0.702-1.003,1.105-2.084,1.342-3.25c-0.408,0.533-1.009,0.999-1.609,1.238C37.002,43.91,37.202,45.294,37.693,44.581
		 M44.072,33.509c-1.749,18.814-17.496,22.016-20.851,22.626c-0.178,0.033-18.961-2.348-20.855-22.62c0-0.008,0-29.912,0-29.912
		s17.938-2.317,41.705,0L44.072,33.509z M45.166,33.682L45.164,2.53c-25.025-2.414-43.914,0-43.914,0s0,31.149,0,31.156
		c1.994,21.116,21.772,23.598,21.96,23.562C26.743,56.613,43.324,53.278,45.166,33.682 M56.796,41.228
		c0,5.769,2.773,9.839,6.352,12.299c3.264,2.19,7.109,2.996,11.135,2.996c2.863,0,6.082-0.671,7.065-1.029
		c0.492-0.178,1.03-0.357,1.565-0.447c0.671-0.849,1.834-3.801,2.147-6.127c-0.18-0.312-0.85-0.401-1.162-0.179
		c-1.029,2.639-3.578,6.396-9.348,6.396c-7.335,0-13.282-5.188-13.282-14.579c0-9.258,5.813-13.597,12.655-13.597
		c6.485,0,8.498,3.488,9.169,6.531c0.312,0.267,0.984,0.223,1.207-0.09c-0.357-2.729-0.581-5.545-0.626-6.574
		c-0.402,0.044-0.715-0.045-1.252-0.179c-2.102-0.582-5.501-1.074-7.916-1.074c-4.65,0-8.81,1.253-12.075,3.801
		C59.032,32.015,56.796,36.264,56.796,41.228 M69.489,2.493l0.014-0.053l-0.023-0.049c-0.072-0.141-0.28-0.152-0.343-0.152
		c-0.047,0-0.114,0.005-0.175,0.029l-0.046,0.019L68.891,2.33c-0.239,0.415-0.339,0.449-1.328,0.449h-7.704
		c-0.834,0-1.208-0.044-1.287-0.461l-0.008-0.043l-0.031-0.032c-0.052-0.052-0.137-0.077-0.258-0.077
		c-0.044,0-0.195,0.005-0.277,0.06L57.946,2.26l-0.01,0.06c-0.132,0.742-0.407,1.92-0.703,2.754l-0.021,0.057l0.027,0.055
		c0.112,0.224,0.494,0.333,0.699,0.18l0.029-0.023l0.016-0.034c0.188-0.43,0.368-0.837,0.804-1.238
		c0.41-0.377,1.34-0.428,2.196-0.428h1.023c0.416,0,0.416,0,0.416,0.452v8.332c0,2.02-0.115,2.107-1.023,2.187l-0.67,0.056
		l-0.064,0.021c-0.111,0.067-0.173,0.207-0.165,0.371c0.005,0.126,0.054,0.281,0.176,0.343l0.032,0.017l0.037-0.002
		c1.141-0.034,1.83-0.055,2.585-0.055c0.729,0,1.329,0.018,2.438,0.055l0.036,0.002l0.032-0.017
		c0.122-0.062,0.174-0.228,0.183-0.362c0.01-0.161-0.038-0.289-0.132-0.35l-0.661-0.079c-0.933-0.08-0.988-0.203-0.988-2.187V4.076
		c0-0.191,0-0.371,0.031-0.402c0.03-0.031,0.232-0.031,0.366-0.031h1.323c0.998,0,1.677,0.143,2.077,0.438
		c0.176,0.13,0.329,0.601,0.408,1.262l0.005,0.042l0.027,0.032C68.545,5.5,68.671,5.55,68.814,5.55c0.177,0,0.323-0.076,0.385-0.198
		l0.018-0.037l-0.004-0.041C69.16,4.738,69.289,3.236,69.489,2.493 M84.812,12.427V5.718c0-1.985,0.056-2.109,0.987-2.206
		l0.391-0.037l0.065-0.023c0.093-0.062,0.142-0.19,0.131-0.353c-0.004-0.065-0.029-0.284-0.183-0.361L86.17,2.722l-0.037,0.002
		c-0.899,0.039-1.515,0.055-2.192,0.055c-0.809,0-1.459-0.021-2.248-0.055l-0.036-0.002l-0.033,0.016
		c-0.153,0.076-0.18,0.294-0.184,0.359c-0.012,0.163,0.037,0.292,0.13,0.355l0.419,0.06c0.951,0.098,1.008,0.221,1.008,2.206V7.86
		c0,0.454,0,0.454-0.788,0.454h-5.33c-0.788,0-0.788,0-0.788-0.454V5.718c0-1.985,0.056-2.108,0.989-2.206l0.354-0.037l0.063-0.023
		c0.094-0.062,0.141-0.191,0.131-0.354c-0.005-0.066-0.031-0.284-0.184-0.36l-0.033-0.016l-0.037,0.002
		c-0.848,0.039-1.472,0.055-2.155,0.055c-0.485,0-0.91-0.014-1.374-0.029c-0.298-0.009-0.612-0.019-0.97-0.026L72.84,2.723
		l-0.03,0.015c-0.153,0.075-0.181,0.293-0.185,0.358c-0.011,0.163,0.036,0.293,0.129,0.356l0.032,0.021l0.522,0.039
		c0.82,0.064,0.967,0.233,0.967,2.206v6.708c0,1.94-0.036,2.022-0.962,2.188l-0.361,0.062L72.92,14.71
		c-0.106,0.106-0.123,0.28-0.102,0.407c0.021,0.138,0.086,0.243,0.176,0.287l0.031,0.016l0.036-0.001
		c0.256-0.006,0.501-0.014,0.744-0.022c0.441-0.017,0.896-0.032,1.413-0.032c0.7,0,1.295,0.017,2.363,0.055l0.036,0.002l0.033-0.017
		c0.122-0.062,0.174-0.228,0.182-0.362c0.01-0.161-0.038-0.289-0.131-0.35l-0.604-0.079c-0.894-0.096-1.008-0.186-1.008-2.187V9.798
		c0-0.451,0-0.451,0.788-0.451h5.33c0.788,0,0.788,0,0.788,0.451v2.629c0,1.982-0.019,2.023-1.016,2.188l-0.4,0.062l-0.033,0.033
		c-0.105,0.107-0.122,0.281-0.101,0.409c0.021,0.137,0.087,0.241,0.176,0.286l0.034,0.016l0.037-0.002
		c0.891-0.039,1.542-0.055,2.247-0.055c0.733,0,1.381,0.02,2.249,0.055l0.036,0.002l0.032-0.016c0.154-0.076,0.181-0.295,0.185-0.36
		c0.011-0.162-0.037-0.291-0.13-0.353l-0.51-0.078C84.857,14.499,84.812,14.397,84.812,12.427 M100.385,12.715l0.01-0.045
		l-0.019-0.042c-0.081-0.179-0.279-0.259-0.438-0.259c-0.093,0-0.176,0.024-0.241,0.071l-0.045,0.052
		c-0.534,1.068-1.016,1.608-1.259,1.743c-0.401,0.201-0.966,0.265-2.322,0.265c-1.552,0-1.952-0.186-2.149-0.383
		c-0.264-0.281-0.315-0.888-0.315-1.84V9.65c0-0.361,0-0.361,0.472-0.361h1.081c0.651,0,1.137,0.016,1.4,0.089
		c0.259,0.065,0.392,0.233,0.473,0.603l0.167,0.726l0.029,0.06c0.069,0.084,0.2,0.134,0.35,0.134c0.17,0,0.308-0.064,0.37-0.171
		l0.019-0.033v-0.039c0-0.182-0.014-0.422-0.03-0.692c-0.021-0.34-0.045-0.725-0.045-1.097c0-0.39,0.023-0.789,0.045-1.141
		c0.016-0.285,0.03-0.542,0.03-0.741V6.947l-0.019-0.033c-0.062-0.109-0.2-0.173-0.371-0.173c-0.149,0-0.279,0.05-0.349,0.135
		l-0.18,0.827c-0.084,0.426-0.188,0.489-0.352,0.543c-0.199,0.067-0.759,0.105-1.538,0.105h-1.081c-0.472,0-0.472,0-0.472-0.379
		V4.245c0-0.602,0-0.602,0.416-0.602h1.342c0.791,0,1.396,0.018,1.772,0.108c0.851,0.213,1.021,0.75,1.279,1.563l0.036,0.112
		l0.026,0.047c0.062,0.078,0.171,0.12,0.303,0.12c0.128,0,0.308-0.044,0.391-0.167l0.028-0.043l-0.025-0.275
		c-0.097-1.085-0.185-2.006-0.285-2.289l-0.043-0.122L98.72,2.728c-0.207,0.051-1.362,0.051-2.48,0.051h-3.504
		c-0.717,0-1.332-0.016-2.191-0.055l-0.037-0.002l-0.032,0.016c-0.153,0.075-0.18,0.294-0.185,0.359
		c-0.011,0.163,0.036,0.292,0.129,0.355l0.362,0.06c0.954,0.113,1.01,0.237,1.01,2.206v6.708c0,2.02-0.116,2.107-1.025,2.187
		l-0.665,0.061l-0.037,0.036c-0.106,0.106-0.122,0.28-0.103,0.407c0.023,0.138,0.087,0.243,0.177,0.287l0.032,0.017l0.036-0.002
		c1.077-0.035,1.725-0.055,2.529-0.055h1.678c1.625,0,3.257,0.018,4.991,0.055l0.092,0.002l0.04-0.083
		C99.786,14.818,100.254,13.371,100.385,12.715 M102.189,27.274c0.268-0.181,0.179-0.984-0.089-1.118
		c-1.925,0.09-3.444,0.134-5.188,0.134c-1.923,0-3.444-0.089-5.635-0.134c-0.27,0.134-0.358,0.938-0.09,1.118l1.163,0.089
		c2.325,0.179,2.639,0.939,2.639,5.635v16.101c0,4.695-0.09,5.143-2.594,5.591l-0.761,0.134c-0.269,0.268-0.179,0.984,0.09,1.118
		c1.743-0.045,3.265-0.134,5.188-0.134c1.744,0,3.264,0.044,5.679,0.134c0.27-0.134,0.358-0.94,0.09-1.118l-1.297-0.134
		c-2.504-0.27-2.728-0.896-2.728-5.591v-6.307c0-1.341,0.089-1.431,2.236-1.431h12.791c2.146,0,2.235,0.09,2.235,1.431v6.307
		c0,4.695,0,5.143-2.728,5.591l-0.851,0.134c-0.268,0.268-0.179,0.984,0.089,1.118c1.969-0.09,3.579-0.134,5.412-0.134
		c1.744,0,3.266,0.044,5.411,0.134c0.27-0.134,0.358-0.94,0.09-1.118l-1.073-0.134c-2.595-0.314-2.684-0.896-2.684-5.591V32.998
		c0-4.695,0.089-5.367,2.684-5.635l0.939-0.089c0.269-0.181,0.178-0.984-0.09-1.118c-2.012,0.09-3.533,0.134-5.277,0.134
		c-1.833,0-3.354-0.044-5.412-0.134c-0.268,0.134-0.356,0.938-0.089,1.118l0.851,0.089c2.638,0.268,2.728,0.939,2.728,5.635v5.144
		c0,1.387-0.09,1.431-2.235,1.431h-12.791c-2.147,0-2.236-0.044-2.236-1.431v-5.144c0-4.695,0.089-5.367,2.683-5.635L102.189,27.274
		z M123.611,3.406c0.083-0.1,0.122-0.254,0.099-0.392c-0.019-0.116-0.08-0.212-0.171-0.269l-0.038-0.024l-0.046,0.003
		c-0.646,0.035-1.15,0.055-1.948,0.055c-0.715,0-1.406-0.018-2.117-0.055l-0.047-0.003l-0.04,0.027
		c-0.086,0.057-0.145,0.163-0.163,0.29c-0.02,0.14,0.016,0.274,0.097,0.369l0.038,0.045l0.525,0.041
		c0.428,0.035,0.719,0.149,0.818,0.32c0.217,0.383,0.336,1.727,0.336,3.787v2.144c0,2.196-0.621,4.813-3.584,4.813
		c-2.483,0-3.64-1.535-3.64-4.832V5.699c0-1.981,0.064-2.126,0.985-2.206l0.485-0.039l0.031-0.021
		c0.093-0.062,0.14-0.187,0.13-0.344c-0.009-0.13-0.062-0.291-0.184-0.351l-0.032-0.016l-0.037,0.002
		c-0.883,0.035-1.509,0.055-2.286,0.055c-0.765,0-1.424-0.02-2.304-0.055l-0.036-0.002l-0.033,0.016
		c-0.122,0.06-0.175,0.219-0.185,0.349c-0.01,0.157,0.036,0.283,0.13,0.346l0.031,0.021l0.502,0.039
		c0.924,0.08,0.987,0.225,0.987,2.206v4.397c0,2.254,0.464,3.644,1.503,4.508c0.821,0.702,2.025,1.058,3.579,1.058
		c1.468,0,2.872-0.54,3.663-1.406c0.904-0.968,1.343-2.457,1.343-4.551V7.6c0-0.944,0-3.157,0.248-3.742
		c0.087-0.188,0.406-0.331,0.813-0.364l0.507-0.041L123.611,3.406z M140.317,3.433c0.09-0.09,0.135-0.236,0.118-0.381
		c-0.017-0.133-0.082-0.244-0.181-0.307l-0.039-0.024l-0.046,0.003c-0.611,0.035-1.098,0.055-1.911,0.055
		c-0.657,0-1.271-0.016-2.192-0.055l-0.029-0.002l-0.027,0.01c-0.107,0.04-0.185,0.142-0.21,0.28
		c-0.029,0.167,0.021,0.335,0.129,0.429l0.033,0.029l0.36,0.042c0.64,0.08,0.964,0.175,1.051,0.307
		c0.223,0.352,0.352,1.73,0.352,3.78v3.987c0,0.182,0,0.39-0.013,0.532c-0.646-0.668-1.322-1.424-2.162-2.364l-2.592-2.909
		c-1.844-2.068-2.898-3.424-3.138-4.032l-0.042-0.106l-0.113,0.017c-0.223,0.034-0.528,0.054-0.836,0.054
		c-0.326,0-1.317,0-2.094-0.055l-0.04-0.003l-0.035,0.018c-0.099,0.05-0.167,0.152-0.189,0.281
		c-0.024,0.155,0.021,0.318,0.114,0.413l0.035,0.036l0.366,0.043c0.497,0.061,0.867,0.202,1.066,0.402
		c0.349,0.38,0.373,0.724,0.373,1.244v5.555c0.001,0.901,0.003,3.011-0.229,3.611c-0.043,0.095-0.202,0.223-0.705,0.29l-0.553,0.061
		l-0.036,0.035c-0.082,0.083-0.125,0.216-0.113,0.355c0.011,0.141,0.073,0.26,0.168,0.328l0.041,0.028l0.05-0.003
		c0.648-0.036,1.148-0.055,1.932-0.055c0.631,0,1.261,0.016,2.174,0.055l0.049,0.002l0.04-0.027
		c0.087-0.062,0.146-0.162,0.165-0.279c0.021-0.137-0.014-0.278-0.095-0.388l-0.039-0.052l-0.644-0.062
		c-0.446-0.036-0.76-0.141-0.837-0.283c-0.201-0.354-0.315-1.733-0.315-3.786V6.481c0-0.333,0.005-0.688,0.037-0.942
		c0.298,0.332,0.79,0.914,1.234,1.439c0.304,0.36,0.586,0.694,0.769,0.903l4.322,4.919c1.438,1.635,2.125,2.446,2.376,2.802
		l0.043,0.061h0.074c0.245,0,0.428-0.113,0.491-0.303l0.009-0.03l-0.004-0.032c-0.025-0.216-0.054-0.955-0.054-3.242l-0.001-4.707
		c-0.003-0.955-0.011-2.941,0.265-3.522c0.023-0.047,0.246-0.206,0.937-0.314l0.308-0.043L140.317,3.433z M138.011,49.009V33.088
		c0-4.74,0.09-5.501,2.728-5.725l1.119-0.089c0.268-0.181,0.178-0.984-0.09-1.118c-2.236,0.09-3.757,0.134-5.546,0.134
		c-1.878,0-3.398-0.044-5.635-0.134c-0.268,0.134-0.357,0.938-0.09,1.118l1.118,0.089c2.639,0.224,2.729,0.984,2.729,5.725v15.921
		c0,4.74-0.09,5.366-2.729,5.681l-1.118,0.134c-0.268,0.268-0.178,0.984,0.09,1.118c2.236-0.09,3.757-0.134,5.635-0.134
		c1.789,0,3.31,0.044,5.546,0.134c0.268-0.134,0.357-0.94,0.09-1.118l-1.119-0.134C138.101,54.375,138.011,53.749,138.011,49.009
		 M147.364,12.39V5.755c0-2.016,0.065-2.163,1.005-2.243l0.504-0.039l0.03-0.021c0.094-0.062,0.141-0.192,0.13-0.355
		c-0.004-0.065-0.03-0.284-0.184-0.359l-0.032-0.016l-0.036,0.002c-0.881,0.035-1.54,0.055-2.305,0.055
		c-0.802,0-1.441-0.02-2.343-0.055l-0.036-0.002l-0.031,0.016c-0.154,0.076-0.181,0.295-0.186,0.36
		c-0.01,0.163,0.038,0.292,0.131,0.354l0.031,0.021l0.502,0.039c0.939,0.08,1.005,0.227,1.005,2.243v6.634
		c0,2.006-0.047,2.109-1.01,2.225l-0.515,0.061l-0.035,0.035c-0.106,0.106-0.123,0.28-0.103,0.408
		c0.023,0.137,0.088,0.242,0.178,0.287l0.031,0.016l0.037-0.002c0.947-0.036,1.568-0.055,2.343-0.055
		c0.736,0,1.379,0.019,2.305,0.055l0.036,0.002l0.033-0.016c0.153-0.076,0.18-0.295,0.183-0.361c0.011-0.162-0.037-0.29-0.13-0.352
		l-0.528-0.078C147.412,14.499,147.364,14.396,147.364,12.39 M153.082,29.375c-3.398,2.64-5.635,6.889-5.635,11.853
		c0,5.769,2.772,9.839,6.35,12.299c3.267,2.19,7.111,2.996,11.138,2.996c2.861,0,6.083-0.671,7.064-1.029
		c0.493-0.178,1.03-0.357,1.566-0.447c0.671-0.849,1.834-3.801,2.146-6.127c-0.179-0.312-0.85-0.401-1.163-0.179
		c-1.028,2.639-3.578,6.396-9.347,6.396c-7.334,0-13.283-5.188-13.283-14.579c0-9.258,5.814-13.597,12.657-13.597
		c6.485,0,8.497,3.488,9.168,6.531c0.312,0.267,0.984,0.223,1.207-0.09c-0.357-2.729-0.58-5.545-0.626-6.574
		c-0.403,0.044-0.715-0.045-1.252-0.179c-2.103-0.582-5.501-1.074-7.916-1.074C160.506,25.574,156.347,26.827,153.082,29.375
		 M165.25,3.433c0.101-0.101,0.118-0.278,0.102-0.399c-0.02-0.136-0.079-0.239-0.171-0.291l-0.035-0.022l-0.043,0.003
		c-0.625,0.037-1.197,0.055-1.801,0.055c-0.731,0-1.435-0.02-1.928-0.055l-0.043-0.003l-0.038,0.022
		c-0.103,0.059-0.173,0.182-0.187,0.33c-0.016,0.148,0.032,0.286,0.128,0.368l0.033,0.029l0.379,0.042
		c0.651,0.074,0.711,0.211,0.712,0.211c0,0.122-0.019,0.309-0.158,0.675c-0.32,0.812-1.209,2.945-1.73,4.17
		c-0.138,0.316-0.312,0.73-0.505,1.187c-0.353,0.837-0.783,1.856-1.148,2.657c-0.882-2.025-1.694-4.058-2.519-6.134
		c-0.545-1.338-0.857-2.312-0.916-2.554c0.028-0.059,0.19-0.139,0.747-0.213l0.321-0.042l0.033-0.028
		c0.094-0.082,0.142-0.219,0.128-0.367c-0.015-0.148-0.084-0.272-0.188-0.331l-0.037-0.021l-0.041,0.002
		c-0.83,0.039-1.48,0.055-2.248,0.055c-0.777,0-1.372-0.017-1.929-0.055l-0.046-0.003l-0.039,0.024
		c-0.108,0.068-0.18,0.193-0.19,0.336c-0.012,0.142,0.038,0.277,0.134,0.36l0.034,0.029l0.38,0.042
		c0.725,0.084,0.973,0.416,1.393,1.44l3.28,8.086c0.39,0.969,0.676,1.797,0.851,2.461l0.019,0.07l0.065,0.027
		c0.108,0.044,0.222,0.065,0.334,0.065c0.107,0,0.208-0.028,0.285-0.08l0.042-0.027l0.016-0.048
		c0.319-1.001,1.214-3.196,1.932-4.849l1.006-2.292c0.864-1.96,1.583-3.437,2.079-4.269c0.237-0.384,0.486-0.553,0.855-0.585
		l0.613-0.04L165.25,3.433z M178.033,12.715l0.009-0.045l-0.019-0.042c-0.08-0.179-0.278-0.259-0.438-0.259
		c-0.092,0-0.175,0.024-0.241,0.071l-0.045,0.052c-0.534,1.068-1.015,1.608-1.259,1.743c-0.4,0.201-0.965,0.265-2.322,0.265
		c-1.553,0-1.95-0.185-2.148-0.383c-0.266-0.281-0.316-0.887-0.316-1.84V9.65c0-0.361,0-0.361,0.471-0.361h1.082
		c0.651,0,1.138,0.016,1.4,0.089c0.259,0.065,0.391,0.233,0.474,0.603l0.166,0.726l0.029,0.06c0.07,0.084,0.201,0.134,0.349,0.134
		c0.172,0,0.31-0.064,0.371-0.171l0.02-0.034v-0.038c0-0.182-0.016-0.422-0.03-0.692c-0.021-0.34-0.045-0.725-0.045-1.097
		c0-0.39,0.024-0.789,0.044-1.141c0.016-0.285,0.031-0.542,0.031-0.741V6.947l-0.02-0.033c-0.062-0.108-0.199-0.173-0.371-0.173
		c-0.148,0-0.278,0.05-0.349,0.134l-0.179,0.828c-0.085,0.426-0.189,0.489-0.352,0.543c-0.199,0.067-0.761,0.105-1.539,0.105h-1.082
		c-0.471,0-0.471,0-0.471-0.379V4.245c0-0.602,0-0.602,0.416-0.602h1.342c0.791,0,1.396,0.018,1.773,0.108
		c0.85,0.213,1.02,0.75,1.279,1.563l0.034,0.112l0.026,0.047c0.064,0.078,0.172,0.12,0.303,0.12c0.13,0,0.31-0.044,0.393-0.168
		l0.027-0.042l-0.023-0.274c-0.097-1.085-0.186-2.007-0.287-2.29l-0.043-0.122l-0.126,0.031c-0.207,0.051-1.363,0.051-2.48,0.051
		h-3.503c-0.719,0-1.334-0.016-2.192-0.055l-0.036-0.002l-0.033,0.016c-0.153,0.075-0.179,0.294-0.184,0.359
		c-0.011,0.163,0.035,0.292,0.129,0.355l0.361,0.06c0.953,0.113,1.011,0.237,1.011,2.206v6.708c0,2.02-0.116,2.107-1.026,2.187
		l-0.665,0.061l-0.037,0.036c-0.105,0.105-0.122,0.279-0.102,0.406c0.022,0.138,0.086,0.243,0.176,0.288l0.032,0.017l0.037-0.002
		c1.076-0.035,1.725-0.055,2.529-0.055h1.678c1.626,0,3.258,0.018,4.99,0.055l0.093,0.002l0.041-0.083
		C177.436,14.815,177.903,13.369,178.033,12.715 M187.664,8.511c-0.533,0.403-1.259,0.455-1.832,0.455
		c-0.842,0-1.101-0.03-1.178-0.055c-0.022-0.077-0.022-0.297-0.022-0.51v-4.36c0-0.419,0-0.454,1.068-0.454
		c2.096,0,2.839,1.469,2.839,2.727C188.539,7.348,188.26,8.045,187.664,8.511 M193.279,15.446c0.087-0.068,0.131-0.179,0.114-0.288
		c-0.016-0.102-0.078-0.184-0.168-0.219l-0.042-0.01c-0.444-0.032-0.895-0.215-1.204-0.489c-1.283-1.075-2.305-2.647-3.716-4.922
		c-0.098-0.157-0.111-0.229-0.109-0.261c0.62-0.259,2.367-1.172,2.367-3.224c0-1.561-0.884-2.349-1.622-2.735
		c-0.936-0.507-2.132-0.575-3.181-0.575c-1.706,0-3.029,0.047-4.168,0.148L181.5,2.887c-0.109,0.054-0.18,0.175-0.191,0.321
		c-0.014,0.16,0.047,0.314,0.151,0.39l0.03,0.022l0.633,0.078c0.608,0.074,0.696,0.206,0.696,2.037v6.691
		c0,1.971-0.047,2.072-0.992,2.188l-0.522,0.062l-0.035,0.042c-0.106,0.123-0.116,0.302-0.092,0.427
		c0.026,0.126,0.087,0.218,0.174,0.261l0.032,0.016l0.037-0.002c0.828-0.034,1.506-0.055,2.323-0.055
		c0.77,0,1.417,0.021,2.211,0.055l0.038,0.002l0.033-0.017c0.137-0.068,0.171-0.247,0.179-0.32c0.018-0.165-0.025-0.308-0.116-0.383
		l-0.029-0.026l-0.433-0.061c-0.957-0.133-0.995-0.215-0.995-2.188v-2.349c0-0.266,0-0.266,0.733-0.266
		c0.716,0,0.959,0.172,1.205,0.534c0.284,0.41,0.613,0.933,0.932,1.437c0.334,0.527,0.648,1.025,0.896,1.377
		c1.279,1.824,2.245,2.409,3.975,2.409c0.359,0,0.673-0.036,0.863-0.101L193.279,15.446z M197.974,5.271
		c0-0.719,0.27-1.926,2.075-1.926c1.644,0,2.145,1.069,2.397,2l0.026,0.054c0.061,0.072,0.16,0.113,0.282,0.113
		c0.142,0,0.33-0.057,0.412-0.182l0.024-0.036V5.252c0-0.762-0.156-1.826-0.344-2.324l-0.033-0.094h-0.101
		c-0.131,0-0.38-0.032-0.617-0.106c-0.444-0.119-1.143-0.247-1.768-0.247c-2.36,0-3.945,1.345-3.945,3.348
		c0,1.702,1.302,2.814,2.077,3.325l1.771,1.157c1.287,0.828,1.464,1.685,1.464,2.487c0,0.995-0.676,1.999-2.188,1.999
		c-1.885,0-2.709-1.454-3.067-2.674l-0.019-0.039c-0.056-0.083-0.157-0.129-0.284-0.129c-0.124,0-0.302,0.047-0.397,0.183
		l-0.029,0.039l0.002,0.05c0.035,0.842,0.275,2.222,0.521,2.671l0.019,0.036l0.035,0.02c0.365,0.213,1.387,0.708,2.979,0.708
		c2.461,0,4.113-1.443,4.113-3.591c0-1.49-0.785-2.7-2.396-3.698l-1.491-0.933C198.924,7.089,197.974,6.34,197.974,5.271
		 M196.149,42.524h-5.501c-1.252,0-1.297-0.045-0.94-1.073l2.819-7.782c0.491-1.341,0.938-2.415,1.071-2.639h0.091
		c0.269,0.536,0.67,1.745,1.027,2.818l2.415,7.288C197.535,42.345,197.445,42.524,196.149,42.524 M207.688,54.689
		c-1.924-0.226-2.504-0.896-3.802-4.741l-6.128-17.979c-0.67-1.967-1.385-4.023-1.968-5.991c-0.089-0.313-0.401-0.403-0.67-0.403
		c-0.493,0.582-1.252,1.386-2.326,1.7c0.135,0.716-0.134,1.564-0.76,3.174l-4.562,12.076c-1.879,5.009-3.131,7.916-3.937,9.973
		c-0.625,1.61-1.609,2.104-2.682,2.192l-1.477,0.134c-0.269,0.223-0.179,0.938,0.09,1.118c1.207-0.045,2.817-0.134,4.292-0.134
		c2.103,0.044,3.489,0.044,4.652,0.134c0.402-0.18,0.402-0.896,0.089-1.118l-1.475-0.134c-1.074-0.089-1.299-0.358-1.299-0.896
		c0-0.492,0.313-1.699,0.984-3.712l1.565-4.695c0.313-0.939,0.582-1.073,1.7-1.073h6.753c1.341,0,1.521,0.134,1.834,1.118
		l1.967,6.082c0.358,1.073,0.581,1.878,0.581,2.369c0,0.448-0.625,0.718-1.563,0.807l-1.298,0.134
		c-0.313,0.223-0.269,0.938,0.089,1.118c1.297-0.045,2.996-0.134,5.144-0.134c2.012,0,3.578,0.044,5.412,0.134
		c0.223-0.18,0.312-0.896,0-1.118L207.688,54.689z M210.757,12.39V5.755c0-2.037,0.058-2.162,1.004-2.243l0.505-0.039l0.03-0.021
		c0.093-0.062,0.141-0.191,0.13-0.354c-0.004-0.065-0.029-0.284-0.183-0.36l-0.033-0.016l-0.036,0.002
		c-0.881,0.035-1.541,0.055-2.305,0.055c-0.8,0-1.441-0.02-2.344-0.055l-0.036-0.002l-0.033,0.017
		c-0.152,0.076-0.177,0.295-0.182,0.361c-0.011,0.162,0.037,0.29,0.129,0.352l0.032,0.021l0.502,0.039
		c0.949,0.081,1.006,0.206,1.006,2.243v6.634c0,2.006-0.047,2.109-1.01,2.225l-0.517,0.061l-0.035,0.035
		c-0.105,0.106-0.121,0.28-0.101,0.407c0.021,0.138,0.086,0.242,0.175,0.287l0.033,0.017l0.036-0.002
		c0.95-0.036,1.571-0.055,2.344-0.055c0.74,0,1.357,0.019,2.305,0.055l0.036,0.002l0.033-0.017c0.154-0.076,0.179-0.295,0.183-0.361
		c0.011-0.161-0.037-0.289-0.13-0.351l-0.528-0.078C210.805,14.499,210.757,14.396,210.757,12.39 M227.747,2.493l0.013-0.052
		l-0.022-0.048c-0.068-0.139-0.261-0.154-0.342-0.154c-0.047,0-0.115,0.005-0.176,0.029l-0.047,0.018l-0.024,0.044
		c-0.239,0.415-0.338,0.449-1.33,0.449h-7.702c-0.835,0-1.208-0.044-1.286-0.461l-0.008-0.043l-0.032-0.032
		c-0.052-0.052-0.136-0.077-0.257-0.077c-0.045,0-0.195,0.004-0.278,0.059l-0.051,0.034l-0.01,0.061
		c-0.132,0.745-0.407,1.924-0.703,2.754l-0.021,0.057l0.027,0.055c0.113,0.225,0.494,0.334,0.699,0.18l0.03-0.022l0.015-0.035
		c0.189-0.431,0.369-0.839,0.804-1.238c0.411-0.377,1.341-0.428,2.196-0.428h1.025c0.414,0,0.414,0,0.414,0.452v8.332
		c0,2.02-0.115,2.107-1.023,2.187l-0.671,0.056l-0.063,0.021c-0.11,0.068-0.173,0.209-0.166,0.374
		c0.006,0.125,0.057,0.28,0.179,0.342l0.031,0.015l0.036-0.001c1.142-0.034,1.829-0.055,2.585-0.055c0.729,0,1.33,0.018,2.437,0.055
		l0.036,0.002l0.031-0.016c0.154-0.076,0.181-0.295,0.185-0.36c0.011-0.162-0.037-0.291-0.13-0.353l-0.662-0.079
		c-0.934-0.08-0.988-0.203-0.988-2.187V4.073c0-0.19,0-0.368,0.03-0.399c0.031-0.031,0.233-0.031,0.368-0.031h1.321
		c0.998,0,1.679,0.143,2.077,0.438c0.176,0.129,0.328,0.601,0.408,1.262l0.005,0.042l0.027,0.032
		c0.067,0.083,0.193,0.133,0.338,0.133c0.177,0,0.325-0.076,0.385-0.198l0.02-0.037l-0.006-0.041
		C227.417,4.739,227.546,3.238,227.747,2.493 M235.371,26.246c-0.761-0.18-3.131-0.672-5.681-0.672
		c-6.753,0-11.182,2.102-14.178,5.233c-2.771,2.95-4.024,6.797-4.024,10.599c0,3.935,1.431,7.468,4.115,10.152
		c3.442,3.487,8.317,4.964,13.64,4.964c2.415,0,5.634-0.536,8.006-1.162c0.849-0.225,1.654-0.403,2.19-0.403
		c0.18-0.134,0.18-0.402,0.046-0.537c-0.805-0.312-1.073-1.386-1.073-3.175V48.74c0-2.28,0.044-3.533,1.922-3.756l0.717-0.09
		c0.312-0.269,0.268-0.938-0.046-1.118c-1.476,0.089-2.997,0.134-4.74,0.134c-2.639,0-5.098-0.045-6.395-0.134
		c-0.314,0.134-0.359,0.939,0,1.118l1.968,0.224c2.772,0.313,2.906,0.582,2.906,4.338v1.789c0,1.43-0.224,2.236-0.447,2.549
		c-0.493,0.761-2.146,1.342-4.921,1.342c-8.988,0-13.416-6.754-13.416-15.34c0-6.708,3.802-12.88,12.479-12.88
		c4.562,0,7.915,1.521,9.169,6.351c0.268,0.268,1.073,0.225,1.207-0.135c-0.402-2.684-0.672-5.009-0.672-6.483
		C237.607,26.737,236.22,26.424,235.371,26.246 M241.901,3.441c0.095-0.083,0.145-0.218,0.135-0.36
		c-0.011-0.142-0.082-0.268-0.19-0.335l-0.037-0.025l-0.047,0.003c-1.324,0.077-2.105,0.077-3.507,0l-0.038-0.002l-0.033,0.017
		c-0.104,0.052-0.176,0.157-0.196,0.288c-0.025,0.15,0.021,0.306,0.121,0.406l0.036,0.036l0.385,0.043
		c0.361,0.045,0.587,0.133,0.651,0.182c-0.059,0.267-0.711,1.476-1.105,2.21l-0.085,0.158c-0.449,0.868-0.967,1.803-1.622,2.927
		c-0.491-0.887-0.97-1.863-1.434-2.809c-0.183-0.371-0.364-0.741-0.547-1.104c-0.134-0.27-0.555-1.222-0.562-1.37
		c0-0.038,0.085-0.113,0.661-0.195l0.289-0.044l0.034-0.034c0.1-0.101,0.143-0.285,0.104-0.446c-0.031-0.127-0.112-0.221-0.22-0.256
		l-0.028-0.009l-0.028,0.002c-0.455,0.036-1.124,0.055-1.981,0.055c-0.862,0-1.546-0.018-2.151-0.055l-0.044-0.003l-0.037,0.022
		c-0.091,0.052-0.152,0.15-0.175,0.275c-0.026,0.149,0.013,0.306,0.102,0.408l0.032,0.039l0.573,0.101
		c0.493,0.083,0.741,0.125,1.368,1.34l2.198,4.288c0.526,1.014,0.582,1.224,0.582,2.245v0.95c0,2.021-0.047,2.126-0.989,2.224
		l-0.63,0.061l-0.036,0.037c-0.106,0.106-0.121,0.28-0.1,0.408c0.021,0.137,0.087,0.241,0.176,0.285l0.032,0.017l0.036-0.002
		c1.004-0.036,1.657-0.055,2.437-0.055c0.755,0,1.424,0.021,2.529,0.055l0.036,0.002l0.031-0.017
		c0.091-0.044,0.155-0.149,0.177-0.288c0.021-0.127,0.005-0.301-0.103-0.406l-0.037-0.037l-0.76-0.06
		c-0.862-0.065-0.986-0.207-0.986-2.224v-0.971c0-1.396,0.04-1.534,0.856-2.945l1.174-2.032c0.106-0.183,0.209-0.361,0.307-0.532
		c0.733-1.28,1.263-2.206,2.055-2.343l0.562-0.099L241.901,3.441z M251.782,39.931c0-9.795,6.037-12.971,10.688-12.971
		c8.542,0,11.808,7.961,11.808,15.341c0,8.81-5.1,12.835-10.466,12.835C255.003,55.136,251.782,46.549,251.782,39.931
		 M247.311,41.361c0,8.05,5.992,15.161,15.921,15.161c8.632,0,15.519-6.574,15.519-15.608c0-7.871-5.188-15.34-15.519-15.34
		C254.019,25.574,247.311,32.417,247.311,41.361 M262.553,9.594c0,3.842-2.271,5.204-4.217,5.204c-3.845,0-4.871-3.892-4.871-6.191
		c0-3.883,2.323-5.261,4.312-5.261C261.302,3.345,262.553,6.711,262.553,9.594 M264.703,9.016c0-3.147-2.069-6.534-6.61-6.534
		c-3.863,0-6.777,2.89-6.777,6.721c0,3.211,2.328,6.46,6.777,6.46C261.861,15.662,264.703,12.805,264.703,9.016 M277.21,5.391
		l0.018-0.034l-0.001-0.039c-0.037-0.674-0.059-1.544-0.059-2.451v-0.18l-0.175,0.04c-0.225,0.052-1.373,0.052-2.483,0.052h-3.43
		c-0.701,0-1.325-0.016-2.153-0.055l-0.036-0.002l-0.033,0.016c-0.154,0.076-0.181,0.294-0.184,0.36
		c-0.011,0.163,0.036,0.292,0.13,0.354l0.359,0.06c0.946,0.114,0.992,0.217,0.992,2.206v6.708c0,1.971-0.046,2.072-0.992,2.188
		l-0.514,0.061l-0.036,0.035c-0.106,0.105-0.122,0.278-0.103,0.405c0.022,0.139,0.086,0.244,0.177,0.289l0.031,0.017l0.038-0.002
		c0.872-0.036,1.501-0.055,2.323-0.055c0.753,0,1.398,0.02,2.474,0.055l0.037,0.002l0.032-0.017
		c0.123-0.062,0.175-0.228,0.183-0.362c0.011-0.161-0.037-0.289-0.131-0.35l-0.698-0.079c-0.95-0.08-1.008-0.203-1.008-2.187V9.836
		c0-0.359,0-0.359,0.473-0.359h1.268c0.653,0,1.141,0.015,1.391,0.086c0.263,0.083,0.403,0.255,0.502,0.606l0.196,0.771l0.034,0.029
		c0.184,0.158,0.58,0.149,0.698-0.029l0.023-0.036v-0.043c0-0.193-0.014-0.442-0.03-0.719c-0.021-0.338-0.043-0.722-0.043-1.09
		c0-0.378,0.022-0.776,0.042-1.129c0.017-0.29,0.031-0.551,0.031-0.752V7.128l-0.023-0.036c-0.089-0.133-0.277-0.148-0.355-0.148
		c-0.153,0-0.289,0.051-0.358,0.135l-0.197,0.805c-0.105,0.452-0.23,0.497-0.372,0.549c-0.197,0.065-0.772,0.104-1.538,0.104h-1.268
		c-0.473,0-0.473,0-0.473-0.359V4.245c0-0.602,0-0.602,0.417-0.602h1.137c0.771,0,1.379,0,1.771,0.108
		c0.798,0.208,1.038,0.742,1.199,1.656l0.009,0.051l0.038,0.033c0.072,0.062,0.172,0.096,0.282,0.096
		C276.966,5.587,277.143,5.526,277.21,5.391"/>
</g>
</svg>
