<?xml version="1.0" encoding="UTF-8" standalone="no"?>
<svg
   xmlns:dc="http://purl.org/dc/elements/1.1/"
   xmlns:cc="http://creativecommons.org/ns#"
   xmlns:rdf="http://www.w3.org/1999/02/22-rdf-syntax-ns#"
   xmlns:svg="http://www.w3.org/2000/svg"
   xmlns="http://www.w3.org/2000/svg"
   viewBox="0 0 720 455.44"
   height="455.44"
   width="720"
   xml:space="preserve"
   id="svg2"
   version="1.1"><metadata
     id="metadata8"><rdf:RDF><cc:Work
         rdf:about=""><dc:format>image/svg+xml</dc:format><dc:type
           rdf:resource="http://purl.org/dc/dcmitype/StillImage" /></cc:Work></rdf:RDF></metadata><defs
     id="defs6"><clipPath
       id="clipPath20"
       clipPathUnits="userSpaceOnUse"><path
         id="path18"
         d="M 0,3415.79 V 0 h 5400 v 3415.79 z" /></clipPath></defs><g
     transform="matrix(1.3333333,0,0,-1.3333333,0,455.44)"
     id="g10"><g
       transform="scale(0.1)"
       id="g12"><g
         id="g14"><g
           clip-path="url(#clipPath20)"
           id="g16"><path
             id="path22"
             style="fill:#ffffff;fill-opacity:1;fill-rule:nonzero;stroke:none"
             d="m 4819.71,402.609 h 53.68 v 253.692 h 96.11 v 49.347 h -245.9 v -49.347 h 96.11 z m -294.38,-5.199 c 56.71,0 91.34,20.781 122.95,53.68 l -34.2,34.64 c -25.98,-24.25 -49.79,-39.402 -87.02,-39.402 -58.01,0 -100,48.492 -100,107.801 v 0.863 c 0,59.309 41.99,106.93 100,106.93 34.63,0 60.61,-15.152 84.85,-37.66 l 34.2,39.398 c -29,27.699 -62.77,47.18 -118.62,47.18 -91.77,0 -156.28,-70.559 -156.28,-156.711 v -0.867 c 0,-87.012 65.8,-155.852 154.12,-155.852 z m -419.41,125.551 51.95,121.219 52.38,-121.219 h -104.33 z m -105.2,-120.352 h 54.55 l 31.17,73.161 h 143.3 l 30.73,-73.161 h 56.28 l -133.34,305.2 h -49.35 l -133.34,-305.2 z M 3782.66,548.07 v 109.09 h 61.91 c 39.83,0 65.37,-18.609 65.37,-54.109 v -0.871 c 0,-31.598 -25.11,-54.11 -65.37,-54.11 h -61.91 z m -53.25,-145.461 h 53.25 v 97.403 h 60.18 c 66.67,0 121.21,35.5 121.21,103.468 v 0.872 c 0,61.039 -44.59,101.296 -115.15,101.296 h -119.49 z m -414.47,0 h 52.38 V 619.07 l 94.81,-142 h 1.73 l 95.68,142.86 V 402.609 h 53.25 v 303.039 h -56.72 l -92.21,-143.296 -92.21,143.296 h -56.71 z m -170.3,0 h 53.24 v 303.039 h -53.24 V 402.609" /><path
             id="path24"
             style="fill:#ffffff;fill-opacity:1;fill-rule:nonzero;stroke:none"
             d="m 2773.2,442.441 c -29.44,0 -50.65,18.61 -50.65,44.149 v 0.871 c 0,19.48 12.12,38.098 40.26,50.219 l 67.53,-68.84 c -17.31,-16.449 -36.36,-26.399 -57.14,-26.399 z m 7.79,144.161 c -16.88,18.609 -22.94,29.867 -22.94,45.019 v 0.871 c 0,21.207 14.28,36.36 35.93,36.36 20.35,0 34.63,-13.852 34.63,-34.204 v -0.867 c 0,-21.64 -16.45,-35.929 -47.62,-47.179 z m 119.92,-190.051 39.39,28.14 -47.62,48.481 c 15.59,21.219 29.01,45.027 41.13,69.269 l -40.26,21.207 c -9.96,-21.207 -20.78,-41.117 -32.47,-58.437 l -51.95,52.809 c 40.26,15.16 66.67,38.968 66.67,78.8 v 0.86 c 0,40.699 -32.47,73.16 -80.52,73.16 -54.12,0 -87.02,-35.488 -87.02,-76.192 v -0.867 c 0,-22.07 7.79,-41.121 25.11,-63.199 -41.56,-17.75 -64.5,-45.891 -64.5,-84.852 v -0.871 c 0,-52.379 42.42,-86.578 98.7,-86.578 36.81,0 67.1,15.149 93.08,39.379 l 40.26,-41.109 v 0" /><path
             id="path26"
             style="fill:#ffffff;fill-opacity:1;fill-rule:nonzero;stroke:none"
             d="m 2342.46,402.609 h 53.68 v 120.782 l 120.35,182.257 h -61.04 l -85.72,-134.207 -84.85,134.207 H 2222.1 L 2342.46,522.09 Z M 1970.5,555.43 v 101.73 h 77.49 c 39.39,0 62.77,-17.75 62.77,-50.219 v -0.859 c 0,-30.742 -24.24,-50.652 -62.34,-50.652 h -77.92 z m -53.25,-152.821 h 53.25 v 105.629 h 66.67 l 74.46,-105.629 h 62.77 l -81.82,114.723 c 42.43,12.117 72.3,41.988 72.3,91.777 v 0.86 c 0,26.41 -9.09,48.922 -25.11,65.383 -19.48,19.039 -49.36,30.296 -87.45,30.296 h -135.07 z m -170.31,0 h 53.25 v 303.039 h -53.25 z m -245.07,-4.757 c 79.23,0 130.31,45.449 130.31,135.929 v 171.867 h -53.25 V 531.18 c 0,-55.84 -29,-84.418 -76.19,-84.418 -47.62,0 -76.63,30.308 -76.63,86.59 v 172.296 h -53.25 V 531.18 c 0,-87.879 50.22,-133.328 129.01,-133.328 z m -385.03,48.476 c -60.17,0 -103.03,48.922 -103.03,107.801 v 0.863 c 0,58.879 41.99,106.93 102.17,106.93 60.17,0 103.03,-48.922 103.03,-107.793 v -0.867 c 0,-21.211 -5.19,-40.692 -15.59,-56.711 l -52.38,47.621 -34.2,-38.961 51.95,-44.16 c -14.28,-9.09 -32.03,-14.723 -51.95,-14.723 z m 127.71,-52.808 34.2,38.089 -34.63,29.442 c 19.91,26.41 30.74,58.879 30.74,93.078 v 0.863 c 0,85.289 -64.94,155.848 -158.02,155.848 -93.08,0 -158.879,-71.43 -158.879,-156.711 v -0.867 c 0,-85.282 64.939,-155.852 158.019,-155.852 35.49,0 66.66,10.391 92.21,28.57 l 36.36,-32.46 z m -651.62,9.089 h 52.379 v 215.59 l 167.113,-215.59 h 44.59 V 705.648 H 804.617 V 496.121 L 642.281,705.648 H 592.93 Z m -170.309,0 h 53.254 V 705.648 H 422.621 V 402.609" /><path
             id="path28"
             style="fill:#ffffff;fill-opacity:1;fill-rule:nonzero;stroke:none"
             d="m 4497.51,978.949 h 94.99 v 390.941 l 303.02,-390.941 h 80.85 v 549.511 h -94.98 v -379.95 l -294.38,379.95 h -89.5 z m -399.02,-9.418 c 97.35,0 175.06,39.249 229.22,85.569 v 230.79 h -233.93 v -84 h 140.52 v -102.83 c -33.75,-25.12 -80.85,-41.61 -132.67,-41.61 -112.25,0 -186.83,83.21 -186.83,196.26 v 1.57 c 0,105.19 76.93,193.89 178.2,193.89 69.87,0 111.47,-22.76 153.86,-58.87 l 61.23,73 c -56.52,47.89 -115.39,74.58 -211.17,74.58 -165.63,0 -283.39,-130.31 -283.39,-284.17 v -1.57 c 0,-160.15 113.05,-282.609 284.96,-282.609 z m -539.6,9.418 h 96.55 v 549.511 h -96.55 z m -511.67,218.231 94.2,219.81 94.99,-219.81 H 3047.22 Z M 2856.46,978.949 h 98.91 l 56.52,132.671 h 259.84 l 55.74,-132.671 h 102.05 l -241.78,553.441 h -89.5 L 2856.46,978.949 Z m -365.58,263.771 v 197.82 h 112.26 c 72.22,0 118.53,-33.76 118.53,-98.13 v -1.57 c 0,-57.3 -45.53,-98.12 -118.53,-98.12 h -112.26 z m -96.56,-263.771 h 96.56 V 1155.58 H 2600 c 120.89,0 219.8,64.37 219.8,187.62 v 1.57 c 0,110.68 -80.86,183.69 -208.81,183.69 h -216.67 z m -724.25,0 h 94.99 v 392.511 l 171.92,-257.49 h 3.14 l 173.48,259.06 V 978.949 h 96.56 v 549.511 h -102.84 l -167.2,-259.84 -167.21,259.84 h -102.84 z m -509.15,218.231 94.2,219.81 94.98,-219.81 H 1160.92 Z M 970.16,978.949 h 98.91 l 56.52,132.671 h 259.84 l 55.74,-132.671 h 102.05 l -241.79,553.441 h -89.49 L 970.16,978.949 Z m -313.613,-9.418 c 102.844,0 165.641,37.679 222.957,97.339 l -62.024,62.8 c -47.097,-43.96 -90.277,-71.43 -157.792,-71.43 -105.184,0 -181.333,87.92 -181.333,195.47 v 1.57 c 0,107.54 76.149,193.89 181.333,193.89 62.8,0 109.902,-27.47 153.863,-68.29 l 62.019,71.43 c -52.601,50.24 -113.832,85.57 -215.09,85.57 -166.425,0 -283.394,-127.96 -283.394,-284.17 v -1.57 c 0,-157.79 119.324,-282.609 279.461,-282.609 v 0" /><path
             id="path30"
             style="fill:#ffffff;fill-opacity:1;fill-rule:nonzero;stroke:none"
             d="m 4770.3,2723.34 h 48.19 V 2835 h 138.29 v 43.88 h -138.29 v 74.83 h 155.92 v 43.87 H 4770.3 Z m -234.56,39.57 c -54.46,0 -93.24,44.27 -93.24,97.55 v 0.79 c 0,53.27 38,96.77 92.46,96.77 54.45,0 93.24,-44.27 93.24,-97.56 v -0.78 c 0,-53.29 -38,-96.77 -92.46,-96.77 z m -0.78,-44.27 c 84.23,0 143.78,64.64 143.78,141.82 v 0.79 c 0,77.18 -58.77,141.04 -143,141.04 -84.23,0 -143.78,-64.65 -143.78,-141.83 v -0.78 c 0,-77.18 58.76,-141.04 143,-141.04 z m -465.82,4.7 h 48.57 v 109.3 l 108.93,164.94 h -55.25 l -77.57,-121.45 -76.79,121.45 h -56.82 l 108.93,-166.11 z m -309.66,0 h 48.58 v 229.58 h 86.97 v 44.66 H 3672.5 v -44.66 h 86.98 z m -214.73,0 h 48.19 v 274.24 h -48.19 z m -189.66,-3.92 c 57.59,0 97.94,30.56 97.94,81.88 v 0.79 c 0,45.45 -30.16,66.21 -88.15,80.31 -52.5,12.54 -65.03,21.94 -65.03,43.1 v 0.78 c 0,18.02 16.45,32.52 44.66,32.52 25.07,0 49.76,-9.8 74.44,-28.21 l 25.86,36.43 c -27.82,22.34 -59.55,34.48 -99.52,34.48 -54.45,0 -93.63,-32.52 -93.63,-79.53 v -0.78 c 0,-50.54 32.91,-67.78 91.28,-81.89 50.93,-11.75 61.9,-22.33 61.9,-41.92 v -0.78 c 0,-20.76 -18.8,-34.48 -48.58,-34.48 -34.08,0 -60.33,12.93 -86.58,35.66 l -28.99,-34.48 c 32.91,-29.38 72.48,-43.88 114.4,-43.88 z m -360.87,142.22 v 92.07 h 70.13 c 35.65,0 56.81,-16.07 56.81,-45.45 v -0.78 c 0,-27.82 -21.94,-45.84 -56.42,-45.84 h -70.52 z m -48.19,-138.3 h 48.19 v 95.59 h 60.34 l 67.38,-95.59 h 56.81 l -74.05,103.82 c 38.4,10.97 65.43,38 65.43,83.06 v 0.78 c 0,23.9 -8.23,44.27 -22.72,59.16 -17.63,17.23 -44.66,27.42 -79.14,27.42 h -122.24 z m -296.89,0 h 205.3 v 43.09 h -157.11 v 73.66 h 137.52 v 43.09 h -137.52 v 71.3 h 155.15 v 43.1 h -203.34 z m -233.46,-1.96 h 42.31 l 114.01,276.2 h -52.11 l -82.27,-210.78 -82.67,210.78 h -53.28 l 114.01,-276.2 z m -239.88,1.96 h 48.19 v 274.24 h -48.19 z m -345.55,0 h 47.41 v 195.11 l 151.22,-195.11 h 40.36 v 274.24 h -47.41 v -189.62 l -146.92,189.62 h -44.66 z m -220.21,-4.31 c 71.69,0 117.92,41.13 117.92,123.02 v 155.53 h -48.19 V 2839.7 c 0,-50.55 -26.25,-76.4 -68.95,-76.4 -43.1,0 -69.35,27.42 -69.35,78.35 v 155.93 h -48.18 V 2839.7 c 0,-79.54 45.44,-120.67 116.75,-120.67 z m -559.07,4.31 h 205.29 v 43.09 h -157.1 v 73.66 h 137.51 v 43.09 h -137.51 v 71.3 h 155.14 v 43.1 h -203.33 z m -332.579,0 h 48.191 v 115.57 h 130.852 v -115.57 h 48.187 v 274.24 h -48.187 v -114 H 766.582 v 114 h -48.191 z m -214.422,0 h 48.582 v 229.58 h 86.976 v 44.66 H 416.996 v -44.66 h 86.973 v -229.58" /><path
             id="path32"
             style="fill:#ffffff;fill-opacity:1;fill-rule:nonzero;stroke:none"
             d="m 4682.8,1905.22 c -132.63,0 -227.09,107.82 -227.09,237.59 v 1.91 c 0,129.76 92.55,235.67 225.18,235.67 132.63,0 227.09,-107.82 227.09,-237.58 v -1.91 c 0,-129.77 -92.56,-235.68 -225.18,-235.68 z m -1.91,-107.82 c 205.15,0 350.18,157.44 350.18,345.41 v 1.91 c 0,187.97 -143.13,343.49 -348.27,343.49 -205.15,0 -350.18,-157.43 -350.18,-345.4 v -1.91 c 0,-187.97 143.12,-343.5 348.27,-343.5 z m -764.28,0 c 118.31,0 212.77,47.71 278.61,104 v 280.53 h -284.34 v -102.1 h 170.8 v -124.99 c -41.03,-30.54 -98.28,-50.57 -161.26,-50.57 -136.44,0 -227.09,101.14 -227.09,238.54 v 1.91 c 0,127.85 93.51,235.67 216.6,235.67 84.92,0 135.49,-27.67 187.01,-71.56 l 74.43,88.74 c -68.7,58.2 -140.26,90.64 -256.67,90.64 -201.33,0 -344.45,-158.39 -344.45,-345.4 v -1.91 c 0,-194.65 137.39,-343.5 346.36,-343.5 z m -864.47,276.71 114.5,267.16 115.45,-267.16 h -229.95 z m -231.86,-265.26 h 120.22 l 68.7,161.25 h 315.83 l 67.75,-161.25 h 124.04 l -293.88,672.68 h -108.78 l -293.88,-672.68 z m -346.35,-11.45 c 124.99,0 201.32,45.8 270.98,118.32 l -75.38,76.33 c -57.25,-53.43 -109.73,-86.83 -191.79,-86.83 -127.86,0 -220.41,106.87 -220.41,237.59 v 1.91 c 0,130.72 92.55,235.67 220.41,235.67 76.34,0 133.59,-33.39 187.02,-83.01 l 75.38,86.83 c -63.93,61.07 -138.36,104 -261.44,104 -202.29,0 -344.46,-155.52 -344.46,-345.4 v -1.91 c 0,-191.79 145.04,-343.5 339.69,-343.5 z m -605.88,11.45 h 117.36 v 667.91 h -117.36 z m -741.38,0 h 117.36 v 281.48 h 318.69 v -281.48 h 117.36 v 667.91 H 1562.72 V 2199.1 h -318.69 v 277.66 H 1126.67 Z M 708.75,1797.4 c 125,0 201.328,45.8 270.98,118.32 l -75.378,76.33 c -57.25,-53.43 -109.723,-86.83 -191.786,-86.83 -127.855,0 -220.41,106.87 -220.41,237.59 v 1.91 c 0,130.72 92.555,235.67 220.41,235.67 76.336,0 133.586,-33.39 187.012,-83.01 l 75.383,86.83 c -63.93,61.07 -138.352,104 -261.441,104 -202.282,0 -344.454,-155.52 -344.454,-345.4 v -1.91 c 0,-191.79 145.036,-343.5 339.684,-343.5 v 0" /><path
             id="path34"
             style="fill:#ffffff;fill-opacity:1;fill-rule:nonzero;stroke:none"
             d="M 143.406,143.41 H 5256.59 V 3272.38 H 143.406 Z M 5400,0 H 0 V 3415.79 H 5400 V 0" /></g></g></g></g></svg>