<?xml version="1.0" encoding="utf-8"?>
<!-- Generator: Adobe Illustrator 16.0.0, SVG Export Plug-In . SVG Version: 6.00 Build 0)  -->
<!DOCTYPE svg PUBLIC "-//W3C//DTD SVG 1.1//EN" "http://www.w3.org/Graphics/SVG/1.1/DTD/svg11.dtd">
<svg version="1.1" id="Layer_1" xmlns="http://www.w3.org/2000/svg" xmlns:xlink="http://www.w3.org/1999/xlink" x="0px" y="0px"
	 width="449px" height="31px" viewBox="0 0 449 31" enable-background="new 0 0 449 31" xml:space="preserve">
<g>
	<path fill="#800000" d="M10.504,1.8h5.984l9.535,22.558h-6.656l-1.6-4.031H9.096l-1.6,4.031H1L10.504,1.8z M15.943,15.495
		L13.447,9.16l-2.527,6.335H15.943z"/>
	<path fill="#800000" d="M28.488,1h6.049v23.358h-6.049V1z"/>
	<path fill="#800000" d="M38.312,18.342V7.048h6.078v9.375c0,1.889,0.992,2.912,2.465,2.912s2.561-1.023,2.561-2.912V7.048h6.047
		v17.31h-6.047v-2.399c-1.121,1.44-2.721,2.784-5.184,2.784C40.553,24.743,38.312,22.278,38.312,18.342z"/>
	<path fill="#800000" d="M59.209,7.048h6.08v2.368c1.119-1.44,2.719-2.752,5.15-2.752c2.305,0,4.064,1.024,4.992,2.816
		c1.504-1.728,3.264-2.816,5.791-2.816c3.68,0,5.92,2.304,5.92,6.335v11.359h-6.08v-9.407c0-1.888-0.928-2.912-2.367-2.912
		s-2.496,1.024-2.496,2.912v9.407h-6.047v-9.407c0-1.888-0.961-2.912-2.4-2.912s-2.463,1.024-2.463,2.912v9.407h-6.08V7.048z"/>
	<path fill="#800000" d="M90.76,7.048h6.08v2.432c1.119-1.44,2.721-2.816,5.184-2.816c3.68,0,5.887,2.432,5.887,6.368v11.327h-6.047
		v-9.375c0-1.92-0.992-2.944-2.463-2.944c-1.473,0-2.561,1.024-2.561,2.944v9.375h-6.08V7.048z"/>
	<path fill="#800000" d="M111.561,1h6.303v4.48h-6.303V1z M111.688,7.048h6.049v17.31h-6.049V7.048z"/>
	<path fill="#800000" d="M120.646,27.302c2.145-0.224,3.297-1.28,3.201-3.008h-2.432v-6.239h6.303v5.088
		c0,4.734-2.592,6.367-6.559,6.495L120.646,27.302z"/>
	<path fill="#800000" d="M140.902,1.96h17.92v5.439h-11.711v3.808h10.59v5.151h-10.59v7.999h-6.209V1.96z"/>
	<path fill="#800000" d="M161.799,7.048h6.08v3.488c0.992-2.368,2.592-3.904,5.471-3.776v6.399h-0.512
		c-3.168,0-4.959,1.824-4.959,5.792v5.407h-6.08V7.048z"/>
	<path fill="#800000" d="M176.006,1h6.305v4.48h-6.305V1z M176.135,7.048h6.047v17.31h-6.047V7.048z"/>
	<path fill="#800000" d="M185.414,15.783v-0.064c0-5.056,3.615-9.056,8.736-9.056c5.951,0,8.703,4.384,8.703,9.472
		c0,0.384,0,0.832-0.033,1.248h-11.582c0.48,1.888,1.855,2.848,3.744,2.848c1.471,0,2.592-0.545,3.84-1.76l3.359,2.783
		c-1.664,2.112-4.064,3.52-7.488,3.52C189.254,24.774,185.414,21.126,185.414,15.783z M197.189,14.279
		c-0.225-1.92-1.375-3.136-3.039-3.136c-1.6,0-2.688,1.216-3.008,3.136H197.189z"/>
	<path fill="#800000" d="M205.957,7.048h6.08v2.432c1.119-1.44,2.721-2.816,5.184-2.816c3.68,0,5.887,2.432,5.887,6.368v11.327
		h-6.047v-9.375c0-1.92-0.992-2.944-2.463-2.944c-1.473,0-2.561,1.024-2.561,2.944v9.375h-6.08V7.048z"/>
	<path fill="#800000" d="M226.086,15.783v-0.064c0-5.632,3.551-9.056,7.646-9.056c2.625,0,4.16,1.184,5.279,2.496V1h6.08v23.358
		h-6.08v-2.303c-1.184,1.439-2.654,2.688-5.248,2.688C229.637,24.743,226.086,21.319,226.086,15.783z M239.141,15.719v-0.064
		c0-2.271-1.568-3.936-3.553-3.936c-1.951,0-3.551,1.632-3.551,3.936v0.064c0,2.304,1.6,3.936,3.551,3.936
		C237.572,19.655,239.141,18.023,239.141,15.719z"/>
	<path fill="#800000" d="M247.557,22.151l2.271-3.648c1.984,1.312,4.129,1.984,5.92,1.984c1.057,0,1.568-0.32,1.568-0.928v-0.064
		c0-0.703-0.992-0.992-2.816-1.504c-3.424-0.896-6.143-2.048-6.143-5.503v-0.064c0-3.68,2.943-5.728,6.943-5.728
		c2.527,0,5.15,0.736,7.135,2.016l-2.08,3.84c-1.791-1.024-3.744-1.632-5.119-1.632c-0.928,0-1.408,0.352-1.408,0.864v0.064
		c0,0.672,1.023,0.992,2.816,1.536c3.424,0.96,6.143,2.144,6.143,5.504v0.063c0,3.808-2.848,5.792-7.07,5.792
		C252.805,24.743,249.924,23.878,247.557,22.151z"/>
	<path fill="#800000" d="M275.076,17.67c0-1.375,0.928-2.943,2.912-4.191c0.062-0.032,0.16-0.192,0.096-0.256
		c-0.512-0.64-0.961-1.6-0.961-2.4c0-1.696,1.186-3.36,2.752-4.607c1.184-0.928,2.688-1.696,4.033-1.696
		c1.887,0,2.688,0.992,2.688,1.728c0,0.672-1.248,1.888-1.408,1.92c-0.32,0.064-0.641-0.032-0.768-0.192
		c-0.512-0.512-1.441-1.408-2.625-1.44c-1.088-0.032-1.824,0.608-1.824,2.176c0,0.672,0.289,1.856,0.832,2.4
		c0.064,0.064,0.16,0.096,0.289,0.032c0.607-0.192,1.119-0.384,1.791-0.384c0.865,0,1.537,0.576,1.537,1.344
		c0,1.375-1.057,2.624-2.848,2.56c-0.865,0-1.984-0.384-2.369-0.512c-0.096-0.032-0.191,0-0.256,0.096
		c-0.191,0.288-0.32,0.576-0.32,1.216c0,3.456,2.881,6.496,7.393,6.496c4.479,0,6.271-2.432,6.271-4.864
		c0-3.583-1.855-4.639-3.584-4.639c-1.248,0-2.783,1.088-2.783,2.592c0,1.249,0.832,1.792,1.215,1.792
		c0.256,0,0.449-0.256,0.449-0.543v-0.544c0-0.864,0.639-1.504,1.406-1.504c1.568,0,1.953,1.024,1.953,1.856
		c0,1.472-1.184,2.655-2.721,2.655c-2.016,0-3.391-1.664-3.455-3.487c-0.031-0.864,0.191-1.984,1.119-3.072
		c1.057-1.248,2.912-2.112,5.057-2.112c2.879,0,4.672,0.512,5.791,0.48c0.672,0,1.057-0.224,1.057-0.736
		c0-1.024-1.057-1.344-1.857-1.568c-0.256-0.064-0.414-0.448-0.414-0.704c0-0.512,1.023-1.824,1.951-1.824
		c1.215,0,1.92,1.6,1.92,2.496c0,2.848-2.336,4.288-5.439,4.448c-0.16,0-0.16,0.096-0.129,0.16c0.289,0.704,0.385,1.28,0.385,2.624
		c0,4.383-4.225,9.44-10.943,9.44C278.5,24.903,275.076,21.735,275.076,17.67z"/>
	<path fill="#800000" d="M312.322,1.96h17.92v5.439h-11.711v3.808h10.59v5.151h-10.59v7.999h-6.209V1.96z"/>
	<path fill="#800000" d="M331.49,19.399v-0.064c0-3.615,2.719-5.439,6.783-5.439c1.6,0,3.168,0.288,4.16,0.672v-0.288
		c0-1.824-1.121-2.848-3.457-2.848c-1.822,0-3.23,0.384-4.799,0.96l-1.248-4.255c1.951-0.8,4.031-1.344,7.008-1.344
		c3.104,0,5.215,0.736,6.592,2.112c1.311,1.28,1.855,3.072,1.855,5.504v9.951H342.4v-1.823c-1.215,1.312-2.848,2.208-5.119,2.208
		C333.986,24.743,331.49,22.823,331.49,19.399z M342.498,18.086v-0.799c-0.641-0.257-1.504-0.449-2.4-0.449
		c-1.76,0-2.785,0.832-2.785,2.145v0.064c0,1.184,0.896,1.887,2.145,1.887C341.25,20.934,342.498,19.815,342.498,18.086z"/>
	<path fill="#800000" d="M351.971,7.048h6.08v2.368c1.119-1.44,2.719-2.752,5.15-2.752c2.305,0,4.064,1.024,4.992,2.816
		c1.504-1.728,3.264-2.816,5.791-2.816c3.68,0,5.92,2.304,5.92,6.335v11.359h-6.08v-9.407c0-1.888-0.928-2.912-2.367-2.912
		s-2.496,1.024-2.496,2.912v9.407h-6.047v-9.407c0-1.888-0.961-2.912-2.4-2.912s-2.463,1.024-2.463,2.912v9.407h-6.08V7.048z"/>
	<path fill="#800000" d="M383.555,1h6.303v4.48h-6.303V1z M383.682,7.048h6.049v17.31h-6.049V7.048z"/>
	<path fill="#800000" d="M393.795,1h6.049v23.358h-6.049V1z"/>
	<path fill="#800000" d="M403.777,1h6.305v4.48h-6.305V1z M403.906,7.048h6.047v17.31h-6.047V7.048z"/>
	<path fill="#800000" d="M413.188,15.783v-0.064c0-5.056,3.615-9.056,8.734-9.056c5.951,0,8.703,4.384,8.703,9.472
		c0,0.384,0,0.832-0.031,1.248H419.01c0.48,1.888,1.857,2.848,3.744,2.848c1.473,0,2.592-0.545,3.84-1.76l3.359,2.783
		c-1.664,2.112-4.062,3.52-7.486,3.52C417.027,24.774,413.188,21.126,413.188,15.783z M424.963,14.279
		c-0.225-1.92-1.377-3.136-3.041-3.136c-1.6,0-2.688,1.216-3.008,3.136H424.963z"/>
	<path fill="#800000" d="M432.449,22.151l2.271-3.648c1.984,1.312,4.129,1.984,5.92,1.984c1.057,0,1.568-0.32,1.568-0.928v-0.064
		c0-0.703-0.992-0.992-2.816-1.504c-3.424-0.896-6.143-2.048-6.143-5.503v-0.064c0-3.68,2.943-5.728,6.943-5.728
		c2.527,0,5.15,0.736,7.135,2.016l-2.08,3.84c-1.791-1.024-3.744-1.632-5.119-1.632c-0.928,0-1.408,0.352-1.408,0.864v0.064
		c0,0.672,1.023,0.992,2.816,1.536c3.424,0.96,6.143,2.144,6.143,5.504v0.063c0,3.808-2.848,5.792-7.07,5.792
		C437.697,24.743,434.816,23.878,432.449,22.151z"/>
</g>
<g>
</g>
<g>
</g>
<g>
</g>
<g>
</g>
<g>
</g>
<g>
</g>
</svg>
