<?xml version="1.0" encoding="utf-8"?>
<!-- Generator: Adobe Illustrator 16.0.4, SVG Export Plug-In . SVG Version: 6.00 Build 0)  -->
<!DOCTYPE svg PUBLIC "-//W3C//DTD SVG 1.1//EN" "http://www.w3.org/Graphics/SVG/1.1/DTD/svg11.dtd" [
	<!ENTITY st0 "fill:#7F1416;">
]>
<svg version="1.1" id="Layer_1" xmlns="http://www.w3.org/2000/svg" xmlns:xlink="http://www.w3.org/1999/xlink" x="0px" y="0px"
	 width="270px" height="54.29px" viewBox="0 0 270 54.29" style="enable-background:new 0 0 270 54.29;" xml:space="preserve">
<path style="&st0;" d="M268.5,3.83l0.02-0.03l0-0.04c-0.04-0.66-0.06-1.5-0.06-2.39V1.2l-0.17,0.04c-0.22,0.05-1.34,0.05-2.42,0.05
	h-3.34c-0.68,0-1.29-0.02-2.1-0.05l-0.04,0l-0.03,0.02c-0.15,0.07-0.18,0.29-0.18,0.35c-0.01,0.16,0.04,0.28,0.13,0.34L260.67,2
	c0.92,0.11,0.97,0.21,0.97,2.15v6.53c0,1.92-0.04,2.02-0.96,2.13l-0.5,0.06l-0.03,0.03c-0.1,0.1-0.12,0.27-0.1,0.39
	c0.02,0.13,0.08,0.24,0.17,0.28l0.03,0.02l0.04,0c0.85-0.04,1.46-0.05,2.26-0.05c0.73,0,1.36,0.02,2.41,0.05l0.03,0l0.03-0.02
	c0.12-0.06,0.17-0.22,0.18-0.35c0.01-0.16-0.04-0.28-0.13-0.34l-0.68-0.08c-0.92-0.08-0.98-0.2-0.98-2.13V8.15
	c0-0.35,0-0.35,0.46-0.35h1.23c0.64,0,1.11,0.01,1.35,0.08c0.25,0.08,0.39,0.25,0.49,0.59l0.19,0.75l0.03,0.03
	c0.18,0.15,0.56,0.15,0.68-0.03l0.02-0.03V9.15c0-0.19-0.01-0.43-0.03-0.7c-0.02-0.33-0.04-0.7-0.04-1.06c0-0.37,0.02-0.76,0.04-1.1
	c0.02-0.28,0.03-0.54,0.03-0.73V5.52l-0.02-0.03c-0.09-0.13-0.27-0.14-0.34-0.14c-0.15,0-0.28,0.05-0.35,0.13l-0.19,0.78
	c-0.1,0.44-0.22,0.48-0.36,0.53c-0.19,0.06-0.75,0.1-1.5,0.1h-1.23c-0.46,0-0.46,0-0.46-0.35V2.71c0-0.59,0-0.59,0.41-0.59h1.11
	c0.75,0,1.34,0,1.72,0.1c0.78,0.2,1.01,0.72,1.17,1.61l0.01,0.05l0.04,0.03c0.07,0.06,0.17,0.09,0.27,0.09
	C268.26,4.02,268.44,3.96,268.5,3.83L268.5,3.83z M256.33,7.35c0-3.06-2.01-6.36-6.43-6.36c-3.76,0-6.59,2.81-6.59,6.54
	c0,3.12,2.26,6.29,6.59,6.29C253.57,13.82,256.33,11.04,256.33,7.35L256.33,7.35z M254.24,7.92c0,3.74-2.21,5.06-4.1,5.06
	c-3.74,0-4.74-3.79-4.74-6.02c0-3.78,2.26-5.12,4.2-5.12C253.02,1.84,254.24,5.11,254.24,7.92L254.24,7.92z M239.41,38.83
	c0,7.83,5.83,14.75,15.49,14.75c8.4,0,15.1-6.4,15.1-15.19c0-7.66-5.05-14.92-15.1-14.92C245.94,23.47,239.41,30.12,239.41,38.83
	L239.41,38.83z M243.76,37.43c0-9.53,5.87-12.62,10.4-12.62c8.31,0,11.49,7.75,11.49,14.93c0,8.57-4.96,12.49-10.18,12.49
	C246.89,52.23,243.76,43.87,243.76,37.43L243.76,37.43z M234.15,1.93c0.09-0.08,0.14-0.21,0.13-0.35c-0.01-0.14-0.08-0.26-0.19-0.33
	l-0.04-0.02l-0.04,0c-1.29,0.08-2.05,0.07-3.41,0l-0.04,0l-0.03,0.02c-0.1,0.05-0.17,0.15-0.19,0.28c-0.02,0.15,0.02,0.3,0.12,0.4
	l0.04,0.04L230.87,2c0.35,0.04,0.57,0.13,0.64,0.18c-0.06,0.26-0.69,1.44-1.08,2.15l-0.08,0.15c-0.44,0.84-0.94,1.75-1.58,2.85
	c-0.48-0.86-0.94-1.81-1.4-2.73c-0.18-0.36-0.35-0.72-0.53-1.07c-0.13-0.26-0.54-1.19-0.55-1.33c0-0.04,0.08-0.11,0.64-0.19
	l0.28-0.04l0.03-0.03c0.1-0.1,0.14-0.28,0.1-0.43c-0.03-0.12-0.11-0.21-0.21-0.25l-0.03-0.01l-0.03,0
	c-0.44,0.04-1.09,0.05-1.93,0.05c-0.84,0-1.5-0.02-2.09-0.05l-0.04,0l-0.04,0.02c-0.09,0.05-0.15,0.15-0.17,0.27
	c-0.02,0.15,0.01,0.3,0.1,0.4l0.03,0.04l0.56,0.1c0.48,0.08,0.72,0.12,1.33,1.3l2.14,4.17c0.51,0.99,0.56,1.19,0.56,2.18v0.92
	c0,1.97-0.04,2.07-0.96,2.16l-0.61,0.06l-0.04,0.04c-0.1,0.1-0.12,0.27-0.1,0.4c0.02,0.13,0.08,0.23,0.17,0.28l0.03,0.02l0.04,0
	c0.98-0.04,1.61-0.05,2.37-0.05c0.74,0,1.39,0.02,2.46,0.05l0.04,0l0.03-0.02c0.09-0.04,0.15-0.15,0.17-0.28
	c0.02-0.12,0-0.29-0.1-0.4L231,12.86l-0.74-0.06c-0.84-0.06-0.96-0.2-0.96-2.16V9.69c0-1.36,0.04-1.49,0.83-2.87l1.14-1.98
	c0.1-0.18,0.2-0.35,0.3-0.52c0.71-1.25,1.23-2.15,2-2.28l0.55-0.1L234.15,1.93L234.15,1.93z M227.79,24.12
	c-0.74-0.17-3.05-0.65-5.53-0.65c-6.57,0-10.88,2.04-13.79,5.09c-2.7,2.87-3.92,6.61-3.92,10.31c0,3.83,1.39,7.27,4,9.88
	c3.35,3.39,8.09,4.83,13.27,4.83c2.35,0,5.48-0.52,7.79-1.13c0.83-0.22,1.61-0.39,2.13-0.39c0.17-0.13,0.17-0.39,0.04-0.52
	c-0.78-0.3-1.04-1.35-1.04-3.09V46c0-2.22,0.04-3.44,1.87-3.65l0.7-0.09c0.3-0.26,0.26-0.91-0.04-1.09
	c-1.44,0.09-2.92,0.13-4.61,0.13c-2.57,0-4.96-0.04-6.22-0.13c-0.31,0.13-0.35,0.91,0,1.09l1.91,0.22c2.7,0.3,2.83,0.57,2.83,4.22
	v1.74c0,1.39-0.22,2.18-0.43,2.48c-0.48,0.74-2.09,1.31-4.79,1.31c-8.75,0-13.05-6.57-13.05-14.93c0-6.53,3.7-12.53,12.14-12.53
	c4.44,0,7.7,1.48,8.92,6.18c0.26,0.26,1.04,0.22,1.18-0.13c-0.39-2.61-0.65-4.87-0.65-6.31C229.97,24.6,228.62,24.29,227.79,24.12
	L227.79,24.12z M220.38,1.01l0.01-0.05l-0.02-0.05c-0.07-0.13-0.25-0.15-0.33-0.15c-0.05,0-0.11,0-0.17,0.03l-0.04,0.02l-0.02,0.04
	c-0.23,0.4-0.33,0.44-1.29,0.44H211c-0.81,0-1.18-0.04-1.25-0.45l-0.01-0.04l-0.03-0.03c-0.05-0.05-0.13-0.07-0.25-0.07
	c-0.04,0-0.19,0-0.27,0.06l-0.05,0.03l-0.01,0.06c-0.13,0.72-0.4,1.87-0.68,2.68l-0.02,0.06l0.03,0.05
	c0.11,0.22,0.48,0.32,0.68,0.18l0.03-0.02l0.02-0.03c0.18-0.42,0.36-0.82,0.78-1.2c0.4-0.37,1.31-0.42,2.14-0.42h1
	c0.4,0,0.4,0,0.4,0.44v8.11c0,1.96-0.11,2.05-1,2.13l-0.65,0.05l-0.06,0.02c-0.11,0.07-0.17,0.2-0.16,0.36
	c0,0.12,0.05,0.27,0.17,0.33l0.03,0.02l0.04,0c1.11-0.03,1.78-0.05,2.51-0.05c0.71,0,1.29,0.02,2.37,0.05l0.03,0l0.03-0.02
	c0.15-0.07,0.17-0.29,0.18-0.35c0.01-0.16-0.04-0.28-0.13-0.34l-0.65-0.08c-0.91-0.08-0.96-0.2-0.96-2.13V2.54
	c0-0.18,0-0.36,0.03-0.39c0.03-0.03,0.23-0.03,0.36-0.03h1.29c0.97,0,1.63,0.14,2.02,0.43c0.17,0.13,0.32,0.58,0.4,1.23l0,0.04
	l0.03,0.03c0.07,0.08,0.19,0.13,0.33,0.13c0.17,0,0.32-0.07,0.38-0.19l0.02-0.04l0-0.04C220.06,3.19,220.18,1.73,220.38,1.01
	L220.38,1.01z M203.85,10.64V4.18c0-1.98,0.05-2.1,0.98-2.18l0.49-0.04l0.03-0.02c0.09-0.06,0.14-0.19,0.13-0.34
	c0-0.06-0.03-0.28-0.18-0.35l-0.03-0.02l-0.04,0c-0.86,0.03-1.5,0.05-2.24,0.05c-0.78,0-1.4-0.02-2.28-0.05l-0.04,0l-0.03,0.02
	c-0.15,0.07-0.17,0.29-0.18,0.35c-0.01,0.16,0.04,0.28,0.13,0.34l0.03,0.02L201.1,2c0.92,0.08,0.98,0.2,0.98,2.18v6.46
	c0,1.95-0.05,2.05-0.98,2.16l-0.5,0.06l-0.03,0.03c-0.1,0.1-0.12,0.27-0.1,0.4c0.02,0.13,0.08,0.24,0.17,0.28l0.03,0.02l0.04,0
	c0.92-0.04,1.53-0.05,2.28-0.05c0.72,0,1.32,0.02,2.24,0.05l0.04,0l0.03-0.02c0.15-0.07,0.17-0.29,0.18-0.35
	c0.01-0.16-0.04-0.28-0.13-0.34l-0.52-0.08C203.89,12.69,203.85,12.59,203.85,10.64L203.85,10.64z M200.86,51.79
	c-1.87-0.22-2.44-0.87-3.7-4.61l-5.96-17.49c-0.65-1.91-1.35-3.92-1.92-5.83c-0.09-0.3-0.39-0.39-0.65-0.39
	c-0.48,0.57-1.22,1.35-2.26,1.65c0.13,0.7-0.13,1.52-0.74,3.09l-4.44,11.75c-1.83,4.87-3.05,7.7-3.83,9.7
	c-0.61,1.57-1.57,2.05-2.61,2.13l-1.44,0.13c-0.26,0.22-0.17,0.91,0.09,1.09c1.17-0.04,2.74-0.13,4.18-0.13
	c2.05,0.04,3.4,0.04,4.53,0.13c0.39-0.17,0.39-0.87,0.09-1.09l-1.44-0.13c-1.04-0.09-1.26-0.35-1.26-0.87
	c0-0.48,0.31-1.65,0.96-3.61l1.52-4.57c0.31-0.92,0.57-1.04,1.65-1.04h6.57c1.3,0,1.48,0.13,1.79,1.09l1.91,5.92
	c0.35,1.04,0.57,1.83,0.57,2.31c0,0.44-0.61,0.7-1.52,0.78l-1.26,0.13c-0.3,0.22-0.26,0.91,0.09,1.09c1.26-0.04,2.91-0.13,5-0.13
	c1.96,0,3.48,0.04,5.27,0.13c0.22-0.17,0.3-0.87,0-1.09L200.86,51.79L200.86,51.79z M189.63,39.96h-5.35
	c-1.22,0-1.26-0.04-0.91-1.04l2.74-7.57c0.48-1.31,0.91-2.35,1.04-2.57h0.09c0.26,0.52,0.65,1.7,1,2.74l2.35,7.09
	C190.98,39.78,190.89,39.96,189.63,39.96L189.63,39.96z M191.41,3.71c0-0.7,0.26-1.87,2.02-1.87c1.6,0,2.09,1.04,2.33,1.95
	l0.03,0.05c0.06,0.07,0.16,0.11,0.27,0.11c0.14,0,0.32-0.06,0.4-0.18l0.02-0.04V3.69c0-0.74-0.15-1.78-0.33-2.26l-0.03-0.09h-0.1
	c-0.13,0-0.37-0.03-0.6-0.1C194.99,1.12,194.31,1,193.7,1c-2.29,0-3.84,1.31-3.84,3.26c0,1.66,1.27,2.74,2.02,3.24l1.72,1.12
	c1.25,0.81,1.42,1.64,1.42,2.42c0,0.97-0.66,1.94-2.13,1.94c-1.83,0-2.64-1.42-2.99-2.6l-0.02-0.04c-0.05-0.08-0.15-0.13-0.28-0.13
	c-0.12,0-0.29,0.05-0.39,0.18l-0.03,0.04l0,0.05c0.04,0.82,0.27,2.16,0.51,2.6l0.02,0.03l0.03,0.02c0.36,0.21,1.35,0.69,2.9,0.69
	c2.39,0,4-1.4,4-3.49c0-1.45-0.76-2.63-2.33-3.6l-1.45-0.91C192.33,5.48,191.41,4.75,191.41,3.71L191.41,3.71z M186.84,13.61
	c0.08-0.07,0.13-0.17,0.11-0.28c-0.01-0.1-0.08-0.18-0.16-0.21l-0.04-0.01c-0.43-0.03-0.87-0.21-1.17-0.48
	c-1.25-1.05-2.24-2.58-3.62-4.79c-0.09-0.15-0.11-0.22-0.11-0.25c0.6-0.25,2.3-1.14,2.3-3.14c0-1.52-0.86-2.29-1.58-2.66
	c-0.91-0.49-2.07-0.56-3.09-0.56c-1.66,0-2.95,0.05-4.05,0.14l-0.05,0.01c-0.11,0.05-0.17,0.17-0.19,0.31
	c-0.01,0.16,0.04,0.31,0.15,0.38l0.03,0.02l0.62,0.08c0.59,0.07,0.68,0.2,0.68,1.98v6.51c0,1.92-0.04,2.02-0.96,2.13l-0.51,0.06
	l-0.04,0.04c-0.1,0.12-0.11,0.29-0.09,0.41c0.02,0.12,0.08,0.21,0.17,0.25l0.03,0.02l0.04,0c0.81-0.03,1.47-0.05,2.26-0.05
	c0.75,0,1.38,0.02,2.15,0.05l0.04,0l0.03-0.02c0.13-0.07,0.17-0.24,0.17-0.31c0.02-0.16-0.02-0.3-0.11-0.37l-0.03-0.02l-0.42-0.06
	c-0.93-0.13-0.97-0.21-0.97-2.13V8.39c0-0.26,0-0.26,0.71-0.26c0.7,0,0.93,0.17,1.17,0.52c0.28,0.4,0.6,0.91,0.91,1.4
	c0.32,0.51,0.63,1,0.87,1.34c1.25,1.77,2.18,2.34,3.87,2.34c0.35,0,0.66-0.04,0.84-0.1L186.84,13.61L186.84,13.61z M181.38,6.86
	c-0.52,0.39-1.22,0.44-1.78,0.44c-0.82,0-1.07-0.03-1.15-0.05c-0.02-0.08-0.02-0.29-0.02-0.5V2.51c0-0.41,0-0.44,1.04-0.44
	c2.04,0,2.76,1.43,2.76,2.65C182.23,5.73,181.96,6.41,181.38,6.86L181.38,6.86z M172.01,10.95l0.01-0.04L172,10.87
	c-0.08-0.17-0.27-0.25-0.43-0.25c-0.09,0-0.17,0.02-0.23,0.07l-0.04,0.05c-0.52,1.04-0.99,1.56-1.23,1.7
	c-0.39,0.19-0.94,0.26-2.26,0.26c-1.51,0-1.9-0.18-2.09-0.37c-0.26-0.27-0.31-0.86-0.31-1.79V7.97c0-0.35,0-0.35,0.46-0.35h1.05
	c0.63,0,1.11,0.01,1.36,0.09c0.25,0.06,0.38,0.23,0.46,0.58L168.9,9l0.03,0.06c0.07,0.08,0.2,0.13,0.34,0.13
	c0.17,0,0.3-0.06,0.36-0.17l0.02-0.03V8.95c0-0.18-0.01-0.41-0.03-0.67c-0.02-0.33-0.04-0.71-0.04-1.07c0-0.38,0.02-0.77,0.04-1.11
	c0.02-0.28,0.03-0.53,0.03-0.72V5.34l-0.02-0.03c-0.06-0.11-0.2-0.17-0.36-0.17c-0.14,0-0.27,0.05-0.34,0.13l-0.17,0.81
	c-0.08,0.41-0.18,0.48-0.34,0.53c-0.19,0.07-0.74,0.1-1.5,0.1h-1.05c-0.46,0-0.46,0-0.46-0.37V2.71c0-0.59,0-0.59,0.41-0.59h1.3
	c0.77,0,1.36,0.02,1.73,0.1c0.83,0.21,0.99,0.73,1.24,1.52l0.03,0.11l0.03,0.05c0.06,0.08,0.17,0.12,0.3,0.12
	c0.12,0,0.3-0.04,0.38-0.16l0.03-0.04l-0.02-0.27c-0.09-1.06-0.18-1.95-0.28-2.23l-0.04-0.12l-0.12,0.03
	c-0.2,0.05-1.33,0.05-2.41,0.05h-3.41c-0.7,0-1.3-0.02-2.13-0.05l-0.04,0l-0.03,0.02c-0.15,0.07-0.18,0.29-0.18,0.35
	c-0.01,0.16,0.04,0.28,0.13,0.34L162.66,2c0.93,0.11,0.98,0.23,0.98,2.15v6.53c0,1.96-0.11,2.05-1,2.13L162,12.86l-0.04,0.04
	c-0.1,0.1-0.12,0.27-0.1,0.4c0.02,0.13,0.08,0.24,0.17,0.28l0.03,0.02l0.04,0c1.05-0.03,1.68-0.05,2.46-0.05h1.63
	c1.58,0,3.17,0.02,4.86,0.05l0.09,0l0.04-0.08C171.42,13,171.88,11.59,172.01,10.95L172.01,10.95z M159.57,1.92
	c0.1-0.1,0.12-0.27,0.1-0.39c-0.02-0.13-0.08-0.23-0.16-0.28l-0.04-0.02l-0.04,0c-0.61,0.04-1.16,0.05-1.75,0.05
	c-0.71,0-1.4-0.02-1.88-0.05l-0.04,0l-0.04,0.02c-0.1,0.06-0.17,0.18-0.18,0.32c-0.01,0.14,0.03,0.28,0.12,0.36l0.03,0.03L156.06,2
	c0.63,0.07,0.69,0.21,0.69,0.21c0,0.12-0.02,0.3-0.15,0.66c-0.31,0.79-1.18,2.87-1.68,4.06c-0.13,0.31-0.3,0.71-0.49,1.15
	c-0.34,0.81-0.76,1.81-1.12,2.59c-0.86-1.97-1.65-3.95-2.45-5.97c-0.53-1.3-0.84-2.25-0.89-2.48c0.03-0.06,0.19-0.14,0.73-0.21
	l0.31-0.04l0.03-0.03c0.09-0.08,0.14-0.21,0.13-0.36c-0.01-0.14-0.08-0.26-0.18-0.32l-0.04-0.02l-0.04,0
	c-0.81,0.04-1.44,0.05-2.19,0.05c-0.76,0-1.33-0.02-1.88-0.05l-0.04,0l-0.04,0.02c-0.11,0.07-0.17,0.19-0.19,0.33
	s0.04,0.27,0.13,0.35l0.03,0.03L147.1,2c0.71,0.08,0.95,0.41,1.36,1.4l3.19,7.87c0.38,0.94,0.66,1.75,0.83,2.39l0.02,0.07l0.07,0.03
	c0.11,0.04,0.21,0.06,0.32,0.06c0.1,0,0.2-0.03,0.28-0.08l0.04-0.03l0.01-0.05c0.31-0.97,1.18-3.11,1.88-4.72l0.98-2.23
	c0.84-1.91,1.54-3.34,2.02-4.15c0.23-0.37,0.47-0.54,0.83-0.57l0.6-0.04L159.57,1.92L159.57,1.92z M147.73,27.16
	c-3.31,2.57-5.48,6.7-5.48,11.53c0,5.61,2.7,9.57,6.18,11.97c3.18,2.13,6.92,2.92,10.83,2.92c2.79,0,5.92-0.65,6.88-1
	c0.48-0.17,1-0.35,1.52-0.44c0.65-0.83,1.78-3.7,2.09-5.96c-0.17-0.3-0.83-0.39-1.13-0.17c-1,2.57-3.48,6.22-9.09,6.22
	c-7.14,0-12.92-5.05-12.92-14.19c0-9.01,5.66-13.23,12.32-13.23c6.31,0,8.27,3.39,8.92,6.35c0.3,0.26,0.96,0.22,1.17-0.09
	c-0.35-2.65-0.56-5.4-0.61-6.4c-0.39,0.04-0.7-0.04-1.22-0.17c-2.05-0.57-5.35-1.04-7.7-1.04C154.95,23.47,150.9,24.68,147.73,27.16
	L147.73,27.16z M142.16,10.64V4.18c0-1.96,0.06-2.1,0.98-2.18l0.49-0.04l0.03-0.02c0.09-0.06,0.14-0.19,0.13-0.35
	c0-0.06-0.03-0.28-0.18-0.35l-0.03-0.02l-0.04,0c-0.86,0.03-1.5,0.05-2.24,0.05c-0.78,0-1.4-0.02-2.28-0.05l-0.04,0l-0.03,0.02
	c-0.15,0.07-0.17,0.29-0.18,0.35c-0.01,0.16,0.04,0.28,0.13,0.34l0.03,0.02L139.42,2c0.92,0.08,0.98,0.22,0.98,2.18v6.46
	c0,1.95-0.05,2.05-0.98,2.16l-0.5,0.06l-0.03,0.03c-0.1,0.1-0.12,0.27-0.1,0.4c0.02,0.13,0.08,0.24,0.17,0.28l0.03,0.02l0.04,0
	c0.92-0.04,1.53-0.05,2.28-0.05c0.72,0,1.34,0.02,2.24,0.05l0.04,0l0.03-0.02c0.15-0.07,0.18-0.29,0.18-0.35
	c0.01-0.16-0.04-0.28-0.13-0.34l-0.51-0.08C142.21,12.69,142.16,12.59,142.16,10.64L142.16,10.64z M133.06,46.27V30.78
	c0-4.61,0.09-5.35,2.65-5.57l1.09-0.09c0.26-0.17,0.17-0.96-0.09-1.09c-2.18,0.09-3.65,0.13-5.4,0.13c-1.83,0-3.31-0.04-5.48-0.13
	c-0.26,0.13-0.35,0.91-0.09,1.09l1.09,0.09c2.57,0.22,2.65,0.96,2.65,5.57v15.49c0,4.61-0.09,5.22-2.65,5.53l-1.09,0.13
	c-0.26,0.26-0.17,0.96,0.09,1.09c2.18-0.09,3.65-0.13,5.48-0.13c1.74,0,3.22,0.04,5.4,0.13c0.26-0.13,0.35-0.92,0.09-1.09
	l-1.09-0.13C133.15,51.49,133.06,50.88,133.06,46.27L133.06,46.27z M135.31,1.92c0.09-0.09,0.13-0.23,0.12-0.37
	c-0.01-0.13-0.08-0.24-0.18-0.3l-0.04-0.02l-0.04,0c-0.6,0.03-1.07,0.05-1.86,0.05c-0.64,0-1.24-0.02-2.13-0.05l-0.03,0l-0.03,0.01
	c-0.11,0.04-0.18,0.14-0.2,0.27c-0.03,0.16,0.02,0.33,0.12,0.42l0.03,0.03L131.42,2c0.62,0.08,0.94,0.17,1.02,0.3
	c0.22,0.34,0.34,1.68,0.34,3.68v3.88c0,0.18,0,0.38-0.01,0.52c-0.63-0.65-1.29-1.39-2.1-2.3l-2.52-2.83
	c-1.79-2.01-2.82-3.33-3.05-3.92l-0.04-0.1l-0.11,0.02c-0.22,0.03-0.51,0.05-0.81,0.05c-0.32,0-1.28,0-2.04-0.05l-0.04,0l-0.03,0.02
	c-0.1,0.05-0.16,0.15-0.18,0.27c-0.03,0.15,0.02,0.31,0.11,0.4l0.03,0.03L122.34,2c0.48,0.06,0.84,0.2,1.04,0.39
	c0.34,0.37,0.36,0.7,0.36,1.21v5.4c0,0.88,0,2.93-0.22,3.51c-0.04,0.09-0.2,0.22-0.69,0.28l-0.54,0.06l-0.03,0.04
	c-0.08,0.08-0.12,0.21-0.11,0.35c0.01,0.14,0.07,0.25,0.16,0.32l0.04,0.03l0.05,0c0.63-0.04,1.12-0.05,1.88-0.05
	c0.61,0,1.23,0.02,2.12,0.05l0.05,0l0.04-0.03c0.09-0.06,0.14-0.16,0.16-0.27c0.02-0.13-0.01-0.27-0.09-0.38l-0.04-0.05l-0.63-0.06
	c-0.44-0.04-0.74-0.14-0.81-0.28c-0.2-0.34-0.31-1.69-0.31-3.68V4.89c0-0.32,0.01-0.67,0.04-0.92c0.29,0.32,0.77,0.89,1.2,1.4
	c0.3,0.35,0.57,0.67,0.75,0.88l4.21,4.79c1.4,1.59,2.07,2.38,2.31,2.73l0.04,0.06h0.07c0.24,0,0.42-0.11,0.48-0.3l0.01-0.03l0-0.03
	c-0.02-0.21-0.05-0.93-0.05-3.16l0-4.58c0-0.93-0.01-2.86,0.26-3.43c0.02-0.05,0.24-0.2,0.91-0.31l0.3-0.04L135.31,1.92L135.31,1.92
	z M119.05,1.9c0.08-0.1,0.12-0.25,0.1-0.38c-0.02-0.11-0.08-0.21-0.17-0.26l-0.04-0.02l-0.04,0c-0.63,0.03-1.12,0.05-1.9,0.05
	c-0.7,0-1.37-0.02-2.06-0.05l-0.05,0l-0.04,0.03c-0.08,0.06-0.14,0.16-0.16,0.28c-0.02,0.14,0.01,0.27,0.09,0.36l0.04,0.04
	l0.51,0.04c0.42,0.03,0.7,0.15,0.8,0.31c0.21,0.37,0.33,1.68,0.33,3.68v2.09c0,2.14-0.6,4.68-3.49,4.68c-2.42,0-3.54-1.49-3.54-4.7
	V4.13c0-1.93,0.06-2.07,0.96-2.15l0.47-0.04l0.03-0.02c0.09-0.06,0.14-0.18,0.13-0.34c-0.01-0.13-0.06-0.28-0.18-0.34l-0.03-0.02
	l-0.04,0c-0.86,0.03-1.47,0.05-2.22,0.05c-0.74,0-1.39-0.02-2.24-0.05l-0.03,0l-0.03,0.02c-0.12,0.06-0.17,0.21-0.18,0.34
	c-0.01,0.15,0.04,0.28,0.13,0.34l0.03,0.02l0.49,0.04c0.9,0.08,0.96,0.22,0.96,2.15v4.28c0,2.19,0.45,3.54,1.46,4.39
	c0.8,0.68,1.97,1.03,3.48,1.03c1.43,0,2.79-0.53,3.56-1.37c0.88-0.94,1.31-2.39,1.31-4.43V5.98c0-0.92,0-3.07,0.24-3.64
	c0.08-0.18,0.39-0.32,0.79-0.35l0.49-0.04L119.05,1.9L119.05,1.9z M98.21,25.12c0.26-0.17,0.17-0.96-0.09-1.09
	c-1.87,0.09-3.35,0.13-5.05,0.13c-1.87,0-3.35-0.09-5.48-0.13c-0.26,0.13-0.35,0.91-0.09,1.09l1.13,0.09
	c2.26,0.17,2.57,0.91,2.57,5.48v15.67c0,4.57-0.09,5-2.52,5.44l-0.74,0.13c-0.26,0.26-0.17,0.96,0.09,1.09
	c1.7-0.04,3.18-0.13,5.05-0.13c1.7,0,3.18,0.04,5.53,0.13c0.26-0.13,0.35-0.92,0.09-1.09l-1.26-0.13c-2.44-0.26-2.65-0.87-2.65-5.44
	v-6.14c0-1.3,0.09-1.39,2.18-1.39h12.44c2.09,0,2.18,0.09,2.18,1.39v6.14c0,4.57,0,5-2.65,5.44l-0.83,0.13
	c-0.26,0.26-0.17,0.96,0.09,1.09c1.92-0.09,3.48-0.13,5.27-0.13c1.7,0,3.18,0.04,5.26,0.13c0.26-0.13,0.35-0.92,0.09-1.09
	l-1.04-0.13c-2.52-0.3-2.61-0.87-2.61-5.44V30.69c0-4.57,0.09-5.22,2.61-5.48l0.91-0.09c0.26-0.17,0.17-0.96-0.09-1.09
	c-1.96,0.09-3.44,0.13-5.13,0.13c-1.78,0-3.26-0.04-5.27-0.13c-0.26,0.13-0.35,0.91-0.09,1.09l0.83,0.09
	c2.57,0.26,2.65,0.91,2.65,5.48v5c0,1.35-0.09,1.39-2.18,1.39H96.95c-2.09,0-2.18-0.04-2.18-1.39v-5c0-4.57,0.09-5.22,2.61-5.48
	L98.21,25.12L98.21,25.12z M96.46,10.95l0.01-0.04l-0.02-0.04c-0.08-0.17-0.27-0.25-0.43-0.25c-0.09,0-0.17,0.02-0.23,0.07
	l-0.04,0.05c-0.52,1.04-0.99,1.56-1.22,1.7c-0.39,0.19-0.94,0.26-2.26,0.26c-1.51,0-1.9-0.18-2.09-0.37
	c-0.26-0.27-0.31-0.86-0.31-1.79V7.97c0-0.35,0-0.35,0.46-0.35h1.05c0.63,0,1.11,0.01,1.36,0.09c0.25,0.06,0.38,0.23,0.46,0.59
	L93.36,9l0.03,0.06c0.07,0.08,0.19,0.13,0.34,0.13c0.17,0,0.3-0.06,0.36-0.17l0.02-0.03V8.95c0-0.18-0.01-0.41-0.03-0.67
	c-0.02-0.33-0.04-0.71-0.04-1.07c0-0.38,0.02-0.77,0.04-1.11c0.02-0.28,0.03-0.53,0.03-0.72V5.34l-0.02-0.03
	c-0.06-0.11-0.2-0.17-0.36-0.17c-0.14,0-0.27,0.05-0.34,0.13l-0.17,0.81c-0.08,0.41-0.18,0.48-0.34,0.53
	c-0.19,0.07-0.74,0.1-1.5,0.1h-1.05c-0.46,0-0.46,0-0.46-0.37V2.71c0-0.59,0-0.59,0.4-0.59h1.31c0.77,0,1.36,0.02,1.73,0.1
	c0.83,0.21,0.99,0.73,1.24,1.52l0.03,0.11l0.03,0.05c0.06,0.08,0.17,0.12,0.29,0.12c0.13,0,0.3-0.04,0.38-0.16l0.03-0.04l-0.02-0.27
	C95.18,2.5,95.1,1.6,95,1.33l-0.04-0.12l-0.12,0.03c-0.2,0.05-1.33,0.05-2.41,0.05h-3.41c-0.7,0-1.3-0.02-2.13-0.05l-0.04,0
	l-0.03,0.02c-0.15,0.07-0.17,0.29-0.18,0.35c-0.01,0.16,0.04,0.28,0.13,0.34L87.11,2c0.93,0.11,0.98,0.23,0.98,2.15v6.53
	c0,1.96-0.11,2.05-1,2.13l-0.65,0.06l-0.04,0.04c-0.1,0.1-0.12,0.27-0.1,0.4c0.02,0.13,0.08,0.24,0.17,0.28l0.03,0.02l0.04,0
	c1.05-0.03,1.68-0.05,2.46-0.05h1.63c1.58,0,3.17,0.02,4.86,0.05l0.09,0l0.04-0.08C95.87,13,96.33,11.59,96.46,10.95L96.46,10.95z
	 M81.3,10.67V4.15c0-1.93,0.05-2.05,0.96-2.15l0.38-0.04l0.06-0.02c0.09-0.06,0.14-0.19,0.13-0.34c0-0.06-0.03-0.28-0.18-0.35
	l-0.03-0.02l-0.04,0c-0.88,0.04-1.48,0.05-2.13,0.05c-0.79,0-1.42-0.02-2.19-0.05l-0.04,0L78.2,1.25c-0.15,0.07-0.17,0.29-0.18,0.35
	c-0.01,0.16,0.04,0.28,0.13,0.34L78.56,2c0.93,0.1,0.98,0.22,0.98,2.15v2.08c0,0.44,0,0.44-0.77,0.44h-5.19
	c-0.77,0-0.77,0-0.77-0.44V4.15c0-1.93,0.05-2.05,0.96-2.15l0.34-0.04l0.06-0.02c0.09-0.06,0.14-0.19,0.13-0.34
	c0-0.06-0.03-0.28-0.18-0.35L74.1,1.23l-0.04,0c-0.83,0.04-1.43,0.05-2.1,0.05c-0.47,0-0.89-0.01-1.34-0.03
	c-0.29-0.01-0.6-0.02-0.94-0.03l-0.03,0l-0.03,0.02c-0.15,0.07-0.17,0.28-0.18,0.35c-0.01,0.16,0.04,0.29,0.13,0.35l0.03,0.02
	L70.11,2c0.8,0.06,0.94,0.23,0.94,2.15v6.53c0,1.89-0.04,1.97-0.94,2.13l-0.35,0.06l-0.03,0.03c-0.1,0.1-0.12,0.27-0.1,0.4
	c0.02,0.13,0.08,0.24,0.17,0.28l0.03,0.02l0.03,0c0.25-0.01,0.49-0.01,0.73-0.02c0.43-0.02,0.87-0.03,1.37-0.03
	c0.68,0,1.26,0.02,2.3,0.05l0.04,0l0.03-0.02c0.12-0.06,0.17-0.22,0.18-0.35c0.01-0.16-0.04-0.28-0.13-0.34L73.8,12.8
	c-0.87-0.09-0.98-0.18-0.98-2.13V8.12c0-0.44,0-0.44,0.77-0.44h5.19c0.77,0,0.77,0,0.77,0.44v2.56c0,1.93-0.02,1.97-0.99,2.13
	l-0.39,0.06l-0.03,0.03c-0.1,0.1-0.12,0.27-0.1,0.4c0.02,0.13,0.08,0.24,0.17,0.28l0.03,0.02l0.04,0c0.87-0.04,1.5-0.05,2.19-0.05
	c0.71,0,1.34,0.02,2.19,0.05l0.04,0l0.03-0.02c0.15-0.07,0.17-0.29,0.18-0.35c0.01-0.16-0.04-0.28-0.13-0.34l-0.5-0.08
	C81.35,12.69,81.3,12.59,81.3,10.67L81.3,10.67z M66.4,1.01l0.01-0.05l-0.02-0.05c-0.07-0.14-0.27-0.15-0.33-0.15
	c-0.05,0-0.11,0.01-0.17,0.03l-0.04,0.02l-0.02,0.04c-0.23,0.4-0.33,0.44-1.29,0.44h-7.5c-0.81,0-1.18-0.04-1.25-0.45L55.76,0.8
	l-0.03-0.03c-0.05-0.05-0.13-0.07-0.25-0.07c-0.04,0-0.19,0-0.27,0.06l-0.05,0.03l-0.01,0.06c-0.13,0.72-0.4,1.87-0.68,2.68
	l-0.02,0.06l0.03,0.05c0.11,0.22,0.48,0.32,0.68,0.18l0.03-0.02l0.01-0.03c0.18-0.42,0.36-0.81,0.78-1.2
	c0.4-0.37,1.3-0.42,2.14-0.42h1c0.41,0,0.41,0,0.41,0.44v8.11c0,1.96-0.11,2.05-1,2.13l-0.65,0.05l-0.06,0.02
	c-0.11,0.07-0.17,0.2-0.16,0.36c0.01,0.12,0.05,0.27,0.17,0.33l0.03,0.02l0.04,0c1.11-0.03,1.78-0.05,2.52-0.05
	c0.71,0,1.29,0.02,2.37,0.05l0.04,0l0.03-0.02c0.12-0.06,0.17-0.22,0.18-0.35c0.01-0.16-0.04-0.28-0.13-0.34l-0.64-0.08
	c-0.91-0.08-0.96-0.2-0.96-2.13V2.55c0-0.19,0-0.36,0.03-0.39c0.03-0.03,0.23-0.03,0.36-0.03h1.29c0.97,0,1.63,0.14,2.02,0.43
	c0.17,0.13,0.32,0.58,0.4,1.23l0,0.04l0.03,0.03c0.07,0.08,0.19,0.13,0.33,0.13c0.17,0,0.32-0.07,0.37-0.19l0.02-0.04l0-0.04
	C66.07,3.19,66.2,1.73,66.4,1.01L66.4,1.01z M54.04,38.7c0,5.61,2.7,9.57,6.18,11.97c3.18,2.13,6.92,2.92,10.83,2.92
	c2.78,0,5.92-0.65,6.88-1c0.48-0.17,1-0.35,1.52-0.44c0.65-0.83,1.78-3.7,2.09-5.96c-0.17-0.3-0.83-0.39-1.13-0.17
	c-1,2.57-3.48,6.22-9.09,6.22c-7.14,0-12.92-5.05-12.92-14.19c0-9.01,5.66-13.23,12.31-13.23c6.31,0,8.27,3.39,8.92,6.35
	c0.3,0.26,0.96,0.22,1.17-0.09c-0.35-2.65-0.57-5.4-0.61-6.4c-0.39,0.04-0.7-0.04-1.22-0.17c-2.05-0.57-5.35-1.04-7.7-1.04
	c-4.53,0-8.57,1.22-11.75,3.7C56.22,29.73,54.04,33.87,54.04,38.7L54.04,38.7z M42.73,31.35l0-30.31C18.38-1.3,0,1.04,0,1.04
	s0,30.31,0,30.31C1.94,51.9,21.18,54.32,21.37,54.29C24.8,53.67,40.94,50.42,42.73,31.35L42.73,31.35z M6.86,38.92
	c0.39,0.26,0.85,0.38,1.27,0.56c0.52,1.36,0.01,2.7-0.28,2.14C7.34,40.65,7.13,39.84,6.86,38.92L6.86,38.92z M6.88,24.02l-0.03-0.03
	c-0.04,0-2.7,1.68-4.44,0.88c1.29-0.71,5.76-3.55,6.98-4.36c0.58,0.12,0.81-0.08,0.99-0.21c-0.47,0.03-2.02,0.27-1.23-1.12
	c0.3,1.24,2.47,0.1,3.25-0.08c2.17-0.5,2.16,1.82,1.97,2.78c-0.07,0.36,0.67,0.61,1.03,0.56c-0.62,1.53-1.69,0.09-1.81,0.67
	c-0.05,0.24-0.76,0.42-0.76,1.01c0,0.8,0.32,0.37,0.35,0.99c0.03,0.6-0.26,0.13-0.19,0.79c0.1,1.04,1.82-0.14,2.53,0.14
	c0.36,0.14,0.59,0.46,0.94,0.4c0.1-0.08,0.06-0.48,0.04-0.62c-0.04-0.33-0.65-0.37-0.93-0.82c-0.25-0.39,0.28-1.57,0.57-1.92
	c0.41,1.95,2.24,1.34,2.51,3.39c0.17,0.58-0.63,1.22,0.02,2.17c-0.48,0.47-1.06,2.69-0.05,3.73c-0.17,0.47-0.4,1.56,0.5,2.2
	c-0.3,0.64-0.23,1.43,0.02,2.23c-0.56,0-0.45-3.14-3.8-3.24c-0.07-0.02-0.09,0.36,0,0.53c0.4,0.71,0.94,0.67,0.83,2.33
	c-0.04,0.57-0.37-0.1-0.55-0.26c-0.41-0.36-0.72-0.41-0.9-1.58c-1.36,1.07-1.23,2.36-1.14,3.02c0,0-0.3-0.82-0.64-1.66
	c-0.02-0.04,1.38-1.73,1.61-2.13c2.83-5.09-1.83,1.65-1.84,1.62c-0.25-0.58-0.47-1.08-0.62-1.24c0.04-0.07,0.81-0.94,1.16-1.67
	c2.19-4.56-1.3,1.52-1.42,1.41c-0.26-0.24-0.48-0.53-0.65-0.43c-0.04,0.7-0.21,0.6-0.16,1.32c-0.36,0.49-1.15,1.25-1.69,1.63
	c0,0-0.14-1.26-0.1-1.31c0.27-0.33,1.35-1.49,1.57-1.83c3.59-5.63-1.68,1.36-1.69,1.3c-0.04-0.22-0.33-0.59-0.63-0.9
	c0,0,1.16-1.58,1.45-2.17c2.18-4.49-1.75,1.99-1.8,1.96c-0.09-0.05-0.1-0.05-0.21-0.09c-0.11-0.04,0.12-1.29,0.27-2.05
	c0.3-1.5-0.5-0.29-0.71,2.08c-0.2,0.03-0.69,0.08-0.88,0.25c0.12,0.63,0.27,0.15,0.53,0.75c0.32,0.73-0.44,1.92,0.22,2.79
	c0.25,0.34,0.27,0.28,0.22,0.5c-0.41-0.03-0.65-0.04-0.91,0.31c-0.5-2.27-0.48-3.36-0.37-5.67c0.05-1.05,0.4-2.63,0.24-2.66
	c-0.15-0.03-2.52,6.09-3.1,7.29c-1-0.34,0.62-5.63,2.69-8.18c0.19-0.81-1.08,0.82-1.85,1.47c-0.7,0.6-1.58,1.37-2.55,1.11
	c1.24-1.31,4.08-3.76,4.4-4.38c0.26-0.53-1.94,1.63-4.27,0.83C3.36,27.07,6.88,25.27,6.88,24.02L6.88,24.02z M11.08,35.53
	c0.01,0.56-0.03,0.97,0.13,1.54c0.26,0.86,0.13,0.59-0.23,0.3c-0.29-0.32-0.55-0.58-0.69-0.95C10.26,36.15,10.47,36.14,11.08,35.53
	L11.08,35.53z M16.7,21.74c-0.34-0.58,0.4-1.13,0.4-1.13c-0.02,1.63,2.06,0.51,3.15,1.03c0.26,0.12,0.44,0.35,0.55,0.59
	C19.63,21.42,17.47,23.06,16.7,21.74L16.7,21.74z M4.46,8.74c-1.86,0-1.82-2.79,0-2.79C6.29,5.95,6.29,8.74,4.46,8.74L4.46,8.74z
	 M4.46,14.3c-1.9,0-1.9-2.78,0-2.78C6.29,11.51,6.3,14.3,4.46,14.3L4.46,14.3z M7.98,8.29H6.36V6.7h1.62V8.29L7.98,8.29z
	 M7.98,13.84H6.36v-1.59h1.62V13.84L7.98,13.84z M21.07,16.58c0,0-1.69-0.92-3.68-1.05c-1.92-0.13-5.81,1.41-8.79,1.21V3.62
	c0,0,3.4,0.45,4.8-0.09c4.75-1.83,7.68,0.21,7.68,0.21V16.58L21.07,16.58z M24.35,18.71c0.08,0.5-0.38,0.62-0.37,0.62
	c0.71,0.17,1.05-0.26,1.19-0.53c0.27,1.14-0.87,1.2-1.23,1.27c0,0,0.58,0.17,0.61,0.55c0.08,0.96,0.7,0.88,0.83,0.81
	c-0.02,0.12-0.21,0.7-0.91,0.17c-0.12,0.12,0.19,0.3,0.25,0.78c0.08,0.6,0.06,1.17,0.76,1.53c-0.43,0.34-0.93-0.55-0.98-0.44
	c-0.05,0.12,0.59,0.44-0.11,2.12c-0.32-0.19-0.14-0.15-0.52-0.6c-0.29-0.24-0.4-0.29-0.16,0.1c0.42,0.52,0.52,1.72,0.37,2.04
	c-0.35-0.15-0.26-0.43-0.66-0.8c-0.04,0.16,0.12,0.95,0.55,1.33c0.73,0.66,0.98,1.45,1,1.6c0.06,0.6-0.13,1.38-0.2,2.15
	c-0.35-0.05-0.64-1.04-0.73-0.98c-0.1,0.07,0.04,0.97,0.7,1.58c0.32,0.93,0.19,1.43,0.11,1.46c-0.11,0.05-0.47-0.95-0.66-0.78
	c0.94,2.38,0.28,3.21,0.03,3.94c-0.19-0.75-0.29-1.32-0.53-2.17c-0.51,0.4-0.63,0.99-1.26,1.54c0-0.97-0.56-3.32-1.01-3.86
	c-0.02-0.02-0.8,2.1-1.16,3.05c-0.46,1.23-0.54,2.76,0,3.95c-1.16-1.64-1.28-4.7-0.28-5.12c0.09-0.22-0.06-0.94-0.28-0.85
	c-0.06,0.35-0.02,0.65-0.31,1c-0.77-0.22-0.42-1.16-0.35-1.47c0.99-1.19,0.37-1.47,0.33-1.43c-0.11,0.27-0.2,0.61-0.5,0.73
	c-0.64-1.09-0.23-2.81,0.98-4.09c0.05-0.48-0.54,0.36-0.93,0.33c-0.1-0.92,0.23-2.53,1.94-2.58c-0.33-0.1-0.5-0.16-0.58-0.43
	c0.52-0.08,2.14-0.2,1.87-1.48c-0.15,0.15-0.2,0.38-0.62,0.64c-0.28,0.17-0.59,0.19-0.75-0.06c0.75-0.25,0.5-1.16-0.48-0.89
	c-0.3,0.08-0.74-0.23-0.76-0.58c0.22,0.22,0.66,0.06,0.92-0.11c1.1-0.72,1.78,0.32,1.93,0.54c0.04,0,0.49-1.04-1.07-1.32
	c-0.13-0.36-0.49-1.01-1.55-0.93c-0.35-1.24-1.41-0.63-1.38-0.07c-1.13-0.83,0.02-1.88,0.47-2.04c0.32,0.03,0.25,1.02,0.8,0.86
	c0.13-0.04-0.43-0.69-0.21-0.98c0.51-0.29,0.5,0.37,0.75,0.12c0.12-0.43,0.62-0.68,1.03-0.72C22.35,18.07,23.25,19.33,24.35,18.71
	L24.35,18.71z M34.71,16.78c-2.5,0.17-7.69-1.25-9.01-1.25c-2.72,0-4.04,1.06-4.04,1.06s0-12.35,0-12.79c0,0,3.58-1.68,6.18-0.72
	c3.19,1.18,6.87,0.66,6.87,0.66V16.78L34.71,16.78z M38,11.74c1.38-0.2,1.59,1.42,1.59,1.42h0c-0.34-0.27-1.02-0.39-1.48-0.09
	c-1.54,0.99-2.93,1-2.93,1v-2.48C35.17,11.59,35.47,12.11,38,11.74L38,11.74z M39.63,8.34c-0.01-0.07-0.03-0.19-0.05-0.34
	c-0.03-0.25-0.75-0.39-1.25-0.17c-0.71,0.31-2.47,1.32-3.11,1.13V6.46c1.59,0.69,2.21,0.07,2.72,0.07c1.57,0,1.65,1.46,1.65,1.46
	C39.61,8.15,39.62,8.26,39.63,8.34L39.63,8.34z M37.86,34.08c-0.46,0.12-1.69,0.61-1.98,1.09c0.16-2.65-0.7-5.25-0.97-5.88
	c-0.53-1.22,0.24,2.85,0.29,3.78c0,0.04-4.39-5.65-1.74-1.27c0.69,1.14,1.76,1.88,1.76,1.9c0.02,0.79-0.03,1.37-0.19,1.79
	c-0.27,0.22-5.98-7.6-2.83-2.19c0.39,0.67,2.68,2.7,2.66,2.74c-0.15,0.31-0.4,0.76-0.76,1.09c-0.06-0.06-1.32-0.99-1.33-1.04
	c-0.1-0.6-0.1-1.17-0.85-0.75c0,0-2.81-3.28-1.51-0.98c0.57,1,0.94,1.12,1.1,1.29c0,0-0.44,0.59-0.58,1.22
	c-0.06,0.25-2.44-2.64-1.51-0.82c0.3,0.58,1.39,1.22,1.38,1.26c-0.11,0.38-0.22,0.75-0.34,0.98c-0.15,0.3-2.24,1.97-2.24,1.97
	c0,0,0.41-1.32,1.3-1.97c0.51-0.37,0.51-0.29,0.85-0.5c-0.01-0.2-0.2-0.51-0.44-0.6c-0.31-0.11-1.3,0.07-1.3,0.07
	c0.09-0.5-0.34-1.56-0.34-2.74c-0.37,0.04-1.03,0.61-1.19,0.94c-0.11,1.95-0.54,1.36-0.93,2.76c-0.43-0.59,0.03-1.43-0.39-1.98
	c-0.58-0.76-0.67-1.27-0.75-2.2c0.14-0.08,0.73-0.73,0.19-2.1c-0.09-2.16,0.88-2.98-0.85-4.49c0.15-0.05,0.25-1.13,0.25-1.13
	c1.27,0.68,1.02-0.78,1.51-1.07c0.79-0.46,0.64-0.93,0.29-1.52c2.25,0.64-0.1,2.17,0.92,2.21c0.74,0.02,1.23-0.17,1.55-0.66
	c0.34-0.52-0.06-0.84,0.89-1.69c0.1-0.08,0.35-0.65-0.41-0.81c-0.17-0.03,0-0.68,0-0.68c-0.6,0.51-0.8,1.23-1.77,0.78
	c-0.5-0.23-0.82,0-1.02,0.09c0,0-0.1-0.41,0.31-0.54c1.06-0.36,1.33-0.78,1.27-1.01c-0.14-0.55-0.19,0-0.16-0.58
	c0.01-0.23,0.28-0.55,0.51-0.81c0.72-0.87,1.23-0.54,1.42-0.47c0.42-0.32,0.49-0.3,0.88-0.46c0.67-0.26,2.12,0.17,2.93,0.55
	c0.39,0.18,0.86,0.28,1.32,0.18c0,0.24-0.17,0.36-0.33,0.41c-0.25,0.08-0.55,0-0.53,0.19c0.01,0.11,0.36,0.13,0.57,0.19
	c1.2,0.33,2.75,1.4,1.73,1.18c-0.12-0.03,0.74,0.64,1.38,1.51l2.29,2.22c-0.1,0.13-0.91,0.01-3.45-2.37
	c-0.36,0.32,3.09,2.92,4.51,5.68c-0.12,0.09-1.9-0.56-2.54-1.22c-0.99-1.02-2.12-3.62-2.59-3.24c-0.06,0.02,1.88,3.03,2.83,4.81
	c0.48,0.9,0.88,2.2,0.91,3.17c0.15,4.8-0.57,4.43-0.57,4.44c-1.13-3.79-1.65-8.18-3.29-10.21C35.34,25.79,37.75,30.15,37.86,34.08
	L37.86,34.08z M32.88,38.4c-0.51,0.45-0.84,0.6-0.73,0.38c0.12-0.25,0.21-0.46,0.28-0.64C32.46,38.08,32.88,38.4,32.88,38.4
	L32.88,38.4z M32.55,37.8c0.11-0.4,0.11-0.68,0.17-1.04c0.02-0.15,0.03-0.14,0.03-0.26c0-0.04,1.1,0.91,1.16,0.95
	c-0.28,0.34-0.51,0.47-0.77,0.71C32.95,38.01,32.54,37.84,32.55,37.8L32.55,37.8z M36.11,39.02c-1.53,1.51-3.81,0.96-5.61,1.77
	c-1.63,0.59-2.82,2.11-4.53,2.49c-0.5,0.16-0.59,0.41-0.27,0.41c0.19,0,1.23,1.08,2.9,0.25c0.56-0.28,2.29-1.25,2.58-1.3
	c-0.94,0.89-1.41,1.69-2.25,2.16c-0.51,0.29-2.6,1.04-4.69,0.63c-0.92-0.18-1.63,0.67-1.4,0.65c0.49-0.13,1.05-0.06,1.38,0.37
	c0.6,0.47,1.48,1.07,2.24,0.18c0.25-0.29,1.45-0.91,2.57,0.23c-1.2-0.06-1.08,2.09-3.34,1.84c-0.84-0.01-2.69-1.92-3.22-1.33
	c-0.94,1.05,2.01,2.05,0.74,3.38c-1.15,1.2-2.53-0.95-2.53-0.95c0.72,0.3,2.05,0.5,1.46-0.67c-0.23-0.46-0.67-0.88-0.67-1.74
	c-0.1-0.43-2.74,3.4-4.49,1.67c-0.69-0.68-2.08-2.17-3.33-2.74c3.33-0.28,3.84,1.05,4,1.27c1.07,1.44,2.05-0.02,2.28-0.28
	c0.35-0.4,0.84-0.94,0.66-1.02c-1.29-0.61-2.77-0.74-3.87-0.24c2.36-3.25,4.2-0.21,4.2-0.21c0.26,0.16-0.07-1.92-2.4-2.04
	c-1.46-0.07-2.74,1.24-3.75,1.24c-0.82,0-3.3-1.68-3.88-3.16c1.44,1.08,3.28,1.7,4.43,1.01c2.16-1.29,4.87,0.65,5,0.42
	c-0.6-0.47-1.98-2.31-5.68-1.26c-1.44,0.83-2.04-0.61-2.93-0.64c1.5-1.33,2.54-0.65,3.07-0.61c0.12,0-0.63-0.62-1.15-0.67
	c-4.09-0.43-6.69-1.55-6.69-1.55c-0.02,0,0.34-0.83,2.1-0.23c0,0-1.58-0.97-1.56-2.21c0.05-0.76,0.42-1.58-0.16-2.22
	c2.38-0.1,0.69,3.22,2.36,4.07c0.04,0.01-0.49-0.79,0.25-1.42c0.34,0.97,1.19,1.48,1.79,1.63c0.14-0.08,0.31-0.38,0.31-0.37
	c-0.63-1.04-0.71-2.25-0.54-3.63l0.03-0.01c0.13,0.01,0.36,0.48,0.52,0.82c0.35,0.75,0.34,1.82,1.03,2.7
	c0.38,0.49,0.62,0.97,0.96,1.21c0.15-0.35,0.04-0.94,0.02-1.1c-0.08-0.56-0.43-1.55,0.53-2.42c0.45,1.3,1.06,0.92,1.15,1.54
	c0.11,0.87,0.08,0.73-0.01,1.4c0.05,0.92,0.88,1.18,1.63,1.77c1.68,0.91,2.79,1.41,3.53,2.58c0.36-1.97-4.97-2.37-4.29-6.18
	c-0.07-1.52,0.19-1.65-0.89-2.58c2.14,0.06,3.3,3.57,3.42,4.21c0.21,1.18,0.93,1.24,1.91,2.77c0.14,0.05-1.75-4.09,0.51-7.64
	c0,0,0.76,1.84,0.4,3.05c-0.22,0.73-0.02,1.53,0.02,1.99c0.04,0.47-0.09-1.68,1.52-2.79c0.1,0.81,0.88,2.07,0.14,3.42
	c-0.9,1.64-0.96,1.05-0.98,3.07c0.08-0.04,0.31-1.39,0.93-2.16c1.3-1.63,0.37-2.5,1.64-3.91c0.1,0.7,0.28,0.42,0.36,1.05
	c0.17,1.41-1.3,2.95-0.98,2.9c0.37-0.05,0.98-0.38,1.18-1.45c0,0,0.54,0.98,0.05,1.3c-0.9,0.59-1.08,1.22-0.94,1.94
	c0.72-0.86,1.7-1.81,1.53-3.04c0.08-0.74,0.88-1.04,1.04-2.75c0.03-0.29,0.31-0.63,0.6-0.78c-0.12,0.96,0.62,1.96-0.23,3.14
	c0.19,0.1,0.91-0.92,1.97-0.55c-2.11,0.38-1.5,2.67-3.12,3.73c-0.49,0.32-0.4,0.68-0.55,0.72c1.45-0.08,2.56-1.8,2.75-1.93
	c1.45-0.98,1.77-1.13,2.35-2.73c0.23-0.61,0.06-0.87,0.87-1.69c0.35,0.81-0.16,2.47-0.28,2.83c-0.26,0.77-1.17,1.43-0.98,1.43
	c3.89-1.72,3.85-2.87,4.78-4.1c0.28-0.47,1.67-1.29,2.18-1.36c-0.13,0.26-0.67,0.69-0.69,1.15c-0.05,0.86-0.32,1.39-0.76,2.08
	c0.24,0.3,0.71-0.57,1.18-0.13C36.88,37.91,36.6,38.61,36.11,39.02L36.11,39.02z M36.76,38.8c-0.23,1.13-0.62,2.19-1.31,3.16
	c-0.48,0.69-0.67-0.65-0.26-1.96C35.78,39.77,36.37,39.32,36.76,38.8L36.76,38.8z M33.8,10.01c-0.09-0.03-0.28-0.07-0.4-0.07
	c-0.12,0-0.18,0.17-0.03,0.21c0.09,0.03,0.27,0.06,0.44,0.07C33.92,10.23,33.88,10.05,33.8,10.01L33.8,10.01z M33.36,10.56
	c0.09,0.03,0.26,0.05,0.44,0.07c0.11,0.01,0.07-0.17-0.01-0.21c-0.09-0.03-0.27-0.07-0.39-0.07C33.27,10.35,33.21,10.51,33.36,10.56
	L33.36,10.56z M33.36,13.04c-0.09-0.1-0.32-0.29-0.53-0.44c-0.12,0.1-0.36,0.28-0.52,0.36c-0.12-0.13-0.27-0.31-0.51-0.5
	c-0.14,0.1-0.55,0.47-0.73,0.57c0.25,0.01,0.62,0.09,0.64,0.32c0.01,0.19-0.01,1.36,0,1.58c0.15,0.03,0.33,0.02,0.56,0
	c0.01-0.17,0.01-1.52,0.01-1.68c0.07-0.04,0.16-0.08,0.21-0.12c0.09,0.06,0.35,0.36,0.5,0.45c0.1-0.08,0.37-0.32,0.49-0.43
	C33.6,13.02,33.46,12.94,33.36,13.04L33.36,13.04z M32.67,11.06c0.14-0.26,0.35-0.67,0.34-0.99c-0.02-0.39-0.26-0.97-0.83-1.16
	c-0.73,0.26-1.17,0.83-1.19,1.51c-0.01,0.4,0.32,1.21,1.02,1.22C32.22,11.43,32.45,11.21,32.67,11.06L32.67,11.06z M32.23,11.22
	c-0.13-0.07-0.62-0.44-0.74-0.73c-0.15-0.39-0.15-0.82,0.27-1.07c0.32,0.12,0.7,0.44,0.74,0.73C32.54,10.52,32.44,10.97,32.23,11.22
	L32.23,11.22z M32.21,8.2l0.52-0.57c0,0-0.23-0.18-0.37-0.35c0-0.12,0-1.26,0.05-1.32c-0.39-0.35-0.68-0.39-0.85-0.37
	c-0.32,0.05-0.64,0.45-0.75,0.59c-0.08,0.11-0.06,0.24,0,0.29c0.06,0.05,0.15,0.1,0.23,0.16c-0.01-0.01-0.03-0.02-0.04-0.02
	c-0.15,0.14-0.36,0.54-0.36,0.82c0,0.27,0.25,0.67,0.42,0.82c0.18-0.14,0.46-0.38,0.85-0.46C31.97,7.98,32.06,8.09,32.21,8.2
	L32.21,8.2z M31.9,6.89c-0.26-0.09-0.76-0.33-0.95-0.48c-0.05-0.04-0.05-0.06,0.01-0.16c0.12-0.17,0.25-0.33,0.34-0.32
	c0.08,0,0.59,0.28,0.58,0.42C31.9,6.45,31.9,6.67,31.9,6.89L31.9,6.89z M31.9,7.66c-0.13,0.01-0.25,0.04-0.42,0.12
	c-0.14-0.11-0.5-0.55-0.24-1.05c-0.04-0.02-0.08-0.04-0.11-0.06c0.25,0.14,0.54,0.26,0.76,0.33c0,0.2-0.01,0.37-0.01,0.44
	C31.89,7.53,31.9,7.59,31.9,7.66L31.9,7.66z M30.4,5.32c-0.12,0-0.95,0.02-0.97-0.03C29.38,5.11,29.36,4.9,29.5,4.6
	c0.07-0.15-0.07-0.21-0.12-0.06c-0.05,0.15-0.46,0.72-0.89,0.9c-0.22,0.09,0.27,0.29,0.23,0.28c0,0.55,0.08,1.37,0.19,1.7
	c0.07,0.2,0.3,0.52,0.45,0.42c0.1-0.06,0.31-0.49,0.38-0.54c0.12-0.1,0-0.26-0.1-0.16c-0.11,0.1-0.2-0.05-0.23-0.15
	c-0.04-0.1-0.14-1.31-0.09-1.33c0,0,0.97-0.12,1.07-0.12C30.47,5.53,30.47,5.32,30.4,5.32L30.4,5.32z M27.73,7.54l0.4-0.52
	c-0.29-0.05-0.41-0.1-0.62-0.34l0.01-1.3l-0.41-0.41l-0.14,0.02l-0.65,0.57c-0.07,0.1,0.11,0.1,0.19-0.02l0.47,0.27l0.02,1.26
	c0.04,0.15,0.16,0.3,0.35,0.48H27.73L27.73,7.54z M27.38,4.66l0.23-0.2V4.15l-0.31-0.3L27,4.11L27,4.47l0.19,0.19H27.38L27.38,4.66z
	 M26.35,4.26c-0.17-0.02-0.75,0.03-0.95,0.06c-0.21,0.03-0.21,0.13-0.03,0.15c0.17,0.02,0.2,0.05,0.29,0.28
	c0.08,0.23-0.33,1.28-0.43,1.53c-0.12-0.18-0.56-1.14-0.56-1.27c0-0.09,0.19-0.19,0.28-0.21c0.16-0.05,0.16-0.16,0.04-0.19
	c-0.34-0.05-1.55-0.15-1.76-0.18c-0.15-0.01-0.22,0.17-0.04,0.17c0.19,0.01,0.39-0.05,0.6,0.26c0.24,0.35,1.01,1.99,1.19,2.68
	c0.09-0.15,0.85-2.36,0.9-2.59c0.05-0.23,0.22-0.45,0.44-0.52C26.54,4.37,26.52,4.28,26.35,4.26L26.35,4.26z M22.73,9.6
	c0.01,0.92,0.38,1,0.79,1.24c0.4,0.22,1.06,0.18,1.56,0.05c0.19-0.05,0.29-0.07,0.29,0.1c0,0.1,0.14,0.08,0.14,0
	c0-0.08,0.01-0.85,0.01-0.93c0-0.1-0.14-0.08-0.14,0c0,0.13,0,0.17-0.13,0.35c-0.34,0.51-1.2,0.49-1.66-0.13
	c-0.16-0.21-0.3-0.49-0.12-0.55c0.18-0.05,0.73,0.06,1.1,0.09c0.22,0.01,0.72,0.07,0.79,0.1c0.06,0.04,0.14,0.09,0.14-0.01
	c0-0.11,0-0.46,0-0.57c0-0.11-0.08-0.05-0.14-0.02c-0.06,0.04-0.6,0.13-0.82,0.17c-0.22,0.04-0.88,0.09-1.06,0.03
	c-0.18-0.06-0.12-0.42,0.04-0.63c0.47-0.62,1.41-0.57,1.75-0.06c0.12,0.18,0.12,0.22,0.12,0.35c0,0.08,0.14,0.09,0.14,0
	c0.01-0.09,0.01-1.02,0.01-1.09c0-0.07-0.14-0.1-0.14,0c0,0.07-0.15,0.11-0.3,0.07c-0.29-0.09-1.14,0.04-1.52,0.25
	C23.24,8.6,22.72,9.05,22.73,9.6L22.73,9.6z M22.89,11.23c0.01,0.26,0.11,2.51,0.08,2.82c-0.02,0.18,0.22,0.37,0.44,0.52
	c0.11-0.13,0.34-0.46,0.53-0.61c0.11-0.09,0.03-0.15-0.05-0.12c-0.17,0.08-0.35,0.02-0.36-0.18c-0.02-0.2-0.02-2.13,0-2.41
	C23.39,11.25,23.02,11.25,22.89,11.23L22.89,11.23z M24.75,13.07c-0.15,0.14-0.42,0.51-0.41,0.78c0,0.28,0.14,0.54,0.3,0.69
	c0.27-0.19,0.44-0.45,0.9-0.63c0.06,0.21,0.21,0.24,0.38,0.38c0.11-0.12,0.49-0.59,0.58-0.67c0.09-0.08,0.04-0.17-0.08-0.08
	c-0.12,0.08-0.2,0.03-0.41-0.19c0.01-0.12-0.01-1.08,0.03-1.14c-0.19-0.2-0.36-0.47-0.57-0.45c-0.32,0.03-0.72,0.58-0.82,0.72
	c-0.08,0.1,0,0.5,0.06,0.55C24.72,13.05,24.73,13.05,24.75,13.07L24.75,13.07z M24.97,13.23c0.18,0.1,0.27,0.04,0.54,0.01
	c0,0.17-0.01,0.33-0.01,0.41c-0.12,0.09-0.27,0.16-0.44,0.25C24.93,13.79,24.73,13.69,24.97,13.23L24.97,13.23z M24.82,12.44
	c0.12-0.18,0.19-0.21,0.28-0.21c0.08,0.01,0.41,0.23,0.39,0.38c0.02,0.1,0.02,0.3,0.02,0.51c-0.24,0.03-0.41,0.06-0.68-0.17
	C24.78,12.9,24.77,12.53,24.82,12.44L24.82,12.44z M26.77,12.08c-0.21,0.1,0.27,0.29,0.24,0.28c-0.01,0.54-0.12,1.43,0.07,1.72
	c0.12,0.17,0.38,0.29,0.55,0.22c0.17-0.07,0.38-0.41,0.45-0.46c0.12-0.09,0.02-0.19-0.09-0.1c-0.1,0.1-0.38,0.03-0.42-0.07
	c-0.03-0.1-0.07-1.29-0.02-1.31c0,0,0.34-0.01,0.43,0c0.07,0,0.08-0.22,0.01-0.22c-0.12,0-0.4-0.03-0.41-0.08
	c-0.04-0.11,0.01-0.47,0.08-0.62c0.07-0.15-0.07-0.21-0.12-0.07C27.49,11.53,27.13,11.9,26.77,12.08L26.77,12.08z M26.87,9.61
	c0.02,0.51-0.25,1.05-0.54,1.3c0.5-0.13,0.57-0.43,0.85-0.79c0.15,0.23,0.44,0.5,0.64,0.62c0.15-0.1,0.56-0.56,0.65-0.66
	c-0.3-0.08-0.87-0.38-1.01-0.7c-0.11-0.24-0.09-0.35,0.03-0.54c0.1,0.13,0.8,0.45,1.11-0.08c-0.34-0.12-0.65-0.35-0.76-0.53
	c-0.09,0.08-0.4,0.41-0.57,0.52c-0.04-0.18-0.32-0.38-0.55-0.42c-0.07,0.08-0.61,0.49-0.86,0.61c-0.08,0.04-0.05,0.2,0.06,0.16
	c0.1-0.04,0.27-0.17,0.46-0.26C26.59,8.92,26.85,9.14,26.87,9.61L26.87,9.61z M29.28,9.69c0.06-0.31,0.28-0.44,0.38-0.53
	c0.14,0.16,0.29,0.34,0.5,0.34c0.21,0,0.43-0.1,0.49-0.18c-0.17-0.14-0.57-0.55-0.64-0.63c-0.2,0.11-1.06,0.56-1.14,1.08
	c-0.11,0.76,0.14,0.92,0.47,1.34c0.19,0.24,0.5,0.25,0.65,0.21c0.15-0.11,0.72-0.64,0.78-0.71c0.06-0.07-0.02-0.13-0.1-0.06
	c-0.07,0.06-0.04,0.09-0.14,0.11c-0.1,0.02-0.48,0.08-0.71-0.04C29.56,10.46,29.2,10.11,29.28,9.69L29.28,9.69z M28.86,12.13
	c-0.13,0.13-0.35,0.28-0.56,0.51c0.17,0.01,0.32,0.05,0.4,0.21c0.09,0.16,0.01,0.86,0.03,1.12c0.01,0.26,0.17,0.31,0.38,0.53
	c0.21-0.05,0.78-0.29,0.97-0.42c-0.02,0.21,0.25,0.45,0.41,0.5c0.11-0.12,0.22-0.18,0.38-0.33c-0.15-0.1-0.13-0.12-0.19-0.32
	c-0.04-0.2,0.01-0.94,0.02-1.25c-0.12-0.18-0.32-0.4-0.52-0.56c-0.14,0.13-0.34,0.31-0.56,0.55c0.17-0.02,0.5,0.04,0.52,0.19
	c0.01,0.18,0.04,0.59,0,0.9c-0.04,0.31-0.88,0.17-0.9-0.04c-0.02-0.22,0.04-0.84,0.05-1.14C29.15,12.4,29.08,12.29,28.86,12.13
	L28.86,12.13z M23.25,19.74v-0.03c-0.49-0.07-0.87-0.41-1.32-0.58c-0.62-0.23-1.27,0.24-1.27,0.32c0,0.17,0.18,0.25,0.68-0.06
	c-0.39,0.45,0.05,0.82,0.05,0.82c-0.16-0.02-0.4-0.08-0.54-0.17c-0.03,0.17,0.2,0.22,0.3,0.3C21.97,20.68,22.52,19.88,23.25,19.74
	L23.25,19.74z M21.85,20.16c0,0,0.22-0.24,0.22-0.41c0-0.23-0.22-0.4-0.22-0.4c0.19,0.05,0.63,0.3,0.79,0.41L21.85,20.16
	L21.85,20.16z M17.3,13.86l0.24-0.26c-0.27-0.05-0.14-0.05-0.28-0.18l-0.01-1.09l-0.35-0.51l-0.13,0.02l-0.55,0.51
	c-0.14,0.13-0.02,0.19,0.15,0.05l0.36,0.19l0.01,1.16c0.03,0.14,0.16,0.17,0.33,0.36L17.3,13.86L17.3,13.86z M17.42,10.07
	c0.18,0.52,0.62,0.69,0.94,0.71c0.1-0.18,0.27-0.45,0.37-0.58c0.15-0.19,0-0.31-0.1-0.09c-0.08,0.17-0.5-0.02-0.65-0.16
	c-0.2-0.19-0.33-0.69-0.17-0.87c0.16-0.18,0.4-0.1,0.71-0.1c0.2-0.01,0.24-0.19,0.28-0.29c-0.1-0.05-0.24-0.13-0.43-0.24
	c-0.2,0.12-0.5,0.38-0.63,0.49C17.56,9.08,17.23,9.56,17.42,10.07L17.42,10.07z M18.2,12.95c-0.2,0.2-0.34,0.43-0.34,0.71
	c0.01,0.27,0.1,0.54,0.37,0.66c0.24-0.18,0.56-0.4,0.86-0.45c0.15,0.18,0.37,0.29,0.51,0.4c0.09-0.11,0.39-0.36,0.48-0.43
	c0.08-0.08,0-0.19-0.08-0.09c-0.06,0.1-0.28,0.03-0.34-0.07c0-0.11-0.11-1.33-0.06-1.38c-0.17-0.19-0.48-0.63-0.68-0.61
	c-0.29,0.03-0.74,0.45-0.83,0.59c-0.07,0.1,0.02,0.6,0.08,0.65C18.18,12.93,18.19,12.94,18.2,12.95L18.2,12.95z M18.98,13.05
	c-0.22,0-0.41-0.06-0.66-0.28c-0.05-0.04-0.09-0.32-0.04-0.41c0.11-0.17,0.11-0.22,0.2-0.22c0.07,0,0.52,0.27,0.5,0.42
	C19,12.67,18.99,12.86,18.98,13.05L18.98,13.05z M18.39,13.09c0.2,0.14,0.32,0.12,0.58,0.09c-0.01,0.14-0.02,0.27-0.02,0.32
	c0,0.06,0.03,0.11,0.04,0.16c-0.13,0.05-0.3,0.08-0.43,0.14C18.44,13.71,18,13.42,18.39,13.09L18.39,13.09z M20.07,10.85l0.24-0.26
	c-0.27-0.05-0.27-0.03-0.42-0.17l0.01-1.26l-0.24-0.35l-0.13,0.02l-0.55,0.51c-0.15,0.13-0.02,0.2,0.15,0.05l0.28,0.17l0.01,1.19
	c0.03,0.14,0.15,0.19,0.33,0.37L20.07,10.85L20.07,10.85z M19.64,6.43c-0.11-0.01-0.28,0.2,0.38,0.27
	C20.12,6.71,20.26,6.46,19.64,6.43L19.64,6.43z M19.65,6.03c-0.11-0.01-0.28,0.29,0.38,0.27C20.13,6.3,20.21,6.06,19.65,6.03
	L19.65,6.03z M19.78,8.02l-0.28-0.29l-0.28,0.26l0.01,0.35l0.17,0.18h0.18l0.21-0.19V8.02L19.78,8.02z M19.2,5.31
	c-0.19-0.13-0.4-0.45-0.86-0.47c-0.47-0.02-0.99,0.4-1.16,0.67c-0.23,0.35,0.05,0.66,0.35,0.88c-0.19,0.16-0.45,0.41-0.7,0.64
	c0.1,0.11,0.63,0.36,0.93,0.35c0.45-0.01,0.87-0.24,1.13-0.45c0.47-0.37,0.31-0.77-0.17-1.05c-0.05-0.03-0.09-0.04-0.14-0.04
	C18.87,5.61,19.13,5.4,19.2,5.31L19.2,5.31z M18.01,6.29c0.16,0.07,0.32,0.14,0.49,0.25c0.25,0.14,0.12,0.41-0.15,0.54
	c-0.28,0.13-0.77-0.23-0.85-0.38C17.61,6.61,17.8,6.46,18.01,6.29L18.01,6.29z M18.51,5.62c-0.04,0.03-0.16,0.13-0.29,0.23
	c-0.08,0.01-0.15,0.02-0.23,0.01c-0.24-0.03-0.35-0.21-0.46-0.36c-0.11-0.15,0.18-0.27,0.32-0.26C18,5.27,18.32,5.45,18.51,5.62
	L18.51,5.62z M16.56,6.65c-0.69,0.17-1.02-0.38-1.09-0.53c0.28-0.29,0.76-0.75,1.05-0.99c-0.19-0.18-0.27-0.47-0.61-0.49
	c-0.3,0.01-0.99,0.34-1.11,1.22c-0.12,0.84,0.68,1.3,1.3,1.33c0.21,0,0.47-0.27,0.6-0.33C16.98,6.71,16.88,6.58,16.56,6.65
	L16.56,6.65z M15.43,5.95c-0.18-0.56-0.11-0.76,0.24-1.03c0.08,0.19,0.28,0.33,0.39,0.4C15.86,5.51,15.55,5.86,15.43,5.95
	L15.43,5.95z M14.63,5.45c0.12-0.12-0.01-0.2-0.11-0.1c-0.08-0.09-0.28-0.3-0.39-0.43c-0.11,0.09-0.37,0.25-0.52,0.33
	c-0.11-0.13-0.25-0.13-0.48-0.31c-0.13,0.1-0.41,0.3-0.56,0.48c0.27,0.08,0.46,0.09,0.48,0.32c0.01,0.19-0.02,1.32,0,1.53
	c0.14,0.03,0.31,0.02,0.52,0.01c0.02-0.16,0.01-1.59,0.01-1.75c0.08-0.04,0.15-0.08,0.19-0.12c0.08,0.06,0.25,0.3,0.38,0.38
	C14.25,5.73,14.51,5.57,14.63,5.45L14.63,5.45z M12.44,8.41c-0.3,0.03-0.73,0.38-0.86,0.68c-0.05,0.12,0.02,0.56,0.08,0.61
	c0.04,0.04,0.07,0.06,0.1,0.09c-0.2,0.18-0.38,0.34-0.38,0.61c0.01,0.26,0.22,0.5,0.49,0.62c0.15-0.22,0.37-0.35,0.61-0.41
	c0.02,0.21,0.07,0.36,0.21,0.47c0.1-0.11,0.5-0.45,0.57-0.53c0.08-0.08,0.02-0.17-0.08-0.08c-0.06,0.05-0.2-0.03-0.24-0.09
	c0-0.11,0-1.32,0.05-1.38C12.81,8.79,12.64,8.38,12.44,8.41L12.44,8.41z M12.46,9.63c-0.34,0.22-0.44,0.21-0.67-0.05
	c-0.11-0.13-0.1-0.38-0.05-0.48c0.1-0.16,0.29-0.33,0.37-0.33c0.08,0,0.35,0.33,0.33,0.48C12.45,9.33,12.46,9.48,12.46,9.63
	L12.46,9.63z M12.47,10.24c0,0.07,0,0.12,0,0.18c-0.06,0.02-0.14,0.03-0.23,0.08c-0.12-0.1-0.71-0.29-0.32-0.6
	c0.23,0.14,0.32,0.03,0.55-0.11C12.47,9.98,12.47,10.17,12.47,10.24L12.47,10.24z M12.21,7.68c-0.04-0.05-0.12-0.14-0.12-0.24
	c0-0.07,0.01-0.8,0.01-0.89c0-0.09-0.17-0.08-0.17,0c-0.01,0.13,0.01,0.35-0.1,0.53c-0.32,0.5-0.93,0.7-1.36,0.09
	c-0.15-0.2-0.18-0.51-0.2-0.72c-0.03-0.29,0.19-0.67,0.2-0.7c0.54-0.71,1.3-0.18,1.36,0.11c0.04,0.19,0.08,0.43,0.08,0.56
	c0,0.08,0.17,0.07,0.18-0.01c0-0.09,0-1.19,0-1.26c0-0.07-0.14-0.09-0.15,0c-0.01,0.17-0.11,0.19-0.24,0.15
	c-0.28-0.08-0.89-0.21-1.24-0.01c-0.31,0.18-0.79,0.61-0.78,1.16c0.01,0.89,0.35,0.97,0.74,1.21c0.37,0.22,0.87,0.08,1.33-0.06
	c0.18-0.05,0.21,0.07,0.29,0.2C12.19,7.97,12.31,7.84,12.21,7.68L12.21,7.68z M9.73,8.94c-0.31,0.47-0.48,1.22,0.06,1.65
	c0.25,0.21,0.46,0.38,0.97,0.28c0.1-0.2,0.15-0.27,0.33-0.51c-0.35,0.06-0.63-0.01-0.89-0.2C9.68,9.75,9.84,9.09,10,8.86
	c0.29-0.43,0.69,0.18,0.77,0.27c0.09-0.11,0.26-0.28,0.42-0.4c-0.16-0.21-0.29-0.4-0.4-0.53C10.45,8.32,9.95,8.62,9.73,8.94
	L9.73,8.94z M9.95,13.02c-0.11,0.85,0.69,1.35,1.07,1.52c0.1-0.2,0.29-0.51,0.49-0.73c0.15-0.17-0.02-0.22-0.15-0.08
	c-0.18,0.19-0.71,0.01-0.85-0.25c0.26-0.19,0.92-0.75,1.21-0.99c-0.19-0.18-0.49-0.62-0.53-0.88C10.94,11.78,10.08,12.13,9.95,13.02
	L9.95,13.02z M10.78,12.1c0.08,0.2,0.32,0.57,0.43,0.64c-0.19,0.19-0.66,0.51-0.79,0.6C10.18,13.04,10.05,12.54,10.78,12.1
	L10.78,12.1z M12.53,11.79c-0.17,0.16-0.3,0.3-0.54,0.49c0.11,0.13,0.3,0.29,0.32,0.52c0.01,0.23,0.01,1.27,0.02,1.53
	c0.18,0,0.15,0.02,0.45,0.01c-0.03-0.18,0-1.53,0-1.73c0.11-0.11,0.13-0.13,0.26-0.22c0.09,0.08,0.32,0.13,0.32,0.28
	c0,0.15,0.04,0.79-0.01,1.03c-0.06,0.29-0.04,0.5,0.12,0.79c0.12-0.13,0.56-0.44,0.66-0.52c0.09-0.08,0.05-0.14-0.08-0.11
	c-0.13,0.03-0.15,0.05-0.15-0.03c0-0.16-0.06-0.86-0.07-1.31c-0.02-0.45-0.24-0.58-0.36-0.65c-0.13,0.14-0.42,0.33-0.59,0.47
	C12.74,12.23,12.67,12.02,12.53,11.79L12.53,11.79z M14.35,10.7c0.15-0.12,0.26-0.33,0.33-0.38c0.12-0.1,0.02-0.2-0.08-0.1
	c-0.08,0.08-0.29-0.1-0.3-0.12c-0.07-0.08-0.17-1.11-0.12-1.14c0,0,0.66-0.08,0.74-0.08c0.06,0,0.07-0.21,0-0.21
	c-0.11,0-0.61,0.07-0.63,0.02c-0.03-0.11-0.1-0.48,0.07-0.79c0.08-0.14,0-0.27-0.05-0.13c-0.06,0.14-0.47,0.78-0.74,0.89
	c-0.22,0.09-0.19,0.14-0.05,0.17c0.11,0.02,0.23,0.15,0.21,0.15c-0.02,0.53-0.07,1.19,0.09,1.46C13.93,10.63,14.22,10.81,14.35,10.7
	L14.35,10.7z M16.61,10.93c-0.08,0.16-0.21,0.31-0.45,0.42c0.15,0.13,0.34,0.29,0.46,0.37c0.14-0.16,0.28-0.31,0.44-0.46
	C16.89,11.22,16.7,11.14,16.61,10.93L16.61,10.93z M15.57,10.35c0.21-0.02,0.55,0.11,0.92,0.08c0.44-0.03,0.79-0.72,0.6-1.26
	c-0.18-0.51-0.75-0.42-1.13-0.54c-0.35-0.1-0.5-0.32-0.11-0.57c0.45-0.29,1.01,0.18,1.06,0.27c0.08,0.15,0.15,0.15,0.15-0.05
	C17.08,7.86,17.04,8.1,17,7.71c-0.01-0.14-0.12-0.15-0.13-0.02c-0.01,0.14-0.18,0.1-0.3,0.1c-0.13,0-0.5-0.06-0.83,0.12
	c-0.21,0.12-0.68,0.49-0.41,0.93c0.15,0.26,1.06,0.47,1.29,0.62c0.23,0.15,0.28,0.53,0.06,0.7c-0.27,0.21-1,0.03-1.12-0.1
	c-0.15-0.17-0.21-0.3-0.24-0.49c-0.03-0.2-0.19-0.18-0.19,0c0,0.18,0.04,0.79,0.07,0.93c0.03,0.15,0.18,0.1,0.19-0.01
	C15.41,10.38,15.48,10.35,15.57,10.35L15.57,10.35z M14.62,12.25c-0.17,0.13,0.2,0.31,0.17,0.3c0.01,0.53-0.06,1.08,0.12,1.35
	c0.12,0.17,0.47,0.29,0.53,0.13c0.06-0.16,0.33-0.49,0.39-0.55c0.11-0.1,0.01-0.19-0.08-0.09c-0.2,0.21-0.31,0.11-0.45-0.03
	c-0.07-0.08-0.1-0.82-0.05-0.84c0,0,0.36-0.05,0.45-0.05c0.07,0,0.06-0.21-0.01-0.21c-0.11,0-0.43,0-0.45-0.05
	c-0.04-0.1,0.06-0.6,0.08-0.83c0.02-0.16-0.07-0.21-0.11-0.06C15.17,11.46,14.83,12.1,14.62,12.25L14.62,12.25z"/>
</svg>
