<?xml version="1.0" encoding="utf-8"?>
<!-- Generator: Adobe Illustrator 16.0.0, SVG Export Plug-In . SVG Version: 6.00 Build 0)  -->
<!DOCTYPE svg PUBLIC "-//W3C//DTD SVG 1.1//EN" "http://www.w3.org/Graphics/SVG/1.1/DTD/svg11.dtd">
<svg version="1.1" id="Layer_1" xmlns="http://www.w3.org/2000/svg" xmlns:xlink="http://www.w3.org/1999/xlink" x="0px" y="0px"
	 width="365px" height="54px" viewBox="0 0 365 54" enable-background="new 0 0 365 54" xml:space="preserve">
<g>
	<path fill="#800000" d="M11.542,1.969h6.731L29,27.346h-7.487l-1.836-4.5H9.958l-1.8,4.5H0.815L11.542,1.969z M17.661,17.411
		l-2.808-7.163l-2.844,7.163H17.661z"/>
	<path fill="#800000" d="M31.739,1.069h6.84v26.277h-6.84V1.069z"/>
	<path fill="#800000" d="M42.791,20.615V7.872h6.84v10.547c0,2.124,1.115,3.275,2.771,3.275c1.62,0,2.844-1.152,2.844-3.275V7.872
		h6.839v19.474h-6.839v-2.664c-1.26,1.62-3.061,3.096-5.832,3.096C45.275,27.778,42.791,25.042,42.791,20.615z"/>
	<path fill="#800000" d="M66.298,7.872h6.839v2.664c1.26-1.62,3.06-3.095,5.795-3.095c2.592,0,4.572,1.152,5.616,3.167
		c1.691-1.944,3.67-3.167,6.515-3.167c4.14,0,6.659,2.591,6.659,7.127v12.778h-6.84V16.763c0-2.124-1.043-3.24-2.664-3.24
		c-1.617,0-2.807,1.116-2.807,3.24v10.583h-6.839V16.763c0-2.124-1.044-3.24-2.664-3.24c-1.619,0-2.771,1.116-2.771,3.24v10.583
		h-6.839V7.872z"/>
	<path fill="#800000" d="M101.794,7.872h6.839v2.736c1.26-1.62,3.06-3.167,5.831-3.167c4.14,0,6.623,2.735,6.623,7.163v12.742
		h-6.839V16.799c0-2.124-1.115-3.275-2.735-3.275c-1.656,0-2.88,1.152-2.88,3.275v10.547h-6.839V7.872z"/>
	<path fill="#800000" d="M125.158,1.069h7.127v5.04h-7.127V1.069z M125.3,7.872h6.842v19.474H125.3V7.872z"/>
	<path fill="#800000" d="M156.116,1.969h6.731l10.727,25.377h-7.487l-1.837-4.5h-9.718l-1.8,4.5h-7.343L156.116,1.969z
		 M162.234,17.411l-2.807-7.163l-2.844,7.163H162.234z"/>
	<path fill="#800000" d="M174.694,24.898l2.556-4.14c2.23,1.476,4.679,2.232,6.694,2.232c1.188,0,1.729-0.36,1.729-1.044v-0.072
		c0-0.756-1.08-1.08-3.132-1.656c-3.852-1.008-6.911-2.304-6.911-6.228v-0.072c0-4.14,3.312-6.443,7.811-6.443
		c2.844,0,5.796,0.828,8.026,2.268l-2.339,4.319c-2.016-1.116-4.211-1.8-5.759-1.8c-1.044,0-1.584,0.396-1.584,0.936v0.072
		c0,0.756,1.115,1.116,3.168,1.728c3.851,1.08,6.911,2.412,6.911,6.191v0.072c0,4.283-3.204,6.515-7.955,6.515
		C180.632,27.778,177.393,26.842,174.694,24.898z"/>
	<path fill="#800000" d="M193.378,24.898l2.557-4.14c2.23,1.476,4.678,2.232,6.693,2.232c1.188,0,1.729-0.36,1.729-1.044v-0.072
		c0-0.756-1.08-1.08-3.131-1.656c-3.853-1.008-6.912-2.304-6.912-6.228v-0.072c0-4.14,3.312-6.443,7.811-6.443
		c2.844,0,5.796,0.828,8.027,2.268l-2.34,4.319c-2.016-1.116-4.211-1.8-5.759-1.8c-1.044,0-1.585,0.396-1.585,0.936v0.072
		c0,0.756,1.117,1.116,3.169,1.728c3.851,1.08,6.911,2.412,6.911,6.191v0.072c0,4.283-3.204,6.515-7.955,6.515
		C199.316,27.778,196.078,26.842,193.378,24.898z"/>
	<path fill="#800000" d="M213.106,17.699v-0.072c0-5.543,4.536-10.187,10.799-10.187c6.226,0,10.726,4.571,10.726,10.115v0.072
		c0,5.543-4.534,10.187-10.798,10.187C217.605,27.813,213.106,23.242,213.106,17.699z M227.972,17.699v-0.072
		c0-2.375-1.728-4.392-4.14-4.392c-2.483,0-4.067,1.98-4.067,4.32v0.072c0,2.375,1.728,4.392,4.14,4.392
		C226.388,22.019,227.972,20.039,227.972,17.699z"/>
	<path fill="#800000" d="M237.261,17.699v-0.072c0-5.507,4.283-10.151,10.438-10.151c3.996,0,6.659,1.728,8.315,4.355l-4.644,3.456
		c-0.937-1.296-1.979-2.052-3.636-2.052c-2.195,0-3.815,1.944-3.815,4.32v0.072c0,2.52,1.584,4.427,3.888,4.427
		c1.619,0,2.663-0.756,3.742-2.016l4.572,3.312c-1.8,2.664-4.392,4.463-8.675,4.463C241.581,27.813,237.261,23.206,237.261,17.699z"
		/>
	<path fill="#800000" d="M259.077,1.069h7.127v5.04h-7.127V1.069z M259.22,7.872h6.84v19.474h-6.84V7.872z"/>
	<path fill="#800000" d="M269.444,21.767v-0.072c0-4.031,3.06-6.119,7.631-6.119c1.8,0,3.563,0.36,4.68,0.756v-0.324
		c0-2.016-1.261-3.168-3.888-3.168c-2.052,0-3.636,0.396-5.363,1.08l-1.404-4.823c2.196-0.9,4.535-1.512,7.883-1.512
		c3.492,0,5.867,0.828,7.415,2.376c1.477,1.44,2.087,3.456,2.087,6.191v11.195h-6.766V25.33c-1.332,1.476-3.168,2.448-5.724,2.448
		C272.288,27.778,269.444,25.654,269.444,21.767z M281.826,20.291v-0.9c-0.684-0.288-1.655-0.504-2.663-0.504
		c-1.979,0-3.132,0.972-3.132,2.412v0.072c0,1.332,1.008,2.124,2.411,2.124C280.422,23.494,281.826,22.234,281.826,20.291z"/>
	<path fill="#800000" d="M293.528,21.298v-7.919h-2.304V7.872h2.304V2.941h6.839v4.931h4.535v5.507h-4.535v6.587
		c0,1.368,0.612,1.943,1.872,1.943c0.9,0,1.763-0.252,2.591-0.647v5.363c-1.223,0.684-2.843,1.116-4.75,1.116
		C295.976,27.742,293.528,25.942,293.528,21.298z"/>
	<path fill="#800000" d="M308.396,1.069h7.127v5.04h-7.127V1.069z M308.54,7.872h6.84v19.474h-6.84V7.872z"/>
	<path fill="#800000" d="M318.944,17.699v-0.072c0-5.543,4.535-10.187,10.799-10.187c6.226,0,10.726,4.571,10.726,10.115v0.072
		c0,5.543-4.533,10.187-10.798,10.187C323.443,27.813,318.944,23.242,318.944,17.699z M333.81,17.699v-0.072
		c0-2.375-1.729-4.392-4.14-4.392c-2.483,0-4.067,1.98-4.067,4.32v0.072c0,2.375,1.727,4.392,4.14,4.392
		C332.226,22.019,333.81,20.039,333.81,17.699z"/>
	<path fill="#800000" d="M343.892,7.872h6.838v2.736c1.26-1.62,3.06-3.167,5.831-3.167c4.14,0,6.624,2.735,6.624,7.163v12.742h-6.84
		V16.799c0-2.124-1.115-3.275-2.735-3.275c-1.656,0-2.88,1.152-2.88,3.275v10.547h-6.838V7.872z"/>
	<path fill="#3C3C3C" d="M5.253,42.18h0.961l4.148,9.165H9.257l-1.066-2.404H3.238L2.16,51.345H1.106L5.253,42.18z M7.789,48.017
		l-2.067-4.641l-2.079,4.641H7.789z"/>
	<path fill="#3C3C3C" d="M14.977,42.246h1.027v8.15h5.122v0.949h-6.149V42.246z"/>
	<path fill="#3C3C3C" d="M25.441,47.537v-5.291h1.027v5.227c0,1.963,1.04,3.067,2.781,3.067c1.678,0,2.744-1.014,2.744-3.003v-5.291
		h1.027v5.213c0,2.652-1.521,4.03-3.797,4.03C26.976,51.489,25.441,50.111,25.441,47.537z"/>
	<path fill="#3C3C3C" d="M38.273,42.246h1.04l3.315,4.966l3.314-4.966h1.04v9.1h-1.026v-7.371l-3.314,4.875h-0.053l-3.315-4.861
		v7.357h-1.001V42.246z"/>
	<path fill="#3C3C3C" d="M52.378,42.246h0.962l5.733,7.293v-7.293h1.001v9.1h-0.819l-5.876-7.462v7.462h-1.001V42.246z"/>
	<path fill="#3C3C3C" d="M65.56,42.246h1.027v9.1H65.56V42.246z"/>
	<path fill="#3C3C3C" d="M71.382,52.476c0.65-0.233,0.925-0.571,0.872-1.131h-0.468V49.98h1.196v1.171
		c0,1.053-0.455,1.56-1.443,1.78L71.382,52.476z"/>
	<path fill="#3C3C3C" d="M84.798,42.246h3.407c2.054,0,3.406,1.092,3.406,2.886v0.026c0,1.963-1.639,2.977-3.575,2.977h-2.21v3.211
		h-1.028V42.246z M88.076,47.199c1.508,0,2.496-0.807,2.496-2.002V45.17c0-1.3-0.976-1.976-2.444-1.976h-2.301v4.004H88.076z"/>
	<path fill="#3C3C3C" d="M98.76,42.18h0.962l4.147,9.165h-1.105l-1.065-2.404h-4.954l-1.079,2.404h-1.053L98.76,42.18z
		 M101.295,48.017l-2.067-4.641l-2.08,4.641H101.295z"/>
	<path fill="#3C3C3C" d="M108.484,42.246h3.913c1.118,0,2.015,0.338,2.587,0.91c0.442,0.441,0.701,1.078,0.701,1.794v0.026
		c0,1.508-1.039,2.392-2.469,2.651l2.795,3.718h-1.262l-2.639-3.535h-2.6v3.535h-1.027V42.246z M112.306,46.886
		c1.365,0,2.34-0.701,2.34-1.871v-0.027c0-1.117-0.858-1.793-2.328-1.793h-2.807v3.691H112.306z"/>
	<path fill="#3C3C3C" d="M120.704,42.246h6.577v0.936h-5.55v3.107h4.966v0.936h-4.966v3.186h5.616v0.936h-6.644V42.246z"/>
	<path fill="#3C3C3C" d="M132.234,42.246h0.962l5.733,7.293v-7.293h1.001v9.1h-0.819l-5.877-7.462v7.462h-1V42.246z"/>
	<path fill="#3C3C3C" d="M147.73,43.195h-3.056v-0.949h7.15v0.949h-3.055v8.15h-1.04V43.195z"/>
	<path fill="#3C3C3C" d="M155.777,50.019l0.637-0.754c0.949,0.858,1.859,1.287,3.119,1.287c1.223,0,2.029-0.649,2.029-1.547V48.98
		c0-0.846-0.455-1.326-2.366-1.729c-2.095-0.455-3.056-1.131-3.056-2.626v-0.025c0-1.431,1.262-2.484,2.99-2.484
		c1.326,0,2.275,0.377,3.198,1.119l-0.598,0.793c-0.847-0.689-1.69-0.988-2.626-0.988c-1.184,0-1.938,0.65-1.938,1.469v0.026
		c0,0.858,0.467,1.339,2.47,1.768c2.028,0.442,2.964,1.183,2.964,2.574v0.026c0,1.56-1.301,2.574-3.106,2.574
		C158.05,51.476,156.869,50.995,155.777,50.019z"/>
	<path fill="#3C3C3C" d="M166.827,52.476c0.65-0.233,0.923-0.571,0.87-1.131h-0.467V49.98h1.196v1.171
		c0,1.053-0.455,1.56-1.443,1.78L166.827,52.476z"/>
	<path fill="#3C3C3C" d="M180.242,42.246h6.539v0.949h-5.512v3.25h4.927v0.936h-4.927v3.965h-1.027V42.246z"/>
	<path fill="#3C3C3C" d="M193.919,42.18h0.962l4.147,9.165h-1.105l-1.066-2.404h-4.953l-1.078,2.404h-1.054L193.919,42.18z
		 M196.455,48.017l-2.067-4.641l-2.079,4.641H196.455z"/>
	<path fill="#3C3C3C" d="M203.642,42.246h1.041l3.314,4.966l3.314-4.966h1.039v9.1h-1.025v-7.371l-3.315,4.875h-0.052l-3.315-4.861
		v7.357h-1.001V42.246z"/>
	<path fill="#3C3C3C" d="M217.838,42.246h1.026v9.1h-1.026V42.246z"/>
	<path fill="#3C3C3C" d="M224.351,42.246h1.028v8.15h5.122v0.949h-6.15V42.246z"/>
	<path fill="#3C3C3C" d="M235.31,42.246h1.027v9.1h-1.027V42.246z"/>
	<path fill="#3C3C3C" d="M241.824,42.246h6.578v0.936h-5.551v3.107h4.965v0.936h-4.965v3.186h5.615v0.936h-6.643V42.246z"/>
	<path fill="#3C3C3C" d="M252.757,50.019l0.637-0.754c0.949,0.858,1.859,1.287,3.12,1.287c1.222,0,2.028-0.649,2.028-1.547V48.98
		c0-0.846-0.455-1.326-2.366-1.729c-2.095-0.455-3.056-1.131-3.056-2.626v-0.025c0-1.431,1.262-2.484,2.99-2.484
		c1.326,0,2.275,0.377,3.198,1.119l-0.598,0.793c-0.847-0.689-1.69-0.988-2.626-0.988c-1.184,0-1.938,0.65-1.938,1.469v0.026
		c0,0.858,0.468,1.339,2.469,1.768c2.029,0.442,2.965,1.183,2.965,2.574v0.026c0,1.56-1.301,2.574-3.105,2.574
		C255.032,51.476,253.849,50.995,252.757,50.019z"/>
	<path fill="#3C3C3C" d="M276.351,50.058c-0.832,0.897-1.793,1.418-2.977,1.418c-1.639,0-2.86-1.027-2.86-2.549v-0.025
		c0-1.209,0.806-2.08,2.197-2.627c-0.624-0.728-0.911-1.287-0.911-2.002v-0.025c0-1.196,0.963-2.158,2.406-2.158
		c1.273,0,2.21,0.923,2.21,2.055v0.025c0,1.157-0.819,1.898-2.146,2.366l2.08,2.119c0.403-0.585,0.768-1.274,1.093-2.028
		l0.845,0.391c-0.404,0.857-0.82,1.638-1.312,2.287l1.586,1.625l-0.781,0.599L276.351,50.058z M275.727,49.421l-2.431-2.509
		c-1.209,0.442-1.742,1.183-1.742,1.95v0.025c0,0.976,0.779,1.717,1.898,1.717C274.31,50.605,275.064,50.15,275.727,49.421z
		 M275.455,44.221v-0.026c0-0.728-0.546-1.26-1.287-1.26c-0.819,0-1.378,0.571-1.378,1.312v0.025c0,0.533,0.221,0.937,0.91,1.678
		C274.856,45.56,275.455,45.001,275.455,44.221z"/>
	<path fill="#3C3C3C" d="M289.806,42.246h6.539v0.949h-5.512v3.25h4.927v0.936h-4.927v3.965h-1.027V42.246z"/>
	<path fill="#3C3C3C" d="M301.155,42.246h3.913c1.117,0,2.014,0.338,2.587,0.91c0.442,0.441,0.702,1.078,0.702,1.794v0.026
		c0,1.508-1.041,2.392-2.47,2.651l2.796,3.718h-1.262l-2.641-3.535h-2.598v3.535h-1.028V42.246z M304.977,46.886
		c1.365,0,2.339-0.701,2.339-1.871v-0.027c0-1.117-0.857-1.793-2.326-1.793h-2.807v3.691H304.977z"/>
	<path fill="#3C3C3C" d="M313.465,42.246h1.027v9.1h-1.027V42.246z"/>
	<path fill="#3C3C3C" d="M319.979,42.246h6.579v0.936h-5.552v3.107h4.966v0.936h-4.966v3.186h5.616v0.936h-6.644V42.246z"/>
	<path fill="#3C3C3C" d="M331.51,42.246h0.962l5.733,7.293v-7.293h1.001v9.1h-0.819l-5.876-7.462v7.462h-1.001V42.246z"/>
	<path fill="#3C3C3C" d="M344.601,42.246h3.158c2.859,0,4.836,1.963,4.836,4.523v0.026c0,2.562-1.977,4.55-4.836,4.55h-3.158V42.246
		z M347.759,50.396c2.301,0,3.77-1.56,3.77-3.574v-0.026c0-2.015-1.469-3.601-3.77-3.601h-2.132v7.201H347.759z"/>
	<path fill="#3C3C3C" d="M356.86,50.019l0.637-0.754c0.949,0.858,1.859,1.287,3.12,1.287c1.222,0,2.028-0.649,2.028-1.547V48.98
		c0-0.846-0.455-1.326-2.366-1.729c-2.094-0.455-3.056-1.131-3.056-2.626v-0.025c0-1.431,1.261-2.484,2.99-2.484
		c1.326,0,2.275,0.377,3.198,1.119l-0.598,0.793c-0.846-0.689-1.69-0.988-2.626-0.988c-1.184,0-1.938,0.65-1.938,1.469v0.026
		c0,0.858,0.469,1.339,2.471,1.768c2.028,0.442,2.965,1.183,2.965,2.574v0.026c0,1.56-1.301,2.574-3.107,2.574
		C359.134,51.476,357.951,50.995,356.86,50.019z"/>
</g>
<g>
</g>
<g>
</g>
<g>
</g>
<g>
</g>
<g>
</g>
<g>
</g>
</svg>
