<?xml version="1.0" encoding="utf-8"?>
<!-- Generator: Adobe Illustrator 16.0.4, SVG Export Plug-In . SVG Version: 6.00 Build 0)  -->
<!DOCTYPE svg PUBLIC "-//W3C//DTD SVG 1.1//EN" "http://www.w3.org/Graphics/SVG/1.1/DTD/svg11.dtd" [
	<!ENTITY st0 "fill:#8B0021;">
]>
<svg version="1.1" id="Layer_1" xmlns="http://www.w3.org/2000/svg" xmlns:xlink="http://www.w3.org/1999/xlink" x="0px" y="0px"
	 width="24px" height="30.49px" viewBox="0 0 24 30.49" style="enable-background:new 0 0 24 30.49;" xml:space="preserve">
<path style="&st0;" d="M24,17.61l0-17.02c-13.68-1.32-24,0-24,0s0,17.02,0,17.03c1.09,11.54,11.9,12.9,12,12.88
	C13.93,30.14,22.99,28.32,24,17.61L24,17.61z M3.85,21.86c0.22,0.15,0.48,0.21,0.71,0.31c0.29,0.76,0.01,1.51-0.16,1.2
	C4.12,22.83,4.01,22.38,3.85,21.86L3.85,21.86z M3.87,13.49l-0.02-0.02c-0.02,0-1.52,0.95-2.49,0.49c0.73-0.4,3.24-2,3.92-2.45
	c0.32,0.07,0.46-0.05,0.56-0.12c-0.26,0.02-1.13,0.15-0.69-0.63c0.17,0.7,1.39,0.06,1.83-0.04c1.22-0.28,1.21,1.02,1.11,1.56
	c-0.04,0.2,0.37,0.34,0.58,0.31c-0.35,0.86-0.95,0.05-1.02,0.38c-0.03,0.13-0.43,0.24-0.43,0.57c0,0.45,0.18,0.21,0.2,0.56
	c0.02,0.34-0.14,0.08-0.11,0.44c0.06,0.58,1.02-0.08,1.42,0.08c0.2,0.08,0.33,0.26,0.53,0.22c0.06-0.05,0.03-0.27,0.02-0.35
	c-0.02-0.18-0.36-0.21-0.52-0.46c-0.14-0.22,0.16-0.88,0.32-1.08c0.23,1.1,1.26,0.75,1.41,1.9c0.1,0.33-0.35,0.69,0.01,1.22
	c-0.27,0.26-0.6,1.51-0.03,2.1c-0.1,0.26-0.22,0.88,0.28,1.23c-0.17,0.36-0.13,0.8,0.01,1.25c-0.31,0-0.25-1.76-2.14-1.82
	c-0.04-0.01-0.05,0.2,0,0.3c0.23,0.4,0.53,0.37,0.46,1.31c-0.02,0.32-0.21-0.06-0.31-0.14c-0.23-0.2-0.4-0.23-0.5-0.88
	c-0.77,0.6-0.69,1.33-0.64,1.7c0,0-0.17-0.46-0.36-0.93c-0.01-0.03,0.78-0.97,0.9-1.2c1.59-2.86-1.03,0.92-1.03,0.91
	C7,19.58,6.87,19.3,6.79,19.21c0.02-0.04,0.46-0.53,0.65-0.94c1.23-2.56-0.73,0.85-0.8,0.79c-0.15-0.13-0.27-0.3-0.36-0.24
	c-0.02,0.39-0.12,0.34-0.09,0.74c-0.2,0.27-0.64,0.7-0.95,0.92c0,0-0.08-0.71-0.06-0.74c0.15-0.19,0.76-0.84,0.88-1.03
	c2.01-3.16-0.94,0.76-0.95,0.73c-0.02-0.13-0.18-0.33-0.36-0.51c0,0,0.65-0.89,0.81-1.22c1.23-2.52-0.99,1.12-1.01,1.1
	c-0.05-0.03-0.06-0.03-0.12-0.05c-0.06-0.02,0.07-0.73,0.15-1.15c0.17-0.84-0.28-0.16-0.4,1.17c-0.11,0.02-0.39,0.05-0.49,0.14
	c0.07,0.35,0.15,0.08,0.3,0.42c0.18,0.41-0.25,1.08,0.12,1.57c0.14,0.19,0.15,0.16,0.12,0.28c-0.23-0.02-0.37-0.02-0.51,0.18
	c-0.28-1.27-0.27-1.89-0.21-3.18c0.03-0.59,0.22-1.48,0.13-1.5c-0.08-0.02-1.42,3.42-1.74,4.09c-0.56-0.19,0.35-3.16,1.51-4.6
	c0.11-0.46-0.61,0.46-1.04,0.83c-0.39,0.33-0.89,0.77-1.43,0.62c0.7-0.74,2.29-2.11,2.47-2.46c0.15-0.29-1.09,0.92-2.4,0.47
	C1.89,15.2,3.86,14.19,3.87,13.49L3.87,13.49z M6.22,19.96c0.01,0.31-0.02,0.55,0.07,0.86c0.15,0.48,0.07,0.33-0.13,0.17
	c-0.16-0.18-0.31-0.33-0.39-0.53C5.76,20.3,5.88,20.3,6.22,19.96L6.22,19.96z M9.38,12.21c-0.19-0.33,0.23-0.63,0.23-0.63
	c-0.01,0.91,1.16,0.29,1.77,0.58c0.15,0.07,0.25,0.2,0.31,0.33C11.03,12.03,9.82,12.95,9.38,12.21L9.38,12.21z M2.5,4.91
	c-1.04,0-1.02-1.56,0-1.56C3.53,3.34,3.53,4.91,2.5,4.91L2.5,4.91z M2.5,8.03c-1.07,0-1.07-1.56,0-1.56
	C3.53,6.47,3.54,8.03,2.5,8.03L2.5,8.03z M4.48,4.66H3.58V3.76h0.91V4.66L4.48,4.66z M4.48,7.77H3.58v-0.9h0.91V7.77L4.48,7.77z
	 M11.83,9.31c0,0-0.95-0.52-2.07-0.59C8.68,8.65,6.5,9.51,4.82,9.4V2.04c0,0,1.91,0.25,2.7-0.05c2.67-1.03,4.31,0.12,4.31,0.12V9.31
	L11.83,9.31z M13.68,10.51c0.05,0.28-0.21,0.35-0.21,0.35c0.4,0.09,0.59-0.14,0.67-0.3c0.15,0.64-0.49,0.68-0.69,0.71
	c0,0,0.33,0.09,0.34,0.31c0.04,0.54,0.39,0.5,0.47,0.45c-0.01,0.07-0.12,0.39-0.51,0.1c-0.07,0.07,0.11,0.17,0.14,0.43
	c0.04,0.34,0.03,0.66,0.43,0.86c-0.24,0.19-0.52-0.31-0.55-0.25c-0.03,0.07,0.33,0.25-0.06,1.19c-0.18-0.11-0.08-0.08-0.29-0.34
	c-0.16-0.13-0.22-0.17-0.09,0.06c0.24,0.29,0.29,0.96,0.21,1.15c-0.19-0.08-0.14-0.24-0.37-0.45c-0.02,0.09,0.07,0.54,0.31,0.75
	c0.41,0.37,0.55,0.81,0.56,0.9c0.03,0.33-0.07,0.78-0.11,1.21c-0.2-0.03-0.36-0.58-0.41-0.55c-0.06,0.04,0.02,0.54,0.39,0.89
	c0.18,0.52,0.11,0.8,0.06,0.82c-0.06,0.03-0.26-0.53-0.37-0.44c0.53,1.34,0.16,1.8,0.02,2.21c-0.11-0.42-0.16-0.74-0.3-1.22
	c-0.29,0.22-0.35,0.56-0.71,0.86c0-0.54-0.32-1.86-0.56-2.17c-0.01-0.01-0.45,1.18-0.65,1.71c-0.26,0.69-0.3,1.55,0,2.22
	c-0.65-0.92-0.72-2.64-0.16-2.87c0.05-0.12-0.03-0.53-0.16-0.48c-0.04,0.2-0.01,0.37-0.18,0.56c-0.43-0.13-0.23-0.65-0.19-0.82
	c0.56-0.67,0.21-0.82,0.18-0.81c-0.06,0.15-0.11,0.34-0.28,0.41c-0.36-0.61-0.13-1.58,0.55-2.3c0.03-0.27-0.3,0.2-0.52,0.18
	c-0.06-0.52,0.13-1.42,1.09-1.45c-0.18-0.05-0.28-0.09-0.33-0.24c0.29-0.04,1.2-0.11,1.05-0.83c-0.09,0.09-0.11,0.22-0.35,0.36
	c-0.16,0.1-0.33,0.11-0.42-0.03c0.42-0.14,0.28-0.65-0.27-0.5c-0.17,0.05-0.42-0.13-0.43-0.33c0.12,0.12,0.37,0.03,0.51-0.06
	c0.62-0.4,1,0.18,1.08,0.31c0.02,0,0.28-0.58-0.6-0.74c-0.07-0.21-0.27-0.57-0.87-0.52c-0.2-0.69-0.79-0.35-0.77-0.04
	c-0.63-0.47,0.01-1.05,0.27-1.14c0.18,0.01,0.14,0.58,0.45,0.48c0.08-0.02-0.24-0.39-0.12-0.55c0.29-0.16,0.28,0.21,0.42,0.07
	c0.07-0.24,0.35-0.38,0.58-0.41C12.55,10.15,13.06,10.86,13.68,10.51L13.68,10.51z M19.5,9.43c-1.4,0.1-4.32-0.7-5.06-0.7
	c-1.53,0-2.27,0.6-2.27,0.6s0-6.94,0-7.19c0,0,2.01-0.94,3.47-0.4C17.43,2.39,19.5,2.1,19.5,2.1V9.43L19.5,9.43z M21.34,6.59
	c0.77-0.11,0.89,0.8,0.89,0.8h0c-0.19-0.15-0.57-0.22-0.83-0.05C20.54,7.9,19.76,7.9,19.76,7.9V6.51
	C19.76,6.51,19.92,6.8,21.34,6.59L21.34,6.59z M22.26,4.68c-0.01-0.04-0.01-0.1-0.03-0.19c-0.02-0.14-0.42-0.22-0.7-0.1
	c-0.4,0.17-1.39,0.74-1.75,0.63V3.63c0.89,0.39,1.24,0.04,1.53,0.04c0.88,0,0.93,0.82,0.93,0.82C22.25,4.58,22.26,4.64,22.26,4.68
	L22.26,4.68z M21.26,19.14c-0.26,0.07-0.95,0.34-1.11,0.61c0.09-1.49-0.39-2.95-0.54-3.3c-0.3-0.69,0.13,1.6,0.16,2.12
	c0,0.02-2.47-3.17-0.98-0.71c0.39,0.64,0.99,1.05,0.99,1.07c0.01,0.44-0.02,0.77-0.1,1.01c-0.15,0.12-3.36-4.27-1.59-1.23
	c0.22,0.38,1.51,1.52,1.5,1.54c-0.08,0.17-0.23,0.43-0.43,0.61c-0.03-0.03-0.74-0.55-0.75-0.59c-0.05-0.34-0.06-0.66-0.48-0.42
	c0,0-1.58-1.84-0.85-0.55c0.32,0.56,0.53,0.63,0.62,0.73c0,0-0.25,0.33-0.32,0.69c-0.03,0.14-1.37-1.49-0.85-0.46
	c0.17,0.33,0.78,0.68,0.77,0.71c-0.06,0.21-0.13,0.42-0.19,0.55c-0.08,0.17-1.26,1.11-1.26,1.11c0,0,0.23-0.74,0.73-1.11
	c0.29-0.21,0.29-0.16,0.48-0.28c0-0.11-0.11-0.29-0.25-0.34c-0.17-0.06-0.73,0.04-0.73,0.04c0.05-0.28-0.19-0.88-0.19-1.54
	c-0.21,0.02-0.58,0.34-0.67,0.53c-0.06,1.09-0.3,0.77-0.52,1.55c-0.24-0.33,0.02-0.8-0.22-1.11c-0.33-0.42-0.38-0.71-0.42-1.23
	c0.08-0.04,0.41-0.41,0.11-1.18c-0.05-1.21,0.49-1.67-0.48-2.52c0.08-0.03,0.14-0.63,0.14-0.63c0.71,0.38,0.57-0.44,0.85-0.6
	c0.44-0.26,0.36-0.52,0.16-0.85c1.26,0.36-0.06,1.22,0.51,1.24c0.41,0.01,0.69-0.09,0.87-0.37c0.19-0.29-0.03-0.47,0.5-0.95
	c0.05-0.05,0.2-0.37-0.23-0.45c-0.09-0.02,0-0.38,0-0.38c-0.34,0.29-0.45,0.69-0.99,0.44c-0.28-0.13-0.46,0-0.58,0.05
	c0,0-0.06-0.23,0.17-0.31c0.6-0.2,0.75-0.44,0.71-0.57c-0.08-0.31-0.1,0-0.09-0.33c0.01-0.13,0.16-0.31,0.28-0.46
	c0.41-0.49,0.69-0.31,0.8-0.26c0.24-0.18,0.28-0.17,0.5-0.26c0.38-0.15,1.19,0.1,1.64,0.31c0.22,0.1,0.48,0.16,0.74,0.1
	c0,0.13-0.1,0.2-0.19,0.23c-0.14,0.04-0.31,0-0.3,0.1c0.01,0.06,0.2,0.07,0.32,0.1c0.67,0.18,1.55,0.79,0.97,0.66
	c-0.07-0.01,0.41,0.36,0.78,0.85l1.29,1.25c-0.06,0.07-0.51,0.01-1.94-1.33c-0.2,0.18,1.74,1.64,2.54,3.19
	c-0.07,0.05-1.07-0.31-1.43-0.69c-0.55-0.57-1.19-2.03-1.45-1.82c-0.03,0.01,1.05,1.7,1.59,2.7c0.27,0.51,0.49,1.23,0.51,1.78
	c0.09,2.7-0.32,2.49-0.32,2.49c-0.63-2.13-0.93-4.6-1.85-5.74C19.85,14.49,21.21,16.93,21.26,19.14L21.26,19.14z M18.47,21.57
	c-0.29,0.25-0.47,0.34-0.41,0.21c0.07-0.14,0.12-0.26,0.16-0.36C18.23,21.39,18.47,21.57,18.47,21.57L18.47,21.57z M18.28,21.23
	c0.06-0.23,0.06-0.38,0.09-0.58c0.01-0.09,0.01-0.08,0.02-0.15c0-0.02,0.62,0.51,0.65,0.54c-0.16,0.19-0.29,0.26-0.44,0.4
	C18.51,21.35,18.28,21.25,18.28,21.23L18.28,21.23z M20.28,21.92c-0.86,0.85-2.14,0.54-3.15,0.99c-0.92,0.33-1.58,1.18-2.54,1.4
	c-0.28,0.09-0.33,0.23-0.15,0.23c0.11,0,0.69,0.61,1.63,0.14c0.31-0.16,1.29-0.7,1.45-0.73c-0.53,0.5-0.79,0.95-1.26,1.21
	c-0.29,0.16-1.46,0.58-2.63,0.35c-0.52-0.1-0.92,0.38-0.79,0.37c0.28-0.07,0.59-0.04,0.78,0.21c0.34,0.27,0.83,0.6,1.26,0.1
	c0.14-0.16,0.81-0.51,1.44,0.13c-0.67-0.03-0.6,1.17-1.88,1.03c-0.47,0-1.51-1.08-1.81-0.75c-0.53,0.59,1.13,1.15,0.41,1.9
	c-0.65,0.67-1.42-0.54-1.42-0.54c0.4,0.17,1.15,0.28,0.82-0.38c-0.13-0.26-0.38-0.5-0.38-0.98c-0.06-0.24-1.54,1.91-2.52,0.94
	c-0.39-0.38-1.17-1.22-1.87-1.54c1.87-0.16,2.16,0.59,2.25,0.71c0.6,0.81,1.15-0.01,1.28-0.16c0.2-0.22,0.47-0.53,0.37-0.57
	c-0.73-0.34-1.56-0.42-2.18-0.13c1.33-1.82,2.36-0.12,2.36-0.12c0.15,0.09-0.04-1.08-1.35-1.15c-0.82-0.04-1.54,0.7-2.11,0.7
	c-0.46,0-1.85-0.94-2.18-1.78c0.81,0.61,1.84,0.96,2.49,0.57c1.21-0.72,2.74,0.37,2.81,0.24c-0.34-0.27-1.11-1.3-3.19-0.71
	c-0.81,0.46-1.15-0.34-1.64-0.36c0.84-0.75,1.43-0.37,1.72-0.34c0.07,0-0.35-0.35-0.65-0.38c-2.3-0.24-3.76-0.87-3.76-0.87
	c-0.01,0,0.19-0.46,1.18-0.13c0,0-0.89-0.54-0.88-1.24c0.03-0.43,0.24-0.89-0.09-1.25c1.33-0.05,0.39,1.81,1.32,2.29
	c0.02,0.01-0.28-0.44,0.14-0.79c0.19,0.55,0.67,0.83,1.01,0.92c0.08-0.04,0.18-0.21,0.18-0.21c-0.35-0.58-0.4-1.26-0.3-2.04
	l0.01-0.01c0.08,0,0.2,0.27,0.29,0.46c0.19,0.42,0.19,1.02,0.58,1.52c0.21,0.27,0.35,0.55,0.54,0.68c0.08-0.19,0.02-0.53,0.01-0.62
	c-0.04-0.32-0.24-0.87,0.3-1.36c0.25,0.73,0.6,0.52,0.64,0.87c0.06,0.49,0.04,0.41-0.01,0.79c0.03,0.52,0.5,0.66,0.92,1
	c0.94,0.51,1.57,0.79,1.98,1.45c0.2-1.11-2.79-1.33-2.41-3.47c-0.04-0.85,0.11-0.93-0.5-1.45c1.2,0.04,1.86,2.01,1.92,2.37
	c0.12,0.66,0.52,0.7,1.07,1.56c0.08,0.03-0.99-2.3,0.28-4.29c0,0,0.43,1.03,0.23,1.71c-0.12,0.41-0.01,0.86,0.01,1.12
	c0.02,0.26-0.05-0.94,0.85-1.57c0.06,0.46,0.49,1.16,0.08,1.92c-0.5,0.92-0.54,0.59-0.55,1.72c0.05-0.02,0.18-0.78,0.52-1.21
	c0.73-0.91,0.21-1.4,0.92-2.2c0.06,0.4,0.16,0.24,0.2,0.59c0.1,0.79-0.73,1.66-0.55,1.63c0.21-0.03,0.55-0.21,0.66-0.81
	c0,0,0.3,0.55,0.03,0.73c-0.5,0.33-0.61,0.69-0.53,1.09c0.4-0.48,0.96-1.02,0.86-1.71c0.05-0.42,0.5-0.58,0.58-1.55
	c0.02-0.16,0.17-0.35,0.33-0.44c-0.07,0.54,0.35,1.1-0.13,1.76c0.11,0.06,0.51-0.52,1.1-0.31c-1.19,0.21-0.84,1.5-1.75,2.09
	c-0.27,0.18-0.23,0.38-0.31,0.4c0.81-0.05,1.44-1.01,1.55-1.09c0.82-0.55,0.99-0.64,1.32-1.53c0.13-0.34,0.03-0.49,0.49-0.95
	c0.2,0.45-0.09,1.39-0.16,1.59c-0.15,0.43-0.66,0.81-0.55,0.81c2.19-0.97,2.16-1.61,2.68-2.31c0.16-0.26,0.94-0.72,1.23-0.76
	c-0.07,0.14-0.37,0.39-0.39,0.65c-0.03,0.48-0.18,0.78-0.43,1.17c0.14,0.17,0.4-0.32,0.66-0.07C20.72,21.29,20.56,21.69,20.28,21.92
	L20.28,21.92z M20.65,21.79c-0.13,0.64-0.35,1.23-0.73,1.78c-0.27,0.39-0.38-0.37-0.15-1.1C20.1,22.34,20.43,22.08,20.65,21.79
	L20.65,21.79z M18.98,5.62c-0.05-0.02-0.16-0.04-0.22-0.04c-0.07,0-0.1,0.1-0.02,0.12c0.05,0.02,0.15,0.03,0.25,0.04
	C19.05,5.74,19.03,5.64,18.98,5.62L18.98,5.62z M18.74,5.93c0.05,0.02,0.15,0.03,0.25,0.04c0.06,0.01,0.04-0.1-0.01-0.12
	c-0.05-0.02-0.15-0.04-0.22-0.04C18.69,5.81,18.65,5.9,18.74,5.93L18.74,5.93z M18.74,7.32c-0.05-0.06-0.18-0.17-0.3-0.25
	c-0.07,0.06-0.2,0.16-0.29,0.2C18.08,7.2,17.99,7.1,17.86,7c-0.08,0.05-0.31,0.26-0.41,0.32c0.14,0,0.35,0.05,0.36,0.18
	c0,0.11-0.01,0.76,0,0.89c0.09,0.02,0.19,0.01,0.31,0c0.01-0.09,0-0.85,0.01-0.95c0.04-0.02,0.09-0.05,0.12-0.07
	c0.05,0.04,0.19,0.21,0.28,0.25c0.06-0.04,0.21-0.18,0.28-0.24C18.87,7.31,18.8,7.27,18.74,7.32L18.74,7.32z M18.35,6.21
	c0.08-0.14,0.2-0.38,0.19-0.56c-0.01-0.22-0.15-0.54-0.47-0.65c-0.41,0.14-0.66,0.47-0.67,0.85c-0.01,0.22,0.18,0.68,0.57,0.68
	C18.1,6.42,18.22,6.3,18.35,6.21L18.35,6.21z M18.1,6.3c-0.08-0.04-0.35-0.25-0.41-0.41c-0.08-0.22-0.08-0.46,0.15-0.6
	c0.18,0.07,0.39,0.25,0.41,0.41C18.28,5.91,18.22,6.16,18.1,6.3L18.1,6.3z M18.09,4.61l0.29-0.32c0,0-0.13-0.1-0.21-0.2
	c0-0.07,0-0.71,0.03-0.74c-0.22-0.2-0.38-0.22-0.48-0.21c-0.18,0.03-0.36,0.26-0.42,0.33c-0.04,0.06-0.03,0.14,0,0.17
	c0.04,0.03,0.08,0.06,0.13,0.09c-0.01,0-0.02-0.01-0.02-0.01c-0.08,0.08-0.21,0.3-0.2,0.46c0,0.15,0.14,0.38,0.23,0.46
	c0.1-0.08,0.26-0.21,0.48-0.26C17.96,4.48,18.01,4.55,18.09,4.61L18.09,4.61z M17.92,3.87c-0.14-0.05-0.43-0.18-0.53-0.27
	c-0.03-0.02-0.03-0.03,0-0.09c0.07-0.1,0.14-0.18,0.19-0.18c0.04,0,0.33,0.16,0.32,0.24C17.92,3.62,17.92,3.75,17.92,3.87
	L17.92,3.87z M17.92,4.3c-0.08,0-0.14,0.02-0.24,0.07c-0.08-0.06-0.28-0.31-0.13-0.59c-0.02-0.01-0.04-0.02-0.06-0.04
	c0.14,0.08,0.3,0.15,0.43,0.19c0,0.11,0,0.21,0,0.25C17.91,4.23,17.92,4.27,17.92,4.3L17.92,4.3z M17.08,2.99
	c-0.07,0-0.53,0.01-0.54-0.02c-0.03-0.1-0.04-0.22,0.04-0.39c0.04-0.08-0.04-0.12-0.07-0.03c-0.03,0.08-0.26,0.4-0.5,0.5
	c-0.12,0.05,0.15,0.16,0.13,0.16c0,0.31,0.04,0.77,0.11,0.96c0.04,0.11,0.17,0.29,0.25,0.23c0.06-0.04,0.18-0.28,0.21-0.31
	c0.07-0.05,0-0.15-0.05-0.09c-0.06,0.05-0.11-0.03-0.13-0.09c-0.02-0.05-0.08-0.73-0.05-0.75c0,0,0.55-0.07,0.6-0.07
	C17.11,3.11,17.12,2.99,17.08,2.99L17.08,2.99z M15.57,4.24l0.23-0.29c-0.16-0.03-0.23-0.06-0.35-0.19l0-0.73l-0.23-0.23L15.15,2.8
	l-0.36,0.32c-0.04,0.06,0.06,0.06,0.11-0.01l0.26,0.15l0.01,0.71c0.02,0.08,0.09,0.17,0.19,0.27H15.57L15.57,4.24z M15.38,2.62
	l0.13-0.11V2.33l-0.17-0.17l-0.17,0.14l0,0.2l0.11,0.1H15.38L15.38,2.62z M14.8,2.39c-0.1-0.01-0.42,0.02-0.53,0.03
	c-0.12,0.02-0.12,0.07-0.02,0.09c0.1,0.01,0.11,0.03,0.17,0.16c0.05,0.13-0.19,0.72-0.24,0.86c-0.07-0.1-0.31-0.64-0.31-0.72
	c0-0.05,0.11-0.1,0.16-0.12c0.09-0.03,0.09-0.09,0.02-0.1c-0.19-0.03-0.87-0.09-0.99-0.1c-0.09-0.01-0.13,0.09-0.02,0.09
	c0.11,0,0.22-0.03,0.34,0.14c0.14,0.2,0.57,1.12,0.67,1.51c0.05-0.08,0.48-1.32,0.5-1.46c0.03-0.13,0.12-0.25,0.25-0.29
	C14.91,2.46,14.9,2.4,14.8,2.39L14.8,2.39z M12.77,5.39c0.01,0.52,0.21,0.56,0.45,0.7c0.22,0.13,0.6,0.1,0.88,0.03
	c0.11-0.03,0.16-0.04,0.16,0.05c0,0.06,0.08,0.04,0.08,0c0-0.04,0-0.48,0-0.52c0-0.05-0.08-0.05-0.08,0c0,0.07,0,0.09-0.07,0.2
	c-0.19,0.29-0.67,0.27-0.93-0.08c-0.09-0.12-0.17-0.28-0.07-0.31c0.1-0.03,0.41,0.03,0.62,0.05c0.12,0.01,0.41,0.04,0.44,0.06
	c0.03,0.02,0.08,0.05,0.08-0.01c0-0.06,0-0.26,0-0.32c0-0.06-0.05-0.03-0.08-0.01c-0.04,0.02-0.34,0.08-0.46,0.1
	c-0.12,0.02-0.5,0.05-0.6,0.02c-0.1-0.03-0.07-0.24,0.02-0.35c0.26-0.35,0.79-0.32,0.98-0.03c0.07,0.1,0.07,0.12,0.07,0.2
	c0,0.04,0.08,0.05,0.08,0c0-0.05,0.01-0.57,0.01-0.61s-0.08-0.06-0.08,0c0,0.04-0.08,0.06-0.17,0.04c-0.16-0.05-0.64,0.02-0.85,0.14
	C13.05,4.83,12.76,5.08,12.77,5.39L12.77,5.39z M12.86,6.31c0.01,0.15,0.06,1.41,0.04,1.58C12.89,8,13.03,8.1,13.15,8.18
	c0.06-0.07,0.19-0.26,0.3-0.34c0.06-0.05,0.02-0.09-0.03-0.07c-0.1,0.04-0.19,0.01-0.2-0.1c-0.01-0.11-0.01-1.2,0-1.36
	C13.14,6.32,12.93,6.32,12.86,6.31L12.86,6.31z M13.9,7.34c-0.08,0.08-0.23,0.28-0.23,0.44c0,0.16,0.08,0.3,0.17,0.39
	c0.15-0.11,0.25-0.25,0.5-0.35c0.03,0.12,0.12,0.14,0.21,0.21c0.06-0.07,0.28-0.33,0.32-0.38c0.05-0.05,0.02-0.09-0.05-0.05
	c-0.07,0.05-0.12,0.02-0.23-0.1c0-0.07-0.01-0.61,0.02-0.64c-0.1-0.11-0.2-0.26-0.32-0.25c-0.18,0.01-0.41,0.33-0.46,0.41
	c-0.04,0.06,0,0.28,0.04,0.31C13.88,7.33,13.89,7.33,13.9,7.34L13.9,7.34z M14.02,7.43c0.1,0.06,0.15,0.02,0.3,0
	c0,0.1,0,0.18,0,0.23c-0.07,0.05-0.15,0.09-0.25,0.14C14,7.75,13.89,7.69,14.02,7.43L14.02,7.43z M13.94,6.98
	c0.06-0.1,0.11-0.12,0.16-0.12c0.05,0,0.23,0.13,0.22,0.21c0.01,0.05,0.01,0.17,0.01,0.28c-0.14,0.02-0.23,0.03-0.38-0.1
	C13.92,7.24,13.91,7.04,13.94,6.98L13.94,6.98z M15.04,6.78c-0.12,0.06,0.15,0.17,0.14,0.16c0,0.31-0.07,0.81,0.04,0.96
	c0.06,0.1,0.21,0.16,0.31,0.12c0.1-0.04,0.22-0.23,0.25-0.26c0.07-0.05,0.01-0.11-0.05-0.05c-0.06,0.05-0.22,0.02-0.24-0.04
	c-0.02-0.06-0.04-0.72-0.01-0.74c0,0,0.19,0,0.24,0c0.04,0,0.04-0.12,0-0.12c-0.07,0-0.22-0.01-0.23-0.04
	c-0.02-0.06,0.01-0.27,0.04-0.35c0.04-0.08-0.04-0.12-0.07-0.04C15.44,6.47,15.24,6.68,15.04,6.78L15.04,6.78z M15.09,5.4
	c0.01,0.29-0.14,0.59-0.3,0.73c0.28-0.07,0.32-0.24,0.48-0.44c0.09,0.13,0.24,0.28,0.36,0.35c0.08-0.05,0.31-0.31,0.36-0.37
	c-0.17-0.04-0.49-0.22-0.57-0.4c-0.06-0.13-0.05-0.2,0.01-0.3c0.06,0.07,0.45,0.25,0.62-0.05c-0.19-0.07-0.37-0.2-0.42-0.3
	c-0.05,0.04-0.22,0.23-0.32,0.29C15.29,4.81,15.13,4.7,15,4.67c-0.04,0.04-0.34,0.28-0.48,0.34c-0.04,0.02-0.03,0.11,0.03,0.09
	c0.06-0.02,0.15-0.1,0.26-0.15C14.94,5.01,15.08,5.13,15.09,5.4L15.09,5.4z M16.45,5.44c0.03-0.17,0.16-0.25,0.21-0.3
	c0.08,0.09,0.16,0.19,0.28,0.19c0.12,0,0.24-0.05,0.28-0.1c-0.1-0.08-0.32-0.31-0.36-0.35c-0.11,0.06-0.6,0.31-0.64,0.6
	C16.16,5.91,16.3,6,16.48,6.23c0.11,0.13,0.28,0.14,0.36,0.12c0.09-0.06,0.4-0.36,0.44-0.4c0.03-0.04-0.01-0.07-0.05-0.03
	c-0.04,0.04-0.02,0.05-0.08,0.06c-0.05,0.01-0.27,0.04-0.4-0.02C16.6,5.87,16.4,5.68,16.45,5.44L16.45,5.44z M16.21,6.81
	c-0.07,0.07-0.2,0.16-0.31,0.29c0.1,0.01,0.18,0.03,0.22,0.12c0.05,0.09,0.01,0.48,0.01,0.63c0.01,0.15,0.1,0.18,0.21,0.3
	c0.12-0.03,0.44-0.16,0.55-0.24c-0.01,0.12,0.14,0.25,0.23,0.28c0.06-0.07,0.12-0.1,0.21-0.18c-0.09-0.06-0.07-0.07-0.11-0.18
	c-0.03-0.11,0.01-0.53,0.01-0.7c-0.07-0.1-0.18-0.23-0.29-0.31c-0.08,0.07-0.19,0.17-0.32,0.31c0.1-0.01,0.28,0.03,0.29,0.11
	c0.01,0.1,0.02,0.33,0,0.5c-0.02,0.18-0.5,0.1-0.5-0.02c-0.01-0.12,0.02-0.47,0.03-0.64C16.37,6.96,16.33,6.91,16.21,6.81
	L16.21,6.81z M13.06,11.08v-0.02c-0.27-0.04-0.49-0.23-0.74-0.33c-0.35-0.13-0.72,0.14-0.72,0.18c0,0.09,0.1,0.14,0.38-0.04
	c-0.22,0.25,0.03,0.46,0.03,0.46c-0.09-0.01-0.22-0.04-0.31-0.09c-0.02,0.09,0.11,0.12,0.17,0.17
	C12.34,11.61,12.65,11.16,13.06,11.08L13.06,11.08z M12.27,11.32c0,0,0.12-0.13,0.12-0.23c0-0.13-0.12-0.22-0.12-0.22
	c0.11,0.03,0.36,0.17,0.44,0.23L12.27,11.32L12.27,11.32z M9.72,7.79l0.13-0.15C9.7,7.61,9.77,7.61,9.69,7.54l0-0.61l-0.2-0.29
	L9.41,6.65L9.11,6.94C9.03,7.01,9.1,7.04,9.19,6.96l0.2,0.11l0,0.65c0.02,0.08,0.09,0.1,0.19,0.2L9.72,7.79L9.72,7.79z M9.78,5.65
	c0.1,0.29,0.35,0.39,0.53,0.4c0.05-0.1,0.15-0.25,0.21-0.32c0.08-0.11,0-0.17-0.06-0.05c-0.04,0.1-0.28-0.01-0.37-0.09
	C9.98,5.48,9.91,5.2,10,5.1c0.09-0.1,0.23-0.05,0.4-0.06c0.11-0.01,0.14-0.11,0.16-0.16c-0.05-0.03-0.14-0.07-0.24-0.14
	c-0.11,0.07-0.28,0.21-0.35,0.28C9.87,5.1,9.68,5.37,9.78,5.65L9.78,5.65z M10.22,7.27c-0.11,0.11-0.19,0.24-0.19,0.4
	c0.01,0.15,0.06,0.3,0.21,0.37c0.14-0.1,0.31-0.22,0.48-0.25c0.08,0.1,0.21,0.17,0.29,0.23c0.05-0.06,0.22-0.2,0.27-0.24
	c0.04-0.04,0-0.11-0.05-0.05c-0.04,0.05-0.15,0.01-0.19-0.04c0-0.06-0.06-0.75-0.03-0.78c-0.1-0.11-0.27-0.36-0.38-0.34
	c-0.17,0.02-0.41,0.25-0.47,0.33c-0.04,0.06,0.01,0.34,0.04,0.37C10.21,7.26,10.22,7.27,10.22,7.27L10.22,7.27z M10.66,7.33
	c-0.12,0-0.23-0.04-0.37-0.16C10.27,7.15,10.24,7,10.27,6.95c0.06-0.1,0.06-0.12,0.11-0.12c0.04,0,0.29,0.15,0.28,0.23
	C10.67,7.12,10.67,7.22,10.66,7.33L10.66,7.33z M10.33,7.35c0.11,0.08,0.18,0.07,0.33,0.05c-0.01,0.08-0.01,0.15-0.01,0.18
	c0,0.04,0.01,0.06,0.02,0.09c-0.07,0.03-0.17,0.04-0.24,0.08C10.36,7.7,10.11,7.54,10.33,7.35L10.33,7.35z M11.27,6.09l0.14-0.15
	c-0.15-0.03-0.15-0.02-0.24-0.09l0.01-0.71l-0.13-0.2l-0.07,0.01l-0.31,0.28c-0.08,0.07-0.01,0.11,0.08,0.03l0.16,0.1l0.01,0.67
	C10.93,6.11,11,6.14,11.1,6.24L11.27,6.09L11.27,6.09z M11.03,3.61c-0.06,0-0.16,0.11,0.21,0.15C11.3,3.77,11.38,3.63,11.03,3.61
	L11.03,3.61z M11.04,3.39c-0.06,0-0.16,0.17,0.21,0.15C11.31,3.54,11.35,3.41,11.04,3.39L11.04,3.39z M11.11,4.5l-0.16-0.17
	l-0.16,0.14l0,0.2l0.1,0.1h0.1l0.12-0.11V4.5L11.11,4.5z M10.78,2.98c-0.11-0.07-0.23-0.25-0.49-0.26
	c-0.26-0.01-0.56,0.23-0.65,0.37c-0.13,0.2,0.03,0.37,0.19,0.5C9.74,3.68,9.59,3.82,9.45,3.95c0.06,0.06,0.35,0.2,0.52,0.2
	c0.25-0.01,0.49-0.14,0.63-0.25c0.26-0.21,0.17-0.43-0.1-0.59c-0.03-0.02-0.05-0.02-0.08-0.03C10.6,3.15,10.75,3.03,10.78,2.98
	L10.78,2.98z M10.12,3.53c0.09,0.04,0.18,0.08,0.28,0.14c0.14,0.08,0.07,0.23-0.08,0.3c-0.15,0.07-0.43-0.13-0.48-0.21
	C9.89,3.71,10,3.63,10.12,3.53L10.12,3.53z M10.4,3.16c-0.02,0.02-0.09,0.07-0.16,0.13C10.19,3.3,10.15,3.3,10.11,3.3
	c-0.13-0.02-0.2-0.12-0.26-0.2c-0.06-0.08,0.1-0.15,0.18-0.15C10.11,2.96,10.29,3.06,10.4,3.16L10.4,3.16z M9.3,3.73
	c-0.39,0.1-0.57-0.21-0.61-0.3c0.16-0.16,0.42-0.42,0.59-0.56C9.17,2.78,9.13,2.62,8.94,2.6c-0.17,0-0.56,0.19-0.62,0.69
	C8.25,3.76,8.69,4.02,9.05,4.03c0.12,0,0.26-0.15,0.34-0.19C9.54,3.77,9.48,3.69,9.3,3.73L9.3,3.73z M8.67,3.34
	C8.57,3.03,8.6,2.92,8.8,2.76c0.04,0.11,0.16,0.19,0.22,0.22C8.91,3.1,8.74,3.29,8.67,3.34L8.67,3.34z M8.22,3.06
	c0.07-0.06,0-0.11-0.06-0.06C8.11,2.95,8,2.84,7.94,2.77C7.87,2.82,7.73,2.91,7.64,2.95C7.58,2.88,7.5,2.88,7.37,2.78
	C7.3,2.83,7.15,2.95,7.06,3.05C7.21,3.1,7.32,3.1,7.33,3.23c0.01,0.1-0.01,0.74,0,0.86c0.08,0.02,0.18,0.01,0.29,0
	c0.01-0.09,0-0.89,0-0.98c0.04-0.02,0.09-0.05,0.11-0.07c0.05,0.04,0.14,0.17,0.21,0.22C8,3.22,8.15,3.13,8.22,3.06L8.22,3.06z
	 M6.99,4.72C6.82,4.74,6.57,4.93,6.5,5.1C6.47,5.17,6.51,5.42,6.54,5.44C6.57,5.46,6.58,5.48,6.6,5.49C6.49,5.6,6.39,5.68,6.39,5.84
	c0,0.15,0.12,0.28,0.27,0.35c0.08-0.12,0.21-0.2,0.34-0.23c0.01,0.12,0.04,0.2,0.12,0.26c0.06-0.06,0.28-0.25,0.32-0.3
	c0.05-0.04,0.01-0.1-0.04-0.04C7.37,5.91,7.29,5.86,7.27,5.82c0-0.06,0-0.74,0.03-0.77C7.19,4.94,7.1,4.71,6.99,4.72L6.99,4.72z
	 M7,5.41C6.81,5.53,6.75,5.53,6.62,5.38C6.56,5.31,6.56,5.17,6.59,5.11C6.65,5.02,6.75,4.93,6.8,4.93C6.85,4.93,7,5.12,6.99,5.2
	C7,5.24,7,5.33,7,5.41L7,5.41z M7,5.75c0,0.04,0,0.07,0,0.1C6.97,5.86,6.93,5.87,6.88,5.9c-0.07-0.06-0.4-0.17-0.18-0.34
	C6.82,5.63,6.88,5.57,7,5.5C7,5.61,7,5.71,7,5.75L7,5.75z M6.86,4.31C6.83,4.28,6.79,4.24,6.79,4.18c0-0.04,0-0.45,0-0.5
	c0-0.05-0.1-0.04-0.1,0c0,0.07,0.01,0.2-0.06,0.3C6.46,4.25,6.11,4.37,5.87,4.03c-0.08-0.11-0.1-0.28-0.11-0.41
	C5.75,3.46,5.87,3.25,5.88,3.23c0.31-0.4,0.73-0.1,0.76,0.06C6.67,3.39,6.69,3.53,6.69,3.6c0,0.05,0.1,0.04,0.1-0.01
	c0-0.05,0-0.67,0-0.71c0-0.04-0.08-0.05-0.08,0c0,0.1-0.06,0.11-0.14,0.08c-0.15-0.05-0.5-0.12-0.7,0C5.7,3.06,5.43,3.3,5.44,3.61
	c0.01,0.5,0.19,0.54,0.41,0.68C6.05,4.41,6.34,4.33,6.6,4.25c0.1-0.03,0.12,0.04,0.17,0.11C6.85,4.48,6.92,4.4,6.86,4.31L6.86,4.31z
	 M5.47,5.02C5.29,5.29,5.2,5.7,5.5,5.95c0.14,0.12,0.26,0.21,0.55,0.16C6.1,5.99,6.13,5.95,6.23,5.82c-0.2,0.03-0.35,0-0.5-0.11
	C5.43,5.48,5.53,5.1,5.62,4.98c0.16-0.24,0.39,0.1,0.43,0.15C6.1,5.06,6.19,4.97,6.28,4.9C6.19,4.78,6.12,4.67,6.06,4.6
	C5.87,4.67,5.59,4.84,5.47,5.02L5.47,5.02z M5.59,7.31c-0.06,0.48,0.39,0.76,0.6,0.85c0.05-0.11,0.17-0.29,0.27-0.41
	c0.08-0.1-0.01-0.12-0.08-0.05c-0.1,0.11-0.4,0-0.48-0.14c0.14-0.11,0.52-0.42,0.68-0.55c-0.11-0.1-0.27-0.35-0.3-0.5
	C6.14,6.61,5.66,6.82,5.59,7.31L5.59,7.31z M6.06,6.79C6.1,6.91,6.24,7.12,6.3,7.15C6.19,7.26,5.93,7.44,5.85,7.49
	C5.72,7.32,5.65,7.04,6.06,6.79L6.06,6.79z M7.04,6.62C6.94,6.71,6.87,6.79,6.74,6.9C6.8,6.97,6.91,7.06,6.92,7.19
	c0.01,0.13,0,0.71,0.01,0.86c0.1,0,0.08,0.01,0.25,0c-0.02-0.1,0-0.86,0-0.97c0.06-0.06,0.07-0.07,0.15-0.13
	C7.38,7,7.5,7.03,7.5,7.11c0,0.08,0.02,0.44,0,0.58C7.46,7.85,7.48,7.97,7.57,8.13c0.07-0.07,0.32-0.25,0.37-0.29
	c0.05-0.05,0.03-0.08-0.04-0.06C7.82,7.79,7.81,7.81,7.81,7.76c0-0.09-0.03-0.48-0.04-0.74C7.76,6.77,7.63,6.7,7.56,6.66
	C7.49,6.74,7.33,6.84,7.23,6.93C7.16,6.87,7.12,6.75,7.04,6.62L7.04,6.62z M8.06,6.01C8.15,5.94,8.21,5.82,8.24,5.8
	C8.31,5.74,8.25,5.69,8.2,5.74C8.15,5.78,8.04,5.68,8.03,5.67C8,5.63,7.94,5.05,7.97,5.04c0,0,0.37-0.04,0.42-0.04
	c0.04,0,0.04-0.11,0-0.12c-0.06,0-0.34,0.04-0.35,0.01C8.02,4.82,7.98,4.62,8.07,4.44c0.04-0.08,0-0.15-0.03-0.07
	c-0.03,0.08-0.26,0.44-0.41,0.5C7.51,4.92,7.52,4.94,7.6,4.96c0.06,0.01,0.13,0.09,0.12,0.09C7.7,5.35,7.67,5.72,7.77,5.87
	C7.82,5.97,7.99,6.07,8.06,6.01L8.06,6.01z M9.33,6.14C9.28,6.23,9.21,6.31,9.08,6.37c0.08,0.07,0.19,0.16,0.26,0.21
	c0.08-0.09,0.16-0.17,0.25-0.26C9.49,6.3,9.38,6.26,9.33,6.14L9.33,6.14z M8.75,5.81C8.86,5.8,9.05,5.87,9.26,5.85
	c0.25-0.02,0.45-0.4,0.34-0.71c-0.1-0.29-0.42-0.24-0.63-0.3C8.77,4.79,8.69,4.67,8.9,4.53c0.25-0.16,0.57,0.1,0.6,0.15
	c0.05,0.08,0.08,0.08,0.08-0.03c0.01-0.24-0.01-0.1-0.04-0.33C9.54,4.25,9.48,4.24,9.48,4.32c0,0.08-0.1,0.05-0.17,0.05
	c-0.07,0-0.28-0.03-0.47,0.07C8.72,4.51,8.46,4.71,8.61,4.96c0.09,0.15,0.6,0.26,0.72,0.35c0.13,0.08,0.16,0.3,0.03,0.4
	C9.21,5.83,8.8,5.72,8.74,5.65C8.65,5.56,8.62,5.48,8.6,5.38c-0.02-0.11-0.11-0.1-0.11,0c0,0.1,0.02,0.44,0.04,0.52
	c0.02,0.08,0.1,0.06,0.11-0.01C8.65,5.83,8.69,5.82,8.75,5.81L8.75,5.81z M8.21,6.88c-0.1,0.07,0.11,0.17,0.1,0.17
	c0.01,0.3-0.04,0.61,0.07,0.76c0.06,0.09,0.27,0.16,0.3,0.07C8.71,7.79,8.86,7.6,8.89,7.57C8.96,7.51,8.9,7.46,8.85,7.52
	C8.74,7.63,8.68,7.58,8.6,7.5C8.56,7.46,8.54,7.04,8.57,7.03c0,0,0.2-0.03,0.25-0.03c0.04,0,0.03-0.12,0-0.12
	c-0.06,0-0.24,0-0.25-0.03C8.54,6.8,8.6,6.52,8.61,6.39C8.62,6.3,8.57,6.27,8.55,6.36C8.52,6.44,8.33,6.79,8.21,6.88L8.21,6.88z"/>
</svg>
