<?xml version="1.0" encoding="UTF-8" standalone="no"?>
<svg width="1412px" height="1726px" viewBox="0 0 1412 1726" version="1.1" xmlns="http://www.w3.org/2000/svg" xmlns:xlink="http://www.w3.org/1999/xlink">
    <!-- Generator: Sketch 40.3 (33839) - http://www.bohemiancoding.com/sketch -->
    <title>C watermark background</title>
    <desc>Created with Sketch.</desc>
    <defs>
        <path d="M862.07703,161.816061 C1042.22715,161.816061 1206.68678,230.138651 1331.0029,342.19408 L1445.75888,227.438108 C1292.11281,86.2578396 1087.19062,0 862.07703,0 C397.754611,0 19.2342448,366.738252 0,826.331872 L161.850245,826.331872 C180.993332,456.676578 487.738516,161.816061 862.07703,161.816061 Z M161.850245,899.668128 L0,899.668128 C13.8787383,1231.1284 214.641866,1514.10426 499.71434,1646.22574 L561.462192,1496.33993 C335.266105,1388.54611 175.489695,1163.13626 161.850245,899.668128 Z M1331.0029,1383.79453 C1281.16251,1428.72381 1224.88411,1466.61117 1163.706,1495.88414 L1225.81848,1645.59903 C1306.70942,1607.93957 1380.83191,1558.20172 1445.75888,1498.5505 L1331.0029,1383.79453 Z M862.07703,1564.18394 C780.491015,1564.18394 702.175278,1550.03173 629.283415,1524.30251 L567.467196,1674.34785 C659.399593,1707.7343 758.601806,1726 862.07703,1726 C966.087804,1726 1065.77999,1707.58617 1158.1226,1673.85788 L1095.93035,1523.93788 C1022.73083,1549.90639 944.061859,1564.18394 862.07703,1564.18394 Z" id="path-1"></path>
    </defs>
    <g id="Batch-2" stroke="none" stroke-width="1" fill="none" fill-rule="evenodd">
        <g id="Primary-Landing-—-Centered-Intro-Text" transform="translate(0.000000, -1052.000000)">
            <g id="Featured-Content" transform="translate(-34.000000, 1052.000000)">
                <g id="C-watermark-background">
                    <g id="Group-3">
                        <mask id="mask-2" fill="white">
                            <use xlink:href="#path-1"></use>
                        </mask>
                        <use id="Mask" fill="#A6A6A2" opacity="0.1" xlink:href="#path-1"></use>
                        <g mask="url(#mask-2)">
                            <g transform="translate(24.000000, 0.000000)"></g>
                        </g>
                    </g>
                </g>
            </g>
        </g>
    </g>
</svg>