<?xml version="1.0" encoding="UTF-8"?>
<svg width="26px" height="26px" viewBox="0 0 26 26" version="1.1" xmlns="http://www.w3.org/2000/svg" xmlns:xlink="http://www.w3.org/1999/xlink">
    <!-- Generator: Sketch 40.1 (33804) - http://www.bohemiancoding.com/sketch -->
    <title>search copy 2</title>
    <desc>Created with Sketch.</desc>
    <defs></defs>
    <g id="Layout" stroke="none" stroke-width="1" fill="none" fill-rule="evenodd">
        <g id="Search" transform="translate(-1289.000000, -63.000000)" fill="#000000">
            <g id="Search-Drawer">
                <path d="M1294.1758,73.4120976 C1294.1758,75.4688083 1294.75425,77.3648384 1295.78261,78.9716436 L1289,85.7221174 L1292.27788,89 L1299.02836,82.2173901 C1300.63516,83.2457454 1302.53119,83.8241953 1304.5879,83.8241953 C1310.34026,83.8241953 1315,79.1644602 1315,73.4120976 C1315,67.6597351 1310.34026,63 1304.5879,63 C1298.83554,63 1294.1758,67.6597351 1294.1758,73.4120976 Z M1304.5879,79.8865766 C1301.02094,79.8865766 1298.11342,76.9790559 1298.11342,73.4120976 C1298.11342,69.8451393 1301.02094,66.9376187 1304.5879,66.9376187 C1308.15486,66.9376187 1311.06238,69.8451393 1311.06238,73.4120976 C1311.06238,76.9790559 1308.15486,79.8865766 1304.5879,79.8865766 L1304.5879,79.8865766 Z" id="search-copy-2" transform="translate(1302.000000, 76.000000) scale(-1, 1) translate(-1302.000000, -76.000000) "></path>
            </g>
        </g>
    </g>
</svg>