<?xml version="1.0" encoding="UTF-8"?>
<svg width="20px" height="20px" viewBox="0 0 20 20" version="1.1" xmlns="http://www.w3.org/2000/svg" xmlns:xlink="http://www.w3.org/1999/xlink">
    <!-- Generator: Sketch 40.1 (33804) - http://www.bohemiancoding.com/sketch -->
    <title>Fill 1</title>
    <desc>Created with Sketch.</desc>
    <defs></defs>
    <g id="Layout" stroke="none" stroke-width="1" fill="none" fill-rule="evenodd">
        <g id="Content-Detail,-Spare" transform="translate(-778.000000, -2270.000000)" fill="#FEFEFE">
            <g id="Footer" transform="translate(0.000000, 2118.000000)">
                <g id="Group-11" transform="translate(778.000000, 119.000000)">
                    <g id="Group-9" transform="translate(0.000000, 33.000000)">
                        <path d="M18.8961202,0 L1.10380487,0 C0.494126904,0 0,0.494126904 0,1.10380487 L0,18.8961202 C0,19.5057232 0.494126904,20 1.10380487,20 L10.682628,20 L10.682628,12.2549317 L8.07620975,12.2549317 L8.07620975,9.23651623 L10.682628,9.23651623 L10.682628,7.01054722 C10.682628,4.42735907 12.2603271,3.02073849 14.5647539,3.02073849 C15.6686337,3.02073849 16.6173214,3.10286817 16.8937597,3.13958673 L16.8937597,5.83922516 L15.2955282,5.83997452 C14.0423013,5.83997452 13.7995841,6.43548961 13.7995841,7.30939133 L13.7995841,9.23651623 L16.7885498,9.23651623 L16.399408,12.2549317 L13.7995841,12.2549317 L13.7995841,20 L18.8961202,20 C19.5057232,20 19.9999251,19.5057232 19.9999251,18.8961202 L19.9999251,1.10380487 C19.9999251,0.494126904 19.5057232,0 18.8961202,0" id="Fill-1"></path>
                    </g>
                </g>
            </g>
        </g>
    </g>
</svg>