<?xml version="1.0" encoding="UTF-8"?>
<svg width="163px" height="79px" viewBox="0 0 163 79" version="1.1" xmlns="http://www.w3.org/2000/svg" xmlns:xlink="http://www.w3.org/1999/xlink">
    <!-- Generator: Sketch 40.1 (33804) - http://www.bohemiancoding.com/sketch -->
    <title>Page 1</title>
    <desc>Created with Sketch.</desc>
    <defs>
        <polygon id="path-1" points="0 78.1074798 162.679502 78.1074798 162.679502 0.761165049 0 0.761165049"></polygon>
    </defs>
    <g id="Layout" stroke="none" stroke-width="1" fill="none" fill-rule="evenodd">
        <g id="Content-Detail,-Spare" transform="translate(-125.000000, -2172.000000)">
            <g id="Footer" transform="translate(0.000000, 2118.000000)">
                <g id="Page-1" transform="translate(125.000000, 54.000000)">
                    <polygon id="Fill-1" fill="#FFFFFF" points="16.2767565 37.0636073 18.8811049 37.0636073 18.8811049 41.7477588 23.6831834 41.7477588 23.6831834 37.0636073 26.2875318 37.0636073 26.2875318 48.9007193 23.6831834 48.9007193 23.6831834 44.1491809 18.8811049 44.1491809 18.8811049 48.9007193 16.2767565 48.9007193"></polygon>
                    <g id="Group-53" transform="translate(0.000000, 0.004595)">
                        <path d="M33.7442691,45.6999207 L33.7442691,45.243528 C33.3047231,45.0406017 32.7296376,44.9050622 32.104012,44.9050622 C31.0043812,44.9050622 30.3282155,45.3446082 30.3282155,46.1563134 L30.3282155,46.1900068 C30.3282155,46.883785 30.903301,47.2896376 31.7318529,47.2896376 C32.9325639,47.2896376 33.7442691,46.6303186 33.7442691,45.6999207 L33.7442691,45.6999207 Z M27.8425598,46.2918529 L27.8425598,46.2581594 C27.8425598,44.2794366 29.3472775,43.3658854 31.4952331,43.3658854 C32.4080186,43.3658854 33.0673376,43.5182716 33.7105757,43.7388103 L33.7105757,43.5864242 C33.7105757,42.5212526 33.0512567,41.9293204 31.7655463,41.9293204 C30.7846082,41.9293204 30.0915958,42.1154 29.2630439,42.4194065 L28.6205716,40.4582962 C29.6183564,40.0179844 30.5992944,39.7308246 32.1377055,39.7308246 C33.5413428,39.7308246 34.5559743,40.1029837 35.1984466,40.745456 C35.8746123,41.4216218 36.1793847,42.4194065 36.1793847,43.6369643 L36.1793847,48.8962013 L33.693729,48.8962013 L33.693729,47.9152632 C33.0673376,48.6082757 32.2050923,49.0654342 30.9538411,49.0654342 C29.2461972,49.0654342 27.8425598,48.0837303 27.8425598,46.2918529 L27.8425598,46.2918529 Z" id="Fill-2" fill="#FFFFFF"></path>
                        <path d="M37.920722,39.8321346 L40.4906112,39.8321346 L40.4906112,41.6584712 C41.0151566,40.40722 41.8605552,39.5955148 43.3828853,39.6629017 L43.3828853,42.3514837 L43.2473458,42.3514837 C41.5397019,42.3514837 40.4906112,43.3829618 40.4906112,45.5477643 L40.4906112,48.8956653 L37.920722,48.8956653 L37.920722,39.8321346 Z" id="Fill-4" fill="#FFFFFF"></path>
                        <path d="M44.5153672,39.8321346 L47.0852564,39.8321346 L47.0852564,41.6584712 C47.6098017,40.40722 48.4552003,39.5955148 49.9775304,39.6629017 L49.9775304,42.3514837 L49.841991,42.3514837 C48.1335813,42.3514837 47.0852564,43.3829618 47.0852564,45.5477643 L47.0852564,48.8956653 L44.5153672,48.8956653 L44.5153672,39.8321346 Z" id="Fill-6" fill="#FFFFFF"></path>
                        <mask id="mask-2" fill="white">
                            <use xlink:href="#path-1"></use>
                        </mask>
                        <g id="Clip-9"></g>
                        <path d="M51.2277861,48.8952824 L53.7984411,48.8952824 L53.7984411,39.8317517 L51.2277861,39.8317517 L51.2277861,48.8952824 Z M51.1603993,38.8339669 L53.865828,38.8339669 L53.865828,36.5512375 L51.1603993,36.5512375 L51.1603993,38.8339669 Z" id="Fill-8" fill="#FFFFFF" mask="url(#mask-2)"></path>
                        <path d="M55.032769,47.6951073 L56.1316341,46.0043101 C57.1125721,46.7141693 58.1440503,47.0863285 58.9894489,47.0863285 C59.7337673,47.0863285 60.0714673,46.8160153 60.0714673,46.4101627 L60.0714673,46.3764693 C60.0714673,45.8182305 59.1923752,45.632151 58.1953562,45.3281444 C56.9264925,44.9559852 55.4891618,44.3640531 55.4891618,42.6051032 L55.4891618,42.5714098 C55.4891618,40.7282264 56.9770327,39.6967483 58.8033693,39.6967483 C59.9535403,39.6967483 61.2047915,40.0857541 62.1857295,40.7450732 L61.2047915,42.5208697 C60.3088527,41.9963244 59.4121482,41.6754711 58.7528292,41.6754711 C58.1272036,41.6754711 57.8055846,41.9457842 57.8055846,42.3010967 L57.8055846,42.3347901 C57.8055846,42.841723 58.6678299,43.0791084 59.6487679,43.4168084 C60.9168659,43.8395077 62.3886558,44.4482866 62.3886558,46.1053904 L62.3886558,46.1398496 C62.3886558,48.1515001 60.8839382,49.0650513 58.9220621,49.0650513 C57.6539642,49.0650513 56.2334801,48.642352 55.032769,47.6951073" id="Fill-10" fill="#FFFFFF" mask="url(#mask-2)"></path>
                        <path d="M71.1741392,43.5017312 C73.1360153,43.5017312 74.4209599,42.4534063 74.4209599,40.8973827 L74.4209599,40.8636893 C74.4209599,39.1728921 73.152862,38.2938001 71.241526,38.2938001 L68.2489375,38.2938001 L68.2489375,43.5017312 L71.1741392,43.5017312 Z M66.9134528,37.0593956 L71.3433721,37.0593956 C74.0151073,37.0593956 75.7740572,38.4791139 75.7740572,40.8131492 L75.7740572,40.8468426 C75.7740572,43.3998851 73.6429482,44.7192889 71.1235991,44.7192889 L68.2489375,44.7192889 L68.2489375,48.8957418 L66.9134528,48.8957418 L66.9134528,37.0593956 Z" id="Fill-11" fill="#FFFFFF" mask="url(#mask-2)"></path>
                        <path d="M77.3460851,45.5814577 L77.3460851,40.1537536 L78.6478764,40.1537536 L78.6478764,45.2606044 C78.6478764,46.883249 79.5269684,47.8978805 81.0661452,47.8978805 C82.5540161,47.8978805 83.6873404,46.7990155 83.6873404,45.1587584 L83.6873404,40.1537536 L84.9730507,40.1537536 L84.9730507,48.8956653 L83.6873404,48.8956653 L83.6873404,47.3741009 C83.0954082,48.3213455 82.1994694,49.0817448 80.6939861,49.0817448 C78.5804895,49.0817448 77.3460851,47.6612608 77.3460851,45.5814577" id="Fill-12" fill="#FFFFFF" mask="url(#mask-2)"></path>
                        <path d="M94.7965978,44.5499029 L94.7965978,44.5162095 C94.7965978,42.4532531 93.3761138,41.1338493 91.71901,41.1338493 C90.0955996,41.1338493 88.5571886,42.5037932 88.5571886,44.4993628 L88.5571886,44.5330562 C88.5571886,46.5623192 90.0955996,47.9154164 91.71901,47.9154164 C93.4098072,47.9154164 94.7965978,46.6633994 94.7965978,44.5499029 M88.6077287,47.2216382 L88.6077287,48.8955887 L87.3051716,48.8955887 L87.3051716,36.5515438 L88.6077287,36.5515438 L88.6077287,41.9118611 C89.3175879,40.8635362 90.349066,39.9675974 91.9563955,39.9675974 C94.0530453,39.9675974 96.1328484,41.6247012 96.1328484,44.4993628 L96.1328484,44.5330562 C96.1328484,47.3908711 94.069892,49.0816683 91.9563955,49.0816683 C90.3322193,49.0816683 89.2838944,48.2025762 88.6077287,47.2216382" id="Fill-13" fill="#FFFFFF" mask="url(#mask-2)"></path>
                        <polygon id="Fill-14" fill="#FFFFFF" mask="url(#mask-2)" points="98.0593464 48.8952824 99.3611377 48.8952824 99.3611377 36.5512375 98.0593464 36.5512375"></polygon>
                        <path d="M101.91418,48.8960481 L103.216737,48.8960481 L103.216737,40.1533707 L101.91418,40.1533707 L101.91418,48.8960481 Z M101.829947,38.2428005 L103.318583,38.2428005 L103.318583,36.8054697 L101.829947,36.8054697 L101.829947,38.2428005 Z" id="Fill-15" fill="#FFFFFF" mask="url(#mask-2)"></path>
                        <path d="M105.110231,44.5669794 L105.110231,44.5332859 C105.110231,42.064477 107.037648,39.9678272 109.591456,39.9678272 C111.24856,39.9678272 112.280038,40.6608396 113.091743,41.5230849 L112.228732,42.4358704 C111.53572,41.7091645 110.757708,41.1172323 109.573844,41.1172323 C107.798813,41.1172323 106.446482,42.6227157 106.446482,44.4995925 L106.446482,44.5332859 C106.446482,46.4270094 107.832506,47.9324928 109.658843,47.9324928 C110.774555,47.9324928 111.6368,47.3742541 112.330578,46.6299357 L113.15913,47.4079475 C112.280038,48.3881198 111.231713,49.0987447 109.591456,49.0987447 C107.037648,49.0987447 105.110231,47.0189416 105.110231,44.5669794" id="Fill-16" fill="#FFFFFF" mask="url(#mask-2)"></path>
                        <path d="M120.692061,43.5017312 C122.653937,43.5017312 123.938881,42.4534063 123.938881,40.8973827 L123.938881,40.8636893 C123.938881,39.1728921 122.670018,38.2938001 120.759448,38.2938001 L117.766093,38.2938001 L117.766093,43.5017312 L120.692061,43.5017312 Z M116.430609,37.0593956 L120.860528,37.0593956 C123.532263,37.0593956 125.291213,38.4791139 125.291213,40.8131492 L125.291213,40.8468426 C125.291213,43.3998851 123.16087,44.7192889 120.640755,44.7192889 L117.766093,44.7192889 L117.766093,48.8957418 L116.430609,48.8957418 L116.430609,37.0593956 Z" id="Fill-17" fill="#FFFFFF" mask="url(#mask-2)"></path>
                        <path d="M134.067507,44.5669794 L134.067507,44.5332859 C134.067507,42.6564091 132.66387,41.1172323 130.820686,41.1172323 C128.926963,41.1172323 127.625172,42.6564091 127.625172,44.4995925 L127.625172,44.5332859 C127.625172,46.4101627 129.011196,47.9324928 130.85438,47.9324928 C132.748869,47.9324928 134.067507,46.4101627 134.067507,44.5669794 M126.288921,44.5669794 L126.288921,44.5332859 C126.288921,42.064477 128.216338,39.9678272 130.85438,39.9678272 C133.475575,39.9678272 135.403758,42.0307835 135.403758,44.4995925 L135.403758,44.5332859 C135.403758,47.0020949 133.458728,49.0987447 130.820686,49.0987447 C128.199491,49.0987447 126.288921,47.0357883 126.288921,44.5669794" id="Fill-18" fill="#FFFFFF" mask="url(#mask-2)"></path>
                        <polygon id="Fill-19" fill="#FFFFFF" mask="url(#mask-2)" points="137.279256 48.8952824 138.581047 48.8952824 138.581047 36.5512375 137.279256 36.5512375"></polygon>
                        <path d="M141.134856,48.8960481 L142.437413,48.8960481 L142.437413,40.1533707 L141.134856,40.1533707 L141.134856,48.8960481 Z M141.049856,38.2428005 L142.538493,38.2428005 L142.538493,36.8054697 L141.049856,36.8054697 L141.049856,38.2428005 Z" id="Fill-20" fill="#FFFFFF" mask="url(#mask-2)"></path>
                        <path d="M144.3306,44.5669794 L144.3306,44.5332859 C144.3306,42.064477 146.258017,39.9678272 148.811826,39.9678272 C150.468929,39.9678272 151.500407,40.6608396 152.312113,41.5230849 L151.449102,42.4358704 C150.756089,41.7091645 149.978077,41.1172323 148.794213,41.1172323 C147.019182,41.1172323 145.666851,42.6227157 145.666851,44.4995925 L145.666851,44.5332859 C145.666851,46.4270094 147.052876,47.9324928 148.879212,47.9324928 C149.994924,47.9324928 150.857169,47.3742541 151.550948,46.6299357 L152.3795,47.4079475 C151.500407,48.3881198 150.451317,49.0987447 148.811826,49.0987447 C146.258017,49.0987447 144.3306,47.0189416 144.3306,44.5669794" id="Fill-21" fill="#FFFFFF" mask="url(#mask-2)"></path>
                        <path d="M153.793704,51.2125475 L154.23325,50.1810693 C154.656715,50.4008423 155.045721,50.5019226 155.603194,50.5019226 C156.38044,50.5019226 156.871292,50.0968358 157.395838,48.8624313 L153.421545,40.1534473 L154.859642,40.1534473 L158.037544,47.4419472 L160.844819,40.1534473 L162.232375,40.1534473 L158.562855,49.1832846 C157.818537,50.9927745 156.973138,51.6520935 155.653734,51.6520935 C154.927029,51.6520935 154.385637,51.4997074 153.793704,51.2125475" id="Fill-22" fill="#FFFFFF" mask="url(#mask-2)"></path>
                        <path d="M52.5666402,67.033677 L55.5209408,74.2096103 C58.9025352,72.5601641 62.0061589,70.4328839 64.7468125,67.9143006 L59.1552359,62.5417312 C57.1711527,64.3083386 54.9581075,65.819948 52.5666402,67.033677" id="Fill-23" fill="#FFFFFF" mask="url(#mask-2)"></path>
                        <path d="M38.5904554,70.372542 C35.272419,70.372542 32.0792014,69.8449337 29.0827841,68.8777793 L26.1323123,76.0445235 C30.0430466,77.3754136 34.2302202,78.1074798 38.5904554,78.1074798 C42.9506906,78.1074798 47.1378641,77.3754136 51.0485984,76.0445235 L48.0981266,68.8777793 C45.1017093,69.8449337 41.9084917,70.372542 38.5904554,70.372542" id="Fill-24" fill="#FFFFFF" mask="url(#mask-2)"></path>
                        <path d="M7.75500068,41.8513661 L0.000153151921,41.8513661 C0.880010939,56.1029181 9.47183372,68.2647122 21.6596636,74.2100697 L24.6139642,67.0333707 C15.2318775,62.2726432 8.60805688,52.8744756 7.75500068,41.8513661" id="Fill-25" fill="#FFFFFF" mask="url(#mask-2)"></path>
                        <path d="M38.5904554,8.49579653 C46.4869684,8.49579653 53.6881717,11.4585204 59.1549296,16.32722 L64.747272,10.9546506 C57.8615616,4.627179 48.6785724,0.760858745 38.5904554,0.760858745 C18.0443594,0.760858745 1.24895392,16.78591 0,37.0172788 L7.75484753,37.0172788 C8.98925202,21.0611459 22.3180637,8.49579653 38.5904554,8.49579653" id="Fill-26" fill="#FFFFFF" mask="url(#mask-2)"></path>
                        <path d="M52.5666402,67.033677 L55.5209408,74.2096103 C58.9025352,72.5601641 62.0061589,70.4328839 64.7468125,67.9143006 L59.1552359,62.5417312 C57.1711527,64.3083386 54.9581075,65.819948 52.5666402,67.033677" id="Fill-27" fill="#FFFFFF" mask="url(#mask-2)"></path>
                        <path d="M38.5904554,70.372542 C35.272419,70.372542 32.0792014,69.8449337 29.0827841,68.8777793 L26.1323123,76.0445235 C30.0430466,77.3754136 34.2302202,78.1074798 38.5904554,78.1074798 C42.9506906,78.1074798 47.1378641,77.3754136 51.0485984,76.0445235 L48.0981266,68.8777793 C45.1017093,69.8449337 41.9084917,70.372542 38.5904554,70.372542" id="Fill-28" fill="#FFFFFF" mask="url(#mask-2)"></path>
                        <path d="M7.75500068,41.8513661 L0.000153151921,41.8513661 C0.880010939,56.1029181 9.47183372,68.2647122 21.6596636,74.2100697 L24.6139642,67.0333707 C15.2318775,62.2726432 8.60805688,52.8744756 7.75500068,41.8513661" id="Fill-29" fill="#FFFFFF" mask="url(#mask-2)"></path>
                        <path d="M38.5904554,8.49579653 C46.4869684,8.49579653 53.6881717,11.4585204 59.1549296,16.32722 L64.747272,10.9546506 C57.8615616,4.627179 48.6785724,0.760858745 38.5904554,0.760858745 C18.0443594,0.760858745 1.24895392,16.78591 0,37.0172788 L7.75484753,37.0172788 C8.98925202,21.0611459 22.3180637,8.49579653 38.5904554,8.49579653" id="Fill-30" fill="#FFFFFF" mask="url(#mask-2)"></path>
                        <polygon id="Fill-31" fill="#FFFFFF" mask="url(#mask-2)" points="17.968932 28.8121646 16.3669629 28.8121646 16.3669629 27.74393 20.7294954 27.74393 20.7294954 28.8121646 19.1275263 28.8121646 19.1275263 33.009293 17.968932 33.009293"></polygon>
                        <polygon id="Fill-32" fill="#FFFFFF" mask="url(#mask-2)" points="22.7888527 27.7442363 23.947447 27.7442363 23.947447 29.8278682 26.0831506 29.8278682 26.0831506 27.7442363 27.2417448 27.7442363 27.2417448 33.0095993 26.0831506 33.0095993 26.0831506 30.8961028 23.947447 30.8961028 23.947447 33.0095993 22.7888527 33.0095993"></polygon>
                        <polygon id="Fill-33" fill="#FFFFFF" mask="url(#mask-2)" points="29.676937 27.7442363 33.6481663 27.7442363 33.6481663 28.7749487 30.8278736 28.7749487 30.8278736 29.8431834 33.3097005 29.8431834 33.3097005 30.87313 30.8278736 30.87313 30.8278736 31.9788869 33.6856885 31.9788869 33.6856885 33.0095993 29.676937 33.0095993"></polygon>
                        <path d="M39.2341529,30.7529058 L39.2341529,27.7442363 L40.3927472,27.7442363 L40.3927472,30.7230412 C40.3927472,31.5799262 40.8215725,32.0240667 41.5283687,32.0240667 C42.2351648,32.0240667 42.6639902,31.5952414 42.6639902,30.7605634 L42.6639902,27.7442363 L43.8225844,27.7442363 L43.8225844,30.7153836 C43.8225844,32.3096951 42.9274115,33.0923014 41.5130535,33.0923014 C40.0994612,33.0923014 39.2341529,32.3020375 39.2341529,30.7529058" id="Fill-34" fill="#FFFFFF" mask="url(#mask-2)"></path>
                        <polygon id="Fill-35" fill="#FFFFFF" mask="url(#mask-2)" points="46.1752277 27.7442363 47.2434623 27.7442363 49.7107398 30.9856967 49.7107398 27.7442363 50.8532531 27.7442363 50.8532531 33.0095993 49.8684863 33.0095993 47.3185068 29.6624641 47.3185068 33.0095993 46.1752277 33.0095993"></polygon>
                        <polygon id="Fill-36" fill="#FFFFFF" mask="url(#mask-2)" points="53.3412826 33.0095993 54.4991112 33.0095993 54.4991112 27.7442363 53.3412826 27.7442363"></polygon>
                        <polygon id="Fill-37" fill="#FFFFFF" mask="url(#mask-2)" points="56.5373335 27.7442363 57.8161521 27.7442363 59.1922221 31.4520443 60.5690578 27.7442363 61.817246 27.7442363 59.6892001 33.0471216 58.6661452 33.0471216"></polygon>
                        <polygon id="Fill-38" fill="#FFFFFF" mask="url(#mask-2)" points="63.8014823 27.7442363 67.7727116 27.7442363 67.7727116 28.7749487 64.952419 28.7749487 64.952419 29.8431834 67.4342459 29.8431834 67.4342459 30.87313 64.952419 30.87313 64.952419 31.9788869 67.8102338 31.9788869 67.8102338 33.0095993 63.8014823 33.0095993"></polygon>
                        <path d="M72.3441433,30.3016436 C72.9085081,30.3016436 73.2316587,30.0007001 73.2316587,29.5565596 L73.2316587,29.5420101 C73.2316587,29.0457979 72.8863011,28.7892684 72.3219363,28.7892684 L71.1709996,28.7892684 L71.1709996,30.3016436 L72.3441433,30.3016436 Z M70.0124053,27.7440066 L72.4199535,27.7440066 C73.0892274,27.7440066 73.6076467,27.9323834 73.95377,28.2785068 C74.2470559,28.5717927 74.4048024,28.9853029 74.4048024,29.4815151 L74.4048024,29.4968303 C74.4048024,30.3468235 73.9461124,30.8805579 73.2768385,31.128664 L74.5633146,33.0093696 L73.2094517,33.0093696 L72.080722,31.3246985 L71.1709996,31.3246985 L71.1709996,33.0093696 L70.0124053,33.0093696 L70.0124053,27.7440066 Z" id="Fill-39" fill="#FFFFFF" mask="url(#mask-2)"></path>
                        <path d="M76.2613866,32.2421551 L76.9459757,31.4220265 C77.4199809,31.8133297 77.9161931,32.0614358 78.5180801,32.0614358 C78.9920853,32.0614358 79.2777137,31.8738247 79.2777137,31.5652236 L79.2777137,31.5499084 C79.2777137,31.2566225 79.0969944,31.1065336 78.2171366,30.8806345 C77.1565596,30.6103213 76.4719705,30.3162697 76.4719705,29.2710078 L76.4719705,29.2556926 C76.4719705,28.3007904 77.2392616,27.6690387 78.3151538,27.6690387 C79.082445,27.6690387 79.7364037,27.9094872 80.2701381,28.3383126 L79.6690168,29.2105128 C79.2026692,28.8873622 78.7439792,28.6920935 78.2998386,28.6920935 C77.8564638,28.6920935 77.6229072,28.8950198 77.6229072,29.1507835 L77.6229072,29.1660987 C77.6229072,29.5114563 77.8488062,29.6247887 78.7585286,29.8575797 C79.8267633,30.1363161 80.4286503,30.519196 80.4286503,31.4373417 L80.4286503,31.4526569 C80.4286503,32.4979188 79.6314946,33.0844906 78.4958731,33.0844906 C77.6979516,33.0844906 76.8931382,32.8057541 76.2613866,32.2421551" id="Fill-40" fill="#FFFFFF" mask="url(#mask-2)"></path>
                        <polygon id="Fill-41" fill="#FFFFFF" mask="url(#mask-2)" points="82.6606864 33.0095993 83.8192807 33.0095993 83.8192807 27.7442363 82.6606864 27.7442363"></polygon>
                        <polygon id="Fill-42" fill="#FFFFFF" mask="url(#mask-2)" points="87.5340572 28.8121646 85.9320881 28.8121646 85.9320881 27.74393 90.2938548 27.74393 90.2938548 28.8121646 88.6926514 28.8121646 88.6926514 33.009293 87.5340572 33.009293"></polygon>
                        <polygon id="Fill-43" fill="#FFFFFF" mask="url(#mask-2)" points="93.8359524 30.9333187 91.8120498 27.74393 93.1666785 27.74393 94.4225243 29.8574265 95.7005771 27.74393 97.0176836 27.74393 94.9945467 30.9111117 94.9945467 33.009293 93.8359524 33.009293"></polygon>
                        <path d="M106.491815,30.3917736 L106.491815,30.3764584 C106.491815,29.4743935 105.829433,28.7216519 104.896737,28.7216519 C103.964042,28.7216519 103.317741,29.4590784 103.317741,30.3619089 L103.317741,30.3764584 C103.317741,31.2792889 103.979357,32.0312649 104.912053,32.0312649 C105.844748,32.0312649 106.491815,31.2946041 106.491815,30.3917736 M102.106309,30.3917736 L102.106309,30.3764584 C102.106309,28.8801641 103.287111,27.654183 104.912053,27.654183 C106.536994,27.654183 107.702481,28.8648489 107.702481,30.3619089 L107.702481,30.3764584 C107.702481,31.8735184 106.521679,33.0994995 104.896737,33.0994995 C103.271795,33.0994995 102.106309,31.8888336 102.106309,30.3917736" id="Fill-44" fill="#FFFFFF" mask="url(#mask-2)"></path>
                        <polygon id="Fill-45" fill="#FFFFFF" mask="url(#mask-2)" points="109.904805 27.7442363 113.913557 27.7442363 113.913557 28.7971558 111.063399 28.7971558 111.063399 29.9174621 113.575857 29.9174621 113.575857 30.9711473 111.063399 30.9711473 111.063399 33.0095993 109.904805 33.0095993"></polygon>
                        <path d="M119.206257,30.3917736 L119.206257,30.3764584 C119.206257,28.8801641 120.334221,27.654183 121.951506,27.654183 C122.944696,27.654183 123.538159,27.9849911 124.02748,28.4658881 L123.290819,29.3158813 C122.884201,28.9475509 122.470691,28.7216519 121.944614,28.7216519 C121.056333,28.7216519 120.417689,29.4590784 120.417689,30.3619089 L120.417689,30.3764584 C120.417689,31.2792889 121.041783,32.0312649 121.944614,32.0312649 C122.546501,32.0312649 122.914831,31.7908164 123.328341,31.4148284 L124.065002,32.1591467 C123.524376,32.7388267 122.921723,33.0994995 121.906326,33.0994995 C120.357194,33.0994995 119.206257,31.903383 119.206257,30.3917736" id="Fill-46" fill="#FFFFFF" mask="url(#mask-2)"></path>
                        <polygon id="Fill-47" fill="#FFFFFF" mask="url(#mask-2)" points="126.162188 27.7442363 127.320782 27.7442363 127.320782 29.8278682 129.456486 29.8278682 129.456486 27.7442363 130.61508 27.7442363 130.61508 33.0095993 129.456486 33.0095993 129.456486 30.8961028 127.320782 30.8961028 127.320782 33.0095993 126.162188 33.0095993"></polygon>
                        <polygon id="Fill-48" fill="#FFFFFF" mask="url(#mask-2)" points="133.102803 33.0095993 134.261398 33.0095993 134.261398 27.7442363 133.102803 27.7442363"></polygon>
                        <path d="M136.516636,30.3917736 L136.516636,30.3764584 C136.516636,28.8801641 137.645366,27.654183 139.26265,27.654183 C140.255075,27.654183 140.849304,27.9849911 141.338624,28.4658881 L140.601198,29.3158813 C140.19458,28.9475509 139.781069,28.7216519 139.254992,28.7216519 C138.367477,28.7216519 137.728068,29.4590784 137.728068,30.3619089 L137.728068,30.3764584 C137.728068,31.2792889 138.352162,32.0312649 139.254992,32.0312649 C139.85688,32.0312649 140.22521,31.7908164 140.63872,31.4148284 L141.375381,32.1591467 C140.834755,32.7388267 140.232102,33.0994995 139.21747,33.0994995 C137.667573,33.0994995 136.516636,31.903383 136.516636,30.3917736" id="Fill-49" fill="#FFFFFF" mask="url(#mask-2)"></path>
                        <path d="M146.496245,30.80559 L145.796341,29.0979461 L145.097202,30.80559 L146.496245,30.80559 Z M145.277922,27.7065609 L146.346156,27.7065609 L148.602084,33.0094462 L147.391418,33.0094462 L146.910521,31.8286449 L144.683692,31.8286449 L144.202029,33.0094462 L143.021228,33.0094462 L145.277922,27.7065609 Z" id="Fill-50" fill="#FFFFFF" mask="url(#mask-2)"></path>
                        <path d="M150.014451,30.3917736 L150.014451,30.3764584 C150.014451,28.8801641 151.179937,27.654183 152.775014,27.654183 C153.723025,27.654183 154.295047,27.9099467 154.843331,28.3762943 L154.114328,29.2561521 C153.70771,28.9176863 153.347037,28.7216519 152.737492,28.7216519 C151.895157,28.7216519 151.225883,29.4667359 151.225883,30.3619089 L151.225883,30.3764584 C151.225883,31.3390182 151.887499,32.0465801 152.820194,32.0465801 C153.241362,32.0465801 153.61735,31.9409052 153.910636,31.7303213 L153.910636,30.9783454 L152.74515,30.9783454 L152.74515,29.9782634 L155.031708,29.9782634 L155.031708,32.2648216 C154.490316,32.7235116 153.745232,33.0994995 152.782672,33.0994995 C151.143181,33.0994995 150.014451,31.9485628 150.014451,30.3917736" id="Fill-51" fill="#FFFFFF" mask="url(#mask-2)"></path>
                        <path d="M161.468607,30.3917736 L161.468607,30.3764584 C161.468607,29.4743935 160.806225,28.7216519 159.873529,28.7216519 C158.940834,28.7216519 158.294533,29.4590784 158.294533,30.3619089 L158.294533,30.3764584 C158.294533,31.2792889 158.956149,32.0312649 159.888845,32.0312649 C160.82154,32.0312649 161.468607,31.2946041 161.468607,30.3917736 M157.083101,30.3917736 L157.083101,30.3764584 C157.083101,28.8801641 158.263903,27.654183 159.888845,27.654183 C161.513786,27.654183 162.679273,28.8648489 162.679273,30.3619089 L162.679273,30.3764584 C162.679273,31.8735184 161.498471,33.0994995 159.873529,33.0994995 C158.248587,33.0994995 157.083101,31.8888336 157.083101,30.3917736" id="Fill-52" fill="#FFFFFF" mask="url(#mask-2)"></path>
                    </g>
                </g>
            </g>
        </g>
    </g>
</svg>