<?xml version="1.0" encoding="UTF-8"?>
<svg width="1440px" height="527px" viewBox="0 0 1440 527" version="1.1" xmlns="http://www.w3.org/2000/svg" xmlns:xlink="http://www.w3.org/1999/xlink">
    <!-- Generator: Sketch 40.1 (33804) - http://www.bohemiancoding.com/sketch -->
    <title>Gray BG with Watermark</title>
    <desc>Created with Sketch.</desc>
    <defs>
        <rect id="path-1" x="0" y="0" width="1440" height="527"></rect>
    </defs>
    <g id="Layout" stroke="none" stroke-width="1" fill="none" fill-rule="evenodd">
        <g id="Scroll-Up-Navs" transform="translate(0.000000, -1568.000000)">
            <g id="Gray-BG-with-Watermark" transform="translate(0.000000, 1568.000000)">
                <g id="Combined-Shape">
                    <mask id="mask-2" fill="white">
                        <use xlink:href="#path-1"></use>
                    </mask>
                    <use id="Mask" fill="#D6D6CE" xlink:href="#path-1"></use>
                    <path d="M722.003235,-1304.24615 C916.55702,-1304.24615 1094.1658,-1230.46092 1228.42145,-1109.44625 L1352.35258,-1233.37738 C1186.42195,-1385.84553 965.115479,-1479 722.003235,-1479 C220.556544,-1479 -188.227907,-1082.93969 -209,-586.599879 L-34.2092372,-586.599879 C-13.5355903,-985.810463 317.734991,-1304.24615 722.003235,-1304.24615 Z M-34.2092372,-507.400121 L-209,-507.400121 C-194.011606,-149.438385 22.8032666,156.162417 330.668326,298.847499 L397.353143,136.977765 C153.071854,20.5654436 -19.4792638,-222.866749 -34.2092372,-507.400121 Z M1228.42145,15.4339491 C1174.59613,63.9554907 1113.81807,104.872084 1047.74854,136.485535 L1114.82714,298.170683 C1202.1856,257.500205 1282.23446,203.78564 1352.35258,139.365079 L1228.42145,15.4339491 Z M722.003235,210.246154 C633.89412,210.246154 549.316754,194.962423 470.596921,167.176057 L403.838269,329.21807 C503.120998,365.273895 610.25479,385 722.003235,385 C834.33005,385 941.992989,365.113921 1041.71872,328.688924 L974.553983,166.782273 C895.501895,194.827059 810.54305,210.246154 722.003235,210.246154 Z" fill="#A6A6A2" opacity="0.16" mask="url(#mask-2)"></path>
                </g>
                <rect id="Rectangle-695" fill="#D6D6CE" x="125" y="0" width="1190" height="142"></rect>
            </g>
        </g>
    </g>
</svg>