<?xml version="1.0" encoding="UTF-8" standalone="no"?>
<svg width="14px" height="14px" viewBox="0 0 14 14" version="1.1" xmlns="http://www.w3.org/2000/svg" xmlns:xlink="http://www.w3.org/1999/xlink">
    <!-- Generator: Sketch 40.1 (33804) - http://www.bohemiancoding.com/sketch -->
    <title>search-icon</title>
    <desc>Created with Sketch.</desc>
    <defs></defs>
    <g id="Page-1" stroke="none" stroke-width="1" fill="none" fill-rule="evenodd">
        <path d="M2.78697177,5.60651412 C2.78697177,6.71397369 3.09844478,7.73491299 3.65217456,8.60011579 L-2.55795385e-13,12.2349863 L1.7650137,14 L5.39988421,10.3478254 C6.26508701,10.9015552 7.28602631,11.2130282 8.39348588,11.2130282 C11.4909119,11.2130282 14,8.70394012 14,5.60651412 C14,2.50908811 11.4909119,0 8.39348588,0 C5.29605988,0 2.78697177,2.50908811 2.78697177,5.60651412 Z M8.39348588,9.092772 C6.47281603,9.092772 4.907228,7.52718397 4.907228,5.60651412 C4.907228,3.68584426 6.47281603,2.12025623 8.39348588,2.12025623 C10.3141557,2.12025623 11.8797438,3.68584426 11.8797438,5.60651412 C11.8797438,7.52718397 10.3141557,9.092772 8.39348588,9.092772 L8.39348588,9.092772 Z" id="search-copy" fill="#000000" transform="translate(7.000000, 7.000000) scale(-1, 1) translate(-7.000000, -7.000000) "></path>
    </g>
</svg>