<svg width="21" height="17" viewBox="0 0 21 17" xmlns="http://www.w3.org/2000/svg"><title>twitter copy</title><path d="M18.453 4.174v.554a11.7 11.7 0 0 1-.356 2.838 13.697 13.697 0 0 1-1.024 2.773 11.325 11.325 0 0 1-1.71 2.515 12.43 12.43 0 0 1-2.339 2.042c-.863.58-1.858 1.04-2.985 1.376a12.421 12.421 0 0 1-3.567.504c-2.535 0-4.693-.575-6.472-1.724a7.265 7.265 0 0 0 3.753-.474 9.718 9.718 0 0 0 2.478-1.462 3.975 3.975 0 0 1-2.443-.842 4.12 4.12 0 0 1-1.48-2.102c.28.054.542.081.783.081.388 0 .762-.05 1.123-.151a4.107 4.107 0 0 1-2.418-1.457 4.106 4.106 0 0 1-.963-2.697v-.05c.602.33 1.237.504 1.906.524A4.24 4.24 0 0 1 1.36 4.91a4.098 4.098 0 0 1-.506-1.996c0-.693.19-1.378.572-2.057a11.729 11.729 0 0 0 3.833 3.07 12.093 12.093 0 0 0 4.846 1.275 4.46 4.46 0 0 1-.09-.978c0-1.17.41-2.166 1.23-2.989C12.062.412 13.053 0 14.217 0c1.198 0 2.231.444 3.101 1.33a8.36 8.36 0 0 0 2.66-1.028 4.06 4.06 0 0 1-1.857 2.35 7.985 7.985 0 0 0 2.428-.676 8.485 8.485 0 0 1-2.097 2.198z" fill="#A6A6A2" fill-rule="evenodd"/></svg>
