<?xml version="1.0" encoding="utf-8"?>
<!-- Generator: Adobe Illustrator 17.0.2, SVG Export Plug-In . SVG Version: 6.00 Build 0)  -->
<!DOCTYPE svg PUBLIC "-//W3C//DTD SVG 1.1//EN" "http://www.w3.org/Graphics/SVG/1.1/DTD/svg11.dtd">
<svg version="1.1" xmlns="http://www.w3.org/2000/svg" xmlns:xlink="http://www.w3.org/1999/xlink" x="0px" y="0px" width="251px"
	 height="273px" viewBox="0 0 251 273" enable-background="new 0 0 251 273" xml:space="preserve">
<pattern  x="3000" y="1400" width="1109" height="1197" patternUnits="userSpaceOnUse" id="SWIRL__x2013__RED_Large" viewBox="373.909 -1197 1109 1197" overflow="visible">
	<g>
		<polygon fill="none" points="373.909,-1197 1482.909,-1197 1482.909,0 373.909,0 		"/>
		<polygon fill="#800000" points="1482.909,0 373.909,0 373.909,-1197 1482.909,-1197 		"/>
		<g>
			<defs>
				<rect id="SVGID_1_" x="373.909" y="-1197" width="1109" height="1197"/>
			</defs>
			<clipPath id="SVGID_2_">
				<use xlink:href="#SVGID_1_"  overflow="visible"/>
			</clipPath>
			<g clip-path="url(#SVGID_2_)">
				<g>
					<path fill="none" stroke="#6F0216" stroke-width="3" stroke-miterlimit="10" d="M530.744-1197.001
						c0,225.101,182.884,407.582,408.484,407.582c107.078,0,204.517-41.13,277.36-108.395"/>
					<path fill="none" stroke="#6F0216" stroke-width="3" stroke-miterlimit="10" d="M1323.115-782.959
						c-104.777,96.748-241.109,150.03-383.888,150.03c-311.718,0-565.318-253.041-565.318-564.071"/>
					<path fill="none" stroke="#6F0216" stroke-width="3" stroke-miterlimit="10" d="M687.579-1197.001
						c0,138.452,112.889,251.092,251.647,251.092c63.544,0,124.214-23.709,170.834-66.757"/>
					<path fill="none" stroke="#6F0216" stroke-width="3" stroke-miterlimit="10" d="M1269.851-840.387
						c-90.236,83.324-207.652,129.213-330.625,129.213c-268.477,0-486.9-217.942-486.9-485.826"/>
					<path fill="none" stroke="#6F0216" stroke-width="3" stroke-miterlimit="10" d="M609.162-1197.001
						c0,181.597,148.066,329.337,330.065,329.337c83.353,0,162.94-31.102,224.098-87.578"/>
					<path fill="none" stroke="#6F0216" stroke-width="3" stroke-miterlimit="10" d="M1902.388-598.645
						c0-225.101-182.884-407.582-408.484-407.582c-107.078,0-204.517,41.13-277.36,108.395"/>
					<path fill="none" stroke="#6F0216" stroke-width="3" stroke-miterlimit="10" d="M1110.017-1012.687
						c104.777-96.748,241.109-150.03,383.888-150.03c311.718,0,565.318,253.041,565.318,564.071"/>
					<path fill="none" stroke="#6F0216" stroke-width="3" stroke-miterlimit="10" d="M1745.552-598.645
						c0-138.452-112.889-251.092-251.647-251.092c-63.544,0-124.214,23.709-170.834,66.758"/>
					<path fill="none" stroke="#6F0216" stroke-width="3" stroke-miterlimit="10" d="M1163.281-955.259
						c90.236-83.324,207.652-129.212,330.625-129.212c268.477,0,486.9,217.941,486.9,485.826"/>
					<path fill="none" stroke="#6F0216" stroke-width="3" stroke-miterlimit="10" d="M1823.97-598.645
						c0-181.597-148.066-329.337-330.065-329.337c-83.353,0-162.94,31.102-224.098,87.578"/>
				</g>
				<g>
					<path fill="none" stroke="#6F0216" stroke-width="3" stroke-miterlimit="10" d="M530.744-0.001
						c0-225.101,182.884-407.582,408.484-407.582c107.078,0,204.517,41.13,277.36,108.395"/>
					<path fill="none" stroke="#6F0216" stroke-width="3" stroke-miterlimit="10" d="M1323.115-414.042
						c-104.777-96.748-241.109-150.03-383.888-150.03c-311.718,0-565.318,253.041-565.318,564.071"/>
					<path fill="none" stroke="#6F0216" stroke-width="3" stroke-miterlimit="10" d="M687.579-0.001
						c0-138.452,112.889-251.092,251.647-251.092c63.544,0,124.214,23.709,170.834,66.757"/>
					<path fill="none" stroke="#6F0216" stroke-width="3" stroke-miterlimit="10" d="M1269.851-356.615
						c-90.236-83.324-207.652-129.213-330.625-129.213c-268.477,0-486.9,217.941-486.9,485.826"/>
					<path fill="none" stroke="#6F0216" stroke-width="3" stroke-miterlimit="10" d="M609.162-0.001
						c0-181.597,148.066-329.337,330.065-329.337c83.353,0,162.94,31.102,224.098,87.578"/>
					<path fill="none" stroke="#6F0216" stroke-width="3" stroke-miterlimit="10" d="M1902.388-598.356
						c0,225.101-182.884,407.582-408.484,407.582c-107.078,0-204.517-41.13-277.36-108.395"/>
					<path fill="none" stroke="#6F0216" stroke-width="3" stroke-miterlimit="10" d="M1110.017-184.315
						c104.777,96.748,241.109,150.03,383.888,150.03c311.718,0,565.318-253.041,565.318-564.071"/>
					<path fill="none" stroke="#6F0216" stroke-width="3" stroke-miterlimit="10" d="M1745.552-598.356
						c0,138.452-112.889,251.092-251.647,251.092c-63.544,0-124.214-23.709-170.834-66.757"/>
					<path fill="none" stroke="#6F0216" stroke-width="3" stroke-miterlimit="10" d="M1163.281-241.742
						c90.236,83.324,207.652,129.212,330.625,129.212c268.477,0,486.9-217.941,486.9-485.826"/>
					<path fill="none" stroke="#6F0216" stroke-width="3" stroke-miterlimit="10" d="M1823.97-598.356
						c0,181.597-148.066,329.337-330.065,329.337c-83.353,0-162.94-31.102-224.098-87.578"/>
				</g>
				<g>
					<g>
						<path fill="none" stroke="#6F0216" stroke-width="3" stroke-miterlimit="10" d="M793.388-598.645
							c0-225.101-182.884-407.582-408.484-407.582c-107.078,0-204.517,41.13-277.36,108.395"/>
						<path fill="none" stroke="#6F0216" stroke-width="3" stroke-miterlimit="10" d="M1.018-1012.687
							c104.777-96.748,241.109-150.03,383.888-150.03c311.718,0,565.318,253.041,565.318,564.071"/>
						<path fill="none" stroke="#6F0216" stroke-width="3" stroke-miterlimit="10" d="M636.553-598.645
							c0-138.452-112.889-251.092-251.647-251.092c-63.544,0-124.214,23.709-170.834,66.758"/>
						<path fill="none" stroke="#6F0216" stroke-width="3" stroke-miterlimit="10" d="M54.281-955.259
							c90.236-83.324,207.652-129.212,330.625-129.212c268.477,0,486.9,217.941,486.9,485.826"/>
						<path fill="none" stroke="#6F0216" stroke-width="3" stroke-miterlimit="10" d="M714.97-598.645
							c0-181.597-148.066-329.337-330.065-329.337c-83.353,0-162.94,31.102-224.098,87.578"/>
					</g>
					<g>
						<path fill="none" stroke="#6F0216" stroke-width="3" stroke-miterlimit="10" d="M793.388-598.356
							c0,225.101-182.884,407.582-408.484,407.582c-107.078,0-204.517-41.13-277.36-108.395"/>
						<path fill="none" stroke="#6F0216" stroke-width="3" stroke-miterlimit="10" d="M1.018-184.315
							c104.777,96.748,241.109,150.03,383.888,150.03c311.718,0,565.318-253.041,565.318-564.071"/>
						<path fill="none" stroke="#6F0216" stroke-width="3" stroke-miterlimit="10" d="M636.553-598.356
							c0,138.452-112.889,251.092-251.647,251.092c-63.544,0-124.214-23.709-170.834-66.757"/>
						<path fill="none" stroke="#6F0216" stroke-width="3" stroke-miterlimit="10" d="M54.281-241.742
							c90.236,83.324,207.652,129.212,330.625,129.212c268.477,0,486.9-217.941,486.9-485.826"/>
						<path fill="none" stroke="#6F0216" stroke-width="3" stroke-miterlimit="10" d="M714.97-598.356
							c0,181.597-148.066,329.337-330.065,329.337c-83.353,0-162.94-31.102-224.098-87.578"/>
					</g>
				</g>
				<g>
					<path fill="none" stroke="#6F0216" stroke-width="3" stroke-miterlimit="10" d="M1639.744-1197.001
						c0,225.101,182.884,407.582,408.484,407.582"/>
					<path fill="none" stroke="#6F0216" stroke-width="3" stroke-miterlimit="10" d="M2048.226-632.93
						c-311.717,0-565.317-253.041-565.317-564.071"/>
					<path fill="none" stroke="#6F0216" stroke-width="3" stroke-miterlimit="10" d="M1796.579-1197.001
						c0,138.452,112.889,251.092,251.647,251.092"/>
					<path fill="none" stroke="#6F0216" stroke-width="3" stroke-miterlimit="10" d="M2048.226-711.174
						c-268.477,0-486.9-217.942-486.9-485.826"/>
					<path fill="none" stroke="#6F0216" stroke-width="3" stroke-miterlimit="10" d="M1718.162-1197.001
						c0,181.597,148.066,329.337,330.064,329.337"/>
				</g>
				<g>
					<path fill="none" stroke="#6F0216" stroke-width="3" stroke-miterlimit="10" d="M1639.744-0.001
						c0-225.101,182.884-407.582,408.484-407.582"/>
					<path fill="none" stroke="#6F0216" stroke-width="3" stroke-miterlimit="10" d="M2048.226-564.072
						c-311.717,0-565.317,253.041-565.317,564.071"/>
					<path fill="none" stroke="#6F0216" stroke-width="3" stroke-miterlimit="10" d="M1796.579-0.001
						c0-138.452,112.889-251.092,251.647-251.092"/>
					<path fill="none" stroke="#6F0216" stroke-width="3" stroke-miterlimit="10" d="M2048.226-485.827
						c-268.477,0-486.9,217.941-486.9,485.826"/>
					<path fill="none" stroke="#6F0216" stroke-width="3" stroke-miterlimit="10" d="M1718.162-0.001
						c0-181.597,148.066-329.337,330.064-329.337"/>
				</g>
			</g>
		</g>
	</g>
</pattern>
<g id="Layer_2" display="none">
	<rect y="0" display="inline" fill="url(#SWIRL__x2013__RED_Large)" width="2880" height="1900"/>
</g>
<g id="Layer_2_copy">
	<g>
		<rect fill="#800000" width="251" height="273"/>
		<g opacity="0.7">
			<g>
				<defs>
					<rect id="SVGID_623_" width="251" height="273"/>
				</defs>
				<clipPath id="SVGID_4_">
					<use xlink:href="#SVGID_623_"  overflow="visible"/>
				</clipPath>
				<g clip-path="url(#SVGID_4_)">
					<defs>
						<rect id="SVGID_625_" x="95.41" y="0" width="251" height="273"/>
					</defs>
					<clipPath id="SVGID_6_">
						<use xlink:href="#SVGID_625_"  overflow="visible"/>
					</clipPath>
					<g clip-path="url(#SVGID_6_)">
						<path fill="none" stroke="#670420" stroke-width="2.5" stroke-miterlimit="10" d="M220.915,273.419
							c-16.564-15.297-38.719-24.651-63.067-24.651c-51.298,0-92.883,41.499-92.883,92.692c0,51.192,41.585,92.691,92.883,92.691
							c24.348,0,46.504-9.354,63.067-24.651"/>
						<path fill="none" stroke="#670420" stroke-width="2.5" stroke-miterlimit="10" d="M245.137,435.621
							c-23.825,22.002-54.824,34.12-87.29,34.12c-70.879,0-128.544-57.546-128.544-128.28s57.665-128.28,128.544-128.28
							c32.467,0,63.467,12.118,87.29,34.121"/>
						<path fill="none" stroke="#670420" stroke-width="2.5" stroke-miterlimit="10" d="M233.026,422.561
							c-20.518,18.949-47.217,29.385-75.179,29.385c-61.047,0-110.713-49.564-110.713-110.486S96.8,230.974,157.847,230.974
							c27.962,0,54.661,10.436,75.179,29.386"/>
						<path fill="none" stroke="#670420" stroke-width="2.5" stroke-miterlimit="10" d="M208.803,286.479
							c-13.906-12.843-32.003-19.916-50.956-19.916c-41.383,0-75.051,33.599-75.051,74.897s33.668,74.897,75.051,74.897
							c18.953,0,37.05-7.073,50.956-19.917"/>
					</g>
					<g clip-path="url(#SVGID_6_)">
						<path fill="none" stroke="#670420" stroke-width="2.5" stroke-miterlimit="10" d="M220.915,0.419
							c-16.564-15.297-38.719-24.651-63.067-24.651c-51.298,0-92.883,41.499-92.883,92.692c0,51.192,41.585,92.691,92.883,92.691
							c24.348,0,46.504-9.354,63.067-24.651"/>
						<path fill="none" stroke="#670420" stroke-width="2.5" stroke-miterlimit="10" d="M245.137,162.621
							c-23.825,22.002-54.824,34.12-87.29,34.12c-70.879,0-128.544-57.546-128.544-128.28S86.968-59.82,157.847-59.82
							c32.467,0,63.467,12.118,87.29,34.121"/>
						<path fill="none" stroke="#670420" stroke-width="2.5" stroke-miterlimit="10" d="M196.692,26.539
							c-10.601-9.79-24.396-15.182-38.845-15.182c-31.551,0-57.22,25.616-57.22,57.103s25.669,57.103,57.22,57.103
							c14.449,0,28.244-5.392,38.845-15.182"/>
						<path fill="none" stroke="#670420" stroke-width="2.5" stroke-miterlimit="10" d="M233.026,149.561
							c-20.518,18.949-47.217,29.385-75.179,29.385c-61.047,0-110.713-49.564-110.713-110.486S96.8-42.026,157.847-42.026
							c27.962,0,54.661,10.436,75.179,29.386"/>
						<path fill="none" stroke="#670420" stroke-width="2.5" stroke-miterlimit="10" d="M208.803,13.479
							C194.897,0.636,176.8-6.437,157.847-6.437c-41.383,0-75.051,33.599-75.051,74.897s33.668,74.897,75.051,74.897
							c18.953,0,37.05-7.073,50.956-19.917"/>
						<path fill="none" stroke="#670420" stroke-width="2.5" stroke-miterlimit="10" d="M220.905,272.578
							c16.564,15.297,38.719,24.651,63.067,24.651c51.298,0,92.883-41.499,92.883-92.692c0-51.192-41.585-92.691-92.883-92.691
							c-24.348,0-46.504,9.354-63.067,24.651"/>
						<path fill="none" stroke="#670420" stroke-width="2.5" stroke-miterlimit="10" d="M196.682,110.376
							c23.825-22.002,54.824-34.119,87.29-34.119c70.88,0,128.544,57.546,128.544,128.28s-57.664,128.28-128.544,128.28
							c-32.467,0-63.467-12.118-87.29-34.121"/>
						<path fill="none" stroke="#670420" stroke-width="2.5" stroke-miterlimit="10" d="M245.127,246.458
							c10.601,9.79,24.396,15.182,38.845,15.182c31.551,0,57.22-25.616,57.22-57.103s-25.669-57.103-57.22-57.103
							c-14.449,0-28.244,5.392-38.845,15.182"/>
						<path fill="none" stroke="#670420" stroke-width="2.5" stroke-miterlimit="10" d="M208.793,123.437
							c20.518-18.949,47.217-29.385,75.179-29.385c61.047,0,110.713,49.564,110.713,110.486s-49.666,110.486-110.713,110.486
							c-27.962,0-54.661-10.436-75.179-29.386"/>
						<path fill="none" stroke="#670420" stroke-width="2.5" stroke-miterlimit="10" d="M233.016,259.518
							c13.906,12.843,32.003,19.916,50.956,19.916c41.384,0,75.051-33.599,75.051-74.897s-33.668-74.897-75.051-74.897
							c-18.953,0-37.05,7.073-50.956,19.917"/>
					</g>
					<g clip-path="url(#SVGID_6_)">
						<path fill="none" stroke="#670420" stroke-width="2.5" stroke-miterlimit="10" d="M-30.095,272.578
							c16.564,15.297,38.719,24.651,63.067,24.651c51.298,0,92.883-41.499,92.883-92.692c0-51.192-41.585-92.691-92.883-92.691
							c-24.348,0-46.504,9.354-63.067,24.651"/>
						<path fill="none" stroke="#670420" stroke-width="2.5" stroke-miterlimit="10" d="M-54.318,110.376
							c23.825-22.002,54.824-34.119,87.29-34.119c70.879,0,128.544,57.546,128.544,128.28s-57.665,128.28-128.544,128.28
							c-32.467,0-63.467-12.118-87.29-34.121"/>
						<path fill="none" stroke="#670420" stroke-width="2.5" stroke-miterlimit="10" d="M-42.207,123.437
							c20.518-18.949,47.217-29.385,75.179-29.385c61.047,0,110.713,49.564,110.713,110.486S94.019,315.023,32.972,315.023
							c-27.962,0-54.661-10.436-75.179-29.386"/>
						<path fill="none" stroke="#670420" stroke-width="2.5" stroke-miterlimit="10" d="M-17.984,259.518
							c13.906,12.843,32.003,19.916,50.956,19.916c41.383,0,75.051-33.599,75.051-74.897S74.356,129.64,32.972,129.64
							c-18.953,0-37.05,7.073-50.956,19.917"/>
					</g>
					<g clip-path="url(#SVGID_6_)">
						<path fill="none" stroke="#670420" stroke-width="2.5" stroke-miterlimit="10" d="M220.905-0.422
							c16.564,15.297,38.719,24.651,63.067,24.651c51.298,0,92.883-41.499,92.883-92.692c0-51.192-41.585-92.691-92.883-92.691
							c-24.348,0-46.504,9.354-63.067,24.651"/>
						<path fill="none" stroke="#670420" stroke-width="2.5" stroke-miterlimit="10" d="M196.682-162.624
							c23.825-22.002,54.824-34.12,87.29-34.12c70.88,0,128.544,57.546,128.544,128.28s-57.664,128.28-128.544,128.28
							c-32.467,0-63.467-12.118-87.29-34.121"/>
						<path fill="none" stroke="#670420" stroke-width="2.5" stroke-miterlimit="10" d="M208.793-149.563
							c20.518-18.949,47.217-29.385,75.179-29.385c61.047,0,110.713,49.564,110.713,110.486S345.019,42.023,283.972,42.023
							c-27.962,0-54.661-10.436-75.179-29.386"/>
						<path fill="none" stroke="#670420" stroke-width="2.5" stroke-miterlimit="10" d="M233.016-13.482
							c13.906,12.843,32.003,19.916,50.956,19.916c41.384,0,75.051-33.599,75.051-74.897s-33.668-74.897-75.051-74.897
							c-18.953,0-37.05,7.073-50.956,19.917"/>
					</g>
					<g clip-path="url(#SVGID_6_)">
						<path fill="none" stroke="#670420" stroke-width="2.5" stroke-miterlimit="10" d="M-30.095-0.422
							c16.564,15.297,38.719,24.651,63.067,24.651c51.298,0,92.883-41.499,92.883-92.692c0-51.192-41.585-92.691-92.883-92.691
							c-24.348,0-46.504,9.354-63.067,24.651"/>
						<path fill="none" stroke="#670420" stroke-width="2.5" stroke-miterlimit="10" d="M-54.318-162.624
							c23.825-22.002,54.824-34.12,87.29-34.12c70.879,0,128.544,57.546,128.544,128.28S103.852,59.817,32.972,59.817
							c-32.467,0-63.467-12.118-87.29-34.121"/>
						<path fill="none" stroke="#670420" stroke-width="2.5" stroke-miterlimit="10" d="M-42.207-149.563
							c20.518-18.949,47.217-29.385,75.179-29.385c61.047,0,110.713,49.564,110.713,110.486S94.019,42.023,32.972,42.023
							c-27.962,0-54.661-10.436-75.179-29.386"/>
						<path fill="none" stroke="#670420" stroke-width="2.5" stroke-miterlimit="10" d="M-17.984-13.482
							C-4.078-0.639,14.019,6.434,32.972,6.434c41.383,0,75.051-33.599,75.051-74.897S74.356-143.36,32.972-143.36
							c-18.953,0-37.05,7.073-50.956,19.917"/>
					</g>
				</g>
				<g clip-path="url(#SVGID_4_)">
					<defs>
						<rect id="SVGID_627_" x="95.41" y="273" width="251" height="273"/>
					</defs>
					<clipPath id="SVGID_8_">
						<use xlink:href="#SVGID_627_"  overflow="visible"/>
					</clipPath>
					<g clip-path="url(#SVGID_8_)">
						<path fill="none" stroke="#670420" stroke-width="2.5" stroke-miterlimit="10" d="M220.915,273.419
							c-16.564-15.297-38.719-24.651-63.067-24.651c-51.298,0-92.883,41.499-92.883,92.692c0,51.192,41.585,92.691,92.883,92.691
							c24.348,0,46.504-9.354,63.067-24.651"/>
						<path fill="none" stroke="#670420" stroke-width="2.5" stroke-miterlimit="10" d="M245.137,435.621
							c-23.825,22.002-54.824,34.12-87.29,34.12c-70.879,0-128.544-57.546-128.544-128.28s57.665-128.28,128.544-128.28
							c32.467,0,63.467,12.118,87.29,34.121"/>
						<path fill="none" stroke="#670420" stroke-width="2.5" stroke-miterlimit="10" d="M233.026,422.561
							c-20.518,18.949-47.217,29.385-75.179,29.385c-61.047,0-110.713-49.564-110.713-110.486S96.8,230.974,157.847,230.974
							c27.962,0,54.661,10.436,75.179,29.386"/>
						<path fill="none" stroke="#670420" stroke-width="2.5" stroke-miterlimit="10" d="M208.803,286.479
							c-13.906-12.843-32.003-19.916-50.956-19.916c-41.383,0-75.051,33.599-75.051,74.897s33.668,74.897,75.051,74.897
							c18.953,0,37.05-7.073,50.956-19.917"/>
					</g>
					<g clip-path="url(#SVGID_8_)">
						<path fill="none" stroke="#670420" stroke-width="2.5" stroke-miterlimit="10" d="M220.905,272.578
							c16.564,15.297,38.719,24.651,63.067,24.651c51.298,0,92.883-41.499,92.883-92.692c0-51.192-41.585-92.691-92.883-92.691
							c-24.348,0-46.504,9.354-63.067,24.651"/>
						<path fill="none" stroke="#670420" stroke-width="2.5" stroke-miterlimit="10" d="M196.682,110.376
							c23.825-22.002,54.824-34.119,87.29-34.119c70.88,0,128.544,57.546,128.544,128.28s-57.664,128.28-128.544,128.28
							c-32.467,0-63.467-12.118-87.29-34.121"/>
						<path fill="none" stroke="#670420" stroke-width="2.5" stroke-miterlimit="10" d="M208.793,123.437
							c20.518-18.949,47.217-29.385,75.179-29.385c61.047,0,110.713,49.564,110.713,110.486s-49.666,110.486-110.713,110.486
							c-27.962,0-54.661-10.436-75.179-29.386"/>
						<path fill="none" stroke="#670420" stroke-width="2.5" stroke-miterlimit="10" d="M233.016,259.518
							c13.906,12.843,32.003,19.916,50.956,19.916c41.384,0,75.051-33.599,75.051-74.897s-33.668-74.897-75.051-74.897
							c-18.953,0-37.05,7.073-50.956,19.917"/>
					</g>
					<g clip-path="url(#SVGID_8_)">
						<path fill="none" stroke="#670420" stroke-width="2.5" stroke-miterlimit="10" d="M-30.095,272.578
							c16.564,15.297,38.719,24.651,63.067,24.651c51.298,0,92.883-41.499,92.883-92.692c0-51.192-41.585-92.691-92.883-92.691
							c-24.348,0-46.504,9.354-63.067,24.651"/>
						<path fill="none" stroke="#670420" stroke-width="2.5" stroke-miterlimit="10" d="M-54.318,110.376
							c23.825-22.002,54.824-34.119,87.29-34.119c70.879,0,128.544,57.546,128.544,128.28s-57.665,128.28-128.544,128.28
							c-32.467,0-63.467-12.118-87.29-34.121"/>
						<path fill="none" stroke="#670420" stroke-width="2.5" stroke-miterlimit="10" d="M-42.207,123.437
							c20.518-18.949,47.217-29.385,75.179-29.385c61.047,0,110.713,49.564,110.713,110.486S94.019,315.023,32.972,315.023
							c-27.962,0-54.661-10.436-75.179-29.386"/>
						<path fill="none" stroke="#670420" stroke-width="2.5" stroke-miterlimit="10" d="M-17.984,259.518
							c13.906,12.843,32.003,19.916,50.956,19.916c41.383,0,75.051-33.599,75.051-74.897S74.356,129.64,32.972,129.64
							c-18.953,0-37.05,7.073-50.956,19.917"/>
					</g>
				</g>
				<g clip-path="url(#SVGID_4_)">
					<defs>
						<rect id="SVGID_629_" x="-155.59" y="0" width="251" height="273"/>
					</defs>
					<clipPath id="SVGID_10_">
						<use xlink:href="#SVGID_629_"  overflow="visible"/>
					</clipPath>
					<g clip-path="url(#SVGID_10_)">
						<path fill="none" stroke="#670420" stroke-width="2.5" stroke-miterlimit="10" d="M220.915,273.419
							c-16.564-15.297-38.719-24.651-63.067-24.651c-51.298,0-92.883,41.499-92.883,92.692c0,51.192,41.585,92.691,92.883,92.691
							c24.348,0,46.504-9.354,63.067-24.651"/>
						<path fill="none" stroke="#670420" stroke-width="2.5" stroke-miterlimit="10" d="M245.137,435.621
							c-23.825,22.002-54.824,34.12-87.29,34.12c-70.879,0-128.544-57.546-128.544-128.28s57.665-128.28,128.544-128.28
							c32.467,0,63.467,12.118,87.29,34.121"/>
						<path fill="none" stroke="#670420" stroke-width="2.5" stroke-miterlimit="10" d="M233.026,422.561
							c-20.518,18.949-47.217,29.385-75.179,29.385c-61.047,0-110.713-49.564-110.713-110.486S96.8,230.974,157.847,230.974
							c27.962,0,54.661,10.436,75.179,29.386"/>
						<path fill="none" stroke="#670420" stroke-width="2.5" stroke-miterlimit="10" d="M208.803,286.479
							c-13.906-12.843-32.003-19.916-50.956-19.916c-41.383,0-75.051,33.599-75.051,74.897s33.668,74.897,75.051,74.897
							c18.953,0,37.05-7.073,50.956-19.917"/>
					</g>
					<g clip-path="url(#SVGID_10_)">
						<path fill="none" stroke="#670420" stroke-width="2.5" stroke-miterlimit="10" d="M220.915,0.419
							c-16.564-15.297-38.719-24.651-63.067-24.651c-51.298,0-92.883,41.499-92.883,92.692c0,51.192,41.585,92.691,92.883,92.691
							c24.348,0,46.504-9.354,63.067-24.651"/>
						<path fill="none" stroke="#670420" stroke-width="2.5" stroke-miterlimit="10" d="M245.137,162.621
							c-23.825,22.002-54.824,34.12-87.29,34.12c-70.879,0-128.544-57.546-128.544-128.28S86.968-59.82,157.847-59.82
							c32.467,0,63.467,12.118,87.29,34.121"/>
						<path fill="none" stroke="#670420" stroke-width="2.5" stroke-miterlimit="10" d="M233.026,149.561
							c-20.518,18.949-47.217,29.385-75.179,29.385c-61.047,0-110.713-49.564-110.713-110.486S96.8-42.026,157.847-42.026
							c27.962,0,54.661,10.436,75.179,29.386"/>
						<path fill="none" stroke="#670420" stroke-width="2.5" stroke-miterlimit="10" d="M208.803,13.479
							C194.897,0.636,176.8-6.437,157.847-6.437c-41.383,0-75.051,33.599-75.051,74.897s33.668,74.897,75.051,74.897
							c18.953,0,37.05-7.073,50.956-19.917"/>
					</g>
					<g clip-path="url(#SVGID_10_)">
						<path fill="none" stroke="#670420" stroke-width="2.5" stroke-miterlimit="10" d="M-30.095,272.578
							c16.564,15.297,38.719,24.651,63.067,24.651c51.298,0,92.883-41.499,92.883-92.692c0-51.192-41.585-92.691-92.883-92.691
							c-24.348,0-46.504,9.354-63.067,24.651"/>
						<path fill="none" stroke="#670420" stroke-width="2.5" stroke-miterlimit="10" d="M-54.318,110.376
							c23.825-22.002,54.824-34.119,87.29-34.119c70.879,0,128.544,57.546,128.544,128.28s-57.665,128.28-128.544,128.28
							c-32.467,0-63.467-12.118-87.29-34.121"/>
						<path fill="none" stroke="#670420" stroke-width="2.5" stroke-miterlimit="10" d="M-5.873,246.458
							c10.601,9.79,24.396,15.182,38.845,15.182c31.551,0,57.22-25.616,57.22-57.103s-25.669-57.103-57.22-57.103
							c-14.449,0-28.244,5.392-38.845,15.182"/>
						<path fill="none" stroke="#670420" stroke-width="2.5" stroke-miterlimit="10" d="M-42.207,123.437
							c20.518-18.949,47.217-29.385,75.179-29.385c61.047,0,110.713,49.564,110.713,110.486S94.019,315.023,32.972,315.023
							c-27.962,0-54.661-10.436-75.179-29.386"/>
						<path fill="none" stroke="#670420" stroke-width="2.5" stroke-miterlimit="10" d="M-17.984,259.518
							c13.906,12.843,32.003,19.916,50.956,19.916c41.383,0,75.051-33.599,75.051-74.897S74.356,129.64,32.972,129.64
							c-18.953,0-37.05,7.073-50.956,19.917"/>
					</g>
					<g clip-path="url(#SVGID_10_)">
						<path fill="none" stroke="#670420" stroke-width="2.5" stroke-miterlimit="10" d="M-30.095-0.422
							c16.564,15.297,38.719,24.651,63.067,24.651c51.298,0,92.883-41.499,92.883-92.692c0-51.192-41.585-92.691-92.883-92.691
							c-24.348,0-46.504,9.354-63.067,24.651"/>
						<path fill="none" stroke="#670420" stroke-width="2.5" stroke-miterlimit="10" d="M-54.318-162.624
							c23.825-22.002,54.824-34.12,87.29-34.12c70.879,0,128.544,57.546,128.544,128.28S103.852,59.817,32.972,59.817
							c-32.467,0-63.467-12.118-87.29-34.121"/>
						<path fill="none" stroke="#670420" stroke-width="2.5" stroke-miterlimit="10" d="M-42.207-149.563
							c20.518-18.949,47.217-29.385,75.179-29.385c61.047,0,110.713,49.564,110.713,110.486S94.019,42.023,32.972,42.023
							c-27.962,0-54.661-10.436-75.179-29.386"/>
						<path fill="none" stroke="#670420" stroke-width="2.5" stroke-miterlimit="10" d="M-17.984-13.482
							C-4.078-0.639,14.019,6.434,32.972,6.434c41.383,0,75.051-33.599,75.051-74.897S74.356-143.36,32.972-143.36
							c-18.953,0-37.05,7.073-50.956,19.917"/>
					</g>
				</g>
				<g clip-path="url(#SVGID_4_)">
					<defs>
						<rect id="SVGID_631_" x="-155.59" y="273" width="251" height="273"/>
					</defs>
					<clipPath id="SVGID_12_">
						<use xlink:href="#SVGID_631_"  overflow="visible"/>
					</clipPath>
					<g clip-path="url(#SVGID_12_)">
						<path fill="none" stroke="#670420" stroke-width="2.5" stroke-miterlimit="10" d="M220.915,273.419
							c-16.564-15.297-38.719-24.651-63.067-24.651c-51.298,0-92.883,41.499-92.883,92.692c0,51.192,41.585,92.691,92.883,92.691
							c24.348,0,46.504-9.354,63.067-24.651"/>
						<path fill="none" stroke="#670420" stroke-width="2.5" stroke-miterlimit="10" d="M245.137,435.621
							c-23.825,22.002-54.824,34.12-87.29,34.12c-70.879,0-128.544-57.546-128.544-128.28s57.665-128.28,128.544-128.28
							c32.467,0,63.467,12.118,87.29,34.121"/>
						<path fill="none" stroke="#670420" stroke-width="2.5" stroke-miterlimit="10" d="M233.026,422.561
							c-20.518,18.949-47.217,29.385-75.179,29.385c-61.047,0-110.713-49.564-110.713-110.486S96.8,230.974,157.847,230.974
							c27.962,0,54.661,10.436,75.179,29.386"/>
						<path fill="none" stroke="#670420" stroke-width="2.5" stroke-miterlimit="10" d="M208.803,286.479
							c-13.906-12.843-32.003-19.916-50.956-19.916c-41.383,0-75.051,33.599-75.051,74.897s33.668,74.897,75.051,74.897
							c18.953,0,37.05-7.073,50.956-19.917"/>
					</g>
					<g clip-path="url(#SVGID_12_)">
					</g>
					<g clip-path="url(#SVGID_12_)">
						<path fill="none" stroke="#670420" stroke-width="2.5" stroke-miterlimit="10" d="M-30.095,272.578
							c16.564,15.297,38.719,24.651,63.067,24.651c51.298,0,92.883-41.499,92.883-92.692c0-51.192-41.585-92.691-92.883-92.691
							c-24.348,0-46.504,9.354-63.067,24.651"/>
						<path fill="none" stroke="#670420" stroke-width="2.5" stroke-miterlimit="10" d="M-54.318,110.376
							c23.825-22.002,54.824-34.119,87.29-34.119c70.879,0,128.544,57.546,128.544,128.28s-57.665,128.28-128.544,128.28
							c-32.467,0-63.467-12.118-87.29-34.121"/>
						<path fill="none" stroke="#670420" stroke-width="2.5" stroke-miterlimit="10" d="M-42.207,123.437
							c20.518-18.949,47.217-29.385,75.179-29.385c61.047,0,110.713,49.564,110.713,110.486S94.019,315.023,32.972,315.023
							c-27.962,0-54.661-10.436-75.179-29.386"/>
						<path fill="none" stroke="#670420" stroke-width="2.5" stroke-miterlimit="10" d="M-17.984,259.518
							c13.906,12.843,32.003,19.916,50.956,19.916c41.383,0,75.051-33.599,75.051-74.897S74.356,129.64,32.972,129.64
							c-18.953,0-37.05,7.073-50.956,19.917"/>
					</g>
				</g>
			</g>
		</g>
	</g>
	<g>
		<g>
			<defs>
				<rect id="SVGID_633_" x="400" width="1109" height="1197"/>
			</defs>
			<clipPath id="SVGID_14_">
				<use xlink:href="#SVGID_633_"  overflow="visible"/>
			</clipPath>
			<g clip-path="url(#SVGID_14_)">
				<g>
					<g>
						<path fill="none" stroke="#6F0216" stroke-width="3" stroke-miterlimit="10" d="M819.479,598.355
							c0-225.101-182.884-407.582-408.484-407.582c-107.078,0-204.517,41.13-277.36,108.395"/>
						<path fill="none" stroke="#6F0216" stroke-width="3" stroke-miterlimit="10" d="M27.109,184.314
							c104.777-96.748,241.109-150.03,383.888-150.03c311.717,0,565.318,253.041,565.318,564.071"/>
						<path fill="none" stroke="#6F0216" stroke-width="3" stroke-miterlimit="10" d="M80.372,241.741
							c90.236-83.324,207.652-129.212,330.625-129.212c268.477,0,486.9,217.941,486.9,485.826"/>
						<path fill="none" stroke="#6F0216" stroke-width="3" stroke-miterlimit="10" d="M741.062,598.355
							c0-181.597-148.066-329.337-330.065-329.337c-83.353,0-162.94,31.102-224.098,87.578"/>
					</g>
				</g>
			</g>
		</g>
	</g>
</g>
</svg>
