<?xml version="1.0" encoding="utf-8"?>
<!-- Generator: Adobe Illustrator 17.0.2, SVG Export Plug-In . SVG Version: 6.00 Build 0)  -->
<!DOCTYPE svg PUBLIC "-//W3C//DTD SVG 1.1//EN" "http://www.w3.org/Graphics/SVG/1.1/DTD/svg11.dtd">
<svg version="1.1" xmlns="http://www.w3.org/2000/svg" xmlns:xlink="http://www.w3.org/1999/xlink" x="0px" y="0px" width="600px"
	 height="1427px" viewBox="0 0 600 1427" enable-background="new 0 0 600 1427" xml:space="preserve">
<pattern  x="700" y="-1800" width="1109" height="1197" patternUnits="userSpaceOnUse" id="SWIRL__x2013__GRAY_Large" viewBox="373.909 -1197 1109 1197" overflow="visible">
	<g>
		<polygon fill="none" points="373.909,-1197 1482.909,-1197 1482.909,0 373.909,0 		"/>
		<polygon fill="#4D4D4D" points="1482.909,0 373.909,0 373.909,-1197 1482.909,-1197 		"/>
		<g>
			<defs>
				<rect id="SVGID_2_" x="373.909" y="-1197" width="1109" height="1197"/>
			</defs>
			<clipPath id="SVGID_4_">
				<use xlink:href="#SVGID_2_"  overflow="visible"/>
			</clipPath>
			<g clip-path="url(#SVGID_4_)">
				<g>
					<path fill="none" stroke="#444444" stroke-width="3" stroke-miterlimit="10" d="M530.744-1197.001
						c0,225.101,182.884,407.582,408.484,407.582c107.078,0,204.517-41.13,277.36-108.395"/>
					<path fill="none" stroke="#444444" stroke-width="3" stroke-miterlimit="10" d="M1323.115-782.959
						c-104.777,96.748-241.109,150.03-383.888,150.03c-311.718,0-565.318-253.041-565.318-564.071"/>
					<path fill="none" stroke="#444444" stroke-width="3" stroke-miterlimit="10" d="M687.58-1197.001
						c0,138.452,112.889,251.092,251.647,251.092c63.544,0,124.214-23.709,170.834-66.757"/>
					<path fill="none" stroke="#444444" stroke-width="3" stroke-miterlimit="10" d="M1269.851-840.387
						c-90.236,83.324-207.652,129.213-330.625,129.213c-268.477,0-486.9-217.942-486.9-485.826"/>
					<path fill="none" stroke="#444444" stroke-width="3" stroke-miterlimit="10" d="M609.162-1197.001
						c0,181.597,148.066,329.337,330.065,329.337c83.353,0,162.94-31.102,224.098-87.578"/>
					<path fill="none" stroke="#444444" stroke-width="3" stroke-miterlimit="10" d="M1902.388-598.645
						c0-225.101-182.884-407.582-408.484-407.582c-107.078,0-204.517,41.13-277.36,108.395"/>
					<path fill="none" stroke="#444444" stroke-width="3" stroke-miterlimit="10" d="M1110.017-1012.687
						c104.777-96.748,241.109-150.03,383.888-150.03c311.718,0,565.318,253.041,565.318,564.071"/>
					<path fill="none" stroke="#444444" stroke-width="3" stroke-miterlimit="10" d="M1745.552-598.645
						c0-138.452-112.889-251.092-251.647-251.092c-63.544,0-124.214,23.709-170.834,66.758"/>
					<path fill="none" stroke="#444444" stroke-width="3" stroke-miterlimit="10" d="M1163.281-955.259
						c90.236-83.324,207.652-129.212,330.625-129.212c268.477,0,486.9,217.941,486.9,485.826"/>
					<path fill="none" stroke="#444444" stroke-width="3" stroke-miterlimit="10" d="M1823.97-598.645
						c0-181.597-148.066-329.337-330.065-329.337c-83.353,0-162.94,31.102-224.098,87.578"/>
				</g>
				<g>
					<path fill="none" stroke="#444444" stroke-width="3" stroke-miterlimit="10" d="M530.744-0.001
						c0-225.101,182.884-407.582,408.484-407.582c107.078,0,204.517,41.13,277.36,108.395"/>
					<path fill="none" stroke="#444444" stroke-width="3" stroke-miterlimit="10" d="M1323.115-414.042
						c-104.777-96.748-241.109-150.03-383.888-150.03c-311.718,0-565.318,253.041-565.318,564.071"/>
					<path fill="none" stroke="#444444" stroke-width="3" stroke-miterlimit="10" d="M687.58-0.001
						c0-138.452,112.889-251.092,251.647-251.092c63.544,0,124.214,23.709,170.834,66.757"/>
					<path fill="none" stroke="#444444" stroke-width="3" stroke-miterlimit="10" d="M1269.851-356.615
						c-90.236-83.324-207.652-129.213-330.625-129.213c-268.477,0-486.9,217.941-486.9,485.826"/>
					<path fill="none" stroke="#444444" stroke-width="3" stroke-miterlimit="10" d="M609.162-0.001
						c0-181.597,148.066-329.337,330.065-329.337c83.353,0,162.94,31.102,224.098,87.578"/>
					<path fill="none" stroke="#444444" stroke-width="3" stroke-miterlimit="10" d="M1902.388-598.356
						c0,225.101-182.884,407.582-408.484,407.582c-107.078,0-204.517-41.13-277.36-108.395"/>
					<path fill="none" stroke="#444444" stroke-width="3" stroke-miterlimit="10" d="M1110.017-184.315
						c104.777,96.748,241.109,150.03,383.888,150.03c311.718,0,565.318-253.041,565.318-564.071"/>
					<path fill="none" stroke="#444444" stroke-width="3" stroke-miterlimit="10" d="M1745.552-598.356
						c0,138.452-112.889,251.092-251.647,251.092c-63.544,0-124.214-23.709-170.834-66.757"/>
					<path fill="none" stroke="#444444" stroke-width="3" stroke-miterlimit="10" d="M1163.281-241.742
						c90.236,83.324,207.652,129.212,330.625,129.212c268.477,0,486.9-217.941,486.9-485.826"/>
					<path fill="none" stroke="#444444" stroke-width="3" stroke-miterlimit="10" d="M1823.97-598.356
						c0,181.597-148.066,329.337-330.065,329.337c-83.353,0-162.94-31.102-224.098-87.578"/>
				</g>
				<g>
					<g>
						<path fill="none" stroke="#444444" stroke-width="3" stroke-miterlimit="10" d="M793.388-598.645
							c0-225.101-182.884-407.582-408.484-407.582c-107.078,0-204.517,41.13-277.36,108.395"/>
						<path fill="none" stroke="#444444" stroke-width="3" stroke-miterlimit="10" d="M1.018-1012.687
							c104.777-96.748,241.109-150.03,383.888-150.03c311.718,0,565.318,253.041,565.318,564.071"/>
						<path fill="none" stroke="#444444" stroke-width="3" stroke-miterlimit="10" d="M636.553-598.645
							c0-138.452-112.889-251.092-251.647-251.092c-63.544,0-124.214,23.709-170.834,66.758"/>
						<path fill="none" stroke="#444444" stroke-width="3" stroke-miterlimit="10" d="M54.281-955.259
							c90.236-83.324,207.652-129.212,330.625-129.212c268.477,0,486.9,217.941,486.9,485.826"/>
						<path fill="none" stroke="#444444" stroke-width="3" stroke-miterlimit="10" d="M714.971-598.645
							c0-181.597-148.066-329.337-330.065-329.337c-83.353,0-162.94,31.102-224.098,87.578"/>
					</g>
					<g>
						<path fill="none" stroke="#444444" stroke-width="3" stroke-miterlimit="10" d="M793.388-598.356
							c0,225.101-182.884,407.582-408.484,407.582c-107.078,0-204.517-41.13-277.36-108.395"/>
						<path fill="none" stroke="#444444" stroke-width="3" stroke-miterlimit="10" d="M1.018-184.315
							c104.777,96.748,241.109,150.03,383.888,150.03c311.718,0,565.318-253.041,565.318-564.071"/>
						<path fill="none" stroke="#444444" stroke-width="3" stroke-miterlimit="10" d="M636.553-598.356
							c0,138.452-112.889,251.092-251.647,251.092c-63.544,0-124.214-23.709-170.834-66.757"/>
						<path fill="none" stroke="#444444" stroke-width="3" stroke-miterlimit="10" d="M54.281-241.742
							c90.236,83.324,207.652,129.212,330.625,129.212c268.477,0,486.9-217.941,486.9-485.826"/>
						<path fill="none" stroke="#444444" stroke-width="3" stroke-miterlimit="10" d="M714.971-598.356
							c0,181.597-148.066,329.337-330.065,329.337c-83.353,0-162.94-31.102-224.098-87.578"/>
					</g>
				</g>
				<g>
					<path fill="none" stroke="#444444" stroke-width="3" stroke-miterlimit="10" d="M1639.744-1197.001
						c0,225.101,182.884,407.582,408.484,407.582"/>
					<path fill="none" stroke="#444444" stroke-width="3" stroke-miterlimit="10" d="M2048.227-632.93
						c-311.718,0-565.318-253.041-565.318-564.071"/>
					<path fill="none" stroke="#444444" stroke-width="3" stroke-miterlimit="10" d="M1796.58-1197.001
						c0,138.452,112.889,251.092,251.647,251.092"/>
					<path fill="none" stroke="#444444" stroke-width="3" stroke-miterlimit="10" d="M2048.227-711.174
						c-268.477,0-486.9-217.942-486.9-485.826"/>
					<path fill="none" stroke="#444444" stroke-width="3" stroke-miterlimit="10" d="M1718.162-1197.001
						c0,181.597,148.066,329.337,330.065,329.337"/>
				</g>
				<g>
					<path fill="none" stroke="#444444" stroke-width="3" stroke-miterlimit="10" d="M1639.744-0.001
						c0-225.101,182.884-407.582,408.484-407.582"/>
					<path fill="none" stroke="#444444" stroke-width="3" stroke-miterlimit="10" d="M2048.227-564.072
						c-311.718,0-565.318,253.041-565.318,564.071"/>
					<path fill="none" stroke="#444444" stroke-width="3" stroke-miterlimit="10" d="M1796.58-0.001
						c0-138.452,112.889-251.092,251.647-251.092"/>
					<path fill="none" stroke="#444444" stroke-width="3" stroke-miterlimit="10" d="M2048.227-485.827
						c-268.477,0-486.9,217.941-486.9,485.826"/>
					<path fill="none" stroke="#444444" stroke-width="3" stroke-miterlimit="10" d="M1718.162-0.001
						c0-181.597,148.066-329.337,330.065-329.337"/>
				</g>
			</g>
		</g>
	</g>
</pattern>
<g id="Layer_2" display="none">
	<rect x="-2300" y="-800" display="inline" fill="url(#SWIRL__x2013__GRAY_Large)" width="2880" height="1900"/>
</g>
<g id="Layer_2_copy">
	<g>
		<g>
			<defs>
				<rect id="SVGID_593_" x="0" y="-1600" width="600" height="1427"/>
			</defs>
			<clipPath id="SVGID_6_">
				<use xlink:href="#SVGID_593_"  overflow="visible"/>
			</clipPath>
			<g clip-path="url(#SVGID_6_)">
				<g>
					<polygon fill="none" stroke="#113851" stroke-width="3" stroke-miterlimit="10" points="400.839,610.502 300,680.503 
						199.161,610.502 199.161,470.498 300,400.497 400.839,470.498 					"/>
					<g>
						<polygon fill="none" stroke="#113851" stroke-width="3" stroke-miterlimit="10" points="400.839,-676.495 300,-746.496 
							199.161,-676.495 199.161,330.495 300,400.497 400.839,330.495 400.839,190.491 						"/>
					</g>
				</g>
			</g>
		</g>
	</g>
	<g>
		<rect fill="#4D4D4D" width="600" height="1427"/>
		<g>
			<defs>
				<rect id="SVGID_595_" width="600" height="1427"/>
			</defs>
			<clipPath id="SVGID_8_">
				<use xlink:href="#SVGID_595_"  overflow="visible"/>
			</clipPath>
			<g clip-path="url(#SVGID_8_)">
				<g>
					<polygon fill="none" stroke="#444444" stroke-width="3" stroke-miterlimit="10" points="100.839,1497.002 0,1567.004 
						-100.839,1497.002 -100.839,1356.998 0,1286.997 100.839,1356.998 					"/>
					<polygon fill="none" stroke="#444444" stroke-width="3" stroke-miterlimit="10" points="100.839,70.002 0,140.003 
						-100.839,70.002 -100.839,-70.002 0,-140.003 100.839,-70.002 					"/>
					<polygon fill="none" stroke="#444444" stroke-width="3" stroke-miterlimit="10" points="100.839,210.005 0,140.003 
						-100.839,210.005 -100.839,1216.985 0,1286.987 100.839,1216.985 100.839,1076.982 					"/>
				</g>
				<g>
					<polygon fill="none" stroke="#444444" stroke-width="3" stroke-miterlimit="10" points="700.839,1497.002 600,1567.004 
						499.161,1497.002 499.161,1356.998 600,1286.997 700.839,1356.998 					"/>
					<polygon fill="none" stroke="#444444" stroke-width="3" stroke-miterlimit="10" points="700.839,70.002 600,140.003 
						499.161,70.002 499.161,-70.002 600,-140.003 700.839,-70.002 					"/>
					<polygon fill="none" stroke="#444444" stroke-width="3" stroke-miterlimit="10" points="700.839,210.005 600,140.003 
						499.161,210.005 499.161,1216.985 600,1286.987 700.839,1216.985 700.839,1076.982 					"/>
				</g>
				<g>
					<g>
						<polygon fill="none" stroke="#444444" stroke-width="3" stroke-miterlimit="10" points="400.839,923.505 300,853.504 
							199.161,923.505 199.161,1930.495 300,2000.497 400.839,1930.495 400.839,1790.491 						"/>
						<g>
							<polygon fill="none" stroke="#444444" stroke-width="3" stroke-miterlimit="10" points="400.839,783.502 300,853.504 
								199.161,783.502 199.161,643.498 300,573.497 400.839,643.498 							"/>
							<polygon fill="none" stroke="#444444" stroke-width="3" stroke-miterlimit="10" points="400.839,-503.495 300,-573.497 
								199.161,-503.495 199.161,503.485 300,573.487 400.839,503.485 400.839,363.482 							"/>
						</g>
					</g>
				</g>
			</g>
		</g>
	</g>
</g>
</svg>
