<?xml version="1.0" encoding="utf-8"?>
<!-- Generator: Adobe Illustrator 17.0.2, SVG Export Plug-In . SVG Version: 6.00 Build 0)  -->
<!DOCTYPE svg PUBLIC "-//W3C//DTD SVG 1.1//EN" "http://www.w3.org/Graphics/SVG/1.1/DTD/svg11.dtd">
<svg version="1.1" xmlns="http://www.w3.org/2000/svg" xmlns:xlink="http://www.w3.org/1999/xlink" x="0px" y="0px" width="120px"
	 height="285px" viewBox="0 0 120 285" enable-background="new 0 0 120 285" xml:space="preserve">
<pattern  x="1000" y="-1800" width="1109" height="1197" patternUnits="userSpaceOnUse" id="SWIRL__x2013__GRAY_Large" viewBox="373.909 -1197 1109 1197" overflow="visible">
	<g>
		<polygon fill="none" points="373.909,-1197 1482.909,-1197 1482.909,0 373.909,0 		"/>
		<polygon fill="#4D4D4D" points="1482.909,0 373.909,0 373.909,-1197 1482.909,-1197 		"/>
		<g>
			<defs>
				<rect id="SVGID_2_" x="373.909" y="-1197" width="1109" height="1197"/>
			</defs>
			<clipPath id="SVGID_4_">
				<use xlink:href="#SVGID_2_"  overflow="visible"/>
			</clipPath>
			<g clip-path="url(#SVGID_4_)">
				<g>
					<path fill="none" stroke="#444444" stroke-width="3" stroke-miterlimit="10" d="M530.744-1197.001
						c0,225.101,182.884,407.582,408.484,407.582c107.078,0,204.517-41.13,277.36-108.395"/>
					<path fill="none" stroke="#444444" stroke-width="3" stroke-miterlimit="10" d="M1323.115-782.959
						c-104.777,96.748-241.109,150.03-383.888,150.03c-311.718,0-565.318-253.041-565.318-564.071"/>
					<path fill="none" stroke="#444444" stroke-width="3" stroke-miterlimit="10" d="M687.58-1197.001
						c0,138.452,112.889,251.092,251.647,251.092c63.544,0,124.214-23.709,170.834-66.757"/>
					<path fill="none" stroke="#444444" stroke-width="3" stroke-miterlimit="10" d="M1269.851-840.387
						c-90.236,83.324-207.652,129.213-330.625,129.213c-268.477,0-486.9-217.942-486.9-485.826"/>
					<path fill="none" stroke="#444444" stroke-width="3" stroke-miterlimit="10" d="M609.162-1197.001
						c0,181.597,148.066,329.337,330.065,329.337c83.353,0,162.94-31.102,224.098-87.578"/>
					<path fill="none" stroke="#444444" stroke-width="3" stroke-miterlimit="10" d="M1902.388-598.645
						c0-225.101-182.884-407.582-408.484-407.582c-107.078,0-204.517,41.13-277.36,108.395"/>
					<path fill="none" stroke="#444444" stroke-width="3" stroke-miterlimit="10" d="M1110.017-1012.687
						c104.777-96.748,241.109-150.03,383.888-150.03c311.718,0,565.318,253.041,565.318,564.071"/>
					<path fill="none" stroke="#444444" stroke-width="3" stroke-miterlimit="10" d="M1745.552-598.645
						c0-138.452-112.889-251.092-251.647-251.092c-63.544,0-124.214,23.709-170.834,66.758"/>
					<path fill="none" stroke="#444444" stroke-width="3" stroke-miterlimit="10" d="M1163.281-955.259
						c90.236-83.324,207.652-129.212,330.625-129.212c268.477,0,486.9,217.941,486.9,485.826"/>
					<path fill="none" stroke="#444444" stroke-width="3" stroke-miterlimit="10" d="M1823.97-598.645
						c0-181.597-148.066-329.337-330.065-329.337c-83.353,0-162.94,31.102-224.098,87.578"/>
				</g>
				<g>
					<path fill="none" stroke="#444444" stroke-width="3" stroke-miterlimit="10" d="M530.744-0.001
						c0-225.101,182.884-407.582,408.484-407.582c107.078,0,204.517,41.13,277.36,108.395"/>
					<path fill="none" stroke="#444444" stroke-width="3" stroke-miterlimit="10" d="M1323.115-414.042
						c-104.777-96.748-241.109-150.03-383.888-150.03c-311.718,0-565.318,253.041-565.318,564.071"/>
					<path fill="none" stroke="#444444" stroke-width="3" stroke-miterlimit="10" d="M687.58-0.001
						c0-138.452,112.889-251.092,251.647-251.092c63.544,0,124.214,23.709,170.834,66.757"/>
					<path fill="none" stroke="#444444" stroke-width="3" stroke-miterlimit="10" d="M1269.851-356.615
						c-90.236-83.324-207.652-129.213-330.625-129.213c-268.477,0-486.9,217.941-486.9,485.826"/>
					<path fill="none" stroke="#444444" stroke-width="3" stroke-miterlimit="10" d="M609.162-0.001
						c0-181.597,148.066-329.337,330.065-329.337c83.353,0,162.94,31.102,224.098,87.578"/>
					<path fill="none" stroke="#444444" stroke-width="3" stroke-miterlimit="10" d="M1902.388-598.356
						c0,225.101-182.884,407.582-408.484,407.582c-107.078,0-204.517-41.13-277.36-108.395"/>
					<path fill="none" stroke="#444444" stroke-width="3" stroke-miterlimit="10" d="M1110.017-184.315
						c104.777,96.748,241.109,150.03,383.888,150.03c311.718,0,565.318-253.041,565.318-564.071"/>
					<path fill="none" stroke="#444444" stroke-width="3" stroke-miterlimit="10" d="M1745.552-598.356
						c0,138.452-112.889,251.092-251.647,251.092c-63.544,0-124.214-23.709-170.834-66.757"/>
					<path fill="none" stroke="#444444" stroke-width="3" stroke-miterlimit="10" d="M1163.281-241.742
						c90.236,83.324,207.652,129.212,330.625,129.212c268.477,0,486.9-217.941,486.9-485.826"/>
					<path fill="none" stroke="#444444" stroke-width="3" stroke-miterlimit="10" d="M1823.97-598.356
						c0,181.597-148.066,329.337-330.065,329.337c-83.353,0-162.94-31.102-224.098-87.578"/>
				</g>
				<g>
					<g>
						<path fill="none" stroke="#444444" stroke-width="3" stroke-miterlimit="10" d="M793.388-598.645
							c0-225.101-182.884-407.582-408.484-407.582c-107.078,0-204.517,41.13-277.36,108.395"/>
						<path fill="none" stroke="#444444" stroke-width="3" stroke-miterlimit="10" d="M1.018-1012.687
							c104.777-96.748,241.109-150.03,383.888-150.03c311.718,0,565.318,253.041,565.318,564.071"/>
						<path fill="none" stroke="#444444" stroke-width="3" stroke-miterlimit="10" d="M636.553-598.645
							c0-138.452-112.889-251.092-251.647-251.092c-63.544,0-124.214,23.709-170.834,66.758"/>
						<path fill="none" stroke="#444444" stroke-width="3" stroke-miterlimit="10" d="M54.281-955.259
							c90.236-83.324,207.652-129.212,330.625-129.212c268.477,0,486.9,217.941,486.9,485.826"/>
						<path fill="none" stroke="#444444" stroke-width="3" stroke-miterlimit="10" d="M714.971-598.645
							c0-181.597-148.066-329.337-330.065-329.337c-83.353,0-162.94,31.102-224.098,87.578"/>
					</g>
					<g>
						<path fill="none" stroke="#444444" stroke-width="3" stroke-miterlimit="10" d="M793.388-598.356
							c0,225.101-182.884,407.582-408.484,407.582c-107.078,0-204.517-41.13-277.36-108.395"/>
						<path fill="none" stroke="#444444" stroke-width="3" stroke-miterlimit="10" d="M1.018-184.315
							c104.777,96.748,241.109,150.03,383.888,150.03c311.718,0,565.318-253.041,565.318-564.071"/>
						<path fill="none" stroke="#444444" stroke-width="3" stroke-miterlimit="10" d="M636.553-598.356
							c0,138.452-112.889,251.092-251.647,251.092c-63.544,0-124.214-23.709-170.834-66.757"/>
						<path fill="none" stroke="#444444" stroke-width="3" stroke-miterlimit="10" d="M54.281-241.742
							c90.236,83.324,207.652,129.212,330.625,129.212c268.477,0,486.9-217.941,486.9-485.826"/>
						<path fill="none" stroke="#444444" stroke-width="3" stroke-miterlimit="10" d="M714.971-598.356
							c0,181.597-148.066,329.337-330.065,329.337c-83.353,0-162.94-31.102-224.098-87.578"/>
					</g>
				</g>
				<g>
					<path fill="none" stroke="#444444" stroke-width="3" stroke-miterlimit="10" d="M1639.744-1197.001
						c0,225.101,182.884,407.582,408.484,407.582"/>
					<path fill="none" stroke="#444444" stroke-width="3" stroke-miterlimit="10" d="M2048.227-632.93
						c-311.718,0-565.318-253.041-565.318-564.071"/>
					<path fill="none" stroke="#444444" stroke-width="3" stroke-miterlimit="10" d="M1796.58-1197.001
						c0,138.452,112.889,251.092,251.647,251.092"/>
					<path fill="none" stroke="#444444" stroke-width="3" stroke-miterlimit="10" d="M2048.227-711.174
						c-268.477,0-486.9-217.942-486.9-485.826"/>
					<path fill="none" stroke="#444444" stroke-width="3" stroke-miterlimit="10" d="M1718.162-1197.001
						c0,181.597,148.066,329.337,330.065,329.337"/>
				</g>
				<g>
					<path fill="none" stroke="#444444" stroke-width="3" stroke-miterlimit="10" d="M1639.744-0.001
						c0-225.101,182.884-407.582,408.484-407.582"/>
					<path fill="none" stroke="#444444" stroke-width="3" stroke-miterlimit="10" d="M2048.227-564.072
						c-311.718,0-565.318,253.041-565.318,564.071"/>
					<path fill="none" stroke="#444444" stroke-width="3" stroke-miterlimit="10" d="M1796.58-0.001
						c0-138.452,112.889-251.092,251.647-251.092"/>
					<path fill="none" stroke="#444444" stroke-width="3" stroke-miterlimit="10" d="M2048.227-485.827
						c-268.477,0-486.9,217.941-486.9,485.826"/>
					<path fill="none" stroke="#444444" stroke-width="3" stroke-miterlimit="10" d="M1718.162-0.001
						c0-181.597,148.066-329.337,330.065-329.337"/>
				</g>
			</g>
		</g>
	</g>
</pattern>
<g id="Layer_2" display="none">
	<rect x="-2000" y="-800" display="inline" fill="url(#SWIRL__x2013__GRAY_Large)" width="2880" height="1900"/>
</g>
<g id="Layer_2_copy">
	<g>
		<rect x="0" fill="#4D4D4D" width="120" height="285"/>
		<g>
			<defs>
				<rect id="SVGID_597_" x="0" width="120" height="285"/>
			</defs>
			<clipPath id="SVGID_6_">
				<use xlink:href="#SVGID_597_"  overflow="visible"/>
			</clipPath>
			<g clip-path="url(#SVGID_6_)">
				<g>
					<polygon fill="none" stroke="#444444" stroke-width="2.5" stroke-miterlimit="10" points="20.168,298.981 0,312.961 
						-20.168,298.981 -20.168,271.019 0,257.039 20.168,271.019 					"/>
					<polygon fill="none" stroke="#444444" stroke-width="2.5" stroke-miterlimit="10" points="20.168,13.981 0,27.961 
						-20.168,13.981 -20.168,-13.981 0,-27.961 20.168,-13.981 					"/>
					<polygon fill="none" stroke="#444444" stroke-width="2.5" stroke-miterlimit="10" points="20.168,41.942 0,27.961 
						-20.168,41.942 -20.168,243.056 0,257.037 20.168,243.056 20.168,215.094 					"/>
				</g>
				<g>
					<polygon fill="none" stroke="#444444" stroke-width="2.5" stroke-miterlimit="10" points="140.168,298.981 120,312.961 
						99.832,298.981 99.832,271.019 120,257.039 140.168,271.019 					"/>
					<polygon fill="none" stroke="#444444" stroke-width="2.5" stroke-miterlimit="10" points="140.168,13.981 120,27.961 
						99.832,13.981 99.832,-13.981 120,-27.961 140.168,-13.981 					"/>
					<polygon fill="none" stroke="#444444" stroke-width="2.5" stroke-miterlimit="10" points="140.168,41.942 120,27.961 
						99.832,41.942 99.832,243.056 120,257.037 140.168,243.056 140.168,215.094 					"/>
				</g>
				<g>
					<g>
						<polygon fill="none" stroke="#444444" stroke-width="2.5" stroke-miterlimit="10" points="80.168,184.442 60,170.461 
							39.832,184.442 39.832,385.558 60,399.539 80.168,385.558 80.168,357.596 						"/>
						<g>
							<polygon fill="none" stroke="#444444" stroke-width="2.5" stroke-miterlimit="10" points="80.168,156.481 60,170.461 
								39.832,156.481 39.832,128.519 60,114.539 80.168,128.519 							"/>
							<polygon fill="none" stroke="#444444" stroke-width="2.5" stroke-miterlimit="10" points="80.168,-100.558 60,-114.539 
								39.832,-100.558 39.832,100.556 60,114.537 80.168,100.556 80.168,72.594 							"/>
						</g>
					</g>
				</g>
			</g>
		</g>
	</g>
	<g>
		<g>
			<defs>
				<rect id="SVGID_609_" x="-1600" width="1109" height="1197"/>
			</defs>
			<clipPath id="SVGID_8_">
				<use xlink:href="#SVGID_609_"  overflow="visible"/>
			</clipPath>
			<g clip-path="url(#SVGID_8_)">
				<g>
					<path fill="none" stroke="#444444" stroke-width="3" stroke-miterlimit="10" d="M-863.892,184.313
						c104.777-96.748,241.109-150.03,383.888-150.03c311.718,0,565.318,253.041,565.318,564.071"/>
					<path fill="none" stroke="#444444" stroke-width="3" stroke-miterlimit="10" d="M-810.628,241.741
						c90.236-83.324,207.652-129.213,330.625-129.213c268.477,0,486.9,217.941,486.9,485.826"/>
				</g>
				<g>
					<path fill="none" stroke="#444444" stroke-width="3" stroke-miterlimit="10" d="M-334.165,0
						c0,225.101,182.884,407.582,408.484,407.582"/>
					<path fill="none" stroke="#444444" stroke-width="3" stroke-miterlimit="10" d="M74.318,564.071
						C-237.4,564.071-491,311.03-491,0"/>
					<path fill="none" stroke="#444444" stroke-width="3" stroke-miterlimit="10" d="M-177.329,0
						c0,138.452,112.889,251.092,251.647,251.092"/>
					<path fill="none" stroke="#444444" stroke-width="3" stroke-miterlimit="10" d="M74.318,485.826
						c-268.477,0-486.9-217.941-486.9-485.826"/>
					<path fill="none" stroke="#444444" stroke-width="3" stroke-miterlimit="10" d="M-255.747,0
						c0,181.597,148.066,329.337,330.065,329.337"/>
				</g>
			</g>
		</g>
	</g>
</g>
</svg>
