<?xml version="1.0" encoding="utf-8"?>
<!-- Generator: Adobe Illustrator 17.0.2, SVG Export Plug-In . SVG Version: 6.00 Build 0)  -->
<!DOCTYPE svg PUBLIC "-//W3C//DTD SVG 1.1//EN" "http://www.w3.org/Graphics/SVG/1.1/DTD/svg11.dtd">
<svg version="1.1" xmlns="http://www.w3.org/2000/svg" xmlns:xlink="http://www.w3.org/1999/xlink" x="0px" y="0px" width="1109px"
	 height="1197px" viewBox="0 0 1109 1197" enable-background="new 0 0 1109 1197" xml:space="preserve">
<pattern  x="2600" y="1400" width="1109" height="1197" patternUnits="userSpaceOnUse" id="SWIRL__x2013__RED_Large" viewBox="373.909 -1197 1109 1197" overflow="visible">
	<g>
		<polygon fill="none" points="373.909,-1197 1482.909,-1197 1482.909,0 373.909,0 		"/>
		<polygon fill="#800000" points="1482.909,0 373.909,0 373.909,-1197 1482.909,-1197 		"/>
		<g>
			<defs>
				<rect id="SVGID_1_" x="373.909" y="-1197" width="1109" height="1197"/>
			</defs>
			<clipPath id="SVGID_2_">
				<use xlink:href="#SVGID_1_"  overflow="visible"/>
			</clipPath>
			<g clip-path="url(#SVGID_2_)">
				<g>
					<path fill="none" stroke="#6F0216" stroke-width="3" stroke-miterlimit="10" d="M530.744-1197.001
						c0,225.101,182.884,407.582,408.484,407.582c107.078,0,204.517-41.13,277.36-108.395"/>
					<path fill="none" stroke="#6F0216" stroke-width="3" stroke-miterlimit="10" d="M1323.115-782.959
						c-104.777,96.748-241.109,150.03-383.888,150.03c-311.718,0-565.318-253.041-565.318-564.071"/>
					<path fill="none" stroke="#6F0216" stroke-width="3" stroke-miterlimit="10" d="M687.579-1197.001
						c0,138.452,112.889,251.092,251.647,251.092c63.544,0,124.214-23.709,170.834-66.757"/>
					<path fill="none" stroke="#6F0216" stroke-width="3" stroke-miterlimit="10" d="M1269.851-840.387
						c-90.236,83.324-207.652,129.213-330.625,129.213c-268.477,0-486.9-217.942-486.9-485.826"/>
					<path fill="none" stroke="#6F0216" stroke-width="3" stroke-miterlimit="10" d="M609.162-1197.001
						c0,181.597,148.066,329.337,330.065,329.337c83.353,0,162.94-31.102,224.098-87.578"/>
					<path fill="none" stroke="#6F0216" stroke-width="3" stroke-miterlimit="10" d="M1902.388-598.645
						c0-225.101-182.884-407.582-408.484-407.582c-107.078,0-204.517,41.13-277.36,108.395"/>
					<path fill="none" stroke="#6F0216" stroke-width="3" stroke-miterlimit="10" d="M1110.017-1012.687
						c104.777-96.748,241.109-150.03,383.888-150.03c311.718,0,565.318,253.041,565.318,564.071"/>
					<path fill="none" stroke="#6F0216" stroke-width="3" stroke-miterlimit="10" d="M1745.552-598.645
						c0-138.452-112.889-251.092-251.647-251.092c-63.544,0-124.214,23.709-170.834,66.758"/>
					<path fill="none" stroke="#6F0216" stroke-width="3" stroke-miterlimit="10" d="M1163.281-955.259
						c90.236-83.324,207.652-129.212,330.625-129.212c268.477,0,486.9,217.941,486.9,485.826"/>
					<path fill="none" stroke="#6F0216" stroke-width="3" stroke-miterlimit="10" d="M1823.97-598.645
						c0-181.597-148.066-329.337-330.065-329.337c-83.353,0-162.94,31.102-224.098,87.578"/>
				</g>
				<g>
					<path fill="none" stroke="#6F0216" stroke-width="3" stroke-miterlimit="10" d="M530.744-0.001
						c0-225.101,182.884-407.582,408.484-407.582c107.078,0,204.517,41.13,277.36,108.395"/>
					<path fill="none" stroke="#6F0216" stroke-width="3" stroke-miterlimit="10" d="M1323.115-414.042
						c-104.777-96.748-241.109-150.03-383.888-150.03c-311.718,0-565.318,253.041-565.318,564.071"/>
					<path fill="none" stroke="#6F0216" stroke-width="3" stroke-miterlimit="10" d="M687.579-0.001
						c0-138.452,112.889-251.092,251.647-251.092c63.544,0,124.214,23.709,170.834,66.757"/>
					<path fill="none" stroke="#6F0216" stroke-width="3" stroke-miterlimit="10" d="M1269.851-356.615
						c-90.236-83.324-207.652-129.213-330.625-129.213c-268.477,0-486.9,217.941-486.9,485.826"/>
					<path fill="none" stroke="#6F0216" stroke-width="3" stroke-miterlimit="10" d="M609.162-0.001
						c0-181.597,148.066-329.337,330.065-329.337c83.353,0,162.94,31.102,224.098,87.578"/>
					<path fill="none" stroke="#6F0216" stroke-width="3" stroke-miterlimit="10" d="M1902.388-598.356
						c0,225.101-182.884,407.582-408.484,407.582c-107.078,0-204.517-41.13-277.36-108.395"/>
					<path fill="none" stroke="#6F0216" stroke-width="3" stroke-miterlimit="10" d="M1110.017-184.315
						c104.777,96.748,241.109,150.03,383.888,150.03c311.718,0,565.318-253.041,565.318-564.071"/>
					<path fill="none" stroke="#6F0216" stroke-width="3" stroke-miterlimit="10" d="M1745.552-598.356
						c0,138.452-112.889,251.092-251.647,251.092c-63.544,0-124.214-23.709-170.834-66.757"/>
					<path fill="none" stroke="#6F0216" stroke-width="3" stroke-miterlimit="10" d="M1163.281-241.742
						c90.236,83.324,207.652,129.212,330.625,129.212c268.477,0,486.9-217.941,486.9-485.826"/>
					<path fill="none" stroke="#6F0216" stroke-width="3" stroke-miterlimit="10" d="M1823.97-598.356
						c0,181.597-148.066,329.337-330.065,329.337c-83.353,0-162.94-31.102-224.098-87.578"/>
				</g>
				<g>
					<g>
						<path fill="none" stroke="#6F0216" stroke-width="3" stroke-miterlimit="10" d="M793.388-598.645
							c0-225.101-182.884-407.582-408.484-407.582c-107.078,0-204.517,41.13-277.36,108.395"/>
						<path fill="none" stroke="#6F0216" stroke-width="3" stroke-miterlimit="10" d="M1.018-1012.687
							c104.777-96.748,241.109-150.03,383.888-150.03c311.718,0,565.318,253.041,565.318,564.071"/>
						<path fill="none" stroke="#6F0216" stroke-width="3" stroke-miterlimit="10" d="M636.553-598.645
							c0-138.452-112.889-251.092-251.647-251.092c-63.544,0-124.214,23.709-170.834,66.758"/>
						<path fill="none" stroke="#6F0216" stroke-width="3" stroke-miterlimit="10" d="M54.281-955.259
							c90.236-83.324,207.652-129.212,330.625-129.212c268.477,0,486.9,217.941,486.9,485.826"/>
						<path fill="none" stroke="#6F0216" stroke-width="3" stroke-miterlimit="10" d="M714.97-598.645
							c0-181.597-148.066-329.337-330.065-329.337c-83.353,0-162.94,31.102-224.098,87.578"/>
					</g>
					<g>
						<path fill="none" stroke="#6F0216" stroke-width="3" stroke-miterlimit="10" d="M793.388-598.356
							c0,225.101-182.884,407.582-408.484,407.582c-107.078,0-204.517-41.13-277.36-108.395"/>
						<path fill="none" stroke="#6F0216" stroke-width="3" stroke-miterlimit="10" d="M1.018-184.315
							c104.777,96.748,241.109,150.03,383.888,150.03c311.718,0,565.318-253.041,565.318-564.071"/>
						<path fill="none" stroke="#6F0216" stroke-width="3" stroke-miterlimit="10" d="M636.553-598.356
							c0,138.452-112.889,251.092-251.647,251.092c-63.544,0-124.214-23.709-170.834-66.757"/>
						<path fill="none" stroke="#6F0216" stroke-width="3" stroke-miterlimit="10" d="M54.281-241.742
							c90.236,83.324,207.652,129.212,330.625,129.212c268.477,0,486.9-217.941,486.9-485.826"/>
						<path fill="none" stroke="#6F0216" stroke-width="3" stroke-miterlimit="10" d="M714.97-598.356
							c0,181.597-148.066,329.337-330.065,329.337c-83.353,0-162.94-31.102-224.098-87.578"/>
					</g>
				</g>
				<g>
					<path fill="none" stroke="#6F0216" stroke-width="3" stroke-miterlimit="10" d="M1639.744-1197.001
						c0,225.101,182.884,407.582,408.484,407.582"/>
					<path fill="none" stroke="#6F0216" stroke-width="3" stroke-miterlimit="10" d="M2048.226-632.93
						c-311.717,0-565.317-253.041-565.317-564.071"/>
					<path fill="none" stroke="#6F0216" stroke-width="3" stroke-miterlimit="10" d="M1796.579-1197.001
						c0,138.452,112.889,251.092,251.647,251.092"/>
					<path fill="none" stroke="#6F0216" stroke-width="3" stroke-miterlimit="10" d="M2048.226-711.174
						c-268.477,0-486.9-217.942-486.9-485.826"/>
					<path fill="none" stroke="#6F0216" stroke-width="3" stroke-miterlimit="10" d="M1718.162-1197.001
						c0,181.597,148.066,329.337,330.064,329.337"/>
				</g>
				<g>
					<path fill="none" stroke="#6F0216" stroke-width="3" stroke-miterlimit="10" d="M1639.744-0.001
						c0-225.101,182.884-407.582,408.484-407.582"/>
					<path fill="none" stroke="#6F0216" stroke-width="3" stroke-miterlimit="10" d="M2048.226-564.072
						c-311.717,0-565.317,253.041-565.317,564.071"/>
					<path fill="none" stroke="#6F0216" stroke-width="3" stroke-miterlimit="10" d="M1796.579-0.001
						c0-138.452,112.889-251.092,251.647-251.092"/>
					<path fill="none" stroke="#6F0216" stroke-width="3" stroke-miterlimit="10" d="M2048.226-485.827
						c-268.477,0-486.9,217.941-486.9,485.826"/>
					<path fill="none" stroke="#6F0216" stroke-width="3" stroke-miterlimit="10" d="M1718.162-0.001
						c0-181.597,148.066-329.337,330.064-329.337"/>
				</g>
			</g>
		</g>
	</g>
</pattern>
<g id="Layer_2" display="none">
	<rect x="-400" y="0" display="inline" fill="url(#SWIRL__x2013__RED_Large)" width="2880" height="1900"/>
</g>
<g id="Layer_2_copy">
	<g>
		<g opacity="0.7">
			<g>
				<defs>
					<rect id="SVGID_623_" x="-400" y="0" width="251" height="273"/>
				</defs>
				<clipPath id="SVGID_4_">
					<use xlink:href="#SVGID_623_"  overflow="visible"/>
				</clipPath>
				<g clip-path="url(#SVGID_4_)">
					<defs>
						<rect id="SVGID_625_" x="-304.59" y="0" width="251" height="273"/>
					</defs>
					<clipPath id="SVGID_6_">
						<use xlink:href="#SVGID_625_"  overflow="visible"/>
					</clipPath>
					<g clip-path="url(#SVGID_6_)">
						<path fill="none" stroke="#670420" stroke-width="2.5" stroke-miterlimit="10" d="M71.915,273.419
							c-16.564-15.297-38.719-24.651-63.067-24.651c-51.298,0-92.883,41.499-92.883,92.692c0,51.192,41.585,92.691,92.883,92.691
							c24.348,0,46.504-9.354,63.067-24.651"/>
						<path fill="none" stroke="#670420" stroke-width="2.5" stroke-miterlimit="10" d="M96.137,435.621
							c-23.825,22.002-54.824,34.12-87.29,34.12c-70.879,0-128.544-57.546-128.544-128.28S-62.032,213.18,8.847,213.18
							c32.467,0,63.467,12.118,87.29,34.121"/>
						<path fill="none" stroke="#670420" stroke-width="2.5" stroke-miterlimit="10" d="M84.026,422.561
							c-20.518,18.949-47.217,29.385-75.179,29.385c-61.047,0-110.713-49.564-110.713-110.486S-52.2,230.974,8.847,230.974
							c27.962,0,54.661,10.436,75.179,29.386"/>
						<path fill="none" stroke="#670420" stroke-width="2.5" stroke-miterlimit="10" d="M59.803,286.479
							C45.897,273.636,27.8,266.563,8.847,266.563c-41.383,0-75.051,33.599-75.051,74.897s33.668,74.897,75.051,74.897
							c18.953,0,37.05-7.073,50.956-19.917"/>
					</g>
					<g clip-path="url(#SVGID_6_)">
						<path fill="none" stroke="#670420" stroke-width="2.5" stroke-miterlimit="10" d="M71.915,0.419
							C55.351-14.878,33.195-24.232,8.847-24.232c-51.298,0-92.883,41.499-92.883,92.692c0,51.192,41.585,92.691,92.883,92.691
							c24.348,0,46.504-9.354,63.067-24.651"/>
						<path fill="none" stroke="#670420" stroke-width="2.5" stroke-miterlimit="10" d="M96.137,162.621
							c-23.825,22.002-54.824,34.119-87.29,34.119c-70.879,0-128.544-57.546-128.544-128.28S-62.032-59.82,8.847-59.82
							c32.467,0,63.467,12.118,87.29,34.121"/>
						<path fill="none" stroke="#670420" stroke-width="2.5" stroke-miterlimit="10" d="M84.026,149.561
							c-20.518,18.949-47.217,29.385-75.179,29.385c-61.047,0-110.713-49.564-110.713-110.486S-52.2-42.026,8.847-42.026
							c27.962,0,54.661,10.436,75.179,29.386"/>
						<path fill="none" stroke="#670420" stroke-width="2.5" stroke-miterlimit="10" d="M59.803,13.479
							C45.897,0.636,27.8-6.437,8.847-6.437c-41.383,0-75.051,33.599-75.051,74.897s33.668,74.897,75.051,74.897
							c18.953,0,37.05-7.073,50.956-19.917"/>
					</g>
					<g clip-path="url(#SVGID_6_)">
						<path fill="none" stroke="#670420" stroke-width="2.5" stroke-miterlimit="10" d="M-203.318,110.376
							c23.825-22.002,54.824-34.119,87.29-34.119c70.879,0,128.544,57.546,128.544,128.28s-57.665,128.28-128.544,128.28
							c-32.467,0-63.467-12.118-87.29-34.121"/>
					</g>
					<g clip-path="url(#SVGID_6_)">
						<path fill="none" stroke="#670420" stroke-width="2.5" stroke-miterlimit="10" d="M-203.318-162.624
							c23.825-22.002,54.824-34.12,87.29-34.12c70.879,0,128.544,57.546,128.544,128.28s-57.665,128.28-128.544,128.28
							c-32.467,0-63.467-12.118-87.29-34.121"/>
					</g>
				</g>
				<g clip-path="url(#SVGID_4_)">
					<defs>
						<rect id="SVGID_627_" x="-304.59" y="273" width="251" height="273"/>
					</defs>
					<clipPath id="SVGID_8_">
						<use xlink:href="#SVGID_627_"  overflow="visible"/>
					</clipPath>
					<g clip-path="url(#SVGID_8_)">
						<path fill="none" stroke="#670420" stroke-width="2.5" stroke-miterlimit="10" d="M71.915,546.419
							c-16.564-15.297-38.719-24.651-63.067-24.651c-51.298,0-92.883,41.5-92.883,92.692c0,51.192,41.585,92.691,92.883,92.691
							c24.348,0,46.504-9.354,63.067-24.651"/>
						<path fill="none" stroke="#670420" stroke-width="2.5" stroke-miterlimit="10" d="M96.137,708.621
							c-23.825,22.002-54.824,34.12-87.29,34.12c-70.879,0-128.544-57.546-128.544-128.28S-62.032,486.18,8.847,486.18
							c32.467,0,63.467,12.118,87.29,34.121"/>
						<path fill="none" stroke="#670420" stroke-width="2.5" stroke-miterlimit="10" d="M84.026,695.561
							c-20.518,18.949-47.217,29.385-75.179,29.385c-61.047,0-110.713-49.564-110.713-110.486
							c0-60.922,49.666-110.486,110.713-110.486c27.962,0,54.661,10.436,75.179,29.386"/>
						<path fill="none" stroke="#670420" stroke-width="2.5" stroke-miterlimit="10" d="M59.803,559.479
							C45.897,546.636,27.8,539.563,8.847,539.563c-41.383,0-75.051,33.599-75.051,74.897c0,41.299,33.668,74.897,75.051,74.897
							c18.953,0,37.05-7.073,50.956-19.917"/>
					</g>
					<g clip-path="url(#SVGID_8_)">
						<path fill="none" stroke="#670420" stroke-width="2.5" stroke-miterlimit="10" d="M71.915,273.419
							c-16.564-15.297-38.719-24.651-63.067-24.651c-51.298,0-92.883,41.499-92.883,92.692c0,51.192,41.585,92.691,92.883,92.691
							c24.348,0,46.504-9.354,63.067-24.651"/>
						<path fill="none" stroke="#670420" stroke-width="2.5" stroke-miterlimit="10" d="M96.137,435.621
							c-23.825,22.002-54.824,34.12-87.29,34.12c-70.879,0-128.544-57.546-128.544-128.28S-62.032,213.18,8.847,213.18
							c32.467,0,63.467,12.118,87.29,34.121"/>
						<path fill="none" stroke="#670420" stroke-width="2.5" stroke-miterlimit="10" d="M84.026,422.561
							c-20.518,18.949-47.217,29.385-75.179,29.385c-61.047,0-110.713-49.564-110.713-110.486S-52.2,230.974,8.847,230.974
							c27.962,0,54.661,10.436,75.179,29.386"/>
						<path fill="none" stroke="#670420" stroke-width="2.5" stroke-miterlimit="10" d="M59.803,286.479
							C45.897,273.636,27.8,266.563,8.847,266.563c-41.383,0-75.051,33.599-75.051,74.897s33.668,74.897,75.051,74.897
							c18.953,0,37.05-7.073,50.956-19.917"/>
					</g>
					<g clip-path="url(#SVGID_8_)">
						<path fill="none" stroke="#670420" stroke-width="2.5" stroke-miterlimit="10" d="M-203.318,383.376
							c23.825-22.002,54.824-34.12,87.29-34.12c70.879,0,128.544,57.546,128.544,128.28s-57.665,128.28-128.544,128.28
							c-32.467,0-63.467-12.118-87.29-34.121"/>
					</g>
					<g clip-path="url(#SVGID_8_)">
						<path fill="none" stroke="#670420" stroke-width="2.5" stroke-miterlimit="10" d="M-203.318,110.376
							c23.825-22.002,54.824-34.119,87.29-34.119c70.879,0,128.544,57.546,128.544,128.28s-57.665,128.28-128.544,128.28
							c-32.467,0-63.467-12.118-87.29-34.121"/>
					</g>
				</g>
			</g>
		</g>
	</g>
	<g>
		<rect y="0" fill="#800000" width="1109" height="1197"/>
		<g>
			<defs>
				<rect id="SVGID_633_" y="0" width="1109" height="1197"/>
			</defs>
			<clipPath id="SVGID_10_">
				<use xlink:href="#SVGID_633_"  overflow="visible"/>
			</clipPath>
			<g clip-path="url(#SVGID_10_)">
				<g>
					<path fill="none" stroke="#6F0216" stroke-width="3" stroke-miterlimit="10" d="M156.835,0
						c0,225.101,182.884,407.582,408.484,407.582c107.078,0,204.517-41.13,277.36-108.395"/>
					<path fill="none" stroke="#6F0216" stroke-width="3" stroke-miterlimit="10" d="M949.206,414.041
						c-104.777,96.748-241.109,150.03-383.888,150.03C253.6,564.071,0,311.03,0,0"/>
					<path fill="none" stroke="#6F0216" stroke-width="3" stroke-miterlimit="10" d="M313.671,0
						c0,138.452,112.889,251.092,251.647,251.092c63.544,0,124.214-23.709,170.834-66.757"/>
					<path fill="none" stroke="#6F0216" stroke-width="3" stroke-miterlimit="10" d="M895.942,356.613
						c-90.236,83.324-207.652,129.212-330.625,129.212c-268.477,0-486.9-217.941-486.9-485.826"/>
					<path fill="none" stroke="#6F0216" stroke-width="3" stroke-miterlimit="10" d="M235.253,0
						c0,181.597,148.066,329.337,330.065,329.337c83.353,0,162.94-31.102,224.098-87.578"/>
					<path fill="none" stroke="#6F0216" stroke-width="3" stroke-miterlimit="10" d="M1528.479,598.355
						c0-225.101-182.884-407.582-408.484-407.582c-107.078,0-204.517,41.13-277.36,108.395"/>
					<path fill="none" stroke="#6F0216" stroke-width="3" stroke-miterlimit="10" d="M736.108,184.313
						c104.777-96.748,241.109-150.03,383.888-150.03c311.718,0,565.318,253.041,565.318,564.071"/>
					<path fill="none" stroke="#6F0216" stroke-width="3" stroke-miterlimit="10" d="M1371.643,598.355
						c0-138.452-112.889-251.092-251.647-251.092c-63.544,0-124.214,23.709-170.834,66.757"/>
					<path fill="none" stroke="#6F0216" stroke-width="3" stroke-miterlimit="10" d="M789.372,241.741
						c90.236-83.324,207.652-129.213,330.625-129.213c268.477,0,486.9,217.941,486.9,485.826"/>
					<path fill="none" stroke="#6F0216" stroke-width="3" stroke-miterlimit="10" d="M1450.061,598.355
						c0-181.597-148.066-329.337-330.065-329.337c-83.353,0-162.94,31.102-224.098,87.578"/>
				</g>
				<g>
					<path fill="none" stroke="#6F0216" stroke-width="3" stroke-miterlimit="10" d="M156.835,1197
						c0-225.101,182.884-407.582,408.484-407.582c107.078,0,204.517,41.13,277.36,108.395"/>
					<path fill="none" stroke="#6F0216" stroke-width="3" stroke-miterlimit="10" d="M949.206,782.958
						c-104.777-96.748-241.109-150.03-383.888-150.03C253.6,632.928,0,885.969,0,1197"/>
					<path fill="none" stroke="#6F0216" stroke-width="3" stroke-miterlimit="10" d="M313.671,1197
						c0-138.452,112.889-251.092,251.647-251.092c63.544,0,124.214,23.709,170.834,66.757"/>
					<path fill="none" stroke="#6F0216" stroke-width="3" stroke-miterlimit="10" d="M895.942,840.386
						c-90.236-83.324-207.652-129.213-330.625-129.213c-268.477,0-486.9,217.941-486.9,485.826"/>
					<path fill="none" stroke="#6F0216" stroke-width="3" stroke-miterlimit="10" d="M235.253,1197
						c0-181.597,148.066-329.337,330.065-329.337c83.353,0,162.94,31.102,224.098,87.578"/>
					<path fill="none" stroke="#6F0216" stroke-width="3" stroke-miterlimit="10" d="M1528.479,598.644
						c0,225.101-182.884,407.582-408.484,407.582c-107.078,0-204.517-41.13-277.36-108.395"/>
					<path fill="none" stroke="#6F0216" stroke-width="3" stroke-miterlimit="10" d="M736.108,1012.686
						c104.777,96.748,241.109,150.03,383.888,150.03c311.718,0,565.318-253.041,565.318-564.071"/>
					<path fill="none" stroke="#6F0216" stroke-width="3" stroke-miterlimit="10" d="M1371.643,598.644
						c0,138.452-112.889,251.092-251.647,251.092c-63.544,0-124.214-23.709-170.834-66.757"/>
					<path fill="none" stroke="#6F0216" stroke-width="3" stroke-miterlimit="10" d="M789.372,955.258
						c90.236,83.324,207.652,129.212,330.625,129.212c268.477,0,486.9-217.941,486.9-485.826"/>
					<path fill="none" stroke="#6F0216" stroke-width="3" stroke-miterlimit="10" d="M1450.061,598.644
						c0,181.597-148.066,329.337-330.065,329.337c-83.353,0-162.94-31.102-224.098-87.578"/>
				</g>
				<g>
					<g>
						<path fill="none" stroke="#6F0216" stroke-width="3" stroke-miterlimit="10" d="M419.479,598.355
							c0-225.101-182.884-407.582-408.484-407.582c-107.078,0-204.517,41.13-277.36,108.395"/>
						<path fill="none" stroke="#6F0216" stroke-width="3" stroke-miterlimit="10" d="M-372.891,184.313
							c104.777-96.748,241.109-150.03,383.888-150.03c311.718,0,565.318,253.041,565.318,564.071"/>
						<path fill="none" stroke="#6F0216" stroke-width="3" stroke-miterlimit="10" d="M262.644,598.355
							c0-138.452-112.889-251.092-251.647-251.092c-63.544,0-124.214,23.709-170.834,66.757"/>
						<path fill="none" stroke="#6F0216" stroke-width="3" stroke-miterlimit="10" d="M-319.628,241.741
							c90.236-83.324,207.652-129.213,330.625-129.213c268.477,0,486.9,217.941,486.9,485.826"/>
						<path fill="none" stroke="#6F0216" stroke-width="3" stroke-miterlimit="10" d="M341.062,598.355
							c0-181.597-148.066-329.337-330.065-329.337c-83.353,0-162.94,31.102-224.098,87.578"/>
					</g>
					<g>
						<path fill="none" stroke="#6F0216" stroke-width="3" stroke-miterlimit="10" d="M419.479,598.644
							c0,225.101-182.884,407.582-408.484,407.582c-107.078,0-204.517-41.13-277.36-108.395"/>
						<path fill="none" stroke="#6F0216" stroke-width="3" stroke-miterlimit="10" d="M-372.891,1012.686
							c104.777,96.748,241.109,150.03,383.888,150.03c311.718,0,565.318-253.041,565.318-564.071"/>
						<path fill="none" stroke="#6F0216" stroke-width="3" stroke-miterlimit="10" d="M262.644,598.644
							c0,138.452-112.889,251.092-251.647,251.092c-63.544,0-124.214-23.709-170.834-66.757"/>
						<path fill="none" stroke="#6F0216" stroke-width="3" stroke-miterlimit="10" d="M-319.628,955.258
							c90.236,83.324,207.652,129.212,330.625,129.212c268.477,0,486.9-217.941,486.9-485.826"/>
						<path fill="none" stroke="#6F0216" stroke-width="3" stroke-miterlimit="10" d="M341.062,598.644
							c0,181.597-148.066,329.337-330.065,329.337c-83.353,0-162.94-31.102-224.098-87.578"/>
					</g>
				</g>
				<g>
					<path fill="none" stroke="#6F0216" stroke-width="3" stroke-miterlimit="10" d="M1674.318,564.071
						C1362.6,564.071,1109,311.03,1109,0"/>
				</g>
				<g>
					<path fill="none" stroke="#6F0216" stroke-width="3" stroke-miterlimit="10" d="M1674.318,632.928
						C1362.6,632.928,1109,885.969,1109,1197"/>
				</g>
			</g>
		</g>
	</g>
</g>
</svg>
