<?xml version="1.0" encoding="UTF-8"?>
<svg width="21px" height="17px" viewBox="0 0 21 17" version="1.1" xmlns="http://www.w3.org/2000/svg" xmlns:xlink="http://www.w3.org/1999/xlink">
    <!-- Generator: Sketch 40.1 (33804) - http://www.bohemiancoding.com/sketch -->
    <title>twitter copy</title>
    <desc>Created with Sketch.</desc>
    <defs></defs>
    <g id="Layout" stroke="none" stroke-width="1" fill="none" fill-rule="evenodd">
        <g id="Content-Detail,-Spare" transform="translate(-818.000000, -2272.000000)" fill="#FFFFFF">
            <g id="Footer" transform="translate(0.000000, 2118.000000)">
                <g id="Group-11" transform="translate(778.000000, 119.000000)">
                    <g id="Group-9" transform="translate(0.000000, 33.000000)">
                        <path d="M60.55,3.97598805 C59.9880831,4.82956539 59.2890423,5.56215227 58.4528564,6.17377068 L58.4528564,6.72825712 C58.4528564,7.66920852 58.3341198,8.61518654 58.0966431,9.56621955 C57.8591663,10.5172526 57.5180076,11.4413874 57.0731567,12.3386518 C56.6283059,13.2359161 56.0580357,14.0743585 55.3623291,14.8540039 C54.6666225,15.6336493 53.887309,16.3141486 53.0243652,16.8955222 C52.1614215,17.4768957 51.1663753,17.9356026 50.0391968,18.2716567 C48.9120183,18.6077108 47.7229799,18.7757353 46.4720459,18.7757353 C43.9367305,18.7757353 41.7794034,18.2010915 40,17.0517865 C40.3077164,17.0988341 40.6421857,17.1223575 41.003418,17.1223575 C41.9399461,17.1223575 42.856392,16.9408911 43.7527832,16.5779527 C44.6491744,16.2150143 45.4753136,15.7277432 46.2312256,15.1161248 C45.3281449,15.1094037 44.5137121,14.8288027 43.7879028,14.2743135 C43.0620935,13.7198243 42.5687513,13.0191621 42.3078613,12.1723058 C42.5888198,12.2260745 42.8497058,12.2529584 43.0905273,12.2529584 C43.4785176,12.2529584 43.8531232,12.2025511 44.2143555,12.1017348 C43.2443799,11.9068235 42.4383089,11.4212326 41.7961182,10.6449477 C41.1539275,9.86866282 40.8328369,8.96973167 40.8328369,7.9481273 L40.8328369,7.89771944 C41.4348907,8.22705243 42.0703824,8.40179792 42.7393311,8.42196117 C42.1573457,8.03213845 41.6974504,7.5280649 41.3596313,6.90972541 C41.0218123,6.29138592 40.8529053,5.62600885 40.8529053,4.91357422 C40.8529053,4.22130283 41.0435528,3.53576282 41.4248535,2.85693359 C42.4817924,4.14738122 43.7594652,5.17065052 45.2579102,5.92677217 C46.7563551,6.68289383 48.3718419,7.10799585 50.1044189,7.20209099 C50.0442136,6.93996882 50.0141113,6.61400126 50.0141113,6.22417854 C50.0141113,5.05471038 50.4238362,4.058325 51.2432983,3.23499253 C52.0627604,2.41166006 53.054462,2 54.2184326,2 C55.4158507,2 56.4493609,2.44358472 57.3189941,3.33076746 C58.2755907,3.1358561 59.1619344,2.79308609 59.9780518,2.30244715 C59.6569564,3.32405152 59.0381882,4.10704576 58.1217285,4.65145335 C58.9579143,4.55735822 59.7673301,4.33220537 60.55,3.97598805 L60.55,3.97598805 Z" id="twitter-copy"></path>
                    </g>
                </g>
            </g>
        </g>
    </g>
</svg>