<?xml version="1.0" encoding="UTF-8"?>
<svg width="21px" height="15px" viewBox="0 0 21 15" version="1.1" xmlns="http://www.w3.org/2000/svg" xmlns:xlink="http://www.w3.org/1999/xlink">
    <!-- Generator: Sketch 40.1 (33804) - http://www.bohemiancoding.com/sketch -->
    <title>youtube</title>
    <desc>Created with Sketch.</desc>
    <defs></defs>
    <g id="Layout" stroke="none" stroke-width="1" fill="none" fill-rule="evenodd">
        <g id="Content-Detail,-Spare" transform="translate(-903.000000, -2273.000000)" fill="#FFFFFF">
            <g id="Footer" transform="translate(0.000000, 2118.000000)">
                <g id="Group-11" transform="translate(778.000000, 119.000000)">
                    <g id="Group-9" transform="translate(0.000000, 33.000000)">
                        <path d="M135.275,3 C138.378922,3 140.419185,3.04368637 141.39585,3.13106043 C142.807331,3.2520399 143.79736,3.53768157 144.365967,3.98799403 C144.894436,4.40470107 145.235595,5.09360158 145.389453,6.05471622 C145.496485,6.74026653 145.55,8.05757872 145.55,10.0066923 L145.55,10.3091395 C145.55,12.332185 145.506519,13.6797416 145.419556,14.3518497 C145.279076,15.3734541 144.961331,16.1026805 144.466309,16.5395508 C143.937839,17.0167476 143.008014,17.3225522 141.676807,17.4569738 C140.686763,17.5645111 138.693326,17.618279 135.696436,17.618279 L135.686401,17.618279 L135.676367,17.618279 L135.666333,17.618279 L135.656299,17.618279 L135.646265,17.618279 L135.63623,17.618279 L135.626196,17.618279 L135.616162,17.618279 L135.606128,17.618279 L135.596094,17.618279 L135.58606,17.618279 L135.576025,17.618279 L135.565991,17.618279 L135.555957,17.618279 L135.545923,17.618279 L135.535889,17.618279 L135.525854,17.618279 L135.51582,17.618279 L135.505786,17.618279 L135.495752,17.618279 L135.485718,17.618279 L135.475684,17.618279 L135.465649,17.618279 L135.455615,17.618279 L135.445581,17.618279 L135.435547,17.618279 L135.425513,17.618279 L135.415479,17.618279 L135.405444,17.618279 L135.39541,17.618279 L135.385376,17.618279 L135.375342,17.618279 L135.365308,17.618279 L135.275,17.618279 C132.171078,17.618279 130.130815,17.5745926 129.15415,17.4872185 C127.742669,17.3662391 126.75264,17.0805974 126.184033,16.6302849 C125.655564,16.2135779 125.314405,15.5246774 125.160547,14.5635627 C125.053515,13.8780124 125,12.5607002 125,10.6115866 L125,10.3091395 C125,8.28609397 125.043481,6.93853737 125.130444,6.26642923 C125.270924,5.24482486 125.588669,4.51559846 126.083691,4.07872817 C126.612161,3.60153139 127.541986,3.29572678 128.873193,3.16130515 C129.863237,3.05376784 131.856674,3 134.853564,3 L134.863599,3 L134.873633,3 L134.883667,3 L134.893701,3 L134.903735,3 L134.91377,3 L134.923804,3 L134.933838,3 L134.943872,3 L134.953906,3 L134.96394,3 L134.973975,3 L134.984009,3 L134.994043,3 L135.004077,3 L135.014111,3 L135.024146,3 L135.03418,3 L135.044214,3 L135.054248,3 L135.064282,3 L135.074316,3 L135.084351,3 L135.094385,3 L135.104419,3 L135.114453,3 L135.124487,3 L135.134521,3 L135.144556,3 L135.15459,3 L135.164624,3 L135.174658,3 L135.184692,3 L135.275,3 Z M132.70625,14.180463 L139.128125,10.3091395 L132.70625,6.43781595 L132.70625,14.180463 Z" id="youtube"></path>
                    </g>
                </g>
            </g>
        </g>
    </g>
</svg>