<?xml version="1.0" encoding="utf-8"?>
<!-- Generator: Adobe Illustrator 18.1.1, SVG Export Plug-In . SVG Version: 6.00 Build 0)  -->
<svg version="1.1" id="Layer_1" xmlns="http://www.w3.org/2000/svg" xmlns:xlink="http://www.w3.org/1999/xlink" x="0px" y="0px"
	 viewBox="0 0 110.7 110.7" enable-background="new 0 0 110.7 110.7" xml:space="preserve">
<g>
	<g>
		<path fill="#FFFFFF" d="M73.3,85c0-8-5.2-11.9-15.8-11.9c-1.6,0-3.1,0.1-4.7,0.1c-1.7,0.1-3.4,0.1-5.3,0.1c-2.2,0-4.4-0.1-6.3-0.2
			c-1.4-0.1-2.6-0.1-3.4-0.1h-0.9v3.7h2.1c1.7,0,3.5,0,3.5,3.8v28.5c3.2,0.8,6.5,1.3,9.9,1.5V98.3h2.6c2.7,4.7,5,8.5,7.2,11.9
			c3.7-0.4,7.2-1.3,10.6-2.4l-7.6-11.4C70.5,94,73.3,90.1,73.3,85z M54.4,94.2h-2.1V77.4c0.6-0.1,1.4-0.2,2.6-0.2
			c5,0,8.2,3.1,8.2,8.2C63.1,91.7,60.6,94.2,54.4,94.2z M76.7,61l-0.2-0.7h-3.1v0.9c0,1.8-0.1,3.4-0.4,5.2c-0.1,1.3-0.3,2.6-0.5,3.8
			c-0.1,0.5-0.1,1-0.2,1.5l-0.2,1.1h3.7l0.2-0.9c0.9-4.4,1-4.8,4.9-4.8h9.3v31.3c3.7-3,7.1-6.5,9.9-10.4V67.1h9.3l0.1,0
			c0.4-1.6,0.6-3.3,0.8-5H79.2C77.5,62.1,76.9,61.9,76.7,61z M110.3,48.7c-2.9-0.2-3.4-0.6-3.6-2.6L105.6,32
			c-3.1-6.7-7.6-12.8-13-17.7l-10.9,24L67.6,7H67c-1,0-1.9,0.1-2.9,0.1c-2.2,0.1-4.4,0.1-6.5,0C56.4,7.1,55.1,7,53.8,7h-0.9v3.7h1.8
			c1.7,0,4.5,0.5,4.5,3.7c0,2.6-0.3,6.8-0.7,10.9l-1.9,17.4l0,0.2c-0.5,4.3-0.7,5.6-4.7,5.8h-1.8v3.8l1.3-0.1c2.3-0.1,4.7-0.2,7-0.2
			c2.6,0,5.4,0.1,8,0.2l1.4,0.1v-3.8l-1.6,0c-1.5-0.1-2.8-0.1-3.5-0.5c-0.4-0.3-0.9-0.9-0.9-2.7l1.8-23.9l14,31.8h2.7l14.7-32.5
			l1.5,22.8c0.1,1.6,0.1,2.3,0.1,3c0,1.6-0.7,1.8-4.1,2l-1.3,0.1v3.7l1.7-0.1c3.1-0.1,6.4-0.2,9.6-0.2c2.6,0,5.3,0.1,8.2,0.2l0.1,0
			C110.6,51.2,110.4,49.9,110.3,48.7z M32.7,79.8c-0.7-1.5-1.3-3.4-1.9-5.2L18.9,40.8c-0.1-0.2-0.2-0.5-0.3-0.8
			c-0.1-0.3-0.2-0.5-0.3-0.8l-0.1-0.2c-0.4-0.6-1-0.6-1.2-0.6c-0.3,0-0.5,0.1-0.8,0.2L16,38.7c-1.2,0.7-3.6,1.9-5.5,2.6L10,41.5
			l-0.1,0.6c-0.3,2.1-1.3,4.9-2.1,7.2L1.4,67.6C2,70.5,2.9,73.2,4,75.9l1.8-5.8h12.8l2.2,6.6c0.5,1.5,1.2,3.5,1.2,4.2
			c0,0.5-1.2,0.9-2.9,0.9h-1.6v3.8l1.8-0.1c2.9-0.1,5.7-0.2,8.5-0.2c2.8,0,5.4,0.1,8,0.2l1.5,0.1v-3.8h-1.3
			C34.2,81.8,33.3,81.2,32.7,79.8z M7.5,64.7l4.6-13.9l4.5,13.9H7.5z M35.7,39.5c-6.7,0-8.4-6.4-8.8-9.1l-0.1-1l-3.5,0.8l0.1,0.8
			c0.2,1.6,0.3,3.2,0.5,4.8c0.2,1.6,0.4,3.1,0.5,4.7l0,0.5l0.5,0.2c3.8,2,7.2,2.9,10.4,2.9c9.5,0,16.1-5.8,16.1-14.1
			c0-8.8-5.9-11.8-11.2-14.4c-4.1-2-7.6-3.8-7.6-7.9c0-0.9,0.1-1.6,0.3-2.4l0.2-0.7c-3.1,1.4-6.1,3-8.9,4.9c0,0.3-0.1,0.7-0.1,1
			c0,8.7,5.7,11.7,10.8,14.3c4.1,2.1,7.6,3.9,7.6,8.4C42.5,36.9,39.7,39.5,35.7,39.5z M45.8,7.9l0.1,1l3.6-0.6l-0.1-0.9
			c-0.3-2.5-0.5-4.8-0.6-6.9l0-0.1c-2.2,0.3-4.5,0.7-6.6,1.2l0.6,0.5C44.4,3.3,45.5,5.5,45.8,7.9z"/>
		<path fill="#EE3525" d="M110.4,49.6c-0.7-7.1-2.8-13.9-6-19.9l1.4,16.5C106,49,107.3,49.5,110.4,49.6z M99.1,66.1v23.1
			c5.2-6.7,8.8-14.5,10.5-23.1c-0.1,0-0.2,0-0.3,0H99.1z M110.6,51.5c-2.7-0.1-5.5-0.2-8.2-0.2c-3.4,0-6.9,0.1-10.3,0.3v-1.9
			c3.2-0.2,5.4-0.2,5.4-2.9c0-0.7,0-1.4-0.1-3.1l-1.7-26.3c0,0,0,0,0,0h-0.1L79.5,52.5H78L62.9,18h-0.1l-2.1,27.4c0,2,0.5,3,1.3,3.6
			c0.9,0.6,2.2,0.6,4,0.7h0.7v1.9c-2.8-0.1-5.7-0.3-8.5-0.3c-2.4,0-4.9,0.1-7.3,0.3v-1.9h0.9c4.9-0.2,5.1-2.3,5.7-6.8l1.9-17.4
			c0.5-4.4,0.7-8.5,0.7-11c0-3.5-2.7-4.7-5.4-4.7h-0.8V8c2.6,0,5.1,0.3,7.6,0.3C63.3,8.2,65.2,8,67,8l14.6,32.7L93.3,15
			C83.4,5.7,70,0,55.4,0c-2.5,0-5,0.2-7.5,0.5c0.1,2.3,0.3,4.7,0.6,7l-1.8,0.3c-0.3-2.6-1.4-5.1-3.3-6.5c-4,0.9-7.8,2.2-11.4,3.9
			c-0.2,0.8-0.3,1.7-0.3,2.6c0,10.4,18.7,7.2,18.7,22.3c0,8.6-7.1,13.1-15.1,13.1c-3.5,0-6.9-1.3-9.9-2.8c-0.3-3.2-0.7-6.3-1-9.5
			l1.7-0.4c0.8,5.3,3.8,9.9,9.7,9.9c4.3,0,7.7-2.7,7.7-7.1c0-11.1-18.4-7.6-18.4-22.7c0-0.6,0-1.1,0.1-1.6C10,18.8,0,35.9,0,55.4
			c0,4.8,0.6,9.5,1.8,14L8.5,50c0.8-2.3,1.9-5.4,2.3-7.7c2-0.7,4.5-1.9,5.7-2.7c0.2-0.1,0.3-0.1,0.5-0.1c0.2,0,0.3,0,0.4,0.2
			c0.2,0.5,0.4,1.1,0.6,1.6l11.5,32.7c0.7,2.2,1.5,4.5,2.3,6.4c0.7,1.8,2.1,2.5,4.1,2.5h0.4v1.9c-2.8-0.1-5.6-0.3-8.6-0.3
			c-3.1,0-6.2,0.1-9.4,0.3v-1.9H19c1.4,0,3.9-0.2,3.9-1.8c0-0.8-0.6-2.5-1.2-4.5l-2.4-7.3H5l-1.6,5.3c6.4,17.5,21.5,30.8,40,34.9
			V80.6c0-4.6-2.5-4.7-4.4-4.7h-1.1V74c2,0,5.9,0.3,9.7,0.3c3.7,0,6.7-0.3,10.1-0.3c7.9,0,14.9,2.1,14.9,11c0,5.6-3.7,9.1-8.7,11
			l8.1,12.2c7.2-2.2,13.7-5.9,19.3-10.6V66.1H80.9c-4.7,0-4.9,1.1-5.8,5.7h-1.9c0.2-1.7,0.6-3.5,0.7-5.3c0.2-1.7,0.4-3.5,0.4-5.3
			h1.5c0.5,1.9,2.1,1.8,3.8,1.8h30.6c0.3-2.5,0.5-5.1,0.5-7.7C110.7,54.1,110.7,52.8,110.6,51.5z M12,48L6.2,65.6h11.7L12.2,48H12z
			 M64,85.4c0-5.6-3.6-9.1-9.1-9.1c-1.9,0-2.7,0.2-3.6,0.3v18.6h3.1C60.7,95.1,64,92.8,64,85.4z M51.3,97.4v13.2
			c1.3,0.1,2.7,0.1,4,0.1c2.7,0,5.3-0.2,7.8-0.6c-2.7-4.1-5.2-8.3-7.7-12.8H51.3z"/>
	</g>
</g>
</svg>
