<?xml version="1.0" encoding="utf-8"?>
<!-- Generator: Adobe Illustrator 18.1.1, SVG Export Plug-In . SVG Version: 6.00 Build 0)  -->
<svg version="1.1" id="Layer_1" xmlns="http://www.w3.org/2000/svg" xmlns:xlink="http://www.w3.org/1999/xlink" x="0px" y="0px"
	 viewBox="0 0 383.6 55.9" enable-background="new 0 0 383.6 55.9" xml:space="preserve">
<g>
	<path fill="#FFFFFF" d="M276.3,3.9L276.3,3.9L276.3,3.9c0-0.7,0-1.6,0-2.5V1.2l-0.2,0c-0.2,0.1-1.4,0.1-2.5,0.1h-3.4
		c-0.7,0-1.3,0-2.2-0.1l0,0l0,0c-0.2,0.1-0.2,0.3-0.2,0.4c0,0.2,0,0.3,0.1,0.4l0.4,0.1c0.9,0.1,1,0.2,1,2.2V11c0,2,0,2.1-1,2.2
		l-0.5,0.1l0,0c-0.1,0.1-0.1,0.3-0.1,0.4c0,0.1,0.1,0.2,0.2,0.3l0,0l0,0c0.9,0,1.5-0.1,2.3-0.1c0.8,0,1.4,0,2.5,0.1l0,0l0,0
		c0.1-0.1,0.2-0.2,0.2-0.4c0-0.2,0-0.3-0.1-0.4l-0.7-0.1c-1-0.1-1-0.2-1-2.2V8.4c0-0.4,0-0.4,0.5-0.4h1.3c0.7,0,1.1,0,1.4,0.1
		c0.3,0.1,0.4,0.3,0.5,0.6l0.2,0.8l0,0c0.2,0.2,0.6,0.1,0.7,0l0,0v0c0-0.2,0-0.4,0-0.7c0-0.3,0-0.7,0-1.1c0-0.4,0-0.8,0-1.1
		c0-0.3,0-0.6,0-0.8v0l0,0c-0.1-0.1-0.3-0.1-0.4-0.1c-0.2,0-0.3,0.1-0.4,0.1l-0.2,0.8c-0.1,0.5-0.2,0.5-0.4,0.5
		c-0.2,0.1-0.8,0.1-1.5,0.1h-1.3c-0.5,0-0.5,0-0.5-0.4V2.8c0-0.6,0-0.6,0.4-0.6h1.1c0.8,0,1.4,0,1.8,0.1c0.8,0.2,1,0.7,1.2,1.7
		l0,0.1l0,0c0.1,0.1,0.2,0.1,0.3,0.1C276,4.1,276.2,4.1,276.3,3.9L276.3,3.9z M263.7,7.6c0-3.2-2.1-6.5-6.6-6.5
		c-3.9,0-6.8,2.9-6.8,6.7c0,3.2,2.3,6.5,6.8,6.5C260.9,14.2,263.7,11.4,263.7,7.6L263.7,7.6z M261.6,8.1c0,3.8-2.3,5.2-4.2,5.2
		c-3.8,0-4.9-3.9-4.9-6.2c0-3.9,2.3-5.3,4.3-5.3C260.3,1.9,261.6,5.3,261.6,8.1L261.6,8.1z M246.3,39.9c0,8.1,6,15.2,15.9,15.2
		c8.6,0,15.5-6.6,15.5-15.6c0-7.9-5.2-15.4-15.5-15.4C253,24.1,246.3,31,246.3,39.9L246.3,39.9z M250.8,38.5c0-9.8,6-13,10.7-13
		c8.6,0,11.8,8,11.8,15.4c0,8.8-5.1,12.8-10.5,12.8C254,53.7,250.8,45.1,250.8,38.5L250.8,38.5z M240.9,2c0.1-0.1,0.1-0.2,0.1-0.4
		c0-0.1-0.1-0.3-0.2-0.3l0,0l0,0c-1.3,0.1-2.1,0.1-3.5,0l0,0l0,0c-0.1,0.1-0.2,0.2-0.2,0.3c0,0.2,0,0.3,0.1,0.4l0,0l0.4,0
		c0.4,0,0.6,0.1,0.7,0.2c-0.1,0.3-0.7,1.5-1.1,2.2L237,4.6c-0.4,0.9-1,1.8-1.6,2.9c-0.5-0.9-1-1.9-1.4-2.8c-0.2-0.4-0.4-0.7-0.5-1.1
		c-0.1-0.3-0.6-1.2-0.6-1.4c0,0,0.1-0.1,0.7-0.2l0.3,0l0,0c0.1-0.1,0.1-0.3,0.1-0.4c0-0.1-0.1-0.2-0.2-0.3l0,0l0,0
		c-0.5,0-1.1,0.1-2,0.1c-0.9,0-1.5,0-2.2-0.1l0,0l0,0c-0.1,0.1-0.2,0.1-0.2,0.3c0,0.1,0,0.3,0.1,0.4l0,0l0.6,0.1
		c0.5,0.1,0.7,0.1,1.4,1.3l2.2,4.3c0.5,1,0.6,1.2,0.6,2.2v1c0,2,0,2.1-1,2.2l-0.6,0.1l0,0c-0.1,0.1-0.1,0.3-0.1,0.4
		c0,0.1,0.1,0.2,0.2,0.3l0,0l0,0c1,0,1.7-0.1,2.4-0.1c0.8,0,1.4,0,2.5,0.1l0,0l0,0c0.1,0,0.2-0.1,0.2-0.3c0-0.1,0-0.3-0.1-0.4l0,0
		l-0.8-0.1c-0.9-0.1-1-0.2-1-2.2v-1c0-1.4,0-1.5,0.9-2.9l1.2-2c0.1-0.2,0.2-0.4,0.3-0.5c0.7-1.3,1.3-2.2,2.1-2.3L240.9,2L240.9,2
		L240.9,2z M234.4,24.8c-0.8-0.2-3.1-0.7-5.7-0.7c-6.8,0-11.2,2.1-14.2,5.2c-2.8,3-4,6.8-4,10.6c0,3.9,1.4,7.5,4.1,10.2
		c3.4,3.5,8.3,5,13.7,5c2.4,0,5.6-0.5,8-1.2c0.8-0.2,1.7-0.4,2.2-0.4c0.2-0.1,0.2-0.4,0-0.5c-0.8-0.3-1.1-1.4-1.1-3.2v-2.5
		c0-2.3,0-3.5,1.9-3.8l0.7-0.1c0.3-0.3,0.3-0.9,0-1.1c-1.5,0.1-3,0.1-4.7,0.1c-2.6,0-5.1,0-6.4-0.1c-0.3,0.1-0.4,0.9,0,1.1l2,0.2
		c2.8,0.3,2.9,0.6,2.9,4.3v1.8c0,1.4-0.2,2.2-0.4,2.6c-0.5,0.8-2.1,1.3-4.9,1.3c-9,0-13.4-6.8-13.4-15.4c0-6.7,3.8-12.9,12.5-12.9
		c4.6,0,7.9,1.5,9.2,6.4c0.3,0.3,1.1,0.2,1.2-0.1c-0.4-2.7-0.7-5-0.7-6.5C236.6,25.3,235.2,25,234.4,24.8L234.4,24.8z M226.7,1
		L226.7,1l0-0.1c-0.1-0.1-0.3-0.2-0.3-0.2c0,0-0.1,0-0.2,0l0,0l0,0c-0.2,0.4-0.3,0.4-1.3,0.4h-7.7c-0.8,0-1.2,0-1.3-0.5l0,0l0,0
		c-0.1-0.1-0.1-0.1-0.3-0.1c0,0-0.2,0-0.3,0.1l-0.1,0l0,0.1c-0.1,0.7-0.4,1.9-0.7,2.8l0,0.1l0,0.1c0.1,0.2,0.5,0.3,0.7,0.2l0,0l0,0
		c0.2-0.4,0.4-0.8,0.8-1.2c0.4-0.4,1.3-0.4,2.2-0.4h1c0.4,0,0.4,0,0.4,0.5V11c0,2-0.1,2.1-1,2.2l-0.7,0.1l-0.1,0
		c-0.1,0.1-0.2,0.2-0.2,0.4c0,0.1,0.1,0.3,0.2,0.3l0,0l0,0c1.1,0,1.8-0.1,2.6-0.1c0.7,0,1.3,0,2.4,0.1l0,0l0,0
		c0.2-0.1,0.2-0.3,0.2-0.4c0-0.2,0-0.3-0.1-0.4l-0.7-0.1c-0.9-0.1-1-0.2-1-2.2V2.6c0-0.2,0-0.4,0-0.4c0,0,0.2,0,0.4,0h1.3
		c1,0,1.7,0.1,2.1,0.4c0.2,0.1,0.3,0.6,0.4,1.3l0,0l0,0c0.1,0.1,0.2,0.1,0.3,0.1c0.2,0,0.3-0.1,0.4-0.2l0,0l0,0
		C226.4,3.3,226.5,1.8,226.7,1L226.7,1z M209.7,10.9V4.3c0-2,0.1-2.2,1-2.2l0.5,0l0,0c0.1-0.1,0.1-0.2,0.1-0.4c0-0.1,0-0.3-0.2-0.4
		l0,0l0,0c-0.9,0-1.5,0.1-2.3,0.1c-0.8,0-1.4,0-2.3-0.1l0,0l0,0c-0.2,0.1-0.2,0.3-0.2,0.4c0,0.2,0,0.3,0.1,0.4l0,0l0.5,0
		c1,0.1,1,0.2,1,2.2v6.6c0,2,0,2.1-1,2.2l-0.5,0.1l0,0c-0.1,0.1-0.1,0.3-0.1,0.4c0,0.1,0.1,0.2,0.2,0.3l0,0l0,0c1,0,1.6-0.1,2.3-0.1
		c0.7,0,1.4,0,2.3,0.1l0,0l0,0c0.2-0.1,0.2-0.3,0.2-0.4c0-0.2,0-0.3-0.1-0.4l-0.5-0.1C209.8,13.1,209.7,13,209.7,10.9L209.7,10.9z
		 M206.7,53.3c-1.9-0.2-2.5-0.9-3.8-4.7l-6.1-18c-0.7-2-1.4-4-2-6c-0.1-0.3-0.4-0.4-0.7-0.4c-0.5,0.6-1.3,1.4-2.3,1.7
		c0.1,0.7-0.1,1.6-0.8,3.2l-4.6,12.1c-1.9,5-3.1,7.9-3.9,10c-0.6,1.6-1.6,2.1-2.7,2.2l-1.5,0.1c-0.3,0.2-0.2,0.9,0.1,1.1
		c1.2,0,2.8-0.1,4.3-0.1c2.1,0,3.5,0,4.7,0.1c0.4-0.2,0.4-0.9,0.1-1.1l-1.5-0.1c-1.1-0.1-1.3-0.4-1.3-0.9c0-0.5,0.3-1.7,1-3.7
		l1.6-4.7c0.3-0.9,0.6-1.1,1.7-1.1h6.8c1.3,0,1.5,0.1,1.8,1.1l2,6.1c0.4,1.1,0.6,1.9,0.6,2.4c0,0.4-0.6,0.7-1.6,0.8l-1.3,0.1
		c-0.3,0.2-0.3,0.9,0.1,1.1c1.3,0,3-0.1,5.1-0.1c2,0,3.6,0,5.4,0.1c0.2-0.2,0.3-0.9,0-1.1L206.7,53.3L206.7,53.3z M195.1,41.1h-5.5
		c-1.3,0-1.3,0-0.9-1.1l2.8-7.8c0.5-1.3,0.9-2.4,1.1-2.6h0.1c0.3,0.5,0.7,1.7,1,2.8l2.4,7.3C196.5,40.9,196.4,41.1,195.1,41.1
		L195.1,41.1z M196.9,3.8c0-0.7,0.3-1.9,2.1-1.9c1.6,0,2.1,1.1,2.4,2l0,0.1c0.1,0.1,0.2,0.1,0.3,0.1c0.1,0,0.3-0.1,0.4-0.2l0,0v0
		c0-0.8-0.2-1.8-0.3-2.3l0-0.1h-0.1c-0.1,0-0.4,0-0.6-0.1c-0.4-0.1-1.1-0.2-1.8-0.2c-2.4,0-3.9,1.3-3.9,3.4c0,1.7,1.3,2.8,2.1,3.3
		l1.8,1.2c1.3,0.8,1.5,1.7,1.5,2.5c0,1-0.7,2-2.2,2c-1.9,0-2.7-1.5-3.1-2.7l0,0c-0.1-0.1-0.2-0.1-0.3-0.1c-0.1,0-0.3,0-0.4,0.2l0,0
		l0,0c0,0.8,0.3,2.2,0.5,2.7l0,0l0,0c0.4,0.2,1.4,0.7,3,0.7c2.5,0,4.1-1.4,4.1-3.6c0-1.5-0.8-2.7-2.4-3.7L198.4,6
		C197.9,5.6,196.9,4.9,196.9,3.8L196.9,3.8z M192.2,14c0.1-0.1,0.1-0.2,0.1-0.3c0-0.1-0.1-0.2-0.2-0.2l0,0c-0.4,0-0.9-0.2-1.2-0.5
		c-1.3-1.1-2.3-2.7-3.7-4.9c-0.1-0.2-0.1-0.2-0.1-0.3c0.6-0.3,2.4-1.2,2.4-3.2c0-1.6-0.9-2.4-1.6-2.7c-0.9-0.5-2.1-0.6-3.2-0.6
		c-1.7,0-3,0-4.2,0.1l-0.1,0c-0.1,0.1-0.2,0.2-0.2,0.3c0,0.2,0,0.3,0.2,0.4l0,0l0.6,0.1c0.6,0.1,0.7,0.2,0.7,2V11c0,2,0,2.1-1,2.2
		l-0.5,0.1l0,0c-0.1,0.1-0.1,0.3-0.1,0.4c0,0.1,0.1,0.2,0.2,0.3l0,0l0,0c0.8,0,1.5-0.1,2.3-0.1c0.8,0,1.4,0,2.2,0.1l0,0l0,0
		c0.1-0.1,0.2-0.2,0.2-0.3c0-0.2,0-0.3-0.1-0.4l0,0l-0.4-0.1c-1-0.1-1-0.2-1-2.2V8.6c0-0.3,0-0.3,0.7-0.3c0.7,0,1,0.2,1.2,0.5
		c0.3,0.4,0.6,0.9,0.9,1.4c0.3,0.5,0.6,1,0.9,1.4c1.3,1.8,2.2,2.4,4,2.4C191.7,14.1,192,14.1,192.2,14L192.2,14L192.2,14z
		 M186.6,7.1c-0.5,0.4-1.3,0.5-1.8,0.5c-0.8,0-1.1,0-1.2-0.1c0-0.1,0-0.3,0-0.5V2.6c0-0.4,0-0.5,1.1-0.5c2.1,0,2.8,1.5,2.8,2.7
		C187.5,5.9,187.2,6.6,186.6,7.1L186.6,7.1z M177,11.3L177,11.3L177,11.3c-0.1-0.3-0.3-0.3-0.4-0.3c-0.1,0-0.2,0-0.2,0.1l0,0.1
		c-0.5,1.1-1,1.6-1.3,1.7c-0.4,0.2-1,0.3-2.3,0.3c-1.6,0-2-0.2-2.2-0.4c-0.3-0.3-0.3-0.9-0.3-1.8V8.2c0-0.4,0-0.4,0.5-0.4h1.1
		c0.7,0,1.1,0,1.4,0.1c0.3,0.1,0.4,0.2,0.5,0.6l0.2,0.7l0,0.1c0.1,0.1,0.2,0.1,0.3,0.1c0.2,0,0.3-0.1,0.4-0.2l0,0v0
		c0-0.2,0-0.4,0-0.7c0-0.3,0-0.7,0-1.1c0-0.4,0-0.8,0-1.1c0-0.3,0-0.5,0-0.7v0l0,0c-0.1-0.1-0.2-0.2-0.4-0.2c-0.1,0-0.3,0.1-0.3,0.1
		l-0.2,0.8c-0.1,0.4-0.2,0.5-0.4,0.5c-0.2,0.1-0.8,0.1-1.5,0.1h-1.1c-0.5,0-0.5,0-0.5-0.4V2.8c0-0.6,0-0.6,0.4-0.6h1.3
		c0.8,0,1.4,0,1.8,0.1c0.9,0.2,1,0.8,1.3,1.6l0,0.1l0,0c0.1,0.1,0.2,0.1,0.3,0.1c0.1,0,0.3,0,0.4-0.2l0,0l0-0.3
		c-0.1-1.1-0.2-2-0.3-2.3l0-0.1l-0.1,0c-0.2,0.1-1.4,0.1-2.5,0.1h-3.5c-0.7,0-1.3,0-2.2-0.1l0,0l0,0c-0.2,0.1-0.2,0.3-0.2,0.4
		c0,0.2,0,0.3,0.1,0.4l0.4,0.1c1,0.1,1,0.2,1,2.2V11c0,2-0.1,2.1-1,2.2l-0.7,0.1l0,0c-0.1,0.1-0.1,0.3-0.1,0.4
		c0,0.1,0.1,0.2,0.2,0.3l0,0l0,0c1.1,0,1.7-0.1,2.5-0.1h1.7c1.6,0,3.3,0,5,0.1l0.1,0l0-0.1C176.4,13.4,176.8,11.9,177,11.3L177,11.3
		z M164.2,2c0.1-0.1,0.1-0.3,0.1-0.4c0-0.1-0.1-0.2-0.2-0.3l0,0l0,0c-0.6,0-1.2,0.1-1.8,0.1c-0.7,0-1.4,0-1.9-0.1l0,0l0,0
		c-0.1,0.1-0.2,0.2-0.2,0.3c0,0.1,0,0.3,0.1,0.4l0,0l0.4,0c0.7,0.1,0.7,0.2,0.7,0.2c0,0.1,0,0.3-0.2,0.7c-0.3,0.8-1.2,2.9-1.7,4.2
		c-0.1,0.3-0.3,0.7-0.5,1.2c-0.4,0.8-0.8,1.9-1.1,2.7c-0.9-2-1.7-4.1-2.5-6.1c-0.5-1.3-0.9-2.3-0.9-2.6c0-0.1,0.2-0.1,0.7-0.2l0.3,0
		l0,0c0.1-0.1,0.1-0.2,0.1-0.4c0-0.1-0.1-0.3-0.2-0.3l0,0l0,0c-0.8,0-1.5,0.1-2.3,0.1c-0.8,0-1.4,0-1.9-0.1l0,0l0,0
		c-0.1,0.1-0.2,0.2-0.2,0.3c0,0.1,0,0.3,0.1,0.4l0,0l0.4,0c0.7,0.1,1,0.4,1.4,1.4l3.3,8.1c0.4,1,0.7,1.8,0.9,2.5l0,0.1l0.1,0
		c0.1,0,0.2,0.1,0.3,0.1c0.1,0,0.2,0,0.3-0.1l0,0l0,0c0.3-1,1.2-3.2,1.9-4.9l1-2.3c0.9-2,1.6-3.4,2.1-4.3c0.2-0.4,0.5-0.6,0.9-0.6
		L164.2,2L164.2,2L164.2,2z M152,27.9c-3.4,2.6-5.6,6.9-5.6,11.9c0,5.8,2.8,9.8,6.4,12.3c3.3,2.2,7.1,3,11.1,3c2.9,0,6.1-0.7,7.1-1
		c0.5-0.2,1-0.4,1.6-0.4c0.7-0.8,1.8-3.8,2.1-6.1c-0.2-0.3-0.9-0.4-1.2-0.2c-1,2.6-3.6,6.4-9.4,6.4c-7.3,0-13.3-5.2-13.3-14.6
		c0-9.3,5.8-13.6,12.7-13.6c6.5,0,8.5,3.5,9.2,6.5c0.3,0.3,1,0.2,1.2-0.1c-0.4-2.7-0.6-5.6-0.6-6.6c-0.4,0-0.7,0-1.3-0.2
		c-2.1-0.6-5.5-1.1-7.9-1.1C159.4,24.1,155.3,25.4,152,27.9L152,27.9z M146.3,10.9V4.3c0-2,0.1-2.2,1-2.2l0.5,0l0,0
		c0.1-0.1,0.1-0.2,0.1-0.4c0-0.1,0-0.3-0.2-0.4l0,0l0,0c-0.9,0-1.5,0.1-2.3,0.1c-0.8,0-1.4,0-2.3-0.1l0,0l0,0
		c-0.2,0.1-0.2,0.3-0.2,0.4c0,0.2,0,0.3,0.1,0.4l0,0l0.5,0c0.9,0.1,1,0.2,1,2.2v6.6c0,2,0,2.1-1,2.2l-0.5,0.1l0,0
		c-0.1,0.1-0.1,0.3-0.1,0.4c0,0.1,0.1,0.2,0.2,0.3l0,0l0,0c0.9,0,1.6-0.1,2.3-0.1c0.7,0,1.4,0,2.3,0.1l0,0l0,0
		c0.2-0.1,0.2-0.3,0.2-0.4c0-0.2,0-0.3-0.1-0.4l-0.5-0.1C146.3,13.1,146.3,13,146.3,10.9L146.3,10.9z M136.9,47.6V31.7
		c0-4.7,0.1-5.5,2.7-5.7l1.1-0.1c0.3-0.2,0.2-1-0.1-1.1c-2.2,0.1-3.8,0.1-5.6,0.1c-1.9,0-3.4,0-5.6-0.1c-0.3,0.1-0.4,0.9-0.1,1.1
		l1.1,0.1c2.6,0.2,2.7,1,2.7,5.7v15.9c0,4.7-0.1,5.4-2.7,5.7l-1.1,0.1c-0.3,0.3-0.2,1,0.1,1.1c2.2-0.1,3.8-0.1,5.6-0.1
		c1.8,0,3.3,0,5.6,0.1c0.3-0.1,0.4-0.9,0.1-1.1l-1.1-0.1C137,53,136.9,52.3,136.9,47.6L136.9,47.6z M139.2,2
		c0.1-0.1,0.1-0.2,0.1-0.4c0-0.1-0.1-0.2-0.2-0.3l0,0l0,0c-0.6,0-1.1,0.1-1.9,0.1c-0.7,0-1.3,0-2.2-0.1l0,0l0,0
		c-0.1,0-0.2,0.1-0.2,0.3c0,0.2,0,0.3,0.1,0.4l0,0l0.4,0c0.6,0.1,1,0.2,1.1,0.3c0.2,0.4,0.4,1.7,0.4,3.8v4c0,0.2,0,0.4,0,0.5
		c-0.6-0.7-1.3-1.4-2.2-2.4l-2.6-2.9c-1.8-2.1-2.9-3.4-3.1-4l0-0.1l-0.1,0c-0.2,0-0.5,0.1-0.8,0.1c-0.3,0-1.3,0-2.1-0.1l0,0l0,0
		c-0.1,0-0.2,0.2-0.2,0.3c0,0.2,0,0.3,0.1,0.4l0,0l0.4,0c0.5,0.1,0.9,0.2,1.1,0.4c0.3,0.4,0.4,0.7,0.4,1.2l0,5.6c0,0.9,0,3-0.2,3.6
		c0,0.1-0.2,0.2-0.7,0.3l-0.6,0.1l0,0c-0.1,0.1-0.1,0.2-0.1,0.4c0,0.1,0.1,0.3,0.2,0.3l0,0l0,0c0.6,0,1.1-0.1,1.9-0.1
		c0.6,0,1.3,0,2.2,0.1l0,0l0,0c0.1-0.1,0.1-0.2,0.2-0.3c0-0.1,0-0.3-0.1-0.4l0-0.1l-0.6-0.1c-0.4,0-0.8-0.1-0.8-0.3
		c-0.2-0.4-0.3-1.7-0.3-3.8V5c0-0.3,0-0.7,0-0.9c0.3,0.3,0.8,0.9,1.2,1.4c0.3,0.4,0.6,0.7,0.8,0.9l4.3,4.9c1.4,1.6,2.1,2.4,2.4,2.8
		l0,0.1h0.1c0.2,0,0.4-0.1,0.5-0.3l0,0l0,0c0-0.2-0.1-1-0.1-3.2l0-4.7c0-1,0-2.9,0.3-3.5c0,0,0.2-0.2,0.9-0.3L139.2,2L139.2,2
		L139.2,2z M122.5,2c0.1-0.1,0.1-0.3,0.1-0.4c0-0.1-0.1-0.2-0.2-0.3l0,0l0,0c-0.6,0-1.2,0.1-2,0.1c-0.7,0-1.4,0-2.1-0.1l0,0l0,0
		c-0.1,0.1-0.1,0.2-0.2,0.3c0,0.1,0,0.3,0.1,0.4l0,0l0.5,0c0.4,0,0.7,0.1,0.8,0.3c0.2,0.4,0.3,1.7,0.3,3.8v2.1
		c0,2.2-0.6,4.8-3.6,4.8c-2.5,0-3.6-1.5-3.6-4.8v-4c0-2,0.1-2.1,1-2.2l0.5,0l0,0c0.1-0.1,0.1-0.2,0.1-0.3c0-0.1-0.1-0.3-0.2-0.4l0,0
		l0,0c-0.9,0-1.5,0.1-2.3,0.1c-0.8,0-1.4,0-2.3-0.1l0,0l0,0c-0.1,0.1-0.2,0.2-0.2,0.3c0,0.2,0,0.3,0.1,0.3l0,0l0.5,0
		c0.9,0.1,1,0.2,1,2.2v4.4c0,2.3,0.5,3.6,1.5,4.5c0.8,0.7,2,1.1,3.6,1.1c1.5,0,2.9-0.5,3.7-1.4c0.9-1,1.3-2.5,1.3-4.6V6.1
		c0-0.9,0-3.2,0.2-3.7c0.1-0.2,0.4-0.3,0.8-0.4L122.5,2L122.5,2L122.5,2z M101,25.8c0.3-0.2,0.2-1-0.1-1.1c-1.9,0.1-3.4,0.1-5.2,0.1
		c-1.9,0-3.4-0.1-5.6-0.1c-0.3,0.1-0.4,0.9-0.1,1.1l1.2,0.1c2.3,0.2,2.6,0.9,2.6,5.6v16.1c0,4.7-0.1,5.1-2.6,5.6l-0.8,0.1
		c-0.3,0.3-0.2,1,0.1,1.1c1.7,0,3.3-0.1,5.2-0.1c1.7,0,3.3,0,5.7,0.1c0.3-0.1,0.4-0.9,0.1-1.1l-1.3-0.1c-2.5-0.3-2.7-0.9-2.7-5.6
		v-6.3c0-1.3,0.1-1.4,2.2-1.4h12.8c2.1,0,2.2,0.1,2.2,1.4v6.3c0,4.7,0,5.1-2.7,5.6l-0.9,0.1c-0.3,0.3-0.2,1,0.1,1.1
		c2-0.1,3.6-0.1,5.4-0.1c1.7,0,3.3,0,5.4,0.1c0.3-0.1,0.4-0.9,0.1-1.1l-1.1-0.1c-2.6-0.3-2.7-0.9-2.7-5.6V31.6
		c0-4.7,0.1-5.4,2.7-5.6l0.9-0.1c0.3-0.2,0.2-1-0.1-1.1c-2,0.1-3.5,0.1-5.3,0.1c-1.8,0-3.4,0-5.4-0.1c-0.3,0.1-0.4,0.9-0.1,1.1
		l0.9,0.1c2.6,0.3,2.7,0.9,2.7,5.6v5.1c0,1.4-0.1,1.4-2.2,1.4H99.7c-2.1,0-2.2,0-2.2-1.4v-5.1c0-4.7,0.1-5.4,2.7-5.6L101,25.8
		L101,25.8z M99.2,11.3L99.2,11.3L99.2,11.3c-0.1-0.3-0.3-0.3-0.4-0.3c-0.1,0-0.2,0-0.2,0.1l0,0.1c-0.5,1.1-1,1.6-1.3,1.7
		c-0.4,0.2-1,0.3-2.3,0.3c-1.6,0-2-0.2-2.2-0.4c-0.3-0.3-0.3-0.9-0.3-1.8V8.2c0-0.4,0-0.4,0.5-0.4H94c0.7,0,1.1,0,1.4,0.1
		c0.3,0.1,0.4,0.2,0.5,0.6L96,9.3l0,0.1c0.1,0.1,0.2,0.1,0.3,0.1c0.2,0,0.3-0.1,0.4-0.2l0,0v0c0-0.2,0-0.4,0-0.7c0-0.3,0-0.7,0-1.1
		c0-0.4,0-0.8,0-1.1c0-0.3,0-0.5,0-0.7v0l0,0c-0.1-0.1-0.2-0.2-0.4-0.2c-0.1,0-0.3,0.1-0.3,0.1l-0.2,0.8c-0.1,0.4-0.2,0.5-0.4,0.5
		c-0.2,0.1-0.8,0.1-1.5,0.1h-1.1c-0.5,0-0.5,0-0.5-0.4V2.8c0-0.6,0-0.6,0.4-0.6h1.3c0.8,0,1.4,0,1.8,0.1c0.9,0.2,1,0.8,1.3,1.6
		l0,0.1l0,0c0.1,0.1,0.2,0.1,0.3,0.1c0.1,0,0.3,0,0.4-0.2l0,0l0-0.3c-0.1-1.1-0.2-2-0.3-2.3l0-0.1l-0.1,0c-0.2,0.1-1.4,0.1-2.5,0.1
		h-3.5c-0.7,0-1.3,0-2.2-0.1l0,0l0,0c-0.2,0.1-0.2,0.3-0.2,0.4c0,0.2,0,0.3,0.1,0.4l0.4,0.1c1,0.1,1,0.2,1,2.2V11c0,2-0.1,2.1-1,2.2
		l-0.7,0.1l0,0c-0.1,0.1-0.1,0.3-0.1,0.4c0,0.1,0.1,0.2,0.2,0.3l0,0l0,0c1.1,0,1.7-0.1,2.5-0.1h1.7c1.6,0,3.3,0,5,0.1l0.1,0l0-0.1
		C98.6,13.4,99.1,11.9,99.2,11.3L99.2,11.3z M83.6,11V4.3c0-2,0.1-2.1,1-2.2L85,2l0.1,0c0.1-0.1,0.1-0.2,0.1-0.4
		c0-0.1,0-0.3-0.2-0.4l0,0l0,0c-0.9,0-1.5,0.1-2.2,0.1c-0.8,0-1.5,0-2.2-0.1l0,0l0,0c-0.2,0.1-0.2,0.3-0.2,0.4c0,0.2,0,0.3,0.1,0.4
		l0.4,0.1c1,0.1,1,0.2,1,2.2v2.1c0,0.5,0,0.5-0.8,0.5h-5.3c-0.8,0-0.8,0-0.8-0.5V4.3c0-2,0.1-2.1,1-2.2l0.4,0l0.1,0
		c0.1-0.1,0.1-0.2,0.1-0.4c0-0.1,0-0.3-0.2-0.4l0,0l0,0c-0.8,0-1.5,0.1-2.2,0.1c-0.5,0-0.9,0-1.4,0c-0.3,0-0.6,0-1,0l0,0l0,0
		c-0.2,0.1-0.2,0.3-0.2,0.4c0,0.2,0,0.3,0.1,0.4l0,0l0.5,0c0.8,0.1,1,0.2,1,2.2V11c0,1.9,0,2-1,2.2l-0.4,0.1l0,0
		c-0.1,0.1-0.1,0.3-0.1,0.4c0,0.1,0.1,0.2,0.2,0.3l0,0l0,0c0.3,0,0.5,0,0.7,0c0.4,0,0.9,0,1.4,0c0.7,0,1.3,0,2.4,0.1l0,0l0,0
		c0.1-0.1,0.2-0.2,0.2-0.4c0-0.2,0-0.3-0.1-0.4l-0.6-0.1c-0.9-0.1-1-0.2-1-2.2V8.3c0-0.5,0-0.5,0.8-0.5H81c0.8,0,0.8,0,0.8,0.5V11
		c0,2,0,2-1,2.2l-0.4,0.1l0,0c-0.1,0.1-0.1,0.3-0.1,0.4c0,0.1,0.1,0.2,0.2,0.3l0,0l0,0c0.9,0,1.5-0.1,2.2-0.1c0.7,0,1.4,0,2.3,0.1
		l0,0l0,0c0.2-0.1,0.2-0.3,0.2-0.4c0-0.2,0-0.3-0.1-0.4l-0.5-0.1C83.7,13.1,83.6,13,83.6,11L83.6,11z M68.3,1L68.3,1l0-0.1
		C68.2,0.8,68,0.8,68,0.8c0,0-0.1,0-0.2,0l0,0l0,0c-0.2,0.4-0.3,0.4-1.3,0.4h-7.7c-0.8,0-1.2,0-1.3-0.5l0,0l0,0
		c-0.1-0.1-0.1-0.1-0.3-0.1c0,0-0.2,0-0.3,0.1l-0.1,0l0,0.1c-0.1,0.7-0.4,1.9-0.7,2.8l0,0.1l0,0.1c0.1,0.2,0.5,0.3,0.7,0.2l0,0l0,0
		C57,3.4,57.2,3,57.6,2.6c0.4-0.4,1.3-0.4,2.2-0.4h1c0.4,0,0.4,0,0.4,0.5V11c0,2-0.1,2.1-1,2.2l-0.7,0.1l-0.1,0
		c-0.1,0.1-0.2,0.2-0.2,0.4c0,0.1,0.1,0.3,0.2,0.3l0,0l0,0c1.1,0,1.8-0.1,2.6-0.1c0.7,0,1.3,0,2.4,0.1l0,0l0,0
		c0.1-0.1,0.2-0.2,0.2-0.4c0-0.2,0-0.3-0.1-0.4L64,13.2c-0.9-0.1-1-0.2-1-2.2V2.6c0-0.2,0-0.4,0-0.4c0,0,0.2,0,0.4,0h1.3
		c1,0,1.7,0.1,2.1,0.4c0.2,0.1,0.3,0.6,0.4,1.3l0,0l0,0c0.1,0.1,0.2,0.1,0.3,0.1C67.8,4.1,68,4,68,3.9l0,0l0,0
		C68,3.3,68.1,1.8,68.3,1L68.3,1z M55.6,39.8c0,5.8,2.8,9.8,6.4,12.3c3.3,2.2,7.1,3,11.1,3c2.9,0,6.1-0.7,7.1-1
		c0.5-0.2,1-0.4,1.6-0.4c0.7-0.8,1.8-3.8,2.1-6.1c-0.2-0.3-0.9-0.4-1.2-0.2c-1,2.6-3.6,6.4-9.4,6.4c-7.3,0-13.3-5.2-13.3-14.6
		c0-9.3,5.8-13.6,12.7-13.6c6.5,0,8.5,3.5,9.2,6.5c0.3,0.3,1,0.2,1.2-0.1c-0.4-2.7-0.6-5.6-0.6-6.6c-0.4,0-0.7,0-1.3-0.2
		c-2.1-0.6-5.5-1.1-7.9-1.1c-4.7,0-8.8,1.3-12.1,3.8C57.8,30.6,55.6,34.8,55.6,39.8L55.6,39.8z M44,32.3l0-31.2c-25.1-2.4-44,0-44,0
		v31.2c2,21.1,21.8,23.6,22,23.6C25.5,55.2,42.1,51.9,44,32.3L44,32.3z M42.9,32.1c-1.8,18.8-17.5,22-20.9,22.6
		c-0.2,0-19-2.4-20.9-22.6c0,0,0-29.9,0-29.9s18-2.3,41.7,0L42.9,32.1L42.9,32.1z M36.5,43.2c0.7-1,1.1-2.1,1.3-3.3
		c-0.4,0.5-1,1-1.6,1.2C35.8,42.5,36,43.9,36.5,43.2L36.5,43.2z M37.2,40.2c0.5-0.4,0.8-1.1,1.4-1.4c-0.5-0.4-1,0.4-1.2,0.1
		c0.4-0.7,0.7-1.3,0.8-2.1c0-0.5,0.6-0.9,0.7-1.2c-0.5,0.1-2,0.9-2.2,1.4c-1,1.3-0.9,2.5-4.9,4.2c-0.2,0,0.7-0.7,1-1.5
		c0.1-0.4,0.7-2.1,0.3-2.9c-0.8,0.8-0.7,1.1-0.9,1.7c-0.6,1.6-0.9,1.8-2.4,2.8c-0.2,0.1-1.3,1.9-2.8,2c0.1,0,0.1-0.4,0.6-0.7
		c1.7-1.1,1-3.4,3.2-3.8c-1.1-0.4-1.8,0.7-2,0.6c0.9-1.2,0.1-2.2,0.2-3.2c-0.3,0.2-0.6,0.5-0.6,0.8c-0.2,1.8-1,2.1-1.1,2.8
		c0.2,1.3-0.8,2.2-1.6,3.1c-0.1-0.7,0-1.4,1-2c0.5-0.3,0-1.3,0-1.3c-0.2,1.1-0.8,1.4-1.2,1.5c-0.3,0,1.2-1.5,1-3
		c-0.1-0.6-0.3-0.4-0.4-1.1c-1.3,1.4-0.4,2.3-1.7,4c-0.6,0.8-0.9,2.2-1,2.2c0-2.1,0.1-1.5,1-3.2c0.8-1.4,0-2.7-0.1-3.5
		c-1.7,1.1-1.5,3.4-1.6,2.9c0-0.5-0.2-1.3,0-2c0.4-1.2-0.4-3.1-0.4-3.1c-2.3,3.6-0.4,7.9-0.5,7.9c-1-1.6-1.7-1.6-2-2.9
		c-0.1-0.7-1.3-4.3-3.5-4.3c1.1,1,0.8,1.1,0.9,2.7c-0.7,3.9,4.8,4.3,4.4,6.4c-0.8-1.2-1.9-1.7-3.6-2.7c-0.8-0.6-1.6-0.9-1.7-1.8
		c0.1-0.7,0.1-0.5,0-1.4c-0.1-0.6-0.7-0.3-1.2-1.6c-1,0.9-0.6,1.9-0.5,2.5c0,0.2,0.1,0.8,0,1.1c-0.4-0.2-0.6-0.7-1-1.2
		c-0.7-0.9-0.7-2-1.1-2.8c-0.2-0.4-0.4-0.8-0.5-0.8l0,0c-0.2,1.4-0.1,2.7,0.6,3.7c0,0-0.2,0.3-0.3,0.4c-0.6-0.2-1.5-0.7-1.8-1.7
		c-0.8,0.6-0.2,1.5-0.3,1.5c-1.7-0.9,0-4.3-2.4-4.2c0.6,0.7,0.2,1.5,0.2,2.3c0,1.3,1.6,2.3,1.6,2.3c-1.8-0.6-2.2,0.2-2.2,0.2
		c0,0,2.7,1.2,6.9,1.6c0.5,0.1,1.3,0.7,1.2,0.7c-0.5,0-1.6-0.7-3.2,0.6c0.9,0,1.5,1.5,3,0.7c3.8-1.1,5.2,0.8,5.8,1.3
		c-0.1,0.2-2.9-1.8-5.1-0.4c-1.2,0.7-3.1,0.1-4.6-1c0.6,1.5,3.2,3.3,4,3.3c1,0,2.4-1.3,3.9-1.3c2.4,0.1,2.7,2.3,2.5,2.1
		c0,0-1.9-3.1-4.3,0.2c1.1-0.5,2.7-0.4,4,0.2c0.2,0.1-0.3,0.6-0.7,1.1c-0.2,0.3-1.2,1.8-2.3,0.3c-0.2-0.2-0.7-1.6-4.1-1.3
		c1.3,0.6,2.7,2.1,3.4,2.8c1.8,1.8,4.5-2.2,4.6-1.7c0,0.9,0.5,1.3,0.7,1.8c0.6,1.2-0.8,1-1.5,0.7c0,0,1.4,2.2,2.6,1
		c1.3-1.4-1.7-2.4-0.8-3.5c0.5-0.6,2.5,1.4,3.3,1.4c2.3,0.3,2.2-2,3.4-1.9c-1.2-1.2-2.4-0.5-2.6-0.2c-0.8,0.9-1.7,0.3-2.3-0.2
		c-0.3-0.4-0.9-0.5-1.4-0.4c-0.2,0,0.5-0.9,1.4-0.7c2.1,0.4,4.3-0.4,4.8-0.6c0.9-0.5,1.3-1.3,2.3-2.2c-0.3,0.1-2.1,1-2.7,1.3
		c-1.7,0.9-2.8-0.3-3-0.3c-0.3,0-0.2-0.2,0.3-0.4c1.8-0.4,3-1.9,4.7-2.6C33.2,41.1,35.6,41.7,37.2,40.2L37.2,40.2z M33.7,37.8
		c-0.1,0.4-0.1,0.7-0.2,1.1c0,0,0.4,0.2,0.6,0.4c0.3-0.3,0.5-0.4,0.8-0.7c-0.1,0-1.2-1-1.2-1C33.7,37.7,33.7,37.7,33.7,37.8
		L33.7,37.8z M33.8,39.5c0,0-0.4-0.3-0.5-0.3c-0.1,0.2-0.2,0.4-0.3,0.7C33,40.1,33.3,40,33.8,39.5L33.8,39.5z M38.9,35.1
		c-0.1-4-2.6-8.5-1.9-7.7c1.7,2.1,2.2,6.6,3.4,10.5c0,0,0.7,0.4,0.6-4.6c0-1-0.4-2.3-0.9-3.3c-1-1.8-3-4.9-2.9-5
		c0.5-0.4,1.6,2.3,2.7,3.3c0.7,0.7,2.5,1.3,2.6,1.3c-1.5-2.8-5-5.5-4.6-5.8c2.6,2.4,3.4,2.6,3.5,2.4L39,24c-0.7-0.9-1.5-1.6-1.4-1.5
		c1,0.2-0.5-0.9-1.8-1.2c-0.2-0.1-0.6-0.1-0.6-0.2c0-0.2,0.3-0.1,0.5-0.2c0.2,0,0.3-0.2,0.3-0.4c-0.5,0.1-1,0-1.4-0.2
		c-0.8-0.4-2.3-0.8-3-0.6c-0.4,0.2-0.5,0.1-0.9,0.5c-0.2-0.1-0.7-0.4-1.5,0.5c-0.2,0.3-0.5,0.6-0.5,0.8c0,0.6,0,0,0.2,0.6
		c0.1,0.2-0.2,0.7-1.3,1c-0.4,0.1-0.3,0.6-0.3,0.6c0.2-0.1,0.5-0.3,1.1-0.1c1,0.5,1.2-0.3,1.8-0.8c0,0-0.2,0.7,0,0.7
		c0.8,0.2,0.5,0.7,0.4,0.8c-1,0.9-0.6,1.2-0.9,1.7c-0.3,0.5-0.8,0.7-1.6,0.7c-1,0,1.4-1.6-0.9-2.3c0.4,0.6,0.5,1.1-0.3,1.6
		c-0.5,0.3-0.2,1.8-1.6,1.1c0,0-0.1,1.1-0.3,1.2c1.8,1.6,0.8,2.4,0.9,4.6c0.6,1.4-0.1,2.1-0.2,2.2c0.1,1,0.2,1.5,0.8,2.3
		c0.4,0.6,0,1.4,0.4,2c0.4-1.4,0.8-0.8,1-2.8c0.2-0.3,0.8-0.9,1.2-1c0,1.2,0.4,2.3,0.3,2.8c0,0,1-0.2,1.3-0.1
		c0.3,0.1,0.4,0.4,0.5,0.6c-0.3,0.2-0.3,0.1-0.9,0.5c-0.9,0.7-1.3,2-1.3,2c0,0,2.2-1.7,2.3-2c0.1-0.2,0.2-0.6,0.4-1
		c0,0-1.1-0.7-1.4-1.3c-1-1.9,1.5,1.1,1.5,0.8c0.1-0.6,0.6-1.3,0.6-1.3c-0.2-0.2-0.5-0.3-1.1-1.3c-1.3-2.4,1.6,1,1.6,1
		c0.8-0.4,0.8,0.1,0.9,0.8c0,0.1,1.3,1,1.4,1.1c0.4-0.3,0.6-0.8,0.8-1.1c0,0-2.3-2.1-2.7-2.8c-3.2-5.6,2.6,2.5,2.9,2.3
		c0.2-0.4,0.2-1,0.2-1.8c0,0-1.1-0.8-1.8-2c-2.7-4.5,1.8,1.3,1.8,1.3c-0.1-1-0.8-5.2-0.3-3.9c0.3,0.6,1.2,3.3,1,6
		C37.2,35.7,38.5,35.2,38.9,35.1L38.9,35.1z M40.7,8.2c0,0.2,0,0.3,0,0.4C40.8,8.5,40.8,8.4,40.7,8.2c0,0-0.1-1.5-1.7-1.5
		c-0.5,0-1.2,0.6-2.8-0.1v2.6c0.7,0.2,2.5-0.8,3.2-1.2C40,7.8,40.7,8,40.7,8.2L40.7,8.2z M36.2,11.9v2.6c0,0,1.4,0,3-1
		c0.5-0.3,1.2-0.2,1.5,0.1h0c0,0-0.2-1.7-1.6-1.5C36.5,12.5,36.2,11.9,36.2,11.9L36.2,11.9z M26.4,16c1.4,0,6.7,1.5,9.3,1.3V3.8
		c0,0-3.8,0.5-7.1-0.7c-2.7-1-6.4,0.7-6.4,0.7c0,0.5,0,13.2,0,13.2S23.6,16,26.4,16L26.4,16z M23.6,11.6c0.1,0,0.5,0,0.6,0
		c0,0.3,0,2.3,0,2.5c0,0.2,0.2,0.3,0.4,0.2c0.1,0,0.2,0,0.1,0.1c-0.2,0.1-0.4,0.5-0.5,0.6c-0.2-0.2-0.5-0.3-0.5-0.5
		C23.7,14.1,23.6,11.8,23.6,11.6L23.6,11.6z M24.3,8.7c0.4-0.2,1.3-0.3,1.6-0.3c0.2,0,0.3,0,0.3-0.1c0-0.1,0.1-0.1,0.1,0
		c0,0.1,0,1,0,1.1c0,0.1-0.1,0.1-0.1,0c0-0.1,0-0.2-0.1-0.4c-0.3-0.5-1.3-0.6-1.8,0.1c-0.2,0.2-0.2,0.6,0,0.6c0.2,0.1,0.9,0,1.1,0
		c0.2,0,0.8-0.1,0.8-0.2c0.1,0,0.1-0.1,0.1,0c0,0.1,0,0.5,0,0.6c0,0.1-0.1,0.1-0.1,0c-0.1,0-0.6-0.1-0.8-0.1c-0.4,0-0.9-0.1-1.1-0.1
		c-0.2,0.1,0,0.3,0.1,0.6c0.5,0.6,1.4,0.7,1.7,0.1c0.1-0.2,0.1-0.2,0.1-0.4c0-0.1,0.1-0.1,0.1,0c0,0.1,0,0.9,0,1
		c0,0.1-0.1,0.1-0.1,0c0-0.2-0.1-0.2-0.3-0.1c-0.5,0.1-1.2,0.2-1.6,0c-0.4-0.2-0.8-0.3-0.8-1.3C23.4,9.3,23.9,8.9,24.3,8.7L24.3,8.7
		z M27.1,4.6c-0.2,0.1-0.4,0.3-0.5,0.5c0,0.2-0.8,2.5-0.9,2.7c-0.2-0.7-1-2.4-1.2-2.8c-0.2-0.3-0.4-0.3-0.6-0.3
		c-0.2,0-0.1-0.2,0-0.2c0.2,0,1.5,0.1,1.8,0.2c0.1,0,0.1,0.1,0,0.2c-0.1,0-0.3,0.1-0.3,0.2c0,0.1,0.5,1.1,0.6,1.3
		c0.1-0.3,0.5-1.3,0.4-1.6c-0.1-0.2-0.1-0.3-0.3-0.3c-0.2,0-0.2-0.1,0-0.2c0.2,0,0.8-0.1,1-0.1C27.3,4.4,27.3,4.5,27.1,4.6L27.1,4.6
		z M28.4,4.6l-0.2,0.2H28l-0.2-0.2l0-0.4L28.1,4l0.3,0.3V4.6L28.4,4.6z M28.9,7.2l-0.4,0.5h-0.4c-0.2-0.2-0.3-0.3-0.4-0.5l0-1.3
		l-0.5-0.3c-0.1,0.1-0.3,0.1-0.2,0l0.7-0.6l0.1,0l0.4,0.4l0,1.3C28.5,7.1,28.6,7.2,28.9,7.2L28.9,7.2z M31.3,5.7
		c-0.1,0-1.1,0.1-1.1,0.1c-0.1,0,0.1,1.3,0.1,1.4c0,0.1,0.1,0.3,0.2,0.2c0.1-0.1,0.2,0.1,0.1,0.2c-0.1,0.1-0.3,0.5-0.4,0.6
		c-0.2,0.1-0.4-0.2-0.5-0.4c-0.1-0.3-0.2-1.2-0.2-1.8c0,0-0.5-0.2-0.2-0.3c0.4-0.2,0.9-0.8,0.9-0.9c0.1-0.2,0.2-0.1,0.1,0.1
		c-0.1,0.3-0.1,0.5-0.1,0.7c0,0,0.9,0,1,0C31.4,5.5,31.3,5.7,31.3,5.7L31.3,5.7z M30.1,10c-0.1,0.4,0.3,0.8,0.6,0.9
		c0.2,0.1,0.6,0.1,0.7,0c0.1,0,0.1,0,0.1-0.1c0.1-0.1,0.2,0,0.1,0.1c-0.1,0.1-0.6,0.6-0.8,0.7c-0.1,0-0.5,0-0.7-0.2
		c-0.3-0.4-0.6-0.6-0.5-1.4c0.1-0.5,1-1,1.2-1.1C31,9,31.4,9.4,31.5,9.6c-0.1,0.1-0.3,0.2-0.5,0.2c-0.2,0-0.4-0.2-0.5-0.3
		C30.4,9.5,30.2,9.6,30.1,10L30.1,10z M33.7,7.9l-0.5,0.6C33,8.3,32.9,8.2,32.8,8c-0.4,0.1-0.7,0.3-0.9,0.5
		c-0.2-0.2-0.4-0.6-0.4-0.8c0-0.3,0.2-0.7,0.4-0.8c0,0,0,0,0,0c-0.1-0.1-0.2-0.1-0.2-0.2c-0.1-0.1-0.1-0.2,0-0.3
		c0.1-0.1,0.4-0.6,0.8-0.6c0.2,0,0.5,0,0.9,0.4c-0.1,0.1-0.1,1.2-0.1,1.4C33.4,7.7,33.7,7.9,33.7,7.9L33.7,7.9z M34.8,10.5
		c-0.2,0-0.4,0-0.5-0.1c-0.2,0-0.1-0.2,0-0.2c0.1,0,0.3,0,0.4,0.1C34.9,10.3,34.9,10.5,34.8,10.5L34.8,10.5z M34.8,10.9
		c-0.2,0-0.4,0-0.5-0.1c-0.2,0-0.1-0.2,0-0.2c0.1,0,0.3,0,0.4,0.1C34.8,10.8,34.9,10.9,34.8,10.9L34.8,10.9z M32,13.4
		c0.2-0.1,0.6-0.5,0.7-0.6c0.2,0.2,0.4,0.4,0.5,0.5c0.2-0.1,0.4-0.3,0.5-0.4c0.2,0.2,0.5,0.3,0.5,0.5c0.1-0.1,0.3,0,0.1,0.1
		c-0.1,0.1-0.4,0.4-0.5,0.4c-0.2-0.1-0.4-0.4-0.5-0.5c0,0-0.1,0.1-0.2,0.1c0,0.2,0,1.6,0,1.7c-0.2,0-0.4,0-0.6,0c0-0.2,0-1.4,0-1.6
		C32.6,13.5,32.2,13.4,32,13.4L32,13.4z M31.9,10.7c0-0.7,0.5-1.3,1.2-1.6c0.6,0.2,0.8,0.8,0.9,1.2c0,0.3-0.2,0.8-0.3,1
		c-0.2,0.2-0.5,0.4-0.7,0.6C32.2,12,31.9,11.1,31.9,10.7L31.9,10.7z M29.1,13c0.2-0.2,0.4-0.4,0.6-0.5c0.2,0.2,0.3,0.3,0.4,0.5
		c0,0.3-0.1,0.9,0,1.2c0,0.2,0.9,0.4,0.9,0c0-0.3,0-0.7,0-0.9c0-0.1-0.4-0.2-0.5-0.2c0.2-0.2,0.4-0.4,0.6-0.6
		c0.2,0.2,0.4,0.4,0.5,0.6c0,0.3-0.1,1.1,0,1.3c0.1,0.2,0,0.2,0.2,0.3c-0.2,0.1-0.3,0.2-0.4,0.3c-0.2,0-0.4-0.3-0.4-0.5
		c-0.2,0.1-0.8,0.4-1,0.4c-0.2-0.2-0.4-0.3-0.4-0.5c0-0.3,0.1-1,0-1.2C29.4,13.1,29.3,13,29.1,13L29.1,13z M28.6,11
		c-0.2-0.1-0.5-0.4-0.7-0.6c-0.3,0.4-0.4,0.7-0.9,0.8c0.3-0.3,0.6-0.8,0.6-1.3c0-0.5-0.3-0.7-0.5-0.8c-0.2,0.1-0.4,0.2-0.5,0.3
		c-0.1,0-0.1-0.1-0.1-0.2c0.3-0.1,0.8-0.5,0.9-0.6C27.7,8.6,28,8.8,28,9c0.2-0.1,0.5-0.5,0.6-0.5c0.1,0.2,0.4,0.4,0.8,0.5
		c-0.3,0.6-1,0.2-1.1,0.1c-0.1,0.2-0.1,0.3,0,0.6c0.1,0.3,0.7,0.6,1,0.7C29.2,10.5,28.8,10.9,28.6,11L28.6,11z M27.8,12.7
		c0,0-0.5-0.2-0.2-0.3c0.4-0.2,0.7-0.6,0.8-0.7c0.1-0.1,0.2-0.1,0.1,0.1c-0.1,0.2-0.1,0.5-0.1,0.6c0,0.1,0.3,0.1,0.4,0.1
		c0.1,0,0.1,0.2,0,0.2c-0.1,0-0.4,0-0.4,0c-0.1,0,0,1.2,0,1.4c0,0.1,0.3,0.2,0.4,0.1c0.1-0.1,0.2,0,0.1,0.1
		c-0.1,0.1-0.3,0.4-0.5,0.5c-0.2,0.1-0.5,0-0.6-0.2C27.7,14.2,27.8,13.3,27.8,12.7L27.8,12.7z M26.7,14.7c-0.2-0.1-0.3-0.2-0.4-0.4
		c-0.5,0.2-0.6,0.4-0.9,0.6c-0.2-0.2-0.3-0.4-0.3-0.7c0-0.3,0.3-0.7,0.4-0.8c0,0,0,0-0.1,0c-0.1-0.1-0.1-0.5-0.1-0.6
		c0.1-0.1,0.5-0.7,0.8-0.7c0.2,0,0.4,0.3,0.6,0.5c0,0.1,0,1.1,0,1.2C27,14,27,14,27.2,13.9c0.1-0.1,0.2,0,0.1,0.1
		C27.2,14.1,26.8,14.6,26.7,14.7L26.7,14.7z M26.2,13.5c0-0.2,0-0.4,0-0.5c0-0.2-0.3-0.4-0.4-0.4c-0.1,0-0.2,0-0.3,0.2
		c-0.1,0.1,0,0.5,0,0.5C25.8,13.5,26,13.5,26.2,13.5L26.2,13.5z M25.7,13.6c-0.2,0.5,0,0.6,0.1,0.7c0.2-0.1,0.3-0.2,0.5-0.3
		c0-0.1,0-0.2,0-0.4C26,13.7,25.9,13.7,25.7,13.6L25.7,13.6z M32.4,10.8c0.1,0.3,0.6,0.7,0.8,0.8c0.2-0.3,0.3-0.7,0.3-1.1
		c0-0.3-0.4-0.6-0.8-0.8C32.3,9.9,32.3,10.4,32.4,10.8L32.4,10.8z M32.4,8c0.2-0.1,0.3-0.1,0.4-0.1c0-0.1,0-0.1,0-0.2
		c0-0.1,0-0.2,0-0.4C32.6,7.1,32.3,7,32,6.9c0,0,0.1,0,0.1,0.1C31.9,7.4,32.2,7.9,32.4,8L32.4,8z M31.8,6.6c0.2,0.2,0.7,0.4,1,0.5
		c0-0.2,0-0.4,0-0.6c0-0.1-0.5-0.4-0.6-0.4c-0.1,0-0.2,0.1-0.4,0.3C31.8,6.5,31.8,6.6,31.8,6.6L31.8,6.6z M21.8,18.8
		c-0.4,0-0.9,0.3-1.1,0.7c-0.3,0.3-0.2-0.4-0.8-0.1c-0.2,0.3,0.4,1,0.2,1c-0.6,0.2-0.5-0.9-0.8-0.9c-0.5,0.2-1.6,1.2-0.5,2.1
		c0-0.6,1.1-1.2,1.4,0.1c1.1-0.1,1.5,0.6,1.6,1c1.6,0.3,1.1,1.4,1.1,1.4c-0.2-0.2-0.8-1.3-2-0.6c-0.3,0.2-0.7,0.3-0.9,0.1
		c0,0.4,0.5,0.7,0.8,0.6c1-0.3,1.3,0.7,0.5,0.9c0.2,0.3,0.5,0.2,0.8,0.1c0.4-0.3,0.5-0.5,0.6-0.7c0.3,1.3-1.4,1.4-1.9,1.5
		c0.1,0.3,0.3,0.3,0.6,0.4c-1.8,0.1-2.1,1.7-2,2.7c0.4,0,1-0.8,1-0.3c-1.2,1.3-1.7,3.1-1,4.2c0.3-0.1,0.4-0.5,0.5-0.8
		c0,0,0.7,0.3-0.3,1.5c-0.1,0.3-0.4,1.3,0.4,1.5c0.3-0.4,0.3-0.7,0.3-1c0.2-0.1,0.4,0.6,0.3,0.9c-1,0.4-0.9,3.6,0.3,5.3
		c-0.6-1.2-0.5-2.8,0-4.1c0.4-1,1.2-3.2,1.2-3.1c0.5,0.6,1,3,1,4c0.6-0.6,0.8-1.2,1.3-1.6c0.2,0.9,0.3,1.5,0.5,2.2
		c0.3-0.8,0.9-1.6,0-4.1c0.2-0.2,0.6,0.8,0.7,0.8c0.1,0,0.2-0.5-0.1-1.5c-0.7-0.6-0.8-1.6-0.7-1.6c0.1-0.1,0.4,1,0.8,1
		c0.1-0.8,0.3-1.6,0.2-2.2c0-0.2-0.3-1-1-1.7c-0.4-0.4-0.6-1.2-0.6-1.4c0.4,0.4,0.3,0.7,0.7,0.8c0.1-0.3,0-1.6-0.4-2.1
		c-0.2-0.4-0.1-0.4,0.2-0.1c0.4,0.5,0.2,0.4,0.5,0.6c0.7-1.7,0.1-2.1,0.1-2.2c0-0.1,0.6,0.8,1,0.5c-0.7-0.4-0.7-1-0.8-1.6
		c-0.1-0.5-0.4-0.7-0.3-0.8c0.7,0.5,0.9-0.1,0.9-0.2c-0.1,0.1-0.8,0.2-0.9-0.8c0-0.4-0.6-0.6-0.6-0.6c0.4-0.1,1.6-0.1,1.3-1.3
		c-0.1,0.3-0.5,0.7-1.2,0.5c0,0,0.5-0.1,0.4-0.6C23.9,19.9,23,18.6,21.8,18.8L21.8,18.8z M23.9,20.3c-0.8,0.1-1.3,1-2.2,0.6
		c-0.1-0.1-0.3-0.1-0.3-0.3c0.2,0.1,0.4,0.1,0.6,0.2c0,0-0.5-0.4-0.1-0.8c-0.5,0.3-0.7,0.2-0.7,0.1c0-0.1,0.7-0.6,1.3-0.3
		C23,19.9,23.4,20.2,23.9,20.3L23.9,20.3L23.9,20.3z M22.7,20.3c0,0.2-0.2,0.4-0.2,0.4l0.8-0.4c-0.2-0.1-0.6-0.4-0.8-0.4
		C22.5,19.9,22.7,20.1,22.7,20.3L22.7,20.3z M17.9,16c2,0.1,3.8,1.1,3.8,1.1V3.9c0,0-3-2.1-7.9-0.2c-1.4,0.6-4.9,0.1-4.9,0.1v13.5
		C11.9,17.4,15.9,15.8,17.9,16L17.9,16z M16.4,8.9c0.4,0.1,1,0,1.2,0.6c0.2,0.6-0.2,1.3-0.6,1.3c-0.4,0-0.7-0.1-0.9-0.1
		c-0.1,0-0.2,0-0.2,0.1c0,0.1-0.2,0.2-0.2,0c0-0.1-0.1-0.8-0.1-1c0-0.2,0.2-0.2,0.2,0c0,0.2,0.1,0.3,0.2,0.5
		c0.1,0.1,0.9,0.3,1.1,0.1c0.2-0.2,0.2-0.6-0.1-0.7c-0.2-0.2-1.2-0.4-1.3-0.6c-0.3-0.5,0.2-0.8,0.4-1C16.5,7.9,16.9,8,17,8
		c0.1,0,0.3,0,0.3-0.1c0-0.1,0.1-0.1,0.1,0c0,0.4,0.1,0.2,0.1,0.6c0,0.2-0.1,0.2-0.2,0c-0.1-0.1-0.6-0.6-1.1-0.3
		C15.9,8.6,16.1,8.8,16.4,8.9L16.4,8.9z M17.6,11.6c-0.2,0.2-0.3,0.3-0.5,0.5c-0.1-0.1-0.3-0.3-0.5-0.4c0.2-0.1,0.4-0.3,0.5-0.4
		C17.2,11.5,17.4,11.5,17.6,11.6L17.6,11.6z M15,12.6c0.2-0.2,0.6-0.8,0.6-1c0-0.2,0.1-0.1,0.1,0.1c0,0.2-0.1,0.7-0.1,0.9
		c0,0.1,0.3,0,0.5,0c0.1,0,0.1,0.2,0,0.2c-0.1,0-0.5,0.1-0.5,0.1c-0.1,0,0,0.8,0,0.9c0.1,0.1,0.3,0.2,0.5,0c0.1-0.1,0.2,0,0.1,0.1
		c-0.1,0.1-0.3,0.4-0.4,0.6c-0.1,0.2-0.4,0-0.5-0.1c-0.2-0.3-0.1-0.8-0.1-1.4C15.3,12.9,14.9,12.7,15,12.6L15,12.6z M14.8,11
		c-0.1,0.1-0.4-0.1-0.5-0.2c-0.2-0.3-0.1-1-0.1-1.5c0,0-0.1-0.1-0.2-0.2c-0.1,0-0.2-0.1,0.1-0.2c0.3-0.1,0.7-0.8,0.8-0.9
		c0.1-0.1,0.1,0,0.1,0.1c-0.2,0.3-0.1,0.7-0.1,0.8c0,0.1,0.5,0,0.6,0c0.1,0,0.1,0.2,0,0.2c-0.1,0-0.8,0.1-0.8,0.1
		c0,0,0.1,1.1,0.1,1.2c0,0,0.2,0.2,0.3,0.1c0.1-0.1,0.2,0,0.1,0.1C15,10.7,14.9,10.9,14.8,11L14.8,11z M12.3,12.6
		c0.2-0.2,0.4-0.3,0.6-0.5c0.1,0.2,0.2,0.5,0.3,0.6c0.2-0.2,0.5-0.3,0.6-0.5c0.1,0.1,0.4,0.2,0.4,0.7c0,0.5,0.1,1.2,0.1,1.4
		c0,0.1,0,0.1,0.2,0c0.1,0,0.2,0,0.1,0.1c-0.1,0.1-0.6,0.4-0.7,0.5c-0.2-0.3-0.2-0.5-0.1-0.8c0.1-0.2,0-0.9,0-1.1
		c0-0.1-0.2-0.2-0.3-0.3c-0.1,0.1-0.2,0.1-0.3,0.2c0,0.2,0,1.6,0,1.8c-0.3,0-0.3,0-0.5,0c0-0.3,0-1.3,0-1.6
		C12.6,12.9,12.5,12.8,12.3,12.6L12.3,12.6z M10.2,13.4c0.1-0.9,1-1.3,1.3-1.5c0,0.3,0.4,0.7,0.5,0.9c-0.3,0.2-1,0.8-1.2,1
		c0.1,0.3,0.7,0.5,0.9,0.3c0.1-0.1,0.3-0.1,0.2,0.1c-0.2,0.2-0.4,0.6-0.5,0.8C10.9,14.8,10.1,14.3,10.2,13.4L10.2,13.4z M10,9.2
		c0.2-0.3,0.7-0.6,1.1-0.8c0.1,0.1,0.2,0.3,0.4,0.5c-0.2,0.1-0.3,0.3-0.4,0.4c-0.1-0.1-0.5-0.7-0.8-0.3c-0.2,0.2-0.3,0.9,0.2,1.3
		c0.3,0.2,0.5,0.3,0.9,0.2c-0.2,0.2-0.2,0.3-0.3,0.5c-0.5,0.1-0.7-0.1-1-0.3C9.5,10.4,9.7,9.7,10,9.2L10,9.2z M12.4,8
		c-0.1-0.1-0.1-0.3-0.3-0.2c-0.5,0.1-1,0.3-1.4,0.1C10.3,7.6,10,7.5,10,6.6c0-0.6,0.5-1,0.8-1.2c0.4-0.2,1-0.1,1.3,0
		c0.1,0,0.2,0,0.3-0.1c0-0.1,0.2-0.1,0.2,0c0,0.1,0,1.2,0,1.3c0,0.1-0.2,0.1-0.2,0c0-0.1,0-0.4-0.1-0.6c-0.1-0.3-0.8-0.8-1.4-0.1
		c0,0-0.2,0.4-0.2,0.7c0,0.2,0.1,0.5,0.2,0.7c0.4,0.6,1.1,0.4,1.4-0.1c0.1-0.2,0.1-0.4,0.1-0.5c0-0.1,0.2-0.1,0.2,0
		c0,0.1,0,0.8,0,0.9c0,0.1,0.1,0.2,0.1,0.2C12.7,8.1,12.5,8.2,12.4,8L12.4,8z M12.8,8.6c0.2,0,0.4,0.4,0.6,0.6
		c-0.1,0.1-0.1,1.3-0.1,1.4c0,0.1,0.2,0.2,0.2,0.1c0.1-0.1,0.2,0,0.1,0.1c-0.1,0.1-0.5,0.4-0.6,0.5c-0.1-0.1-0.2-0.3-0.2-0.5
		c-0.2,0.1-0.5,0.2-0.6,0.4c-0.3-0.1-0.5-0.4-0.5-0.6c0-0.3,0.2-0.4,0.4-0.6c0,0-0.1-0.1-0.1-0.1c-0.1,0-0.1-0.5-0.1-0.6
		C12,9,12.5,8.7,12.8,8.6L12.8,8.6z M15,5.6c-0.1,0.1-0.4,0.3-0.5,0.4c-0.1-0.1-0.3-0.3-0.4-0.4c0,0-0.1,0.1-0.2,0.1
		c0,0.2,0,1.6,0,1.8c-0.2,0-0.4,0-0.5,0c0-0.2,0-1.4,0-1.6c0-0.2-0.2-0.2-0.5-0.3c0.2-0.2,0.4-0.4,0.6-0.5c0.2,0.2,0.4,0.2,0.5,0.3
		c0.1-0.1,0.4-0.2,0.5-0.3c0.1,0.1,0.3,0.3,0.4,0.4C15,5.4,15.2,5.5,15,5.6L15,5.6z M17.2,7c-0.1,0.1-0.4,0.3-0.6,0.3
		c-0.6,0-1.5-0.5-1.3-1.4c0.1-0.9,0.8-1.3,1.1-1.3c0.4,0,0.4,0.3,0.6,0.5c-0.3,0.2-0.8,0.7-1.1,1C16,6.5,16.3,7,17,6.8
		C17.4,6.8,17.5,6.9,17.2,7L17.2,7z M19.8,5.5c-0.1,0.1-0.3,0.3-0.6,0.5c0,0,0.1,0,0.1,0c0.5,0.3,0.7,0.7,0.2,1.1
		c-0.3,0.2-0.7,0.5-1.2,0.5c-0.3,0-0.9-0.3-1-0.4C17.6,7,17.8,6.7,18,6.6c-0.3-0.2-0.6-0.5-0.4-0.9C17.8,5.4,18.4,5,18.9,5
		C19.3,5,19.6,5.3,19.8,5.5L19.8,5.5z M20.1,7.9l0.3,0.3v0.3l-0.2,0.2h-0.2l-0.2-0.2l0-0.4L20.1,7.9L20.1,7.9z M20.6,6.5
		c-0.7,0-0.5-0.3-0.4-0.3C20.8,6.2,20.7,6.5,20.6,6.5L20.6,6.5z M20.6,6.9c-0.7-0.1-0.5-0.3-0.4-0.3C20.8,6.7,20.7,6.9,20.6,6.9
		L20.6,6.9z M20.9,10.9l-0.3,0.3l-0.3,0.3c-0.2-0.2-0.3-0.2-0.3-0.4l0-1.2l-0.3-0.2c-0.2,0.2-0.3,0.1-0.2-0.1l0.6-0.5l0.1,0l0.2,0.4
		l0,1.3C20.6,10.9,20.6,10.8,20.9,10.9L20.9,10.9z M18.4,14.1c0-0.3,0.1-0.5,0.4-0.7c0,0,0,0,0,0c-0.1,0-0.2-0.6-0.1-0.7
		c0.1-0.1,0.6-0.6,0.9-0.6c0.2,0,0.5,0.4,0.7,0.6c-0.1,0.1,0.1,1.3,0.1,1.4c0.1,0.1,0.3,0.2,0.3,0.1c0.1-0.1,0.2,0,0.1,0.1
		c-0.1,0.1-0.4,0.3-0.5,0.4c-0.1-0.1-0.4-0.2-0.5-0.4c-0.3,0.1-0.6,0.3-0.9,0.5C18.5,14.6,18.4,14.3,18.4,14.1L18.4,14.1z
		 M17.9,10.4c-0.2-0.5,0.2-1,0.3-1.2c0.1-0.1,0.4-0.4,0.6-0.5c0.2,0.1,0.3,0.2,0.4,0.2c0,0.1-0.1,0.3-0.3,0.3
		c-0.3,0-0.6-0.1-0.7,0.1c-0.2,0.2,0,0.7,0.2,0.9c0.2,0.2,0.6,0.3,0.7,0.2c0.1-0.2,0.3-0.1,0.1,0.1c-0.1,0.1-0.3,0.4-0.4,0.6
		C18.6,11.1,18.1,10.9,17.9,10.4L17.9,10.4z M18,14l-0.2,0.3l-0.2,0.2c-0.2-0.2-0.3-0.2-0.3-0.4l0-1.2l-0.4-0.2
		c-0.2,0.1-0.3,0.1-0.2,0l0.6-0.5l0.1,0l0.4,0.5l0,1.1C17.9,13.9,17.8,13.9,18,14L18,14z M18.9,13.5c-0.4,0.3,0.1,0.6,0.2,0.7
		c0.1-0.1,0.3-0.1,0.4-0.1c0-0.1,0-0.1,0-0.2c0-0.1,0-0.2,0-0.3C19.3,13.6,19.1,13.6,18.9,13.5L18.9,13.5z M19.5,13.4
		c0-0.2,0-0.4,0-0.5c0-0.1-0.4-0.4-0.5-0.4c-0.1,0-0.1,0.1-0.2,0.2c-0.1,0.1,0,0.4,0,0.4C19.1,13.4,19.3,13.4,19.5,13.4L19.5,13.4z
		 M18.7,6C18.9,5.9,19,5.8,19,5.8c-0.2-0.2-0.5-0.4-0.7-0.4c-0.1,0-0.4,0.1-0.3,0.3C18.1,5.8,18.3,6,18.5,6C18.6,6,18.7,6,18.7,6
		L18.7,6z M18.5,6.5c-0.2,0.2-0.4,0.3-0.5,0.4c0.1,0.2,0.6,0.5,0.9,0.4c0.3-0.1,0.4-0.4,0.2-0.6C18.9,6.6,18.7,6.5,18.5,6.5
		L18.5,6.5z M15.9,6.1C16,6,16.3,5.7,16.5,5.5c-0.1-0.1-0.3-0.2-0.4-0.4C15.8,5.3,15.7,5.5,15.9,6.1L15.9,6.1z M12.8,10.7
		c0-0.1,0-0.1,0-0.2c0-0.1,0-0.3,0-0.5c-0.2,0.1-0.3,0.3-0.6,0.1c-0.4,0.3,0.2,0.5,0.3,0.6C12.7,10.8,12.8,10.7,12.8,10.7L12.8,10.7
		z M12.8,9.9c0-0.2,0-0.3,0-0.4c0-0.1-0.3-0.5-0.3-0.5c-0.1,0-0.3,0.2-0.4,0.3C12,9.5,12,9.7,12.1,9.9C12.4,10.1,12.5,10.1,12.8,9.9
		L12.8,9.9z M11.1,12.4c-0.7,0.5-0.6,1-0.4,1.3c0.1-0.1,0.6-0.4,0.8-0.6C11.4,13,11.2,12.6,11.1,12.4L11.1,12.4z M6.5,14.2h1.7v-1.6
		H6.5V14.2L6.5,14.2z M6.5,8.5h1.7V6.9H6.5V8.5L6.5,8.5z M4.6,11.8c-2,0-2,2.9,0,2.9C6.5,14.7,6.5,11.8,4.6,11.8L4.6,11.8z M4.6,6.1
		C2.7,6.1,2.7,9,4.6,9C6.5,9,6.5,6.1,4.6,6.1L4.6,6.1z M21.4,22.9c-0.1-0.2-0.3-0.5-0.6-0.6c-1.1-0.5-3.3,0.6-3.2-1.1
		c0,0-0.8,0.6-0.4,1.2C18,23.7,20.2,22,21.4,22.9L21.4,22.9z M11.4,36.5c-0.6,0.6-0.8,0.6-0.8,0.9c0.1,0.4,0.4,0.6,0.7,1
		c0.4,0.3,0.5,0.6,0.2-0.3C11.3,37.5,11.4,37.1,11.4,36.5L11.4,36.5z M7.1,24.7L7.1,24.7c0,1.3-3.6,3.2-5.1,4
		c2.4,0.8,4.7-1.4,4.4-0.9C6,28.5,3.1,31,1.8,32.3c1,0.3,1.9-0.5,2.6-1.1c0.8-0.7,2.1-2.3,1.9-1.5c-2.1,2.6-3.8,8.1-2.8,8.4
		c0.6-1.2,3-7.5,3.2-7.5c0.2,0-0.2,1.7-0.2,2.7c-0.1,2.4-0.1,3.5,0.4,5.8c0.3-0.4,0.5-0.4,0.9-0.3c0.1-0.2,0-0.2-0.2-0.5
		c-0.7-0.9,0.1-2.1-0.2-2.9c-0.3-0.6-0.4-0.1-0.5-0.8c0.2-0.2,0.7-0.2,0.9-0.3c0.2-2.4,1-3.7,0.7-2.1C8.3,33,8,34.3,8.1,34.4
		c0.1,0,0.1,0,0.2,0.1c0,0,4.1-6.6,1.8-2c-0.3,0.6-1.5,2.2-1.5,2.2C9,35,9.3,35.4,9.4,35.6c0,0.1,5.4-7.1,1.7-1.3
		c-0.2,0.4-1.3,1.5-1.6,1.9c0,0,0.1,1.3,0.1,1.3c0.6-0.4,1.4-1.2,1.7-1.7c0-0.7,0.1-0.6,0.2-1.4c0.2-0.1,0.4,0.2,0.7,0.4
		c0.1,0.1,3.7-6.1,1.5-1.4c-0.4,0.8-1.2,1.6-1.2,1.7c0.2,0.2,0.4,0.7,0.6,1.3c0,0,4.8-6.9,1.9-1.7c-0.2,0.4-1.7,2.1-1.7,2.2
		c0.4,0.9,0.7,1.7,0.7,1.7c-0.1-0.7-0.2-2,1.2-3.1c0.2,1.2,0.5,1.3,0.9,1.6c0.2,0.2,0.5,0.8,0.6,0.3c0.1-1.7-0.4-1.7-0.8-2.4
		c-0.1-0.2-0.1-0.6,0-0.5c3.4,0.1,3.3,3.3,3.9,3.3c-0.3-0.8-0.3-1.6,0-2.3c-0.9-0.7-0.7-1.8-0.5-2.3c-1-1.1-0.4-3.4,0.1-3.8
		c-0.7-1,0.2-1.6,0-2.2c-0.3-2.1-2.2-1.5-2.6-3.5c-0.3,0.4-0.8,1.6-0.6,2c0.3,0.5,0.9,0.5,1,0.8c0,0.1,0.1,0.5,0,0.6
		c-0.4,0.1-0.6-0.3-1-0.4c-0.7-0.3-2.5,0.9-2.6-0.1c-0.1-0.7,0.2-0.2,0.2-0.8c0-0.6-0.4-0.2-0.4-1c0-0.6,0.7-0.8,0.8-1
		c0.1-0.6,1.2,0.9,1.9-0.7c-0.4,0.1-1.1-0.2-1.1-0.6c0.2-1,0.2-3.4-2-2.9c-0.8,0.2-3,1.4-3.3,0.1c-0.8,1.4,0.8,1.2,1.3,1.1
		c-0.2,0.1-0.4,0.3-1,0.2c-1.3,0.8-5.9,3.8-7.2,4.5C4.3,26.4,7,24.7,7.1,24.7L7.1,24.7z M8.4,40.6c-0.4-0.2-0.9-0.3-1.3-0.6
		c0.3,0.9,0.5,1.8,1,2.8C8.4,43.4,8.9,42,8.4,40.6L8.4,40.6z"/>
</g>
<g>
	<g>
		<rect x="288.6" y="0.9" fill="#FFFFFF" width="1.3" height="53.2"/>
	</g>
	<g>
		<g>
			<path fill="#FFFFFF" d="M321.7,29h-8l4-9.7L321.7,29z M333.6,41.5l-12.8-30.1h-6.1l-12.8,30.1h6.7l2.7-6.7H324l2.7,6.7H333.6z"/>
		</g>
		<g>
			<g>
				<path fill="#FFFFFF" d="M334.1,41.6h6.5v-8.5c0-5.5,2.6-8.2,7-8.2h0.3v-6.3c-3.8-0.2-6,1.4-7.3,4.6v-4.6h-6.5V41.6z"/>
			</g>
			<g>
				<path fill="#FFFFFF" d="M358.9,42c2.2,0,3.8-0.5,5.1-1.3v-5.2c-0.9,0.5-2,0.8-3.2,0.8c-1.5,0-2.1-0.7-2.1-2.2v-9.1h5.4v-6.3
					h-5.4v-7.7h-6.5v7.7h-2.7v6.3h2.7v10.2C352.2,40.4,354.9,42,358.9,42"/>
			</g>
			<g>
				<path fill="#FFFFFF" d="M374.8,42c5,0,8.8-2.3,8.8-7.4v-0.1c0-4.2-3.7-5.7-6.9-6.8c-2.5-0.9-4.7-1.5-4.7-2.7v-0.1
					c0-0.9,0.8-1.6,2.4-1.6c1.7,0,3.9,0.8,6.2,2.1l2.5-4.5c-2.5-1.7-5.6-2.7-8.6-2.7c-4.6,0-8.4,2.6-8.4,7.3v0.1
					c0,4.4,3.6,5.9,6.8,6.9c2.5,0.8,4.7,1.2,4.7,2.7v0.1c0,1-0.9,1.7-2.7,1.7c-2.1,0-4.7-0.9-7.2-2.7l-2.8,4.3
					C368,40.9,371.6,42,374.8,42"/>
			</g>
		</g>
	</g>
</g>
</svg>
