<?xml version="1.0" encoding="utf-8"?>
<!-- Generator: Adobe Illustrator 18.1.1, SVG Export Plug-In . SVG Version: 6.00 Build 0)  -->
<svg version="1.1" id="Layer_1" xmlns="http://www.w3.org/2000/svg" xmlns:xlink="http://www.w3.org/1999/xlink" x="0px" y="0px"
	 viewBox="0 0 332.4 11.7" enable-background="new 0 0 332.4 11.7" xml:space="preserve">
<path d="M5.2,1.2H9V0H0v1.2h3.9v10.3h1.3V1.2L5.2,1.2z M22.6,6.3v5.2h1.3V0h-1.3v5.1H16V0h-1.3v11.5H16V6.3H22.6L22.6,6.3z M38.6,0
	h-8.3v11.5h8.4v-1.2h-7.1v-4h6.3V5.1h-6.3V1.2h7V0L38.6,0z M62.1,0h-1.3v6.7c0,2.5-1.3,3.8-3.5,3.8c-2.2,0-3.5-1.4-3.5-3.9V0h-1.3
	v6.7c0,3.2,1.9,5,4.8,5c2.9,0,4.8-1.7,4.8-5.1V0L62.1,0z M76.8,9.2L69.6,0h-1.2v11.5h1.3V2.1l7.4,9.4h1V0h-1.3V9.2L76.8,9.2z
	 M84.7,0v11.5H86V0H84.7L84.7,0z M97.1,9.9L93,0h-1.4l4.9,11.6h1.1L102.6,0h-1.4L97.1,9.9L97.1,9.9z M116.4,0h-8.3v11.5h8.4v-1.2
	h-7.1v-4h6.3V5.1h-6.3V1.2h7V0L116.4,0z M131.8,11.5l-3.5-4.7c1.8-0.3,3.1-1.4,3.1-3.4c0-2.1-1.6-3.4-4.1-3.4h-4.9v11.5h1.3V7h3.3
	l3.3,4.5H131.8L131.8,11.5z M130.1,3.5c0,1.5-1.2,2.4-2.9,2.4h-3.5V1.2h3.5C129,1.2,130.1,2,130.1,3.5L130.1,3.5z M138.4,2.9
	c0-1,1-1.9,2.4-1.9c1.2,0,2.2,0.4,3.3,1.2l0.8-1c-1.2-0.9-2.4-1.4-4-1.4c-2.2,0-3.8,1.3-3.8,3.1c0,1.9,1.2,2.8,3.9,3.3
	c2.4,0.5,3,1.1,3,2.2c0,1.2-1,2-2.6,2c-1.6,0-2.7-0.5-3.9-1.6l-0.8,1c1.4,1.2,2.9,1.8,4.7,1.8c2.3,0,3.9-1.3,3.9-3.3
	c0-1.8-1.2-2.7-3.7-3.3C139,4.6,138.4,4,138.4,2.9L138.4,2.9z M151.2,0v11.5h1.3V0H151.2L151.2,0z M163.4,1.2h3.9V0h-9v1.2h3.9v10.3
	h1.3V1.2L163.4,1.2z M177.8,6.9l4.8-6.9h-1.5l-3.9,5.7L173.3,0h-1.6l4.8,6.9v4.5h1.3V6.9L177.8,6.9z M207.2,5.7
	c0-3.2-2.3-5.9-5.8-5.9c-3.5,0-5.9,2.8-5.9,6c0,3.2,2.3,5.9,5.8,5.9C204.9,11.7,207.2,8.9,207.2,5.7L207.2,5.7z M205.9,5.8
	c0,2.6-1.9,4.7-4.5,4.7c-2.6,0-4.5-2.1-4.5-4.8s1.9-4.7,4.5-4.7S205.9,3.1,205.9,5.8L205.9,5.8z M221.4,0h-8.2v11.5h1.3v-5h6.2V5.3
	h-6.2V1.2h6.9V0L221.4,0z M245.2,9.7l-0.9-0.8c-1.1,1-2.1,1.7-3.7,1.7c-2.5,0-4.4-2.1-4.4-4.8c0-2.7,1.9-4.7,4.4-4.7
	c1.6,0,2.6,0.7,3.6,1.6l0.9-1c-1.1-1.1-2.4-1.8-4.5-1.8c-3.4,0-5.8,2.7-5.8,6c0,3.3,2.4,5.9,5.8,5.9C242.7,11.7,244,10.9,245.2,9.7
	L245.2,9.7z M258.6,6.3v5.2h1.3V0h-1.3v5.1h-6.6V0h-1.3v11.5h1.3V6.3H258.6L258.6,6.3z M266.5,0v11.5h1.3V0H266.5L266.5,0z
	 M284.2,9.7l-0.9-0.8c-1.1,1-2.1,1.7-3.7,1.7c-2.5,0-4.4-2.1-4.4-4.8c0-2.7,1.9-4.7,4.4-4.7c1.6,0,2.6,0.7,3.6,1.6l0.9-1
	c-1.1-1.1-2.4-1.8-4.5-1.8c-3.4,0-5.8,2.7-5.8,6c0,3.3,2.4,5.9,5.8,5.9C281.7,11.7,283,10.9,284.2,9.7L284.2,9.7z M295.1-0.1h-1.2
	l-5.2,11.6h1.3l1.4-3h6.2l1.3,3h1.4L295.1-0.1L295.1-0.1z M297.1,7.3h-5.2l2.6-5.9L297.1,7.3L297.1,7.3z M315.1,9.9V5.3h-4.7v1.2
	h3.5v2.9c-0.8,0.6-2,1.1-3.3,1.1c-2.8,0-4.5-2-4.5-4.8c0-2.6,1.8-4.7,4.4-4.7c1.6,0,2.6,0.5,3.5,1.3l0.8-1c-1.1-1-2.3-1.5-4.3-1.5
	c-3.4,0-5.8,2.8-5.8,6c0,3.3,2.2,5.9,5.8,5.9C312.4,11.7,314,10.9,315.1,9.9L315.1,9.9z M332.4,5.7c0-3.2-2.3-5.9-5.8-5.9
	c-3.5,0-5.9,2.8-5.9,6c0,3.2,2.3,5.9,5.8,5.9C330.1,11.7,332.4,8.9,332.4,5.7L332.4,5.7z M331.1,5.8c0,2.6-1.9,4.7-4.5,4.7
	c-2.6,0-4.5-2.1-4.5-4.8s1.9-4.7,4.5-4.7C329.2,1,331.1,3.1,331.1,5.8L331.1,5.8z"/>
</svg>
