<?xml version="1.0" encoding="utf-8"?>
<!-- Generator: Adobe Illustrator 16.0.0, SVG Export Plug-In . SVG Version: 6.00 Build 0)  -->
<!DOCTYPE svg PUBLIC "-//W3C//DTD SVG 1.1//EN" "http://www.w3.org/Graphics/SVG/1.1/DTD/svg11.dtd">
<svg version="1.1" id="Layer_1" xmlns="http://www.w3.org/2000/svg" xmlns:xlink="http://www.w3.org/1999/xlink" x="0px" y="0px"
	 width="719.58px" height="104.783px" viewBox="0 0 719.58 104.783" enable-background="new 0 0 719.58 104.783"
	 xml:space="preserve">
<g>
	<g>
		<path d="M518.26,7.388l0.033-0.064l-0.007-0.071c-0.065-1.267-0.104-2.902-0.104-4.605V2.311l-0.33,0.074
			c-0.425,0.098-2.578,0.098-4.663,0.098h-6.44c-1.318,0-2.488-0.03-4.045-0.103l-0.066-0.004l-0.066,0.03
			c-0.285,0.141-0.334,0.552-0.344,0.676c-0.02,0.306,0.07,0.548,0.246,0.664l0.674,0.111c1.775,0.215,1.863,0.408,1.863,4.146
			v12.599c0,3.7-0.088,3.893-1.863,4.107l-0.964,0.115l-0.068,0.064c-0.198,0.198-0.229,0.522-0.192,0.762
			c0.041,0.259,0.163,0.458,0.329,0.542l0.063,0.032l0.07-0.003c1.639-0.068,2.818-0.104,4.363-0.104
			c1.411,0,2.627,0.039,4.646,0.104l0.065,0.003l0.062-0.029c0.231-0.116,0.329-0.428,0.346-0.683
			c0.018-0.303-0.07-0.541-0.248-0.655l-1.312-0.149c-1.787-0.151-1.892-0.381-1.892-4.106v-4.866c0-0.677,0-0.677,0.886-0.677
			h2.383c1.228,0,2.142,0.029,2.61,0.163c0.49,0.155,0.759,0.479,0.944,1.14l0.368,1.45l0.064,0.054
			c0.346,0.298,1.088,0.28,1.309-0.057l0.049-0.067v-0.079c0-0.363-0.032-0.832-0.062-1.352c-0.036-0.635-0.078-1.353-0.078-2.045
			c0-0.709,0.042-1.459,0.078-2.119c0.029-0.545,0.062-1.036,0.062-1.415v-0.081l-0.049-0.068c-0.164-0.25-0.521-0.277-0.664-0.277
			c-0.293,0-0.543,0.095-0.68,0.254l-0.368,1.512c-0.195,0.85-0.43,0.934-0.696,1.028c-0.368,0.124-1.449,0.198-2.888,0.198h-2.383
			c-0.886,0-0.886,0-0.886-0.675V5.237c0-1.132,0-1.132,0.781-1.132h2.136c1.448,0,2.591,0,3.327,0.203
			c1.5,0.391,1.949,1.396,2.254,3.111l0.018,0.096l0.07,0.061c0.135,0.117,0.32,0.181,0.527,0.181
			C517.801,7.756,518.133,7.643,518.26,7.388L518.26,7.388z M494.771,14.196c0-5.912-3.887-12.272-12.412-12.272
			c-7.261,0-12.731,5.428-12.731,12.624c0,6.028,4.372,12.132,12.731,12.132C489.434,26.679,494.771,21.31,494.771,14.196
			L494.771,14.196z M490.732,15.281c0,7.216-4.268,9.774-7.918,9.774c-7.221,0-9.15-7.31-9.15-11.63c0-7.292,4.363-9.88,8.099-9.88
			C488.381,3.545,490.732,9.868,490.732,15.281L490.732,15.281z M462.107,74.94c0,15.119,11.252,28.475,29.896,28.475
			c16.214,0,29.148-12.35,29.148-29.312c0-14.782-9.746-28.811-29.148-28.811C474.707,45.292,462.107,58.143,462.107,74.94
			L462.107,74.94z M470.506,72.252c0-18.392,11.338-24.355,20.07-24.355c16.045,0,22.178,14.948,22.178,28.809
			c0,16.545-9.578,24.105-19.656,24.105C476.553,100.811,470.506,84.684,470.506,72.252L470.506,72.252z M451.948,3.727
			c0.181-0.156,0.273-0.408,0.254-0.678c-0.02-0.267-0.156-0.502-0.358-0.629l-0.071-0.045l-0.085,0.005
			c-2.488,0.144-3.958,0.144-6.585,0l-0.071-0.005l-0.062,0.031c-0.198,0.099-0.332,0.296-0.374,0.542
			c-0.044,0.282,0.044,0.574,0.229,0.764l0.068,0.067l0.721,0.078c0.681,0.087,1.104,0.253,1.228,0.344
			c-0.112,0.5-1.335,2.771-2.077,4.15l-0.162,0.298c-0.842,1.628-1.816,3.384-3.044,5.495c-0.923-1.667-1.823-3.498-2.692-5.273
			c-0.345-0.697-0.687-1.393-1.028-2.074c-0.251-0.508-1.042-2.295-1.055-2.574c0-0.07,0.161-0.211,1.24-0.365l0.544-0.082
			l0.066-0.064c0.186-0.189,0.269-0.535,0.195-0.838c-0.059-0.238-0.21-0.414-0.412-0.481l-0.052-0.017l-0.054,0.005
			c-0.859,0.067-2.111,0.103-3.726,0.103c-1.618,0-2.9-0.033-4.038-0.103l-0.08-0.005l-0.071,0.038
			c-0.169,0.101-0.288,0.282-0.329,0.518c-0.047,0.281,0.023,0.575,0.189,0.767l0.064,0.072l1.074,0.191
			c0.925,0.156,1.391,0.235,2.57,2.517l4.129,8.053c0.988,1.904,1.088,2.297,1.088,4.216v1.785c0,3.799-0.088,3.991-1.855,4.177
			l-1.182,0.112l-0.068,0.071c-0.197,0.2-0.229,0.527-0.188,0.765c0.044,0.259,0.161,0.453,0.332,0.539l0.061,0.029l0.066-0.003
			c1.885-0.069,3.113-0.104,4.572-0.104c1.422,0,2.676,0.04,4.754,0.104l0.068,0.003l0.061-0.029
			c0.169-0.086,0.289-0.283,0.332-0.542c0.037-0.239,0.006-0.564-0.192-0.765l-0.073-0.069l-1.426-0.111
			c-1.621-0.122-1.851-0.39-1.851-4.177V18.71c0-2.622,0.073-2.881,1.606-5.535l2.205-3.813c0.199-0.346,0.393-0.679,0.576-1
			c1.377-2.404,2.37-4.144,3.859-4.4l1.053-0.186L451.948,3.727L451.948,3.727z M439.683,46.553
			c-1.431-0.336-5.879-1.26-10.667-1.26c-12.683,0-20.998,3.945-26.623,9.827c-5.205,5.542-7.561,12.767-7.561,19.905
			c0,7.393,2.689,14.025,7.729,19.064c6.465,6.553,15.621,9.324,25.615,9.324c4.537,0,10.582-1.009,15.035-2.184
			c1.594-0.42,3.109-0.759,4.113-0.759c0.34-0.251,0.34-0.755,0.086-1.006c-1.51-0.589-2.018-2.603-2.018-5.962v-4.707
			c0-4.282,0.086-6.631,3.613-7.053l1.344-0.169c0.588-0.503,0.502-1.763-0.081-2.1c-2.776,0.169-5.632,0.251-8.906,0.251
			c-4.956,0-9.573-0.082-12.009-0.251c-0.589,0.251-0.674,1.765,0,2.1l3.693,0.423c5.205,0.586,5.459,1.091,5.459,8.145v3.361
			c0,2.686-0.42,4.199-0.838,4.785c-0.928,1.428-4.033,2.521-9.24,2.521c-16.883,0-25.197-12.686-25.197-28.811
			c0-12.598,7.141-24.189,23.435-24.189c8.567,0,14.866,2.859,17.217,11.929c0.503,0.503,2.019,0.42,2.269-0.254
			c-0.758-5.039-1.26-9.407-1.26-12.175C443.882,47.477,441.277,46.888,439.683,46.553L439.683,46.553z M425.366,1.948l0.026-0.099
			l-0.043-0.09c-0.13-0.262-0.491-0.291-0.645-0.291c-0.088,0-0.215,0.011-0.328,0.056l-0.088,0.034l-0.046,0.081
			c-0.452,0.78-0.638,0.844-2.5,0.844H407.28c-1.567,0-2.271-0.083-2.415-0.865l-0.017-0.082l-0.059-0.059
			c-0.098-0.098-0.257-0.144-0.483-0.144c-0.086,0-0.366,0.007-0.52,0.109l-0.101,0.064l-0.015,0.113
			c-0.249,1.398-0.767,3.614-1.32,5.172l-0.039,0.108l0.049,0.104c0.215,0.421,0.93,0.627,1.315,0.338L403.73,7.3l0.031-0.066
			c0.354-0.811,0.691-1.574,1.51-2.324c0.771-0.708,2.517-0.805,4.123-0.805h1.924c0.781,0,0.781,0,0.781,0.851v15.646
			c0,3.792-0.22,3.958-1.924,4.106l-1.26,0.105l-0.117,0.039c-0.21,0.127-0.327,0.391-0.312,0.699
			c0.012,0.236,0.103,0.527,0.332,0.644l0.061,0.027l0.068-0.001c2.142-0.064,3.434-0.104,4.854-0.104c1.37,0,2.5,0.034,4.576,0.104
			l0.068,0.003l0.061-0.029c0.288-0.144,0.334-0.555,0.344-0.677c0.018-0.305-0.07-0.546-0.244-0.661l-1.242-0.149
			c-1.753-0.151-1.855-0.381-1.855-4.106V4.912c-0.002-0.354-0.002-0.689,0.057-0.747c0.059-0.06,0.439-0.06,0.688-0.06h2.483
			c1.878,0,3.151,0.27,3.901,0.824c0.33,0.241,0.617,1.128,0.767,2.369l0.01,0.077l0.052,0.062c0.129,0.157,0.365,0.25,0.632,0.25
			c0.335,0,0.612-0.144,0.726-0.372l0.036-0.069l-0.01-0.076C424.746,6.165,424.99,3.346,425.366,1.948L425.366,1.948z
			 M393.459,20.532V8.073c0-3.825,0.107-4.061,1.883-4.213l0.952-0.074l0.056-0.039c0.174-0.116,0.264-0.358,0.244-0.664
			c-0.01-0.123-0.056-0.533-0.344-0.676l-0.061-0.03l-0.068,0.004c-1.658,0.063-2.896,0.103-4.329,0.103
			c-1.501,0-2.708-0.037-4.401-0.103l-0.068-0.004l-0.064,0.03c-0.283,0.145-0.332,0.555-0.342,0.679
			c-0.017,0.304,0.071,0.545,0.244,0.661l0.062,0.039l0.94,0.074c1.787,0.152,1.892,0.388,1.892,4.213v12.459
			c0,3.767-0.088,3.962-1.899,4.178l-0.967,0.115l-0.068,0.067c-0.195,0.197-0.225,0.523-0.188,0.762
			c0.039,0.259,0.16,0.456,0.326,0.539l0.064,0.032l0.068-0.003c1.781-0.069,2.949-0.104,4.401-0.104
			c1.39,0,2.546,0.035,4.329,0.104l0.068,0.003l0.061-0.029c0.288-0.145,0.337-0.557,0.344-0.679
			c0.018-0.306-0.07-0.545-0.244-0.659l-0.993-0.148C393.547,24.494,393.459,24.298,393.459,20.532L393.459,20.532z M387.695,99.971
			c-3.613-0.422-4.705-1.682-7.141-8.906l-11.507-33.762c-1.26-3.696-2.603-7.559-3.698-11.255
			c-0.166-0.586-0.755-0.757-1.258-0.757c-0.923,1.094-2.352,2.605-4.367,3.193c0.254,1.343-0.25,2.938-1.426,5.962l-8.57,22.679
			c-3.527,9.406-5.879,14.865-7.39,18.73c-1.175,3.021-3.024,3.947-5.036,4.115l-2.773,0.25c-0.506,0.42-0.335,1.765,0.168,2.102
			c2.266-0.083,5.291-0.254,8.062-0.254c3.948,0.086,6.556,0.086,8.735,0.254c0.754-0.337,0.754-1.682,0.166-2.102l-2.769-0.25
			c-2.017-0.168-2.437-0.674-2.437-1.682c0-0.923,0.588-3.191,1.848-6.971l2.939-8.818c0.589-1.765,1.092-2.016,3.191-2.016h12.684
			c2.52,0,2.854,0.251,3.444,2.1l3.694,11.42c0.674,2.018,1.088,3.531,1.088,4.453c0,0.84-1.172,1.346-2.934,1.514l-2.439,0.25
			c-0.588,0.42-0.503,1.765,0.168,2.102c2.438-0.083,5.625-0.254,9.658-0.254c3.782,0,6.722,0.086,10.164,0.254
			c0.42-0.337,0.586-1.682,0-2.102L387.695,99.971L387.695,99.971z M366.023,77.125h-10.33c-2.352,0-2.437-0.084-1.763-2.018
			l5.29-14.613c0.924-2.518,1.764-4.537,2.018-4.957h0.168c0.503,1.009,1.258,3.277,1.929,5.293l4.538,13.689
			C368.628,76.788,368.462,77.125,366.023,77.125L366.023,77.125z M369.453,7.163c0-1.352,0.503-3.617,3.896-3.617
			c3.086,0,4.025,2.008,4.502,3.758l0.051,0.1c0.113,0.137,0.301,0.212,0.527,0.212c0.27,0,0.623-0.106,0.774-0.34l0.044-0.068
			V7.127c0-1.431-0.293-3.43-0.643-4.365l-0.062-0.176h-0.186c-0.25,0-0.716-0.061-1.162-0.197c-0.836-0.226-2.146-0.466-3.32-0.466
			c-4.432,0-7.408,2.527-7.408,6.288c0,3.196,2.441,5.284,3.899,6.244l3.325,2.173c2.42,1.555,2.749,3.166,2.749,4.675
			c0,1.867-1.267,3.752-4.106,3.752c-3.54,0-5.09-2.729-5.762-5.021l-0.034-0.075c-0.104-0.154-0.296-0.241-0.534-0.241
			c-0.23,0-0.566,0.089-0.748,0.342l-0.051,0.077l0.002,0.09c0.066,1.583,0.516,4.173,0.975,5.018l0.037,0.066l0.065,0.038
			c0.687,0.4,2.604,1.331,5.593,1.331c4.622,0,7.723-2.712,7.723-6.746c0-2.797-1.47-5.07-4.497-6.944l-2.8-1.751
			C371.235,10.578,369.453,9.17,369.453,7.163L369.453,7.163z M360.637,26.271c0.162-0.127,0.244-0.334,0.215-0.539
			c-0.031-0.19-0.148-0.346-0.319-0.412l-0.075-0.018c-0.838-0.062-1.68-0.403-2.264-0.918c-2.41-2.021-4.326-4.974-6.975-9.245
			c-0.186-0.296-0.213-0.432-0.208-0.489c1.165-0.485,4.446-2.2,4.446-6.055c0-2.931-1.658-4.41-3.047-5.134
			c-1.758-0.954-4.002-1.083-5.973-1.083c-3.203,0-5.693,0.09-7.826,0.28l-0.098,0.027c-0.203,0.102-0.34,0.328-0.359,0.603
			c-0.024,0.301,0.088,0.59,0.283,0.734l0.059,0.04l1.187,0.146c1.146,0.139,1.306,0.387,1.306,3.826v12.566
			c0,3.7-0.082,3.892-1.859,4.106l-0.982,0.116l-0.065,0.079c-0.2,0.23-0.218,0.565-0.173,0.801c0.051,0.237,0.166,0.41,0.326,0.491
			l0.062,0.029l0.068-0.003c1.556-0.064,2.827-0.104,4.362-0.104c1.448,0,2.664,0.04,4.156,0.104l0.07,0.003l0.061-0.029
			c0.257-0.13,0.32-0.467,0.338-0.604c0.033-0.309-0.047-0.577-0.221-0.719l-0.056-0.048l-0.811-0.115
			c-1.8-0.25-1.87-0.403-1.87-4.107v-4.411c0-0.501,0-0.501,1.377-0.501c1.343,0,1.799,0.323,2.266,1.004
			c0.532,0.772,1.152,1.751,1.75,2.698c0.625,0.991,1.214,1.927,1.68,2.588c2.405,3.423,4.219,4.523,7.467,4.523
			c0.674,0,1.264-0.068,1.621-0.188L360.637,26.271L360.637,26.271z M350.088,13.249c-0.998,0.758-2.361,0.854-3.439,0.854
			c-1.58,0-2.066-0.059-2.213-0.104c-0.041-0.144-0.041-0.556-0.041-0.957V4.853c0-0.786,0-0.853,2.01-0.853
			c3.936,0,5.326,2.76,5.326,5.123C351.73,11.061,351.211,12.374,350.088,13.249L350.088,13.249z M332.002,21.143l0.018-0.084
			l-0.035-0.078c-0.15-0.337-0.524-0.487-0.824-0.487c-0.174,0-0.328,0.045-0.449,0.133l-0.086,0.099
			c-1.004,2.004-1.906,3.02-2.363,3.274c-0.754,0.375-1.814,0.495-4.36,0.495c-2.917,0-3.667-0.348-4.04-0.719
			c-0.494-0.527-0.592-1.665-0.592-3.454v-4.935c0-0.678,0-0.678,0.887-0.678h2.029c1.225,0,2.139,0.028,2.629,0.168
			c0.486,0.121,0.737,0.438,0.894,1.129l0.31,1.363l0.055,0.112c0.131,0.156,0.375,0.252,0.656,0.252
			c0.322,0,0.581-0.12,0.695-0.322l0.035-0.062v-0.073c0-0.342-0.027-0.793-0.057-1.299c-0.039-0.64-0.083-1.361-0.083-2.062
			c0-0.732,0.044-1.482,0.083-2.143c0.029-0.535,0.057-1.016,0.057-1.393V10.31l-0.035-0.061c-0.114-0.204-0.373-0.327-0.695-0.327
			c-0.281,0-0.525,0.096-0.656,0.254l-0.335,1.555c-0.159,0.8-0.354,0.918-0.664,1.021c-0.371,0.125-1.426,0.195-2.888,0.195h-2.029
			c-0.887,0-0.887,0-0.887-0.712V5.237c0-1.132,0-1.132,0.781-1.132h2.52c1.484,0,2.623,0.036,3.333,0.205
			c1.592,0.399,1.914,1.407,2.397,2.934l0.068,0.21l0.051,0.09c0.117,0.146,0.32,0.225,0.566,0.225c0.242,0,0.579-0.083,0.735-0.314
			l0.054-0.079l-0.047-0.517c-0.18-2.037-0.349-3.768-0.534-4.3l-0.085-0.229l-0.232,0.058c-0.391,0.096-2.561,0.096-4.658,0.096
			h-6.582c-1.35,0-2.502-0.03-4.116-0.103l-0.068-0.004l-0.062,0.03c-0.29,0.141-0.339,0.552-0.344,0.674
			c-0.021,0.306,0.066,0.548,0.239,0.666l0.681,0.113c1.787,0.212,1.897,0.443,1.897,4.144v12.599c0,3.792-0.22,3.955-1.929,4.106
			l-1.248,0.112l-0.07,0.068c-0.197,0.2-0.227,0.525-0.19,0.762c0.042,0.262,0.163,0.459,0.329,0.545l0.059,0.029l0.074-0.003
			c2.019-0.065,3.239-0.104,4.748-0.104h3.149c3.054,0,6.12,0.035,9.375,0.104l0.173,0.005l0.074-0.157
			C330.879,25.087,331.758,22.371,332.002,21.143L332.002,21.143z M307.996,3.712c0.189-0.19,0.219-0.524,0.189-0.751
			c-0.033-0.255-0.148-0.447-0.319-0.548l-0.071-0.038L307.72,2.38c-1.175,0.069-2.251,0.103-3.382,0.103
			c-1.374,0-2.695-0.037-3.62-0.103l-0.083-0.007l-0.07,0.042c-0.193,0.11-0.325,0.342-0.352,0.619
			c-0.027,0.279,0.062,0.537,0.241,0.692l0.063,0.053l0.711,0.08c1.223,0.139,1.335,0.396,1.335,0.396
			c0,0.23-0.034,0.58-0.293,1.269c-0.603,1.524-2.275,5.532-3.252,7.831c-0.259,0.595-0.586,1.373-0.947,2.229
			c-0.664,1.574-1.472,3.488-2.158,4.992c-1.655-3.804-3.181-7.622-4.729-11.522c-1.025-2.513-1.611-4.339-1.721-4.795
			c0.054-0.11,0.356-0.262,1.404-0.4l0.603-0.079l0.062-0.052c0.178-0.155,0.268-0.412,0.241-0.69
			c-0.026-0.277-0.159-0.511-0.352-0.621l-0.069-0.04l-0.077,0.005c-1.558,0.072-2.78,0.103-4.224,0.103
			c-1.46,0-2.578-0.032-3.621-0.103l-0.086-0.007L283.27,2.42c-0.203,0.127-0.338,0.362-0.359,0.631
			c-0.02,0.268,0.074,0.52,0.254,0.676l0.062,0.053l0.714,0.08c1.361,0.157,1.825,0.781,2.617,2.704l6.159,15.186
			c0.732,1.82,1.27,3.374,1.598,4.623l0.033,0.131l0.125,0.05c0.205,0.083,0.415,0.126,0.627,0.126c0.201,0,0.391-0.054,0.535-0.151
			l0.078-0.052l0.029-0.09c0.601-1.88,2.28-6.004,3.631-9.106l1.889-4.304c1.619-3.681,2.969-6.454,3.899-8.019
			c0.446-0.719,0.913-1.038,1.611-1.098l1.152-0.076L307.996,3.712L307.996,3.712z M285.145,52.43
			c-6.385,4.956-10.584,12.938-10.584,22.261c0,10.833,5.21,18.477,11.926,23.096c6.133,4.116,13.355,5.628,20.914,5.628
			c5.375,0,11.426-1.26,13.271-1.934c0.925-0.335,1.934-0.67,2.941-0.838c1.258-1.597,3.442-7.139,4.031-11.509
			c-0.338-0.586-1.6-0.755-2.186-0.337c-1.932,4.959-6.721,12.014-17.554,12.014c-13.772,0-24.946-9.746-24.946-27.38
			c0-17.388,10.92-25.534,23.771-25.534c12.178,0,15.96,6.55,17.217,12.263c0.586,0.503,1.849,0.417,2.266-0.169
			c-0.668-5.121-1.088-10.412-1.172-12.346c-0.759,0.086-1.348-0.086-2.351-0.334c-3.952-1.094-10.335-2.018-14.87-2.018
			C299.087,45.293,291.274,47.645,285.145,52.43L285.145,52.43z M274.404,20.532V8.073c0-3.786,0.126-4.062,1.89-4.213l0.943-0.074
			l0.06-0.039c0.174-0.116,0.264-0.36,0.243-0.666c-0.009-0.122-0.058-0.533-0.345-0.674l-0.062-0.03l-0.065,0.004
			c-1.656,0.063-2.894,0.103-4.332,0.103c-1.504,0-2.705-0.037-4.396-0.103l-0.068-0.004l-0.061,0.03
			c-0.289,0.143-0.338,0.553-0.346,0.676c-0.019,0.306,0.069,0.548,0.245,0.664l0.058,0.039l0.941,0.074
			c1.768,0.15,1.892,0.427,1.892,4.213v12.459c0,3.767-0.091,3.962-1.899,4.178l-0.967,0.115l-0.066,0.064
			c-0.199,0.2-0.229,0.527-0.189,0.767c0.041,0.259,0.162,0.457,0.332,0.54l0.061,0.029l0.068-0.003
			c1.777-0.069,2.947-0.104,4.396-0.104c1.386,0,2.591,0.036,4.332,0.104l0.065,0.003l0.062-0.029
			c0.29-0.144,0.339-0.556,0.345-0.677c0.021-0.305-0.069-0.547-0.245-0.661l-0.991-0.148
			C274.494,24.494,274.404,24.298,274.404,20.532L274.404,20.532z M256.84,89.305V59.403c0-8.901,0.167-10.33,5.123-10.75l2.1-0.168
			c0.504-0.337,0.334-1.848-0.168-2.1c-4.199,0.168-7.055,0.252-10.413,0.252c-3.529,0-6.386-0.084-10.585-0.252
			c-0.502,0.252-0.671,1.763-0.167,2.1l2.101,0.168c4.953,0.42,5.122,1.849,5.122,10.75v29.902c0,8.901-0.169,10.078-5.122,10.666
			l-2.101,0.25c-0.504,0.505-0.335,1.848,0.167,2.102c4.199-0.168,7.056-0.254,10.585-0.254c3.358,0,6.214,0.086,10.413,0.254
			c0.502-0.254,0.672-1.766,0.168-2.102l-2.1-0.25C257.007,99.383,256.84,98.207,256.84,89.305L256.84,89.305z M261.171,3.712
			c0.167-0.169,0.254-0.444,0.221-0.715c-0.028-0.251-0.151-0.46-0.337-0.577l-0.073-0.045l-0.085,0.005
			c-1.15,0.065-2.063,0.103-3.592,0.103c-1.235,0-2.388-0.03-4.116-0.103l-0.054-0.004l-0.051,0.019
			c-0.203,0.076-0.348,0.268-0.395,0.526c-0.057,0.312,0.037,0.629,0.241,0.806l0.062,0.053l0.676,0.078
			c1.201,0.15,1.812,0.33,1.977,0.578c0.418,0.662,0.656,3.248,0.656,7.099v7.49c0,0.34,0,0.731-0.021,1
			c-1.213-1.255-2.482-2.675-4.061-4.441l-4.869-5.462c-3.462-3.884-5.444-6.431-5.893-7.572l-0.078-0.199l-0.213,0.032
			c-0.419,0.063-0.991,0.101-1.568,0.101c-0.612,0-2.475,0-3.935-0.103l-0.074-0.005l-0.065,0.031
			c-0.187,0.095-0.315,0.286-0.354,0.528c-0.049,0.292,0.036,0.597,0.214,0.776l0.065,0.067l0.687,0.079
			c0.934,0.117,1.629,0.381,2.004,0.756c0.653,0.715,0.7,1.36,0.7,2.338v10.432c0.002,1.69,0.007,5.654-0.431,6.782
			c-0.081,0.18-0.379,0.417-1.324,0.544l-1.038,0.114l-0.068,0.068c-0.155,0.153-0.234,0.402-0.213,0.665
			c0.022,0.265,0.137,0.489,0.318,0.616l0.075,0.054l0.094-0.005c1.218-0.068,2.156-0.104,3.626-0.104
			c1.184,0,2.367,0.029,4.083,0.104l0.093,0.005l0.074-0.054c0.164-0.117,0.274-0.305,0.31-0.527
			c0.041-0.254-0.025-0.52-0.179-0.727l-0.071-0.095l-1.21-0.116c-0.838-0.068-1.426-0.266-1.572-0.532
			c-0.378-0.664-0.593-3.257-0.593-7.111V9.436c0-0.626,0.011-1.294,0.073-1.77c0.557,0.623,1.483,1.718,2.315,2.703
			c0.571,0.676,1.102,1.303,1.444,1.695l8.12,9.238c2.695,3.068,3.99,4.595,4.46,5.261l0.081,0.115h0.14
			c0.459,0,0.802-0.214,0.921-0.57l0.017-0.057l-0.007-0.06c-0.046-0.407-0.102-1.796-0.102-6.091l-0.002-8.839
			c-0.007-1.793-0.02-5.523,0.496-6.614c0.045-0.09,0.464-0.388,1.758-0.591l0.578-0.081L261.171,3.712L261.171,3.712z
			 M229.798,3.661c0.154-0.188,0.227-0.478,0.185-0.736c-0.035-0.218-0.149-0.397-0.322-0.505l-0.07-0.044l-0.085,0.005
			c-1.218,0.065-2.159,0.103-3.659,0.103c-1.343,0-2.644-0.033-3.977-0.103l-0.088-0.005l-0.074,0.049
			c-0.162,0.107-0.273,0.308-0.309,0.546c-0.035,0.263,0.031,0.514,0.182,0.691l0.072,0.087l0.986,0.074
			c0.803,0.067,1.35,0.281,1.537,0.602c0.408,0.72,0.633,3.244,0.633,7.11v4.027c0,4.122-1.168,9.039-6.731,9.039
			c-4.664,0-6.838-2.886-6.838-9.074V7.966c0-3.721,0.122-3.991,1.854-4.144l0.909-0.071l0.058-0.04
			c0.174-0.115,0.264-0.353,0.244-0.646c-0.016-0.245-0.115-0.545-0.344-0.658l-0.062-0.03L213.83,2.38
			c-1.658,0.065-2.834,0.103-4.292,0.103c-1.438,0-2.675-0.039-4.327-0.103l-0.068-0.004l-0.062,0.03
			c-0.229,0.112-0.328,0.412-0.345,0.655c-0.021,0.296,0.067,0.532,0.241,0.649l0.06,0.04l0.945,0.071
			c1.732,0.152,1.852,0.423,1.852,4.144v8.259c0,4.233,0.871,6.844,2.823,8.467c1.542,1.316,3.804,1.987,6.721,1.987
			c2.757,0,5.394-1.014,6.88-2.642c1.696-1.819,2.522-4.614,2.522-8.547v-3.956c0-1.774,0-5.928,0.466-7.026
			c0.163-0.353,0.762-0.621,1.526-0.686l0.954-0.074L229.798,3.661L229.798,3.661z M189.566,48.485
			c0.503-0.337,0.335-1.848-0.169-2.1c-3.611,0.168-6.467,0.252-9.742,0.252c-3.611,0-6.468-0.169-10.583-0.252
			c-0.505,0.252-0.673,1.763-0.168,2.1l2.183,0.168c4.369,0.335,4.957,1.764,4.957,10.582v30.236c0,8.818-0.169,9.658-4.872,10.5
			l-1.428,0.25c-0.504,0.505-0.336,1.848,0.168,2.102c3.275-0.083,6.132-0.254,9.743-0.254c3.275,0,6.131,0.086,10.667,0.254
			c0.504-0.254,0.672-1.766,0.167-2.102l-2.435-0.25c-4.704-0.505-5.124-1.682-5.124-10.5V77.627c0-2.52,0.168-2.686,4.2-2.686
			h24.021c4.032,0,4.199,0.166,4.199,2.686v11.844c0,8.818,0,9.658-5.124,10.5l-1.595,0.25c-0.505,0.505-0.337,1.848,0.168,2.102
			c3.694-0.168,6.72-0.254,10.162-0.254c3.276,0,6.133,0.086,10.163,0.254c0.504-0.254,0.671-1.766,0.169-2.102l-2.018-0.25
			c-4.871-0.588-5.038-1.682-5.038-10.5V59.235c0-8.818,0.167-10.078,5.038-10.582l1.766-0.168c0.504-0.337,0.335-1.848-0.169-2.1
			c-3.778,0.168-6.635,0.252-9.911,0.252c-3.442,0-6.3-0.084-10.162-0.252c-0.505,0.252-0.673,1.763-0.168,2.1l1.595,0.168
			c4.957,0.504,5.124,1.764,5.124,10.582v9.66c0,2.603-0.167,2.686-4.199,2.686h-24.021c-4.032,0-4.2-0.083-4.2-2.686v-9.66
			c0-8.818,0.168-10.078,5.04-10.582L189.566,48.485L189.566,48.485z M186.179,21.143l0.017-0.084l-0.035-0.078
			c-0.15-0.337-0.522-0.487-0.824-0.487c-0.172,0-0.328,0.045-0.451,0.133l-0.084,0.099c-1.004,2.004-1.908,3.02-2.365,3.274
			c-0.754,0.375-1.812,0.495-4.36,0.495c-2.915,0-3.666-0.348-4.038-0.719c-0.494-0.527-0.592-1.665-0.592-3.454v-4.935
			c0-0.678,0-0.678,0.886-0.678h2.031c1.222,0,2.135,0.028,2.628,0.168c0.487,0.121,0.736,0.438,0.889,1.129l0.314,1.363
			l0.055,0.112c0.131,0.156,0.376,0.252,0.656,0.252c0.318,0,0.579-0.12,0.695-0.322l0.036-0.062v-0.073
			c0-0.342-0.028-0.793-0.059-1.299c-0.038-0.64-0.082-1.361-0.082-2.062c0-0.732,0.044-1.482,0.081-2.143
			c0.031-0.535,0.06-1.016,0.06-1.393V10.31l-0.035-0.061c-0.117-0.204-0.378-0.327-0.698-0.327c-0.278,0-0.523,0.096-0.654,0.254
			l-0.337,1.555c-0.158,0.799-0.354,0.918-0.661,1.021c-0.372,0.125-1.426,0.195-2.888,0.195h-2.031c-0.886,0-0.886,0-0.886-0.712
			V5.237c0-1.132,0-1.132,0.781-1.132h2.52c1.487,0,2.621,0.036,3.33,0.205c1.596,0.399,1.917,1.407,2.402,2.934l0.067,0.21
			l0.048,0.09c0.119,0.146,0.321,0.225,0.569,0.225c0.241,0,0.579-0.083,0.734-0.314l0.053-0.079l-0.046-0.518
			c-0.182-2.038-0.348-3.767-0.536-4.299l-0.081-0.229l-0.236,0.058c-0.389,0.096-2.561,0.096-4.66,0.096h-6.58
			c-1.348,0-2.501-0.03-4.115-0.103l-0.068-0.004l-0.062,0.03c-0.288,0.141-0.338,0.552-0.345,0.674
			c-0.021,0.306,0.067,0.548,0.241,0.666l0.68,0.113c1.791,0.212,1.897,0.443,1.897,4.144v12.599c0,3.792-0.219,3.955-1.926,4.106
			l-1.25,0.112l-0.069,0.068c-0.2,0.2-0.23,0.526-0.191,0.767c0.041,0.259,0.162,0.454,0.33,0.54l0.061,0.029l0.068-0.003
			c2.022-0.065,3.24-0.104,4.749-0.104h3.151c3.052,0,6.118,0.035,9.373,0.104l0.174,0.005l0.073-0.157
			C185.053,25.092,185.933,22.375,186.179,21.143L186.179,21.143z M156.93,20.602V8.003c0-3.728,0.104-3.961,1.855-4.144
			l0.733-0.069l0.122-0.044c0.175-0.115,0.266-0.357,0.246-0.661c-0.008-0.124-0.055-0.536-0.342-0.679l-0.063-0.03l-0.068,0.004
			c-1.691,0.072-2.847,0.103-4.119,0.103c-1.517,0-2.74-0.041-4.222-0.103l-0.068-0.004l-0.062,0.03
			c-0.287,0.141-0.336,0.552-0.345,0.674c-0.02,0.306,0.068,0.55,0.244,0.666l0.787,0.113c1.786,0.183,1.894,0.416,1.894,4.144
			v4.022c0,0.852,0,0.852-1.481,0.852h-10.01c-1.48,0-1.48,0-1.48-0.852V8.003c0-3.728,0.105-3.961,1.86-4.144l0.663-0.069
			l0.122-0.044c0.175-0.116,0.264-0.358,0.244-0.664c-0.009-0.124-0.057-0.533-0.345-0.676l-0.062-0.03l-0.07,0.004
			c-1.593,0.072-2.766,0.103-4.047,0.103c-0.914,0-1.711-0.026-2.58-0.054c-0.562-0.017-1.152-0.037-1.823-0.051h-0.065
			l-0.058,0.028c-0.287,0.141-0.338,0.55-0.346,0.672c-0.021,0.307,0.067,0.55,0.242,0.668l0.06,0.039l0.979,0.074
			c1.543,0.119,1.817,0.437,1.817,4.144v12.599c0,3.643-0.067,3.797-1.807,4.109l-0.679,0.119l-0.06,0.059
			c-0.201,0.2-0.23,0.526-0.192,0.767c0.042,0.259,0.163,0.454,0.331,0.54l0.06,0.027l0.067-0.001
			c0.48-0.012,0.939-0.026,1.399-0.044c0.827-0.029,1.683-0.061,2.653-0.061c1.315,0,2.431,0.034,4.436,0.104l0.069,0.003
			l0.062-0.029c0.229-0.116,0.327-0.429,0.343-0.683c0.018-0.303-0.073-0.543-0.247-0.655l-1.135-0.149
			c-1.679-0.181-1.894-0.349-1.894-4.106v-4.938c0-0.849,0-0.849,1.48-0.849h10.01c1.481,0,1.481,0,1.481,0.849v4.938
			c0,3.722-0.037,3.8-1.908,4.107l-0.752,0.119l-0.062,0.063c-0.2,0.197-0.229,0.527-0.19,0.765
			c0.043,0.259,0.163,0.456,0.332,0.539l0.062,0.029l0.069-0.003c1.675-0.075,2.897-0.104,4.221-0.104
			c1.379,0,2.593,0.039,4.224,0.104l0.068,0.003l0.061-0.029c0.289-0.144,0.338-0.555,0.346-0.677
			c0.02-0.303-0.069-0.546-0.244-0.661l-0.955-0.148C157.017,24.495,156.93,24.302,156.93,20.602L156.93,20.602z M128.155,1.948
			l0.025-0.101l-0.047-0.093c-0.134-0.264-0.524-0.286-0.641-0.286c-0.088,0-0.216,0.011-0.329,0.056l-0.086,0.034l-0.048,0.081
			c-0.45,0.78-0.636,0.844-2.496,0.844h-14.468c-1.566,0-2.268-0.083-2.416-0.865l-0.016-0.082l-0.06-0.059
			c-0.097-0.098-0.255-0.144-0.481-0.144c-0.084,0-0.368,0.007-0.522,0.111l-0.096,0.062l-0.02,0.113
			c-0.244,1.394-0.762,3.605-1.317,5.172L105.1,6.901l0.051,0.102c0.21,0.423,0.93,0.627,1.312,0.34L106.52,7.3l0.027-0.066
			c0.355-0.807,0.691-1.571,1.511-2.324c0.77-0.708,2.518-0.805,4.124-0.805h1.924c0.781,0,0.781,0,0.781,0.851v15.646
			c0,3.792-0.218,3.955-1.923,4.106l-1.261,0.105l-0.118,0.039c-0.209,0.127-0.324,0.388-0.312,0.698
			c0.01,0.234,0.103,0.528,0.332,0.645l0.061,0.029l0.068-0.003c2.143-0.064,3.437-0.104,4.855-0.104
			c1.367,0,2.496,0.034,4.576,0.104l0.068,0.003l0.062-0.029c0.229-0.116,0.327-0.429,0.343-0.683
			c0.019-0.302-0.071-0.541-0.246-0.655l-1.244-0.149c-1.751-0.151-1.855-0.381-1.855-4.106V4.918c0-0.358,0-0.696,0.058-0.754
			c0.059-0.06,0.438-0.06,0.69-0.06h2.483c1.875,0,3.15,0.27,3.9,0.824c0.331,0.243,0.619,1.128,0.768,2.369l0.01,0.079l0.05,0.062
			c0.129,0.155,0.365,0.248,0.635,0.248c0.332,0,0.609-0.144,0.723-0.372l0.033-0.069l-0.007-0.076
			C127.535,6.162,127.778,3.342,128.155,1.948L128.155,1.948z M104.316,74.691c0,10.833,5.207,18.477,11.927,23.096
			c6.131,4.116,13.354,5.628,20.913,5.628c5.376,0,11.422-1.26,13.271-1.934c0.923-0.335,1.933-0.67,2.939-0.838
			c1.261-1.597,3.443-7.139,4.031-11.509c-0.336-0.586-1.596-0.755-2.183-0.337c-1.933,4.959-6.72,12.014-17.555,12.014
			c-13.774,0-24.945-9.746-24.945-27.38c0-17.388,10.919-25.534,23.77-25.534c12.178,0,15.958,6.55,17.219,12.263
			c0.586,0.503,1.848,0.417,2.266-0.169c-0.671-5.121-1.09-10.412-1.175-12.346c-0.757,0.086-1.343-0.086-2.352-0.334
			c-3.947-1.094-10.331-2.018-14.866-2.018c-8.734,0-16.546,2.352-22.677,7.137C108.516,57.386,104.316,65.368,104.316,74.691
			L104.316,74.691z M82.476,60.518L82.472,2.014C35.474-2.518,0,2.014,0,2.014s-0.001,58.5,0,58.514
			c3.745,39.658,40.889,44.316,41.241,44.254C47.875,103.583,79.017,97.323,82.476,60.518L82.476,60.518z M13.243,75.121
			c0.75,0.511,1.634,0.735,2.445,1.079c1.003,2.627,0.023,5.207-0.54,4.139C14.16,78.46,13.771,76.903,13.243,75.121L13.243,75.121z
			 M13.289,46.364l-0.062-0.059c-0.074,0-5.221,3.246-8.565,1.689c2.492-1.38,11.121-6.862,13.481-8.418
			c1.114,0.239,1.564-0.161,1.92-0.41c-0.902,0.057-3.892,0.522-2.38-2.153c0.58,2.398,4.773,0.191,6.277-0.153
			c4.194-0.966,4.164,3.518,3.807,5.369c-0.134,0.689,1.285,1.18,1.983,1.082c-1.202,2.962-3.254,0.169-3.499,1.299
			c-0.099,0.457-1.474,0.818-1.468,1.956c0.009,1.556,0.617,0.703,0.673,1.909c0.062,1.17-0.498,0.259-0.371,1.521
			c0.2,2.004,3.518-0.267,4.889,0.275c0.685,0.271,1.14,0.887,1.809,0.764c0.194-0.158,0.106-0.918,0.076-1.186
			c-0.07-0.641-1.247-0.713-1.797-1.582c-0.477-0.76,0.542-3.04,1.094-3.711c0.792,3.767,4.321,2.585,4.849,6.547
			c0.332,1.116-1.214,2.361,0.039,4.186c-0.93,0.905-2.049,5.189-0.101,7.204c-0.33,0.913-0.766,3.015,0.97,4.243
			c-0.583,1.245-0.45,2.764,0.042,4.309c-1.08,0.006-0.865-6.057-7.338-6.252c-0.145-0.044-0.18,0.688,0.007,1.018
			c0.775,1.36,1.817,1.285,1.594,4.488c-0.076,1.098-0.719-0.191-1.062-0.494c-0.784-0.693-1.39-0.783-1.731-3.041
			c-2.63,2.062-2.371,4.558-2.207,5.827c0.002,0.003-0.58-1.582-1.244-3.206c-0.035-0.088,2.671-3.342,3.102-4.118
			c5.46-9.829-3.526,3.179-3.545,3.135c-0.484-1.12-0.907-2.087-1.19-2.393c0.069-0.137,1.568-1.807,2.246-3.22
			c4.224-8.795-2.51,2.93-2.751,2.715c-0.509-0.457-0.929-1.031-1.251-0.826c-0.075,1.351-0.398,1.168-0.305,2.547
			c-0.704,0.939-2.215,2.417-3.271,3.146c0,0-0.264-2.441-0.193-2.526c0.531-0.647,2.608-2.874,3.033-3.538
			c6.92-10.869-3.241,2.617-3.259,2.503c-0.072-0.43-0.63-1.14-1.223-1.745c0,0,2.245-3.057,2.796-4.195
			c4.212-8.656-3.385,3.838-3.468,3.792c-0.183-0.095-0.202-0.093-0.413-0.166c-0.211-0.071,0.232-2.493,0.525-3.952
			c0.571-2.884-0.959-0.56-1.375,4.014c-0.39,0.061-1.338,0.16-1.697,0.485c0.232,1.221,0.521,0.28,1.033,1.452
			c0.61,1.406-0.854,3.707,0.421,5.394c0.492,0.649,0.521,0.542,0.424,0.97c-0.783-0.059-1.26-0.074-1.755,0.605
			c-0.964-4.381-0.935-6.49-0.708-10.938c0.101-2.024,0.765-5.086,0.462-5.143c-0.289-0.056-4.875,11.754-5.981,14.07
			c-1.934-0.654,1.204-10.877,5.191-15.793c0.375-1.568-2.091,1.586-3.563,2.842c-1.351,1.149-3.061,2.65-4.923,2.136
			c2.392-2.529,7.875-7.261,8.486-8.444c0.51-1.014-3.742,3.154-8.235,1.605C6.493,52.243,13.277,48.778,13.289,46.364
			L13.289,46.364z M21.377,68.578c0.018,1.077-0.059,1.875,0.255,2.969c0.509,1.653,0.254,1.143-0.439,0.573
			c-0.552-0.609-1.067-1.117-1.333-1.833C19.794,69.779,20.204,69.75,21.377,68.578L21.377,68.578z M32.235,41.965
			c-0.655-1.116,0.781-2.185,0.781-2.185c-0.043,3.143,3.974,0.986,6.071,1.983c0.504,0.234,0.857,0.676,1.066,1.143
			C37.898,41.349,33.729,44.515,32.235,41.965L32.235,41.965z M8.605,16.861c-3.585,0-3.51-5.377,0-5.377
			C12.134,11.484,12.134,16.861,8.605,16.861L8.605,16.861z M8.605,27.599c-3.667,0-3.667-5.376,0-5.376
			C12.134,22.223,12.156,27.599,8.605,27.599L8.605,27.599z M15.41,15.999h-3.126v-3.075h3.126V15.999L15.41,15.999z M15.41,26.71
			h-3.126v-3.075h3.126V26.71L15.41,26.71z M40.664,32.006c0,0-3.271-1.775-7.111-2.029c-3.713-0.248-11.215,2.72-16.973,2.328
			V6.996c0,0,6.566,0.873,9.264-0.167c9.174-3.54,14.82,0.414,14.82,0.414V32.006L40.664,32.006z M47.002,36.115
			c0.16,0.957-0.727,1.195-0.724,1.195c1.377,0.321,2.035-0.499,2.304-1.017c0.53,2.199-1.688,2.324-2.379,2.456
			c-0.001,0,1.123,0.322,1.182,1.055c0.147,1.86,1.344,1.704,1.602,1.556c-0.042,0.227-0.412,1.349-1.757,0.334
			c-0.228,0.227,0.367,0.571,0.484,1.496c0.152,1.166,0.114,2.25,1.463,2.961c-0.827,0.659-1.8-1.053-1.885-0.85
			c-0.097,0.229,1.148,0.859-0.222,4.087c-0.625-0.358-0.276-0.29-1-1.152c-0.555-0.462-0.773-0.566-0.311,0.198
			c0.809,1.008,0.999,3.317,0.721,3.939c-0.667-0.29-0.495-0.822-1.281-1.545c-0.072,0.308,0.241,1.838,1.053,2.57
			c1.403,1.266,1.9,2.796,1.926,3.099c0.111,1.149-0.25,2.663-0.387,4.147c-0.673-0.095-1.245-2.006-1.408-1.898
			c-0.199,0.129,0.084,1.869,1.354,3.057c0.613,1.794,0.367,2.758,0.203,2.822c-0.216,0.092-0.899-1.836-1.271-1.5
			c1.807,4.598,0.542,6.197,0.064,7.613c-0.374-1.453-0.562-2.537-1.03-4.183c-0.984,0.774-1.221,1.919-2.425,2.969
			c0-1.875-1.083-6.399-1.941-7.456c-0.04-0.047-1.553,4.058-2.242,5.884c-0.895,2.366-1.033,5.325,0,7.63
			c-2.23-3.174-2.47-9.078-0.545-9.876c0.167-0.42-0.115-1.81-0.545-1.638c-0.123,0.681-0.041,1.26-0.604,1.924
			c-1.477-0.433-0.804-2.234-0.671-2.832c1.916-2.298,0.718-2.83,0.629-2.77c-0.208,0.527-0.389,1.17-0.974,1.412
			c-1.229-2.112-0.441-5.428,1.893-7.906c0.099-0.925-1.044,0.691-1.788,0.633c-0.194-1.782,0.452-4.873,3.747-4.985
			c-0.629-0.186-0.965-0.3-1.117-0.825c0.996-0.146,4.121-0.386,3.604-2.852c-0.296,0.295-0.391,0.74-1.205,1.235
			c-0.548,0.332-1.144,0.361-1.453-0.12c1.448-0.48,0.97-2.243-0.922-1.726c-0.58,0.159-1.428-0.446-1.47-1.118
			c0.421,0.42,1.275,0.109,1.769-0.213c2.129-1.381,3.43,0.621,3.716,1.051c0.086,0,0.956-2-2.067-2.539
			c-0.253-0.703-0.943-1.948-2.996-1.793c-0.677-2.387-2.722-1.21-2.655-0.128c-2.174-1.601,0.038-3.621,0.916-3.935
			c0.608,0.05,0.475,1.979,1.543,1.654c0.258-0.078-0.831-1.328-0.413-1.895c0.979-0.56,0.958,0.718,1.441,0.24
			c0.24-0.836,1.202-1.304,1.994-1.393C43.144,34.875,44.871,37.31,47.002,36.115L47.002,36.115z M66.996,32.394
			c-4.825,0.33-14.837-2.417-17.383-2.417c-5.252,0-7.792,2.049-7.792,2.049s0.007-23.838,0-24.697c0,0,6.9-3.235,11.921-1.384
			C59.891,8.215,66.996,7.21,66.996,7.21V32.394L66.996,32.394z M73.351,22.656c2.66-0.39,3.061,2.749,3.061,2.749h-0.005
			c-0.655-0.52-1.972-0.756-2.863-0.181c-2.972,1.912-5.648,1.935-5.648,1.935v-4.794C67.895,22.365,68.458,23.369,73.351,22.656
			L73.351,22.656z M76.498,16.091c-0.02-0.143-0.049-0.358-0.092-0.667c-0.067-0.48-1.443-0.757-2.415-0.332
			c-1.36,0.593-4.769,2.54-6.012,2.17V12.47c3.067,1.331,4.266,0.128,5.251,0.128c3.028,0,3.181,2.826,3.181,2.826
			C76.451,15.733,76.48,15.949,76.498,16.091L76.498,16.091z M73.072,65.78c-0.896,0.232-3.26,1.177-3.83,2.104
			c0.303-5.11-1.348-10.127-1.873-11.341c-1.024-2.36,0.457,5.496,0.559,7.305c0.003,0.081-8.479-10.9-3.358-2.443
			c1.327,2.192,3.4,3.623,3.401,3.66c0.036,1.525-0.066,2.646-0.356,3.467c-0.522,0.414-11.55-14.676-5.454-4.225
			c0.756,1.297,5.178,5.218,5.141,5.299c-0.279,0.593-0.775,1.462-1.462,2.102c-0.115-0.117-2.544-1.906-2.56-2.017
			c-0.185-1.167-0.191-2.269-1.633-1.442c0,0-5.434-6.324-2.917-1.893c1.1,1.938,1.821,2.153,2.114,2.498
			c0,0-0.843,1.143-1.113,2.355c-0.11,0.486-4.711-5.1-2.905-1.592c0.578,1.125,2.682,2.354,2.659,2.432
			c-0.215,0.732-0.434,1.44-0.664,1.899c-0.289,0.583-4.329,3.804-4.324,3.804c0-0.002,0.791-2.554,2.508-3.804
			c0.981-0.716,0.983-0.56,1.633-0.967c-0.013-0.378-0.376-0.993-0.847-1.155c-0.59-0.207-2.502,0.14-2.502,0.14
			c0.18-0.957-0.658-3.021-0.647-5.288c-0.72,0.07-1.983,1.184-2.288,1.816c-0.222,3.758-1.038,2.632-1.803,5.337
			c-0.83-1.133,0.058-2.764-0.756-3.825c-1.121-1.458-1.29-2.444-1.456-4.238c0.263-0.145,1.406-1.409,0.364-4.059
			c-0.169-4.164,1.69-5.756-1.636-8.669c0.279-0.091,0.481-2.178,0.481-2.181c2.451,1.307,1.965-1.514,2.92-2.067
			c1.516-0.879,1.241-1.792,0.56-2.927c4.336,1.232-0.195,4.196,1.768,4.26c1.423,0.044,2.377-0.317,2.994-1.274
			c0.659-1.011-0.113-1.631,1.726-3.271c0.185-0.163,0.671-1.257-0.786-1.56c-0.32-0.066,0.002-1.314,0.002-1.314
			c-1.167,0.989-1.535,2.381-3.412,1.502c-0.961-0.451-1.584-0.01-1.978,0.181c0,0-0.199-0.784,0.595-1.052
			c2.055-0.689,2.562-1.509,2.45-1.958c-0.276-1.066-0.361,0-0.302-1.124c0.025-0.447,0.546-1.054,0.976-1.573
			c1.394-1.683,2.38-1.053,2.735-0.901c0.811-0.627,0.953-0.583,1.707-0.881c1.29-0.508,4.086,0.334,5.648,1.061
			c0.757,0.343,1.662,0.548,2.547,0.355c-0.009,0.454-0.328,0.7-0.646,0.791c-0.487,0.152-1.068,0-1.031,0.356
			c0.022,0.21,0.69,0.246,1.108,0.358c2.315,0.633,5.314,2.707,3.345,2.271c-0.232-0.051,1.42,1.235,2.667,2.907l4.415,4.289
			c-0.203,0.242-1.752,0.022-6.654-4.572c-0.697,0.623,5.963,5.643,8.713,10.972c-0.237,0.166-3.664-1.081-4.9-2.356
			c-1.903-1.97-4.091-6.977-4.99-6.244c-0.108,0.041,3.619,5.844,5.462,9.289c0.93,1.74,1.695,4.238,1.758,6.118
			c0.296,9.274-1.102,8.56-1.101,8.562c-2.172-7.307-3.188-15.795-6.358-19.711C68.218,49.782,72.872,58.194,73.072,65.78
			L73.072,65.78z M63.466,74.118c-0.98,0.859-1.619,1.164-1.406,0.739c0.238-0.479,0.415-0.882,0.548-1.237
			C62.652,73.502,63.466,74.118,63.466,74.118L63.466,74.118z M62.823,72.965c0.216-0.779,0.217-1.316,0.317-2.002
			c0.045-0.296,0.052-0.262,0.065-0.511c0.005-0.081,2.124,1.768,2.243,1.841c-0.531,0.666-0.987,0.906-1.494,1.379
			C63.596,73.36,62.803,73.041,62.823,72.965L62.823,72.965z M69.705,75.323c-2.943,2.91-7.357,1.855-10.837,3.414
			c-3.152,1.149-5.437,4.064-8.742,4.799c-0.972,0.315-1.132,0.801-0.512,0.784c0.362-0.01,2.378,2.095,5.602,0.472
			c1.076-0.54,4.421-2.405,4.985-2.51c-1.81,1.723-2.719,3.264-4.336,4.172c-0.99,0.557-5.023,2.002-9.046,1.219
			c-1.782-0.345-3.153,1.299-2.699,1.26c0.954-0.254,2.023-0.125,2.666,0.717c1.168,0.916,2.859,2.057,4.314,0.357
			c0.483-0.564,2.794-1.764,4.963,0.439c-2.308-0.123-2.079,4.033-6.453,3.545c-1.62-0.013-5.197-3.717-6.216-2.571
			c-1.809,2.031,3.885,3.96,1.42,6.517c-2.227,2.307-4.887-1.839-4.887-1.839c1.389,0.583,3.953,0.957,2.824-1.302
			c-0.448-0.896-1.301-1.703-1.301-3.361c-0.194-0.825-5.29,6.562-8.66,3.225c-1.325-1.311-4.008-4.187-6.437-5.283
			c6.435-0.547,7.414,2.029,7.722,2.441c2.058,2.779,3.96-0.041,4.397-0.537c0.671-0.764,1.62-1.813,1.283-1.973
			c-2.495-1.184-5.347-1.433-7.478-0.456c4.56-6.27,8.108-0.4,8.107-0.4c0.5,0.31-0.128-3.716-4.638-3.94
			c-2.817-0.137-5.296,2.397-7.237,2.395c-1.58-0.002-6.369-3.236-7.494-6.11c2.786,2.087,6.34,3.281,8.555,1.96
			c4.164-2.48,9.409,1.263,9.658,0.816c-1.163-0.911-3.812-4.463-10.963-2.439c-2.774,1.594-3.943-1.182-5.648-1.229
			c2.898-2.57,4.907-1.262,5.92-1.184c0.24,0-1.208-1.193-2.225-1.299c-7.901-0.822-12.907-2.996-12.907-2.996
			c-0.04,0,0.659-1.592,4.055-0.443c0,0-3.046-1.865-3.02-4.261c0.1-1.478,0.813-3.06-0.317-4.292
			c4.587-0.188,1.329,6.209,4.549,7.856c0.068,0.026-0.947-1.528,0.485-2.731c0.665,1.877,2.302,2.849,3.454,3.151
			c0.271-0.146,0.604-0.726,0.604-0.723c-1.212-2.005-1.371-4.339-1.046-7.012l0.049-0.026c0.261,0.012,0.701,0.918,1.011,1.584
			c0.669,1.438,0.653,3.508,1.986,5.215c0.738,0.939,1.194,1.877,1.856,2.334c0.286-0.666,0.075-1.812,0.031-2.117
			c-0.151-1.086-0.832-2.988,1.024-4.67c0.868,2.51,2.05,1.782,2.211,2.983c0.222,1.685,0.146,1.416-0.024,2.708
			c0.088,1.784,1.707,2.285,3.145,3.422c3.242,1.766,5.394,2.721,6.804,4.979c0.689-3.811-9.6-4.572-8.272-11.929
			c-0.138-2.937,0.366-3.184-1.717-4.976c4.129,0.119,6.379,6.896,6.603,8.133c0.413,2.272,1.793,2.393,3.688,5.354
			c0.272,0.1-3.389-7.896,0.977-14.741c0,0,1.47,3.558,0.776,5.889c-0.418,1.403-0.03,2.959,0.048,3.838
			c0.08,0.898-0.18-3.242,2.938-5.386c0.195,1.567,1.696,3.994,0.272,6.597c-1.73,3.164-1.857,2.026-1.883,5.921
			c0.156-0.068,0.604-2.686,1.793-4.17c2.51-3.141,0.717-4.827,3.167-7.547c0.194,1.359,0.542,0.82,0.688,2.033
			c0.328,2.718-2.511,5.693-1.883,5.604c0.723-0.103,1.883-0.732,2.271-2.793c0,0,1.046,1.883,0.09,2.51
			c-1.732,1.135-2.092,2.358-1.823,3.735c1.391-1.66,3.288-3.499,2.959-5.859c0.157-1.429,1.702-2.005,2.01-5.315
			c0.051-0.549,0.601-1.215,1.148-1.508c-0.24,1.859,1.207,3.783-0.438,6.062c0.375,0.198,1.765-1.777,3.796-1.058
			c-4.077,0.735-2.888,5.154-6.013,7.2c-0.94,0.618-0.78,1.309-1.062,1.387c2.789-0.159,4.94-3.481,5.312-3.735
			c2.806-1.895,3.418-2.186,4.54-5.259c0.438-1.169,0.12-1.687,1.673-3.262c0.682,1.556-0.309,4.778-0.543,5.472
			c-0.502,1.484-2.266,2.768-1.893,2.768c7.517-3.317,7.423-5.544,9.221-7.922c0.539-0.908,3.213-2.48,4.214-2.629
			c-0.244,0.495-1.284,1.33-1.332,2.229c-0.092,1.662-0.628,2.674-1.468,4.006c0.468,0.582,1.364-1.094,2.282-0.254
			C71.189,73.177,70.648,74.53,69.705,75.323L69.705,75.323z M70.961,74.883c-0.445,2.19-1.201,4.222-2.52,6.106
			c-0.923,1.338-1.297-1.263-0.503-3.779C69.066,76.761,70.195,75.885,70.961,74.883L70.961,74.883z M65.237,19.323
			c-0.175-0.065-0.539-0.133-0.772-0.133c-0.23,0-0.354,0.328-0.066,0.404c0.183,0.052,0.524,0.112,0.852,0.127
			C65.473,19.741,65.4,19.392,65.237,19.323L65.237,19.323z M64.383,20.373c0.18,0.055,0.509,0.104,0.846,0.13
			c0.212,0.024,0.144-0.33-0.021-0.396c-0.165-0.061-0.529-0.131-0.755-0.135C64.21,19.972,64.096,20.288,64.383,20.373
			L64.383,20.373z M64.383,25.163c-0.166-0.194-0.614-0.566-1.016-0.85c-0.23,0.188-0.705,0.533-1.008,0.691
			c-0.225-0.254-0.523-0.605-0.979-0.96c-0.274,0.188-1.065,0.911-1.399,1.102c0.482,0.012,1.2,0.171,1.227,0.62
			c0.017,0.361-0.026,2.627,0,3.042c0.294,0.063,0.643,0.031,1.072,0.008c0.02-0.32,0.013-2.933,0.02-3.25
			c0.145-0.08,0.313-0.161,0.397-0.233c0.166,0.123,0.671,0.703,0.963,0.858c0.199-0.151,0.724-0.612,0.954-0.828
			C64.855,25.123,64.593,24.968,64.383,25.163L64.383,25.163z M63.061,21.358c0.275-0.497,0.68-1.303,0.653-1.915
			c-0.036-0.75-0.498-1.868-1.603-2.235c-1.399,0.497-2.265,1.602-2.303,2.909c-0.025,0.763,0.625,2.337,1.968,2.347
			C62.188,22.065,62.626,21.643,63.061,21.358L63.061,21.358z M62.211,21.655c-0.259-0.127-1.204-0.857-1.421-1.415
			c-0.283-0.753-0.283-1.585,0.518-2.074c0.625,0.232,1.354,0.848,1.419,1.411C62.816,20.312,62.605,21.178,62.211,21.655
			L62.211,21.655z M62.176,15.833l1.007-1.1c0,0-0.447-0.351-0.713-0.676c0-0.23,0-2.433,0.098-2.551
			c-0.758-0.676-1.309-0.76-1.636-0.718c-0.611,0.092-1.239,0.878-1.438,1.143c-0.146,0.207-0.107,0.468,0,0.566
			c0.122,0.098,0.28,0.199,0.447,0.299c-0.027-0.017-0.055-0.033-0.083-0.045c-0.288,0.271-0.705,1.047-0.691,1.572
			c0.006,0.529,0.483,1.299,0.803,1.587c0.355-0.274,0.88-0.734,1.65-0.884C61.704,15.398,61.882,15.623,62.176,15.833
			L62.176,15.833z M61.57,13.295c-0.495-0.178-1.472-0.636-1.826-0.93c-0.095-0.073-0.104-0.117,0.011-0.301
			c0.226-0.336,0.483-0.629,0.662-0.614c0.153,0,1.147,0.531,1.115,0.812C61.568,12.458,61.573,12.877,61.57,13.295L61.57,13.295z
			 M61.577,14.786c-0.258,0.016-0.482,0.085-0.812,0.241c-0.271-0.22-0.974-1.07-0.456-2.019c-0.07-0.043-0.145-0.081-0.215-0.124
			c0.477,0.268,1.034,0.501,1.475,0.643c-0.005,0.377-0.017,0.718-0.017,0.841C61.551,14.529,61.563,14.661,61.577,14.786
			L61.577,14.786z M58.686,10.263c-0.238,0-1.828,0.032-1.868-0.058c-0.117-0.34-0.146-0.755,0.127-1.331
			c0.136-0.288-0.127-0.407-0.23-0.118c-0.1,0.282-0.896,1.381-1.723,1.736c-0.426,0.168,0.518,0.559,0.452,0.542
			c-0.004,1.059,0.147,2.647,0.375,3.286c0.14,0.379,0.57,0.994,0.866,0.807c0.191-0.12,0.607-0.945,0.739-1.051
			c0.229-0.186,0.005-0.504-0.188-0.312c-0.213,0.186-0.393-0.104-0.451-0.298c-0.071-0.189-0.266-2.52-0.168-2.563
			c0,0,1.881-0.229,2.068-0.229C58.813,10.674,58.82,10.263,58.686,10.263L58.686,10.263z M53.52,14.559l0.778-1.01
			c-0.565-0.097-0.798-0.201-1.191-0.649l0.017-2.505L52.328,9.6l-0.271,0.03l-1.244,1.093c-0.129,0.191,0.206,0.191,0.373-0.035
			l0.903,0.518l0.039,2.425c0.069,0.289,0.309,0.569,0.668,0.929H53.52L53.52,14.559z M52.847,8.997l0.438-0.379V8.008l-0.59-0.571
			L52.11,7.934l0.014,0.702l0.362,0.36H52.847L52.847,8.997z M50.853,8.223c-0.333-0.04-1.438,0.053-1.835,0.115
			c-0.398,0.061-0.398,0.255-0.067,0.296c0.331,0.034,0.395,0.104,0.568,0.548c0.16,0.448-0.637,2.478-0.836,2.956
			c-0.232-0.348-1.077-2.205-1.077-2.457c0-0.181,0.373-0.362,0.533-0.404c0.312-0.097,0.305-0.312,0.069-0.358
			c-0.66-0.093-2.987-0.298-3.399-0.348c-0.296-0.026-0.432,0.317-0.071,0.317c0.374,0.01,0.762-0.102,1.168,0.496
			c0.47,0.676,1.944,3.846,2.296,5.178c0.174-0.28,1.646-4.546,1.729-4.997c0.106-0.441,0.417-0.873,0.85-1.001
			C51.225,8.444,51.186,8.252,50.853,8.223L50.853,8.223z M43.872,18.535c0.02,1.777,0.726,1.926,1.532,2.39
			c0.765,0.434,2.048,0.346,3.011,0.092c0.364-0.106,0.562-0.128,0.551,0.187c0,0.198,0.275,0.155,0.275,0.008
			c0-0.145,0.013-1.634,0.013-1.797c0-0.186-0.269-0.159-0.269,0c0,0.249,0,0.322-0.244,0.676c-0.663,0.979-2.319,0.94-3.206-0.256
			c-0.305-0.408-0.58-0.955-0.229-1.058c0.349-0.107,1.415,0.112,2.119,0.174c0.424,0.026,1.397,0.127,1.521,0.196
			c0.108,0.082,0.273,0.185,0.273-0.029c0.009-0.208,0.009-0.893,0.009-1.104c0-0.204-0.159-0.105-0.278-0.032
			c-0.12,0.083-1.159,0.258-1.576,0.33c-0.419,0.078-1.708,0.181-2.048,0.065c-0.345-0.114-0.23-0.811,0.078-1.208
			c0.898-1.189,2.713-1.106,3.369-0.117c0.225,0.344,0.225,0.425,0.225,0.684c0,0.156,0.262,0.173,0.262,0
			c0.016-0.169,0.021-1.964,0.021-2.108c0-0.14-0.264-0.19-0.264,0c0,0.131-0.288,0.207-0.572,0.131
			c-0.563-0.178-2.206,0.076-2.938,0.477C44.858,16.606,43.859,17.461,43.872,18.535L43.872,18.535z M44.186,21.684
			c0.021,0.505,0.205,4.846,0.151,5.447c-0.035,0.346,0.427,0.71,0.849,0.996c0.204-0.246,0.65-0.896,1.019-1.168
			c0.218-0.18,0.067-0.297-0.1-0.229c-0.333,0.154-0.668,0.033-0.7-0.352c-0.031-0.386-0.031-4.117,0-4.657
			C45.147,21.721,44.426,21.708,44.186,21.684L44.186,21.684z M47.766,25.232c-0.287,0.271-0.802,0.976-0.791,1.498
			c0.009,0.532,0.265,1.045,0.573,1.331c0.526-0.368,0.856-0.874,1.731-1.21c0.107,0.407,0.396,0.47,0.737,0.728
			c0.206-0.221,0.949-1.137,1.113-1.298c0.165-0.156,0.07-0.316-0.164-0.156c-0.234,0.156-0.396,0.06-0.787-0.358
			c0.014-0.229-0.026-2.097,0.064-2.2c-0.358-0.386-0.687-0.908-1.108-0.869c-0.613,0.052-1.394,1.121-1.587,1.399
			c-0.154,0.2,0.007,0.965,0.122,1.062C47.711,25.195,47.73,25.2,47.766,25.232L47.766,25.232z M48.195,25.543
			c0.342,0.19,0.515,0.073,1.046,0.015c-0.002,0.336-0.011,0.638-0.013,0.797c-0.233,0.168-0.521,0.315-0.854,0.479
			C48.112,26.616,47.728,26.432,48.195,25.543L48.195,25.543z M47.915,24.005c0.224-0.342,0.364-0.407,0.542-0.407
			c0.162,0.01,0.784,0.437,0.752,0.725c0.03,0.188,0.037,0.579,0.035,0.976c-0.466,0.058-0.795,0.109-1.316-0.33
			C47.831,24.892,47.805,24.181,47.915,24.005L47.915,24.005z M51.673,23.317c-0.397,0.198,0.53,0.564,0.468,0.547
			c-0.013,1.05-0.225,2.769,0.137,3.313c0.222,0.335,0.73,0.554,1.07,0.423c0.326-0.133,0.743-0.782,0.867-0.89
			c0.242-0.181,0.035-0.373-0.167-0.188c-0.199,0.188-0.743,0.054-0.815-0.134c-0.057-0.198-0.127-2.491-0.031-2.537
			c0,0,0.654-0.013,0.829-0.008c0.137,0,0.147-0.416,0.012-0.416c-0.239-0.006-0.767-0.052-0.797-0.146
			c-0.079-0.217,0.019-0.915,0.154-1.198c0.14-0.287-0.127-0.413-0.233-0.132C53.059,22.249,52.372,22.97,51.673,23.317
			L51.673,23.317z M51.863,18.544c0.04,0.993-0.477,2.037-1.04,2.51c0.973-0.253,1.1-0.835,1.632-1.517
			c0.294,0.435,0.84,0.96,1.24,1.188c0.28-0.187,1.075-1.079,1.25-1.263c-0.574-0.154-1.682-0.74-1.957-1.357
			c-0.219-0.459-0.167-0.677,0.051-1.038c0.193,0.254,1.54,0.873,2.146-0.161c-0.662-0.239-1.258-0.675-1.46-1.026
			c-0.178,0.147-0.77,0.793-1.103,0.998c-0.078-0.354-0.621-0.737-1.063-0.816c-0.143,0.153-1.182,0.947-1.656,1.177
			c-0.146,0.071-0.091,0.387,0.114,0.308c0.193-0.084,0.515-0.327,0.886-0.505C51.332,17.208,51.819,17.646,51.863,18.544
			L51.863,18.544z M56.519,18.704c0.12-0.602,0.542-0.847,0.736-1.028c0.274,0.305,0.55,0.649,0.963,0.649
			c0.403,0.002,0.823-0.184,0.953-0.352c-0.332-0.269-1.091-1.067-1.243-1.216c-0.385,0.212-2.053,1.077-2.194,2.078
			c-0.202,1.477,0.265,1.77,0.912,2.577c0.364,0.463,0.974,0.483,1.251,0.413c0.299-0.208,1.391-1.244,1.512-1.375
			c0.109-0.127-0.049-0.243-0.185-0.114c-0.135,0.124-0.082,0.178-0.263,0.205c-0.186,0.029-0.929,0.153-1.361-0.071
			C57.061,20.187,56.357,19.521,56.519,18.704L56.519,18.704z M55.704,23.413c-0.247,0.251-0.677,0.539-1.081,0.986
			c0.335,0.024,0.612,0.095,0.771,0.416c0.165,0.316,0.026,1.654,0.049,2.169c0.027,0.501,0.33,0.608,0.728,1.023
			c0.396-0.101,1.501-0.562,1.874-0.818c-0.033,0.411,0.486,0.872,0.794,0.962c0.205-0.225,0.428-0.347,0.73-0.629
			c-0.295-0.196-0.256-0.223-0.366-0.616c-0.087-0.376,0.021-1.807,0.031-2.419c-0.234-0.355-0.619-0.779-1.012-1.074
			c-0.277,0.254-0.652,0.593-1.09,1.055c0.326-0.044,0.97,0.085,1,0.361c0.02,0.354,0.072,1.13,0,1.73
			c-0.073,0.605-1.705,0.33-1.728-0.08c-0.036-0.42,0.084-1.626,0.093-2.2C56.267,23.925,56.13,23.731,55.704,23.413L55.704,23.413z
			 M44.867,38.095v-0.061c-0.943-0.135-1.683-0.794-2.547-1.121c-1.193-0.452-2.461,0.469-2.461,0.616
			c0,0.321,0.34,0.487,1.306-0.122c-0.757,0.878,0.103,1.591,0.103,1.591c-0.313-0.048-0.763-0.153-1.051-0.319
			c-0.058,0.319,0.379,0.434,0.586,0.573C42.404,39.908,43.459,38.367,44.867,38.095L44.867,38.095z M42.169,38.911
			c0,0,0.425-0.462,0.423-0.791c-0.002-0.447-0.423-0.771-0.423-0.771c0.362,0.103,1.222,0.586,1.53,0.788L42.169,38.911
			L42.169,38.911z M33.387,26.758l0.459-0.508c-0.518-0.097-0.276-0.092-0.55-0.343l-0.016-2.106l-0.674-0.984l-0.254,0.032
			l-1.055,0.985c-0.279,0.244-0.033,0.361,0.292,0.093l0.697,0.359l0.017,2.231c0.059,0.275,0.303,0.338,0.644,0.688L33.387,26.758
			L33.387,26.758z M33.615,19.431c0.356,1.01,1.193,1.327,1.818,1.379c0.186-0.347,0.53-0.873,0.721-1.116
			c0.28-0.373-0.006-0.598-0.202-0.168c-0.151,0.329-0.961-0.029-1.256-0.312c-0.394-0.369-0.64-1.333-0.325-1.67
			c0.317-0.342,0.773-0.188,1.36-0.203c0.388-0.02,0.471-0.376,0.536-0.559c-0.188-0.088-0.467-0.246-0.834-0.467
			c-0.379,0.239-0.962,0.737-1.214,0.945C33.904,17.526,33.259,18.445,33.615,19.431L33.615,19.431z M35.137,24.996
			c-0.382,0.395-0.665,0.829-0.66,1.376c0.019,0.519,0.192,1.036,0.721,1.271c0.469-0.346,1.071-0.766,1.652-0.875
			c0.285,0.343,0.723,0.57,0.984,0.777c0.183-0.22,0.762-0.69,0.923-0.837c0.152-0.155,0-0.374-0.161-0.169
			c-0.123,0.188-0.531,0.053-0.647-0.141c0-0.221-0.213-2.56-0.118-2.668c-0.338-0.376-0.92-1.225-1.312-1.183
			c-0.569,0.059-1.422,0.874-1.605,1.139c-0.139,0.199,0.043,1.163,0.151,1.255C35.095,24.963,35.109,24.97,35.137,24.996
			L35.137,24.996z M36.635,25.197c-0.431,0.01-0.801-0.123-1.27-0.536c-0.089-0.074-0.172-0.608-0.071-0.782
			c0.206-0.329,0.206-0.43,0.387-0.427c0.14,0,1.005,0.522,0.96,0.802C36.674,24.453,36.657,24.831,36.635,25.197L36.635,25.197z
			 M35.496,25.275c0.395,0.267,0.621,0.232,1.118,0.184c-0.021,0.269-0.04,0.518-0.04,0.627c0,0.117,0.049,0.213,0.083,0.313
			c-0.257,0.092-0.584,0.148-0.837,0.272C35.592,26.471,34.75,25.898,35.496,25.275L35.496,25.275z M38.739,20.939l0.471-0.508
			c-0.527-0.1-0.527-0.064-0.81-0.317l0.021-2.438l-0.461-0.68l-0.245,0.034l-1.06,0.977c-0.287,0.256-0.031,0.378,0.287,0.095
			l0.547,0.333l0.021,2.297c0.056,0.274,0.298,0.368,0.635,0.718L38.739,20.939L38.739,20.939z M37.911,12.406
			c-0.218-0.012-0.549,0.388,0.726,0.518C38.835,12.947,39.101,12.478,37.911,12.406L37.911,12.406z M37.927,11.645
			c-0.211-0.012-0.54,0.568,0.73,0.521C38.856,12.159,39.003,11.708,37.927,11.645L37.927,11.645z M38.171,15.476l-0.545-0.565
			l-0.549,0.492l0.011,0.68l0.336,0.346h0.34l0.407-0.369V15.476L38.171,15.476z M37.061,10.258c-0.37-0.254-0.773-0.871-1.668-0.91
			c-0.899-0.037-1.912,0.774-2.242,1.287c-0.438,0.675,0.1,1.267,0.67,1.706c-0.365,0.313-0.873,0.795-1.343,1.235
			c0.188,0.204,1.217,0.691,1.794,0.676c0.874-0.018,1.681-0.468,2.179-0.867c0.908-0.719,0.593-1.483-0.331-2.022
			c-0.088-0.053-0.174-0.067-0.262-0.085C36.431,10.823,36.932,10.418,37.061,10.258L37.061,10.258z M34.766,12.138
			c0.305,0.138,0.613,0.274,0.949,0.474c0.487,0.276,0.237,0.801-0.288,1.042c-0.533,0.245-1.488-0.444-1.637-0.727
			C33.985,12.758,34.354,12.465,34.766,12.138L34.766,12.138z M35.729,10.857c-0.079,0.063-0.31,0.25-0.557,0.448
			c-0.145,0.025-0.294,0.042-0.445,0.023c-0.457-0.066-0.678-0.411-0.889-0.687c-0.217-0.291,0.345-0.531,0.621-0.501
			C34.739,10.178,35.359,10.512,35.729,10.857L35.729,10.857z M31.969,12.835c-1.336,0.336-1.961-0.734-2.095-1.021
			c0.539-0.552,1.458-1.455,2.019-1.914c-0.37-0.342-0.523-0.905-1.181-0.954c-0.573,0.016-1.909,0.664-2.144,2.362
			c-0.225,1.628,1.306,2.508,2.517,2.558c0.405,0,0.908-0.523,1.159-0.646C32.78,12.956,32.58,12.695,31.969,12.835L31.969,12.835z
			 M29.776,11.493c-0.337-1.086-0.21-1.458,0.464-1.994c0.151,0.372,0.538,0.643,0.754,0.772
			C30.613,10.642,30.022,11.311,29.776,11.493L29.776,11.493z M28.23,10.527c0.229-0.225-0.015-0.388-0.217-0.19
			c-0.151-0.182-0.538-0.581-0.744-0.822c-0.22,0.181-0.723,0.483-1.004,0.641c-0.22-0.252-0.49-0.252-0.931-0.597
			c-0.243,0.188-0.782,0.581-1.073,0.934c0.513,0.15,0.898,0.179,0.931,0.617c0.019,0.358-0.038,2.559-0.008,2.961
			c0.273,0.06,0.608,0.032,0.998,0.014c0.03-0.314,0.015-3.075,0.015-3.381c0.148-0.081,0.299-0.162,0.372-0.229
			c0.161,0.123,0.48,0.588,0.737,0.74C27.506,11.067,28.014,10.747,28.23,10.527L28.23,10.527z M24.011,16.227
			c-0.58,0.052-1.419,0.73-1.669,1.316c-0.102,0.231,0.042,1.074,0.149,1.167c0.075,0.068,0.135,0.114,0.201,0.164
			c-0.381,0.355-0.738,0.656-0.728,1.185c0.017,0.507,0.419,0.958,0.939,1.193c0.279-0.423,0.715-0.685,1.181-0.792
			c0.038,0.403,0.133,0.701,0.398,0.903c0.19-0.21,0.955-0.87,1.102-1.02c0.162-0.152,0.041-0.335-0.146-0.152
			c-0.112,0.104-0.386-0.05-0.466-0.183c0-0.22,0-2.554,0.098-2.661C24.725,16.974,24.397,16.184,24.011,16.227L24.011,16.227z
			 M24.057,18.595c-0.647,0.42-0.854,0.406-1.3-0.098c-0.221-0.255-0.201-0.739-0.099-0.923c0.201-0.314,0.554-0.635,0.721-0.631
			c0.146,0.01,0.668,0.644,0.632,0.919C24.038,18.017,24.049,18.3,24.057,18.595L24.057,18.595z M24.063,19.762
			c-0.005,0.127,0,0.234,0.002,0.35c-0.125,0.03-0.266,0.061-0.44,0.148c-0.237-0.201-1.361-0.57-0.626-1.164
			c0.453,0.266,0.627,0.059,1.064-0.21C24.065,19.265,24.063,19.625,24.063,19.762L24.063,19.762z M23.559,14.821
			c-0.079-0.102-0.229-0.262-0.236-0.467c0-0.134,0.017-1.542,0.017-1.717c0-0.166-0.333-0.148-0.333,0
			c-0.014,0.251,0.022,0.675-0.201,1.022c-0.617,0.953-1.792,1.348-2.619,0.176c-0.281-0.388-0.348-0.977-0.383-1.397
			c-0.057-0.562,0.369-1.285,0.394-1.352c1.052-1.378,2.511-0.354,2.629,0.205c0.077,0.374,0.162,0.832,0.162,1.072
			c-0.009,0.158,0.335,0.144,0.342-0.022c0-0.173,0.01-2.29,0.01-2.437c0.007-0.139-0.277-0.183-0.283,0
			c-0.017,0.333-0.213,0.363-0.47,0.28c-0.533-0.159-1.713-0.41-2.397-0.019c-0.603,0.355-1.527,1.188-1.511,2.232
			c0.019,1.72,0.668,1.866,1.422,2.329c0.706,0.416,1.684,0.147,2.575-0.111c0.354-0.097,0.397,0.127,0.567,0.379
			C23.53,15.38,23.764,15.134,23.559,14.821L23.559,14.821z M18.789,17.252c-0.597,0.912-0.922,2.349,0.109,3.188
			c0.485,0.405,0.889,0.723,1.88,0.547c0.196-0.393,0.284-0.524,0.632-0.979c-0.683,0.11-1.21-0.013-1.709-0.391
			c-1.026-0.796-0.708-2.078-0.405-2.518c0.554-0.822,1.342,0.354,1.482,0.514c0.183-0.22,0.499-0.53,0.808-0.774
			c-0.307-0.404-0.556-0.779-0.764-1.023C20.166,16.054,19.201,16.642,18.789,17.252L18.789,17.252z M19.213,25.126
			c-0.22,1.638,1.325,2.612,2.066,2.927c0.188-0.376,0.567-0.987,0.938-1.416c0.283-0.329-0.028-0.415-0.282-0.161
			c-0.343,0.374-1.362,0.018-1.633-0.476c0.493-0.371,1.777-1.445,2.338-1.904c-0.37-0.345-0.94-1.208-1.028-1.702
			C21.112,22.731,19.464,23.422,19.213,25.126L19.213,25.126z M20.808,23.351c0.149,0.38,0.624,1.102,0.839,1.229
			c-0.369,0.371-1.275,0.983-1.53,1.164C19.653,25.162,19.403,24.21,20.808,23.351L20.808,23.351z M24.186,22.756
			c-0.32,0.303-0.573,0.578-1.04,0.949c0.217,0.25,0.586,0.564,0.618,0.993c0.028,0.438,0.012,2.451,0.039,2.955
			c0.343,0,0.281,0.038,0.871,0.014c-0.059-0.342-0.01-2.958-0.01-3.331c0.222-0.211,0.254-0.243,0.506-0.434
			c0.183,0.161,0.609,0.254,0.609,0.535c0,0.283,0.084,1.523-0.016,1.982c-0.123,0.559-0.068,0.962,0.233,1.526
			c0.229-0.255,1.086-0.854,1.272-1.004c0.183-0.159,0.088-0.278-0.149-0.213c-0.254,0.054-0.3,0.103-0.3-0.059
			c0-0.3-0.119-1.662-0.137-2.534c-0.031-0.871-0.457-1.128-0.701-1.249c-0.251,0.28-0.808,0.629-1.142,0.912
			C24.589,23.615,24.464,23.198,24.186,22.756L24.186,22.756z M27.696,20.646c0.293-0.234,0.51-0.63,0.63-0.725
			c0.227-0.186,0.04-0.376-0.151-0.198c-0.152,0.149-0.552-0.197-0.569-0.221c-0.13-0.152-0.32-2.147-0.231-2.193
			c0,0,1.271-0.156,1.438-0.154c0.125,0.009,0.143-0.396,0.007-0.402c-0.207,0-1.176,0.134-1.21,0.039
			c-0.054-0.212-0.185-0.924,0.135-1.534c0.149-0.268-0.006-0.524-0.104-0.252c-0.112,0.277-0.908,1.512-1.422,1.715
			c-0.42,0.174-0.373,0.269-0.102,0.338c0.214,0.043,0.436,0.298,0.396,0.297c-0.042,1.023-0.143,2.288,0.175,2.825
			C26.889,20.517,27.444,20.867,27.696,20.646L27.696,20.646z M32.059,21.1c-0.158,0.311-0.41,0.594-0.873,0.804
			c0.281,0.246,0.647,0.56,0.889,0.72c0.278-0.31,0.532-0.596,0.854-0.897C32.609,21.665,32.244,21.505,32.059,21.1L32.059,21.1z
			 M30.059,19.971c0.403-0.034,1.053,0.209,1.774,0.148c0.857-0.061,1.53-1.39,1.16-2.423c-0.345-0.983-1.439-0.811-2.177-1.046
			c-0.678-0.185-0.957-0.61-0.219-1.096c0.869-0.56,1.947,0.338,2.051,0.527c0.158,0.287,0.292,0.282,0.292-0.09
			c0.022-0.812-0.052-0.354-0.134-1.117c-0.026-0.274-0.227-0.298-0.244-0.035c-0.018,0.267-0.344,0.186-0.588,0.186
			c-0.249-0.006-0.974-0.115-1.6,0.231c-0.398,0.231-1.311,0.945-0.8,1.801c0.299,0.5,2.048,0.905,2.483,1.194
			c0.438,0.284,0.535,1.02,0.117,1.356c-0.521,0.412-1.936,0.065-2.153-0.184c-0.287-0.318-0.396-0.581-0.456-0.947
			c-0.061-0.376-0.377-0.344-0.377,0c0,0.343,0.081,1.519,0.143,1.795c0.059,0.286,0.345,0.192,0.371-0.027
			C29.735,20.045,29.87,19.987,30.059,19.971L30.059,19.971z M28.225,23.637c-0.332,0.249,0.393,0.599,0.328,0.578
			c0.026,1.028-0.123,2.085,0.226,2.605c0.223,0.324,0.911,0.562,1.03,0.251c0.116-0.312,0.64-0.952,0.756-1.059
			c0.218-0.191,0.025-0.367-0.157-0.179c-0.378,0.4-0.589,0.215-0.867-0.049c-0.134-0.151-0.185-1.59-0.088-1.633
			c0,0,0.693-0.101,0.859-0.101c0.13,0,0.119-0.399-0.017-0.399c-0.208,0-0.827,0.006-0.862-0.092
			c-0.077-0.197,0.123-1.167,0.158-1.602c0.028-0.305-0.137-0.402-0.22-0.117C29.283,22.122,28.617,23.351,28.225,23.637
			L28.225,23.637z"/>
	</g>
</g>
<g>
	<rect x="540.918" y="2.391" width="2.5" height="100"/>
</g>
<g>
	<g>
		<path d="M603.108,55.221H588.15l7.479-18.262L603.108,55.221z M625.63,78.789l-24.132-56.706h-11.42l-24.126,56.706h12.628
			l5.142-12.63h23.809l5.149,12.63H625.63z"/>
	</g>
	<g>
		<g>
			<path d="M626.593,78.867h12.232V62.938c0-10.296,4.982-15.333,13.109-15.333h0.639V35.78c-7.239-0.322-11.26,2.71-13.748,8.661
				v-8.69h-12.232V78.867z"/>
		</g>
		<g>
			<path d="M673.171,79.59c4.098,0,7.074-0.967,9.649-2.495v-9.813c-1.769,0.965-3.782,1.53-6.033,1.53
				c-2.733,0-3.941-1.367-3.941-4.182V47.53h10.14V35.754h-10.14V21.202h-12.225v14.552h-5.148V47.53h5.148v19.108
				C660.621,76.613,665.689,79.59,673.171,79.59"/>
		</g>
		<g>
			<path d="M703.091,79.67c9.328,0,16.489-4.345,16.489-13.917v-0.16c0-7.884-7.004-10.778-13.036-12.791
				c-4.66-1.607-8.767-2.731-8.767-5.145v-0.163c0-1.688,1.53-2.971,4.509-2.971c3.135,0,7.399,1.524,11.663,4.018l4.661-8.444
				c-4.661-3.139-10.616-4.988-16.086-4.988c-8.688,0-15.764,4.909-15.764,13.674v0.16c0,8.364,6.84,11.18,12.869,12.949
				c4.747,1.45,8.928,2.334,8.928,4.987v0.162c0,1.93-1.61,3.214-5.15,3.214c-4.02,0-8.925-1.767-13.591-5.147l-5.229,8.045
				C690.299,77.66,697.057,79.67,703.091,79.67"/>
		</g>
	</g>
</g>
</svg>
