<?xml version="1.0" encoding="utf-8"?>
<!-- Generator: Adobe Illustrator 19.0.1, SVG Export Plug-In . SVG Version: 6.00 Build 0)  -->
<svg version="1.1" id="Layer_1" xmlns="http://www.w3.org/2000/svg" xmlns:xlink="http://www.w3.org/1999/xlink" x="0px" y="0px"
	 viewBox="0 0 166.3 269.74" style="enable-background:new 0 0 166.3 269.74;" xml:space="preserve">
<style type="text/css">
	.st0{fill:#D6D6CE;}
	.st1{fill:#FFFFFF;}
	.st2{fill:#FAA61A;}
	.st3{fill:#D2D2CA;}
</style>
<g>
	<path class="st0" d="M11.17,64.44C4.8,64.44,0,59.26,0,52.89V11.55C0,5.19,4.8,0,11.17,0c6.37,0,11.17,5.19,11.17,11.55v13.67
		h-9.28V11.79c0-1.02-0.87-1.88-1.89-1.88c-1.02,0-1.88,0.86-1.88,1.88v40.87c0,1.02,0.86,1.89,1.88,1.89
		c1.02,0,1.89-0.87,1.89-1.89V39.21h9.28v13.69C22.34,59.26,17.54,64.44,11.17,64.44"/>
	<polygon class="st0" points="39.25,63.66 39.25,37.41 35.47,37.41 35.47,63.66 25.8,63.66 25.8,0.79 35.47,0.79 35.47,27.9 
		39.25,27.9 39.25,0.79 48.92,0.79 48.92,63.66 	"/>
	<rect x="53.4" y="0.79" class="st0" width="9.68" height="62.86"/>
	<path class="st0" d="M78.42,64.44c-6.37,0-11.17-5.18-11.17-11.55V11.55C67.25,5.19,72.05,0,78.42,0c6.37,0,11.17,5.19,11.17,11.55
		v13.67h-9.28V11.79c0-1.02-0.87-1.88-1.89-1.88c-1.02,0-1.89,0.86-1.89,1.88v40.87c0,1.02,0.87,1.89,1.89,1.89
		c1.02,0,1.89-0.87,1.89-1.89V39.21h9.28v13.69C89.59,59.26,84.79,64.44,78.42,64.44"/>
	<path class="st1" d="M18.02,123.98c0-2.52-0.88-3.5-2.3-3.5h-2.26v24.4h2.26c1.42,0,2.3-0.98,2.3-3.49V123.98z M18.02,87.43
		c0-2.51-0.88-3.49-2.3-3.49h-2.26v23.3h2.26c1.42,0,2.3-0.98,2.3-3.49V87.43z M16.8,158.14H0V70.56h16.8
		c6.45,0,14.35,3.73,14.35,14.89v19.05c0,4.15-2.3,6.78-5.7,9.07c3.4,2.3,5.7,4.93,5.7,9.09v20.57
		C31.15,154.41,23.26,158.14,16.8,158.14"/>
	<path class="st1" d="M55.08,85.9c0-1.43-1.2-2.63-2.63-2.63c-1.43,0-2.63,1.2-2.63,2.63v56.91c0,1.43,1.2,2.63,2.63,2.63
		c1.42,0,2.63-1.2,2.63-2.63V85.9z M52.45,159.23c-8.87,0-16.09-7.22-16.09-16.09V85.57c0-8.88,7.22-16.11,16.09-16.11
		c8.87,0,16.09,7.23,16.09,16.11v57.56C68.54,152.01,61.32,159.23,52.45,159.23"/>
	<path class="st1" d="M92.9,85.9c0-1.43-1.21-2.63-2.63-2.63c-1.42,0-2.63,1.2-2.63,2.63v56.91c0,1.43,1.21,2.63,2.63,2.63
		c1.42,0,2.63-1.2,2.63-2.63V85.9z M90.27,159.23c-8.87,0-16.09-7.22-16.09-16.09V85.57c0-8.88,7.23-16.11,16.09-16.11
		s16.09,7.23,16.09,16.11v57.56C106.36,152.01,99.14,159.23,90.27,159.23"/>
	<polygon class="st1" points="126.54,83.93 126.54,158.14 113.41,158.14 113.41,83.93 107.47,83.93 107.47,70.56 132.52,70.56 
		132.52,83.93 	"/>
	<polygon class="st1" points="152.54,158.14 152.54,121.57 147.29,121.57 147.29,158.14 133.83,158.14 133.83,70.56 147.29,70.56 
		147.29,108.34 152.54,108.34 152.54,70.56 166,70.56 166,158.14 	"/>
	<path class="st0" d="M115,63.66l-6.54-62.86H96.91l-6.37,62.86h8.73l0.87-10.6h4.4l0.56,10.6H115z M103.98,43.47h-3.06l1.81-26.86
		L103.98,43.47z"/>
	<path class="st0" d="M133.7,63.66l-0.78-1.25c-1.58,1.35-3.78,2.04-6.22,2.04c-6.14,0-10.07-4.48-10.07-11.55V11.55
		c0-6.36,4.8-11.55,11.17-11.55c6.37,0,11.17,5.19,11.17,11.55v13.67h-9.29V11.79c0-1.02-0.86-1.88-1.89-1.88
		c-1.02,0-1.89,0.86-1.89,1.88v41.65c0,1.02,0.87,1.89,1.89,1.89c1.03,0,1.89-0.86,1.89-1.89V41.25h-1.89v-8.33h11.32v30.73H133.7z"
		/>
	<path class="st0" d="M165.89,52.89V11.55c0-6.36-5.21-11.55-11.58-11.55c-6.37,0-11.56,5.19-11.56,11.55v41.34
		c0,6.36,5.19,11.55,11.56,11.55C160.68,64.44,165.89,59.26,165.89,52.89 M156.19,52.66c0,1.02-0.86,1.89-1.88,1.89
		c-1.03,0-1.9-0.87-1.9-1.89V11.79c0-1.02,0.86-1.88,1.9-1.88c1.02,0,1.88,0.86,1.88,1.88V52.66z"/>
	<path class="st2" d="M4.42,265.33h157.47v-96.36H4.42V265.33z M166.3,269.74H0V164.55h166.3V269.74z"/>
	<path class="st3" d="M96.84,257.27h1.64v-9.33h-1.64V257.27z M102.09,257.27h1.61v-6.67l2.92,4.37h0.05l2.95-4.4v6.69h1.64v-9.33
		h-1.75l-2.84,4.41l-2.84-4.41h-1.75V257.27z M114.85,257.27h1.64v-3h1.85c2.05,0,3.73-1.09,3.73-3.19v-0.03
		c0-1.88-1.37-3.12-3.55-3.12h-3.68V257.27z M116.49,252.79v-3.36h1.91c1.23,0,2.01,0.57,2.01,1.67v0.03c0,0.97-0.77,1.67-2.01,1.67
		H116.49z M123.21,257.27h1.68l0.96-2.25h4.41l0.95,2.25h1.73l-4.11-9.4h-1.52L123.21,257.27z M126.45,253.56l1.6-3.73l1.61,3.73
		H126.45z M139.36,257.43c1.75,0,2.81-0.64,3.79-1.65l-1.05-1.07c-0.8,0.75-1.53,1.21-2.68,1.21c-1.79,0-3.08-1.49-3.08-3.32v-0.03
		c0-1.83,1.29-3.29,3.08-3.29c1.07,0,1.87,0.47,2.61,1.16l1.05-1.21c-0.89-0.85-1.93-1.45-3.65-1.45c-2.82,0-4.81,2.17-4.81,4.83
		v0.03C134.62,255.31,136.64,257.43,139.36,257.43 M148.43,257.27h1.65v-7.81h2.96v-1.52h-7.57v1.52h2.96V257.27z"/>
	<path class="st3" d="M89.34,257.45l1.21-0.87l-1.47-1.49c0.48-0.65,0.89-1.39,1.27-2.13l-1.24-0.65c-0.31,0.65-0.64,1.27-1,1.8
		l-1.6-1.63c1.24-0.47,2.05-1.2,2.05-2.43v-0.03c0-1.25-1-2.25-2.48-2.25c-1.67,0-2.68,1.09-2.68,2.35v0.03
		c0,0.68,0.24,1.27,0.77,1.95c-1.28,0.55-1.99,1.41-1.99,2.61v0.03c0,1.61,1.31,2.67,3.04,2.67c1.13,0,2.07-0.47,2.87-1.21
		L89.34,257.45z M85.64,251.6c-0.52-0.57-0.71-0.92-0.71-1.39v-0.03c0-0.65,0.44-1.12,1.11-1.12c0.63,0,1.07,0.43,1.07,1.05v0.03
		C87.11,250.81,86.6,251.26,85.64,251.6 M85.4,256.04c-0.91,0-1.56-0.57-1.56-1.36v-0.03c0-0.6,0.37-1.17,1.24-1.55l2.08,2.12
		C86.63,255.73,86.04,256.04,85.4,256.04"/>
	<path class="st3" d="M13.02,257.27h1.64v-9.33h-1.64V257.27z M18.26,257.27h1.61v-6.64l5.15,6.64h1.37v-9.33h-1.61v6.45l-5-6.45
		h-1.52V257.27z M38.33,257.55l1.05-1.17l-1.07-0.91c0.61-0.81,0.95-1.81,0.95-2.87v-0.03c0-2.63-2-4.8-4.87-4.8
		c-2.87,0-4.89,2.2-4.89,4.83v0.03c0,2.63,2,4.8,4.87,4.8c1.09,0,2.05-0.32,2.84-0.88L38.33,257.55z M34.39,255.92
		c-1.85,0-3.17-1.51-3.17-3.32v-0.03c0-1.81,1.29-3.29,3.15-3.29s3.17,1.51,3.17,3.32v0.03c0,0.65-0.16,1.25-0.48,1.75l-1.61-1.47
		l-1.05,1.2l1.6,1.36C35.55,255.75,35.01,255.92,34.39,255.92 M46.25,257.41c2.44,0,4.01-1.4,4.01-4.19v-5.29h-1.64v5.37
		c0,1.72-0.89,2.6-2.35,2.6c-1.47,0-2.36-0.93-2.36-2.67v-5.31h-1.64v5.37C42.28,256.01,43.83,257.41,46.25,257.41 M53.8,257.27
		h1.64v-9.33H53.8V257.27z M59.04,257.27h1.64v-3.25h2.05l2.29,3.25h1.93l-2.52-3.53c1.31-0.37,2.23-1.29,2.23-2.83v-0.03
		c0-0.81-0.28-1.51-0.77-2.01c-0.6-0.59-1.52-0.93-2.69-0.93h-4.16V257.27z M60.68,252.56v-3.13h2.39c1.21,0,1.93,0.55,1.93,1.55
		V251c0,0.95-0.75,1.56-1.92,1.56H60.68z M72.14,257.27h1.65v-3.72l3.71-5.61h-1.88l-2.64,4.13l-2.61-4.13h-1.93l3.71,5.65V257.27z"
		/>
	<path class="st1" d="M20.22,239.81c3.17,0,5.1-1.16,6.87-3l-1.91-1.93c-1.45,1.35-2.78,2.2-4.86,2.2c-3.24,0-5.58-2.71-5.58-6.02
		v-0.05c0-3.31,2.35-5.97,5.58-5.97c1.93,0,3.39,0.85,4.74,2.1l1.91-2.2c-1.62-1.55-3.51-2.63-6.62-2.63
		c-5.12,0-8.73,3.94-8.73,8.75v0.05C11.61,235.97,15.29,239.81,20.22,239.81 M29.88,239.52h3.05l1.74-4.09h8l1.71,4.09h3.14
		l-7.45-17.04h-2.76L29.88,239.52z M35.75,232.8l2.9-6.77l2.92,6.77H35.75z M51.43,239.52h2.93v-12.09l5.29,7.93h0.1l5.34-7.98
		v12.14h2.97V222.6H64.9l-5.15,8l-5.15-8h-3.17V239.52z M73.74,239.52h2.97v-5.44h3.36c3.72,0,6.77-1.98,6.77-5.78v-0.05
		c0-3.41-2.49-5.66-6.43-5.66h-6.67V239.52z M76.71,231.4v-6.09h3.46c2.23,0,3.65,1.04,3.65,3.02v0.05c0,1.77-1.4,3.02-3.65,3.02
		H76.71z M87.97,239.52h3.05l1.74-4.09h8l1.72,4.09h3.14l-7.45-17.04h-2.76L87.97,239.52z M93.84,232.8l2.9-6.77l2.93,6.77H93.84z
		 M109.6,239.52h2.97V222.6h-2.97V239.52z M126.22,239.81c3,0,5.39-1.21,7.06-2.63v-7.11h-7.2v2.59h4.33v3.17
		c-1.04,0.77-2.49,1.28-4.08,1.28c-3.46,0-5.75-2.56-5.75-6.04v-0.05c0-3.24,2.37-5.97,5.49-5.97c2.15,0,3.43,0.7,4.74,1.81
		l1.88-2.25c-1.74-1.48-3.55-2.3-6.5-2.3c-5.1,0-8.73,4.01-8.73,8.75v0.05C117.44,236.04,120.92,239.81,126.22,239.81
		 M138.51,239.52h2.92v-12.04l9.33,12.04h2.49V222.6h-2.92v11.7l-9.07-11.7h-2.76V239.52z"/>
	<path class="st1" d="M15.52,185.8h1.5v-7.07h2.68v-1.38h-6.85v1.38h2.68V185.8z M22.12,185.8h1.48v-3.56h4.03v3.56h1.48v-8.45
		h-1.48v3.51h-4.03v-3.51h-1.48V185.8z M32.37,185.8h6.32v-1.33h-4.84v-2.27h4.24v-1.33h-4.24v-2.2h4.78v-1.33h-6.26V185.8z
		 M49.58,185.93c2.21,0,3.63-1.27,3.63-3.79v-4.79h-1.48v4.86c0,1.56-0.81,2.35-2.12,2.35c-1.33,0-2.13-0.84-2.13-2.41v-4.8h-1.49
		v4.86C45.99,184.66,47.39,185.93,49.58,185.93 M56.36,185.8h1.46v-6.01l4.66,6.01h1.24v-8.45h-1.46v5.84l-4.52-5.84h-1.38V185.8z
		 M67.01,185.8h1.48v-8.45h-1.48V185.8z M74.39,185.86h1.3l3.51-8.51H77.6l-2.53,6.49l-2.55-6.49h-1.64L74.39,185.86z M81.58,185.8
		h6.32v-1.33h-4.84v-2.27h4.23v-1.33h-4.23v-2.2h4.78v-1.33h-6.26V185.8z M90.73,185.8h1.48v-2.94h1.86l2.08,2.94h1.75l-2.28-3.2
		c1.18-0.34,2.02-1.17,2.02-2.56v-0.02c0-0.74-0.25-1.36-0.7-1.82c-0.54-0.53-1.38-0.85-2.44-0.85h-3.76V185.8z M92.21,181.54v-2.83
		h2.16c1.1,0,1.75,0.49,1.75,1.4v0.02c0,0.86-0.67,1.41-1.74,1.41H92.21z M103.32,185.92c1.77,0,3.02-0.94,3.02-2.52v-0.02
		c0-1.4-0.93-2.04-2.71-2.47c-1.62-0.39-2-0.68-2-1.33v-0.02c0-0.55,0.51-1,1.38-1c0.77,0,1.53,0.3,2.29,0.87l0.8-1.12
		c-0.86-0.69-1.83-1.06-3.06-1.06c-1.68,0-2.88,1-2.88,2.45v0.02c0,1.56,1.01,2.09,2.81,2.52c1.57,0.36,1.91,0.69,1.91,1.29v0.02
		c0,0.64-0.58,1.06-1.5,1.06c-1.05,0-1.86-0.4-2.67-1.1l-0.89,1.06C100.82,185.47,102.03,185.92,103.32,185.92 M109.17,185.8h1.48
		v-8.45h-1.48V185.8z M115.78,185.8h1.5v-7.07h2.68v-1.38h-6.85v1.38h2.68V185.8z M125.31,185.8h1.5v-3.37l3.35-5.08h-1.7
		l-2.39,3.74l-2.36-3.74h-1.75l3.35,5.12V185.8z M139.66,185.94c2.59,0,4.43-1.99,4.43-4.37v-0.02c0-2.38-1.81-4.34-4.4-4.34
		c-2.59,0-4.43,1.99-4.43,4.37v0.02C135.26,183.98,137.07,185.94,139.66,185.94 M139.68,184.58c-1.68,0-2.87-1.36-2.87-3v-0.02
		c0-1.64,1.17-2.98,2.85-2.98s2.87,1.36,2.87,3v0.02C142.53,183.24,141.36,184.58,139.68,184.58 M146.91,185.8h1.48v-3.44h4.26
		v-1.35h-4.26v-2.3h4.8v-1.35h-6.29V185.8z"/>
	<path class="st1" d="M21.83,214.31c3.85,0,6.2-1.41,8.34-3.64l-2.32-2.35c-1.76,1.65-3.38,2.67-5.91,2.67
		c-3.94,0-6.79-3.29-6.79-7.32v-0.06c0-4.03,2.85-7.26,6.79-7.26c2.35,0,4.11,1.03,5.76,2.56l2.32-2.67
		c-1.97-1.88-4.26-3.2-8.05-3.2c-6.23,0-10.61,4.79-10.61,10.64v0.06C11.37,209.64,15.83,214.31,21.83,214.31 M34.7,213.96h3.61
		v-8.67h9.82v8.67h3.61v-20.57h-3.61v8.55h-9.82v-8.55H34.7V213.96z M57.53,213.96h3.61v-20.57h-3.61V213.96z M76.19,214.31
		c3.85,0,6.2-1.41,8.35-3.64l-2.32-2.35c-1.76,1.65-3.38,2.67-5.91,2.67c-3.94,0-6.79-3.29-6.79-7.32v-0.06
		c0-4.03,2.85-7.26,6.79-7.26c2.35,0,4.11,1.03,5.76,2.56l2.32-2.67c-1.97-1.88-4.26-3.2-8.05-3.2c-6.23,0-10.61,4.79-10.61,10.64
		v0.06C65.73,209.64,70.19,214.31,76.19,214.31 M86.85,213.96h3.7l2.12-4.97h9.73l2.09,4.97h3.82l-9.05-20.72H95.9L86.85,213.96z
		 M93.99,205.79l3.53-8.23l3.55,8.23H93.99z M120.62,214.31c3.64,0,6.55-1.47,8.58-3.2v-8.64h-8.76v3.14h5.26v3.85
		c-1.26,0.94-3.03,1.56-4.97,1.56c-4.2,0-6.99-3.11-6.99-7.35v-0.06c0-3.94,2.88-7.26,6.67-7.26c2.62,0,4.17,0.85,5.76,2.2
		l2.29-2.73c-2.11-1.79-4.32-2.79-7.9-2.79c-6.2,0-10.61,4.88-10.61,10.64v0.06C109.95,209.73,114.18,214.31,120.62,214.31
		 M144.15,214.31c6.32,0,10.78-4.85,10.78-10.64v-0.06c0-5.79-4.41-10.58-10.73-10.58s-10.78,4.85-10.78,10.64v0.06
		C133.43,209.52,137.84,214.31,144.15,214.31 M144.21,210.99c-4.08,0-6.99-3.32-6.99-7.32v-0.06c0-4,2.85-7.26,6.93-7.26
		c4.08,0,6.99,3.32,6.99,7.32v0.06C151.15,207.73,148.3,210.99,144.21,210.99"/>
</g>
</svg>
