<?xml version="1.0" encoding="utf-8"?>
<!-- Generator: Adobe Illustrator 16.0.0, SVG Export Plug-In . SVG Version: 6.00 Build 0)  -->
<!DOCTYPE svg PUBLIC "-//W3C//DTD SVG 1.1//EN" "http://www.w3.org/Graphics/SVG/1.1/DTD/svg11.dtd">
<svg version="1.1" id="Layer_1" xmlns="http://www.w3.org/2000/svg" xmlns:xlink="http://www.w3.org/1999/xlink" x="0px" y="0px"
	 width="256.667px" height="34px" viewBox="0 0 256.667 34" enable-background="new 0 0 256.667 34" xml:space="preserve">
<rect x="136.09" y="1.41" fill="#FFFFFF" width="0.243" height="31.089"/>
<g>
	<path fill="none" d="M155.779,24.594c3.422,0,5.497-2.073,5.497-6.115V3.885h-10.991v14.411
		C150.284,22.446,152.359,24.594,155.779,24.594z"/>
	<path fill="none" d="M144.678,18.441v11.32h11.029C148.864,29.762,144.678,25.94,144.678,18.441z"/>
	<rect x="194.321" y="3.885" fill="#FFFFFF" width="5.605" height="25.475"/>
	<polygon fill="#FFFFFF" points="190.536,29.36 190.536,24.375 176.707,24.375 176.707,19.026 188.716,19.026 188.716,14.038 
		176.707,14.038 176.707,8.871 190.355,8.871 190.355,3.885 171.137,3.885 171.137,29.36 	"/>
	<path fill="#FFFFFF" d="M166.88,18.262V3.885h-5.605v14.594c0,4.042-2.074,6.115-5.497,6.115c-3.419,0-5.495-2.148-5.495-6.298
		V3.885h-5.606v14.557c0,7.499,4.186,11.32,11.029,11.32C162.549,29.762,166.88,25.976,166.88,18.262z"/>
	<g>
		<path fill="none" d="M221.61,7.966V7.951c0-0.348-0.257-0.56-0.838-0.56h-1.315v1.136h1.348
			C221.307,8.527,221.61,8.35,221.61,7.966z"/>
		<path fill="none" d="M221.323,5.901V5.887c0-0.339-0.268-0.533-0.744-0.533h-1.123v1.094h1.046
			C221.004,6.448,221.323,6.285,221.323,5.901z"/>
		<polygon fill="none" points="226.396,5.689 225.709,7.36 227.078,7.36 		"/>
		<polygon fill="none" points="231.64,17.209 233.013,17.209 232.328,15.535 		"/>
		<path fill="none" d="M247.862,16.803V16.79c0-0.886-0.652-1.624-1.565-1.624c-0.914,0-1.548,0.722-1.548,1.608v0.016
			c0,0.882,0.649,1.622,1.564,1.622C247.225,18.412,247.862,17.687,247.862,16.803z"/>
		<path fill="none" d="M215.732,6.138V6.122c0-0.485-0.337-0.737-0.889-0.737h-1.131v1.482h1.152
			C215.417,6.867,215.732,6.572,215.732,6.138z"/>
		<path fill="none" d="M215.512,16.803V16.79c0-0.916-0.625-1.558-1.555-1.558h-0.876v3.111h0.876
			C214.887,18.343,215.512,17.716,215.512,16.803z"/>
		<rect x="206.615" y="24.052" fill="#FFFFFF" width="1.136" height="5.16"/>
		<polygon fill="#FFFFFF" points="228.568,25.1 230.139,25.1 230.139,29.212 231.274,29.212 231.274,25.1 232.844,25.1 
			232.844,24.056 228.568,24.056 		"/>
		<polygon fill="#FFFFFF" points="246.518,27.122 248.951,27.122 248.951,26.112 246.518,26.112 246.518,25.062 249.282,25.062 
			249.282,24.056 245.393,24.056 245.393,29.212 249.32,29.212 249.32,28.207 246.518,28.207 		"/>
		<polygon fill="#FFFFFF" points="239.801,25.1 241.375,25.1 241.375,29.212 242.508,29.212 242.508,25.1 244.081,25.1 
			244.081,24.056 239.801,24.056 		"/>
		<polygon fill="#FFFFFF" points="220.427,25.1 222.001,25.1 222.001,29.212 223.138,29.212 223.138,25.1 224.703,25.1 
			224.703,24.056 220.427,24.056 		"/>
		<rect x="226.07" y="24.052" fill="#FFFFFF" width="1.136" height="5.16"/>
		<path fill="#FFFFFF" d="M217.843,26.125c-0.893-0.229-1.113-0.341-1.113-0.68v-0.013c0-0.25,0.229-0.449,0.662-0.449
			c0.436,0,0.885,0.191,1.341,0.508l0.59-0.854c-0.52-0.421-1.162-0.655-1.916-0.655c-1.053,0-1.805,0.618-1.805,1.555v0.014
			c0,1.026,0.668,1.313,1.708,1.577c0.864,0.223,1.04,0.368,1.04,0.657v0.016c0,0.303-0.281,0.486-0.744,0.486
			c-0.591,0-1.076-0.244-1.54-0.628l-0.671,0.803c0.62,0.553,1.407,0.827,2.189,0.827c1.112,0,1.894-0.575,1.894-1.601v-0.014
			C219.479,26.777,218.889,26.399,217.843,26.125z"/>
		<path fill="#FFFFFF" d="M237.435,27.013c0,0.817-0.42,1.234-1.111,1.234c-0.694,0-1.113-0.435-1.113-1.276v-2.916h-1.138v2.947
			c0,1.52,0.849,2.29,2.232,2.29c1.391,0,2.264-0.764,2.264-2.327v-2.91h-1.135V27.013z"/>
		<polygon fill="#FFFFFF" points="212.946,27.231 210.53,24.056 209.483,24.056 209.483,29.212 210.603,29.212 210.603,25.932 
			213.101,29.212 214.067,29.212 214.067,24.056 212.946,24.056 		"/>
		<polygon fill="#FFFFFF" points="253.965,17.384 251.544,14.208 250.5,14.208 250.5,19.367 251.619,19.367 251.619,16.086 
			254.117,19.367 255.085,19.367 255.085,14.208 253.965,14.208 		"/>
		<polygon fill="#FFFFFF" points="235.284,15.254 236.856,15.254 236.856,19.367 237.989,19.367 237.989,15.254 239.558,15.254 
			239.558,14.208 235.284,14.208 		"/>
		<path fill="#FFFFFF" d="M232.864,14.171h-1.043l-2.212,5.195h1.157l0.471-1.156h2.181l0.475,1.156h1.185L232.864,14.171z
			 M231.64,17.209l0.688-1.674l0.686,1.674H231.64z"/>
		<rect x="240.924" y="14.208" fill="#FFFFFF" width="1.135" height="5.159"/>
		<polygon fill="#FFFFFF" points="210.491,18.359 207.691,18.359 207.691,17.274 210.124,17.274 210.124,16.266 207.691,16.266 
			207.691,15.218 210.455,15.218 210.455,14.208 206.563,14.208 206.563,19.367 210.491,19.367 		"/>
		<path fill="#FFFFFF" d="M216.7,16.79v-0.016c0-1.453-1.121-2.566-2.743-2.566h-2.013v5.159h2.013
			C215.579,19.367,216.7,18.24,216.7,16.79z M213.08,15.232h0.876c0.931,0,1.555,0.642,1.555,1.558v0.014
			c0,0.913-0.625,1.54-1.555,1.54h-0.876V15.232z"/>
		<path fill="#FFFFFF" d="M249.048,16.79v-0.016c0-1.469-1.144-2.655-2.735-2.655c-1.592,0-2.749,1.202-2.749,2.67v0.014
			c0,1.467,1.14,2.652,2.732,2.652C247.89,19.455,249.048,18.254,249.048,16.79z M244.749,16.79v-0.016
			c0-0.886,0.634-1.608,1.548-1.608c0.913,0,1.565,0.738,1.565,1.624v0.014c0,0.884-0.637,1.608-1.549,1.608
			C245.398,18.412,244.749,17.671,244.749,16.79z"/>
		<path fill="#FFFFFF" d="M226.621,15.166c0.516,0,0.92,0.22,1.32,0.583l0.723-0.833c-0.479-0.472-1.06-0.796-2.035-0.796
			c-1.585,0-2.689,1.202-2.689,2.67v0.014c0,1.482,1.125,2.652,2.646,2.652c0.994,0,1.583-0.353,2.114-0.919l-0.722-0.73
			c-0.406,0.368-0.768,0.606-1.357,0.606c-0.884,0-1.498-0.74-1.498-1.622v-0.016C225.124,15.888,225.752,15.166,226.621,15.166z"/>
		<path fill="#FFFFFF" d="M222.565,17.118v-2.911h-1.133v2.956c0,0.819-0.418,1.238-1.113,1.238s-1.115-0.433-1.115-1.273v-2.921
			h-1.136v2.95c0,1.518,0.849,2.292,2.235,2.292C221.691,19.449,222.565,18.684,222.565,17.118z"/>
		<path fill="#FFFFFF" d="M208.716,9.601c1.385,0,2.264-0.764,2.264-2.327V4.362h-1.135v2.957c0,0.818-0.423,1.237-1.113,1.237
			c-0.691,0-1.118-0.433-1.118-1.276V4.362h-1.13v2.947C206.483,8.827,207.329,9.601,208.716,9.601z"/>
		<polygon fill="#FFFFFF" points="231.502,6.241 234.002,9.52 234.966,9.52 234.966,4.362 233.849,4.362 233.849,7.539 
			231.427,4.362 230.38,4.362 230.38,9.52 231.502,9.52 		"/>
		<path fill="#FFFFFF" d="M213.712,7.87h0.893l1.107,1.65h1.322l-1.258-1.841c0.653-0.242,1.108-0.768,1.108-1.6V6.063
			c0-0.485-0.155-0.892-0.445-1.177c-0.335-0.339-0.846-0.524-1.502-0.524h-2.359V9.52h1.133V7.87z M213.712,5.385h1.131
			c0.552,0,0.889,0.252,0.889,0.737v0.016c0,0.435-0.315,0.729-0.868,0.729h-1.152V5.385z"/>
		<path fill="#FFFFFF" d="M222.737,8.106V8.093c0-0.695-0.37-1.042-0.964-1.27c0.365-0.205,0.678-0.53,0.678-1.112V5.696
			c0-0.354-0.121-0.642-0.354-0.877c-0.294-0.296-0.761-0.457-1.347-0.457h-2.398V9.52h2.454
			C221.971,9.52,222.737,9.049,222.737,8.106z M219.456,5.354h1.123c0.476,0,0.744,0.194,0.744,0.533v0.014
			c0,0.384-0.318,0.547-0.821,0.547h-1.046V5.354z M219.456,7.391h1.315c0.581,0,0.838,0.211,0.838,0.56v0.016
			c0,0.384-0.303,0.561-0.806,0.561h-1.348V7.391z"/>
		<path fill="#FFFFFF" d="M225.304,8.364h2.182l0.469,1.155h1.189l-2.209-5.193h-1.052l-2.209,5.193h1.158L225.304,8.364z
			 M226.396,5.689l0.682,1.671h-1.369L226.396,5.689z"/>
	</g>
</g>
<g id="wordmark">
	<path fill="#FFFFFF" d="M127.86,5.566l0.008-0.016V5.534c-0.016-0.308-0.028-0.706-0.028-1.119V4.334l-0.081,0.017
		c-0.102,0.024-0.629,0.024-1.136,0.024h-1.569c-0.321,0-0.608-0.008-0.985-0.024h-0.017l-0.016,0.008
		c-0.069,0.036-0.082,0.133-0.082,0.167c-0.004,0.077,0.017,0.133,0.057,0.162l0.162,0.029c0.434,0.053,0.454,0.102,0.454,1.009
		V8.79c0,0.904-0.021,0.944-0.454,1.001l-0.235,0.029l-0.017,0.012c-0.048,0.049-0.056,0.126-0.048,0.187
		c0.012,0.064,0.04,0.114,0.085,0.133l0.013,0.009h0.016c0.397-0.017,0.686-0.025,1.062-0.025c0.345,0,0.64,0.012,1.131,0.025h0.016
		l0.013-0.009c0.053-0.028,0.077-0.101,0.081-0.167c0.004-0.073-0.017-0.129-0.058-0.162l-0.32-0.033
		c-0.438-0.036-0.458-0.093-0.458-1.001V7.606c0-0.166,0-0.166,0.215-0.166h0.58c0.3,0,0.523,0.008,0.637,0.041
		c0.122,0.036,0.187,0.117,0.231,0.279l0.089,0.353l0.012,0.012c0.085,0.073,0.263,0.068,0.32-0.012l0.013-0.016V8.076
		c0-0.089-0.008-0.203-0.013-0.329c-0.012-0.154-0.02-0.328-0.02-0.499c0-0.17,0.012-0.356,0.02-0.519
		c0.008-0.134,0.013-0.256,0.013-0.345v-0.02l-0.013-0.017c-0.041-0.061-0.125-0.069-0.162-0.069c-0.073,0-0.134,0.025-0.167,0.061
		l-0.089,0.369c-0.048,0.207-0.105,0.227-0.17,0.251c-0.089,0.032-0.353,0.049-0.706,0.049h-0.58c-0.214,0-0.214,0-0.214-0.167
		V5.052c0-0.276,0-0.276,0.19-0.276h0.519c0.353,0,0.633,0,0.811,0.049c0.365,0.098,0.475,0.34,0.548,0.758l0.004,0.024l0.016,0.012
		c0.033,0.029,0.077,0.045,0.13,0.045C127.75,5.656,127.828,5.627,127.86,5.566L127.86,5.566z M122.139,7.225
		c0-1.439-0.944-2.988-3.021-2.988c-1.767,0-3.101,1.322-3.101,3.073c0,1.468,1.062,2.951,3.101,2.951
		C120.841,10.261,122.139,8.956,122.139,7.225L122.139,7.225z M121.158,7.488c0,1.756-1.038,2.38-1.925,2.38
		c-1.76,0-2.23-1.78-2.23-2.834c0-1.776,1.062-2.404,1.975-2.404C120.586,4.63,121.158,6.17,121.158,7.488L121.158,7.488z
		 M114.188,22.015c0,3.682,2.74,6.933,7.282,6.933c3.949,0,7.095-3.008,7.095-7.136c0-3.596-2.372-7.014-7.095-7.014
		C117.253,14.798,114.188,17.924,114.188,22.015L114.188,22.015z M116.232,21.362c0-4.48,2.761-5.931,4.885-5.931
		c3.908,0,5.4,3.637,5.4,7.014c0,4.03-2.331,5.871-4.784,5.871C117.704,28.316,116.232,24.387,116.232,21.362L116.232,21.362z
		 M111.711,4.671c0.044-0.036,0.065-0.102,0.061-0.167c-0.008-0.065-0.037-0.122-0.085-0.154l-0.016-0.008h-0.02
		c-0.608,0.032-0.965,0.032-1.602,0h-0.016l-0.016,0.008c-0.049,0.024-0.077,0.073-0.089,0.129
		c-0.012,0.069,0.008,0.142,0.053,0.187l0.016,0.016l0.174,0.021c0.162,0.02,0.268,0.061,0.3,0.081
		c-0.028,0.126-0.324,0.677-0.503,1.014l-0.037,0.073c-0.207,0.397-0.442,0.823-0.742,1.337c-0.223-0.405-0.442-0.851-0.656-1.285
		c-0.082-0.167-0.166-0.341-0.252-0.502c-0.061-0.122-0.251-0.56-0.255-0.629c0-0.016,0.037-0.053,0.305-0.089l0.134-0.021
		l0.012-0.016c0.045-0.044,0.064-0.13,0.049-0.203c-0.017-0.057-0.053-0.102-0.102-0.118l-0.012-0.004h-0.012
		c-0.21,0.016-0.515,0.024-0.904,0.024c-0.394,0-0.706-0.008-0.985-0.024h-0.021l-0.016,0.008c-0.041,0.024-0.073,0.068-0.082,0.125
		c-0.012,0.069,0.008,0.142,0.044,0.187l0.013,0.016l0.259,0.049c0.227,0.036,0.34,0.057,0.624,0.616l1.006,1.962
		c0.239,0.463,0.268,0.56,0.268,1.026v0.437c0,0.925-0.021,0.97-0.454,1.019l-0.288,0.028l-0.017,0.016
		c-0.048,0.049-0.056,0.13-0.044,0.187c0.008,0.061,0.041,0.109,0.077,0.129l0.012,0.008h0.016c0.459-0.016,0.759-0.024,1.115-0.024
		c0.345,0,0.653,0.012,1.156,0.024h0.016l0.012-0.008c0.041-0.02,0.073-0.069,0.082-0.129c0.012-0.057,0.004-0.138-0.049-0.187
		l-0.016-0.016l-0.349-0.028c-0.394-0.033-0.45-0.098-0.45-1.014V8.332c0-0.637,0.017-0.702,0.39-1.346l0.54-0.929
		c0.048-0.081,0.097-0.162,0.142-0.244c0.336-0.587,0.575-1.009,0.94-1.07l0.255-0.044L111.711,4.671L111.711,4.671z
		 M108.727,15.103c-0.345-0.082-1.432-0.305-2.595-0.305c-3.09,0-5.113,0.961-6.483,2.393c-1.27,1.35-1.841,3.105-1.841,4.845
		c0,1.799,0.657,3.417,1.881,4.642c1.573,1.593,3.803,2.27,6.24,2.27c1.106,0,2.574-0.243,3.661-0.531
		c0.39-0.101,0.758-0.187,1.001-0.187c0.081-0.061,0.081-0.186,0.02-0.243c-0.364-0.146-0.49-0.637-0.49-1.452v-1.143
		c0-1.042,0.02-1.614,0.88-1.72l0.328-0.041c0.142-0.121,0.125-0.43-0.021-0.51c-0.673,0.04-1.37,0.061-2.168,0.061
		c-1.209,0-2.332-0.021-2.924-0.061c-0.146,0.061-0.166,0.429,0,0.51l0.9,0.102c1.269,0.146,1.326,0.268,1.326,1.982v0.819
		c0,0.656-0.105,1.021-0.202,1.167c-0.228,0.345-0.981,0.612-2.25,0.612c-4.111,0-6.134-3.086-6.134-7.019
		c0-3.065,1.739-5.887,5.709-5.887c2.084,0,3.62,0.697,4.196,2.907c0.126,0.121,0.491,0.102,0.552-0.061
		c-0.183-1.229-0.309-2.291-0.309-2.968C109.749,15.33,109.116,15.184,108.727,15.103L108.727,15.103z M105.24,4.241l0.008-0.024
		l-0.012-0.021c-0.032-0.061-0.121-0.072-0.158-0.072c-0.021,0-0.053,0.004-0.078,0.012l-0.02,0.008l-0.013,0.021
		c-0.109,0.187-0.153,0.207-0.608,0.207h-3.523c-0.381,0-0.551-0.02-0.588-0.211l-0.004-0.021l-0.012-0.012
		c-0.025-0.024-0.062-0.032-0.118-0.032c-0.021,0-0.089,0.004-0.126,0.028l-0.024,0.012l-0.004,0.029
		c-0.056,0.34-0.186,0.88-0.32,1.257l-0.008,0.028l0.013,0.024c0.052,0.102,0.227,0.154,0.32,0.082l0.017-0.012L99.99,5.53
		c0.085-0.198,0.167-0.385,0.369-0.567c0.19-0.17,0.612-0.194,1.006-0.194h0.47c0.187,0,0.187,0,0.187,0.207v3.811
		c0,0.92-0.053,0.965-0.466,1.002l-0.308,0.024l-0.032,0.012c-0.053,0.033-0.081,0.097-0.077,0.17
		c0.004,0.057,0.029,0.13,0.085,0.158l0.013,0.009h0.016c0.523-0.017,0.839-0.025,1.184-0.025c0.332,0,0.608,0.008,1.115,0.025
		h0.017l0.016-0.009c0.074-0.032,0.082-0.133,0.082-0.167c0.004-0.076-0.017-0.133-0.057-0.162l-0.305-0.033
		c-0.425-0.036-0.454-0.093-0.454-1.001V4.962c0-0.085,0-0.17,0.013-0.183c0.012-0.012,0.105-0.012,0.166-0.012h0.604
		c0.454,0,0.766,0.064,0.949,0.199c0.081,0.057,0.149,0.276,0.186,0.576l0.004,0.016l0.012,0.012
		c0.033,0.036,0.089,0.061,0.154,0.061c0.082,0,0.146-0.032,0.174-0.089l0.012-0.017l-0.003-0.016
		C105.086,5.271,105.147,4.582,105.24,4.241L105.24,4.241z M97.472,8.769V5.733c0-0.929,0.028-0.989,0.458-1.026l0.232-0.016
		l0.012-0.008c0.041-0.028,0.065-0.089,0.057-0.162c-0.004-0.033-0.017-0.13-0.085-0.166l-0.016-0.008h-0.016
		c-0.401,0.012-0.701,0.024-1.054,0.024c-0.369,0-0.661-0.012-1.07-0.024h-0.017l-0.016,0.008c-0.069,0.036-0.081,0.133-0.081,0.166
		c-0.004,0.077,0.017,0.134,0.057,0.162l0.016,0.008l0.231,0.016c0.435,0.037,0.459,0.097,0.459,1.026v3.036
		c0,0.917-0.021,0.965-0.462,1.019l-0.239,0.028l-0.016,0.016c-0.049,0.049-0.053,0.126-0.045,0.187
		c0.012,0.061,0.037,0.109,0.077,0.129l0.016,0.008h0.016c0.438-0.016,0.722-0.024,1.071-0.024c0.34,0,0.621,0.008,1.054,0.024
		h0.017l0.012-0.008c0.069-0.032,0.082-0.134,0.082-0.166c0.004-0.077-0.016-0.134-0.057-0.162l-0.243-0.032
		C97.492,9.73,97.472,9.682,97.472,8.769L97.472,8.769z M96.069,28.109c-0.879-0.102-1.148-0.41-1.739-2.169l-2.802-8.223
		c-0.304-0.899-0.636-1.84-0.9-2.741c-0.041-0.142-0.187-0.186-0.304-0.186c-0.227,0.263-0.572,0.636-1.062,0.778
		c0.061,0.324-0.061,0.717-0.349,1.452l-2.084,5.522c-0.86,2.291-1.431,3.616-1.8,4.561c-0.284,0.738-0.738,0.961-1.229,1.001
		l-0.677,0.061c-0.122,0.101-0.082,0.43,0.041,0.511c0.551-0.021,1.289-0.061,1.962-0.061c0.961,0.021,1.593,0.021,2.125,0.061
		c0.186-0.081,0.186-0.41,0.041-0.511l-0.677-0.061c-0.491-0.041-0.592-0.167-0.592-0.409c0-0.227,0.146-0.779,0.45-1.699
		l0.717-2.149c0.142-0.43,0.268-0.491,0.778-0.491h3.089c0.613,0,0.698,0.062,0.84,0.511l0.9,2.781
		c0.166,0.491,0.268,0.859,0.268,1.083c0,0.207-0.284,0.328-0.714,0.369l-0.592,0.061c-0.146,0.102-0.121,0.43,0.041,0.511
		c0.592-0.021,1.37-0.061,2.352-0.061c0.92,0,1.638,0.021,2.473,0.061c0.102-0.082,0.146-0.41,0-0.511L96.069,28.109L96.069,28.109z
		 M90.791,22.55h-2.514c-0.571,0-0.592-0.021-0.43-0.491l1.29-3.56c0.227-0.612,0.429-1.103,0.49-1.208h0.041
		c0.121,0.248,0.304,0.799,0.47,1.29l1.103,3.333C91.423,22.465,91.382,22.55,90.791,22.55L90.791,22.55z M91.621,5.51
		c0-0.329,0.122-0.88,0.949-0.88c0.75,0,0.981,0.491,1.099,0.917l0.012,0.024c0.028,0.032,0.073,0.053,0.13,0.053
		c0.065,0,0.15-0.028,0.191-0.081l0.012-0.017V5.51c0-0.345-0.073-0.835-0.158-1.062l-0.012-0.041h-0.044
		c-0.057,0-0.175-0.013-0.28-0.049c-0.203-0.053-0.522-0.113-0.811-0.113c-1.078,0-1.804,0.612-1.804,1.528
		c0,0.778,0.596,1.285,0.953,1.521l0.811,0.527c0.588,0.381,0.669,0.77,0.669,1.14c0,0.454-0.308,0.916-1.001,0.916
		c-0.859,0-1.236-0.665-1.403-1.225l-0.007-0.016c-0.029-0.037-0.074-0.057-0.13-0.057c-0.058,0-0.138,0.02-0.183,0.081L90.6,8.676
		v0.021c0.016,0.385,0.125,1.013,0.235,1.22l0.012,0.016l0.017,0.012c0.167,0.097,0.633,0.324,1.362,0.324
		c1.127,0,1.877-0.657,1.877-1.642c0-0.681-0.361-1.236-1.099-1.69l-0.681-0.426C92.06,6.341,91.621,6,91.621,5.51L91.621,5.51z
		 M89.477,10.164c0.041-0.031,0.057-0.081,0.053-0.129c-0.008-0.049-0.037-0.081-0.073-0.102L89.44,9.929
		c-0.203-0.012-0.41-0.102-0.551-0.223c-0.588-0.495-1.055-1.212-1.699-2.25c-0.044-0.073-0.052-0.105-0.052-0.121
		c0.284-0.118,1.082-0.536,1.082-1.476c0-0.713-0.405-1.074-0.742-1.253c-0.43-0.231-0.973-0.263-1.456-0.263
		c-0.783,0-1.387,0.02-1.91,0.069l-0.024,0.008c-0.048,0.025-0.081,0.077-0.084,0.146c-0.009,0.073,0.02,0.142,0.068,0.178
		l0.012,0.012l0.288,0.033c0.28,0.032,0.32,0.093,0.32,0.932v3.061c0,0.904-0.021,0.945-0.454,1.002L84,9.812l-0.017,0.02
		c-0.048,0.057-0.048,0.138-0.04,0.195c0.012,0.061,0.04,0.102,0.077,0.122l0.013,0.008h0.016c0.376-0.012,0.689-0.024,1.062-0.024
		c0.353,0,0.649,0.012,1.01,0.024h0.016l0.012-0.008c0.061-0.032,0.077-0.113,0.082-0.146c0.012-0.077-0.013-0.142-0.053-0.174
		l-0.012-0.012l-0.199-0.028c-0.438-0.061-0.458-0.098-0.458-1.002V7.711c0-0.122,0-0.122,0.337-0.122
		c0.324,0,0.438,0.077,0.551,0.243c0.13,0.19,0.28,0.426,0.425,0.657c0.15,0.239,0.296,0.471,0.409,0.633
		c0.589,0.835,1.027,1.103,1.817,1.103c0.166,0,0.308-0.017,0.393-0.045L89.477,10.164L89.477,10.164z M86.91,6.994
		c-0.243,0.187-0.576,0.211-0.835,0.211c-0.385,0-0.507-0.012-0.54-0.024c-0.012-0.032-0.012-0.138-0.012-0.235V4.946
		c0-0.19,0-0.211,0.486-0.211c0.957,0,1.297,0.673,1.297,1.249C87.308,6.458,87.183,6.779,86.91,6.994L86.91,6.994z M82.507,8.916
		l0.004-0.021l-0.008-0.017c-0.037-0.081-0.126-0.118-0.203-0.118c-0.041,0-0.077,0.008-0.11,0.033l-0.02,0.02
		c-0.244,0.487-0.462,0.734-0.576,0.795c-0.183,0.093-0.441,0.122-1.062,0.122c-0.709,0-0.892-0.085-0.985-0.174
		c-0.122-0.125-0.146-0.405-0.146-0.839v-1.2c0-0.167,0-0.167,0.215-0.167h0.495c0.3,0,0.52,0.009,0.641,0.041
		c0.118,0.033,0.178,0.105,0.215,0.275l0.077,0.333l0.012,0.029c0.032,0.036,0.093,0.061,0.162,0.061
		c0.078,0,0.142-0.028,0.17-0.077L81.4,7.999V7.983c0-0.081-0.008-0.19-0.012-0.316c-0.012-0.154-0.02-0.332-0.02-0.499
		c0-0.178,0.012-0.361,0.02-0.523c0.008-0.13,0.012-0.248,0.012-0.34V6.284l-0.012-0.012c-0.028-0.049-0.093-0.077-0.17-0.077
		c-0.069,0-0.125,0.024-0.158,0.061l-0.082,0.377c-0.037,0.195-0.085,0.223-0.162,0.248c-0.094,0.032-0.349,0.049-0.702,0.049
		h-0.495c-0.214,0-0.214,0-0.214-0.175V5.052c0-0.276,0-0.276,0.189-0.276h0.613c0.361,0,0.64,0.008,0.811,0.049
		c0.389,0.098,0.466,0.34,0.588,0.713l0.016,0.052l0.009,0.021c0.028,0.032,0.077,0.057,0.138,0.057c0.061,0,0.142-0.02,0.178-0.078
		l0.012-0.02l-0.012-0.122c-0.044-0.499-0.085-0.92-0.13-1.046l-0.02-0.057l-0.057,0.012c-0.097,0.024-0.625,0.024-1.136,0.024
		h-1.601c-0.329,0-0.612-0.008-1.002-0.024h-0.016l-0.013,0.008c-0.069,0.037-0.081,0.134-0.081,0.167
		c-0.008,0.077,0.017,0.134,0.058,0.162l0.166,0.028c0.438,0.053,0.462,0.109,0.462,1.01v3.065c0,0.924-0.053,0.964-0.47,1.001
		l-0.305,0.028l-0.015,0.017c-0.049,0.048-0.053,0.125-0.049,0.186c0.012,0.061,0.041,0.11,0.078,0.13l0.012,0.008h0.016
		c0.495-0.017,0.791-0.024,1.156-0.024h0.766c0.742,0,1.488,0.008,2.279,0.024h0.041l0.016-0.036
		C82.231,9.876,82.446,9.216,82.507,8.916L82.507,8.916z M76.656,4.671c0.045-0.045,0.058-0.126,0.045-0.183
		c-0.008-0.061-0.037-0.109-0.077-0.133l-0.016-0.008h-0.021c-0.284,0.016-0.547,0.024-0.823,0.024
		c-0.336,0-0.657-0.012-0.879-0.024h-0.021l-0.016,0.008c-0.049,0.028-0.077,0.081-0.085,0.15c-0.008,0.069,0.013,0.13,0.057,0.167
		l0.016,0.012l0.17,0.021c0.3,0.032,0.325,0.098,0.325,0.098c0,0.052-0.008,0.141-0.073,0.308c-0.146,0.37-0.552,1.346-0.791,1.905
		c-0.06,0.146-0.142,0.333-0.231,0.544c-0.162,0.385-0.357,0.851-0.523,1.211c-0.402-0.924-0.775-1.856-1.152-2.806
		c-0.251-0.612-0.389-1.058-0.417-1.167c0.012-0.028,0.085-0.065,0.341-0.097l0.146-0.021l0.012-0.012
		c0.045-0.037,0.065-0.101,0.057-0.167c-0.007-0.069-0.036-0.121-0.084-0.149l-0.017-0.008h-0.02
		c-0.382,0.016-0.678,0.024-1.03,0.024c-0.357,0-0.629-0.008-0.88-0.024h-0.021l-0.016,0.008c-0.049,0.032-0.081,0.089-0.085,0.154
		c-0.008,0.064,0.016,0.125,0.061,0.167l0.017,0.012l0.174,0.021c0.333,0.036,0.446,0.19,0.637,0.657l1.5,3.697
		c0.179,0.442,0.308,0.823,0.385,1.123l0.009,0.033l0.032,0.012c0.048,0.021,0.102,0.032,0.154,0.032
		c0.049,0,0.097-0.012,0.13-0.036l0.021-0.013l0.008-0.02c0.146-0.458,0.556-1.46,0.884-2.218l0.458-1.045
		c0.393-0.896,0.725-1.569,0.948-1.951c0.109-0.174,0.223-0.255,0.389-0.268l0.28-0.016L76.656,4.671L76.656,4.671z M71.094,16.534
		c-1.553,1.208-2.575,3.15-2.575,5.42c0,2.639,1.269,4.5,2.907,5.623c1.492,1.002,3.252,1.371,5.093,1.371
		c1.31,0,2.781-0.304,3.231-0.47c0.227-0.077,0.471-0.162,0.717-0.203c0.308-0.389,0.839-1.739,0.981-2.801
		c-0.081-0.146-0.389-0.187-0.531-0.081c-0.471,1.208-1.634,2.927-4.273,2.927c-3.354,0-6.074-2.372-6.074-6.669
		c0-4.233,2.66-6.219,5.79-6.219c2.968,0,3.884,1.593,4.192,2.988c0.146,0.125,0.45,0.101,0.551-0.041
		c-0.167-1.249-0.264-2.538-0.284-3.008c-0.186,0.021-0.324-0.02-0.571-0.081c-0.961-0.268-2.514-0.491-3.617-0.491
		C74.492,14.798,72.586,15.37,71.094,16.534L71.094,16.534z M68.483,8.769V5.733c0-0.925,0.033-0.989,0.458-1.026l0.231-0.016
		l0.012-0.008c0.041-0.028,0.065-0.089,0.057-0.162c-0.004-0.033-0.012-0.13-0.086-0.166l-0.012-0.008h-0.016
		c-0.401,0.012-0.701,0.024-1.055,0.024c-0.364,0-0.656-0.012-1.069-0.024h-0.017l-0.012,0.008
		c-0.073,0.036-0.082,0.133-0.085,0.166c-0.004,0.077,0.017,0.134,0.057,0.162l0.012,0.008l0.231,0.016
		c0.43,0.037,0.458,0.101,0.458,1.026v3.036c0,0.917-0.021,0.965-0.462,1.019l-0.235,0.028l-0.017,0.012
		c-0.048,0.049-0.056,0.13-0.048,0.187c0.008,0.061,0.041,0.11,0.081,0.13l0.012,0.008h0.016c0.434-0.016,0.718-0.024,1.07-0.024
		c0.336,0,0.633,0.012,1.054,0.024h0.016l0.012-0.008c0.073-0.033,0.082-0.134,0.085-0.167c0.004-0.077-0.017-0.133-0.057-0.162
		l-0.239-0.032C68.503,9.73,68.483,9.682,68.483,8.769L68.483,8.769z M64.202,25.51v-7.278c0-2.169,0.041-2.518,1.249-2.619
		l0.511-0.041c0.122-0.082,0.081-0.45-0.041-0.511c-1.021,0.041-1.719,0.061-2.538,0.061c-0.855,0-1.553-0.02-2.575-0.061
		c-0.126,0.061-0.167,0.43-0.041,0.511l0.511,0.041c1.208,0.101,1.249,0.45,1.249,2.619v7.278c0,2.169-0.041,2.453-1.249,2.595
		l-0.511,0.061c-0.121,0.122-0.081,0.45,0.041,0.511c1.021-0.041,1.719-0.061,2.575-0.061c0.819,0,1.512,0.021,2.538,0.061
		c0.122-0.061,0.167-0.434,0.041-0.511l-0.511-0.061C64.243,27.967,64.202,27.679,64.202,25.51L64.202,25.51z M65.256,4.671
		c0.041-0.041,0.061-0.105,0.056-0.175c-0.008-0.061-0.036-0.113-0.081-0.142l-0.017-0.008h-0.02
		c-0.279,0.016-0.499,0.024-0.876,0.024c-0.299,0-0.583-0.008-1.001-0.024h-0.012l-0.012,0.004
		c-0.049,0.016-0.085,0.065-0.098,0.125c-0.016,0.077,0.013,0.154,0.057,0.195l0.013,0.012l0.166,0.021
		c0.292,0.036,0.442,0.077,0.479,0.142c0.101,0.162,0.163,0.79,0.163,1.727v1.825c0,0.081,0,0.178-0.005,0.244
		c-0.295-0.304-0.604-0.653-0.989-1.079l-1.188-1.33c-0.843-0.945-1.326-1.569-1.436-1.844l-0.016-0.049l-0.052,0.008
		c-0.102,0.012-0.244,0.024-0.385,0.024c-0.15,0-0.604,0-0.958-0.024h-0.016l-0.016,0.008c-0.044,0.024-0.077,0.069-0.085,0.129
		c-0.012,0.073,0.008,0.142,0.053,0.187l0.016,0.016l0.166,0.021c0.227,0.028,0.397,0.093,0.486,0.187
		c0.163,0.174,0.17,0.333,0.17,0.568v2.542c0,0.414,0,1.375-0.105,1.65c-0.021,0.044-0.094,0.102-0.32,0.134l-0.256,0.028
		l-0.016,0.016c-0.037,0.037-0.057,0.102-0.053,0.163c0.009,0.065,0.033,0.122,0.078,0.15l0.02,0.012h0.024
		c0.3-0.016,0.523-0.024,0.884-0.024c0.288,0,0.576,0.008,0.994,0.024h0.02l0.016-0.012c0.041-0.028,0.065-0.073,0.077-0.125
		c0.013-0.061-0.008-0.126-0.044-0.178L61.12,9.816l-0.296-0.028c-0.203-0.017-0.349-0.065-0.385-0.13
		c-0.093-0.162-0.142-0.791-0.142-1.731V6.065c0-0.15,0.004-0.316,0.017-0.434c0.138,0.15,0.361,0.417,0.563,0.657
		c0.142,0.166,0.268,0.316,0.349,0.413l1.979,2.25c0.657,0.746,0.969,1.119,1.086,1.281l0.021,0.028h0.032
		c0.114,0,0.195-0.053,0.223-0.137l0.004-0.013V10.1c-0.013-0.102-0.024-0.438-0.024-1.48V6.467c0-0.434-0.004-1.346,0.122-1.614
		c0.012-0.021,0.114-0.097,0.43-0.142l0.142-0.02L65.256,4.671L65.256,4.671z M57.617,4.658c0.037-0.045,0.053-0.118,0.045-0.178
		c-0.008-0.053-0.037-0.097-0.077-0.125l-0.016-0.012h-0.021c-0.296,0.016-0.523,0.024-0.892,0.024
		c-0.324,0-0.644-0.008-0.969-0.024h-0.02l-0.017,0.012c-0.037,0.028-0.065,0.077-0.078,0.133c-0.012,0.065,0.009,0.125,0.045,0.167
		l0.017,0.02l0.239,0.017c0.194,0.016,0.328,0.069,0.373,0.146c0.101,0.175,0.154,0.791,0.154,1.731v0.981
		c0,1.005-0.284,2.202-1.638,2.202c-1.135,0-1.662-0.702-1.662-2.21V5.696c0-0.904,0.033-0.973,0.454-1.01l0.223-0.016l0.013-0.013
		c0.041-0.028,0.065-0.085,0.057-0.158c-0.004-0.056-0.028-0.134-0.081-0.162L53.753,4.33h-0.016
		c-0.405,0.016-0.689,0.024-1.046,0.024c-0.349,0-0.653-0.012-1.055-0.024h-0.016l-0.013,0.008
		c-0.057,0.028-0.077,0.102-0.085,0.159c-0.003,0.072,0.016,0.129,0.057,0.158l0.012,0.012l0.231,0.016
		c0.421,0.037,0.454,0.102,0.454,1.01v2.011c0,1.029,0.211,1.666,0.685,2.059c0.377,0.325,0.925,0.483,1.634,0.483
		c0.673,0,1.313-0.248,1.675-0.645c0.414-0.442,0.612-1.124,0.612-2.084V6.56c0-0.434,0-1.443,0.113-1.71
		c0.04-0.085,0.187-0.15,0.369-0.167l0.231-0.016L57.617,4.658L57.617,4.658z M47.822,15.573c0.122-0.082,0.081-0.45-0.04-0.511
		c-0.88,0.041-1.574,0.061-2.372,0.061c-0.88,0-1.574-0.041-2.574-0.061c-0.122,0.061-0.167,0.43-0.041,0.511l0.531,0.041
		c1.062,0.081,1.208,0.43,1.208,2.574v7.363c0,2.149-0.041,2.351-1.188,2.554l-0.345,0.061c-0.121,0.122-0.081,0.45,0.041,0.511
		c0.798-0.021,1.492-0.061,2.372-0.061c0.799,0,1.492,0.021,2.595,0.061c0.122-0.061,0.166-0.434,0.041-0.511l-0.592-0.061
		c-1.147-0.122-1.249-0.409-1.249-2.554v-2.882c0-0.613,0.041-0.657,1.022-0.657h5.846c0.981,0,1.022,0.041,1.022,0.657v2.882
		c0,2.149,0,2.351-1.249,2.554l-0.389,0.061c-0.122,0.122-0.081,0.45,0.04,0.511c0.9-0.041,1.634-0.061,2.478-0.061
		c0.798,0,1.492,0.021,2.473,0.061c0.122-0.061,0.166-0.434,0.041-0.511l-0.491-0.061c-1.188-0.142-1.229-0.409-1.229-2.554v-7.363
		c0-2.148,0.041-2.457,1.229-2.574l0.43-0.041c0.125-0.082,0.081-0.45-0.041-0.511c-0.92,0.041-1.614,0.061-2.416,0.061
		c-0.835,0-1.533-0.02-2.478-0.061c-0.125,0.061-0.167,0.43-0.041,0.511l0.389,0.041c1.208,0.122,1.249,0.43,1.249,2.574v2.352
		c0,0.637-0.041,0.656-1.022,0.656h-5.846c-0.981,0-1.022-0.02-1.022-0.656v-2.352c0-2.148,0.041-2.457,1.229-2.574L47.822,15.573
		L47.822,15.573z M46.999,8.916l0.004-0.021l-0.012-0.017c-0.037-0.081-0.125-0.118-0.199-0.118c-0.041,0-0.077,0.008-0.109,0.033
		l-0.02,0.024c-0.244,0.487-0.462,0.734-0.576,0.794c-0.182,0.093-0.442,0.122-1.062,0.122c-0.709,0-0.891-0.085-0.985-0.174
		c-0.122-0.125-0.146-0.405-0.146-0.839v-1.2c0-0.166,0-0.166,0.215-0.166h0.495c0.299,0,0.523,0.008,0.64,0.04
		c0.122,0.032,0.178,0.105,0.215,0.276l0.077,0.333l0.012,0.028c0.033,0.036,0.094,0.061,0.163,0.061
		c0.077,0,0.142-0.028,0.167-0.077l0.012-0.012V7.987c0-0.081-0.008-0.19-0.012-0.316c-0.012-0.154-0.021-0.333-0.021-0.499
		c0-0.178,0.012-0.36,0.021-0.523c0.008-0.129,0.012-0.247,0.012-0.341V6.284L45.88,6.272c-0.029-0.053-0.093-0.077-0.17-0.077
		c-0.068,0-0.125,0.024-0.158,0.061L45.47,6.633c-0.036,0.195-0.085,0.223-0.162,0.248c-0.089,0.032-0.345,0.049-0.702,0.049h-0.495
		c-0.215,0-0.215,0-0.215-0.175V5.052c0-0.276,0-0.276,0.187-0.276H44.7c0.365,0,0.636,0.008,0.811,0.049
		c0.39,0.098,0.466,0.34,0.588,0.713l0.016,0.052l0.012,0.021c0.033,0.032,0.077,0.057,0.138,0.057c0.062,0,0.134-0.033,0.175-0.085
		l0.012-0.02l-0.012-0.125c-0.044-0.499-0.085-0.917-0.13-1.046l-0.02-0.057l-0.057,0.012c-0.098,0.024-0.625,0.024-1.136,0.024
		h-1.601c-0.329,0-0.613-0.008-1.002-0.024h-0.016l-0.012,0.008c-0.069,0.036-0.081,0.133-0.081,0.166
		c-0.008,0.077,0.017,0.134,0.061,0.162l0.166,0.028c0.434,0.053,0.462,0.109,0.462,1.01v3.065c0,0.924-0.057,0.965-0.47,1.002
		L42.3,9.816l-0.016,0.016c-0.049,0.049-0.057,0.126-0.049,0.187c0.012,0.061,0.041,0.109,0.077,0.129l0.012,0.008h0.017
		c0.495-0.016,0.79-0.024,1.155-0.024h0.77c0.742,0,1.488,0.008,2.283,0.024h0.041l0.016-0.037
		C46.723,9.876,46.934,9.216,46.999,8.916L46.999,8.916z M39.875,8.786V5.716c0-0.908,0.024-0.964,0.454-1.009l0.178-0.016
		l0.033-0.008c0.041-0.028,0.064-0.085,0.056-0.162c-0.004-0.033-0.012-0.13-0.081-0.166l-0.012-0.008h-0.025
		c-0.409,0.016-0.693,0.024-1.001,0.024c-0.369,0-0.665-0.012-1.03-0.024h-0.016l-0.013,0.008c-0.073,0.036-0.081,0.133-0.084,0.166
		c-0.008,0.077,0.016,0.134,0.057,0.162l0.19,0.028c0.433,0.045,0.458,0.102,0.458,1.01v0.977c0,0.211,0,0.211-0.361,0.211h-2.437
		c-0.361,0-0.361,0-0.361-0.211V5.721c0-0.908,0.024-0.965,0.454-1.01l0.163-0.016l0.032-0.008c0.041-0.028,0.065-0.089,0.057-0.162
		c-0.004-0.033-0.013-0.129-0.085-0.167L36.49,4.351h-0.016c-0.389,0.016-0.673,0.024-0.985,0.024c-0.223,0-0.414-0.008-0.629-0.012
		c-0.138-0.004-0.28-0.012-0.442-0.012h-0.016l-0.013,0.008c-0.072,0.036-0.081,0.133-0.085,0.167
		c-0.004,0.077,0.017,0.133,0.057,0.166l0.012,0.008l0.239,0.016c0.373,0.028,0.442,0.105,0.442,1.009V8.79
		c0,0.888-0.016,0.924-0.438,1.001l-0.166,0.033l-0.012,0.012c-0.049,0.048-0.057,0.126-0.049,0.187
		c0.013,0.061,0.041,0.11,0.082,0.129l0.012,0.009h0.016c0.118-0.004,0.231-0.009,0.341-0.013c0.203-0.008,0.409-0.012,0.645-0.012
		c0.32,0,0.592,0.008,1.079,0.025h0.016l0.012-0.009c0.057-0.028,0.077-0.101,0.081-0.167c0.004-0.073-0.016-0.129-0.057-0.162
		l-0.28-0.033c-0.41-0.044-0.458-0.085-0.458-1.001v-1.2c0-0.207,0-0.207,0.36-0.207h2.437c0.361,0,0.361,0,0.361,0.207v1.2
		c0,0.904-0.008,0.924-0.462,1.001L38.392,9.82l-0.012,0.012c-0.049,0.049-0.053,0.13-0.049,0.187
		c0.012,0.061,0.041,0.109,0.077,0.129l0.012,0.008h0.016c0.41-0.016,0.706-0.024,1.03-0.024c0.336,0,0.632,0.008,1.03,0.024h0.016
		l0.012-0.008c0.073-0.032,0.081-0.134,0.085-0.166c0.004-0.077-0.017-0.134-0.057-0.162l-0.235-0.032
		C39.896,9.73,39.875,9.682,39.875,8.786L39.875,8.786z M32.866,4.241l0.007-0.024l-0.012-0.021
		c-0.032-0.064-0.125-0.068-0.158-0.068c-0.02,0-0.052,0.004-0.076,0.012l-0.021,0.008l-0.012,0.02
		c-0.109,0.187-0.154,0.207-0.608,0.207h-3.527c-0.381,0-0.551-0.02-0.588-0.21l-0.004-0.021l-0.012-0.012
		c-0.024-0.024-0.061-0.032-0.118-0.032c-0.02,0-0.089,0.004-0.125,0.028l-0.024,0.012l-0.004,0.028
		c-0.057,0.341-0.187,0.88-0.324,1.257L27.25,5.445l0.012,0.024c0.053,0.102,0.227,0.154,0.321,0.081l0.012-0.008l0.009-0.013
		c0.085-0.194,0.169-0.385,0.369-0.567c0.187-0.17,0.612-0.194,1.005-0.194h0.47c0.19,0,0.19,0,0.19,0.207v3.811
		c0,0.924-0.053,0.965-0.47,1.002l-0.304,0.024L28.831,9.82c-0.053,0.032-0.077,0.097-0.077,0.17
		c0.004,0.057,0.024,0.129,0.081,0.158l0.013,0.008h0.016c0.523-0.016,0.835-0.024,1.184-0.024c0.333,0,0.608,0.008,1.115,0.024
		h0.016l0.012-0.008c0.057-0.028,0.081-0.101,0.081-0.166c0.005-0.073-0.016-0.13-0.056-0.162l-0.3-0.032
		c-0.425-0.037-0.454-0.094-0.454-1.002V4.962c0-0.085,0-0.17,0.012-0.187c0.012-0.012,0.105-0.012,0.166-0.012h0.604
		c0.454,0,0.77,0.065,0.948,0.199c0.082,0.057,0.15,0.275,0.191,0.576l0.004,0.021l0.012,0.012c0.033,0.036,0.089,0.061,0.154,0.061
		c0.082,0,0.146-0.032,0.175-0.089l0.008-0.017L32.731,5.51C32.715,5.267,32.776,4.582,32.866,4.241L32.866,4.241z M27.063,21.955
		c0,2.639,1.269,4.5,2.907,5.623c1.492,1.002,3.252,1.371,5.093,1.371c1.31,0,2.781-0.304,3.231-0.47
		c0.222-0.077,0.47-0.162,0.717-0.203c0.308-0.389,0.839-1.739,0.981-2.801c-0.081-0.146-0.389-0.187-0.531-0.081
		c-0.47,1.208-1.634,2.927-4.274,2.927c-3.353,0-6.073-2.372-6.073-6.669c-0.004-4.237,2.656-6.224,5.786-6.224
		c2.968,0,3.884,1.594,4.196,2.988c0.146,0.126,0.45,0.101,0.552-0.041c-0.167-1.249-0.264-2.538-0.284-3.008
		c-0.186,0.021-0.324-0.021-0.572-0.082c-0.96-0.267-2.514-0.49-3.62-0.49c-2.125,0-4.031,0.572-5.522,1.74
		C28.085,17.738,27.063,19.684,27.063,21.955L27.063,21.955z M21.744,18.504V4.257c-11.445-1.107-20.082,0-20.082,0
		s0,14.243,0,14.248c0.913,9.657,9.958,10.789,10.043,10.776C13.319,28.989,20.905,27.469,21.744,18.504L21.744,18.504z
		 M21.241,18.427c-0.799,8.599-7.999,10.067-9.532,10.347c-0.081,0.012-8.672-1.075-9.54-10.343c0-0.004,0-13.68,0-13.68
		s8.206-1.059,19.068,0L21.241,18.427L21.241,18.427z M18.326,23.487c0.324-0.458,0.503-0.953,0.616-1.484
		c-0.187,0.244-0.462,0.454-0.738,0.568C18.014,23.179,18.104,23.816,18.326,23.487L18.326,23.487z M18.634,22.108
		c0.231-0.19,0.361-0.523,0.657-0.62c-0.223-0.207-0.442,0.203-0.555,0.061c0.207-0.325,0.336-0.572,0.356-0.974
		c0.008-0.219,0.264-0.421,0.324-0.543c-0.243,0.037-0.896,0.418-1.025,0.641c-0.438,0.579-0.414,1.124-2.247,1.926
		c-0.093,0,0.341-0.312,0.458-0.677c0.057-0.167,0.3-0.953,0.134-1.33c-0.377,0.385-0.3,0.507-0.41,0.791
		c-0.275,0.75-0.421,0.819-1.103,1.281c-0.089,0.062-0.616,0.872-1.293,0.909c0.069-0.016,0.029-0.187,0.259-0.336
		c0.763-0.499,0.471-1.573,1.464-1.751c-0.495-0.175-0.835,0.304-0.924,0.255c0.401-0.556,0.048-1.022,0.105-1.476
		c-0.134,0.073-0.268,0.235-0.276,0.369c-0.077,0.807-0.45,0.945-0.491,1.294c0.077,0.576-0.385,1.021-0.722,1.427
		c-0.064-0.336,0.021-0.632,0.442-0.908c0.235-0.155-0.021-0.609-0.021-0.609c-0.097,0.503-0.377,0.657-0.551,0.678
		c-0.154,0.021,0.539-0.702,0.458-1.366c-0.032-0.296-0.122-0.167-0.17-0.495c-0.596,0.66-0.162,1.074-0.771,1.837
		c-0.288,0.36-0.397,0.997-0.434,1.013c0.008-0.949,0.036-0.673,0.458-1.444c0.345-0.632-0.02-1.224-0.064-1.605
		c-0.759,0.536-0.698,1.541-0.718,1.326c-0.02-0.211-0.114-0.592-0.012-0.933c0.17-0.567-0.187-1.435-0.187-1.435
		c-1.062,1.667-0.17,3.616-0.239,3.592c-0.458-0.726-0.795-0.75-0.9-1.305c-0.057-0.3-0.604-1.951-1.609-1.979
		c0.506,0.434,0.385,0.499,0.417,1.212c-0.324,1.792,2.182,1.975,2.015,2.907c-0.345-0.547-0.868-0.782-1.658-1.212
		c-0.349-0.276-0.742-0.401-0.766-0.835c0.041-0.316,0.057-0.251,0.008-0.657c-0.036-0.292-0.324-0.118-0.539-0.726
		c-0.454,0.41-0.288,0.872-0.251,1.135c0.012,0.077,0.06,0.353-0.008,0.515c-0.163-0.109-0.276-0.34-0.454-0.567
		c-0.324-0.413-0.321-0.92-0.482-1.269c-0.077-0.162-0.183-0.385-0.248-0.389l-0.008,0.008c-0.077,0.652-0.041,1.216,0.251,1.707
		c0,0-0.081,0.142-0.146,0.174c-0.279-0.077-0.677-0.312-0.839-0.766c-0.349,0.295-0.102,0.673-0.118,0.665
		c-0.786-0.401,0.013-1.958-1.106-1.914c0.275,0.3,0.101,0.686,0.077,1.042c-0.008,0.584,0.734,1.038,0.734,1.038
		c-0.827-0.28-0.998,0.109-0.99,0.109c0,0,1.217,0.527,3.143,0.726c0.247,0.028,0.6,0.316,0.543,0.316
		c-0.248-0.016-0.738-0.336-1.439,0.288c0.414,0.012,0.701,0.685,1.375,0.3c1.743-0.495,2.388,0.369,2.667,0.592
		c-0.061,0.11-1.338-0.803-2.352-0.199c-0.54,0.32-1.403,0.032-2.08-0.479c0.276,0.702,1.439,1.488,1.824,1.488
		c0.474,0,1.079-0.616,1.764-0.584c1.099,0.057,1.252,1.034,1.127,0.961c0,0-0.863-1.431-1.974,0.097
		c0.519-0.235,1.212-0.178,1.82,0.109c0.082,0.037-0.146,0.296-0.312,0.483c-0.105,0.121-0.567,0.806-1.07,0.129
		c-0.078-0.101-0.312-0.726-1.881-0.592c0.592,0.268,1.245,0.969,1.569,1.285c0.819,0.811,2.06-0.989,2.108-0.786
		c0,0.406,0.207,0.6,0.316,0.819c0.275,0.551-0.349,0.458-0.689,0.317c0,0,0.649,1.009,1.191,0.445
		c0.601-0.62-0.786-1.09-0.348-1.585c0.248-0.279,1.119,0.625,1.513,0.625c1.066,0.121,1.009-0.893,1.568-0.864
		c-0.526-0.535-1.091-0.244-1.208-0.106c-0.353,0.414-0.766,0.138-1.05-0.084c-0.158-0.207-0.418-0.235-0.649-0.175
		c-0.109,0.013,0.223-0.389,0.657-0.304c0.981,0.187,1.962-0.162,2.202-0.3c0.393-0.219,0.616-0.596,1.058-1.014
		c-0.138,0.028-0.953,0.479-1.212,0.608c-0.787,0.394-1.277-0.118-1.366-0.118c-0.15,0.004-0.114-0.113,0.121-0.187
		c0.807-0.178,1.363-0.888,2.128-1.172C16.842,22.559,17.921,22.813,18.634,22.108L18.634,22.108z M17.033,21.046
		c-0.024,0.166-0.024,0.3-0.077,0.486c-0.004,0.017,0.19,0.098,0.276,0.17c0.125-0.118,0.235-0.174,0.364-0.336
		c-0.028-0.017-0.547-0.466-0.547-0.446C17.049,20.986,17.049,20.974,17.033,21.046L17.033,21.046z M17.114,21.817
		c0,0-0.198-0.15-0.211-0.122c-0.032,0.085-0.077,0.187-0.133,0.3C16.721,22.101,16.878,22.023,17.114,21.817L17.114,21.817z
		 M19.454,19.786c-0.049-1.845-1.18-3.896-0.872-3.516c0.77,0.953,1.017,3.021,1.545,4.796c0,0,0.34,0.17,0.268-2.083
		c-0.016-0.458-0.203-1.067-0.43-1.492c-0.45-0.835-1.354-2.25-1.33-2.262c0.219-0.178,0.75,1.042,1.216,1.52
		c0.3,0.312,1.136,0.612,1.192,0.576c-0.669-1.301-2.291-2.521-2.124-2.672c1.191,1.119,1.573,1.172,1.617,1.115l-1.074-1.042
		c-0.3-0.409-0.706-0.721-0.649-0.705c0.479,0.105-0.251-0.397-0.815-0.551c-0.101-0.029-0.264-0.037-0.271-0.085
		c-0.012-0.085,0.133-0.053,0.251-0.085c0.077-0.024,0.154-0.082,0.158-0.19c-0.214,0.049-0.433-0.004-0.62-0.085
		c-0.381-0.178-1.059-0.381-1.375-0.255c-0.187,0.073-0.219,0.06-0.414,0.21c-0.085-0.037-0.324-0.187-0.665,0.219
		c-0.102,0.125-0.231,0.275-0.235,0.385c-0.012,0.276,0.008,0.013,0.073,0.276c0.028,0.109-0.098,0.308-0.596,0.478
		c-0.191,0.065-0.142,0.256-0.142,0.256c0.097-0.045,0.247-0.154,0.478-0.045c0.458,0.211,0.547-0.122,0.831-0.365
		c0,0-0.077,0.304,0,0.32c0.357,0.073,0.235,0.34,0.19,0.381c-0.45,0.401-0.259,0.547-0.421,0.795
		c-0.15,0.235-0.385,0.324-0.729,0.308c-0.479-0.012,0.624-0.738-0.43-1.038c0.166,0.276,0.235,0.503-0.138,0.714
		c-0.231,0.138-0.114,0.823-0.71,0.502c0,0-0.048,0.507-0.117,0.531c0.811,0.71,0.357,1.099,0.397,2.112
		c0.255,0.645-0.024,0.953-0.089,0.99c0.041,0.438,0.081,0.677,0.353,1.034c0.198,0.255-0.016,0.657,0.187,0.928
		c0.187-0.657,0.385-0.385,0.438-1.301c0.077-0.154,0.381-0.426,0.555-0.442c-0.003,0.551,0.203,1.054,0.159,1.285
		c0,0,0.466-0.085,0.612-0.033c0.113,0.037,0.203,0.187,0.207,0.28c-0.158,0.101-0.158,0.061-0.397,0.235
		c-0.417,0.304-0.612,0.924-0.612,0.924s0.985-0.786,1.054-0.924c0.053-0.113,0.109-0.284,0.163-0.462
		c0.008-0.02-0.507-0.32-0.649-0.587c-0.438-0.855,0.677,0.502,0.706,0.389c0.065-0.296,0.271-0.572,0.271-0.572
		c-0.073-0.081-0.247-0.137-0.515-0.608c-0.612-1.079,0.709,0.458,0.709,0.458c0.349-0.199,0.352,0.069,0.397,0.353
		c0.004,0.028,0.596,0.462,0.625,0.491c0.167-0.154,0.288-0.365,0.357-0.511c0.012-0.021-1.066-0.974-1.252-1.29
		c-1.484-2.546,1.2,1.127,1.325,1.03c0.073-0.199,0.098-0.475,0.089-0.844c0-0.008-0.502-0.356-0.831-0.892
		c-1.249-2.056,0.819,0.612,0.814,0.592c-0.024-0.442-0.385-2.352-0.138-1.78c0.125,0.296,0.527,1.517,0.454,2.761
		C18.658,20.073,19.238,19.842,19.454,19.786L19.454,19.786z M20.264,7.521c0.012,0.077,0.016,0.126,0.024,0.162
		C20.285,7.65,20.276,7.598,20.264,7.521c0,0-0.033-0.689-0.771-0.689c-0.239,0-0.531,0.292-1.281-0.033v1.168
		c0.304,0.089,1.131-0.385,1.464-0.527C19.916,7.338,20.248,7.407,20.264,7.521L20.264,7.521z M18.192,9.216v1.167
		c0,0,0.652-0.004,1.375-0.471c0.215-0.142,0.539-0.081,0.697,0.045l0,0c0,0-0.098-0.766-0.746-0.668
		C18.33,9.458,18.192,9.216,18.192,9.216L18.192,9.216z M13.74,11.064c0.621,0,3.062,0.669,4.233,0.591V5.522
		c0,0-1.727,0.244-3.227-0.308C13.525,4.76,11.843,5.55,11.843,5.55c0,0.21,0,6.013,0,6.013S12.464,11.064,13.74,11.064
		L13.74,11.064z M12.423,9.049c0.057,0.008,0.235,0.012,0.3,0.012c-0.008,0.13-0.008,1.038,0,1.135
		c0.008,0.093,0.089,0.122,0.17,0.085c0.041-0.017,0.077,0.012,0.024,0.052c-0.089,0.065-0.199,0.223-0.247,0.284
		c-0.102-0.069-0.215-0.158-0.207-0.243C12.471,10.229,12.423,9.167,12.423,9.049L12.423,9.049z M12.739,7.719
		c0.178-0.097,0.58-0.158,0.717-0.117c0.069,0.02,0.142,0,0.142-0.033c0-0.048,0.065-0.036,0.065,0c0,0.033,0,0.475-0.008,0.515
		c0,0.041-0.061,0.036-0.061,0c0-0.061,0-0.081-0.057-0.17c-0.163-0.239-0.6-0.259-0.819,0.028c-0.077,0.097-0.101,0.268-0.02,0.296
		c0.081,0.029,0.397,0.004,0.499-0.016c0.101-0.016,0.353-0.061,0.385-0.081c0.033-0.016,0.069-0.041,0.069,0.012
		s0,0.215-0.004,0.268c0,0.053-0.041,0.028-0.065,0.008c-0.033-0.017-0.268-0.041-0.369-0.049c-0.17-0.012-0.434-0.069-0.515-0.041
		c-0.085,0.024-0.016,0.158,0.053,0.256c0.215,0.292,0.62,0.304,0.782,0.061c0.057-0.085,0.057-0.102,0.057-0.167
		c0-0.036,0.065-0.044,0.065,0c0,0.041-0.004,0.401-0.004,0.438c0,0.036-0.069,0.044-0.069,0c0.004-0.077-0.044-0.073-0.133-0.045
		c-0.236,0.062-0.548,0.081-0.734-0.02c-0.194-0.113-0.365-0.15-0.373-0.583C12.337,8.02,12.581,7.809,12.739,7.719L12.739,7.719z
		 M14.029,5.851c-0.106,0.032-0.183,0.138-0.207,0.243C13.801,6.203,13.44,7.241,13.4,7.31c-0.085-0.324-0.446-1.099-0.559-1.261
		c-0.102-0.142-0.191-0.117-0.284-0.122c-0.089,0-0.057-0.081,0.017-0.077c0.101,0.012,0.665,0.061,0.827,0.084
		C13.457,5.944,13.457,6,13.384,6.021c-0.037,0.008-0.129,0.057-0.129,0.101c0,0.061,0.207,0.515,0.259,0.6
		C13.562,6.604,13.757,6.11,13.716,6s-0.057-0.126-0.138-0.134c-0.081-0.012-0.081-0.057,0.017-0.073
		c0.097-0.017,0.365-0.037,0.446-0.028C14.122,5.777,14.134,5.822,14.029,5.851L14.029,5.851z M14.637,5.867L14.531,5.96h-0.089
		l-0.089-0.086l-0.004-0.17l0.142-0.122l0.142,0.142v0.142H14.637z M14.88,7.067l-0.187,0.247h-0.174
		c-0.085-0.089-0.146-0.154-0.162-0.227l-0.012-0.592l-0.223-0.126C14.082,6.422,14,6.422,14.032,6.377l0.3-0.268l0.065-0.008
		l0.19,0.19l-0.004,0.608C14.689,7.018,14.742,7.042,14.88,7.067L14.88,7.067z M15.95,6.366c-0.044,0-0.502,0.052-0.502,0.052
		c-0.024,0.013,0.024,0.58,0.041,0.625c0.012,0.049,0.057,0.118,0.109,0.073c0.048-0.045,0.102,0.032,0.045,0.077
		c-0.033,0.024-0.134,0.227-0.178,0.255c-0.074,0.044-0.179-0.102-0.211-0.195C15.196,7.099,15.16,6.71,15.16,6.455
		c0.016,0.004-0.21-0.093-0.109-0.13c0.203-0.085,0.393-0.353,0.417-0.422c0.024-0.068,0.089-0.04,0.057,0.029
		c-0.06,0.138-0.057,0.235-0.028,0.324c0.008,0.021,0.397,0.012,0.454,0.012C15.987,6.268,15.982,6.366,15.95,6.366L15.95,6.366z
		 M15.423,8.32c-0.037,0.198,0.134,0.361,0.264,0.43c0.105,0.057,0.284,0.024,0.332,0.016c0.044-0.008,0.033-0.021,0.065-0.053
		s0.073-0.004,0.045,0.028c-0.032,0.033-0.296,0.284-0.369,0.333c-0.069,0.016-0.215,0.012-0.304-0.102
		c-0.158-0.194-0.271-0.268-0.223-0.628c0.033-0.243,0.438-0.454,0.536-0.507c0.036,0.033,0.223,0.231,0.3,0.296
		c-0.033,0.041-0.134,0.085-0.235,0.085c-0.101,0-0.17-0.082-0.235-0.158C15.557,8.117,15.456,8.173,15.423,8.32L15.423,8.32z
		 M17.045,7.355l-0.243,0.267c-0.073-0.053-0.114-0.105-0.134-0.195c-0.187,0.037-0.316,0.146-0.401,0.215
		c-0.082-0.069-0.194-0.255-0.194-0.385c-0.004-0.13,0.097-0.32,0.166-0.385c0.008,0.003,0.012,0.008,0.02,0.012
		c-0.041-0.024-0.081-0.049-0.109-0.073c-0.028-0.024-0.033-0.085,0-0.138c0.049-0.064,0.203-0.259,0.349-0.28
		c0.077-0.012,0.211,0.009,0.397,0.174c-0.024,0.029-0.024,0.568-0.024,0.621C16.935,7.27,17.045,7.355,17.045,7.355L17.045,7.355z
		 M17.548,8.567c-0.077-0.004-0.162-0.016-0.207-0.032c-0.069-0.017-0.041-0.102,0.017-0.102c0.057,0,0.142,0.016,0.19,0.032
		C17.588,8.49,17.604,8.575,17.548,8.567L17.548,8.567z M17.548,8.757c-0.081-0.008-0.162-0.016-0.207-0.032
		c-0.069-0.021-0.041-0.098,0.017-0.098c0.053,0,0.142,0.016,0.186,0.032C17.58,8.681,17.596,8.766,17.548,8.757L17.548,8.757z
		 M16.267,9.888c0.081-0.044,0.276-0.223,0.34-0.267c0.11,0.085,0.186,0.17,0.239,0.231c0.073-0.036,0.187-0.122,0.244-0.167
		c0.097,0.069,0.207,0.159,0.247,0.207c0.052-0.048,0.118-0.012,0.057,0.048c-0.057,0.053-0.187,0.167-0.231,0.203
		c-0.073-0.037-0.194-0.178-0.235-0.211c-0.02,0.016-0.061,0.036-0.097,0.057c0,0.077,0,0.713-0.004,0.791
		c-0.102,0.008-0.19,0.012-0.259-0.004c-0.009-0.102,0.004-0.652,0-0.742C16.558,9.929,16.384,9.893,16.267,9.888L16.267,9.888z
		 M16.226,8.664c0.012-0.32,0.219-0.588,0.564-0.706c0.267,0.09,0.381,0.361,0.389,0.547c0.008,0.146-0.093,0.345-0.158,0.466
		c-0.105,0.069-0.211,0.17-0.312,0.268C16.376,9.231,16.218,8.851,16.226,8.664L16.226,8.664z M14.965,9.706
		c0.102-0.109,0.203-0.178,0.264-0.239c0.101,0.076,0.138,0.121,0.191,0.211c-0.004,0.142-0.033,0.433-0.021,0.535
		c0.009,0.101,0.401,0.17,0.422,0.02c0.016-0.146,0.004-0.336,0-0.421c-0.008-0.069-0.167-0.102-0.244-0.089
		c0.105-0.114,0.199-0.195,0.263-0.255c0.098,0.072,0.187,0.173,0.248,0.259c-0.004,0.146-0.028,0.499-0.008,0.592
		c0.028,0.098,0.017,0.102,0.089,0.15c-0.073,0.069-0.126,0.102-0.179,0.154c-0.077-0.021-0.203-0.134-0.191-0.231
		c-0.093,0.061-0.36,0.175-0.458,0.199c-0.097-0.102-0.17-0.126-0.179-0.251c-0.008-0.126,0.028-0.451-0.012-0.527
		C15.111,9.73,15.042,9.714,14.965,9.706L14.965,9.706z M14.738,8.81c-0.097-0.053-0.23-0.183-0.3-0.288
		c-0.13,0.167-0.162,0.309-0.397,0.369c0.138-0.117,0.264-0.369,0.255-0.612c-0.012-0.219-0.129-0.325-0.235-0.369
		c-0.089,0.041-0.167,0.101-0.215,0.122c-0.052,0.021-0.061-0.057-0.028-0.078c0.117-0.056,0.369-0.25,0.405-0.288
		c0.105,0.021,0.239,0.114,0.26,0.199c0.081-0.049,0.227-0.207,0.267-0.244c0.049,0.085,0.194,0.191,0.357,0.251
		c-0.146,0.256-0.479,0.102-0.523,0.037c-0.052,0.089-0.064,0.142-0.012,0.255c0.069,0.15,0.336,0.292,0.479,0.328
		C14.998,8.551,14.807,8.769,14.738,8.81L14.738,8.81z M14.357,9.576c0.012,0.004-0.211-0.085-0.114-0.133
		c0.17-0.085,0.337-0.26,0.365-0.333c0.028-0.069,0.089-0.037,0.057,0.032c-0.037,0.069-0.057,0.239-0.037,0.292
		c0.008,0.024,0.138,0.033,0.194,0.033c0.033,0,0.033,0.101-0.004,0.101c-0.041-0.003-0.203,0.004-0.203,0.004
		c-0.024,0.008-0.008,0.568,0.008,0.617c0.016,0.044,0.15,0.077,0.198,0.032c0.049-0.045,0.102,0.004,0.041,0.044
		c-0.033,0.028-0.13,0.187-0.211,0.215c-0.081,0.033-0.207-0.02-0.26-0.101C14.3,10.253,14.353,9.836,14.357,9.576L14.357,9.576z
		 M13.842,10.48c-0.081-0.061-0.154-0.077-0.179-0.178c-0.211,0.081-0.296,0.207-0.421,0.296c-0.077-0.068-0.138-0.195-0.142-0.325
		c-0.004-0.125,0.122-0.3,0.191-0.364c-0.013-0.008-0.013-0.012-0.024-0.017c-0.029-0.024-0.069-0.211-0.033-0.259
		c0.049-0.069,0.236-0.328,0.39-0.341c0.102-0.008,0.183,0.118,0.271,0.211c-0.02,0.024-0.012,0.482-0.012,0.535
		c0.097,0.102,0.134,0.125,0.19,0.085c0.057-0.037,0.078,0,0.041,0.037C14.073,10.205,13.891,10.428,13.842,10.48L13.842,10.48z
		 M13.651,9.925c0-0.097,0-0.19-0.008-0.235c0.008-0.073-0.142-0.175-0.183-0.175c-0.045,0-0.077,0.017-0.13,0.102
		c-0.028,0.045-0.02,0.214,0.004,0.231C13.457,9.954,13.538,9.941,13.651,9.925L13.651,9.925z M13.396,9.99
		c-0.113,0.214-0.021,0.259,0.044,0.316c0.077-0.041,0.15-0.077,0.211-0.117c0-0.037,0.004-0.114,0.004-0.195
		C13.521,10.007,13.481,10.035,13.396,9.99L13.396,9.99z M16.465,8.697c0.053,0.138,0.28,0.316,0.345,0.345
		c0.098-0.118,0.146-0.325,0.125-0.503c-0.016-0.137-0.19-0.287-0.344-0.34C16.392,8.308,16.392,8.515,16.465,8.697L16.465,8.697z
		 M16.457,7.427c0.077-0.036,0.134-0.057,0.199-0.057c-0.004-0.032-0.008-0.061-0.008-0.101c0-0.032,0.003-0.114,0.003-0.207
		c-0.105-0.033-0.243-0.093-0.36-0.158c0.017,0.012,0.032,0.021,0.053,0.033C16.218,7.168,16.388,7.371,16.457,7.427L16.457,7.427z
		 M16.21,6.779c0.085,0.073,0.324,0.187,0.446,0.227c0-0.102,0-0.203-0.013-0.251c0.008-0.068-0.235-0.198-0.271-0.198
		c-0.045-0.004-0.105,0.069-0.162,0.15C16.185,6.747,16.189,6.763,16.21,6.779L16.21,6.779z M11.625,12.333
		c-0.191,0.021-0.43,0.138-0.487,0.341c-0.118,0.117-0.114-0.195-0.349-0.057c-0.102,0.137,0.166,0.442,0.097,0.462
		c-0.259,0.077-0.231-0.39-0.377-0.401c-0.21,0.077-0.75,0.567-0.223,0.957c-0.016-0.263,0.483-0.547,0.649,0.033
		c0.499-0.037,0.669,0.264,0.73,0.438c0.737,0.13,0.523,0.62,0.502,0.62c-0.073-0.105-0.389-0.592-0.904-0.255
		c-0.121,0.081-0.328,0.154-0.434,0.053c0.012,0.166,0.215,0.312,0.356,0.271c0.458-0.125,0.577,0.304,0.223,0.422
		c0.078,0.118,0.219,0.109,0.354,0.028c0.198-0.122,0.223-0.231,0.295-0.3c0.125,0.6-0.632,0.657-0.88,0.697
		c0.037,0.126,0.122,0.154,0.271,0.203c-0.803,0.028-0.961,0.778-0.912,1.212c0.182,0.012,0.458-0.381,0.434-0.154
		c-0.567,0.604-0.762,1.411-0.458,1.926c0.146-0.056,0.187-0.214,0.235-0.344c0.021-0.012,0.312,0.118-0.154,0.677
		c-0.032,0.146-0.195,0.583,0.167,0.689c0.137-0.162,0.118-0.3,0.146-0.47c0.101-0.041,0.174,0.3,0.133,0.397
		c-0.47,0.194-0.413,1.634,0.134,2.404c-0.251-0.563-0.219-1.281,0-1.856c0.167-0.446,0.536-1.444,0.544-1.431
		c0.21,0.255,0.474,1.358,0.474,1.812c0.295-0.255,0.349-0.535,0.592-0.721c0.113,0.401,0.162,0.665,0.251,1.017
		c0.117-0.345,0.426-0.733-0.016-1.853c0.089-0.081,0.255,0.389,0.308,0.365c0.041-0.016,0.097-0.251-0.053-0.689
		c-0.308-0.288-0.377-0.713-0.328-0.747c0.04-0.024,0.178,0.438,0.345,0.463c0.032-0.361,0.121-0.73,0.093-1.014
		c-0.008-0.074-0.126-0.446-0.471-0.754c-0.198-0.178-0.275-0.551-0.255-0.629c0.19,0.174,0.149,0.304,0.312,0.377
		c0.069-0.15,0.021-0.714-0.174-0.961c-0.113-0.187-0.057-0.162,0.077-0.048c0.174,0.21,0.093,0.19,0.243,0.28
		c0.333-0.787,0.033-0.941,0.057-0.994c0.02-0.053,0.255,0.369,0.458,0.207c-0.328-0.175-0.32-0.438-0.356-0.722
		c-0.028-0.227-0.174-0.308-0.117-0.365c0.324,0.248,0.417-0.028,0.43-0.081c-0.062,0.033-0.354,0.077-0.39-0.377
		c-0.012-0.178-0.288-0.255-0.288-0.255c0.17-0.033,0.709-0.061,0.58-0.596c-0.065,0.125-0.227,0.324-0.563,0.247
		c0,0,0.215-0.057,0.174-0.292C12.585,12.853,12.167,12.261,11.625,12.333L11.625,12.333z M12.585,13.043
		c-0.345,0.065-0.6,0.442-0.989,0.28c-0.053-0.033-0.159-0.061-0.146-0.142c0.069,0.04,0.179,0.064,0.256,0.077
		c0,0-0.211-0.174-0.024-0.389c-0.235,0.146-0.32,0.105-0.32,0.032c0-0.032,0.308-0.259,0.6-0.15c0.211,0.077,0.39,0.24,0.621,0.276
		v0.016H12.585z M12.03,13.047c0,0.077-0.102,0.19-0.102,0.19l0.373-0.187c-0.077-0.048-0.284-0.166-0.373-0.19
		C11.928,12.86,12.03,12.941,12.03,13.047L12.03,13.047z M9.832,11.064c0.937,0.061,1.731,0.494,1.731,0.494V5.53
		c0,0-1.375-0.964-3.608-0.101C7.298,5.685,5.696,5.469,5.696,5.469v6.163C7.099,11.729,8.928,11.007,9.832,11.064L9.832,11.064z
		 M9.164,7.821c0.178,0.057,0.446,0.012,0.531,0.255c0.089,0.251-0.077,0.576-0.28,0.592C9.24,8.681,9.083,8.624,8.98,8.636
		C8.936,8.64,8.904,8.652,8.896,8.705C8.888,8.757,8.819,8.782,8.807,8.713C8.794,8.644,8.77,8.36,8.77,8.279
		c0-0.081,0.077-0.093,0.093,0C8.875,8.368,8.904,8.433,8.973,8.51C9.03,8.571,9.37,8.652,9.5,8.555
		c0.101-0.081,0.077-0.259-0.028-0.328C9.366,8.153,8.94,8.056,8.867,7.935C8.746,7.724,8.969,7.553,9.062,7.497
		C9.211,7.411,9.39,7.44,9.451,7.44c0.058,0,0.138,0.02,0.146-0.045C9.601,7.331,9.65,7.338,9.654,7.407
		c0.02,0.187,0.037,0.077,0.033,0.271c0,0.09-0.033,0.093-0.073,0.025C9.589,7.659,9.325,7.44,9.111,7.574
		C8.928,7.675,8.997,7.776,9.164,7.821L9.164,7.821z M9.678,9.057C9.601,9.13,9.536,9.204,9.472,9.276
		C9.415,9.24,9.325,9.159,9.256,9.102C9.37,9.049,9.431,8.98,9.467,8.908C9.512,9.005,9.601,9.042,9.678,9.057L9.678,9.057z
		 M8.531,9.524C8.628,9.455,8.786,9.155,8.811,9.09c0.02-0.069,0.061-0.045,0.053,0.029C8.855,9.223,8.807,9.462,8.827,9.507
		c0.008,0.024,0.162,0.024,0.211,0.024c0.032,0,0.032,0.097,0.004,0.097c-0.04,0-0.211,0.024-0.211,0.024
		c-0.024,0.012-0.012,0.361,0.021,0.397c0.069,0.065,0.118,0.11,0.21,0.012c0.044-0.049,0.094-0.004,0.037,0.044
		c-0.029,0.028-0.154,0.182-0.187,0.256c-0.033,0.077-0.195,0.016-0.252-0.061c-0.085-0.126-0.048-0.385-0.057-0.637
		C8.628,9.67,8.454,9.584,8.531,9.524L8.531,9.524z M8.405,8.794C8.344,8.847,8.21,8.761,8.158,8.681
		c-0.078-0.13-0.057-0.438-0.041-0.689c0.012,0-0.044-0.061-0.097-0.074c-0.065-0.016-0.081-0.04,0.024-0.081
		c0.125-0.049,0.32-0.349,0.345-0.417C8.413,7.355,8.45,7.416,8.413,7.48C8.336,7.626,8.368,7.8,8.381,7.854
		c0.008,0.024,0.243-0.012,0.296-0.012c0.033,0.004,0.028,0.097,0,0.097c-0.041,0-0.349,0.037-0.349,0.037
		C8.308,7.987,8.353,8.474,8.385,8.51c0.004,0.008,0.102,0.089,0.138,0.057c0.049-0.045,0.094,0.004,0.037,0.049
		C8.531,8.64,8.478,8.738,8.405,8.794L8.405,8.794z M7.298,9.54c0.114-0.089,0.174-0.158,0.255-0.231
		C7.623,9.415,7.655,9.52,7.711,9.564c0.082-0.069,0.215-0.154,0.28-0.223c0.057,0.032,0.167,0.093,0.17,0.304
		c0.004,0.211,0.033,0.547,0.033,0.616c0,0.037,0.008,0.028,0.073,0.012c0.057-0.016,0.081,0.012,0.036,0.053
		c-0.045,0.037-0.251,0.182-0.309,0.243c-0.076-0.138-0.084-0.235-0.056-0.369c0.024-0.114,0.003-0.414,0.003-0.483
		c0-0.069-0.101-0.093-0.146-0.13C7.736,9.633,7.728,9.642,7.671,9.694c0,0.094-0.008,0.726,0.004,0.812
		C7.529,10.513,7.55,10.5,7.464,10.5C7.457,10.379,7.46,9.888,7.452,9.779C7.436,9.678,7.351,9.601,7.298,9.54L7.298,9.54z
		 M6.341,9.884C6.402,9.471,6.804,9.301,6.925,9.22c0.02,0.122,0.162,0.329,0.251,0.414c-0.138,0.113-0.451,0.374-0.568,0.462
		c0.064,0.122,0.316,0.207,0.397,0.118c0.061-0.061,0.138-0.041,0.069,0.041c-0.089,0.102-0.183,0.255-0.231,0.345
		C6.662,10.521,6.285,10.282,6.341,9.884L6.341,9.884z M6.236,7.967C6.333,7.821,6.572,7.675,6.73,7.619
		C6.783,7.675,6.84,7.769,6.917,7.87C6.84,7.926,6.767,8.003,6.723,8.06C6.69,8.023,6.495,7.736,6.361,7.935
		C6.289,8.04,6.211,8.352,6.463,8.546C6.584,8.64,6.714,8.668,6.876,8.644C6.792,8.753,6.771,8.79,6.723,8.879
		C6.483,8.924,6.382,8.847,6.269,8.745C6.013,8.542,6.09,8.19,6.236,7.967L6.236,7.967z M7.323,7.419
		C7.282,7.359,7.27,7.302,7.185,7.326C6.97,7.387,6.726,7.452,6.556,7.355C6.37,7.241,6.211,7.208,6.211,6.787
		C6.208,6.531,6.435,6.329,6.581,6.244c0.167-0.097,0.454-0.032,0.584,0.004C7.225,6.268,7.274,6.26,7.278,6.179
		c0-0.045,0.073-0.033,0.069,0c0,0.036-0.004,0.551-0.004,0.592S7.257,6.815,7.262,6.779c0-0.057-0.021-0.17-0.041-0.259
		C7.193,6.381,6.836,6.134,6.581,6.467c-0.008,0.017-0.109,0.19-0.097,0.328c0.012,0.102,0.024,0.248,0.093,0.341
		c0.203,0.284,0.487,0.186,0.637-0.041C7.27,7.01,7.257,6.904,7.262,6.848c0-0.036,0.081-0.041,0.081,0S7.338,7.233,7.338,7.265
		c0,0.053,0.037,0.09,0.058,0.114C7.448,7.452,7.391,7.513,7.323,7.419L7.323,7.419z M7.509,7.719
		c0.093-0.008,0.174,0.183,0.255,0.276c-0.02,0.024-0.02,0.592-0.02,0.645c0.02,0.032,0.085,0.073,0.113,0.044
		c0.045-0.044,0.077,0,0.037,0.037C7.857,8.757,7.671,8.916,7.626,8.969C7.562,8.919,7.538,8.847,7.529,8.75
		C7.416,8.778,7.311,8.838,7.241,8.94C7.115,8.883,7.014,8.774,7.01,8.648S7.096,8.445,7.188,8.36
		C7.173,8.348,7.156,8.336,7.14,8.32C7.112,8.295,7.079,8.088,7.104,8.036C7.165,7.898,7.367,7.731,7.509,7.719L7.509,7.719z
		 M8.535,6.329C8.482,6.386,8.36,6.458,8.308,6.495c-0.061-0.037-0.142-0.15-0.179-0.183C8.113,6.329,8.073,6.349,8.04,6.369
		c0,0.078,0.004,0.747-0.004,0.823C7.939,7.196,7.862,7.205,7.793,7.188C7.785,7.087,7.801,6.556,7.797,6.467
		c-0.008-0.105-0.101-0.114-0.228-0.15c0.074-0.085,0.203-0.183,0.26-0.228C7.935,6.17,8,6.17,8.056,6.236
		C8.125,6.199,8.247,6.122,8.3,6.082C8.353,6.139,8.446,6.236,8.482,6.28C8.531,6.236,8.591,6.276,8.535,6.329L8.535,6.329z
		 M9.512,6.986C9.451,7.018,9.325,7.144,9.232,7.144C8.936,7.132,8.563,6.917,8.62,6.52c0.061-0.41,0.385-0.572,0.523-0.576
		c0.163,0.008,0.194,0.15,0.288,0.235C9.293,6.292,9.07,6.511,8.94,6.645c0.032,0.069,0.187,0.328,0.51,0.251
		C9.597,6.856,9.642,6.92,9.512,6.986L9.512,6.986z M10.688,6.264c-0.032,0.036-0.154,0.138-0.292,0.247
		c0.02,0.004,0.041,0.008,0.064,0.02c0.223,0.13,0.3,0.32,0.081,0.495c-0.122,0.098-0.32,0.207-0.531,0.211
		c-0.142,0.004-0.39-0.114-0.434-0.167C9.69,6.965,9.812,6.848,9.901,6.767C9.759,6.662,9.629,6.515,9.735,6.353
		c0.077-0.122,0.325-0.324,0.547-0.312C10.497,6.053,10.594,6.203,10.688,6.264L10.688,6.264z M10.822,7.399l0.133,0.138v0.146
		l-0.101,0.089h-0.082l-0.081-0.085l-0.004-0.166L10.822,7.399L10.822,7.399z M11.073,6.73c-0.309,0.012-0.231-0.13-0.179-0.126
		C11.158,6.617,11.121,6.726,11.073,6.73L11.073,6.73z M11.069,6.917c-0.308-0.032-0.231-0.129-0.174-0.125
		C11.182,6.807,11.117,6.917,11.069,6.917L11.069,6.917z M11.207,8.741l-0.114,0.122l-0.146,0.122
		c-0.081-0.085-0.142-0.105-0.154-0.174l-0.004-0.559L10.655,8.17c-0.077,0.068-0.142,0.04-0.069-0.025l0.255-0.235l0.061-0.008
		l0.113,0.166L11.012,8.66C11.081,8.725,11.081,8.717,11.207,8.741L11.207,8.741z M10.055,10.189c0-0.134,0.069-0.24,0.163-0.333
		c-0.008-0.008-0.008-0.012-0.016-0.012c-0.029-0.021-0.073-0.256-0.037-0.304c0.045-0.065,0.251-0.264,0.389-0.276
		c0.097-0.012,0.235,0.194,0.32,0.288c-0.024,0.028,0.029,0.596,0.029,0.649c0.028,0.048,0.125,0.077,0.158,0.036
		c0.037-0.048,0.077,0.004,0.037,0.041c-0.037,0.033-0.179,0.15-0.224,0.203c-0.064-0.053-0.17-0.105-0.239-0.191
		c-0.142,0.029-0.288,0.13-0.401,0.211C10.104,10.44,10.063,10.314,10.055,10.189L10.055,10.189z M9.845,8.498
		C9.759,8.259,9.917,8.036,9.99,7.971c0.061-0.053,0.203-0.17,0.296-0.231c0.089,0.057,0.158,0.093,0.203,0.114
		c-0.016,0.044-0.032,0.129-0.129,0.138c-0.146,0.003-0.255-0.038-0.333,0.048c-0.077,0.081-0.016,0.316,0.078,0.409
		c0.073,0.069,0.267,0.159,0.304,0.078c0.049-0.105,0.118-0.053,0.049,0.041c-0.044,0.057-0.129,0.187-0.174,0.271
		C10.136,8.822,9.934,8.745,9.845,8.498L9.845,8.498z M9.905,10.161l-0.113,0.122l-0.105,0.109c-0.081-0.085-0.146-0.102-0.159-0.17
		L9.524,9.678l-0.167-0.09C9.281,9.653,9.216,9.625,9.285,9.568l0.255-0.239l0.061-0.008L9.767,9.56l0.004,0.515
		C9.836,10.136,9.775,10.136,9.905,10.161L9.905,10.161z M10.307,9.921c-0.183,0.15,0.024,0.292,0.081,0.34
		c0.061-0.032,0.142-0.044,0.203-0.064c-0.008-0.024-0.021-0.049-0.021-0.077s0.004-0.085,0.013-0.154
		C10.457,9.978,10.399,9.985,10.307,9.921L10.307,9.921z M10.578,9.905c0.008-0.089,0.008-0.182,0-0.231
		c0.008-0.069-0.198-0.195-0.235-0.195c-0.044,0-0.044,0.024-0.094,0.102c-0.024,0.041-0.004,0.17,0.016,0.19
		C10.388,9.873,10.477,9.905,10.578,9.905L10.578,9.905z M10.226,6.52c0.061-0.049,0.118-0.093,0.138-0.11
		c-0.089-0.081-0.239-0.166-0.309-0.174c-0.068-0.009-0.202,0.053-0.15,0.122c0.053,0.069,0.106,0.149,0.216,0.17
		C10.152,6.531,10.189,6.523,10.226,6.52L10.226,6.52z M10.128,6.722c-0.102,0.081-0.187,0.15-0.235,0.19
		c0.033,0.069,0.268,0.235,0.397,0.179c0.126-0.057,0.191-0.187,0.073-0.256C10.274,6.787,10.197,6.754,10.128,6.722L10.128,6.722z
		 M8.912,6.564c0.057-0.044,0.202-0.211,0.296-0.3c-0.053-0.033-0.146-0.098-0.187-0.19C8.863,6.208,8.831,6.3,8.912,6.564
		L8.912,6.564z M7.521,8.664c0-0.028,0-0.057,0-0.085c0-0.033,0-0.122,0-0.211C7.416,8.433,7.375,8.486,7.266,8.421
		c-0.178,0.146,0.094,0.235,0.15,0.284C7.457,8.681,7.489,8.672,7.521,8.664L7.521,8.664z M7.521,8.295
		C7.517,8.223,7.517,8.153,7.509,8.117c0.012-0.068-0.118-0.223-0.154-0.223c-0.04,0-0.125,0.077-0.174,0.154
		C7.156,8.092,7.148,8.21,7.205,8.275C7.311,8.393,7.363,8.396,7.521,8.295L7.521,8.295z M6.726,9.455
		c-0.344,0.21-0.279,0.442-0.166,0.583c0.061-0.044,0.279-0.19,0.373-0.284C6.881,9.723,6.763,9.543,6.726,9.455L6.726,9.455z
		 M4.654,10.27h0.763V9.524H4.654V10.27L4.654,10.27z M4.654,7.663h0.763V6.917H4.654V7.663L4.654,7.663z M3.758,9.179
		c-0.892,0-0.892,1.31,0,1.31C4.622,10.485,4.614,9.179,3.758,9.179L3.758,9.179z M3.758,6.564c-0.855,0-0.875,1.31,0,1.31
		C4.614,7.874,4.614,6.564,3.758,6.564L3.758,6.564z M11.438,14.215c-0.053-0.114-0.138-0.223-0.259-0.28
		c-0.511-0.243-1.488,0.28-1.48-0.482c0,0-0.349,0.259-0.187,0.531C9.873,14.604,10.886,13.837,11.438,14.215L11.438,14.215z
		 M6.856,20.438c-0.284,0.284-0.385,0.292-0.369,0.414c0.065,0.174,0.191,0.296,0.32,0.446c0.17,0.138,0.231,0.26,0.105-0.142
		C6.84,20.892,6.86,20.698,6.856,20.438L6.856,20.438z M4.882,15.042l0.012,0.012C4.89,15.642,3.24,16.485,2.53,16.866
		c1.095,0.377,2.128-0.636,2.007-0.389c-0.146,0.288-1.484,1.439-2.064,2.06c0.454,0.126,0.872-0.239,1.2-0.523
		c0.361-0.304,0.961-1.074,0.868-0.693c-0.973,1.2-1.74,3.686-1.27,3.848c0.272-0.564,1.387-3.438,1.46-3.426
		c0.077,0.012-0.089,0.758-0.114,1.252c-0.052,1.083-0.061,1.598,0.17,2.664c0.122-0.166,0.235-0.162,0.43-0.145
		c0.024-0.102,0.016-0.078-0.101-0.236c-0.309-0.414,0.048-0.969-0.102-1.313c-0.122-0.284-0.195-0.057-0.251-0.353
		c0.085-0.081,0.32-0.101,0.414-0.117c0.101-1.115,0.474-1.683,0.336-0.978c-0.073,0.357-0.178,0.945-0.125,0.966
		c0.053,0.016,0.053,0.016,0.097,0.04c0.021,0.008,1.869-3.032,0.843-0.924c-0.133,0.279-0.681,1.021-0.681,1.021
		c0.146,0.146,0.28,0.32,0.3,0.426c0.004,0.028,2.481-3.255,0.791-0.608c-0.102,0.162-0.608,0.701-0.738,0.859
		c-0.016,0.02,0.048,0.612,0.048,0.612c0.26-0.179,0.624-0.539,0.795-0.766c-0.024-0.337,0.053-0.292,0.077-0.621
		c0.078-0.052,0.183,0.089,0.304,0.203c0.057,0.053,1.699-2.801,0.669-0.661c-0.167,0.345-0.532,0.75-0.548,0.786
		c0.069,0.073,0.17,0.309,0.292,0.584c0.004,0.013,2.19-3.154,0.864-0.762c-0.105,0.186-0.767,0.981-0.754,1.001
		c0.163,0.393,0.304,0.783,0.304,0.783c-0.041-0.308-0.102-0.921,0.539-1.419c0.082,0.547,0.231,0.572,0.422,0.742
		c0.081,0.077,0.239,0.389,0.255,0.122c0.057-0.783-0.199-0.762-0.389-1.095c-0.044-0.076-0.037-0.255,0-0.247
		c1.573,0.048,1.525,1.524,1.788,1.524c-0.121-0.377-0.15-0.746-0.012-1.05c-0.422-0.296-0.316-0.811-0.235-1.034
		c-0.474-0.49-0.202-1.532,0.024-1.755c-0.304-0.442,0.073-0.746-0.012-1.019c-0.13-0.965-0.989-0.677-1.18-1.593
		c-0.133,0.166-0.381,0.722-0.267,0.9c0.134,0.211,0.421,0.231,0.438,0.385c0.008,0.065,0.028,0.251-0.02,0.288
		c-0.163,0.032-0.276-0.122-0.438-0.187c-0.333-0.13-1.143,0.421-1.192-0.069c-0.032-0.308,0.105-0.085,0.089-0.369
		C7.85,15.285,7.7,15.496,7.696,15.115c0-0.28,0.332-0.365,0.356-0.479c0.057-0.275,0.56,0.406,0.852-0.316
		c-0.17,0.024-0.515-0.097-0.482-0.264c0.085-0.454,0.097-1.544-0.924-1.305c-0.369,0.085-1.387,0.621-1.529,0.037
		c-0.365,0.652,0.361,0.539,0.58,0.523c-0.085,0.061-0.195,0.158-0.466,0.101c-0.576,0.377-2.676,1.715-3.284,2.048
		C3.608,15.833,4.861,15.042,4.882,15.042L4.882,15.042z M5.481,22.324c-0.198-0.082-0.413-0.138-0.596-0.264
		c0.13,0.434,0.223,0.812,0.462,1.269C5.486,23.592,5.726,22.96,5.481,22.324L5.481,22.324z"/>
</g>
</svg>
