<?xml version="1.0" encoding="utf-8"?>
<!-- Generator: Adobe Illustrator 16.0.0, SVG Export Plug-In . SVG Version: 6.00 Build 0)  -->
<!DOCTYPE svg PUBLIC "-//W3C//DTD SVG 1.1//EN" "http://www.w3.org/Graphics/SVG/1.1/DTD/svg11.dtd">
<svg version="1.1" id="Layer_1" xmlns="http://www.w3.org/2000/svg" xmlns:xlink="http://www.w3.org/1999/xlink" x="0px" y="0px"
	 width="282.408px" height="93.333px" viewBox="0 0 282.408 93.333" enable-background="new 0 0 282.408 93.333"
	 xml:space="preserve">
<g>
	<path fill="none" d="M31.276,53.474c8.507,0,13.663-5.153,13.663-15.199V2H17.618v35.821
		C17.618,48.136,22.775,53.474,31.276,53.474z"/>
	<path fill="none" d="M3.684,38.182v28.137h27.414C14.089,66.319,3.684,56.823,3.684,38.182z"/>
	<rect x="127.081" y="2" fill="#FFFFFF" width="13.932" height="63.321"/>
	<polygon fill="#FFFFFF" points="117.671,65.321 117.671,52.932 83.296,52.932 83.296,39.635 113.146,39.635 113.146,27.238 
		83.296,27.238 83.296,14.393 117.221,14.393 117.221,2 69.452,2 69.452,65.321 	"/>
	<path fill="#FFFFFF" d="M58.872,37.737V2H44.939v36.275c0,10.047-5.157,15.2-13.663,15.2c-8.501,0-13.659-5.34-13.659-15.656V2
		H3.684v36.182c0,18.641,10.405,28.137,27.414,28.137C48.105,66.319,58.872,56.911,58.872,37.737z"/>
	<g>
		<path fill="none" d="M194.91,12.144v-0.039c0-0.865-0.64-1.39-2.085-1.39h-3.269v2.824h3.353
			C194.156,13.539,194.91,13.099,194.91,12.144z"/>
		<path fill="none" d="M194.195,7.011V6.977c0-0.841-0.664-1.324-1.849-1.324h-2.79v2.719h2.6
			C193.404,8.372,194.195,7.967,194.195,7.011z"/>
		<polygon fill="none" points="206.805,6.484 205.099,10.638 208.502,10.638 		"/>
		<polygon fill="none" points="219.842,35.119 223.254,35.119 221.551,30.958 		"/>
		<path fill="none" d="M260.163,34.11v-0.034c0-2.202-1.622-4.037-3.89-4.037c-2.275,0-3.85,1.795-3.85,3.998v0.039
			c0,2.192,1.615,4.033,3.889,4.033C258.58,38.109,260.163,36.308,260.163,34.11z"/>
		<path fill="none" d="M180.301,7.6v-0.04c0-1.205-0.839-1.832-2.211-1.832h-2.811v3.685h2.864
			C179.518,9.414,180.301,8.68,180.301,7.6z"/>
		<path fill="none" d="M179.753,34.11v-0.034c0-2.275-1.553-3.871-3.867-3.871h-2.179v7.732h2.179
			C178.2,37.938,179.753,36.381,179.753,34.11z"/>
		<rect x="157.636" y="52.129" fill="#FFFFFF" width="2.824" height="12.825"/>
		<polygon fill="#FFFFFF" points="212.204,54.732 216.109,54.732 216.109,64.956 218.932,64.956 218.932,54.732 222.834,54.732 
			222.834,52.139 212.204,52.139 		"/>
		<polygon fill="#FFFFFF" points="256.822,59.759 262.87,59.759 262.87,57.248 256.822,57.248 256.822,54.639 263.692,54.639 
			263.692,52.139 254.025,52.139 254.025,64.956 263.787,64.956 263.787,62.454 256.822,62.454 		"/>
		<polygon fill="#FFFFFF" points="240.127,54.732 244.039,54.732 244.039,64.956 246.855,64.956 246.855,54.732 250.764,54.732 
			250.764,52.139 240.127,52.139 		"/>
		<polygon fill="#FFFFFF" points="191.971,54.732 195.883,54.732 195.883,64.956 198.708,64.956 198.708,54.732 202.6,54.732 
			202.6,52.139 191.971,52.139 		"/>
		<rect x="205.996" y="52.129" fill="#FFFFFF" width="2.823" height="12.825"/>
		<path fill="#FFFFFF" d="M185.547,57.282c-2.219-0.568-2.766-0.847-2.766-1.687V55.56c0-0.622,0.567-1.115,1.644-1.115
			c1.085,0,2.199,0.473,3.333,1.263l1.469-2.124c-1.295-1.047-2.889-1.629-4.762-1.629c-2.619,0-4.485,1.536-4.485,3.866v0.034
			c0,2.549,1.661,3.264,4.244,3.92c2.146,0.553,2.586,0.914,2.586,1.633v0.039c0,0.756-0.7,1.211-1.849,1.211
			c-1.47,0-2.675-0.609-3.828-1.562l-1.669,1.996c1.542,1.375,3.498,2.057,5.442,2.057c2.767,0,4.709-1.43,4.709-3.979v-0.035
			C189.611,58.901,188.146,57.962,185.547,57.282z"/>
		<path fill="#FFFFFF" d="M234.245,59.489c0,2.033-1.045,3.068-2.76,3.068c-1.726,0-2.767-1.08-2.767-3.17v-7.249h-2.828v7.325
			c0,3.777,2.11,5.691,5.549,5.691c3.455,0,5.628-1.898,5.628-5.785v-7.232h-2.822V59.489z"/>
		<polygon fill="#FFFFFF" points="173.374,60.032 167.368,52.139 164.767,52.139 164.767,64.956 167.551,64.956 167.551,56.802 
			173.759,64.956 176.161,64.956 176.161,52.139 173.374,52.139 		"/>
		<polygon fill="#FFFFFF" points="275.334,35.554 269.317,27.658 266.72,27.658 266.72,40.482 269.503,40.482 269.503,32.329 
			275.712,40.482 278.119,40.482 278.119,27.658 275.334,27.658 		"/>
		<polygon fill="#FFFFFF" points="228.898,30.259 232.808,30.259 232.808,40.482 235.623,40.482 235.623,30.259 239.522,30.259 
			239.522,27.658 228.898,27.658 		"/>
		<path fill="#FFFFFF" d="M222.885,27.569h-2.593l-5.5,12.913h2.873l1.172-2.872h5.422l1.18,2.872h2.944L222.885,27.569z
			 M219.842,35.119l1.709-4.159l1.703,4.159H219.842z"/>
		<rect x="242.919" y="27.658" fill="#FFFFFF" width="2.82" height="12.824"/>
		<polygon fill="#FFFFFF" points="167.271,37.977 160.313,37.977 160.313,35.279 166.36,35.279 166.36,32.774 160.313,32.774 
			160.313,30.171 167.182,30.171 167.182,27.658 157.509,27.658 157.509,40.482 167.271,40.482 		"/>
		<path fill="#FFFFFF" d="M182.705,34.076v-0.039c0-3.612-2.786-6.379-6.819-6.379h-5.002v12.824h5.002
			C179.919,40.482,182.705,37.683,182.705,34.076z M173.707,30.206h2.179c2.314,0,3.867,1.595,3.867,3.871v0.034
			c0,2.271-1.553,3.827-3.867,3.827h-2.179V30.206z"/>
		<path fill="#FFFFFF" d="M263.111,34.076v-0.039c0-3.651-2.84-6.598-6.799-6.598s-6.831,2.986-6.831,6.637v0.034
			c0,3.646,2.835,6.592,6.792,6.592C260.232,40.702,263.111,37.717,263.111,34.076z M252.424,34.076v-0.039
			c0-2.203,1.576-3.998,3.85-3.998c2.268,0,3.89,1.835,3.89,4.037v0.034c0,2.198-1.585,3.999-3.851,3.999
			C254.037,38.109,252.424,36.269,252.424,34.076z"/>
		<path fill="#FFFFFF" d="M207.366,30.039c1.282,0,2.287,0.548,3.281,1.448l1.798-2.071c-1.19-1.172-2.637-1.979-5.06-1.979
			c-3.94,0-6.685,2.987-6.685,6.637v0.034c0,3.685,2.795,6.593,6.577,6.593c2.471,0,3.938-0.876,5.256-2.285l-1.796-1.816
			c-1.008,0.916-1.907,1.508-3.372,1.508c-2.198,0-3.723-1.84-3.723-4.033v-0.039C203.644,31.834,205.206,30.039,207.366,30.039z"/>
		<path fill="#FFFFFF" d="M197.284,34.893v-7.235h-2.815v7.348c0,2.036-1.04,3.078-2.766,3.078c-1.725,0-2.771-1.076-2.771-3.166
			V27.66h-2.824v7.332c0,3.773,2.109,5.696,5.557,5.696C195.112,40.688,197.284,38.785,197.284,34.893z"/>
		<path fill="#FFFFFF" d="M162.859,16.207c3.443,0,5.628-1.9,5.628-5.784V3.186h-2.821v7.349c0,2.033-1.052,3.075-2.768,3.075
			c-1.72,0-2.778-1.077-2.778-3.171V3.186h-2.809v7.325C157.31,14.285,159.413,16.207,162.859,16.207z"/>
		<polygon fill="#FFFFFF" points="219.499,7.857 225.712,16.005 228.109,16.005 228.109,3.186 225.331,3.186 225.331,11.083 
			219.313,3.186 216.708,3.186 216.708,16.005 219.499,16.005 		"/>
		<path fill="#FFFFFF" d="M175.279,11.904h2.221l2.751,4.101h3.288l-3.126-4.576c1.623-0.602,2.754-1.908,2.754-3.977V7.413
			c0-1.205-0.386-2.217-1.104-2.927c-0.834-0.843-2.104-1.302-3.734-1.302h-5.865v12.82h2.815V11.904L175.279,11.904z
			 M175.279,5.728h2.812c1.37,0,2.209,0.626,2.209,1.832v0.04c0,1.08-0.783,1.814-2.157,1.814h-2.864V5.728L175.279,5.728z"/>
		<path fill="#FFFFFF" d="M197.711,12.492v-0.033c0-1.727-0.919-2.59-2.396-3.157c0.906-0.51,1.683-1.317,1.683-2.765V6.502
			c0-0.881-0.298-1.595-0.88-2.181c-0.73-0.736-1.891-1.135-3.349-1.135h-5.961v12.82h6.1
			C195.808,16.005,197.711,14.838,197.711,12.492z M189.557,5.652h2.79c1.185,0,1.849,0.483,1.849,1.324v0.035
			c0,0.957-0.791,1.36-2.039,1.36h-2.6V5.652L189.557,5.652z M189.557,10.715h3.269c1.443,0,2.085,0.525,2.085,1.39v0.039
			c0,0.955-0.754,1.395-2.003,1.395h-3.351V10.715L189.557,10.715z"/>
		<path fill="#FFFFFF" d="M204.091,13.135h5.424l1.164,2.872h2.958l-5.493-12.909h-2.613l-5.491,12.908h2.878L204.091,13.135z
			 M206.805,6.484l1.697,4.155h-3.403L206.805,6.484z"/>
	</g>
</g>
<g>
	<path fill="#8A8A8A" d="M8.153,80.317H5.007V78.22h8.567v2.098h-3.146v8.242H8.152L8.153,80.317L8.153,80.317z"/>
	<path fill="#8A8A8A" d="M16.426,78.22h2.275v4.09h4.194v-4.09h2.275v10.34h-2.275v-4.15h-4.194v4.15h-2.275V78.22L16.426,78.22z"/>
	<path fill="#8A8A8A" d="M28.763,78.22h7.799v2.023h-5.539v2.098h4.874v2.023h-4.874v2.172h5.613v2.025h-7.873V78.22z"/>
	<path fill="#8A8A8A" d="M45.148,84.128V78.22h2.275v5.85c0,1.684,0.842,2.555,2.23,2.555s2.23-0.842,2.23-2.48V78.22h2.274v5.836
		c0,3.129-1.757,4.666-4.535,4.666S45.148,87.171,45.148,84.128z"/>
	<path fill="#8A8A8A" d="M57.588,78.22h2.097l4.845,6.367V78.22h2.245v10.34h-1.934l-5.007-6.574v6.574h-2.245L57.588,78.22
		L57.588,78.22z"/>
	<path fill="#8A8A8A" d="M70.472,78.22h2.275v10.34h-2.275V78.22z"/>
	<path fill="#8A8A8A" d="M75.554,78.22h2.511l2.703,7.281l2.704-7.281h2.452l-4.18,10.414h-2.008L75.554,78.22z"/>
	<path fill="#8A8A8A" d="M88.63,78.22h7.799v2.023H90.89v2.098h4.875v2.023H90.89v2.172h5.612v2.025H88.63V78.22z"/>
	<path fill="#8A8A8A" d="M99.637,78.22h4.726c1.315,0,2.333,0.369,3.014,1.049c0.576,0.576,0.886,1.389,0.886,2.363v0.029
		c0,1.67-0.901,2.719-2.215,3.207l2.525,3.691h-2.659l-2.215-3.311h-1.787v3.311h-2.275L99.637,78.22L99.637,78.22z M104.215,83.243
		c1.108,0,1.743-0.592,1.743-1.463v-0.029c0-0.977-0.678-1.479-1.787-1.479h-2.26v2.971H104.215z"/>
	<path fill="#8A8A8A" d="M110.717,87.052l1.344-1.609c0.931,0.77,1.905,1.256,3.087,1.256c0.93,0,1.493-0.369,1.493-0.975v-0.029
		c0-0.574-0.355-0.871-2.083-1.314c-2.083-0.531-3.427-1.105-3.427-3.16V81.19c0-1.875,1.507-3.115,3.619-3.115
		c1.507,0,2.791,0.473,3.84,1.312l-1.182,1.717c-0.917-0.637-1.817-1.021-2.689-1.021c-0.872,0-1.33,0.398-1.33,0.9v0.029
		c0,0.68,0.444,0.902,2.231,1.359c2.097,0.547,3.279,1.301,3.279,3.102v0.029c0,2.055-1.566,3.205-3.796,3.205
		C113.538,88.708,111.958,88.161,110.717,87.052z"/>
	<path fill="#8A8A8A" d="M122.093,78.22h2.275v10.34h-2.275V78.22z"/>
	<path fill="#8A8A8A" d="M130.47,80.317h-3.146V78.22h8.566v2.098h-3.146v8.242h-2.275L130.47,80.317L130.47,80.317z"/>
	<path fill="#8A8A8A" d="M141.654,84.481l-3.973-6.262h2.658l2.466,4.15l2.511-4.15h2.585l-3.974,6.219v4.121h-2.275V84.481z"/>
	<path fill="#8A8A8A" d="M155.514,83.419V83.39c0-2.939,2.318-5.346,5.509-5.346c3.192,0,5.481,2.379,5.481,5.318v0.027
		c0,2.939-2.318,5.346-5.51,5.346S155.514,86.358,155.514,83.419z M164.124,83.419V83.39c0-1.771-1.301-3.248-3.132-3.248
		s-3.102,1.445-3.102,3.219v0.027c0,1.773,1.3,3.25,3.132,3.25S164.124,85.192,164.124,83.419z"/>
	<path fill="#8A8A8A" d="M169.637,78.22h7.873v2.068h-5.597v2.201h4.933v2.068h-4.933v4.004h-2.276V78.22L169.637,78.22z"/>
	<path fill="#8A8A8A" d="M185.521,83.419V83.39c0-2.939,2.215-5.346,5.391-5.346c1.95,0,3.115,0.648,4.077,1.596l-1.448,1.668
		c-0.797-0.725-1.61-1.164-2.643-1.164c-1.744,0-3,1.445-3,3.219v0.027c0,1.773,1.227,3.25,3,3.25c1.181,0,1.904-0.473,2.717-1.209
		l1.447,1.461c-1.062,1.137-2.244,1.846-4.238,1.846C187.779,88.735,185.521,86.39,185.521,83.419z"/>
	<path fill="#8A8A8A" d="M197.988,78.22h2.275v4.09h4.195v-4.09h2.274v10.34h-2.274v-4.15h-4.195v4.15h-2.275V78.22z"/>
	<path fill="#8A8A8A" d="M210.43,78.22h2.276v10.34h-2.276V78.22z"/>
	<path fill="#8A8A8A" d="M215.94,83.419V83.39c0-2.939,2.214-5.346,5.391-5.346c1.949,0,3.114,0.648,4.076,1.596l-1.447,1.668
		c-0.797-0.725-1.61-1.164-2.644-1.164c-1.742,0-2.999,1.445-2.999,3.219v0.027c0,1.773,1.226,3.25,2.999,3.25
		c1.181,0,1.905-0.473,2.717-1.209l1.447,1.461c-1.062,1.137-2.244,1.846-4.238,1.846C218.199,88.735,215.94,86.39,215.94,83.419z"
		/>
	<path fill="#8A8A8A" d="M231.953,78.146h2.099l4.432,10.414h-2.379l-0.945-2.318h-4.372l-0.944,2.318h-2.319L231.953,78.146z
		 M234.347,84.231l-1.375-3.352l-1.374,3.352H234.347z"/>
	<path fill="#8A8A8A" d="M240.066,83.419V83.39c0-2.939,2.29-5.346,5.421-5.346c1.86,0,2.983,0.504,4.062,1.416l-1.435,1.729
		c-0.797-0.664-1.506-1.047-2.701-1.047c-1.654,0-2.969,1.461-2.969,3.219v0.027c0,1.893,1.3,3.281,3.132,3.281
		c0.825,0,1.563-0.207,2.139-0.621v-1.479h-2.288v-1.965h4.49v4.488c-1.062,0.902-2.525,1.643-4.416,1.643
		C242.282,88.735,240.066,86.478,240.066,83.419z"/>
	<path fill="#8A8A8A" d="M252.758,83.419V83.39c0-2.939,2.316-5.346,5.509-5.346c3.19,0,5.481,2.379,5.481,5.318v0.027
		c0,2.939-2.318,5.346-5.511,5.346C255.047,88.735,252.758,86.358,252.758,83.419z M261.369,83.419V83.39
		c0-1.771-1.301-3.248-3.132-3.248c-1.829,0-3.102,1.445-3.102,3.219v0.027c0,1.773,1.3,3.25,3.131,3.25
		S261.369,85.192,261.369,83.419z"/>
</g>
</svg>
